<svg width="1054" height="469" viewBox="0 0 1054 469" fill="none" xmlns="http://www.w3.org/2000/svg">
<path fill-rule="evenodd" clip-rule="evenodd" d="M494 0H1054V460.952H494V0ZM494.756 1.6404V459.312H1053.24V1.6404H494.756Z" fill="#F95554" fill-opacity="0.5"/>
<path fill-rule="evenodd" clip-rule="evenodd" d="M560.908 459.895V1.62598H562.545V459.895H560.908Z" fill="#F95554" fill-opacity="0.5"/>
<path fill-rule="evenodd" clip-rule="evenodd" d="M528 461V1H530V461H528Z" fill="#F95554" fill-opacity="0.5"/>
<path fill-rule="evenodd" clip-rule="evenodd" d="M593.643 459.895V1.62598H595.279V459.895H593.643Z" fill="#F95554" fill-opacity="0.5"/>
<path fill-rule="evenodd" clip-rule="evenodd" d="M626.375 459.905V1.63525H628.012V459.905H626.375Z" fill="#F95554" fill-opacity="0.5"/>
<path fill-rule="evenodd" clip-rule="evenodd" d="M659.109 459.895V1.62598H660.746V459.895H659.109Z" fill="#F95554" fill-opacity="0.5"/>
<path fill-rule="evenodd" clip-rule="evenodd" d="M691.844 459.905V1.63525H693.48V459.905H691.844Z" fill="#F95554" fill-opacity="0.5"/>
<path fill-rule="evenodd" clip-rule="evenodd" d="M724.576 459.905V1.63525H726.213V459.905H724.576Z" fill="#F95554" fill-opacity="0.5"/>
<path fill-rule="evenodd" clip-rule="evenodd" d="M757.311 459.895V1.62598H758.947V459.895H757.311Z" fill="#F95554" fill-opacity="0.5"/>
<path fill-rule="evenodd" clip-rule="evenodd" d="M790.047 459.895V1.62598H791.684V459.895H790.047Z" fill="#F95554" fill-opacity="0.5"/>
<path fill-rule="evenodd" clip-rule="evenodd" d="M822.779 459.905V1.63525H824.416V459.905H822.779Z" fill="#F95554" fill-opacity="0.5"/>
<path fill-rule="evenodd" clip-rule="evenodd" d="M855.514 459.905V1.63525H857.15V459.905H855.514Z" fill="#F95554" fill-opacity="0.5"/>
<path fill-rule="evenodd" clip-rule="evenodd" d="M888.247 459.905V1.63525H889.884V459.905H888.247Z" fill="#F95554" fill-opacity="0.5"/>
<path fill-rule="evenodd" clip-rule="evenodd" d="M920.979 459.895V1.62598H922.616V459.895H920.979Z" fill="#F95554" fill-opacity="0.5"/>
<path fill-rule="evenodd" clip-rule="evenodd" d="M953.712 459.905V1.63525H955.349V459.905H953.712Z" fill="#F95554" fill-opacity="0.5"/>
<path fill-rule="evenodd" clip-rule="evenodd" d="M986.448 459.905V1.63525H988.085V459.905H986.448Z" fill="#F95554" fill-opacity="0.5"/>
<path fill-rule="evenodd" clip-rule="evenodd" d="M1019.18 459.895V1.62598H1020.82V459.895H1019.18Z" fill="#F95554" fill-opacity="0.5"/>
<path fill-rule="evenodd" clip-rule="evenodd" d="M1051.91 459.905V1.63525H1053.55V459.905H1051.91Z" fill="#F95554" fill-opacity="0.5"/>
<path fill-rule="evenodd" clip-rule="evenodd" d="M1054 100.952H494V99.0474H1054V100.952Z" fill="#F95554" fill-opacity="0.5"/>
<path fill-rule="evenodd" clip-rule="evenodd" d="M1054 68.5713H494V66.6665H1054V68.5713Z" fill="#F95554" fill-opacity="0.5"/>
<path fill-rule="evenodd" clip-rule="evenodd" d="M1054 36.1904H494V34.2857H1054V36.1904Z" fill="#F95554" fill-opacity="0.5"/>
<path fill-rule="evenodd" clip-rule="evenodd" d="M1054 133.333H494V131.429H1054V133.333Z" fill="#F95554" fill-opacity="0.5"/>
<path fill-rule="evenodd" clip-rule="evenodd" d="M1054 165.714H494V163.81H1054V165.714Z" fill="#F95554" fill-opacity="0.5"/>
<path fill-rule="evenodd" clip-rule="evenodd" d="M1054 232.381H494V230.476H1054V232.381Z" fill="#F95554" fill-opacity="0.5"/>
<path fill-rule="evenodd" clip-rule="evenodd" d="M1054 264.762H494V262.857H1054V264.762Z" fill="#F95554" fill-opacity="0.5"/>
<path fill-rule="evenodd" clip-rule="evenodd" d="M1054 297.143H494V295.238H1054V297.143Z" fill="#F95554" fill-opacity="0.5"/>
<path fill-rule="evenodd" clip-rule="evenodd" d="M1054 329.524H494V327.619H1054V329.524Z" fill="#F95554" fill-opacity="0.5"/>
<path fill-rule="evenodd" clip-rule="evenodd" d="M1054 361.905H494V360H1054V361.905Z" fill="#F95554" fill-opacity="0.5"/>
<path fill-rule="evenodd" clip-rule="evenodd" d="M1054 396.19H494V394.286H1054V396.19Z" fill="#F95554" fill-opacity="0.5"/>
<path fill-rule="evenodd" clip-rule="evenodd" d="M1054 428.571H494V426.667H1054V428.571Z" fill="#F95554" fill-opacity="0.5"/>
<path d="M786.186 115.864C773.722 115.864 747.481 122.954 724.662 149.497C762.688 131.19 778.634 137.091 800.562 140.382C806.725 119.005 825.899 107.185 841.778 107.185C855.784 105.226 885.726 114.141 889.566 149.497C893.266 183.556 855.602 201.836 834.798 208.384C815.595 213.294 775.079 228.565 759.716 244.279C723.45 281.373 731.467 313.376 759.716 295.361C782.315 280.949 852.285 279.383 889.566 278.288C876.332 320.337 841.778 396.906 732.21 396.906C647.715 396.906 604.937 334.706 587.333 303.606C636.836 413.292 771.98 458.729 880.185 396.906C966.748 347.448 983.743 250.617 981.419 208.384C978.185 117.911 916.768 59.7021 870.583 62.9898C824.398 66.2775 803.862 84.8656 786.186 115.864Z" fill="#002A9C"/>
<circle cx="13.3333" cy="13.3333" r="13.3333" transform="matrix(-1 0 0 1 852.095 125.714)" fill="#002A9C"/>
<path d="M676.586 378.99C736.775 406.116 785.322 390.812 814 381.279C690.14 412.278 600.968 322.852 613.214 214.723C622.197 135.403 680.891 103.179 708.67 90.3696L711.396 130.585C725.807 85.7348 751.557 60.8181 785.103 43.0199C655.419 21.7905 594.925 118.247 582.674 152.678C554.452 231.994 581.687 336.222 676.586 378.99Z" fill="#FC7735"/>
<circle cx="747.333" cy="217.143" r="178.548" stroke="black"/>
<path d="M920.166 233.333C920.166 319.848 850.458 389.976 764.476 389.976C678.493 389.976 608.785 319.848 608.785 233.333C608.785 146.819 678.493 76.6904 764.476 76.6904C850.458 76.6904 920.166 146.819 920.166 233.333Z" stroke="black"/>
<path d="M920.166 220C920.166 306.515 850.458 376.643 764.476 376.643C678.493 376.643 608.785 306.515 608.785 220C608.785 133.486 678.493 63.3574 764.476 63.3574C850.458 63.3574 920.166 133.486 920.166 220Z" stroke="black"/>
<path d="M891.596 151.429C891.596 176.917 870.509 197.596 844.476 197.596C818.444 197.596 797.357 176.917 797.357 151.429C797.357 125.941 818.444 105.262 844.476 105.262C870.509 105.262 891.596 125.941 891.596 151.429Z" stroke="black"/>
<path d="M986.833 169.524C986.833 247.09 923.527 309.976 845.428 309.976C767.329 309.976 704.023 247.09 704.023 169.524C704.023 91.9571 767.329 29.0713 845.428 29.0713C923.527 29.0713 986.833 91.9571 986.833 169.524Z" stroke="black"/>
<circle cx="733.047" cy="235.238" r="164.262" stroke="black"/>
<path d="M866.833 228.572C866.833 279.837 824.849 321.405 773.047 321.405C721.246 321.405 679.262 279.837 679.262 228.572C679.262 177.306 721.246 135.738 773.047 135.738C824.849 135.738 866.833 177.306 866.833 228.572Z" stroke="black"/>
<circle cx="797.809" cy="206.667" r="93.7857" stroke="black"/>
<circle cx="773.047" cy="216.191" r="209.976" stroke="black"/>
<path d="M28.6427 267.799H16.978V291.197H11.6851V267.799H0V262.617H28.6427V267.799Z" fill="#4B4A4B"/>
<path d="M61.3569 288.586C61.3569 288.958 61.2891 289.303 61.1534 289.622C61.0177 289.941 60.8277 290.22 60.5834 290.459C60.3526 290.685 60.0744 290.865 59.7487 290.997C59.423 291.13 59.0701 291.197 58.6901 291.197H39.595C39.1064 291.197 38.5771 291.144 38.0071 291.037C37.4507 290.918 36.8942 290.738 36.3378 290.499C35.7949 290.26 35.2724 289.954 34.7703 289.582C34.2681 289.197 33.8203 288.739 33.4267 288.207C33.0467 287.662 32.7413 287.038 32.5106 286.334C32.2799 285.616 32.1646 284.812 32.1646 283.922V269.891C32.1646 269.413 32.2188 268.902 32.3274 268.357C32.4496 267.799 32.6328 267.254 32.8771 266.722C33.1213 266.178 33.4403 265.66 33.8339 265.168C34.2274 264.676 34.6956 264.244 35.2385 263.872C35.7949 263.487 36.4328 263.182 37.1521 262.956C37.8714 262.73 38.6857 262.617 39.595 262.617H61.1127V267.799H39.595C38.9028 267.799 38.3735 267.978 38.0071 268.337C37.6407 268.696 37.4575 269.227 37.4575 269.931V283.922C37.4575 284.587 37.6407 285.105 38.0071 285.477C38.3871 285.835 38.9164 286.015 39.595 286.015H56.064V279.518H41.9768V274.296H58.6901C59.0701 274.296 59.423 274.369 59.7487 274.515C60.0744 274.648 60.3526 274.834 60.5834 275.073C60.8277 275.312 61.0177 275.591 61.1534 275.91C61.2891 276.216 61.3569 276.548 61.3569 276.907V288.586Z" fill="#4B4A4B"/>
<path d="M93.6843 291.197H69.5406C69.1606 291.197 68.8077 291.13 68.482 290.997C68.1563 290.865 67.8713 290.685 67.627 290.459C67.3963 290.22 67.2131 289.941 67.0773 289.622C66.9416 289.303 66.8738 288.958 66.8738 288.586V262.617H72.1667V286.015H93.6843V291.197Z" fill="#4B4A4B"/>
<path d="M138.735 282.786C138.735 283.809 138.599 284.733 138.328 285.556C138.07 286.367 137.724 287.084 137.29 287.709C136.855 288.333 136.346 288.865 135.763 289.303C135.179 289.742 134.575 290.101 133.951 290.38C133.327 290.659 132.689 290.865 132.038 290.997C131.4 291.13 130.796 291.197 130.226 291.197H109.807V286.015H130.226C131.244 286.015 132.031 285.723 132.587 285.138C133.157 284.553 133.442 283.769 133.442 282.786C133.442 282.308 133.368 281.869 133.218 281.471C133.069 281.072 132.852 280.727 132.567 280.434C132.295 280.142 131.956 279.916 131.549 279.757C131.155 279.597 130.714 279.518 130.226 279.518H118.052C117.197 279.518 116.274 279.371 115.283 279.079C114.293 278.774 113.37 278.289 112.515 277.624C111.673 276.96 110.968 276.09 110.398 275.013C109.841 273.937 109.563 272.622 109.563 271.067C109.563 269.513 109.841 268.204 110.398 267.141C110.968 266.065 111.673 265.194 112.515 264.53C113.37 263.853 114.293 263.368 115.283 263.075C116.274 262.77 117.197 262.617 118.052 262.617H136.068V267.799H118.052C117.048 267.799 116.261 268.098 115.691 268.696C115.134 269.293 114.856 270.084 114.856 271.067C114.856 272.064 115.134 272.854 115.691 273.439C116.261 274.01 117.048 274.296 118.052 274.296H130.226H130.266C130.836 274.309 131.44 274.389 132.078 274.535C132.716 274.668 133.347 274.881 133.971 275.173C134.609 275.465 135.213 275.837 135.783 276.289C136.353 276.727 136.855 277.259 137.29 277.883C137.738 278.508 138.09 279.225 138.348 280.036C138.606 280.846 138.735 281.763 138.735 282.786Z" fill="#4B4A4B"/>
<path d="M173.77 279.637C173.77 281.378 173.465 282.979 172.854 284.44C172.243 285.902 171.395 287.164 170.309 288.227C169.224 289.29 167.934 290.12 166.441 290.718C164.962 291.303 163.347 291.595 161.596 291.595H154.431C152.68 291.595 151.058 291.303 149.565 290.718C148.072 290.12 146.783 289.29 145.697 288.227C144.612 287.164 143.757 285.902 143.132 284.44C142.522 282.979 142.216 281.378 142.216 279.637V274.176C142.216 272.449 142.522 270.855 143.132 269.393C143.757 267.918 144.612 266.656 145.697 265.606C146.783 264.543 148.072 263.713 149.565 263.115C151.058 262.517 152.68 262.218 154.431 262.218H161.596C163.347 262.218 164.962 262.517 166.441 263.115C167.934 263.713 169.224 264.543 170.309 265.606C171.395 266.656 172.243 267.918 172.854 269.393C173.465 270.855 173.77 272.449 173.77 274.176V279.637ZM168.477 274.176C168.477 273.153 168.307 272.23 167.968 271.406C167.642 270.569 167.174 269.858 166.564 269.274C165.966 268.676 165.24 268.217 164.385 267.898C163.544 267.566 162.614 267.4 161.596 267.4H154.431C153.399 267.4 152.456 267.566 151.601 267.898C150.759 268.217 150.033 268.676 149.423 269.274C148.812 269.858 148.337 270.569 147.998 271.406C147.672 272.23 147.509 273.153 147.509 274.176V279.637C147.509 280.66 147.672 281.59 147.998 282.427C148.337 283.251 148.812 283.962 149.423 284.56C150.033 285.145 150.759 285.603 151.601 285.935C152.456 286.254 153.399 286.413 154.431 286.413H161.556C162.587 286.413 163.524 286.254 164.365 285.935C165.22 285.603 165.953 285.145 166.564 284.56C167.174 283.962 167.642 283.251 167.968 282.427C168.307 281.59 168.477 280.66 168.477 279.637V274.176Z" fill="#4B4A4B"/>
<path d="M205.812 291.197H181.669C181.289 291.197 180.936 291.13 180.61 290.997C180.284 290.865 179.999 290.685 179.755 290.459C179.524 290.22 179.341 289.941 179.205 289.622C179.07 289.303 179.002 288.958 179.002 288.586V262.617H184.295V286.015H205.812V291.197Z" fill="#4B4A4B"/>
<path d="M236.756 288.586C236.756 288.958 236.688 289.303 236.552 289.622C236.416 289.941 236.226 290.22 235.982 290.459C235.738 290.685 235.453 290.865 235.127 290.997C234.801 291.13 234.455 291.197 234.089 291.197H222.159C221.033 291.197 219.893 291.077 218.739 290.838C217.586 290.599 216.466 290.233 215.38 289.742C214.308 289.237 213.297 288.599 212.347 287.829C211.397 287.058 210.562 286.148 209.843 285.098C209.137 284.035 208.581 282.826 208.174 281.471C207.767 280.102 207.563 278.581 207.563 276.907V262.617H212.856V276.907C212.856 278.368 213.06 279.604 213.467 280.614C213.887 281.624 214.417 282.467 215.055 283.145C215.693 283.823 216.391 284.354 217.151 284.739C217.911 285.125 218.631 285.41 219.309 285.596C220.001 285.782 220.605 285.902 221.121 285.955C221.65 285.995 221.996 286.015 222.159 286.015H231.463V262.617H236.756V288.586Z" fill="#4B4A4B"/>
<path d="M269.307 267.799H257.642V291.197H252.349V267.799H240.664V262.617H269.307V267.799Z" fill="#4B4A4B"/>
<path d="M278.549 291.197H273.256V262.617H278.549V291.197Z" fill="#4B4A4B"/>
<path d="M315.375 279.637C315.375 281.378 315.07 282.979 314.459 284.44C313.849 285.902 313 287.164 311.915 288.227C310.829 289.29 309.54 290.12 308.047 290.718C306.568 291.303 304.953 291.595 303.202 291.595H296.036C294.285 291.595 292.664 291.303 291.171 290.718C289.678 290.12 288.388 289.29 287.303 288.227C286.217 287.164 285.362 285.902 284.738 284.44C284.127 282.979 283.822 281.378 283.822 279.637V274.176C283.822 272.449 284.127 270.855 284.738 269.393C285.362 267.918 286.217 266.656 287.303 265.606C288.388 264.543 289.678 263.713 291.171 263.115C292.664 262.517 294.285 262.218 296.036 262.218H303.202C304.953 262.218 306.568 262.517 308.047 263.115C309.54 263.713 310.829 264.543 311.915 265.606C313 266.656 313.849 267.918 314.459 269.393C315.07 270.855 315.375 272.449 315.375 274.176V279.637ZM310.083 274.176C310.083 273.153 309.913 272.23 309.574 271.406C309.248 270.569 308.78 269.858 308.169 269.274C307.572 268.676 306.846 268.217 305.991 267.898C305.149 267.566 304.22 267.4 303.202 267.4H296.036C295.005 267.4 294.061 267.566 293.206 267.898C292.365 268.217 291.639 268.676 291.028 269.274C290.417 269.858 289.942 270.569 289.603 271.406C289.277 272.23 289.115 273.153 289.115 274.176V279.637C289.115 280.66 289.277 281.59 289.603 282.427C289.942 283.251 290.417 283.962 291.028 284.56C291.639 285.145 292.365 285.603 293.206 285.935C294.061 286.254 295.005 286.413 296.036 286.413H303.161C304.193 286.413 305.129 286.254 305.97 285.935C306.825 285.603 307.558 285.145 308.169 284.56C308.78 283.962 309.248 283.251 309.574 282.427C309.913 281.59 310.083 280.66 310.083 279.637V274.176Z" fill="#4B4A4B"/>
<path d="M349.779 288.984C349.779 289.356 349.705 289.702 349.555 290.021C349.42 290.34 349.23 290.619 348.985 290.858C348.755 291.084 348.476 291.263 348.151 291.396C347.825 291.529 347.479 291.595 347.113 291.595C346.787 291.595 346.454 291.536 346.115 291.416C345.789 291.296 345.498 291.104 345.24 290.838L325.9 271.067V291.197H320.607V264.829C320.607 264.298 320.757 263.819 321.055 263.394C321.367 262.956 321.761 262.63 322.236 262.418C322.738 262.218 323.254 262.172 323.783 262.278C324.312 262.371 324.767 262.61 325.147 262.996L344.486 282.746V262.617H349.779V288.984Z" fill="#4B4A4B"/>
<path d="M384 282.786C384 283.809 383.864 284.733 383.593 285.556C383.335 286.367 382.989 287.084 382.555 287.709C382.12 288.333 381.611 288.865 381.028 289.303C380.444 289.742 379.84 290.101 379.216 290.38C378.592 290.659 377.954 290.865 377.302 290.997C376.665 291.13 376.061 291.197 375.491 291.197H355.072V286.015H375.491C376.508 286.015 377.296 285.723 377.852 285.138C378.422 284.553 378.707 283.769 378.707 282.786C378.707 282.308 378.632 281.869 378.483 281.471C378.334 281.072 378.117 280.727 377.832 280.434C377.56 280.142 377.221 279.916 376.814 279.757C376.42 279.597 375.979 279.518 375.491 279.518H363.317C362.462 279.518 361.539 279.371 360.548 279.079C359.558 278.774 358.635 278.289 357.78 277.624C356.938 276.96 356.233 276.09 355.663 275.013C355.106 273.937 354.828 272.622 354.828 271.067C354.828 269.513 355.106 268.204 355.663 267.141C356.233 266.065 356.938 265.194 357.78 264.53C358.635 263.853 359.558 263.368 360.548 263.075C361.539 262.77 362.462 262.617 363.317 262.617H381.333V267.799H363.317C362.313 267.799 361.526 268.098 360.956 268.696C360.399 269.293 360.121 270.084 360.121 271.067C360.121 272.064 360.399 272.854 360.956 273.439C361.526 274.01 362.313 274.296 363.317 274.296H375.491H375.531C376.101 274.309 376.705 274.389 377.343 274.535C377.981 274.668 378.612 274.881 379.236 275.173C379.874 275.465 380.478 275.837 381.048 276.289C381.618 276.727 382.12 277.259 382.555 277.883C383.002 278.508 383.355 279.225 383.613 280.036C383.871 280.846 384 281.763 384 282.786Z" fill="#4B4A4B"/>
<path d="M22.3573 328.229C20.8503 328.229 19.3909 327.999 17.9792 327.54C16.5866 327.062 15.4897 326.45 14.6885 325.704L15.7472 323.467C16.5103 324.155 17.4832 324.72 18.666 325.159C19.8678 325.58 21.0983 325.79 22.3573 325.79C24.017 325.79 25.257 325.513 26.0773 324.959C26.8976 324.385 27.3078 323.63 27.3078 322.693C27.3078 322.004 27.0789 321.45 26.621 321.029C26.1822 320.589 25.629 320.254 24.9613 320.025C24.3127 319.795 23.3875 319.537 22.1857 319.25C20.6786 318.887 19.4577 318.524 18.5229 318.16C17.6072 317.797 16.8155 317.243 16.1479 316.497C15.4992 315.732 15.1749 314.709 15.1749 313.428C15.1749 312.357 15.4515 311.391 16.0048 310.53C16.5771 309.67 17.4355 308.981 18.5801 308.465C19.7247 307.949 21.146 307.691 22.8438 307.691C24.0266 307.691 25.1902 307.844 26.3349 308.15C27.4795 308.456 28.4619 308.895 29.2822 309.469L28.3379 311.764C27.4985 311.228 26.6019 310.827 25.6481 310.559C24.6943 310.272 23.7595 310.129 22.8438 310.129C21.2223 310.129 20.0014 310.425 19.1811 311.018C18.3798 311.611 17.9792 312.376 17.9792 313.313C17.9792 314.001 18.2081 314.565 18.666 315.005C19.1238 315.426 19.6866 315.761 20.3543 316.009C21.041 316.239 21.9663 316.487 23.13 316.755C24.637 317.118 25.8484 317.482 26.7641 317.845C27.6798 318.208 28.4619 318.763 29.1105 319.509C29.7782 320.254 30.1121 321.258 30.1121 322.52C30.1121 323.572 29.8259 324.538 29.2536 325.418C28.6813 326.278 27.8133 326.966 26.6496 327.483C25.4859 327.98 24.0552 328.229 22.3573 328.229Z" fill="#FC7735"/>
<path d="M52.8638 312.653C54.7715 312.653 56.2786 313.208 57.385 314.317C58.5105 315.426 59.0733 317.07 59.0733 319.25V327.999H56.3262V319.566C56.3262 318.093 55.9829 316.984 55.2961 316.239C54.6284 315.493 53.665 315.12 52.406 315.12C51.0134 315.12 49.9069 315.56 49.0866 316.439C48.2663 317.3 47.8562 318.543 47.8562 320.168V327.999H45.1091V319.566C45.1091 318.093 44.7657 316.984 44.079 316.239C43.4113 315.493 42.4479 315.12 41.1888 315.12C39.7962 315.12 38.6898 315.56 37.8695 316.439C37.0492 317.3 36.639 318.543 36.639 320.168V327.999H33.8919V312.796H36.5245V315.063C37.0778 314.278 37.8027 313.686 38.6993 313.284C39.5959 312.863 40.6165 312.653 41.7611 312.653C42.9439 312.653 43.9931 312.892 44.9088 313.37C45.8245 313.848 46.5303 314.546 47.0263 315.464C47.5986 314.584 48.3903 313.896 49.4014 313.399C50.4315 312.902 51.5857 312.653 52.8638 312.653Z" fill="#FC7735"/>
<path d="M69.6506 312.653C71.7491 312.653 73.3515 313.169 74.458 314.202C75.5835 315.235 76.1463 316.774 76.1463 318.82V327.999H73.5423V325.991C73.0845 326.699 72.4263 327.244 71.5679 327.626C70.7285 327.99 69.7269 328.171 68.5633 328.171C66.8654 328.171 65.5014 327.76 64.4713 326.938C63.4602 326.116 62.9547 325.035 62.9547 323.696C62.9547 322.358 63.4411 321.287 64.4141 320.484C65.387 319.662 66.9322 319.25 69.0497 319.25H73.3992V318.705C73.3992 317.52 73.0558 316.611 72.3691 315.98C71.6823 315.349 70.6712 315.034 69.3359 315.034C68.4393 315.034 67.5617 315.187 66.7033 315.493C65.8448 315.78 65.1199 316.172 64.5285 316.669L63.3839 314.604C64.1661 313.973 65.1008 313.494 66.1882 313.169C67.2756 312.825 68.4297 312.653 69.6506 312.653ZM69.0211 326.049C70.0703 326.049 70.9765 325.819 71.7396 325.36C72.5026 324.882 73.0558 324.213 73.3992 323.352V321.23H69.1642C66.8368 321.23 65.6731 322.014 65.6731 323.582C65.6731 324.347 65.9688 324.949 66.5602 325.389C67.1516 325.829 67.9719 326.049 69.0211 326.049Z" fill="#FC7735"/>
<path d="M83.8625 315.349C84.3395 314.47 85.0453 313.8 85.9801 313.341C86.9148 312.883 88.0499 312.653 89.3853 312.653V315.321C89.2327 315.302 89.0228 315.292 88.7557 315.292C87.2678 315.292 86.0945 315.741 85.2361 316.64C84.3967 317.52 83.977 318.782 83.977 320.426V327.999H81.2299V312.796H83.8625V315.349Z" fill="#FC7735"/>
<path d="M101.913 327.11C101.513 327.454 101.017 327.722 100.425 327.913C99.8338 328.085 99.2233 328.171 98.5938 328.171C97.0676 328.171 95.8849 327.76 95.0455 326.938C94.2061 326.116 93.7864 324.939 93.7864 323.41V315.063H91.2111V312.796H93.7864V309.469H96.5335V312.796H100.883V315.063H96.5335V323.295C96.5335 324.117 96.7338 324.748 97.1344 325.188C97.5541 325.628 98.1455 325.848 98.9085 325.848C99.7479 325.848 100.463 325.609 101.055 325.131L101.913 327.11Z" fill="#FC7735"/>
<path d="M127.971 328.315L125.309 325.647C123.535 327.368 121.303 328.229 118.613 328.229C117.278 328.229 116.076 328.009 115.008 327.569C113.94 327.129 113.1 326.517 112.49 325.733C111.898 324.93 111.603 324.022 111.603 323.008C111.603 321.784 111.975 320.704 112.719 319.767C113.482 318.811 114.731 317.835 116.467 316.841C115.59 315.961 114.97 315.168 114.607 314.46C114.245 313.753 114.064 313.016 114.064 312.251C114.064 310.894 114.55 309.804 115.523 308.981C116.515 308.159 117.831 307.748 119.472 307.748C120.998 307.748 122.209 308.121 123.106 308.867C124.003 309.613 124.451 310.636 124.451 311.936C124.451 312.949 124.117 313.858 123.449 314.661C122.801 315.464 121.713 316.306 120.187 317.185L125.138 322.119C125.71 321.029 126.12 319.815 126.368 318.476L128.572 319.193C128.228 320.952 127.646 322.482 126.826 323.783L129.516 326.479L127.971 328.315ZM119.472 309.756C118.575 309.756 117.869 309.985 117.354 310.444C116.858 310.884 116.61 311.467 116.61 312.194C116.61 312.71 116.744 313.208 117.011 313.686C117.297 314.164 117.841 314.814 118.642 315.636C119.958 314.89 120.865 314.25 121.361 313.714C121.876 313.179 122.133 312.596 122.133 311.965C122.133 311.295 121.895 310.76 121.418 310.358C120.96 309.957 120.311 309.756 119.472 309.756ZM118.785 325.934C120.769 325.934 122.4 325.303 123.678 324.041L117.984 318.361C116.61 319.126 115.647 319.843 115.094 320.513C114.56 321.163 114.293 321.899 114.293 322.721C114.293 323.677 114.703 324.452 115.523 325.045C116.362 325.637 117.45 325.934 118.785 325.934Z" fill="#FC7735"/>
<path d="M146.459 328.229C144.952 328.229 143.492 327.999 142.081 327.54C140.688 327.062 139.591 326.45 138.79 325.704L139.849 323.467C140.612 324.155 141.585 324.72 142.768 325.159C143.969 325.58 145.2 325.79 146.459 325.79C148.119 325.79 149.359 325.513 150.179 324.959C150.999 324.385 151.409 323.63 151.409 322.693C151.409 322.004 151.18 321.45 150.723 321.029C150.284 320.589 149.731 320.254 149.063 320.025C148.414 319.795 147.489 319.537 146.287 319.25C144.78 318.887 143.559 318.524 142.624 318.16C141.709 317.797 140.917 317.243 140.249 316.497C139.601 315.732 139.277 314.709 139.277 313.428C139.277 312.357 139.553 311.391 140.106 310.53C140.679 309.67 141.537 308.981 142.682 308.465C143.826 307.949 145.248 307.691 146.945 307.691C148.128 307.691 149.292 307.844 150.436 308.15C151.581 308.456 152.563 308.895 153.384 309.469L152.439 311.764C151.6 311.228 150.704 310.827 149.75 310.559C148.796 310.272 147.861 310.129 146.945 310.129C145.324 310.129 144.103 310.425 143.283 311.018C142.481 311.611 142.081 312.376 142.081 313.313C142.081 314.001 142.31 314.565 142.768 315.005C143.225 315.426 143.788 315.761 144.456 316.009C145.143 316.239 146.068 316.487 147.232 316.755C148.739 317.118 149.95 317.482 150.866 317.845C151.781 318.208 152.563 318.763 153.212 319.509C153.88 320.254 154.214 321.258 154.214 322.52C154.214 323.572 153.927 324.538 153.355 325.418C152.783 326.278 151.915 326.966 150.751 327.483C149.588 327.98 148.157 328.229 146.459 328.229Z" fill="#FC7735"/>
<path d="M166.034 312.653C167.503 312.653 168.82 312.978 169.983 313.628C171.147 314.278 172.053 315.187 172.702 316.353C173.369 317.52 173.703 318.868 173.703 320.398C173.703 321.928 173.369 323.285 172.702 324.471C172.053 325.637 171.147 326.546 169.983 327.196C168.82 327.846 167.503 328.171 166.034 328.171C164.947 328.171 163.945 327.961 163.03 327.54C162.133 327.119 161.37 326.508 160.741 325.704V333.564H157.994V312.796H160.626V315.206C161.237 314.365 162.009 313.733 162.944 313.313C163.879 312.873 164.909 312.653 166.034 312.653ZM165.805 325.762C166.778 325.762 167.646 325.542 168.409 325.102C169.192 324.643 169.802 324.012 170.241 323.209C170.699 322.387 170.928 321.45 170.928 320.398C170.928 319.346 170.699 318.419 170.241 317.615C169.802 316.793 169.192 316.162 168.409 315.722C167.646 315.282 166.778 315.063 165.805 315.063C164.852 315.063 163.984 315.292 163.201 315.751C162.438 316.191 161.828 316.812 161.37 317.615C160.931 318.419 160.712 319.346 160.712 320.398C160.712 321.45 160.931 322.387 161.37 323.209C161.809 324.012 162.419 324.643 163.201 325.102C163.984 325.542 164.852 325.762 165.805 325.762Z" fill="#FC7735"/>
<path d="M191.205 320.484C191.205 320.694 191.186 320.971 191.148 321.316H178.844C179.015 322.654 179.597 323.735 180.589 324.557C181.6 325.36 182.85 325.762 184.338 325.762C186.15 325.762 187.609 325.15 188.716 323.926L190.233 325.704C189.546 326.508 188.687 327.119 187.657 327.54C186.646 327.961 185.511 328.171 184.252 328.171C182.65 328.171 181.228 327.846 179.988 327.196C178.748 326.527 177.785 325.599 177.098 324.414C176.431 323.228 176.097 321.889 176.097 320.398C176.097 318.925 176.421 317.596 177.07 316.411C177.737 315.225 178.643 314.307 179.788 313.657C180.952 312.988 182.258 312.653 183.708 312.653C185.158 312.653 186.446 312.988 187.571 313.657C188.716 314.307 189.603 315.225 190.233 316.411C190.881 317.596 191.205 318.954 191.205 320.484ZM183.708 314.976C182.392 314.976 181.286 315.378 180.389 316.181C179.511 316.984 178.996 318.036 178.844 319.336H188.573C188.42 318.055 187.896 317.013 186.999 316.21C186.122 315.388 185.025 314.976 183.708 314.976Z" fill="#FC7735"/>
<path d="M208.727 320.484C208.727 320.694 208.708 320.971 208.669 321.316H196.365C196.537 322.654 197.118 323.735 198.11 324.557C199.122 325.36 200.371 325.762 201.859 325.762C203.671 325.762 205.131 325.15 206.237 323.926L207.754 325.704C207.067 326.508 206.209 327.119 205.178 327.54C204.167 327.961 203.032 328.171 201.773 328.171C200.171 328.171 198.75 327.846 197.51 327.196C196.27 326.527 195.306 325.599 194.619 324.414C193.952 323.228 193.618 321.889 193.618 320.398C193.618 318.925 193.942 317.596 194.591 316.411C195.258 315.225 196.165 314.307 197.309 313.657C198.473 312.988 199.78 312.653 201.23 312.653C202.679 312.653 203.967 312.988 205.093 313.657C206.237 314.307 207.124 315.225 207.754 316.411C208.402 317.596 208.727 318.954 208.727 320.484ZM201.23 314.976C199.913 314.976 198.807 315.378 197.91 316.181C197.033 316.984 196.518 318.036 196.365 319.336H206.094C205.941 318.055 205.417 317.013 204.52 316.21C203.643 315.388 202.546 314.976 201.23 314.976Z" fill="#FC7735"/>
<path d="M226.849 306.715V327.999H224.216V325.59C223.606 326.431 222.833 327.072 221.898 327.511C220.964 327.951 219.933 328.171 218.808 328.171C217.339 328.171 216.023 327.846 214.859 327.196C213.695 326.546 212.78 325.637 212.112 324.471C211.463 323.285 211.139 321.928 211.139 320.398C211.139 318.868 211.463 317.52 212.112 316.353C212.78 315.187 213.695 314.278 214.859 313.628C216.023 312.978 217.339 312.653 218.808 312.653C219.895 312.653 220.897 312.863 221.813 313.284C222.728 313.686 223.491 314.288 224.102 315.091V306.715H226.849ZM219.037 325.762C219.991 325.762 220.859 325.542 221.641 325.102C222.423 324.643 223.033 324.012 223.472 323.209C223.911 322.387 224.13 321.45 224.13 320.398C224.13 319.346 223.911 318.419 223.472 317.615C223.033 316.793 222.423 316.162 221.641 315.722C220.859 315.282 219.991 315.063 219.037 315.063C218.064 315.063 217.186 315.282 216.404 315.722C215.641 316.162 215.031 316.793 214.573 317.615C214.134 318.419 213.915 319.346 213.915 320.398C213.915 321.45 214.134 322.387 214.573 323.209C215.031 324.012 215.641 324.643 216.404 325.102C217.186 325.542 218.064 325.762 219.037 325.762Z" fill="#FC7735"/>
<path d="M245.969 328.229C244.462 328.229 243.003 327.999 241.591 327.54C240.199 327.062 239.102 326.45 238.3 325.704L239.359 323.467C240.122 324.155 241.095 324.72 242.278 325.159C243.48 325.58 244.71 325.79 245.969 325.79C247.629 325.79 248.869 325.513 249.689 324.959C250.51 324.385 250.92 323.63 250.92 322.693C250.92 322.004 250.691 321.45 250.233 321.029C249.794 320.589 249.241 320.254 248.573 320.025C247.925 319.795 246.999 319.537 245.798 319.25C244.291 318.887 243.07 318.524 242.135 318.16C241.219 317.797 240.428 317.243 239.76 316.497C239.111 315.732 238.787 314.709 238.787 313.428C238.787 312.357 239.064 311.391 239.617 310.53C240.189 309.67 241.048 308.981 242.192 308.465C243.337 307.949 244.758 307.691 246.456 307.691C247.639 307.691 248.802 307.844 249.947 308.15C251.091 308.456 252.074 308.895 252.894 309.469L251.95 311.764C251.111 311.228 250.214 310.827 249.26 310.559C248.306 310.272 247.371 310.129 246.456 310.129C244.834 310.129 243.613 310.425 242.793 311.018C241.992 311.611 241.591 312.376 241.591 313.313C241.591 314.001 241.82 314.565 242.278 315.005C242.736 315.426 243.299 315.761 243.966 316.009C244.653 316.239 245.578 316.487 246.742 316.755C248.249 317.118 249.46 317.482 250.376 317.845C251.292 318.208 252.074 318.763 252.723 319.509C253.39 320.254 253.724 321.258 253.724 322.52C253.724 323.572 253.438 324.538 252.866 325.418C252.293 326.278 251.425 326.966 250.262 327.483C249.098 327.98 247.667 328.229 245.969 328.229Z" fill="#FC7735"/>
<path d="M264 328.171C262.493 328.171 261.138 327.837 259.936 327.167C258.734 326.498 257.79 325.58 257.103 324.414C256.436 323.228 256.102 321.889 256.102 320.398C256.102 318.906 256.436 317.577 257.103 316.411C257.79 315.225 258.734 314.307 259.936 313.657C261.138 312.988 262.493 312.653 264 312.653C265.507 312.653 266.852 312.988 268.034 313.657C269.236 314.307 270.171 315.225 270.839 316.411C271.525 317.577 271.869 318.906 271.869 320.398C271.869 321.889 271.525 323.228 270.839 324.414C270.171 325.58 269.236 326.498 268.034 327.167C266.852 327.837 265.507 328.171 264 328.171ZM264 325.762C264.973 325.762 265.84 325.542 266.604 325.102C267.386 324.643 267.996 324.012 268.435 323.209C268.874 322.387 269.093 321.45 269.093 320.398C269.093 319.346 268.874 318.419 268.435 317.615C267.996 316.793 267.386 316.162 266.604 315.722C265.84 315.282 264.973 315.063 264 315.063C263.027 315.063 262.149 315.282 261.367 315.722C260.604 316.162 259.993 316.793 259.536 317.615C259.097 318.419 258.877 319.346 258.877 320.398C258.877 321.45 259.097 322.387 259.536 323.209C259.993 324.012 260.604 324.643 261.367 325.102C262.149 325.542 263.027 325.762 264 325.762Z" fill="#FC7735"/>
<path d="M275.668 306.715H278.415V327.999H275.668V306.715Z" fill="#FC7735"/>
<path d="M297.796 312.796V327.999H295.192V325.704C294.639 326.488 293.904 327.1 292.989 327.54C292.092 327.961 291.109 328.171 290.041 328.171C288.019 328.171 286.426 327.617 285.262 326.508C284.099 325.379 283.517 323.725 283.517 321.545V312.796H286.264V321.23C286.264 322.702 286.617 323.821 287.323 324.586C288.029 325.331 289.04 325.704 290.356 325.704C291.806 325.704 292.95 325.265 293.79 324.385C294.629 323.505 295.049 322.262 295.049 320.656V312.796H297.796Z" fill="#FC7735"/>
<path d="M311.553 327.11C311.152 327.454 310.656 327.722 310.065 327.913C309.474 328.085 308.863 328.171 308.234 328.171C306.707 328.171 305.525 327.76 304.685 326.938C303.846 326.116 303.426 324.939 303.426 323.41V315.063H300.851V312.796H303.426V309.469H306.173V312.796H310.523V315.063H306.173V323.295C306.173 324.117 306.374 324.748 306.774 325.188C307.194 325.628 307.785 325.848 308.548 325.848C309.388 325.848 310.103 325.609 310.694 325.131L311.553 327.11Z" fill="#FC7735"/>
<path d="M314.874 312.796H317.621V327.999H314.874V312.796ZM316.248 309.871C315.713 309.871 315.265 309.699 314.903 309.354C314.559 309.01 314.388 308.589 314.388 308.092C314.388 307.595 314.559 307.174 314.903 306.83C315.265 306.467 315.713 306.285 316.248 306.285C316.782 306.285 317.22 306.457 317.564 306.801C317.926 307.127 318.108 307.538 318.108 308.035C318.108 308.551 317.926 308.991 317.564 309.354C317.22 309.699 316.782 309.871 316.248 309.871Z" fill="#FC7735"/>
<path d="M329.362 328.171C327.855 328.171 326.5 327.837 325.298 327.167C324.097 326.498 323.152 325.58 322.466 324.414C321.798 323.228 321.464 321.889 321.464 320.398C321.464 318.906 321.798 317.577 322.466 316.411C323.152 315.225 324.097 314.307 325.298 313.657C326.5 312.988 327.855 312.653 329.362 312.653C330.869 312.653 332.214 312.988 333.397 313.657C334.598 314.307 335.533 315.225 336.201 316.411C336.888 317.577 337.231 318.906 337.231 320.398C337.231 321.889 336.888 323.228 336.201 324.414C335.533 325.58 334.598 326.498 333.397 327.167C332.214 327.837 330.869 328.171 329.362 328.171ZM329.362 325.762C330.335 325.762 331.203 325.542 331.966 325.102C332.748 324.643 333.358 324.012 333.797 323.209C334.236 322.387 334.455 321.45 334.455 320.398C334.455 319.346 334.236 318.419 333.797 317.615C333.358 316.793 332.748 316.162 331.966 315.722C331.203 315.282 330.335 315.063 329.362 315.063C328.389 315.063 327.511 315.282 326.729 315.722C325.966 316.162 325.356 316.793 324.898 317.615C324.459 318.419 324.24 319.346 324.24 320.398C324.24 321.45 324.459 322.387 324.898 323.209C325.356 324.012 325.966 324.643 326.729 325.102C327.511 325.542 328.389 325.762 329.362 325.762Z" fill="#FC7735"/>
<path d="M349.128 312.653C351.055 312.653 352.581 313.217 353.707 314.345C354.851 315.455 355.423 317.09 355.423 319.25V327.999H352.676V319.566C352.676 318.093 352.324 316.984 351.618 316.239C350.912 315.493 349.901 315.12 348.584 315.12C347.096 315.12 345.923 315.56 345.065 316.439C344.206 317.3 343.777 318.543 343.777 320.168V327.999H341.03V312.796H343.663V315.091C344.216 314.307 344.96 313.705 345.895 313.284C346.849 312.863 347.926 312.653 349.128 312.653Z" fill="#FC7735"/>
<path d="M364.857 328.171C363.617 328.171 362.425 328.009 361.28 327.684C360.135 327.339 359.239 326.909 358.59 326.393L359.735 324.213C360.402 324.691 361.213 325.073 362.167 325.36C363.121 325.647 364.084 325.79 365.057 325.79C367.461 325.79 368.663 325.102 368.663 323.725C368.663 323.266 368.501 322.903 368.176 322.635C367.852 322.367 367.442 322.176 366.946 322.061C366.469 321.928 365.782 321.784 364.886 321.631C363.665 321.44 362.663 321.22 361.881 320.971C361.118 320.723 360.46 320.302 359.906 319.709C359.353 319.117 359.077 318.285 359.077 317.214C359.077 315.837 359.649 314.737 360.794 313.915C361.938 313.074 363.474 312.653 365.401 312.653C366.412 312.653 367.423 312.777 368.434 313.026C369.445 313.275 370.275 313.609 370.923 314.03L369.75 316.21C368.51 315.407 367.051 315.005 365.372 315.005C364.208 315.005 363.321 315.196 362.711 315.579C362.1 315.961 361.795 316.468 361.795 317.099C361.795 317.596 361.967 317.988 362.31 318.275C362.654 318.562 363.073 318.772 363.569 318.906C364.084 319.04 364.8 319.193 365.715 319.365C366.936 319.576 367.919 319.805 368.663 320.054C369.426 320.283 370.074 320.685 370.609 321.258C371.143 321.832 371.41 322.635 371.41 323.668C371.41 325.045 370.818 326.144 369.636 326.966C368.472 327.77 366.879 328.171 364.857 328.171Z" fill="#FC7735"/>
<path d="M140.208 198.738C175.189 214.001 203.403 205.389 220.07 200.026C148.085 217.468 96.2601 167.151 103.377 106.311C108.598 61.6802 142.71 43.5484 158.855 36.3412C158.396 40.6485 158.071 51.2042 160.439 58.9693C168.814 33.7334 183.78 19.7136 203.276 9.6992C127.906 -2.24584 92.7482 52.0268 85.6281 71.3998C69.226 116.028 85.0548 174.674 140.208 198.738Z" fill="#FC7735"/>
<path d="M192.026 60.6304C185.174 61.5914 171.904 67.3824 161.402 83.7017C180.897 70.7278 190.907 72.1926 202.424 72.8494C204.167 60.6479 213.798 52.6858 222.526 51.4614C230.075 49.3066 247.22 51.8883 252.052 70.9864C256.706 89.3843 237.408 102.316 226.476 107.512C216.298 111.686 195.2 123.187 187.965 132.991C170.883 156.135 177.752 173.072 191.895 161.012C203.209 151.364 241.552 145.109 261.961 141.634C257.922 165.72 244.818 210.386 184.588 218.835C138.14 225.35 108.807 198.749 96.7372 183.047C130.092 236.829 211.207 249.681 265.931 207.425C309.711 173.62 311.602 119.194 307.075 96.2061C298.336 46.8271 263.487 22.8908 234.96 24.9973C206.434 27.1037 196.542 42.6621 192.026 60.6304Z" fill="#002A9C"/>
<path d="M217.973 69.9169C217.973 73.981 221.267 77.2757 225.332 77.2757C229.396 77.2757 232.69 73.981 232.69 69.9169C232.69 65.8527 229.396 62.5581 225.332 62.5581C221.267 62.5581 217.973 65.8527 217.973 69.9169Z" fill="#002A9C"/>
<path d="M114.045 410.053H105.184V427.439H101.163V410.053H92.2861V406.202H114.045V410.053Z" fill="#4B4A4B"/>
<path d="M138.897 425.499C138.897 425.775 138.846 426.032 138.743 426.269C138.639 426.506 138.495 426.713 138.31 426.891C138.134 427.059 137.923 427.192 137.675 427.291C137.428 427.39 137.16 427.439 136.871 427.439H122.365C121.994 427.439 121.592 427.399 121.159 427.32C120.736 427.232 120.314 427.098 119.891 426.921C119.479 426.743 119.082 426.516 118.7 426.239C118.319 425.953 117.978 425.612 117.679 425.218C117.391 424.813 117.159 424.349 116.984 423.826C116.808 423.292 116.721 422.695 116.721 422.034V411.608C116.721 411.252 116.762 410.872 116.844 410.468C116.937 410.053 117.076 409.648 117.262 409.253C117.447 408.848 117.69 408.463 117.989 408.098C118.288 407.733 118.643 407.412 119.056 407.135C119.479 406.849 119.963 406.622 120.509 406.454C121.056 406.286 121.675 406.202 122.365 406.202H138.712V410.053H122.365C121.839 410.053 121.437 410.186 121.159 410.453C120.881 410.719 120.741 411.114 120.741 411.637V422.034C120.741 422.527 120.881 422.912 121.159 423.189C121.448 423.455 121.85 423.589 122.365 423.589H134.876V418.761H124.175V414.881H136.871C137.16 414.881 137.428 414.935 137.675 415.044C137.923 415.142 138.134 415.281 138.31 415.458C138.495 415.636 138.639 415.843 138.743 416.08C138.846 416.307 138.897 416.554 138.897 416.821V425.499Z" fill="#4B4A4B"/>
<path d="M163.455 427.439H145.114C144.825 427.439 144.557 427.39 144.31 427.291C144.062 427.192 143.846 427.059 143.66 426.891C143.485 426.713 143.346 426.506 143.243 426.269C143.14 426.032 143.088 425.775 143.088 425.499V406.202H147.109V423.589H163.455V427.439Z" fill="#4B4A4B"/>
<path d="M197.679 421.189C197.679 421.95 197.576 422.636 197.37 423.248C197.174 423.85 196.911 424.383 196.581 424.847C196.251 425.311 195.865 425.706 195.421 426.032C194.978 426.358 194.519 426.624 194.045 426.832C193.571 427.039 193.086 427.192 192.591 427.291C192.107 427.39 191.648 427.439 191.215 427.439H175.704V423.589H191.215C191.988 423.589 192.586 423.371 193.009 422.937C193.442 422.503 193.658 421.92 193.658 421.189C193.658 420.834 193.602 420.508 193.488 420.212C193.375 419.916 193.21 419.659 192.993 419.442C192.787 419.225 192.529 419.057 192.22 418.938C191.921 418.82 191.586 418.761 191.215 418.761H181.967C181.317 418.761 180.616 418.652 179.864 418.435C179.111 418.208 178.41 417.847 177.76 417.354C177.121 416.86 176.585 416.214 176.152 415.414C175.729 414.614 175.518 413.637 175.518 412.482C175.518 411.326 175.729 410.354 176.152 409.564C176.585 408.764 177.121 408.118 177.76 407.624C178.41 407.121 179.111 406.76 179.864 406.543C180.616 406.316 181.317 406.202 181.967 406.202H195.653V410.053H181.967C181.204 410.053 180.606 410.275 180.173 410.719C179.75 411.164 179.539 411.751 179.539 412.482C179.539 413.222 179.75 413.809 180.173 414.244C180.606 414.668 181.204 414.881 181.967 414.881H191.215H191.246C191.679 414.891 192.138 414.95 192.622 415.058C193.107 415.157 193.586 415.315 194.06 415.532C194.545 415.749 195.004 416.026 195.437 416.362C195.87 416.687 196.251 417.082 196.581 417.546C196.921 418.01 197.189 418.544 197.385 419.146C197.581 419.748 197.679 420.429 197.679 421.189Z" fill="#4B4A4B"/>
<path d="M224.294 418.85C224.294 420.143 224.062 421.333 223.598 422.419C223.134 423.505 222.49 424.443 221.665 425.232C220.84 426.022 219.861 426.639 218.727 427.084C217.603 427.518 216.376 427.735 215.046 427.735H209.603C208.273 427.735 207.041 427.518 205.906 427.084C204.772 426.639 203.793 426.022 202.968 425.232C202.143 424.443 201.494 423.505 201.02 422.419C200.556 421.333 200.324 420.143 200.324 418.85V414.792C200.324 413.508 200.556 412.324 201.02 411.238C201.494 410.142 202.143 409.204 202.968 408.424C203.793 407.634 204.772 407.017 205.906 406.573C207.041 406.128 208.273 405.906 209.603 405.906H215.046C216.376 405.906 217.603 406.128 218.727 406.573C219.861 407.017 220.84 407.634 221.665 408.424C222.49 409.204 223.134 410.142 223.598 411.238C224.062 412.324 224.294 413.508 224.294 414.792V418.85ZM220.273 414.792C220.273 414.032 220.144 413.345 219.887 412.733C219.639 412.111 219.284 411.583 218.82 411.149C218.366 410.704 217.814 410.364 217.165 410.127C216.526 409.88 215.819 409.757 215.046 409.757H209.603C208.819 409.757 208.102 409.88 207.453 410.127C206.814 410.364 206.262 410.704 205.798 411.149C205.334 411.583 204.973 412.111 204.716 412.733C204.468 413.345 204.344 414.032 204.344 414.792V418.85C204.344 419.61 204.468 420.301 204.716 420.923C204.973 421.535 205.334 422.063 205.798 422.507C206.262 422.942 206.814 423.282 207.453 423.529C208.102 423.766 208.819 423.885 209.603 423.885H215.015C215.799 423.885 216.51 423.766 217.149 423.529C217.799 423.282 218.356 422.942 218.82 422.507C219.284 422.063 219.639 421.535 219.887 420.923C220.144 420.301 220.273 419.61 220.273 418.85V414.792Z" fill="#4B4A4B"/>
<path d="M248.636 427.439H230.294C230.006 427.439 229.738 427.39 229.49 427.291C229.243 427.192 229.026 427.059 228.841 426.891C228.666 426.713 228.526 426.506 228.423 426.269C228.32 426.032 228.269 425.775 228.269 425.499V406.202H232.289V423.589H248.636V427.439Z" fill="#4B4A4B"/>
<path d="M272.142 425.499C272.142 425.775 272.091 426.032 271.988 426.269C271.885 426.506 271.74 426.713 271.555 426.891C271.369 427.059 271.153 427.192 270.905 427.291C270.658 427.39 270.395 427.439 270.117 427.439H261.054C260.198 427.439 259.332 427.35 258.456 427.172C257.58 426.995 256.729 426.723 255.904 426.358C255.09 425.983 254.322 425.509 253.6 424.936C252.878 424.364 252.244 423.687 251.698 422.907C251.162 422.117 250.739 421.219 250.43 420.212C250.12 419.195 249.966 418.065 249.966 416.821V406.202H253.987V416.821C253.987 417.907 254.141 418.825 254.451 419.575C254.77 420.326 255.172 420.952 255.657 421.456C256.141 421.96 256.672 422.354 257.25 422.641C257.827 422.927 258.374 423.139 258.889 423.278C259.415 423.416 259.874 423.505 260.265 423.544C260.667 423.574 260.93 423.589 261.054 423.589H268.122V406.202H272.142V425.499Z" fill="#4B4A4B"/>
<path d="M296.871 410.053H288.009V427.439H283.988V410.053H275.112V406.202H296.871V410.053Z" fill="#4B4A4B"/>
<path d="M303.892 427.439H299.871V406.202H303.892V427.439Z" fill="#4B4A4B"/>
<path d="M331.868 418.85C331.868 420.143 331.636 421.333 331.172 422.419C330.708 423.505 330.063 424.443 329.239 425.232C328.414 426.022 327.434 426.639 326.3 427.084C325.177 427.518 323.95 427.735 322.62 427.735H317.176C315.846 427.735 314.614 427.518 313.48 427.084C312.346 426.639 311.366 426.022 310.542 425.232C309.717 424.443 309.067 423.505 308.593 422.419C308.129 421.333 307.897 420.143 307.897 418.85V414.792C307.897 413.508 308.129 412.324 308.593 411.238C309.067 410.142 309.717 409.204 310.542 408.424C311.366 407.634 312.346 407.017 313.48 406.573C314.614 406.128 315.846 405.906 317.176 405.906H322.62C323.95 405.906 325.177 406.128 326.3 406.573C327.434 407.017 328.414 407.634 329.239 408.424C330.063 409.204 330.708 410.142 331.172 411.238C331.636 412.324 331.868 413.508 331.868 414.792V418.85ZM327.847 414.792C327.847 414.032 327.718 413.345 327.46 412.733C327.213 412.111 326.857 411.583 326.393 411.149C325.939 410.704 325.388 410.364 324.738 410.127C324.099 409.88 323.393 409.757 322.62 409.757H317.176C316.392 409.757 315.676 409.88 315.026 410.127C314.387 410.364 313.836 410.704 313.372 411.149C312.908 411.583 312.547 412.111 312.289 412.733C312.042 413.345 311.918 414.032 311.918 414.792V418.85C311.918 419.61 312.042 420.301 312.289 420.923C312.547 421.535 312.908 422.063 313.372 422.507C313.836 422.942 314.387 423.282 315.026 423.529C315.676 423.766 316.392 423.885 317.176 423.885H322.589C323.372 423.885 324.084 423.766 324.723 423.529C325.372 423.282 325.929 422.942 326.393 422.507C326.857 422.063 327.213 421.535 327.46 420.923C327.718 420.301 327.847 419.61 327.847 418.85V414.792Z" fill="#4B4A4B"/>
<path d="M358.003 425.795C358.003 426.072 357.947 426.328 357.833 426.565C357.73 426.802 357.586 427.01 357.4 427.187C357.225 427.355 357.014 427.488 356.766 427.587C356.519 427.686 356.256 427.735 355.977 427.735C355.73 427.735 355.477 427.691 355.22 427.602C354.972 427.513 354.75 427.37 354.555 427.172L339.863 412.482V427.439H335.842V407.846C335.842 407.451 335.956 407.096 336.182 406.78C336.419 406.454 336.718 406.212 337.079 406.054C337.461 405.906 337.853 405.872 338.255 405.951C338.657 406.02 339.002 406.197 339.291 406.484L353.982 421.16V406.202H358.003V425.795Z" fill="#4B4A4B"/>
<path d="M384 421.189C384 421.95 383.897 422.636 383.69 423.248C383.495 423.85 383.232 424.383 382.902 424.847C382.572 425.311 382.185 425.706 381.742 426.032C381.298 426.358 380.84 426.624 380.365 426.832C379.891 427.039 379.407 427.192 378.912 427.291C378.427 427.39 377.968 427.439 377.535 427.439H362.024V423.589H377.535C378.309 423.589 378.907 423.371 379.329 422.937C379.762 422.503 379.979 421.92 379.979 421.189C379.979 420.834 379.922 420.508 379.809 420.212C379.695 419.916 379.53 419.659 379.314 419.442C379.108 419.225 378.85 419.057 378.541 418.938C378.242 418.82 377.907 418.761 377.535 418.761H368.287C367.638 418.761 366.937 418.652 366.184 418.435C365.432 418.208 364.73 417.847 364.081 417.354C363.442 416.86 362.906 416.214 362.473 415.414C362.05 414.614 361.839 413.637 361.839 412.482C361.839 411.326 362.05 410.354 362.473 409.564C362.906 408.764 363.442 408.118 364.081 407.624C364.73 407.121 365.432 406.76 366.184 406.543C366.937 406.316 367.638 406.202 368.287 406.202H381.974V410.053H368.287C367.524 410.053 366.926 410.275 366.493 410.719C366.071 411.164 365.859 411.751 365.859 412.482C365.859 413.222 366.071 413.809 366.493 414.244C366.926 414.668 367.524 414.881 368.287 414.881H377.535H377.566C377.999 414.891 378.458 414.95 378.943 415.058C379.427 415.157 379.907 415.315 380.381 415.532C380.865 415.749 381.324 416.026 381.757 416.362C382.19 416.687 382.572 417.082 382.902 417.546C383.242 418.01 383.51 418.544 383.706 419.146C383.902 419.748 384 420.429 384 421.189Z" fill="#4B4A4B"/>
<path d="M98.1166 456.137C96.9708 456.137 95.8613 455.965 94.788 455.62C93.7292 455.261 92.8953 454.801 92.2861 454.24L93.0911 452.558C93.6712 453.076 94.4109 453.5 95.3101 453.83C96.2239 454.146 97.1594 454.305 98.1166 454.305C99.3784 454.305 100.321 454.096 100.945 453.679C101.568 453.248 101.88 452.68 101.88 451.976C101.88 451.458 101.706 451.041 101.358 450.725C101.025 450.395 100.604 450.143 100.096 449.971C99.6032 449.798 98.8998 449.604 97.9861 449.388C96.8403 449.115 95.9121 448.842 95.2014 448.569C94.5052 448.296 93.9033 447.879 93.3957 447.318C92.9025 446.743 92.656 445.974 92.656 445.011C92.656 444.206 92.8663 443.48 93.2869 442.833C93.722 442.186 94.3747 441.669 95.2449 441.281C96.1151 440.893 97.1956 440.699 98.4865 440.699C99.3857 440.699 100.27 440.814 101.141 441.044C102.011 441.274 102.758 441.604 103.381 442.036L102.664 443.761C102.025 443.358 101.344 443.056 100.618 442.855C99.8933 442.639 99.1826 442.531 98.4865 442.531C97.2536 442.531 96.3254 442.754 95.7017 443.2C95.0926 443.646 94.788 444.221 94.788 444.925C94.788 445.442 94.9621 445.866 95.3101 446.197C95.6582 446.513 96.0861 446.765 96.5937 446.952C97.1159 447.124 97.8193 447.311 98.704 447.512C99.8498 447.786 100.771 448.059 101.467 448.332C102.163 448.605 102.758 449.022 103.251 449.582C103.759 450.143 104.012 450.898 104.012 451.846C104.012 452.637 103.795 453.363 103.36 454.024C102.925 454.671 102.265 455.189 101.38 455.577C100.495 455.951 99.4074 456.137 98.1166 456.137Z" fill="#FC7735"/>
<path d="M121.31 444.429C122.76 444.429 123.906 444.846 124.747 445.68C125.603 446.513 126.031 447.75 126.031 449.388V455.965H123.942V449.626C123.942 448.519 123.681 447.685 123.159 447.124C122.652 446.564 121.919 446.283 120.962 446.283C119.903 446.283 119.062 446.614 118.438 447.275C117.815 447.922 117.503 448.856 117.503 450.078V455.965H115.414V449.626C115.414 448.519 115.153 447.685 114.631 447.124C114.123 446.564 113.391 446.283 112.434 446.283C111.375 446.283 110.534 446.614 109.91 447.275C109.286 447.922 108.975 448.856 108.975 450.078V455.965H106.886V444.537H108.888V446.24C109.308 445.651 109.859 445.205 110.541 444.903C111.223 444.587 111.999 444.429 112.869 444.429C113.768 444.429 114.566 444.609 115.262 444.968C115.958 445.327 116.495 445.852 116.872 446.542C117.307 445.881 117.909 445.363 118.678 444.99C119.461 444.616 120.338 444.429 121.31 444.429Z" fill="#FC7735"/>
<path d="M134.073 444.429C135.668 444.429 136.886 444.817 137.728 445.593C138.583 446.37 139.011 447.527 139.011 449.065V455.965H137.031V454.456C136.683 454.987 136.183 455.397 135.53 455.685C134.892 455.958 134.131 456.094 133.246 456.094C131.955 456.094 130.918 455.785 130.135 455.167C129.366 454.549 128.982 453.737 128.982 452.731C128.982 451.724 129.352 450.919 130.091 450.316C130.831 449.697 132.006 449.388 133.616 449.388H136.923V448.979C136.923 448.087 136.662 447.405 136.139 446.93C135.617 446.456 134.849 446.219 133.833 446.219C133.152 446.219 132.485 446.334 131.832 446.564C131.179 446.779 130.628 447.074 130.178 447.448L129.308 445.895C129.903 445.421 130.614 445.061 131.44 444.817C132.267 444.558 133.144 444.429 134.073 444.429ZM133.594 454.499C134.392 454.499 135.081 454.326 135.661 453.981C136.241 453.622 136.662 453.119 136.923 452.472V450.876H133.703C131.933 450.876 131.049 451.466 131.049 452.644C131.049 453.219 131.273 453.672 131.723 454.003C132.173 454.333 132.796 454.499 133.594 454.499Z" fill="#FC7735"/>
<path d="M144.878 446.456C145.24 445.795 145.777 445.291 146.488 444.946C147.198 444.601 148.061 444.429 149.077 444.429V446.434C148.96 446.42 148.801 446.413 148.598 446.413C147.467 446.413 146.575 446.751 145.922 447.426C145.284 448.087 144.965 449.036 144.965 450.272V455.965H142.876V444.537H144.878V446.456Z" fill="#FC7735"/>
<path d="M158.601 455.296C158.297 455.555 157.92 455.756 157.47 455.9C157.02 456.03 156.556 456.094 156.078 456.094C154.917 456.094 154.018 455.785 153.38 455.167C152.742 454.549 152.423 453.665 152.423 452.515V446.24H150.465V444.537H152.423V442.036H154.511V444.537H157.818V446.24H154.511V452.429C154.511 453.047 154.663 453.521 154.968 453.852C155.287 454.182 155.737 454.348 156.317 454.348C156.955 454.348 157.499 454.168 157.949 453.809L158.601 455.296Z" fill="#FC7735"/>
<path d="M178.412 456.202L176.389 454.197C175.04 455.491 173.343 456.137 171.298 456.137C170.283 456.137 169.369 455.972 168.557 455.641C167.745 455.311 167.107 454.851 166.642 454.261C166.193 453.658 165.968 452.975 165.968 452.213C165.968 451.293 166.251 450.481 166.816 449.776C167.397 449.058 168.347 448.325 169.666 447.577C168.999 446.916 168.528 446.319 168.252 445.787C167.977 445.256 167.839 444.702 167.839 444.127C167.839 443.106 168.209 442.287 168.948 441.669C169.703 441.051 170.703 440.742 171.951 440.742C173.111 440.742 174.032 441.022 174.714 441.583C175.395 442.143 175.736 442.912 175.736 443.89C175.736 444.652 175.482 445.335 174.975 445.938C174.482 446.542 173.655 447.175 172.495 447.836L176.258 451.545C176.693 450.725 177.005 449.812 177.194 448.806L178.869 449.345C178.608 450.668 178.166 451.818 177.542 452.795L179.587 454.822L178.412 456.202ZM171.951 442.251C171.269 442.251 170.732 442.424 170.341 442.769C169.964 443.099 169.775 443.538 169.775 444.084C169.775 444.472 169.877 444.846 170.08 445.205C170.297 445.565 170.711 446.053 171.32 446.671C172.321 446.111 173.01 445.629 173.387 445.227C173.778 444.824 173.974 444.386 173.974 443.911C173.974 443.408 173.793 443.006 173.43 442.704C173.082 442.402 172.589 442.251 171.951 442.251ZM171.429 454.412C172.937 454.412 174.177 453.938 175.149 452.989L170.819 448.72C169.775 449.295 169.043 449.834 168.622 450.337C168.216 450.826 168.013 451.379 168.013 451.997C168.013 452.716 168.325 453.298 168.948 453.744C169.587 454.19 170.413 454.412 171.429 454.412Z" fill="#FC7735"/>
<path d="M192.468 456.137C191.323 456.137 190.213 455.965 189.14 455.62C188.081 455.261 187.247 454.801 186.638 454.24L187.443 452.558C188.023 453.076 188.763 453.5 189.662 453.83C190.576 454.146 191.511 454.305 192.468 454.305C193.73 454.305 194.673 454.096 195.297 453.679C195.92 453.248 196.232 452.68 196.232 451.976C196.232 451.458 196.058 451.041 195.71 450.725C195.376 450.395 194.956 450.143 194.448 449.971C193.955 449.798 193.252 449.604 192.338 449.388C191.192 449.115 190.264 448.842 189.553 448.569C188.857 448.296 188.255 447.879 187.747 447.318C187.254 446.743 187.008 445.974 187.008 445.011C187.008 444.206 187.218 443.48 187.639 442.833C188.074 442.186 188.726 441.669 189.597 441.281C190.467 440.893 191.547 440.699 192.838 440.699C193.737 440.699 194.622 440.814 195.492 441.044C196.363 441.274 197.11 441.604 197.733 442.036L197.015 443.761C196.377 443.358 195.695 443.056 194.97 442.855C194.245 442.639 193.534 442.531 192.838 442.531C191.605 442.531 190.677 442.754 190.054 443.2C189.444 443.646 189.14 444.221 189.14 444.925C189.14 445.442 189.314 445.866 189.662 446.197C190.01 446.513 190.438 446.765 190.946 446.952C191.468 447.124 192.171 447.311 193.056 447.512C194.202 447.786 195.123 448.059 195.819 448.332C196.515 448.605 197.11 449.022 197.603 449.582C198.11 450.143 198.364 450.898 198.364 451.846C198.364 452.637 198.147 453.363 197.711 454.024C197.276 454.671 196.616 455.189 195.732 455.577C194.847 455.951 193.759 456.137 192.468 456.137Z" fill="#FC7735"/>
<path d="M207.351 444.429C208.468 444.429 209.469 444.673 210.353 445.162C211.238 445.651 211.927 446.334 212.42 447.211C212.928 448.087 213.182 449.101 213.182 450.251C213.182 451.401 212.928 452.421 212.42 453.313C211.927 454.19 211.238 454.872 210.353 455.361C209.469 455.85 208.468 456.094 207.351 456.094C206.525 456.094 205.763 455.936 205.067 455.62C204.385 455.304 203.805 454.844 203.326 454.24V460.148H201.238V444.537H203.239V446.348C203.704 445.716 204.291 445.241 205.002 444.925C205.712 444.594 206.496 444.429 207.351 444.429ZM207.177 454.283C207.917 454.283 208.577 454.118 209.157 453.787C209.752 453.442 210.216 452.968 210.549 452.364C210.897 451.746 211.071 451.041 211.071 450.251C211.071 449.46 210.897 448.763 210.549 448.159C210.216 447.541 209.752 447.067 209.157 446.736C208.577 446.406 207.917 446.24 207.177 446.24C206.452 446.24 205.792 446.413 205.197 446.758C204.617 447.088 204.153 447.556 203.805 448.159C203.471 448.763 203.305 449.46 203.305 450.251C203.305 451.041 203.471 451.746 203.805 452.364C204.139 452.968 204.603 453.442 205.197 453.787C205.792 454.118 206.452 454.283 207.177 454.283Z" fill="#FC7735"/>
<path d="M226.488 450.316C226.488 450.474 226.474 450.682 226.445 450.941H217.09C217.22 451.947 217.663 452.759 218.417 453.377C219.186 453.981 220.136 454.283 221.267 454.283C222.645 454.283 223.754 453.823 224.596 452.903L225.749 454.24C225.226 454.844 224.574 455.304 223.791 455.62C223.022 455.936 222.159 456.094 221.202 456.094C219.983 456.094 218.903 455.85 217.96 455.361C217.017 454.858 216.285 454.161 215.763 453.27C215.255 452.378 215.001 451.372 215.001 450.251C215.001 449.144 215.248 448.145 215.741 447.254C216.249 446.362 216.938 445.672 217.808 445.184C218.693 444.681 219.686 444.429 220.788 444.429C221.891 444.429 222.87 444.681 223.725 445.184C224.596 445.672 225.27 446.362 225.749 447.254C226.242 448.145 226.488 449.166 226.488 450.316ZM220.788 446.176C219.788 446.176 218.946 446.477 218.265 447.081C217.598 447.685 217.206 448.476 217.09 449.453H224.487C224.371 448.49 223.972 447.706 223.29 447.103C222.623 446.485 221.789 446.176 220.788 446.176Z" fill="#FC7735"/>
<path d="M239.809 450.316C239.809 450.474 239.795 450.682 239.766 450.941H230.411C230.541 451.947 230.984 452.759 231.738 453.377C232.507 453.981 233.457 454.283 234.588 454.283C235.966 454.283 237.075 453.823 237.917 452.903L239.07 454.24C238.547 454.844 237.895 455.304 237.112 455.62C236.343 455.936 235.48 456.094 234.523 456.094C233.304 456.094 232.224 455.85 231.281 455.361C230.338 454.858 229.606 454.161 229.084 453.27C228.576 452.378 228.322 451.372 228.322 450.251C228.322 449.144 228.569 448.145 229.062 447.254C229.57 446.362 230.259 445.672 231.129 445.184C232.014 444.681 233.007 444.429 234.109 444.429C235.212 444.429 236.191 444.681 237.046 445.184C237.917 445.672 238.591 446.362 239.07 447.254C239.563 448.145 239.809 449.166 239.809 450.316ZM234.109 446.176C233.109 446.176 232.267 446.477 231.586 447.081C230.919 447.685 230.527 448.476 230.411 449.453H237.808C237.692 448.49 237.293 447.706 236.611 447.103C235.944 446.485 235.11 446.176 234.109 446.176Z" fill="#FC7735"/>
<path d="M253.587 439.966V455.965H251.586V454.154C251.122 454.786 250.534 455.268 249.823 455.598C249.113 455.929 248.33 456.094 247.474 456.094C246.357 456.094 245.356 455.85 244.472 455.361C243.587 454.872 242.891 454.19 242.383 453.313C241.89 452.421 241.643 451.401 241.643 450.251C241.643 449.101 241.89 448.087 242.383 447.211C242.891 446.334 243.587 445.651 244.472 445.162C245.356 444.673 246.357 444.429 247.474 444.429C248.301 444.429 249.062 444.587 249.758 444.903C250.454 445.205 251.034 445.658 251.499 446.262V439.966H253.587ZM247.648 454.283C248.373 454.283 249.033 454.118 249.628 453.787C250.222 453.442 250.686 452.968 251.02 452.364C251.354 451.746 251.52 451.041 251.52 450.251C251.52 449.46 251.354 448.763 251.02 448.159C250.686 447.541 250.222 447.067 249.628 446.736C249.033 446.406 248.373 446.24 247.648 446.24C246.908 446.24 246.241 446.406 245.646 446.736C245.066 447.067 244.602 447.541 244.254 448.159C243.92 448.763 243.754 449.46 243.754 450.251C243.754 451.041 243.92 451.746 244.254 452.364C244.602 452.968 245.066 453.442 245.646 453.787C246.241 454.118 246.908 454.283 247.648 454.283Z" fill="#FC7735"/>
<path d="M268.124 456.137C266.978 456.137 265.869 455.965 264.795 455.62C263.737 455.261 262.903 454.801 262.294 454.24L263.099 452.558C263.679 453.076 264.418 453.5 265.318 453.83C266.231 454.146 267.167 454.305 268.124 454.305C269.386 454.305 270.329 454.096 270.952 453.679C271.576 453.248 271.888 452.68 271.888 451.976C271.888 451.458 271.714 451.041 271.366 450.725C271.032 450.395 270.611 450.143 270.104 449.971C269.611 449.798 268.907 449.604 267.994 449.388C266.848 449.115 265.919 448.842 265.209 448.569C264.513 448.296 263.911 447.879 263.403 447.318C262.91 446.743 262.663 445.974 262.663 445.011C262.663 444.206 262.874 443.48 263.294 442.833C263.729 442.186 264.382 441.669 265.252 441.281C266.123 440.893 267.203 440.699 268.494 440.699C269.393 440.699 270.278 440.814 271.148 441.044C272.018 441.274 272.765 441.604 273.389 442.036L272.671 443.761C272.033 443.358 271.351 443.056 270.626 442.855C269.901 442.639 269.19 442.531 268.494 442.531C267.261 442.531 266.333 442.754 265.709 443.2C265.1 443.646 264.795 444.221 264.795 444.925C264.795 445.442 264.97 445.866 265.318 446.197C265.666 446.513 266.094 446.765 266.601 446.952C267.123 447.124 267.827 447.311 268.711 447.512C269.857 447.786 270.778 448.059 271.474 448.332C272.171 448.605 272.765 449.022 273.258 449.582C273.766 450.143 274.02 450.898 274.02 451.846C274.02 452.637 273.802 453.363 273.367 454.024C272.932 454.671 272.272 455.189 271.387 455.577C270.503 455.951 269.415 456.137 268.124 456.137Z" fill="#FC7735"/>
<path d="M281.832 456.094C280.686 456.094 279.657 455.843 278.743 455.34C277.829 454.836 277.111 454.146 276.589 453.27C276.081 452.378 275.828 451.372 275.828 450.251C275.828 449.13 276.081 448.131 276.589 447.254C277.111 446.362 277.829 445.672 278.743 445.184C279.657 444.681 280.686 444.429 281.832 444.429C282.978 444.429 284 444.681 284.9 445.184C285.813 445.672 286.524 446.362 287.032 447.254C287.554 448.131 287.815 449.13 287.815 450.251C287.815 451.372 287.554 452.378 287.032 453.27C286.524 454.146 285.813 454.836 284.9 455.34C284 455.843 282.978 456.094 281.832 456.094ZM281.832 454.283C282.572 454.283 283.232 454.118 283.812 453.787C284.406 453.442 284.871 452.968 285.204 452.364C285.538 451.746 285.705 451.041 285.705 450.251C285.705 449.46 285.538 448.763 285.204 448.159C284.871 447.541 284.406 447.067 283.812 446.736C283.232 446.406 282.572 446.24 281.832 446.24C281.092 446.24 280.425 446.406 279.831 446.736C279.25 447.067 278.786 447.541 278.438 448.159C278.105 448.763 277.938 449.46 277.938 450.251C277.938 451.041 278.105 451.746 278.438 452.364C278.786 452.968 279.25 453.442 279.831 453.787C280.425 454.118 281.092 454.283 281.832 454.283Z" fill="#FC7735"/>
<path d="M290.703 439.966H292.792V455.965H290.703V439.966Z" fill="#FC7735"/>
<path d="M307.527 444.537V455.965H305.547V454.24C305.126 454.829 304.568 455.289 303.872 455.62C303.19 455.936 302.443 456.094 301.631 456.094C300.094 456.094 298.882 455.677 297.998 454.844C297.113 453.996 296.671 452.752 296.671 451.113V444.537H298.759V450.876C298.759 451.983 299.028 452.824 299.564 453.399C300.101 453.96 300.87 454.24 301.87 454.24C302.973 454.24 303.843 453.909 304.481 453.248C305.119 452.587 305.438 451.652 305.438 450.445V444.537H307.527Z" fill="#FC7735"/>
<path d="M317.986 455.296C317.681 455.555 317.304 455.756 316.855 455.9C316.405 456.03 315.941 456.094 315.462 456.094C314.302 456.094 313.403 455.785 312.764 455.167C312.126 454.549 311.807 453.665 311.807 452.515V446.24H309.849V444.537H311.807V442.036H313.896V444.537H317.203V446.24H313.896V452.429C313.896 453.047 314.048 453.521 314.353 453.852C314.672 454.182 315.121 454.348 315.701 454.348C316.34 454.348 316.884 454.168 317.333 453.809L317.986 455.296Z" fill="#FC7735"/>
<path d="M320.511 444.537H322.599V455.965H320.511V444.537ZM321.555 442.337C321.149 442.337 320.808 442.208 320.533 441.949C320.271 441.691 320.141 441.374 320.141 441.001C320.141 440.627 320.271 440.311 320.533 440.052C320.808 439.779 321.149 439.642 321.555 439.642C321.961 439.642 322.295 439.771 322.556 440.03C322.831 440.275 322.969 440.584 322.969 440.957C322.969 441.346 322.831 441.676 322.556 441.949C322.295 442.208 321.961 442.337 321.555 442.337Z" fill="#FC7735"/>
<path d="M331.526 456.094C330.38 456.094 329.35 455.843 328.436 455.34C327.523 454.836 326.805 454.146 326.283 453.27C325.775 452.378 325.521 451.372 325.521 450.251C325.521 449.13 325.775 448.131 326.283 447.254C326.805 446.362 327.523 445.672 328.436 445.184C329.35 444.681 330.38 444.429 331.526 444.429C332.671 444.429 333.694 444.681 334.593 445.184C335.507 445.672 336.218 446.362 336.725 447.254C337.247 448.131 337.508 449.13 337.508 450.251C337.508 451.372 337.247 452.378 336.725 453.27C336.218 454.146 335.507 454.836 334.593 455.34C333.694 455.843 332.671 456.094 331.526 456.094ZM331.526 454.283C332.265 454.283 332.925 454.118 333.505 453.787C334.1 453.442 334.564 452.968 334.898 452.364C335.231 451.746 335.398 451.041 335.398 450.251C335.398 449.46 335.231 448.763 334.898 448.159C334.564 447.541 334.1 447.067 333.505 446.736C332.925 446.406 332.265 446.24 331.526 446.24C330.786 446.24 330.119 446.406 329.524 446.736C328.944 447.067 328.48 447.541 328.132 448.159C327.798 448.763 327.631 449.46 327.631 450.251C327.631 451.041 327.798 451.746 328.132 452.364C328.48 452.968 328.944 453.442 329.524 453.787C330.119 454.118 330.786 454.283 331.526 454.283Z" fill="#FC7735"/>
<path d="M346.554 444.429C348.018 444.429 349.179 444.853 350.034 445.701C350.905 446.535 351.34 447.764 351.34 449.388V455.965H349.251V449.626C349.251 448.519 348.983 447.685 348.446 447.124C347.91 446.564 347.141 446.283 346.14 446.283C345.009 446.283 344.117 446.614 343.464 447.275C342.812 447.922 342.485 448.856 342.485 450.078V455.965H340.397V444.537H342.398V446.262C342.819 445.672 343.384 445.22 344.095 444.903C344.82 444.587 345.64 444.429 346.554 444.429Z" fill="#FC7735"/>
<path d="M358.512 456.094C357.569 456.094 356.663 455.972 355.792 455.728C354.922 455.469 354.24 455.146 353.747 454.757L354.618 453.119C355.125 453.478 355.742 453.766 356.467 453.981C357.192 454.197 357.924 454.305 358.664 454.305C360.492 454.305 361.405 453.787 361.405 452.752C361.405 452.407 361.282 452.134 361.035 451.933C360.789 451.731 360.477 451.588 360.1 451.501C359.737 451.401 359.215 451.293 358.534 451.178C357.605 451.034 356.844 450.869 356.249 450.682C355.669 450.495 355.169 450.179 354.748 449.733C354.327 449.288 354.117 448.662 354.117 447.857C354.117 446.822 354.552 445.996 355.422 445.378C356.293 444.745 357.46 444.429 358.925 444.429C359.694 444.429 360.463 444.522 361.231 444.709C362 444.896 362.631 445.148 363.124 445.464L362.232 447.103C361.289 446.499 360.18 446.197 358.903 446.197C358.019 446.197 357.344 446.341 356.88 446.628C356.416 446.916 356.184 447.297 356.184 447.771C356.184 448.145 356.314 448.44 356.576 448.655C356.837 448.871 357.156 449.029 357.533 449.13C357.924 449.23 358.468 449.345 359.164 449.475C360.093 449.633 360.84 449.805 361.405 449.992C361.985 450.165 362.479 450.466 362.885 450.898C363.291 451.329 363.494 451.933 363.494 452.709C363.494 453.744 363.044 454.571 362.145 455.189C361.26 455.792 360.049 456.094 358.512 456.094Z" fill="#FC7735"/>
<path d="M20.7248 454.128C31.752 458.939 40.6462 456.225 45.9004 454.534C23.2081 460.032 6.87078 444.17 9.11443 424.991C10.7603 410.922 21.5135 405.206 26.603 402.934C26.4584 404.292 26.3558 407.62 27.1023 410.067C29.7425 402.112 34.4602 397.693 40.6062 394.536C16.8468 390.77 5.76368 407.879 3.51917 413.986C-1.65138 428.055 3.33845 446.542 20.7248 454.128Z" fill="#FC7735"/>
<path d="M37.0586 410.591C34.8987 410.894 30.7153 412.72 27.4048 417.864C33.5503 413.775 36.7058 414.236 40.3365 414.443C40.8859 410.597 43.9219 408.087 46.6735 407.701C49.0531 407.022 54.4579 407.836 55.981 413.856C57.4483 419.656 51.3649 423.732 47.9187 425.37C44.71 426.686 38.0594 430.312 35.7783 433.402C30.3936 440.698 32.559 446.037 37.0173 442.235C40.584 439.194 52.6709 437.222 59.1049 436.127C57.8315 443.72 53.7008 457.8 34.7138 460.463C20.0717 462.517 10.8248 454.132 7.02005 449.182C17.5347 466.136 43.1051 470.187 60.3563 456.866C74.1572 446.21 74.7535 429.053 73.3265 421.806C70.5715 406.24 59.5859 398.695 50.5932 399.359C41.6005 400.023 38.4824 404.927 37.0586 410.591Z" fill="#002A9C"/>
<path d="M45.2394 413.518C45.2394 414.799 46.278 415.838 47.5591 415.838C48.8403 415.838 49.8789 414.799 49.8789 413.518C49.8789 412.237 48.8403 411.198 47.5591 411.198C46.278 411.198 45.2394 412.237 45.2394 413.518Z" fill="#002A9C"/>
</svg>
