<svg width="998" height="235" viewBox="0 0 998 235" fill="none" xmlns="http://www.w3.org/2000/svg">
<path d="M540.96 228H538.94L535.22 214.6H537.22L539.26 222.9L539.92 226.38L540.76 222.94L543.18 214.6H545.38L547.76 222.94L548.58 226.38L549.26 222.9L551.34 214.6H553.3L549.54 228H547.52L545.06 219.3L544.24 216.04L543.44 219.3L540.96 228ZM557.979 228.2C555.239 228.2 553.339 226.24 553.339 223.16C553.339 220.1 555.219 218.12 557.879 218.12C560.619 218.12 562.279 219.94 562.279 222.78C562.279 223.08 562.239 223.38 562.199 223.56H555.019C555.119 225.6 556.259 226.76 557.979 226.76C559.919 226.76 560.699 225.7 561.079 224.86L562.139 226.06C561.419 227.22 560.079 228.2 557.979 228.2ZM557.879 219.58C556.319 219.58 555.279 220.5 555.059 222.3H560.719C560.539 220.52 559.499 219.58 557.879 219.58ZM566.263 216.76H564.523V214.6H566.263V216.76ZM566.263 228H564.523V218.32H566.263V228ZM572.659 225.04C571.959 225.04 571.319 224.9 570.779 224.64C570.539 224.96 570.259 225.42 570.259 225.84C570.259 226.36 570.539 226.62 571.539 226.62H574.459C576.219 226.62 577.319 227.32 577.319 228.78C577.319 230.62 575.519 231.92 572.259 231.92C569.779 231.92 568.219 231.1 568.219 229.82C568.219 228.92 569.039 228.38 569.779 228.08C569.159 227.88 568.839 227.42 568.839 226.78C568.839 226.02 569.419 225.18 570.359 224.42C569.399 223.82 568.839 222.8 568.839 221.58C568.839 219.56 570.379 218.12 572.659 218.12C573.299 218.12 573.879 218.24 574.379 218.44L574.979 216.12L576.779 216.76L574.999 218.76C575.919 219.36 576.479 220.38 576.479 221.58C576.479 223.6 574.939 225.04 572.659 225.04ZM572.659 223.7C573.879 223.7 574.799 222.9 574.799 221.58C574.799 220.26 573.879 219.46 572.659 219.46C571.459 219.46 570.519 220.26 570.519 221.58C570.519 222.9 571.459 223.7 572.659 223.7ZM572.259 230.54C574.459 230.54 575.699 229.98 575.699 229.02C575.699 228.4 575.219 228.12 574.239 228.12H570.279C569.959 228.4 569.619 228.82 569.619 229.28C569.619 230.06 570.519 230.54 572.259 230.54ZM580.736 228H578.996V214.6H580.736V220.9C581.116 219.4 582.156 218.12 584.056 218.12C585.956 218.12 587.136 219.26 587.136 221.32V228H585.416V221.74C585.416 220.48 584.916 219.6 583.276 219.6C581.416 219.6 580.736 220.9 580.736 222.52V228ZM592.685 228.22C591.105 228.22 589.985 227.18 589.985 225.52V219.68H588.425V218.32H589.985V217.08L591.725 215.8V218.32H594.905V219.68H591.725V225C591.725 226.24 592.305 226.54 593.065 226.54C593.925 226.54 594.525 225.82 594.785 225.22L595.365 226.94C594.945 227.6 594.025 228.22 592.685 228.22ZM598.962 221.3H596.862V218.7H598.962V221.3ZM598.962 228H596.862V225.4H598.962V228ZM607.713 228H605.973V214.6H611.813C614.433 214.6 616.373 216.04 616.373 218.72C616.373 220.86 614.913 222.22 612.853 222.5C613.473 222.7 613.973 223.12 614.393 223.86L616.793 228H614.753L612.393 223.88C611.893 222.98 611.173 222.66 609.853 222.66H607.713V228ZM611.533 216.14H607.713V221.2H611.533C613.133 221.2 614.573 220.62 614.573 218.72C614.573 216.72 613.133 216.14 611.533 216.14ZM622.256 228.2C619.516 228.2 617.616 226.24 617.616 223.16C617.616 220.1 619.496 218.12 622.156 218.12C624.896 218.12 626.556 219.94 626.556 222.78C626.556 223.08 626.516 223.38 626.476 223.56H619.296C619.396 225.6 620.536 226.76 622.256 226.76C624.196 226.76 624.976 225.7 625.356 224.86L626.416 226.06C625.696 227.22 624.356 228.2 622.256 228.2ZM622.156 219.58C620.596 219.58 619.556 220.5 619.336 222.3H624.996C624.816 220.52 623.776 219.58 622.156 219.58ZM632.463 225.04C631.763 225.04 631.123 224.9 630.583 224.64C630.343 224.96 630.063 225.42 630.063 225.84C630.063 226.36 630.343 226.62 631.343 226.62H634.263C636.023 226.62 637.123 227.32 637.123 228.78C637.123 230.62 635.323 231.92 632.063 231.92C629.583 231.92 628.023 231.1 628.023 229.82C628.023 228.92 628.843 228.38 629.583 228.08C628.963 227.88 628.643 227.42 628.643 226.78C628.643 226.02 629.223 225.18 630.163 224.42C629.203 223.82 628.643 222.8 628.643 221.58C628.643 219.56 630.183 218.12 632.463 218.12C633.103 218.12 633.683 218.24 634.183 218.44L634.783 216.12L636.583 216.76L634.803 218.76C635.723 219.36 636.283 220.38 636.283 221.58C636.283 223.6 634.743 225.04 632.463 225.04ZM632.463 223.7C633.683 223.7 634.603 222.9 634.603 221.58C634.603 220.26 633.683 219.46 632.463 219.46C631.263 219.46 630.323 220.26 630.323 221.58C630.323 222.9 631.263 223.7 632.463 223.7ZM632.063 230.54C634.263 230.54 635.503 229.98 635.503 229.02C635.503 228.4 635.023 228.12 634.043 228.12H630.083C629.763 228.4 629.423 228.82 629.423 229.28C629.423 230.06 630.323 230.54 632.063 230.54ZM641.742 228.2C639.842 228.2 638.662 227.06 638.662 225.02V218.32H640.382V224.6C640.382 225.84 640.882 226.74 642.522 226.74C644.402 226.74 645.082 225.42 645.082 223.82V218.32H646.802V228H645.082V225.36C644.722 226.88 643.682 228.2 641.742 228.2ZM651.185 228H649.445V214.6H651.185V228ZM655.8 228.2C654.16 228.2 653.24 227.26 653.24 225.98C653.24 224.68 654.22 223.86 655.6 223.24L659.1 221.68C659.04 220.54 658.5 219.7 656.98 219.7C655.6 219.7 654.68 220.5 654.18 221.56L653 220.34C653.58 219.34 655.02 218.12 657.18 218.12C659.56 218.12 660.84 219.54 660.84 221.84V225.82C660.84 226.28 661.02 226.42 661.38 226.42H662V228H660.88C659.88 228 659.16 227.52 659.16 226.16V225.48C658.84 226.76 657.8 228.2 655.8 228.2ZM655 225.7C655 226.36 655.46 226.76 656.36 226.76C658 226.76 659.16 225.68 659.16 224.28V222.94L656.34 224.26C655.42 224.7 655 225.1 655 225.7ZM665.755 228H664.015V218.32H665.755V220.9C666.135 219.4 667.135 218.1 668.775 218.1C669.815 218.1 670.815 218.84 670.815 220.2C670.815 221.02 670.595 221.62 670.435 221.86H668.535C668.855 221.58 669.115 220.98 669.115 220.44C669.115 219.88 668.815 219.4 668.115 219.4C666.875 219.4 665.755 220.86 665.755 222.52V228Z" fill="#0A0A0A"/>
<path d="M803.96 228H801.94L798.22 214.6H800.22L802.26 222.9L802.92 226.38L803.76 222.94L806.18 214.6H808.38L810.76 222.94L811.58 226.38L812.26 222.9L814.34 214.6H816.3L812.54 228H810.52L808.06 219.3L807.24 216.04L806.44 219.3L803.96 228ZM820.979 228.2C818.239 228.2 816.339 226.24 816.339 223.16C816.339 220.1 818.219 218.12 820.879 218.12C823.619 218.12 825.279 219.94 825.279 222.78C825.279 223.08 825.239 223.38 825.199 223.56H818.019C818.119 225.6 819.259 226.76 820.979 226.76C822.919 226.76 823.699 225.7 824.079 224.86L825.139 226.06C824.419 227.22 823.079 228.2 820.979 228.2ZM820.879 219.58C819.319 219.58 818.279 220.5 818.059 222.3H823.719C823.539 220.52 822.499 219.58 820.879 219.58ZM829.263 216.76H827.523V214.6H829.263V216.76ZM829.263 228H827.523V218.32H829.263V228ZM835.659 225.04C834.959 225.04 834.319 224.9 833.779 224.64C833.539 224.96 833.259 225.42 833.259 225.84C833.259 226.36 833.539 226.62 834.539 226.62H837.459C839.219 226.62 840.319 227.32 840.319 228.78C840.319 230.62 838.519 231.92 835.259 231.92C832.779 231.92 831.219 231.1 831.219 229.82C831.219 228.92 832.039 228.38 832.779 228.08C832.159 227.88 831.839 227.42 831.839 226.78C831.839 226.02 832.419 225.18 833.359 224.42C832.399 223.82 831.839 222.8 831.839 221.58C831.839 219.56 833.379 218.12 835.659 218.12C836.299 218.12 836.879 218.24 837.379 218.44L837.979 216.12L839.779 216.76L837.999 218.76C838.919 219.36 839.479 220.38 839.479 221.58C839.479 223.6 837.939 225.04 835.659 225.04ZM835.659 223.7C836.879 223.7 837.799 222.9 837.799 221.58C837.799 220.26 836.879 219.46 835.659 219.46C834.459 219.46 833.519 220.26 833.519 221.58C833.519 222.9 834.459 223.7 835.659 223.7ZM835.259 230.54C837.459 230.54 838.699 229.98 838.699 229.02C838.699 228.4 838.219 228.12 837.239 228.12H833.279C832.959 228.4 832.619 228.82 832.619 229.28C832.619 230.06 833.519 230.54 835.259 230.54ZM843.736 228H841.996V214.6H843.736V220.9C844.116 219.4 845.156 218.12 847.056 218.12C848.956 218.12 850.136 219.26 850.136 221.32V228H848.416V221.74C848.416 220.48 847.916 219.6 846.276 219.6C844.416 219.6 843.736 220.9 843.736 222.52V228ZM855.685 228.22C854.105 228.22 852.985 227.18 852.985 225.52V219.68H851.425V218.32H852.985V217.08L854.725 215.8V218.32H857.905V219.68H854.725V225C854.725 226.24 855.305 226.54 856.065 226.54C856.925 226.54 857.525 225.82 857.785 225.22L858.365 226.94C857.945 227.6 857.025 228.22 855.685 228.22ZM861.962 221.3H859.862V218.7H861.962V221.3ZM861.962 228H859.862V225.4H861.962V228ZM870.713 228H868.973V214.6H874.813C877.433 214.6 879.373 216.04 879.373 218.72C879.373 220.86 877.913 222.22 875.853 222.5C876.473 222.7 876.973 223.12 877.393 223.86L879.793 228H877.753L875.393 223.88C874.893 222.98 874.173 222.66 872.853 222.66H870.713V228ZM874.533 216.14H870.713V221.2H874.533C876.133 221.2 877.573 220.62 877.573 218.72C877.573 216.72 876.133 216.14 874.533 216.14ZM885.256 228.2C882.516 228.2 880.616 226.24 880.616 223.16C880.616 220.1 882.496 218.12 885.156 218.12C887.896 218.12 889.556 219.94 889.556 222.78C889.556 223.08 889.516 223.38 889.476 223.56H882.296C882.396 225.6 883.536 226.76 885.256 226.76C887.196 226.76 887.976 225.7 888.356 224.86L889.416 226.06C888.696 227.22 887.356 228.2 885.256 228.2ZM885.156 219.58C883.596 219.58 882.556 220.5 882.336 222.3H887.996C887.816 220.52 886.776 219.58 885.156 219.58ZM895.463 225.04C894.763 225.04 894.123 224.9 893.583 224.64C893.343 224.96 893.063 225.42 893.063 225.84C893.063 226.36 893.343 226.62 894.343 226.62H897.263C899.023 226.62 900.123 227.32 900.123 228.78C900.123 230.62 898.323 231.92 895.063 231.92C892.583 231.92 891.023 231.1 891.023 229.82C891.023 228.92 891.843 228.38 892.583 228.08C891.963 227.88 891.643 227.42 891.643 226.78C891.643 226.02 892.223 225.18 893.163 224.42C892.203 223.82 891.643 222.8 891.643 221.58C891.643 219.56 893.183 218.12 895.463 218.12C896.103 218.12 896.683 218.24 897.183 218.44L897.783 216.12L899.583 216.76L897.803 218.76C898.723 219.36 899.283 220.38 899.283 221.58C899.283 223.6 897.743 225.04 895.463 225.04ZM895.463 223.7C896.683 223.7 897.603 222.9 897.603 221.58C897.603 220.26 896.683 219.46 895.463 219.46C894.263 219.46 893.323 220.26 893.323 221.58C893.323 222.9 894.263 223.7 895.463 223.7ZM895.063 230.54C897.263 230.54 898.503 229.98 898.503 229.02C898.503 228.4 898.023 228.12 897.043 228.12H893.083C892.763 228.4 892.423 228.82 892.423 229.28C892.423 230.06 893.323 230.54 895.063 230.54ZM904.742 228.2C902.842 228.2 901.662 227.06 901.662 225.02V218.32H903.382V224.6C903.382 225.84 903.882 226.74 905.522 226.74C907.402 226.74 908.082 225.42 908.082 223.82V218.32H909.802V228H908.082V225.36C907.722 226.88 906.682 228.2 904.742 228.2ZM914.185 228H912.445V214.6H914.185V228ZM918.8 228.2C917.16 228.2 916.24 227.26 916.24 225.98C916.24 224.68 917.22 223.86 918.6 223.24L922.1 221.68C922.04 220.54 921.5 219.7 919.98 219.7C918.6 219.7 917.68 220.5 917.18 221.56L916 220.34C916.58 219.34 918.02 218.12 920.18 218.12C922.56 218.12 923.84 219.54 923.84 221.84V225.82C923.84 226.28 924.02 226.42 924.38 226.42H925V228H923.88C922.88 228 922.16 227.52 922.16 226.16V225.48C921.84 226.76 920.8 228.2 918.8 228.2ZM918 225.7C918 226.36 918.46 226.76 919.36 226.76C921 226.76 922.16 225.68 922.16 224.28V222.94L919.34 224.26C918.42 224.7 918 225.1 918 225.7ZM928.755 228H927.015V218.32H928.755V220.9C929.135 219.4 930.135 218.1 931.775 218.1C932.815 218.1 933.815 218.84 933.815 220.2C933.815 221.02 933.595 221.62 933.435 221.86H931.535C931.855 221.58 932.115 220.98 932.115 220.44C932.115 219.88 931.815 219.4 931.115 219.4C929.875 219.4 928.755 220.86 928.755 222.52V228Z" fill="#0A0A0A"/>
<path d="M632.375 127H616.125V105H559V127H542.75V82.1875C542.75 75.6458 543.875 69.625 546.125 64.125C548.375 58.625 551.5 53.8958 555.5 49.9375C559.5 45.9792 564.229 42.8958 569.688 40.6875C575.146 38.4792 581.104 37.375 587.562 37.375H624.188C625.312 37.375 626.375 37.5833 627.375 38C628.375 38.4167 629.25 39 630 39.75C630.75 40.5 631.333 41.375 631.75 42.375C632.167 43.375 632.375 44.4375 632.375 45.5625V127ZM559 88.75H616.125V53.625H587.562C587.062 53.625 586 53.7083 584.375 53.875C582.792 54 580.938 54.3542 578.812 54.9375C576.729 55.5208 574.521 56.4167 572.188 57.625C569.854 58.8333 567.708 60.5 565.75 62.625C563.792 64.75 562.167 67.4167 560.875 70.625C559.625 73.7917 559 77.6458 559 82.1875V88.75ZM719.25 104.625C719.25 106.875 718.854 109.312 718.062 111.938C717.271 114.521 715.979 116.938 714.188 119.188C712.438 121.396 710.125 123.25 707.25 124.75C704.417 126.25 700.958 127 696.875 127H667.562C665.312 127 662.875 126.604 660.25 125.812C657.667 125.021 655.25 123.75 653 122C650.792 120.208 648.938 117.896 647.438 115.062C645.938 112.188 645.188 108.708 645.188 104.625C645.188 102.375 645.583 99.9375 646.375 97.3125C647.167 94.6875 648.438 92.2708 650.188 90.0625C651.979 87.8125 654.292 85.9375 657.125 84.4375C660 82.9375 663.479 82.1875 667.562 82.1875H696.875V97.6875H667.562C665.354 97.6875 663.646 98.375 662.438 99.75C661.229 101.083 660.625 102.75 660.625 104.75C660.625 106.875 661.312 108.542 662.688 109.75C664.104 110.917 665.771 111.5 667.688 111.5H696.875C699.083 111.5 700.792 110.833 702 109.5C703.208 108.167 703.812 106.5 703.812 104.5V81.8125C703.812 79.6875 703.146 78 701.812 76.75C700.521 75.5 698.875 74.875 696.875 74.875H661.188V59.4375H696.875C699.125 59.4375 701.542 59.8333 704.125 60.625C706.75 61.4167 709.167 62.7083 711.375 64.5C713.625 66.25 715.5 68.5625 717 71.4375C718.5 74.2708 719.25 77.7292 719.25 81.8125V104.625Z" fill="black"/>
<path d="M562.387 191H557.816V184.812H541.75V191H537.18V178.396C537.18 176.557 537.496 174.863 538.129 173.316C538.762 171.77 539.641 170.439 540.766 169.326C541.891 168.213 543.221 167.346 544.756 166.725C546.291 166.104 547.967 165.793 549.783 165.793H560.084C560.4 165.793 560.699 165.852 560.98 165.969C561.262 166.086 561.508 166.25 561.719 166.461C561.93 166.672 562.094 166.918 562.211 167.199C562.328 167.48 562.387 167.779 562.387 168.096V191ZM541.75 180.242H557.816V170.363H549.783C549.643 170.363 549.344 170.387 548.887 170.434C548.441 170.469 547.92 170.568 547.322 170.732C546.736 170.896 546.115 171.148 545.459 171.488C544.803 171.828 544.199 172.297 543.648 172.895C543.098 173.492 542.641 174.242 542.277 175.145C541.926 176.035 541.75 177.119 541.75 178.396V180.242ZM587.945 184.584C587.945 185.369 587.846 186.078 587.646 186.711C587.447 187.332 587.184 187.883 586.855 188.363C586.527 188.832 586.146 189.236 585.713 189.576C585.279 189.904 584.822 190.174 584.342 190.385C583.873 190.596 583.393 190.754 582.9 190.859C582.42 190.953 581.963 191 581.529 191H573.285C572.5 191 571.797 190.9 571.176 190.701C570.555 190.502 570.004 190.238 569.523 189.91C569.055 189.57 568.65 189.184 568.311 188.75C567.982 188.316 567.713 187.865 567.502 187.396C567.291 186.916 567.133 186.436 567.027 185.955C566.934 185.463 566.887 185.006 566.887 184.584V178.396C566.887 177.225 567.098 176.234 567.52 175.426C567.953 174.605 568.486 173.943 569.119 173.439C569.764 172.924 570.461 172.555 571.211 172.332C571.961 172.109 572.652 171.998 573.285 171.998H581.529V176.568H573.32C572.711 176.568 572.248 176.727 571.932 177.043C571.615 177.348 571.457 177.799 571.457 178.396V184.549C571.457 185.17 571.609 185.639 571.914 185.955C572.23 186.271 572.688 186.43 573.285 186.43H581.529C582.15 186.43 582.613 186.271 582.918 185.955C583.223 185.639 583.375 185.182 583.375 184.584V163.965H587.945V184.584ZM596.945 168.096H592.375V163.965H596.945V168.096ZM596.945 191H592.375V171.998H596.945V191ZM622.012 184.584C622.012 185.369 621.912 186.078 621.713 186.711C621.514 187.332 621.25 187.883 620.922 188.363C620.594 188.832 620.213 189.236 619.779 189.576C619.346 189.904 618.889 190.174 618.408 190.385C617.939 190.596 617.459 190.754 616.967 190.859C616.486 190.953 616.029 191 615.596 191H607.352C606.719 191 606.027 190.889 605.277 190.666C604.527 190.443 603.83 190.08 603.186 189.576C602.553 189.061 602.02 188.398 601.586 187.59C601.164 186.77 600.953 185.768 600.953 184.584V178.396C600.953 177.225 601.164 176.234 601.586 175.426C602.02 174.605 602.553 173.943 603.186 173.439C603.83 172.924 604.527 172.555 605.277 172.332C606.027 172.109 606.719 171.998 607.352 171.998H615.596C616.768 171.998 617.764 172.209 618.584 172.631C619.404 173.053 620.066 173.586 620.57 174.23C621.074 174.863 621.438 175.555 621.66 176.305C621.895 177.055 622.012 177.752 622.012 178.396V184.584ZM617.441 178.432C617.441 177.799 617.283 177.33 616.967 177.025C616.65 176.721 616.193 176.568 615.596 176.568H607.387C606.777 176.568 606.314 176.727 605.998 177.043C605.682 177.348 605.523 177.799 605.523 178.396V184.584C605.523 185.182 605.682 185.639 605.998 185.955C606.314 186.271 606.777 186.43 607.387 186.43H615.596C616.217 186.43 616.68 186.271 616.984 185.955C617.289 185.639 617.441 185.182 617.441 184.584V178.432ZM657.203 171.998C656.477 173.627 655.691 175.232 654.848 176.814C654.004 178.385 653.119 179.873 652.193 181.279C651.279 182.686 650.342 183.986 649.381 185.182C648.42 186.365 647.465 187.391 646.516 188.258C645.578 189.113 644.658 189.787 643.756 190.279C642.865 190.76 642.021 191 641.225 191C640.896 191 640.592 190.941 640.311 190.824C640.029 190.707 639.783 190.549 639.572 190.35C639.361 190.139 639.197 189.893 639.08 189.611C638.963 189.33 638.904 189.025 638.904 188.697V180.172L629.834 190.314C629.6 190.549 629.342 190.725 629.061 190.842C628.791 190.947 628.51 191 628.217 191C627.9 191 627.602 190.941 627.32 190.824C627.051 190.707 626.811 190.549 626.6 190.35C626.389 190.139 626.219 189.893 626.09 189.611C625.973 189.33 625.914 189.025 625.914 188.697V171.998H630.484V182.826L639.59 172.648C639.918 172.32 640.305 172.115 640.75 172.033C641.207 171.939 641.652 171.986 642.086 172.174C642.52 172.35 642.859 172.631 643.105 173.018C643.363 173.393 643.492 173.809 643.492 174.266V185.129C644.477 184.18 645.367 183.178 646.164 182.123C646.961 181.068 647.699 179.984 648.379 178.871C649.07 177.746 649.715 176.609 650.312 175.461C650.922 174.301 651.514 173.146 652.088 171.998H657.203ZM663.426 168.096H658.855V163.965H663.426V168.096ZM663.426 191H658.855V171.998H663.426V191ZM688.668 184.584C688.668 185.369 688.568 186.078 688.369 186.711C688.17 187.332 687.906 187.883 687.578 188.363C687.25 188.832 686.869 189.236 686.436 189.576C686.002 189.904 685.545 190.174 685.064 190.385C684.596 190.596 684.115 190.754 683.623 190.859C683.143 190.953 682.686 191 682.252 191H674.008C673.223 191 672.52 190.9 671.898 190.701C671.277 190.502 670.727 190.238 670.246 189.91C669.777 189.57 669.373 189.184 669.033 188.75C668.705 188.316 668.436 187.865 668.225 187.396C668.014 186.916 667.855 186.436 667.75 185.955C667.656 185.463 667.609 185.006 667.609 184.584V178.396C667.609 177.225 667.82 176.234 668.242 175.426C668.676 174.605 669.209 173.943 669.842 173.439C670.486 172.924 671.184 172.555 671.934 172.332C672.684 172.109 673.375 171.998 674.008 171.998H682.252V176.568H674.043C673.434 176.568 672.971 176.727 672.654 177.043C672.338 177.348 672.18 177.799 672.18 178.396V184.549C672.18 185.17 672.332 185.639 672.637 185.955C672.953 186.271 673.41 186.43 674.008 186.43H682.252C682.873 186.43 683.336 186.271 683.641 185.955C683.945 185.639 684.098 185.182 684.098 184.584V163.965H688.668V184.584ZM713.471 178.291C713.471 178.924 713.359 179.609 713.137 180.348C712.914 181.074 712.551 181.754 712.047 182.387C711.555 183.008 710.904 183.529 710.096 183.951C709.299 184.373 708.326 184.584 707.178 184.584H698.934V180.242H707.178C707.799 180.242 708.279 180.055 708.619 179.68C708.959 179.293 709.129 178.818 709.129 178.256C709.129 177.658 708.936 177.189 708.549 176.85C708.174 176.51 707.717 176.34 707.178 176.34H698.934C698.312 176.34 697.832 176.533 697.492 176.92C697.152 177.295 696.982 177.764 696.982 178.326V184.707C696.982 185.316 697.17 185.791 697.545 186.131C697.932 186.471 698.406 186.641 698.969 186.641H707.178V191H698.934C698.301 191 697.615 190.889 696.877 190.666C696.15 190.443 695.471 190.086 694.838 189.594C694.217 189.09 693.695 188.439 693.273 187.643C692.852 186.834 692.641 185.855 692.641 184.707V178.291C692.641 177.658 692.752 176.979 692.975 176.252C693.197 175.514 693.555 174.834 694.047 174.213C694.551 173.58 695.201 173.053 695.998 172.631C696.807 172.209 697.785 171.998 698.934 171.998H707.178C707.811 171.998 708.49 172.109 709.217 172.332C709.955 172.555 710.635 172.918 711.256 173.422C711.889 173.914 712.416 174.564 712.838 175.373C713.26 176.17 713.471 177.143 713.471 178.291Z" fill="black"/>
<path d="M868.784 100.064H818.864L808.112 124H798.256L839.216 34.4H848.56L889.52 124H879.536L868.784 100.064ZM865.328 92.384L843.824 44.256L822.32 92.384H865.328ZM925.974 56.16C934.763 56.16 941.505 58.3787 946.198 62.816C950.891 67.168 953.238 73.6533 953.238 82.272V124H944.534V113.504C942.486 117.003 939.457 119.733 935.446 121.696C931.521 123.659 926.827 124.64 921.366 124.64C913.857 124.64 907.883 122.848 903.446 119.264C899.009 115.68 896.79 110.944 896.79 105.056C896.79 99.3387 898.838 94.7307 902.934 91.232C907.115 87.7333 913.729 85.984 922.774 85.984H944.15V81.888C944.15 76.0853 942.529 71.6907 939.286 68.704C936.043 65.632 931.307 64.096 925.078 64.096C920.811 64.096 916.715 64.8213 912.79 66.272C908.865 67.6373 905.494 69.5573 902.678 72.032L898.582 65.248C901.995 62.3467 906.091 60.128 910.87 58.592C915.649 56.9707 920.683 56.16 925.974 56.16ZM922.774 117.472C927.894 117.472 932.289 116.32 935.958 114.016C939.627 111.627 942.358 108.213 944.15 103.776V92.768H923.03C911.51 92.768 905.75 96.7787 905.75 104.8C905.75 108.725 907.243 111.84 910.23 114.144C913.217 116.363 917.398 117.472 922.774 117.472Z" fill="black"/>
<path d="M828.276 164.8V190H825.72V169.84L815.82 186.796H814.56L804.66 169.948V190H802.104V164.8H804.3L815.244 183.484L826.08 164.8H828.276ZM843.687 190.18C841.863 190.18 840.219 189.772 838.755 188.956C837.291 188.116 836.139 186.964 835.299 185.5C834.459 184.036 834.039 182.38 834.039 180.532C834.039 178.684 834.459 177.028 835.299 175.564C836.139 174.1 837.291 172.96 838.755 172.144C840.219 171.328 841.863 170.92 843.687 170.92C845.511 170.92 847.155 171.328 848.619 172.144C850.083 172.96 851.223 174.1 852.039 175.564C852.879 177.028 853.299 178.684 853.299 180.532C853.299 182.38 852.879 184.036 852.039 185.5C851.223 186.964 850.083 188.116 848.619 188.956C847.155 189.772 845.511 190.18 843.687 190.18ZM843.687 187.912C845.031 187.912 846.231 187.612 847.287 187.012C848.367 186.388 849.207 185.512 849.807 184.384C850.407 183.256 850.707 181.972 850.707 180.532C850.707 179.092 850.407 177.808 849.807 176.68C849.207 175.552 848.367 174.688 847.287 174.088C846.231 173.464 845.031 173.152 843.687 173.152C842.343 173.152 841.131 173.464 840.051 174.088C838.995 174.688 838.155 175.552 837.531 176.68C836.931 177.808 836.631 179.092 836.631 180.532C836.631 181.972 836.931 183.256 837.531 184.384C838.155 185.512 838.995 186.388 840.051 187.012C841.131 187.612 842.343 187.912 843.687 187.912ZM868.165 170.92C870.541 170.92 872.425 171.616 873.817 173.008C875.233 174.376 875.941 176.38 875.941 179.02V190H873.385V179.272C873.385 177.304 872.893 175.804 871.909 174.772C870.925 173.74 869.521 173.224 867.697 173.224C865.657 173.224 864.037 173.836 862.837 175.06C861.661 176.26 861.073 177.928 861.073 180.064V190H858.517V171.064H860.965V174.556C861.661 173.404 862.621 172.516 863.845 171.892C865.093 171.244 866.533 170.92 868.165 170.92ZM892.852 188.848C892.372 189.28 891.772 189.616 891.052 189.856C890.356 190.072 889.624 190.18 888.856 190.18C887.08 190.18 885.712 189.7 884.752 188.74C883.792 187.78 883.312 186.424 883.312 184.672V173.224H879.928V171.064H883.312V166.924H885.868V171.064H891.628V173.224H885.868V184.528C885.868 185.656 886.144 186.52 886.696 187.12C887.272 187.696 888.088 187.984 889.144 187.984C889.672 187.984 890.176 187.9 890.656 187.732C891.16 187.564 891.592 187.324 891.952 187.012L892.852 188.848ZM902.581 190.18C901.045 190.18 899.569 189.964 898.153 189.532C896.761 189.076 895.669 188.512 894.877 187.84L896.029 185.824C896.821 186.448 897.817 186.964 899.017 187.372C900.217 187.756 901.465 187.948 902.761 187.948C904.489 187.948 905.761 187.684 906.577 187.156C907.417 186.604 907.837 185.836 907.837 184.852C907.837 184.156 907.609 183.616 907.153 183.232C906.697 182.824 906.121 182.524 905.425 182.332C904.729 182.116 903.805 181.912 902.653 181.72C901.117 181.432 899.881 181.144 898.945 180.856C898.009 180.544 897.205 180.028 896.533 179.308C895.885 178.588 895.561 177.592 895.561 176.32C895.561 174.736 896.221 173.44 897.541 172.432C898.861 171.424 900.697 170.92 903.049 170.92C904.273 170.92 905.497 171.088 906.721 171.424C907.945 171.736 908.953 172.156 909.745 172.684L908.629 174.736C907.069 173.656 905.209 173.116 903.049 173.116C901.417 173.116 900.181 173.404 899.341 173.98C898.525 174.556 898.117 175.312 898.117 176.248C898.117 176.968 898.345 177.544 898.801 177.976C899.281 178.408 899.869 178.732 900.565 178.948C901.261 179.14 902.221 179.344 903.445 179.56C904.957 179.848 906.169 180.136 907.081 180.424C907.993 180.712 908.773 181.204 909.421 181.9C910.069 182.596 910.393 183.556 910.393 184.78C910.393 186.436 909.697 187.756 908.305 188.74C906.937 189.7 905.029 190.18 902.581 190.18ZM931.607 181.324H915.767C915.911 183.292 916.667 184.888 918.035 186.112C919.403 187.312 921.131 187.912 923.219 187.912C924.395 187.912 925.475 187.708 926.459 187.3C927.443 186.868 928.295 186.244 929.015 185.428L930.455 187.084C929.615 188.092 928.559 188.86 927.287 189.388C926.039 189.916 924.659 190.18 923.147 190.18C921.203 190.18 919.475 189.772 917.963 188.956C916.475 188.116 915.311 186.964 914.471 185.5C913.631 184.036 913.211 182.38 913.211 180.532C913.211 178.684 913.607 177.028 914.399 175.564C915.215 174.1 916.319 172.96 917.711 172.144C919.127 171.328 920.711 170.92 922.463 170.92C924.215 170.92 925.787 171.328 927.179 172.144C928.571 172.96 929.663 174.1 930.455 175.564C931.247 177.004 931.643 178.66 931.643 180.532L931.607 181.324ZM922.463 173.116C920.639 173.116 919.103 173.704 917.855 174.88C916.631 176.032 915.935 177.544 915.767 179.416H929.195C929.027 177.544 928.319 176.032 927.071 174.88C925.847 173.704 924.311 173.116 922.463 173.116ZM939.293 174.772C939.893 173.5 940.781 172.54 941.957 171.892C943.157 171.244 944.633 170.92 946.385 170.92V173.404L945.773 173.368C943.781 173.368 942.221 173.98 941.093 175.204C939.965 176.428 939.401 178.144 939.401 180.352V190H936.845V171.064H939.293V174.772ZM953.461 174.772C954.061 173.5 954.949 172.54 956.125 171.892C957.325 171.244 958.801 170.92 960.553 170.92V173.404L959.941 173.368C957.949 173.368 956.389 173.98 955.261 175.204C954.133 176.428 953.569 178.144 953.569 180.352V190H951.013V171.064H953.461V174.772ZM971.77 170.92C974.242 170.92 976.138 171.544 977.458 172.792C978.778 174.016 979.438 175.84 979.438 178.264V190H976.99V187.048C976.414 188.032 975.562 188.8 974.434 189.352C973.33 189.904 972.01 190.18 970.474 190.18C968.362 190.18 966.682 189.676 965.434 188.668C964.186 187.66 963.562 186.328 963.562 184.672C963.562 183.064 964.138 181.768 965.29 180.784C966.466 179.8 968.326 179.308 970.87 179.308H976.882V178.156C976.882 176.524 976.426 175.288 975.514 174.448C974.602 173.584 973.27 173.152 971.518 173.152C970.318 173.152 969.166 173.356 968.062 173.764C966.958 174.148 966.01 174.688 965.218 175.384L964.066 173.476C965.026 172.66 966.178 172.036 967.522 171.604C968.866 171.148 970.282 170.92 971.77 170.92ZM970.87 188.164C972.31 188.164 973.546 187.84 974.578 187.192C975.61 186.52 976.378 185.56 976.882 184.312V181.216H970.942C967.702 181.216 966.082 182.344 966.082 184.6C966.082 185.704 966.502 186.58 967.342 187.228C968.182 187.852 969.358 188.164 970.87 188.164ZM996.352 188.848C995.872 189.28 995.272 189.616 994.552 189.856C993.856 190.072 993.124 190.18 992.356 190.18C990.58 190.18 989.212 189.7 988.252 188.74C987.292 187.78 986.812 186.424 986.812 184.672V173.224H983.428V171.064H986.812V166.924H989.368V171.064H995.128V173.224H989.368V184.528C989.368 185.656 989.644 186.52 990.196 187.12C990.772 187.696 991.588 187.984 992.644 187.984C993.172 187.984 993.676 187.9 994.156 187.732C994.66 187.564 995.092 187.324 995.452 187.012L996.352 188.848Z" fill="black"/>
<path d="M11.1371 140.709H9.77711L10.7371 137.189H8.73711V135.969H11.0571L12.0771 132.149H9.75711V130.929H12.3971L13.3771 127.309H14.7371L13.7571 130.929H16.9971L17.9771 127.309H19.3371L18.3571 130.929H20.3571V132.149H18.0371L17.0171 135.969H19.3371V137.189H16.6771L15.7371 140.709H14.3771L15.3371 137.189H12.0771L11.1371 140.709ZM13.4371 132.149L12.4171 135.969H15.6571L16.6771 132.149H13.4371ZM27.4645 140.909C23.7845 140.909 22.0645 137.889 22.0645 133.989C22.0645 130.129 23.7845 127.109 27.4645 127.109C31.1245 127.109 32.8445 130.129 32.8445 133.989C32.8445 137.889 31.1245 140.909 27.4645 140.909ZM27.4845 139.249C30.1245 139.249 31.0245 137.069 31.0245 133.989C31.0245 130.949 30.1245 128.749 27.4845 128.749C24.8245 128.749 23.9045 130.949 23.9045 133.989C23.9045 137.069 24.8245 139.249 27.4845 139.249ZM40.1988 140.909C36.5188 140.909 34.7988 137.889 34.7988 133.989C34.7988 130.129 36.5188 127.109 40.1988 127.109C43.8588 127.109 45.5788 130.129 45.5788 133.989C45.5788 137.889 43.8588 140.909 40.1988 140.909ZM40.2188 139.249C42.8588 139.249 43.7588 137.069 43.7588 133.989C43.7588 130.949 42.8588 128.749 40.2188 128.749C37.5588 128.749 36.6388 130.949 36.6388 133.989C36.6388 137.069 37.5588 139.249 40.2188 139.249ZM56.7054 140.709H47.5854V139.349L51.9654 135.029C53.4254 133.589 54.5654 132.349 54.5654 130.869C54.5654 129.789 53.9654 128.789 52.4454 128.789C50.2054 128.789 48.9454 130.229 49.2854 132.889L47.6654 131.869C47.3854 129.229 49.4854 127.109 52.5654 127.109C55.1854 127.109 56.3654 128.689 56.3654 130.749C56.3654 132.949 54.2654 134.949 53.0454 136.109L50.9654 138.069L49.5254 139.289L51.1654 139.169H56.7054V140.709ZM59.567 140.709H57.727L63.127 127.309H64.867L70.267 140.709H68.347L66.887 136.969H61.027L59.567 140.709ZM63.287 131.189L61.627 135.429H66.287L64.627 131.189L63.967 129.089L63.287 131.189ZM75.9613 140.909C73.9213 140.909 72.4413 139.829 71.6613 138.249L73.1413 137.009C73.6613 138.349 74.6613 139.229 76.1013 139.229C77.7013 139.229 79.2813 138.189 79.2813 134.009V132.549C79.0613 134.809 77.5813 136.109 75.4213 136.109C72.6813 136.109 71.4813 134.129 71.4813 131.689C71.4813 129.089 73.3613 127.109 76.1013 127.109C79.0213 127.109 81.1213 128.649 81.1213 133.949V134.409C81.1213 138.569 79.2813 140.909 75.9613 140.909ZM76.1013 134.489C77.8413 134.489 79.0613 133.609 79.0613 131.869C79.0613 129.689 77.9213 128.769 76.1413 128.769C74.4013 128.769 73.3013 129.989 73.3013 131.589C73.3013 133.349 74.1813 134.489 76.1013 134.489ZM89.6335 140.869C85.5735 140.869 83.3535 137.849 83.3535 133.989C83.3535 130.129 85.5735 127.109 89.6335 127.109C92.6335 127.109 94.6535 128.709 95.5135 131.469L93.9535 132.489C93.5135 130.249 92.1935 128.749 89.6535 128.749C86.5935 128.749 85.1935 130.929 85.1935 133.989C85.1935 137.049 86.5935 139.229 89.6535 139.229C92.1935 139.229 93.5135 137.729 93.9535 135.489L95.5135 136.509C94.6535 139.269 92.6335 140.869 89.6335 140.869Z" fill="#323232"/>
<path d="M210.195 140.709H208.835L209.795 137.189H207.795V135.969H210.115L211.135 132.149H208.815V130.929H211.455L212.435 127.309H213.795L212.815 130.929H216.055L217.035 127.309H218.395L217.415 130.929H219.415V132.149H217.095L216.075 135.969H218.395V137.189H215.735L214.795 140.709H213.435L214.395 137.189H211.135L210.195 140.709ZM212.495 132.149L211.475 135.969H214.715L215.735 132.149H212.495ZM223.382 140.709H221.642V127.309H230.622V128.849H223.382V133.649H229.322V135.189H223.382V140.709ZM237.832 140.869C233.772 140.869 231.552 137.849 231.552 133.989C231.552 130.129 233.772 127.109 237.832 127.109C240.832 127.109 242.852 128.709 243.712 131.469L242.152 132.489C241.712 130.249 240.392 128.749 237.852 128.749C234.792 128.749 233.392 130.929 233.392 133.989C233.392 137.049 234.792 139.229 237.852 139.229C240.392 139.229 241.712 137.729 242.152 135.489L243.712 136.509C242.852 139.269 240.832 140.869 237.832 140.869ZM249.254 140.709H247.354C247.354 134.049 250.214 131.069 252.414 128.949H245.214V127.309H253.994V129.289C251.034 132.109 249.254 135.009 249.254 140.709ZM259.059 140.709H257.159C257.159 134.049 260.019 131.069 262.219 128.949H255.019V127.309H263.799V129.289C260.839 132.109 259.059 135.009 259.059 140.709ZM270.094 140.909C267.194 140.909 265.494 139.189 265.054 137.169L266.534 135.849C266.934 137.889 267.794 139.249 270.314 139.249C272.034 139.249 273.014 138.429 273.014 137.069C273.014 135.469 271.754 134.749 269.894 134.749H267.714V133.249H269.914C271.594 133.249 272.434 132.529 272.434 131.129C272.434 129.849 271.674 128.789 269.954 128.789C268.234 128.789 266.994 129.769 266.754 131.609L265.274 130.369C265.834 128.549 267.594 127.109 269.994 127.109C273.094 127.109 274.254 129.029 274.254 130.749C274.254 132.129 273.234 133.549 271.534 133.789C273.974 133.989 274.854 135.509 274.854 137.249C274.854 139.429 273.014 140.909 270.094 140.909ZM282.524 140.909C280.124 140.909 278.304 139.569 277.624 137.869L279.024 136.389C279.504 138.129 280.704 139.249 282.584 139.249C284.424 139.249 285.344 138.149 285.344 136.409C285.344 134.229 283.864 133.409 282.404 133.409C280.944 133.409 279.944 134.049 279.864 134.949L279.844 135.169L278.124 134.989L278.544 127.309H286.164V128.949H280.264L279.904 134.089C280.324 132.909 281.384 131.969 283.144 131.969C285.804 131.969 287.184 133.829 287.184 136.409C287.184 139.129 285.444 140.909 282.524 140.909Z" fill="#323232"/>
<path d="M0 39.437C0 36.6756 2.23858 34.437 5 34.437H151.872C154.633 34.437 156.872 36.6756 156.872 39.437V116.452H0V39.437Z" fill="#002A9C"/>
<path d="M0.5 116.952H156.372V148.967C156.372 151.452 154.357 153.467 151.872 153.467H5C2.51472 153.467 0.5 151.452 0.5 148.967V116.952Z" stroke="black"/>
<path d="M199.057 39.437C199.057 36.6756 201.295 34.437 204.057 34.437H350.929C353.69 34.437 355.929 36.6756 355.929 39.437V116.452H199.057V39.437Z" fill="#FC7735"/>
<path d="M199.557 116.952H355.429V148.967C355.429 151.452 353.414 153.467 350.929 153.467H204.057C201.571 153.467 199.557 151.452 199.557 148.967V116.952Z" stroke="black"/>
</svg>
