<svg width="388" height="239" viewBox="0 0 388 239" fill="none" xmlns="http://www.w3.org/2000/svg">
<path d="M315.214 124.858C336.774 103.121 367.936 78.2612 370.766 87.5482C378.642 113.389 337.718 131.909 321.919 136.688C321.377 136.403 316.535 129.184 315.214 124.858Z" fill="#252525"/>
<path d="M268.071 123.051C246.511 101.315 215.349 76.455 212.519 85.742C204.643 111.583 245.567 130.103 261.366 134.882C261.908 134.597 266.75 127.378 268.071 123.051Z" fill="#252525"/>
<path d="M341.004 231.098C339.103 232.644 336.634 233.294 334.226 233.781C323.466 235.977 312.382 235.971 301.625 233.762C300.198 233.466 298.708 233.099 297.638 232.115C296.568 231.131 296.107 229.572 296.181 228.052C296.222 227.359 296.362 226.676 296.596 226.025C297.348 223.97 298.852 222.303 300.33 220.688C311.76 218.211 323.558 218.043 335.052 220.194C335.493 220.274 335.943 220.361 336.384 220.455C339.089 221.018 342.132 222.028 343.162 224.584C344.079 226.846 342.904 229.544 341.004 231.098Z" fill="#FDBA33"/>
<path opacity="0.59" d="M335.055 220.186C324.167 228.534 309.399 231.406 296.184 228.044C296.225 227.352 296.364 226.669 296.599 226.017C297.351 223.962 298.855 222.296 300.333 220.681C311.762 218.204 323.561 218.036 335.055 220.186Z" fill="#E0762B"/>
<path d="M243.068 231.098C244.969 232.645 247.438 233.295 249.847 233.782C260.606 235.978 271.69 235.971 282.447 233.763C283.875 233.466 285.364 233.099 286.434 232.115C287.504 231.131 287.966 229.573 287.891 228.052C287.851 227.36 287.711 226.677 287.476 226.025C286.724 223.97 285.22 222.303 283.742 220.689C272.313 218.212 260.514 218.044 249.021 220.194C248.58 220.274 248.129 220.361 247.689 220.455C244.983 221.018 241.941 222.028 240.91 224.585C239.994 226.847 241.168 229.544 243.068 231.098Z" fill="#FDBA33"/>
<path opacity="0.59" d="M249.017 220.187C259.904 228.534 274.672 231.406 287.887 228.045C287.847 227.352 287.707 226.669 287.472 226.018C286.72 223.963 285.217 222.296 283.738 220.681C272.309 218.204 260.51 218.036 249.017 220.187Z" fill="#E0762B"/>
<path d="M244.91 163.322C256.582 130.673 272.253 104.487 293.541 108.496C318.832 108.496 330.509 133.786 336.733 163.322C346.934 211.725 327.99 224.051 293.541 224.051C265.359 224.051 230.581 216.27 244.91 163.322Z" fill="#3C3C3E"/>
<path d="M259.017 168.917C267.079 146.365 277.904 128.277 292.61 131.046C310.08 131.046 318.145 148.515 322.445 168.917C329.491 202.353 316.406 210.867 292.61 210.867C273.142 210.867 249.119 205.492 259.017 168.917Z" fill="#FAFDFB"/>
<path d="M240.276 175.059C246.252 151.268 259.378 130.067 265.873 121.773L320.324 120.481C332.031 139.432 339.844 164.667 341.043 175.059C306.323 191.51 259.399 181.914 240.276 175.059Z" fill="#FF6200"/>
<path d="M307.792 122.832L307.982 122.588C296.95 124.526 282.742 123.395 278.481 122.588C285.789 132.299 300.324 132.42 307.792 122.832Z" fill="#252525"/>
<path d="M354.782 81.012C354.782 110.155 321.593 125.186 291.254 125.186C260.915 125.186 231.093 110.155 231.093 81.012C231.093 51.8693 257.323 19.6504 291.254 19.6504C328.094 19.6504 354.782 51.8693 354.782 81.012Z" fill="#3C3C3E"/>
<path d="M248.357 88.9395C245.159 29.5588 282.657 39.792 286.137 53.3422C289.618 66.8925 290.92 88.9395 290.92 88.9395L294.964 88.9395C294.964 88.9395 296.203 59.0057 298.025 53.3419C303.68 35.724 340.599 38.9227 335.412 88.9395C334.252 100.004 325.567 116.814 292.766 116.814C263.179 116.814 251.068 105.768 248.357 88.9395Z" fill="#FAFDFB"/>
<path opacity="0.47" d="M265.308 99.6344C260.775 99.6344 257.1 97.5549 257.1 94.9898C257.1 92.4247 260.775 90.3452 265.308 90.3452C269.841 90.3452 273.516 92.4247 273.516 94.9898C273.516 97.5549 269.841 99.6344 265.308 99.6344Z" fill="#F26B65"/>
<path opacity="0.47" d="M312.354 95.0239C312.354 92.4595 316.03 90.3656 320.564 90.3469C325.099 90.3283 328.774 92.392 328.774 94.9564C328.774 97.5207 325.099 99.6147 320.564 99.6334C316.03 99.652 312.354 97.5882 312.354 95.0239Z" fill="#F26B65"/>
<path d="M282.857 94.581C282.95 97.4859 283.82 99.8824 285.377 102.26C286.935 104.638 290.763 106.323 293.455 106.323C298.952 106.323 303.631 100.466 302.951 93.484C296.328 93.4628 289.475 94.0066 282.857 94.581Z" fill="#FBAC1F"/>
<path d="M285.151 95.5933C284.479 98.3028 287.33 104.094 292.456 104.539C296.014 104.847 300.346 101.949 301.602 94.8541C296.283 94.8471 290.477 95.1696 285.151 95.5933Z" fill="#B53426"/>
<path d="M281.469 94.5041C282.757 89.0474 287.546 84.8524 292.647 84.7112C297.747 84.57 302.725 88.513 304.407 94.0286C297.708 98.4518 289.059 99.0545 281.469 94.5041Z" fill="#FDBA33"/>
<path d="M272.27 84.7065C269.919 84.7065 268.014 82.7735 268.014 80.3891C268.014 78.0047 269.919 76.0718 272.27 76.0718C274.62 76.0718 276.525 78.0047 276.525 80.3891C276.525 82.7735 274.62 84.7065 272.27 84.7065Z" fill="#3C3C3E"/>
<path d="M311.213 84.7065C308.863 84.7065 306.957 82.7735 306.957 80.3891C306.957 78.0047 308.863 76.0718 311.213 76.0718C313.563 76.0718 315.469 78.0047 315.469 80.3891C315.469 82.7735 313.563 84.7065 311.213 84.7065Z" fill="#3C3C3E"/>
<path d="M315.853 73.7409C315.665 74.7873 314.669 76.8783 312.196 76.8709" stroke="#3C3C3E" stroke-linecap="round"/>
<path d="M267.996 73.7409C268.185 74.7873 269.181 76.8783 271.653 76.8709" stroke="#3C3C3E" stroke-linecap="round"/>
<path d="M318.38 76.1531C317.795 77.0411 316.058 78.5725 313.787 77.594" stroke="#3C3C3E" stroke-linecap="round"/>
<path d="M265.469 76.1531C266.054 77.0411 267.792 78.5725 270.062 77.594" stroke="#3C3C3E" stroke-linecap="round"/>
<path d="M270.827 171.372H269.286V174.464H268.587V171.372H267.043V170.688H270.827V171.372Z" fill="white"/>
<path d="M275.149 174.119C275.149 174.168 275.14 174.213 275.122 174.256C275.104 174.298 275.079 174.335 275.047 174.366C275.016 174.396 274.979 174.42 274.936 174.437C274.893 174.455 274.847 174.464 274.797 174.464H272.274C272.209 174.464 272.139 174.457 272.064 174.443C271.991 174.427 271.917 174.403 271.844 174.371C271.772 174.34 271.703 174.299 271.636 174.25C271.57 174.199 271.511 174.139 271.459 174.069C271.409 173.997 271.368 173.914 271.338 173.821C271.307 173.726 271.292 173.62 271.292 173.503V171.649C271.292 171.586 271.299 171.518 271.314 171.446C271.33 171.372 271.354 171.301 271.386 171.23C271.419 171.158 271.461 171.09 271.513 171.025C271.565 170.96 271.627 170.903 271.698 170.854C271.772 170.803 271.856 170.763 271.951 170.733C272.046 170.703 272.154 170.688 272.274 170.688H275.117V171.372H272.274C272.182 171.372 272.112 171.396 272.064 171.444C272.016 171.491 271.991 171.561 271.991 171.654V173.503C271.991 173.59 272.016 173.659 272.064 173.708C272.114 173.755 272.184 173.779 272.274 173.779H274.45V172.921H272.589V172.231H274.797C274.847 172.231 274.893 172.24 274.936 172.26C274.979 172.277 275.016 172.302 275.047 172.334C275.079 172.365 275.104 172.402 275.122 172.444C275.14 172.484 275.149 172.528 275.149 172.576V174.119Z" fill="white"/>
<path d="M279.42 174.464H276.23C276.18 174.464 276.133 174.455 276.09 174.437C276.047 174.42 276.009 174.396 275.977 174.366C275.947 174.335 275.922 174.298 275.905 174.256C275.887 174.213 275.878 174.168 275.878 174.119V170.688H276.577V173.779H279.42V174.464Z" fill="white"/>
<path d="M285.371 173.352C285.371 173.488 285.353 173.61 285.317 173.718C285.283 173.826 285.238 173.92 285.18 174.003C285.123 174.085 285.056 174.156 284.979 174.213C284.901 174.271 284.822 174.319 284.739 174.356C284.657 174.393 284.572 174.42 284.486 174.437C284.402 174.455 284.322 174.464 284.247 174.464H281.55V173.779H284.247C284.382 173.779 284.486 173.74 284.559 173.663C284.634 173.586 284.672 173.482 284.672 173.352C284.672 173.289 284.662 173.231 284.642 173.179C284.623 173.126 284.594 173.08 284.556 173.042C284.52 173.003 284.476 172.973 284.422 172.952C284.37 172.931 284.312 172.921 284.247 172.921H282.639C282.526 172.921 282.404 172.901 282.273 172.863C282.142 172.822 282.02 172.758 281.907 172.671C281.796 172.583 281.703 172.468 281.628 172.326C281.554 172.183 281.517 172.01 281.517 171.804C281.517 171.599 281.554 171.426 281.628 171.286C281.703 171.143 281.796 171.028 281.907 170.941C282.02 170.851 282.142 170.787 282.273 170.748C282.404 170.708 282.526 170.688 282.639 170.688H285.019V171.372H282.639C282.506 171.372 282.402 171.412 282.327 171.491C282.253 171.57 282.217 171.674 282.217 171.804C282.217 171.936 282.253 172.04 282.327 172.118C282.402 172.193 282.506 172.231 282.639 172.231H284.247H284.252C284.328 172.233 284.408 172.243 284.492 172.262C284.576 172.28 284.659 172.308 284.742 172.347C284.826 172.385 284.906 172.434 284.981 172.494C285.057 172.552 285.123 172.622 285.18 172.705C285.239 172.787 285.286 172.882 285.32 172.989C285.354 173.096 285.371 173.217 285.371 173.352Z" fill="white"/>
<path d="M290 172.936C290 173.166 289.959 173.378 289.879 173.571C289.798 173.764 289.686 173.931 289.543 174.071C289.399 174.212 289.229 174.321 289.032 174.4C288.836 174.478 288.623 174.516 288.391 174.516H287.445C287.213 174.516 286.999 174.478 286.802 174.4C286.605 174.321 286.434 174.212 286.291 174.071C286.148 173.931 286.035 173.764 285.952 173.571C285.871 173.378 285.831 173.166 285.831 172.936V172.215C285.831 171.987 285.871 171.776 285.952 171.583C286.035 171.388 286.148 171.222 286.291 171.083C286.434 170.942 286.605 170.833 286.802 170.754C286.999 170.675 287.213 170.635 287.445 170.635H288.391C288.623 170.635 288.836 170.675 289.032 170.754C289.229 170.833 289.399 170.942 289.543 171.083C289.686 171.222 289.798 171.388 289.879 171.583C289.959 171.776 290 171.987 290 172.215V172.936ZM289.3 172.215C289.3 172.08 289.278 171.958 289.233 171.849C289.19 171.738 289.128 171.645 289.048 171.567C288.969 171.488 288.873 171.428 288.76 171.386C288.649 171.342 288.526 171.32 288.391 171.32H287.445C287.309 171.32 287.184 171.342 287.071 171.386C286.96 171.428 286.864 171.488 286.783 171.567C286.702 171.645 286.64 171.738 286.595 171.849C286.552 171.958 286.53 172.08 286.53 172.215V172.936C286.53 173.072 286.552 173.195 286.595 173.305C286.64 173.414 286.702 173.508 286.783 173.587C286.864 173.664 286.96 173.725 287.071 173.768C287.184 173.811 287.309 173.832 287.445 173.832H288.386C288.522 173.832 288.646 173.811 288.757 173.768C288.87 173.725 288.967 173.664 289.048 173.587C289.128 173.508 289.19 173.414 289.233 173.305C289.278 173.195 289.3 173.072 289.3 172.936V172.215Z" fill="white"/>
<path d="M294.233 174.464H291.043C290.993 174.464 290.946 174.455 290.903 174.437C290.86 174.42 290.823 174.396 290.79 174.366C290.76 174.335 290.736 174.298 290.718 174.256C290.7 174.213 290.691 174.168 290.691 174.119V170.688H291.39V173.779H294.233V174.464Z" fill="white"/>
<path d="M298.321 174.119C298.321 174.168 298.312 174.213 298.294 174.256C298.276 174.298 298.251 174.335 298.219 174.366C298.186 174.396 298.149 174.42 298.106 174.437C298.063 174.455 298.017 174.464 297.968 174.464H296.392C296.244 174.464 296.093 174.448 295.941 174.416C295.788 174.385 295.64 174.336 295.497 174.271C295.355 174.205 295.222 174.12 295.096 174.019C294.971 173.917 294.86 173.797 294.765 173.658C294.672 173.517 294.599 173.358 294.545 173.179C294.491 172.998 294.464 172.797 294.464 172.576V170.688H295.163V172.576C295.163 172.769 295.19 172.932 295.244 173.065C295.3 173.199 295.37 173.31 295.454 173.4C295.538 173.489 295.63 173.56 295.731 173.611C295.831 173.661 295.926 173.699 296.016 173.724C296.107 173.748 296.187 173.764 296.255 173.771C296.325 173.776 296.371 173.779 296.392 173.779H297.621V170.688H298.321V174.119Z" fill="white"/>
<path d="M302.621 171.372H301.08V174.464H300.381V171.372H298.837V170.688H302.621V171.372Z" fill="white"/>
<path d="M303.842 174.464H303.143V170.688H303.842V174.464Z" fill="white"/>
<path d="M308.707 172.936C308.707 173.166 308.667 173.378 308.586 173.571C308.505 173.764 308.393 173.931 308.25 174.071C308.107 174.212 307.936 174.321 307.739 174.4C307.544 174.478 307.33 174.516 307.099 174.516H306.152C305.921 174.516 305.707 174.478 305.509 174.4C305.312 174.321 305.142 174.212 304.999 174.071C304.855 173.931 304.742 173.764 304.66 173.571C304.579 173.378 304.539 173.166 304.539 172.936V172.215C304.539 171.987 304.579 171.776 304.66 171.583C304.742 171.388 304.855 171.222 304.999 171.083C305.142 170.942 305.312 170.833 305.509 170.754C305.707 170.675 305.921 170.635 306.152 170.635H307.099C307.33 170.635 307.544 170.675 307.739 170.754C307.936 170.833 308.107 170.942 308.25 171.083C308.393 171.222 308.505 171.388 308.586 171.583C308.667 171.776 308.707 171.987 308.707 172.215V172.936ZM308.008 172.215C308.008 172.08 307.986 171.958 307.941 171.849C307.898 171.738 307.836 171.645 307.755 171.567C307.676 171.488 307.58 171.428 307.467 171.386C307.356 171.342 307.233 171.32 307.099 171.32H306.152C306.016 171.32 305.891 171.342 305.778 171.386C305.667 171.428 305.571 171.488 305.491 171.567C305.41 171.645 305.347 171.738 305.302 171.849C305.259 171.958 305.238 172.08 305.238 172.215V172.936C305.238 173.072 305.259 173.195 305.302 173.305C305.347 173.414 305.41 173.508 305.491 173.587C305.571 173.664 305.667 173.725 305.778 173.768C305.891 173.811 306.016 173.832 306.152 173.832H307.094C307.23 173.832 307.354 173.811 307.465 173.768C307.578 173.725 307.674 173.664 307.755 173.587C307.836 173.508 307.898 173.414 307.941 173.305C307.986 173.195 308.008 173.072 308.008 172.936V172.215Z" fill="white"/>
<path d="M313.252 174.171C313.252 174.22 313.242 174.266 313.223 174.308C313.205 174.35 313.18 174.387 313.147 174.419C313.117 174.449 313.08 174.472 313.037 174.49C312.994 174.507 312.948 174.516 312.9 174.516C312.857 174.516 312.813 174.508 312.768 174.493C312.725 174.477 312.687 174.451 312.653 174.416L310.098 171.804V174.464H309.398V170.98C309.398 170.91 309.418 170.847 309.458 170.791C309.499 170.733 309.551 170.69 309.614 170.662C309.68 170.635 309.748 170.629 309.818 170.643C309.888 170.655 309.948 170.687 309.998 170.738L312.553 173.347V170.688H313.252V174.171Z" fill="white"/>
<path d="M317.773 173.352C317.773 173.488 317.755 173.61 317.719 173.718C317.685 173.826 317.64 173.92 317.582 174.003C317.525 174.085 317.458 174.156 317.381 174.213C317.303 174.271 317.224 174.319 317.141 174.356C317.059 174.393 316.974 174.42 316.888 174.437C316.804 174.455 316.724 174.464 316.649 174.464H313.952V173.779H316.649C316.783 173.779 316.887 173.74 316.961 173.663C317.036 173.586 317.074 173.482 317.074 173.352C317.074 173.289 317.064 173.231 317.044 173.179C317.025 173.126 316.996 173.08 316.958 173.042C316.922 173.003 316.878 172.973 316.824 172.952C316.772 172.931 316.714 172.921 316.649 172.921H315.041C314.928 172.921 314.806 172.901 314.675 172.863C314.544 172.822 314.422 172.758 314.309 172.671C314.198 172.583 314.105 172.468 314.03 172.326C313.956 172.183 313.919 172.01 313.919 171.804C313.919 171.599 313.956 171.426 314.03 171.286C314.105 171.143 314.198 171.028 314.309 170.941C314.422 170.851 314.544 170.787 314.675 170.748C314.806 170.708 314.928 170.688 315.041 170.688H317.421V171.372H315.041C314.908 171.372 314.804 171.412 314.729 171.491C314.655 171.57 314.618 171.674 314.618 171.804C314.618 171.936 314.655 172.04 314.729 172.118C314.804 172.193 314.908 172.231 315.041 172.231H316.649H316.654C316.73 172.233 316.809 172.243 316.894 172.262C316.978 172.28 317.061 172.308 317.144 172.347C317.228 172.385 317.308 172.434 317.383 172.494C317.458 172.552 317.525 172.622 317.582 172.705C317.641 172.787 317.688 172.882 317.722 172.989C317.756 173.096 317.773 173.217 317.773 173.352Z" fill="white"/>
<path d="M269.997 179.355C269.797 179.355 269.605 179.325 269.418 179.265C269.234 179.201 269.089 179.121 268.983 179.022L269.123 178.726C269.224 178.817 269.353 178.892 269.509 178.95C269.668 179.006 269.83 179.033 269.997 179.033C270.216 179.033 270.38 178.997 270.488 178.923C270.596 178.848 270.651 178.748 270.651 178.624C270.651 178.533 270.62 178.46 270.56 178.404C270.502 178.346 270.429 178.302 270.341 178.272C270.255 178.241 270.133 178.207 269.974 178.169C269.775 178.121 269.613 178.073 269.49 178.025C269.369 177.977 269.264 177.904 269.176 177.806C269.091 177.705 269.048 177.569 269.048 177.4C269.048 177.259 269.084 177.131 269.157 177.017C269.233 176.904 269.346 176.813 269.498 176.745C269.649 176.676 269.836 176.642 270.061 176.642C270.217 176.642 270.371 176.662 270.522 176.703C270.673 176.743 270.803 176.801 270.911 176.877L270.787 177.18C270.676 177.11 270.557 177.057 270.431 177.021C270.305 176.983 270.182 176.964 270.061 176.964C269.847 176.964 269.685 177.003 269.577 177.082C269.471 177.16 269.418 177.261 269.418 177.385C269.418 177.476 269.448 177.55 269.509 177.609C269.569 177.664 269.644 177.708 269.732 177.741C269.823 177.771 269.945 177.804 270.099 177.84C270.298 177.888 270.458 177.936 270.579 177.984C270.7 178.032 270.803 178.105 270.889 178.203C270.977 178.302 271.021 178.435 271.021 178.601C271.021 178.74 270.983 178.868 270.908 178.984C270.832 179.098 270.717 179.189 270.564 179.257C270.41 179.323 270.221 179.355 269.997 179.355Z" fill="white"/>
<path d="M274.027 177.298C274.279 177.298 274.478 177.371 274.624 177.518C274.773 177.664 274.847 177.881 274.847 178.169V179.325H274.484V178.211C274.484 178.017 274.439 177.87 274.348 177.771C274.26 177.673 274.133 177.624 273.966 177.624C273.782 177.624 273.636 177.682 273.528 177.798C273.419 177.912 273.365 178.076 273.365 178.291V179.325H273.002V178.211C273.002 178.017 272.957 177.87 272.866 177.771C272.778 177.673 272.651 177.624 272.484 177.624C272.3 177.624 272.154 177.682 272.046 177.798C271.937 177.912 271.883 178.076 271.883 178.291V179.325H271.52V177.317H271.868V177.616C271.941 177.513 272.037 177.434 272.155 177.381C272.274 177.326 272.409 177.298 272.56 177.298C272.716 177.298 272.855 177.329 272.976 177.393C273.097 177.456 273.19 177.548 273.256 177.669C273.331 177.553 273.436 177.462 273.569 177.396C273.705 177.331 273.858 177.298 274.027 177.298Z" fill="white"/>
<path d="M276.244 177.298C276.522 177.298 276.733 177.366 276.88 177.502C277.028 177.639 277.103 177.842 277.103 178.113V179.325H276.759V179.06C276.698 179.153 276.611 179.225 276.498 179.276C276.387 179.324 276.255 179.348 276.101 179.348C275.876 179.348 275.696 179.294 275.56 179.185C275.427 179.076 275.36 178.934 275.36 178.757C275.36 178.58 275.424 178.438 275.553 178.332C275.681 178.224 275.885 178.169 276.165 178.169H276.74V178.097C276.74 177.941 276.694 177.821 276.604 177.737C276.513 177.654 276.379 177.612 276.203 177.612C276.084 177.612 275.968 177.633 275.855 177.673C275.742 177.711 275.646 177.763 275.568 177.828L275.417 177.555C275.52 177.472 275.643 177.409 275.787 177.366C275.931 177.321 276.083 177.298 276.244 177.298ZM276.161 179.067C276.3 179.067 276.42 179.037 276.52 178.977C276.621 178.913 276.694 178.825 276.74 178.711V178.431H276.18C275.873 178.431 275.719 178.534 275.719 178.742C275.719 178.843 275.758 178.922 275.836 178.98C275.914 179.038 276.023 179.067 276.161 179.067Z" fill="white"/>
<path d="M278.122 177.654C278.185 177.538 278.278 177.449 278.402 177.389C278.525 177.328 278.675 177.298 278.852 177.298V177.65C278.831 177.648 278.804 177.646 278.768 177.646C278.572 177.646 278.417 177.706 278.303 177.825C278.193 177.941 278.137 178.107 278.137 178.325V179.325H277.774V177.317H278.122V177.654Z" fill="white"/>
<path d="M280.507 179.208C280.454 179.253 280.388 179.289 280.31 179.314C280.232 179.337 280.151 179.348 280.068 179.348C279.866 179.348 279.71 179.294 279.599 179.185C279.488 179.076 279.433 178.921 279.433 178.719V177.616H279.093V177.317H279.433V176.877H279.796V177.317H280.371V177.616H279.796V178.704C279.796 178.812 279.822 178.896 279.875 178.954C279.931 179.012 280.009 179.041 280.11 179.041C280.221 179.041 280.315 179.009 280.393 178.946L280.507 179.208Z" fill="white"/>
<path d="M283.949 179.367L283.598 179.014C283.363 179.242 283.068 179.355 282.713 179.355C282.536 179.355 282.378 179.326 282.237 179.268C282.095 179.21 281.985 179.129 281.904 179.026C281.826 178.92 281.787 178.8 281.787 178.666C281.787 178.504 281.836 178.361 281.934 178.238C282.035 178.111 282.2 177.982 282.429 177.851C282.313 177.735 282.232 177.63 282.184 177.537C282.136 177.443 282.112 177.346 282.112 177.245C282.112 177.065 282.176 176.921 282.305 176.813C282.436 176.704 282.61 176.65 282.826 176.65C283.028 176.65 283.188 176.699 283.306 176.798C283.425 176.896 283.484 177.031 283.484 177.203C283.484 177.337 283.44 177.457 283.352 177.563C283.266 177.669 283.122 177.78 282.921 177.897L283.575 178.548C283.65 178.404 283.705 178.244 283.737 178.067L284.028 178.162C283.983 178.394 283.906 178.596 283.798 178.768L284.153 179.124L283.949 179.367ZM282.826 176.915C282.708 176.915 282.615 176.945 282.547 177.006C282.481 177.064 282.448 177.141 282.448 177.237C282.448 177.305 282.466 177.371 282.501 177.434C282.539 177.497 282.611 177.583 282.717 177.692C282.891 177.593 283.01 177.509 283.076 177.438C283.144 177.367 283.178 177.29 283.178 177.207C283.178 177.118 283.146 177.048 283.083 176.995C283.023 176.942 282.937 176.915 282.826 176.915ZM282.736 179.052C282.998 179.052 283.213 178.969 283.382 178.802L282.63 178.052C282.448 178.153 282.321 178.248 282.248 178.336C282.177 178.422 282.142 178.519 282.142 178.628C282.142 178.754 282.196 178.857 282.305 178.935C282.416 179.013 282.559 179.052 282.736 179.052Z" fill="white"/>
<path d="M286.392 179.355C286.192 179.355 286 179.325 285.813 179.265C285.629 179.201 285.484 179.121 285.378 179.022L285.518 178.726C285.619 178.817 285.748 178.892 285.904 178.95C286.063 179.006 286.225 179.033 286.392 179.033C286.611 179.033 286.775 178.997 286.883 178.923C286.991 178.848 287.046 178.748 287.046 178.624C287.046 178.533 287.015 178.46 286.955 178.404C286.897 178.346 286.824 178.302 286.736 178.272C286.65 178.241 286.528 178.207 286.369 178.169C286.17 178.121 286.008 178.073 285.885 178.025C285.764 177.977 285.659 177.904 285.571 177.806C285.486 177.705 285.443 177.569 285.443 177.4C285.443 177.259 285.479 177.131 285.552 177.017C285.628 176.904 285.741 176.813 285.893 176.745C286.044 176.676 286.232 176.642 286.456 176.642C286.612 176.642 286.766 176.662 286.917 176.703C287.068 176.743 287.198 176.801 287.306 176.877L287.182 177.18C287.071 177.11 286.952 177.057 286.826 177.021C286.7 176.983 286.577 176.964 286.456 176.964C286.242 176.964 286.08 177.003 285.972 177.082C285.866 177.16 285.813 177.261 285.813 177.385C285.813 177.476 285.843 177.55 285.904 177.609C285.964 177.664 286.039 177.708 286.127 177.741C286.218 177.771 286.34 177.804 286.494 177.84C286.693 177.888 286.853 177.936 286.974 177.984C287.095 178.032 287.198 178.105 287.284 178.203C287.372 178.302 287.416 178.435 287.416 178.601C287.416 178.74 287.378 178.868 287.303 178.984C287.227 179.098 287.112 179.189 286.959 179.257C286.805 179.323 286.616 179.355 286.392 179.355Z" fill="white"/>
<path d="M288.978 177.298C289.172 177.298 289.346 177.341 289.499 177.427C289.653 177.513 289.773 177.633 289.859 177.787C289.947 177.941 289.991 178.119 289.991 178.321C289.991 178.523 289.947 178.702 289.859 178.859C289.773 179.013 289.653 179.133 289.499 179.219C289.346 179.305 289.172 179.348 288.978 179.348C288.834 179.348 288.702 179.32 288.581 179.265C288.462 179.209 288.361 179.128 288.278 179.022V180.06H287.915V177.317H288.263V177.635C288.344 177.524 288.446 177.441 288.569 177.385C288.693 177.327 288.829 177.298 288.978 177.298ZM288.947 179.03C289.076 179.03 289.191 179.001 289.291 178.942C289.395 178.882 289.475 178.798 289.533 178.692C289.594 178.584 289.624 178.46 289.624 178.321C289.624 178.182 289.594 178.059 289.533 177.953C289.475 177.845 289.395 177.761 289.291 177.703C289.191 177.645 289.076 177.616 288.947 177.616C288.821 177.616 288.707 177.646 288.603 177.707C288.503 177.765 288.422 177.847 288.361 177.953C288.304 178.059 288.275 178.182 288.275 178.321C288.275 178.46 288.304 178.584 288.361 178.692C288.419 178.798 288.5 178.882 288.603 178.942C288.707 179.001 288.821 179.03 288.947 179.03Z" fill="white"/>
<path d="M292.303 178.332C292.303 178.36 292.301 178.397 292.295 178.442H290.67C290.693 178.619 290.769 178.762 290.901 178.87C291.034 178.977 291.199 179.03 291.396 179.03C291.635 179.03 291.828 178.949 291.974 178.787L292.174 179.022C292.084 179.128 291.97 179.209 291.834 179.265C291.701 179.32 291.551 179.348 291.384 179.348C291.173 179.348 290.985 179.305 290.821 179.219C290.657 179.131 290.53 179.008 290.439 178.851C290.351 178.695 290.307 178.518 290.307 178.321C290.307 178.126 290.35 177.951 290.436 177.794C290.524 177.638 290.643 177.516 290.795 177.43C290.948 177.342 291.121 177.298 291.313 177.298C291.504 177.298 291.674 177.342 291.823 177.43C291.974 177.516 292.091 177.638 292.174 177.794C292.26 177.951 292.303 178.13 292.303 178.332ZM291.313 177.605C291.139 177.605 290.993 177.658 290.874 177.764C290.758 177.87 290.69 178.009 290.67 178.181H291.955C291.935 178.011 291.866 177.874 291.747 177.768C291.631 177.659 291.486 177.605 291.313 177.605Z" fill="white"/>
<path d="M294.618 178.332C294.618 178.36 294.615 178.397 294.61 178.442H292.985C293.007 178.619 293.084 178.762 293.215 178.87C293.349 178.977 293.514 179.03 293.71 179.03C293.95 179.03 294.143 178.949 294.289 178.787L294.489 179.022C294.398 179.128 294.285 179.209 294.149 179.265C294.015 179.32 293.865 179.348 293.699 179.348C293.487 179.348 293.3 179.305 293.136 179.219C292.972 179.131 292.845 179.008 292.754 178.851C292.666 178.695 292.622 178.518 292.622 178.321C292.622 178.126 292.665 177.951 292.75 177.794C292.838 177.638 292.958 177.516 293.109 177.43C293.263 177.342 293.436 177.298 293.627 177.298C293.819 177.298 293.989 177.342 294.138 177.43C294.289 177.516 294.406 177.638 294.489 177.794C294.575 177.951 294.618 178.13 294.618 178.332ZM293.627 177.605C293.453 177.605 293.307 177.658 293.189 177.764C293.073 177.87 293.005 178.009 292.985 178.181H294.27C294.25 178.011 294.18 177.874 294.062 177.768C293.946 177.659 293.801 177.605 293.627 177.605Z" fill="white"/>
<path d="M297.012 176.513V179.325H296.664V179.007C296.583 179.118 296.481 179.203 296.358 179.261C296.234 179.319 296.098 179.348 295.95 179.348C295.756 179.348 295.582 179.305 295.428 179.219C295.274 179.133 295.153 179.013 295.065 178.859C294.979 178.702 294.936 178.523 294.936 178.321C294.936 178.119 294.979 177.941 295.065 177.787C295.153 177.633 295.274 177.513 295.428 177.427C295.582 177.341 295.756 177.298 295.95 177.298C296.093 177.298 296.226 177.326 296.347 177.381C296.467 177.434 296.568 177.514 296.649 177.62V176.513H297.012ZM295.98 179.03C296.106 179.03 296.221 179.001 296.324 178.942C296.427 178.882 296.508 178.798 296.566 178.692C296.624 178.584 296.653 178.46 296.653 178.321C296.653 178.182 296.624 178.059 296.566 177.953C296.508 177.845 296.427 177.761 296.324 177.703C296.221 177.645 296.106 177.616 295.98 177.616C295.851 177.616 295.735 177.645 295.632 177.703C295.531 177.761 295.451 177.845 295.39 177.953C295.332 178.059 295.303 178.182 295.303 178.321C295.303 178.46 295.332 178.584 295.39 178.692C295.451 178.798 295.531 178.882 295.632 178.942C295.735 179.001 295.851 179.03 295.98 179.03Z" fill="white"/>
<path d="M299.538 179.355C299.339 179.355 299.146 179.325 298.959 179.265C298.776 179.201 298.631 179.121 298.525 179.022L298.665 178.726C298.765 178.817 298.894 178.892 299.05 178.95C299.209 179.006 299.372 179.033 299.538 179.033C299.757 179.033 299.921 178.997 300.029 178.923C300.138 178.848 300.192 178.748 300.192 178.624C300.192 178.533 300.162 178.46 300.101 178.404C300.043 178.346 299.97 178.302 299.882 178.272C299.796 178.241 299.674 178.207 299.515 178.169C299.316 178.121 299.155 178.073 299.031 178.025C298.91 177.977 298.806 177.904 298.718 177.806C298.632 177.705 298.589 177.569 298.589 177.4C298.589 177.259 298.626 177.131 298.699 177.017C298.774 176.904 298.888 176.813 299.039 176.745C299.19 176.676 299.378 176.642 299.602 176.642C299.758 176.642 299.912 176.662 300.063 176.703C300.215 176.743 300.344 176.801 300.453 176.877L300.328 177.18C300.217 177.11 300.099 177.057 299.973 177.021C299.847 176.983 299.723 176.964 299.602 176.964C299.388 176.964 299.227 177.003 299.118 177.082C299.012 177.16 298.959 177.261 298.959 177.385C298.959 177.476 298.99 177.55 299.05 177.609C299.111 177.664 299.185 177.708 299.273 177.741C299.364 177.771 299.486 177.804 299.64 177.84C299.839 177.888 299.999 177.936 300.12 177.984C300.241 178.032 300.344 178.105 300.43 178.203C300.518 178.302 300.562 178.435 300.562 178.601C300.562 178.74 300.525 178.868 300.449 178.984C300.373 179.098 300.259 179.189 300.105 179.257C299.951 179.323 299.762 179.355 299.538 179.355Z" fill="white"/>
<path d="M301.92 179.348C301.721 179.348 301.542 179.304 301.383 179.215C301.224 179.127 301.1 179.006 301.009 178.851C300.921 178.695 300.876 178.518 300.876 178.321C300.876 178.124 300.921 177.948 301.009 177.794C301.1 177.638 301.224 177.516 301.383 177.43C301.542 177.342 301.721 177.298 301.92 177.298C302.119 177.298 302.297 177.342 302.453 177.43C302.612 177.516 302.735 177.638 302.823 177.794C302.914 177.948 302.959 178.124 302.959 178.321C302.959 178.518 302.914 178.695 302.823 178.851C302.735 179.006 302.612 179.127 302.453 179.215C302.297 179.304 302.119 179.348 301.92 179.348ZM301.92 179.03C302.048 179.03 302.163 179.001 302.264 178.942C302.367 178.882 302.448 178.798 302.506 178.692C302.564 178.584 302.593 178.46 302.593 178.321C302.593 178.182 302.564 178.059 302.506 177.953C302.448 177.845 302.367 177.761 302.264 177.703C302.163 177.645 302.048 177.616 301.92 177.616C301.791 177.616 301.675 177.645 301.572 177.703C301.471 177.761 301.391 177.845 301.33 177.953C301.272 178.059 301.243 178.182 301.243 178.321C301.243 178.46 301.272 178.584 301.33 178.692C301.391 178.798 301.471 178.882 301.572 178.942C301.675 179.001 301.791 179.03 301.92 179.03Z" fill="white"/>
<path d="M303.461 176.513H303.824V179.325H303.461V176.513Z" fill="white"/>
<path d="M306.385 177.317V179.325H306.041V179.022C305.968 179.126 305.871 179.206 305.75 179.265C305.631 179.32 305.501 179.348 305.36 179.348C305.093 179.348 304.883 179.275 304.729 179.128C304.575 178.979 304.498 178.761 304.498 178.473V177.317H304.861V178.431C304.861 178.625 304.908 178.773 305.001 178.874C305.094 178.973 305.228 179.022 305.402 179.022C305.593 179.022 305.745 178.964 305.855 178.848C305.966 178.731 306.022 178.567 306.022 178.355V177.317H306.385Z" fill="white"/>
<path d="M308.202 179.208C308.149 179.253 308.084 179.289 308.006 179.314C307.927 179.337 307.847 179.348 307.764 179.348C307.562 179.348 307.406 179.294 307.295 179.185C307.184 179.076 307.128 178.921 307.128 178.719V177.616H306.788V177.317H307.128V176.877H307.491V177.317H308.066V177.616H307.491V178.704C307.491 178.812 307.518 178.896 307.571 178.954C307.626 179.012 307.704 179.041 307.805 179.041C307.916 179.041 308.011 179.009 308.089 178.946L308.202 179.208Z" fill="white"/>
<path d="M308.641 177.317H309.004V179.325H308.641V177.317ZM308.822 176.93C308.752 176.93 308.693 176.907 308.645 176.862C308.599 176.817 308.577 176.761 308.577 176.695C308.577 176.63 308.599 176.574 308.645 176.529C308.693 176.481 308.752 176.457 308.822 176.457C308.893 176.457 308.951 176.479 308.996 176.525C309.044 176.568 309.068 176.622 309.068 176.688C309.068 176.756 309.044 176.814 308.996 176.862C308.951 176.907 308.893 176.93 308.822 176.93Z" fill="white"/>
<path d="M310.555 179.348C310.356 179.348 310.177 179.304 310.018 179.215C309.859 179.127 309.735 179.006 309.644 178.851C309.556 178.695 309.511 178.518 309.511 178.321C309.511 178.124 309.556 177.948 309.644 177.794C309.735 177.638 309.859 177.516 310.018 177.43C310.177 177.342 310.356 177.298 310.555 177.298C310.754 177.298 310.932 177.342 311.088 177.43C311.247 177.516 311.37 177.638 311.458 177.794C311.549 177.948 311.594 178.124 311.594 178.321C311.594 178.518 311.549 178.695 311.458 178.851C311.37 179.006 311.247 179.127 311.088 179.215C310.932 179.304 310.754 179.348 310.555 179.348ZM310.555 179.03C310.683 179.03 310.798 179.001 310.899 178.942C311.002 178.882 311.083 178.798 311.141 178.692C311.199 178.584 311.228 178.46 311.228 178.321C311.228 178.182 311.199 178.059 311.141 177.953C311.083 177.845 311.002 177.761 310.899 177.703C310.798 177.645 310.683 177.616 310.555 177.616C310.426 177.616 310.31 177.645 310.207 177.703C310.106 177.761 310.026 177.845 309.965 177.953C309.907 178.059 309.878 178.182 309.878 178.321C309.878 178.46 309.907 178.584 309.965 178.692C310.026 178.798 310.106 178.882 310.207 178.942C310.31 179.001 310.426 179.03 310.555 179.03Z" fill="white"/>
<path d="M313.166 177.298C313.421 177.298 313.622 177.372 313.771 177.521C313.922 177.668 313.998 177.884 313.998 178.169V179.325H313.635V178.211C313.635 178.017 313.588 177.87 313.495 177.771C313.402 177.673 313.268 177.624 313.094 177.624C312.898 177.624 312.743 177.682 312.629 177.798C312.516 177.912 312.459 178.076 312.459 178.291V179.325H312.096V177.317H312.444V177.62C312.517 177.516 312.616 177.437 312.739 177.381C312.865 177.326 313.007 177.298 313.166 177.298Z" fill="white"/>
<path d="M315.244 179.348C315.08 179.348 314.923 179.326 314.772 179.283C314.62 179.238 314.502 179.181 314.416 179.113L314.567 178.825C314.656 178.888 314.763 178.939 314.889 178.977C315.015 179.014 315.142 179.033 315.271 179.033C315.588 179.033 315.747 178.942 315.747 178.761C315.747 178.7 315.725 178.652 315.683 178.617C315.64 178.581 315.586 178.556 315.52 178.541C315.457 178.523 315.366 178.504 315.248 178.484C315.087 178.459 314.954 178.43 314.851 178.397C314.75 178.364 314.663 178.308 314.59 178.23C314.517 178.152 314.48 178.042 314.48 177.9C314.48 177.718 314.556 177.573 314.707 177.465C314.859 177.353 315.061 177.298 315.316 177.298C315.449 177.298 315.583 177.314 315.717 177.347C315.85 177.38 315.96 177.424 316.046 177.48L315.891 177.768C315.727 177.662 315.534 177.609 315.312 177.609C315.158 177.609 315.041 177.634 314.961 177.684C314.88 177.735 314.84 177.802 314.84 177.885C314.84 177.951 314.862 178.003 314.908 178.041C314.953 178.078 315.008 178.106 315.074 178.124C315.142 178.142 315.237 178.162 315.358 178.185C315.519 178.212 315.649 178.243 315.747 178.275C315.848 178.306 315.933 178.359 316.004 178.435C316.075 178.51 316.11 178.617 316.11 178.753C316.11 178.935 316.032 179.08 315.875 179.189C315.722 179.295 315.511 179.348 315.244 179.348Z" fill="white"/>
<path d="M285.566 162.249C290.187 164.265 293.914 163.128 296.116 162.419C286.606 164.724 279.76 158.076 280.7 150.039C281.39 144.142 285.896 141.747 288.029 140.795C287.968 141.364 287.925 142.758 288.238 143.784C289.345 140.45 291.322 138.598 293.898 137.275C283.94 135.697 279.296 142.867 278.355 145.427C276.188 151.322 278.279 159.07 285.566 162.249Z" fill="white"/>
<path d="M292.411 144.004C291.506 144.131 289.753 144.896 288.365 147.052C290.941 145.338 292.263 145.531 293.785 145.618C294.015 144.006 295.287 142.954 296.44 142.792C297.438 142.508 299.703 142.849 300.341 145.372C300.956 147.802 298.406 149.511 296.962 150.197C295.617 150.749 292.83 152.268 291.874 153.563C289.618 156.621 290.525 158.858 292.394 157.265C293.888 155.99 298.954 155.164 301.65 154.705C301.116 157.887 299.385 163.788 291.428 164.904C285.292 165.765 281.417 162.251 279.822 160.176C284.229 167.281 294.945 168.979 302.175 163.397C307.958 158.931 308.208 151.74 307.61 148.704C306.455 142.18 301.852 139.018 298.083 139.296C294.314 139.575 293.008 141.63 292.411 144.004Z" fill="white"/>
<path d="M295.839 145.23C295.839 145.767 296.274 146.203 296.811 146.203C297.348 146.203 297.783 145.767 297.783 145.23C297.783 144.694 297.348 144.258 296.811 144.258C296.274 144.258 295.839 144.694 295.839 145.23Z" fill="white"/>
<path d="M223.394 196.352C227.247 186.96 237.542 175.982 239.95 174.377C288.114 190.994 327.548 181.301 341.395 174.377C347.416 179.193 357.55 193.743 357.35 196.352C308.885 224.949 238.746 209.597 223.394 196.352Z" fill="#FAFDFB"/>
<path d="M352.126 18.5266C348.801 15.8075 330.649 24.4178 321.988 29.0629C323.651 29.0629 321.988 33.5947 320.949 35.8606C330.649 44.6975 343.812 45.0374 352.126 39.2594C358.777 34.637 354.898 23.5115 352.126 18.5266Z" fill="#FF6200"/>
<path d="M296.776 1.22452C306.703 2.88158 314.929 18.2554 317.801 25.7352C320.788 28.0367 324.97 32.9159 317.801 34.0206C308.84 35.4015 284.368 29.5326 287.125 13.9977C289.331 1.56974 294.478 0.303935 296.776 1.22452Z" fill="#FF6200"/>
<path d="M321.663 24.0713C319.342 19.1435 314.171 24.5393 311.851 26.7683C319.586 25.3604 315.862 30.0545 316.248 31.8142C316.558 33.222 310.358 32.6383 306.361 32.6383C306.361 35.1723 310.645 39.1851 313.223 39.889C328.693 36.7215 323.983 28.9987 321.663 24.0713Z" fill="#C64C00"/>
<path d="M323.682 24.6211C321.881 20.7658 316.928 24.1621 314.676 26.3421C322.181 24.9652 318.054 30.4728 318.429 32.1939C318.729 33.5707 311.049 33.915 307.172 33.915C307.172 36.3933 312.175 38.3898 314.676 39.0782C329.686 35.9803 325.933 29.4401 323.682 24.6211Z" fill="#C64C00"/>
<path d="M323.057 24.6211C321.412 20.7658 316.89 24.1621 314.834 26.3421C321.687 24.9652 317.918 30.4728 318.26 32.1939C318.535 33.5707 311.523 33.915 307.982 33.915C307.982 36.3933 312.55 38.3898 314.834 39.0782C328.539 35.9803 325.113 29.4401 323.057 24.6211Z" fill="#FF6200"/>
<path d="M108.315 123.075C134.704 105.235 171.341 86.8537 172.358 96.9036C175.186 124.867 129.681 135.519 112.592 137.212C111.662 133.116 108.791 127.757 108.315 123.075Z" fill="#252525"/>
<path d="M64.735 125.635C38.3461 107.795 1.7085 89.4143 0.692179 99.4641C-2.13668 127.428 43.3683 138.08 60.4578 139.772C61.3873 135.677 64.2587 130.318 64.735 125.635Z" fill="#252525"/>
<path d="M136.93 184.564C92.7198 251.494 32.2377 197.459 29.4746 186.1L84.4304 184.564H136.93Z" fill="#AD4800"/>
<path d="M134.38 233.817C132.442 235.395 129.924 236.057 127.467 236.554C116.493 238.794 105.189 238.787 94.2177 236.535C92.7622 236.232 91.2428 235.858 90.1518 234.854C89.0607 233.851 88.5897 232.261 88.6655 230.71C88.7071 230.004 88.8497 229.308 89.0891 228.643C89.8559 226.547 91.3895 224.847 92.8971 223.2C104.554 220.674 116.588 220.503 128.31 222.696C128.76 222.778 129.219 222.867 129.668 222.963C132.428 223.536 135.531 224.566 136.581 227.174C137.516 229.481 136.319 232.233 134.38 233.817Z" fill="#FDBA33"/>
<path opacity="0.59" d="M128.313 222.689C117.208 231.202 102.146 234.132 88.6681 230.703C88.7097 229.997 88.8524 229.3 89.0917 228.636C89.8585 226.54 91.3922 224.84 92.8997 223.193C104.557 220.667 116.59 220.496 128.313 222.689Z" fill="#E0762B"/>
<path d="M34.4946 233.817C36.4329 235.394 38.9511 236.057 41.4077 236.554C52.3816 238.793 63.6859 238.787 74.6573 236.534C76.1128 236.232 77.6322 235.857 78.7232 234.854C79.8143 233.85 80.2853 232.261 80.2095 230.71C80.1679 230.004 80.0253 229.307 79.7859 228.643C79.0191 226.547 77.4855 224.847 75.9779 223.2C64.3209 220.674 52.2875 220.502 40.5652 222.696C40.1155 222.777 39.6564 222.866 39.2067 222.962C36.4471 223.536 33.3444 224.566 32.2936 227.173C31.3588 229.481 32.5563 232.232 34.4946 233.817Z" fill="#FDBA33"/>
<path opacity="0.59" d="M40.5625 222.688C51.667 231.202 66.7286 234.131 80.2069 230.703C80.1653 229.996 80.0226 229.3 79.7833 228.635C79.0165 226.539 77.4828 224.84 75.9753 223.193C64.3182 220.666 52.2848 220.495 40.5625 222.688Z" fill="#E0762B"/>
<path d="M36.3723 164.693C48.2766 131.395 64.2598 104.687 85.9718 108.776C111.766 108.776 123.675 134.569 130.023 164.693C140.427 214.059 121.106 226.631 85.9718 226.631C57.2282 226.631 21.759 218.695 36.3723 164.693Z" fill="#3C3C3E"/>
<path d="M50.7625 170.4C58.9855 147.399 69.3848 131.144 85.0426 131.451C102.849 131.799 111.068 149.592 115.453 170.4C122.64 204.501 109.294 213.184 85.0239 213.184C65.169 213.184 40.6682 207.702 50.7625 170.4Z" fill="#FAFDFB"/>
<path d="M97.323 125.004C92.4107 126.969 81.5628 126.641 76.7529 126.232C82.2792 130.223 93.7684 132.203 94.8668 132.065C97.323 131.758 97.323 126.334 97.323 125.004Z" fill="#252525"/>
<path d="M148.432 80.7448C148.432 110.468 114.583 125.798 83.6406 125.798C52.6977 125.798 22.2822 110.468 22.2822 80.7448C22.2822 51.0221 49.0348 18.1621 83.6406 18.1621C121.214 18.1621 148.432 51.0221 148.432 80.7448Z" fill="#3C3C3E"/>
<path d="M39.8889 88.83C36.6279 28.2676 74.8718 38.7045 78.4213 52.5243C81.9708 66.3442 83.2994 88.83 83.2994 88.83L87.4234 88.83C87.4234 88.83 88.6875 58.3005 90.5453 52.5239C96.313 34.5556 133.966 37.8179 128.677 88.83C127.494 100.114 118.635 117.259 85.1824 117.259C55.0059 117.259 42.6545 105.993 39.8889 88.83Z" fill="#FAFDFB"/>
<path opacity="0.47" d="M57.1779 99.7377C52.5547 99.7377 48.8069 97.6168 48.8069 95.0007C48.8069 92.3845 52.5547 90.2637 57.1779 90.2637C61.801 90.2637 65.5488 92.3845 65.5488 95.0007C65.5488 97.6168 61.801 99.7377 57.1779 99.7377Z" fill="#F26B65"/>
<path opacity="0.47" d="M105.16 95.0354C105.16 92.42 108.909 90.2844 113.534 90.2654C118.158 90.2463 121.907 92.3511 121.907 94.9665C121.907 97.5819 118.158 99.7176 113.534 99.7366C108.909 99.7556 105.16 97.6507 105.16 95.0354Z" fill="#F26B65"/>
<path d="M75.0754 94.5828C75.17 97.5455 76.0576 99.9897 77.6456 102.415C79.2337 104.839 83.1387 106.559 85.8841 106.559C91.4907 106.559 96.262 100.585 95.5685 93.464C88.814 93.4424 81.8252 93.997 75.0754 94.5828Z" fill="#FBAC1F"/>
<path d="M77.415 95.6158C76.7286 98.3793 79.6373 104.286 84.8653 104.739C88.4934 105.054 92.912 102.098 94.1924 94.8619C88.7679 94.8547 82.8465 95.1837 77.415 95.6158Z" fill="#B53426"/>
<path d="M73.659 94.5047C74.9725 88.9394 79.8574 84.661 85.0594 84.5169C90.2613 84.3729 95.3379 88.3944 97.0537 94.0197C90.2211 98.531 81.4004 99.1456 73.659 94.5047Z" fill="#FDBA33"/>
<path d="M64.2786 84.513C61.8814 84.513 59.9381 82.5416 59.9381 80.1098C59.9381 77.6779 61.8814 75.7065 64.2786 75.7065C66.6758 75.7065 68.6191 77.6779 68.6191 80.1098C68.6191 82.5416 66.6758 84.513 64.2786 84.513Z" fill="#3C3C3E"/>
<path d="M103.997 84.5131C101.6 84.5131 99.6569 82.5417 99.6569 80.1098C99.6569 77.6779 101.6 75.7065 103.997 75.7065C106.395 75.7065 108.338 77.6779 108.338 80.1098C108.338 82.5417 106.395 84.5131 103.997 84.5131Z" fill="#3C3C3E"/>
<path d="M29.4746 186.1C31.6237 168.907 45.123 130.697 58.3341 121.933C63.9832 124.144 69.6213 125.533 72.6914 125.533C72.9984 130.957 76.0796 134.46 85.6584 134.214C95.2373 133.968 97.0503 130.752 97.0503 125.533C100.735 125.226 108.787 122.343 112.062 121.319C123.114 131.451 136.389 171.924 136.93 184.564C105.737 195.126 50.761 190.5 29.4746 186.1Z" fill="#FF6200"/>
<path d="M65.7096 175.195H64.3723V177.878H63.7655V175.195H62.4258V174.601H65.7096V175.195Z" fill="white"/>
<path d="M69.4602 177.579C69.4602 177.621 69.4524 177.661 69.4369 177.697C69.4213 177.734 69.3995 177.766 69.3715 177.793C69.3451 177.819 69.3132 177.84 69.2758 177.855C69.2385 177.87 69.198 177.878 69.1545 177.878H66.9653C66.9092 177.878 66.8486 177.872 66.7832 177.86C66.7194 177.846 66.6556 177.825 66.5918 177.798C66.5296 177.771 66.4697 177.736 66.4121 177.693C66.3545 177.649 66.3032 177.596 66.2581 177.535C66.2145 177.473 66.1795 177.401 66.1531 177.32C66.1266 177.238 66.1134 177.146 66.1134 177.044V175.435C66.1134 175.381 66.1196 175.322 66.132 175.259C66.1461 175.195 66.1671 175.133 66.1951 175.072C66.2231 175.01 66.2596 174.95 66.3048 174.894C66.3499 174.837 66.4036 174.788 66.4658 174.745C66.5296 174.701 66.6027 174.666 66.6852 174.64C66.7677 174.614 66.861 174.601 66.9653 174.601H69.4322V175.195H66.9653C66.8859 175.195 66.8252 175.216 66.7832 175.257C66.7412 175.298 66.7202 175.359 66.7202 175.44V177.044C66.7202 177.12 66.7412 177.18 66.7832 177.222C66.8268 177.263 66.8875 177.284 66.9653 177.284H68.8534V176.539H67.2383V175.94H69.1545C69.198 175.94 69.2385 175.949 69.2758 175.965C69.3132 175.981 69.3451 176.002 69.3715 176.029C69.3995 176.057 69.4213 176.089 69.4369 176.125C69.4524 176.16 69.4602 176.199 69.4602 176.24V177.579Z" fill="white"/>
<path d="M73.1665 177.878H70.3985C70.3549 177.878 70.3144 177.87 70.2771 177.855C70.2397 177.84 70.2071 177.819 70.1791 177.793C70.1526 177.766 70.1316 177.734 70.116 177.697C70.1005 177.661 70.0927 177.621 70.0927 177.579V174.601H70.6995V177.284H73.1665V177.878Z" fill="white"/>
<path d="M78.3315 176.914C78.3315 177.031 78.3159 177.137 78.2848 177.231C78.2552 177.324 78.2155 177.407 78.1657 177.478C78.116 177.55 78.0576 177.611 77.9907 177.661C77.9238 177.711 77.8546 177.752 77.783 177.784C77.7114 177.816 77.6383 177.84 77.5636 177.855C77.4905 177.87 77.4212 177.878 77.3559 177.878H75.0149V177.284H77.3559C77.4726 177.284 77.5628 177.25 77.6266 177.183C77.692 177.116 77.7246 177.026 77.7246 176.914C77.7246 176.859 77.7161 176.809 77.699 176.763C77.6818 176.717 77.6569 176.678 77.6243 176.644C77.5932 176.611 77.5543 176.585 77.5076 176.566C77.4625 176.548 77.4119 176.539 77.3559 176.539H75.9602C75.8622 176.539 75.7564 176.522 75.6428 176.489C75.5292 176.454 75.4234 176.398 75.3254 176.322C75.2289 176.246 75.148 176.146 75.0826 176.023C75.0188 175.899 74.9869 175.748 74.9869 175.57C74.9869 175.392 75.0188 175.242 75.0826 175.12C75.148 174.997 75.2289 174.897 75.3254 174.821C75.4234 174.743 75.5292 174.687 75.6428 174.654C75.7564 174.619 75.8622 174.601 75.9602 174.601H78.0257V175.195H75.9602C75.845 175.195 75.7548 175.23 75.6895 175.298C75.6257 175.367 75.5938 175.457 75.5938 175.57C75.5938 175.684 75.6257 175.775 75.6895 175.842C75.7548 175.908 75.845 175.94 75.9602 175.94H77.3559H77.3605C77.4259 175.942 77.4951 175.951 77.5683 175.968C77.6414 175.983 77.7137 176.007 77.7853 176.041C77.8584 176.074 77.9277 176.117 77.993 176.169C78.0584 176.219 78.116 176.28 78.1657 176.352C78.2171 176.423 78.2575 176.505 78.2871 176.598C78.3167 176.691 78.3315 176.796 78.3315 176.914Z" fill="white"/>
<path d="M82.3481 176.553C82.3481 176.752 82.3131 176.936 82.2431 177.103C82.1731 177.271 82.0758 177.416 81.9514 177.538C81.8269 177.659 81.6791 177.755 81.5079 177.823C81.3383 177.89 81.1532 177.924 80.9524 177.924H80.1309C79.9302 177.924 79.7443 177.89 79.5731 177.823C79.4019 177.755 79.2541 177.659 79.1297 177.538C79.0052 177.416 78.9072 177.271 78.8356 177.103C78.7656 176.936 78.7306 176.752 78.7306 176.553V175.927C78.7306 175.729 78.7656 175.546 78.8356 175.378C78.9072 175.209 79.0052 175.064 79.1297 174.944C79.2541 174.822 79.4019 174.727 79.5731 174.658C79.7443 174.59 79.9302 174.556 80.1309 174.556H80.9524C81.1532 174.556 81.3383 174.59 81.5079 174.658C81.6791 174.727 81.8269 174.822 81.9514 174.944C82.0758 175.064 82.1731 175.209 82.2431 175.378C82.3131 175.546 82.3481 175.729 82.3481 175.927V176.553ZM81.7413 175.927C81.7413 175.809 81.7219 175.703 81.683 175.609C81.6456 175.513 81.5919 175.432 81.5219 175.365C81.4535 175.296 81.3702 175.243 81.2722 175.207C81.1757 175.169 81.0691 175.15 80.9524 175.15H80.1309C80.0127 175.15 79.9045 175.169 79.8065 175.207C79.71 175.243 79.6268 175.296 79.5568 175.365C79.4867 175.432 79.4323 175.513 79.3934 175.609C79.356 175.703 79.3374 175.809 79.3374 175.927V176.553C79.3374 176.67 79.356 176.777 79.3934 176.873C79.4323 176.967 79.4867 177.049 79.5568 177.117C79.6268 177.184 79.71 177.237 79.8065 177.275C79.9045 177.311 80.0127 177.33 80.1309 177.33H80.9478C81.066 177.33 81.1734 177.311 81.2699 177.275C81.3679 177.237 81.4519 177.184 81.5219 177.117C81.5919 177.049 81.6456 176.967 81.683 176.873C81.7219 176.777 81.7413 176.67 81.7413 176.553V175.927Z" fill="white"/>
<path d="M86.0217 177.878H83.2537C83.2101 177.878 83.1697 177.87 83.1323 177.855C83.095 177.84 83.0623 177.819 83.0343 177.793C83.0079 177.766 82.9868 177.734 82.9713 177.697C82.9557 177.661 82.9479 177.621 82.9479 177.579V174.601H83.5548V177.284H86.0217V177.878Z" fill="white"/>
<path d="M89.5693 177.579C89.5693 177.621 89.5615 177.661 89.5459 177.697C89.5304 177.734 89.5086 177.766 89.4806 177.793C89.4526 177.819 89.4199 177.84 89.3826 177.855C89.3452 177.87 89.3055 177.878 89.2635 177.878H87.8959C87.7667 177.878 87.636 177.864 87.5038 177.837C87.3715 177.809 87.2431 177.768 87.1187 177.711C86.9957 177.653 86.8798 177.58 86.7709 177.492C86.662 177.403 86.5663 177.299 86.4838 177.179C86.4029 177.057 86.3391 176.918 86.2925 176.763C86.2458 176.606 86.2224 176.432 86.2224 176.24V174.601H86.8293V176.24C86.8293 176.407 86.8526 176.549 86.8993 176.665C86.9475 176.78 87.0082 176.877 87.0813 176.955C87.1544 177.033 87.2346 177.093 87.3217 177.138C87.4088 177.182 87.4913 177.215 87.5691 177.236C87.6485 177.257 87.7177 177.271 87.7768 177.277C87.8375 177.282 87.8772 177.284 87.8959 177.284H88.9625V174.601H89.5693V177.579Z" fill="white"/>
<path d="M93.3012 175.195H91.9639V177.878H91.3571V175.195H90.0174V174.601H93.3012V175.195Z" fill="white"/>
<path d="M94.3608 177.878H93.754V174.601H94.3608V177.878Z" fill="white"/>
<path d="M98.5829 176.553C98.5829 176.752 98.5479 176.936 98.4779 177.103C98.4078 177.271 98.3106 177.416 98.1861 177.538C98.0616 177.659 97.9138 177.755 97.7427 177.823C97.5731 177.89 97.3879 177.924 97.1872 177.924H96.3657C96.1649 177.924 95.979 177.89 95.8078 177.823C95.6367 177.755 95.4889 177.659 95.3644 177.538C95.2399 177.416 95.1419 177.271 95.0703 177.103C95.0003 176.936 94.9653 176.752 94.9653 176.553V175.927C94.9653 175.729 95.0003 175.546 95.0703 175.378C95.1419 175.209 95.2399 175.064 95.3644 174.944C95.4889 174.822 95.6367 174.727 95.8078 174.658C95.979 174.59 96.1649 174.556 96.3657 174.556H97.1872C97.3879 174.556 97.5731 174.59 97.7427 174.658C97.9138 174.727 98.0616 174.822 98.1861 174.944C98.3106 175.064 98.4078 175.209 98.4779 175.378C98.5479 175.546 98.5829 175.729 98.5829 175.927V176.553ZM97.9761 175.927C97.9761 175.809 97.9566 175.703 97.9177 175.609C97.8804 175.513 97.8267 175.432 97.7567 175.365C97.6882 175.296 97.605 175.243 97.5069 175.207C97.4105 175.169 97.3039 175.15 97.1872 175.15H96.3657C96.2474 175.15 96.1393 175.169 96.0412 175.207C95.9448 175.243 95.8615 175.296 95.7915 175.365C95.7215 175.432 95.667 175.513 95.6281 175.609C95.5908 175.703 95.5721 175.809 95.5721 175.927V176.553C95.5721 176.67 95.5908 176.777 95.6281 176.873C95.667 176.967 95.7215 177.049 95.7915 177.117C95.8615 177.184 95.9448 177.237 96.0412 177.275C96.1393 177.311 96.2474 177.33 96.3657 177.33H97.1825C97.3008 177.33 97.4081 177.311 97.5046 177.275C97.6026 177.237 97.6867 177.184 97.7567 177.117C97.8267 177.049 97.8804 176.967 97.9177 176.873C97.9566 176.777 97.9761 176.67 97.9761 176.553V175.927Z" fill="white"/>
<path d="M102.527 177.624C102.527 177.667 102.519 177.707 102.502 177.743C102.486 177.78 102.464 177.812 102.436 177.839C102.41 177.865 102.378 177.886 102.34 177.901C102.303 177.916 102.263 177.924 102.221 177.924C102.184 177.924 102.146 177.917 102.107 177.903C102.07 177.889 102.036 177.867 102.007 177.837L99.7895 175.57V177.878H99.1827V174.855C99.1827 174.794 99.1998 174.739 99.234 174.69C99.2698 174.64 99.315 174.603 99.3694 174.579C99.427 174.556 99.4861 174.55 99.5468 174.563C99.6075 174.573 99.6596 174.601 99.7032 174.645L101.92 176.909V174.601H102.527V177.624Z" fill="white"/>
<path d="M106.451 176.914C106.451 177.031 106.435 177.137 106.404 177.231C106.374 177.324 106.335 177.407 106.285 177.478C106.235 177.55 106.177 177.611 106.11 177.661C106.043 177.711 105.974 177.752 105.902 177.784C105.83 177.816 105.757 177.84 105.683 177.855C105.61 177.87 105.54 177.878 105.475 177.878H103.134V177.284H105.475C105.592 177.284 105.682 177.25 105.746 177.183C105.811 177.116 105.844 177.026 105.844 176.914C105.844 176.859 105.835 176.809 105.818 176.763C105.801 176.717 105.776 176.678 105.743 176.644C105.712 176.611 105.673 176.585 105.627 176.566C105.582 176.548 105.531 176.539 105.475 176.539H104.079C103.981 176.539 103.875 176.522 103.762 176.489C103.648 176.454 103.542 176.398 103.444 176.322C103.348 176.246 103.267 176.146 103.202 176.023C103.138 175.899 103.106 175.748 103.106 175.57C103.106 175.392 103.138 175.242 103.202 175.12C103.267 174.997 103.348 174.897 103.444 174.821C103.542 174.743 103.648 174.687 103.762 174.654C103.875 174.619 103.981 174.601 104.079 174.601H106.145V175.195H104.079C103.964 175.195 103.874 175.23 103.809 175.298C103.745 175.367 103.713 175.457 103.713 175.57C103.713 175.684 103.745 175.775 103.809 175.842C103.874 175.908 103.964 175.94 104.079 175.94H105.475H105.48C105.545 175.942 105.614 175.951 105.687 175.968C105.76 175.983 105.833 176.007 105.904 176.041C105.978 176.074 106.047 176.117 106.112 176.169C106.177 176.219 106.235 176.28 106.285 176.352C106.336 176.423 106.377 176.505 106.406 176.598C106.436 176.691 106.451 176.796 106.451 176.914Z" fill="white"/>
<path d="M64.9886 182.123C64.8158 182.123 64.6485 182.097 64.4867 182.044C64.327 181.989 64.2012 181.919 64.1094 181.834L64.2308 181.577C64.3182 181.656 64.4298 181.721 64.5654 181.771C64.7032 181.82 64.8442 181.844 64.9886 181.844C65.1789 181.844 65.321 181.812 65.4151 181.748C65.5091 181.683 65.5561 181.596 65.5561 181.488C65.5561 181.41 65.5299 181.346 65.4774 181.298C65.4271 181.247 65.3637 181.209 65.2871 181.183C65.2128 181.156 65.1067 181.127 64.9689 181.094C64.7961 181.052 64.6562 181.011 64.549 180.969C64.444 180.927 64.3532 180.864 64.2767 180.778C64.2023 180.69 64.1651 180.573 64.1651 180.426C64.1651 180.304 64.1969 180.193 64.2603 180.094C64.3259 179.995 64.4243 179.917 64.5555 179.857C64.6868 179.798 64.8497 179.769 65.0444 179.769C65.18 179.769 65.3134 179.786 65.4446 179.821C65.5758 179.856 65.6885 179.907 65.7825 179.972L65.6743 180.236C65.578 180.174 65.4752 180.128 65.3659 180.097C65.2565 180.065 65.1493 180.048 65.0444 180.048C64.8585 180.048 64.7185 180.082 64.6244 180.15C64.5326 180.218 64.4867 180.306 64.4867 180.413C64.4867 180.492 64.5129 180.557 64.5654 180.607C64.6179 180.655 64.6824 180.694 64.7589 180.722C64.8377 180.749 64.9438 180.777 65.0772 180.808C65.25 180.849 65.3888 180.891 65.4938 180.933C65.5988 180.974 65.6885 181.038 65.7628 181.123C65.8394 181.209 65.8777 181.324 65.8777 181.469C65.8777 181.589 65.8448 181.7 65.7792 181.801C65.7136 181.9 65.6141 181.978 65.4807 182.038C65.3473 182.095 65.1832 182.123 64.9886 182.123Z" fill="white"/>
<path d="M68.4861 180.337C68.7048 180.337 68.8776 180.401 69.0044 180.528C69.1335 180.655 69.198 180.844 69.198 181.094V182.097H68.8831V181.13C68.8831 180.961 68.8437 180.834 68.7649 180.749C68.6884 180.663 68.578 180.62 68.4336 180.62C68.2739 180.62 68.1471 180.671 68.053 180.772C67.959 180.87 67.912 181.013 67.912 181.199V182.097H67.597V181.13C67.597 180.961 67.5577 180.834 67.4789 180.749C67.4024 180.663 67.2919 180.62 67.1476 180.62C66.9879 180.62 66.8611 180.671 66.767 180.772C66.673 180.87 66.626 181.013 66.626 181.199V182.097H66.311V180.354H66.6128V180.614C66.6763 180.524 66.7594 180.456 66.8622 180.41C66.965 180.362 67.082 180.337 67.2132 180.337C67.3488 180.337 67.4691 180.365 67.5741 180.42C67.679 180.475 67.76 180.555 67.8168 180.66C67.8824 180.559 67.9732 180.48 68.0891 180.423C68.2072 180.366 68.3396 180.337 68.4861 180.337Z" fill="white"/>
<path d="M70.4107 180.337C70.6512 180.337 70.835 180.397 70.9618 180.515C71.0909 180.633 71.1554 180.81 71.1554 181.045V182.097H70.8568V181.867C70.8043 181.948 70.7289 182.01 70.6305 182.054C70.5342 182.096 70.4194 182.117 70.286 182.117C70.0913 182.117 69.935 182.069 69.8169 181.975C69.7009 181.881 69.643 181.757 69.643 181.604C69.643 181.45 69.6988 181.327 69.8103 181.235C69.9218 181.141 70.099 181.094 70.3418 181.094H70.8404V181.031C70.8404 180.895 70.8011 180.791 70.7223 180.719C70.6436 180.647 70.5277 180.61 70.3746 180.61C70.2718 180.61 70.1712 180.628 70.0728 180.663C69.9743 180.696 69.8912 180.741 69.8234 180.798L69.6922 180.561C69.7819 180.489 69.889 180.434 70.0137 180.397C70.1384 180.357 70.2707 180.337 70.4107 180.337ZM70.3385 181.873C70.4588 181.873 70.5627 181.847 70.6502 181.794C70.7376 181.74 70.8011 181.663 70.8404 181.564V181.321H70.3549C70.0881 181.321 69.9547 181.411 69.9547 181.59C69.9547 181.678 69.9886 181.747 70.0564 181.798C70.1242 181.848 70.2182 181.873 70.3385 181.873Z" fill="white"/>
<path d="M72.04 180.647C72.0947 180.546 72.1756 180.469 72.2828 180.416C72.39 180.364 72.5201 180.337 72.6732 180.337V180.643C72.6557 180.641 72.6316 180.64 72.601 180.64C72.4304 180.64 72.2959 180.692 72.1975 180.795C72.1013 180.895 72.0531 181.04 72.0531 181.229V182.097H71.7382V180.354H72.04V180.647Z" fill="white"/>
<path d="M74.1095 181.995C74.0636 182.034 74.0067 182.065 73.9389 182.087C73.8711 182.107 73.8011 182.117 73.7289 182.117C73.554 182.117 73.4184 182.069 73.3221 181.975C73.2259 181.881 73.1778 181.746 73.1778 181.571V180.614H72.8825V180.354H73.1778V179.972H73.4927V180.354H73.9914V180.614H73.4927V181.558C73.4927 181.652 73.5157 181.724 73.5616 181.775C73.6097 181.825 73.6775 181.85 73.765 181.85C73.8612 181.85 73.9433 181.823 74.0111 181.768L74.1095 181.995Z" fill="white"/>
<path d="M77.0969 182.133L76.7918 181.827C76.5884 182.025 76.3325 182.123 76.0241 182.123C75.871 182.123 75.7333 182.098 75.6108 182.048C75.4883 181.997 75.3921 181.927 75.3221 181.837C75.2543 181.745 75.2204 181.641 75.2204 181.525C75.2204 181.384 75.263 181.26 75.3483 181.153C75.4358 181.043 75.5791 180.932 75.7781 180.818C75.6775 180.717 75.6064 180.626 75.5648 180.545C75.5233 180.464 75.5025 180.379 75.5025 180.291C75.5025 180.136 75.5583 180.011 75.6698 179.917C75.7836 179.822 75.9345 179.775 76.1226 179.775C76.2975 179.775 76.4364 179.818 76.5392 179.903C76.642 179.989 76.6934 180.106 76.6934 180.255C76.6934 180.371 76.6551 180.476 76.5786 180.568C76.5042 180.66 76.3795 180.756 76.2046 180.857L76.7721 181.423C76.8377 181.298 76.8848 181.159 76.9132 181.005L77.1658 181.087C77.1264 181.289 77.0597 181.464 76.9657 181.613L77.2741 181.923L77.0969 182.133ZM76.1226 180.005C76.0198 180.005 75.9388 180.032 75.8798 180.084C75.8229 180.135 75.7945 180.202 75.7945 180.285C75.7945 180.344 75.8098 180.401 75.8404 180.456C75.8732 180.511 75.9356 180.585 76.0274 180.679C76.1783 180.594 76.2822 180.521 76.3391 180.459C76.3981 180.398 76.4277 180.331 76.4277 180.259C76.4277 180.182 76.4003 180.12 76.3456 180.074C76.2932 180.028 76.2188 180.005 76.1226 180.005ZM76.0438 181.86C76.2713 181.86 76.4583 181.788 76.6048 181.643L75.952 180.992C75.7945 181.08 75.684 181.162 75.6206 181.239C75.5594 181.313 75.5288 181.398 75.5288 181.492C75.5288 181.601 75.5758 181.69 75.6698 181.758C75.7661 181.826 75.8907 181.86 76.0438 181.86Z" fill="white"/>
<path d="M79.2166 182.123C79.0438 182.123 78.8765 182.097 78.7146 182.044C78.555 181.989 78.4292 181.919 78.3373 181.834L78.4587 181.577C78.5462 181.656 78.6578 181.721 78.7934 181.771C78.9311 181.82 79.0722 181.844 79.2166 181.844C79.4068 181.844 79.549 181.812 79.6431 181.748C79.7371 181.683 79.7841 181.596 79.7841 181.488C79.7841 181.41 79.7579 181.346 79.7054 181.298C79.6551 181.247 79.5917 181.209 79.5151 181.183C79.4407 181.156 79.3347 181.127 79.1969 181.094C79.0241 181.052 78.8841 181.011 78.777 180.969C78.672 180.927 78.5812 180.864 78.5047 180.778C78.4303 180.69 78.3931 180.573 78.3931 180.426C78.3931 180.304 78.4248 180.193 78.4883 180.094C78.5539 179.995 78.6523 179.917 78.7835 179.857C78.9147 179.798 79.0777 179.769 79.2723 179.769C79.4079 179.769 79.5413 179.786 79.6726 179.821C79.8038 179.856 79.9164 179.907 80.0105 179.972L79.9022 180.236C79.806 180.174 79.7032 180.128 79.5938 180.097C79.4845 180.065 79.3773 180.048 79.2723 180.048C79.0864 180.048 78.9465 180.082 78.8524 180.15C78.7605 180.218 78.7146 180.306 78.7146 180.413C78.7146 180.492 78.7409 180.557 78.7934 180.607C78.8458 180.655 78.9104 180.694 78.9869 180.722C79.0657 180.749 79.1717 180.777 79.3051 180.808C79.4779 180.849 79.6168 180.891 79.7218 180.933C79.8268 180.974 79.9164 181.038 79.9908 181.123C80.0673 181.209 80.1056 181.324 80.1056 181.469C80.1056 181.589 80.0728 181.7 80.0072 181.801C79.9416 181.9 79.8421 181.978 79.7087 182.038C79.5752 182.095 79.4112 182.123 79.2166 182.123Z" fill="white"/>
<path d="M81.4608 180.337C81.6293 180.337 81.7802 180.375 81.9136 180.449C82.047 180.524 82.1509 180.628 82.2252 180.762C82.3018 180.895 82.3401 181.05 82.3401 181.225C82.3401 181.401 82.3018 181.556 82.2252 181.692C82.1509 181.826 82.047 181.93 81.9136 182.005C81.7802 182.079 81.6293 182.117 81.4608 182.117C81.3362 182.117 81.2214 182.092 81.1164 182.044C81.0136 181.996 80.9261 181.926 80.8539 181.834V182.735H80.539V180.354H80.8408V180.63C80.9108 180.534 80.9994 180.461 81.1065 180.413C81.2137 180.363 81.3318 180.337 81.4608 180.337ZM81.4346 181.84C81.5461 181.84 81.6457 181.815 81.7331 181.765C81.8228 181.712 81.8928 181.64 81.9431 181.548C81.9956 181.453 82.0218 181.346 82.0218 181.225C82.0218 181.105 81.9956 180.998 81.9431 180.906C81.8928 180.812 81.8228 180.74 81.7331 180.689C81.6457 180.639 81.5461 180.614 81.4346 180.614C81.3252 180.614 81.2257 180.64 81.1361 180.693C81.0486 180.743 80.9786 180.814 80.9261 180.906C80.8758 180.998 80.8506 181.105 80.8506 181.225C80.8506 181.346 80.8758 181.453 80.9261 181.548C80.9764 181.64 81.0464 181.712 81.1361 181.765C81.2257 181.815 81.3252 181.84 81.4346 181.84Z" fill="white"/>
<path d="M84.3467 181.235C84.3467 181.259 84.3445 181.291 84.3401 181.331H82.9294C82.9491 181.484 83.0158 181.608 83.1295 181.702C83.2454 181.794 83.3887 181.84 83.5593 181.84C83.7671 181.84 83.9344 181.77 84.0612 181.63L84.2351 181.834C84.1564 181.926 84.058 181.996 83.9399 182.044C83.8239 182.092 83.6938 182.117 83.5495 182.117C83.3657 182.117 83.2028 182.079 83.0606 182.005C82.9185 181.928 82.808 181.822 82.7293 181.686C82.6527 181.55 82.6145 181.396 82.6145 181.225C82.6145 181.057 82.6516 180.904 82.726 180.768C82.8026 180.632 82.9064 180.527 83.0377 180.453C83.1711 180.376 83.3209 180.337 83.4871 180.337C83.6533 180.337 83.801 180.376 83.93 180.453C84.0612 180.527 84.1629 180.632 84.2351 180.768C84.3095 180.904 84.3467 181.06 84.3467 181.235ZM83.4871 180.604C83.3362 180.604 83.2094 180.65 83.1066 180.742C83.006 180.834 82.9469 180.955 82.9294 181.104H84.0448C84.0273 180.957 83.9672 180.837 83.8644 180.745C83.7638 180.651 83.638 180.604 83.4871 180.604Z" fill="white"/>
<path d="M86.3554 181.235C86.3554 181.259 86.3532 181.291 86.3489 181.331H84.9382C84.9579 181.484 85.0246 181.608 85.1383 181.702C85.2542 181.794 85.3975 181.84 85.5681 181.84C85.7758 181.84 85.9432 181.77 86.07 181.63L86.2439 181.834C86.1651 181.926 86.0667 181.996 85.9486 182.044C85.8327 182.092 85.7026 182.117 85.5582 182.117C85.3745 182.117 85.2116 182.079 85.0694 182.005C84.9272 181.928 84.8168 181.822 84.7381 181.686C84.6615 181.55 84.6232 181.396 84.6232 181.225C84.6232 181.057 84.6604 180.904 84.7348 180.768C84.8113 180.632 84.9152 180.527 85.0464 180.453C85.1798 180.376 85.3297 180.337 85.4959 180.337C85.6621 180.337 85.8097 180.376 85.9388 180.453C86.07 180.527 86.1717 180.632 86.2439 180.768C86.3182 180.904 86.3554 181.06 86.3554 181.235ZM85.4959 180.604C85.345 180.604 85.2181 180.65 85.1153 180.742C85.0147 180.834 84.9557 180.955 84.9382 181.104H86.0536C86.0361 180.957 85.976 180.837 85.8732 180.745C85.7726 180.651 85.6468 180.604 85.4959 180.604Z" fill="white"/>
<path d="M88.4331 179.657V182.097H88.1313V181.821C88.0613 181.917 87.9727 181.991 87.8655 182.041C87.7584 182.091 87.6403 182.117 87.5112 182.117C87.3428 182.117 87.1919 182.079 87.0585 182.005C86.9251 181.93 86.8201 181.826 86.7435 181.692C86.6692 181.556 86.632 181.401 86.632 181.225C86.632 181.05 86.6692 180.895 86.7435 180.762C86.8201 180.628 86.9251 180.524 87.0585 180.449C87.1919 180.375 87.3428 180.337 87.5112 180.337C87.6359 180.337 87.7507 180.362 87.8557 180.41C87.9607 180.456 88.0482 180.525 88.1181 180.617V179.657H88.4331ZM87.5375 181.84C87.6468 181.84 87.7463 181.815 87.836 181.765C87.9257 181.712 87.9957 181.64 88.046 181.548C88.0963 181.453 88.1214 181.346 88.1214 181.225C88.1214 181.105 88.0963 180.998 88.046 180.906C87.9957 180.812 87.9257 180.74 87.836 180.689C87.7463 180.639 87.6468 180.614 87.5375 180.614C87.4259 180.614 87.3253 180.639 87.2356 180.689C87.1482 180.74 87.0782 180.812 87.0257 180.906C86.9754 180.998 86.9502 181.105 86.9502 181.225C86.9502 181.346 86.9754 181.453 87.0257 181.548C87.0782 181.64 87.1482 181.712 87.2356 181.765C87.3253 181.815 87.4259 181.84 87.5375 181.84Z" fill="white"/>
<path d="M90.6252 182.123C90.4524 182.123 90.2851 182.097 90.1233 182.044C89.9636 181.989 89.8378 181.919 89.746 181.834L89.8674 181.577C89.9549 181.656 90.0664 181.721 90.202 181.771C90.3398 181.82 90.4809 181.844 90.6252 181.844C90.8155 181.844 90.9577 181.812 91.0517 181.748C91.1457 181.683 91.1928 181.596 91.1928 181.488C91.1928 181.41 91.1665 181.346 91.114 181.298C91.0637 181.247 91.0003 181.209 90.9237 181.183C90.8494 181.156 90.7433 181.127 90.6055 181.094C90.4327 181.052 90.2928 181.011 90.1856 180.969C90.0806 180.927 89.9899 180.864 89.9133 180.778C89.8389 180.69 89.8018 180.573 89.8018 180.426C89.8018 180.304 89.8335 180.193 89.8969 180.094C89.9625 179.995 90.0609 179.917 90.1922 179.857C90.3234 179.798 90.4863 179.769 90.681 179.769C90.8166 179.769 90.95 179.786 91.0812 179.821C91.2124 179.856 91.3251 179.907 91.4191 179.972L91.3109 180.236C91.2146 180.174 91.1118 180.128 91.0025 180.097C90.8931 180.065 90.786 180.048 90.681 180.048C90.4951 180.048 90.3551 180.082 90.2611 180.15C90.1692 180.218 90.1233 180.306 90.1233 180.413C90.1233 180.492 90.1495 180.557 90.202 180.607C90.2545 180.655 90.319 180.694 90.3956 180.722C90.4743 180.749 90.5804 180.777 90.7138 180.808C90.8866 180.849 91.0254 180.891 91.1304 180.933C91.2354 180.974 91.3251 181.038 91.3994 181.123C91.476 181.209 91.5143 181.324 91.5143 181.469C91.5143 181.589 91.4815 181.7 91.4158 181.801C91.3502 181.9 91.2507 181.978 91.1173 182.038C90.9839 182.095 90.8199 182.123 90.6252 182.123Z" fill="white"/>
<path d="M92.6923 182.117C92.5196 182.117 92.3643 182.078 92.2265 182.002C92.0887 181.925 91.9804 181.82 91.9017 181.686C91.8251 181.55 91.7869 181.396 91.7869 181.225C91.7869 181.054 91.8251 180.902 91.9017 180.768C91.9804 180.632 92.0887 180.527 92.2265 180.453C92.3643 180.376 92.5196 180.337 92.6923 180.337C92.8651 180.337 93.0193 180.376 93.1549 180.453C93.2927 180.527 93.3999 180.632 93.4764 180.768C93.5552 180.902 93.5945 181.054 93.5945 181.225C93.5945 181.396 93.5552 181.55 93.4764 181.686C93.3999 181.82 93.2927 181.925 93.1549 182.002C93.0193 182.078 92.8651 182.117 92.6923 182.117ZM92.6923 181.84C92.8039 181.84 92.9034 181.815 92.9909 181.765C93.0805 181.712 93.1505 181.64 93.2008 181.548C93.2511 181.453 93.2763 181.346 93.2763 181.225C93.2763 181.105 93.2511 180.998 93.2008 180.906C93.1505 180.812 93.0805 180.74 92.9909 180.689C92.9034 180.639 92.8039 180.614 92.6923 180.614C92.5808 180.614 92.4802 180.639 92.3905 180.689C92.303 180.74 92.233 180.812 92.1806 180.906C92.1302 180.998 92.1051 181.105 92.1051 181.225C92.1051 181.346 92.1302 181.453 92.1806 181.548C92.233 181.64 92.303 181.712 92.3905 181.765C92.4802 181.815 92.5808 181.84 92.6923 181.84Z" fill="white"/>
<path d="M94.0301 179.657H94.345V182.097H94.0301V179.657Z" fill="white"/>
<path d="M96.567 180.354V182.097H96.2685V181.834C96.205 181.924 96.1208 181.994 96.0159 182.044C95.9131 182.092 95.8004 182.117 95.6779 182.117C95.4461 182.117 95.2635 182.053 95.1301 181.926C94.9967 181.797 94.93 181.607 94.93 181.357V180.354H95.2449V181.321C95.2449 181.49 95.2854 181.618 95.3663 181.706C95.4472 181.791 95.5631 181.834 95.714 181.834C95.8803 181.834 96.0115 181.783 96.1077 181.683C96.2039 181.582 96.2521 181.439 96.2521 181.255V180.354H96.567Z" fill="white"/>
<path d="M98.1442 181.995C98.0983 182.034 98.0414 182.065 97.9736 182.087C97.9058 182.107 97.8358 182.117 97.7637 182.117C97.5887 182.117 97.4531 182.069 97.3569 181.975C97.2606 181.881 97.2125 181.746 97.2125 181.571V180.614H96.9172V180.354H97.2125V179.972H97.5274V180.354H98.0261V180.614H97.5274V181.558C97.5274 181.652 97.5504 181.724 97.5963 181.775C97.6445 181.825 97.7123 181.85 97.7997 181.85C97.896 181.85 97.978 181.823 98.0458 181.768L98.1442 181.995Z" fill="white"/>
<path d="M98.525 180.354H98.8399V182.097H98.525V180.354ZM98.6824 180.018C98.6212 180.018 98.5698 179.999 98.5283 179.959C98.4889 179.92 98.4692 179.872 98.4692 179.815C98.4692 179.758 98.4889 179.709 98.5283 179.67C98.5698 179.628 98.6212 179.607 98.6824 179.607C98.7437 179.607 98.794 179.627 98.8334 179.667C98.8749 179.704 98.8957 179.751 98.8957 179.808C98.8957 179.867 98.8749 179.918 98.8334 179.959C98.794 179.999 98.7437 180.018 98.6824 180.018Z" fill="white"/>
<path d="M100.186 182.117C100.013 182.117 99.8579 182.078 99.7201 182.002C99.5823 181.925 99.4741 181.82 99.3953 181.686C99.3188 181.55 99.2805 181.396 99.2805 181.225C99.2805 181.054 99.3188 180.902 99.3953 180.768C99.4741 180.632 99.5823 180.527 99.7201 180.453C99.8579 180.376 100.013 180.337 100.186 180.337C100.359 180.337 100.513 180.376 100.649 180.453C100.786 180.527 100.893 180.632 100.97 180.768C101.049 180.902 101.088 181.054 101.088 181.225C101.088 181.396 101.049 181.55 100.97 181.686C100.893 181.82 100.786 181.925 100.649 182.002C100.513 182.078 100.359 182.117 100.186 182.117ZM100.186 181.84C100.298 181.84 100.397 181.815 100.485 181.765C100.574 181.712 100.644 181.64 100.694 181.548C100.745 181.453 100.77 181.346 100.77 181.225C100.77 181.105 100.745 180.998 100.694 180.906C100.644 180.812 100.574 180.74 100.485 180.689C100.397 180.639 100.298 180.614 100.186 180.614C100.074 180.614 99.9738 180.639 99.8841 180.689C99.7967 180.74 99.7267 180.812 99.6742 180.906C99.6239 180.998 99.5987 181.105 99.5987 181.225C99.5987 181.346 99.6239 181.453 99.6742 181.548C99.7267 181.64 99.7967 181.712 99.8841 181.765C99.9738 181.815 100.074 181.84 100.186 181.84Z" fill="white"/>
<path d="M102.452 180.337C102.673 180.337 102.848 180.402 102.977 180.532C103.108 180.659 103.174 180.846 103.174 181.094V182.097H102.859V181.13C102.859 180.961 102.818 180.834 102.738 180.749C102.657 180.663 102.541 180.62 102.39 180.62C102.219 180.62 102.085 180.671 101.986 180.772C101.888 180.87 101.839 181.013 101.839 181.199V182.097H101.524V180.354H101.826V180.617C101.889 180.527 101.974 180.458 102.081 180.41C102.191 180.362 102.314 180.337 102.452 180.337Z" fill="white"/>
<path d="M104.255 182.117C104.113 182.117 103.977 182.098 103.845 182.061C103.714 182.021 103.611 181.972 103.537 181.913L103.668 181.663C103.745 181.718 103.838 181.761 103.947 181.794C104.056 181.827 104.167 181.844 104.278 181.844C104.554 181.844 104.692 181.765 104.692 181.607C104.692 181.554 104.673 181.513 104.636 181.482C104.599 181.451 104.552 181.429 104.495 181.416C104.44 181.401 104.361 181.384 104.259 181.367C104.119 181.345 104.004 181.32 103.914 181.291C103.827 181.263 103.751 181.214 103.688 181.146C103.624 181.079 103.593 180.983 103.593 180.86C103.593 180.703 103.658 180.576 103.79 180.482C103.921 180.386 104.097 180.337 104.318 180.337C104.434 180.337 104.55 180.352 104.665 180.38C104.781 180.409 104.877 180.447 104.951 180.495L104.816 180.745C104.674 180.653 104.507 180.607 104.314 180.607C104.181 180.607 104.079 180.629 104.009 180.673C103.939 180.717 103.904 180.775 103.904 180.847C103.904 180.904 103.924 180.949 103.963 180.982C104.003 181.015 104.051 181.039 104.108 181.054C104.167 181.07 104.249 181.087 104.354 181.107C104.494 181.131 104.606 181.157 104.692 181.186C104.779 181.212 104.854 181.258 104.915 181.324C104.976 181.39 105.007 181.482 105.007 181.6C105.007 181.758 104.939 181.884 104.803 181.978C104.67 182.071 104.487 182.117 104.255 182.117Z" fill="white"/>
<path d="M78.5012 167.278C82.5116 169.028 85.7464 168.04 87.6572 167.425C79.4043 169.425 73.4627 163.656 74.2787 156.681C74.8772 151.564 78.788 149.486 80.639 148.659C80.5864 149.153 80.5491 150.363 80.8206 151.254C81.7808 148.36 83.4966 146.753 85.7318 145.605C77.0908 144.235 73.06 150.458 72.2437 152.679C70.3633 157.795 72.178 164.519 78.5012 167.278Z" fill="white"/>
<path d="M84.4419 151.444C83.6563 151.555 82.1349 152.218 80.9309 154.089C83.166 152.602 84.3136 152.77 85.634 152.845C85.8338 151.446 86.938 150.534 87.9387 150.393C88.8041 150.146 90.7698 150.442 91.3237 152.632C91.8573 154.741 89.6449 156.224 88.3915 156.819C87.2246 157.298 84.8058 158.616 83.9763 159.74C82.0179 162.394 82.8054 164.336 84.4269 162.953C85.724 161.847 90.1199 161.13 92.4598 160.731C91.9967 163.493 90.4944 168.614 83.5891 169.582C78.264 170.329 74.901 167.279 73.5173 165.479C77.3413 171.645 86.6409 173.119 92.9149 168.274C97.9342 164.398 98.151 158.159 97.632 155.523C96.6301 149.862 92.6348 147.118 89.3642 147.359C86.0937 147.601 84.9597 149.384 84.4419 151.444Z" fill="white"/>
<path d="M87.4172 152.509C87.4172 152.975 87.7949 153.352 88.2608 153.352C88.7268 153.352 89.1045 152.975 89.1045 152.509C89.1045 152.043 88.7268 151.665 88.2608 151.665C87.7949 151.665 87.4172 152.043 87.4172 152.509Z" fill="white"/>
<path d="M135.453 108.578C131.07 113.783 117.916 119.154 112.037 121.266C116.009 124.827 120.336 133.052 121.82 136.419C130.038 138.336 145.498 131.521 152.232 128.096L135.453 108.578Z" fill="#FF6200"/>
<path d="M36.4288 110.267C40.8119 115.472 53.9663 120.843 59.8447 122.955C55.8725 126.516 51.5456 134.741 50.0618 138.108C41.8434 140.026 26.3841 133.21 19.6496 129.786L36.4288 110.267Z" fill="#FF6200"/>
<path d="M84.7642 131.712L75.6629 125.722C67.3974 125.722 60.788 122.844 57.7781 121.652L54.4229 122.823L70.9265 145.41L84.7642 133.289L101.653 145.41L111.927 121.077C108.965 122.823 97.0326 125.393 93.5869 125.722L84.7642 131.712Z" fill="#FAFDFB"/>
</svg>
