<svg width="460" height="272" viewBox="0 0 460 272" fill="none" xmlns="http://www.w3.org/2000/svg">
<ellipse cx="114.831" cy="237.976" rx="97.6794" ry="33.4834" fill="#D9D9D9"/>
<ellipse cx="345.442" cy="237.976" rx="97.6794" ry="33.4834" fill="#D9D9D9"/>
<path d="M338.583 174.152H320.239V194.789H338.583V174.152Z" fill="#FDC1B9"/>
<path d="M351.195 174.152H369.539V194.789H351.195V174.152Z" fill="#FDC1B9"/>
<path d="M338.583 185.617V174.152H320.239V179.248L338.583 185.617Z" fill="#FFB3A8"/>
<path d="M351.195 185.617V174.152H369.539V179.248L351.195 185.617Z" fill="#FFB3A8"/>
<path d="M302.989 241.22C297.652 229.116 313.362 222.09 317.645 217.719H338.583V236.148C338.583 237.219 337.993 238.202 337.03 238.671C326.709 243.696 307.065 250.466 302.989 241.22Z" fill="#4B217A"/>
<path d="M386.789 241.22C392.126 229.116 376.416 222.09 372.132 217.719H351.195V236.148C351.195 237.219 351.785 238.202 352.748 238.671C363.069 243.696 382.712 250.466 386.789 241.22Z" fill="#4B217A"/>
<path fill-rule="evenodd" clip-rule="evenodd" d="M313.557 219.257C307.518 223.67 298.814 230.031 302.989 239.5C303.901 241.567 305.591 242.834 307.781 243.499L308.645 243.067H310.194L311.537 244.073C313.464 244.143 315.582 243.945 317.782 243.557L318.452 242.552L322.066 241.521L323.458 242.216C325.441 241.643 327.416 240.975 329.309 240.264L330.841 238.429L332.389 237.914L334.052 238.329C334.84 237.982 335.595 237.636 336.312 237.296L337.035 235.852L338.583 234.306V215.998H317.645C316.713 216.95 315.238 218.028 313.557 219.257Z" fill="#55248E"/>
<path fill-rule="evenodd" clip-rule="evenodd" d="M376.221 219.257C382.26 223.67 390.964 230.031 386.789 239.5C385.877 241.567 384.187 242.834 381.997 243.499L381.133 243.067H379.584L378.241 244.073C376.314 244.143 374.196 243.945 371.996 243.557L371.325 242.552L367.712 241.521L366.32 242.216C364.337 241.643 362.362 240.975 360.469 240.264L358.937 238.429L357.389 237.914L355.725 238.329C354.938 237.982 354.183 237.636 353.466 237.296L352.743 235.852L351.195 234.306V215.998H372.132C373.065 216.95 374.54 218.028 376.221 219.257Z" fill="#55248E"/>
<path d="M338.583 229.975V228.038L301.896 237.783L303.329 240.363C305.622 243.573 316.131 241.032 320.812 239.216L337.206 232.077C338.042 231.713 338.583 230.888 338.583 229.975Z" fill="#4B217A"/>
<path d="M351.195 229.975V228.038L387.882 237.783L386.449 240.363C384.156 243.573 373.647 241.032 368.965 239.216L352.572 232.077C351.736 231.713 351.195 230.888 351.195 229.975Z" fill="#4B217A"/>
<path fill-rule="evenodd" clip-rule="evenodd" d="M412.532 43.4531C412.532 39.9706 409.709 37.1475 406.226 37.1475H302.469C298.987 37.1475 296.164 39.9706 296.164 43.4531V165.611C296.164 169.094 298.987 171.917 302.469 171.917H406.226C409.709 171.917 412.532 169.094 412.532 165.611V43.4531ZM399.952 48.0259H308.745V161.039H351.837C351.164 154.445 362.687 147.84 378.12 146.116C386.426 145.188 394.216 145.858 399.952 147.679V48.0259Z" fill="#602C9A"/>
<path d="M359.757 161.737C358.351 168.593 344.355 172.715 328.497 170.944C312.638 169.172 300.923 162.178 302.329 155.322C303.735 148.465 317.731 144.343 333.589 146.115C349.448 147.887 361.163 154.881 359.757 161.737Z" fill="#602C9A"/>
<path d="M320.239 195.935H338.583V206.826C338.583 207.143 338.326 207.399 338.01 207.399H320.812C320.496 207.399 320.239 207.143 320.239 206.826V195.935Z" fill="white"/>
<path d="M369.539 195.935H351.195V206.826C351.195 207.143 351.451 207.399 351.768 207.399H368.965C369.282 207.399 369.539 207.143 369.539 206.826V195.935Z" fill="white"/>
<path d="M302.217 236.867C297.309 224.597 316.032 216.757 320.239 212.559H338.583V227.706C338.583 228.787 337.983 229.773 337.019 230.262C326.711 235.491 305.849 245.949 302.217 236.867Z" fill="#5E2A99"/>
<path d="M387.561 236.867C392.468 224.597 373.746 216.757 369.539 212.559H351.195V227.706C351.195 228.787 351.795 229.773 352.759 230.262C363.066 235.491 383.928 245.949 387.561 236.867Z" fill="#5E2A99"/>
<path fill-rule="evenodd" clip-rule="evenodd" d="M305.124 224.247C302.216 227.641 300.434 231.776 301.646 236.879C302.788 241.685 309.182 241.263 316.578 238.998C315.746 227.945 310.159 224.802 305.124 224.247Z" fill="white"/>
<path fill-rule="evenodd" clip-rule="evenodd" d="M384.654 224.247C387.562 227.641 389.344 231.776 388.131 236.879C386.99 241.685 380.595 241.263 373.2 238.998C374.032 227.945 379.618 224.802 384.654 224.247Z" fill="white"/>
<path d="M271.831 153.638C274.141 140.032 284.321 121.145 290.912 120.382L291.979 129.597L292.69 135.74C289.688 136.306 282.835 150.916 280.5 157.328C277.046 157.786 273.281 155.059 271.831 153.638Z" fill="#FDC1B9"/>
<path fill-rule="evenodd" clip-rule="evenodd" d="M282.844 151.591C285.888 144.84 290.163 136.864 292.366 136.448L291.655 130.305L291.414 128.229C287.686 135.323 283.606 144.199 282.844 151.591Z" fill="#FFB2A8"/>
<path d="M268.544 153.135C267.638 154.542 268.818 155.8 269.522 156.253C265.927 156.426 260.74 166.025 260.234 170.675C259.727 175.326 257.64 175.475 254.719 181.556C252.382 186.421 256.441 187.641 258.762 187.643C259.1 191.444 263.124 191.945 265.093 191.72C270.871 197.432 274.018 190.999 273.72 186.826C273.422 182.652 273.577 177.775 276.092 175.414C278.608 173.053 279.557 181.627 280.033 182.431C280.51 183.236 284.052 187.01 287.474 183.242C290.212 180.228 288.551 177.964 287.378 177.209C286.013 176.495 283.268 174.163 283.211 170.543C283.153 166.923 281.533 162.33 280.73 160.486L282.113 159.884C283.974 160.086 285.106 158.327 280.76 155.031C276.414 151.734 269.677 151.376 268.544 153.135Z" fill="#8B5EC1"/>
<mask id="mask0_347_38" style="mask-type:alpha" maskUnits="userSpaceOnUse" x="254" y="152" width="35" height="42">
<path d="M268.545 153.133C267.638 154.54 268.819 155.798 269.522 156.251C265.927 156.424 260.741 166.023 260.234 170.673C259.728 175.324 257.641 175.473 254.72 181.554C252.383 186.419 256.441 187.639 258.762 187.641C259.101 191.442 263.124 191.943 265.094 191.719C270.871 197.43 274.019 190.997 273.72 186.824C273.422 182.65 273.577 177.773 276.093 175.412C278.609 173.051 279.557 181.625 280.034 182.429C280.511 183.234 284.052 187.008 287.474 183.24C290.212 180.226 288.551 177.962 287.379 177.207C286.014 176.493 283.269 174.161 283.211 170.541C283.154 166.921 281.534 162.328 280.731 160.484L282.114 159.882C283.974 160.084 285.107 158.326 280.76 155.029C276.414 151.732 269.677 151.374 268.545 153.133Z" fill="#8B5EC1"/>
</mask>
<g mask="url(#mask0_347_38)">
<path d="M280.083 159.289C280.405 157.838 282.553 155.201 283.586 154.064L294.008 180.976C291.549 184.139 286.342 190.576 285.188 191.023L269.81 196.978L253.485 193.353L251.607 181.369C257.143 191.384 260.517 183.445 262.738 178.717C261.328 182.21 257.81 191.678 263.282 190.111C265.759 189.402 267.028 183.134 267.033 179.817C267.021 188.111 265.205 189.367 267.763 191.692C270.083 193.8 273.344 188.978 272.63 184.281C271.916 179.584 275.589 167.661 279.419 176.125C282.483 182.897 283.652 182.776 285.761 182.512C289.605 181.023 286.225 175.148 283.247 167.458C280.865 161.307 275.825 157.806 273.603 156.825C276.207 156.7 279.008 158.416 280.083 159.289Z" fill="#6D3EA9"/>
</g>
<path d="M397.396 36.0029L394.761 35.4297L396.225 174.154L404.334 171.88C406.809 171.186 408.519 168.93 408.519 166.361V44.6227C408.519 42.3462 407.172 40.2854 405.087 39.372L397.396 36.0029Z" fill="white"/>
<path d="M402.213 44.0283C402.213 39.2794 398.364 35.4297 393.615 35.4297H304.762C300.013 35.4297 296.164 39.2794 296.164 44.0283V165.556C296.164 170.305 300.013 174.154 304.762 174.154H393.615C398.364 174.154 402.213 170.305 402.213 165.556V44.0283Z" fill="#FDC1B9"/>
<path fill-rule="evenodd" clip-rule="evenodd" d="M396.148 35.3027C399.63 35.3027 402.454 38.1259 402.454 41.6084V168.026C402.454 171.509 399.63 174.332 396.148 174.332H296.164C292.681 174.332 289.858 171.509 289.858 168.026V41.6084C289.858 38.1259 292.681 35.3027 296.164 35.3027H396.148ZM301.896 46.3203H390.176V163.262H301.896V46.3203Z" fill="#7748AF"/>
<path d="M307.536 81.9281L311.067 79.2411L308.488 46.3203H299.603V163.262H305.048V86.9464C305.048 84.977 305.968 83.1206 307.536 81.9281Z" fill="#FFB3A8"/>
<path d="M347.444 103.236C344.69 105.75 342.105 104.672 340.585 103.27C340.081 102.804 340.256 102.01 340.874 101.711C343.282 100.547 344.966 100.415 347.234 101.643C347.835 101.968 347.948 102.776 347.444 103.236Z" fill="#FFB2A8"/>
<path fill-rule="evenodd" clip-rule="evenodd" d="M406.226 40.0349C405.878 39.7738 405.497 39.55 405.087 39.3704L404.506 39.1162V171.827C405.138 171.629 405.717 171.328 406.226 170.945V40.0349Z" fill="#DEDEDE"/>
<path d="M297.309 46.3203H299.602V135.395L297.309 134.6V46.3203Z" fill="#5F2E97"/>
<path d="M392.468 44.0273L392.468 46.3203L297.31 46.3203L297.31 44.0273L392.468 44.0273Z" fill="#5F2E97"/>
<path d="M390.175 46.3203H392.468V134.6L390.175 135.344V46.3203Z" fill="#5F2E97"/>
<path fill-rule="evenodd" clip-rule="evenodd" d="M294.443 35.6602V166.409C294.443 170.428 297.481 173.746 307.341 174.434C307.427 174.44 307.516 174.446 307.61 174.452H296.163C292.681 174.452 289.857 171.629 289.857 168.146V41.7285C289.857 38.8421 291.797 36.4087 294.443 35.6602Z" fill="#8B5EC1"/>
<path d="M329.749 206.584C330.093 206.368 330.479 206.227 330.882 206.172L337.28 205.289C337.969 205.194 338.583 205.73 338.583 206.425V212.562H320.239L329.749 206.584Z" fill="#5E2A99"/>
<path d="M360.029 206.584C359.685 206.368 359.298 206.227 358.896 206.172L352.498 205.289C351.809 205.194 351.195 205.73 351.195 206.425V212.562H369.539L360.029 206.584Z" fill="#5E2A99"/>
<path d="M338.583 194.792C338.583 194.159 338.07 193.646 337.437 193.646H321.386C320.753 193.646 320.239 194.159 320.239 194.792V195.938H338.583V194.792Z" fill="#9F78CD"/>
<path d="M351.195 194.792C351.195 194.159 351.708 193.646 352.341 193.646H368.392C369.025 193.646 369.539 194.159 369.539 194.792V195.938H351.195V194.792Z" fill="#9F78CD"/>
<path d="M316.559 239.215C316.559 232.336 313.12 228.037 311.973 226.891C304.521 231.477 307.055 240.362 307.341 240.648C310.494 240.648 314.266 240.075 316.559 239.215Z" fill="#D7DAE6"/>
<path d="M373.218 239.215C373.218 232.336 376.658 228.037 377.804 226.891C385.257 231.477 382.723 240.362 382.437 240.648C379.284 240.648 375.511 240.075 373.218 239.215Z" fill="#D7DAE6"/>
<path fill-rule="evenodd" clip-rule="evenodd" d="M342.182 116.767C339.134 116.161 336.62 114.061 335.25 112.289C334.96 111.913 334.42 111.844 334.044 112.135C333.668 112.425 333.599 112.965 333.89 113.341C335.427 115.33 338.271 117.743 341.847 118.454C345.504 119.18 349.746 118.091 353.904 113.384C354.219 113.028 354.185 112.485 353.829 112.171C353.473 111.856 352.93 111.89 352.615 112.246C348.799 116.566 345.15 117.357 342.182 116.767Z" fill="#EE7A6A"/>
<path d="M304.296 103.81C304.296 108.652 308.221 112.577 313.063 112.577C317.904 112.577 321.829 108.652 321.829 103.81C321.829 98.9688 317.904 95.0439 313.063 95.0439C308.221 95.0439 304.296 98.9688 304.296 103.81Z" fill="#EE7A6A"/>
<path d="M368.24 103.81C368.24 108.652 372.165 112.577 377.007 112.577C381.848 112.577 385.773 108.652 385.773 103.81C385.773 98.9688 381.848 95.0439 377.007 95.0439C372.165 95.0439 368.24 98.9688 368.24 103.81Z" fill="#EE7A6A"/>
<path d="M334.57 87.8804C334.57 95.3203 328.539 101.352 321.099 101.352C313.659 101.352 307.627 95.3203 307.627 87.8804C307.627 80.4404 313.659 74.4092 321.099 74.4092C328.539 74.4092 334.57 80.4404 334.57 87.8804Z" fill="white"/>
<path fill-rule="evenodd" clip-rule="evenodd" d="M320.343 101.335C320.593 101.349 320.845 101.356 321.099 101.356C328.539 101.356 334.57 95.3245 334.57 87.8846C334.57 85.6884 334.044 83.615 333.112 81.7832C333.832 90.5527 331.536 98.1051 320.343 101.335Z" fill="#EAE8F3"/>
<path d="M381.003 87.8804C381.003 95.3203 374.972 101.352 367.532 101.352C360.092 101.352 354.061 95.3203 354.061 87.8804C354.061 80.4404 360.092 74.4092 367.532 74.4092C374.972 74.4092 381.003 80.4404 381.003 87.8804Z" fill="white"/>
<path fill-rule="evenodd" clip-rule="evenodd" d="M366.776 101.335C367.026 101.349 367.278 101.356 367.532 101.356C374.972 101.356 381.003 95.3245 381.003 87.8846C381.003 85.6884 380.477 83.615 379.545 81.7832C380.266 90.5527 377.969 98.1051 366.776 101.335Z" fill="#EAE8F3"/>
<path d="M312.326 87.8625C312.326 92.7598 316.296 96.7299 321.194 96.7299C326.091 96.7299 330.061 92.7598 330.061 87.8625C330.061 82.9652 326.091 78.9951 321.194 78.9951C316.296 78.9951 312.326 82.9652 312.326 87.8625Z" fill="#672E8A"/>
<path d="M317.451 88.0813C317.451 90.2684 319.224 92.0414 321.411 92.0414C323.598 92.0414 325.371 90.2684 325.371 88.0813C325.371 85.8941 323.598 84.1211 321.411 84.1211C319.224 84.1211 317.451 85.8941 317.451 88.0813Z" fill="#4D2164"/>
<path d="M312.214 85.0132C312.214 86.7544 313.625 88.166 315.367 88.166C317.108 88.166 318.52 86.7544 318.52 85.0132C318.52 83.2719 317.108 81.8604 315.367 81.8604C313.625 81.8604 312.214 83.2719 312.214 85.0132Z" fill="white"/>
<path d="M324.906 91.8064C324.906 92.707 325.636 93.4371 326.537 93.4371C327.437 93.4371 328.167 92.707 328.167 91.8064C328.167 90.9058 327.437 90.1758 326.537 90.1758C325.636 90.1758 324.906 90.9058 324.906 91.8064Z" fill="white"/>
<path d="M358.759 87.8625C358.759 92.7598 362.729 96.7299 367.627 96.7299C372.524 96.7299 376.494 92.7598 376.494 87.8625C376.494 82.9652 372.524 78.9951 367.627 78.9951C362.729 78.9951 358.759 82.9652 358.759 87.8625Z" fill="#672E8A"/>
<path d="M363.884 88.0813C363.884 90.2684 365.657 92.0414 367.845 92.0414C370.032 92.0414 371.805 90.2684 371.805 88.0813C371.805 85.8941 370.032 84.1211 367.845 84.1211C365.657 84.1211 363.884 85.8941 363.884 88.0813Z" fill="#4D2164"/>
<path d="M358.647 85.0132C358.647 86.7544 360.059 88.166 361.8 88.166C363.542 88.166 364.953 86.7544 364.953 85.0132C364.953 83.2719 363.542 81.8604 361.8 81.8604C360.059 81.8604 358.647 83.2719 358.647 85.0132Z" fill="white"/>
<path d="M371.34 91.8064C371.34 92.707 372.07 93.4371 372.97 93.4371C373.871 93.4371 374.601 92.707 374.601 91.8064C374.601 90.9058 373.871 90.1758 372.97 90.1758C372.07 90.1758 371.34 90.9058 371.34 91.8064Z" fill="white"/>
<path fill-rule="evenodd" clip-rule="evenodd" d="M344.856 84.7862C345.925 85.0251 347.026 85.9612 347.686 86.9214C348.583 88.2261 350.367 88.557 351.672 87.6605C352.976 86.7641 353.307 84.9797 352.411 83.6751C351.287 82.0398 349.102 79.8613 346.107 79.1918C342.75 78.4413 339.285 79.7648 336.329 83.528C335.352 84.773 335.569 86.5748 336.814 87.5525C338.058 88.5301 339.86 88.3134 340.838 87.0685C342.774 84.6026 344.15 84.6283 344.856 84.7862Z" fill="#6D3EA9"/>
<path fill-rule="evenodd" clip-rule="evenodd" d="M370.686 109.952C358.338 109.952 348.329 99.9428 348.329 87.5957C348.329 75.2486 358.338 65.2393 370.686 65.2393C383.033 65.2393 393.042 75.2486 393.042 87.5957C393.042 99.9428 383.033 109.952 370.686 109.952ZM370.578 105.026C360.893 105.026 353.041 97.1744 353.041 87.4886C353.041 77.8028 360.893 69.9509 370.578 69.9509C380.264 69.9509 388.116 77.8028 388.116 87.4886C388.116 97.1744 380.264 105.026 370.578 105.026Z" fill="#3A1C5C"/>
<path fill-rule="evenodd" clip-rule="evenodd" d="M317.777 110.187C305.365 110.187 295.303 100.125 295.303 87.713C295.303 75.3011 305.365 65.2393 317.777 65.2393C330.189 65.2393 340.25 75.3011 340.25 87.713C340.25 100.125 330.189 110.187 317.777 110.187ZM317.669 105.235C307.932 105.235 300.039 97.3419 300.039 87.6053C300.039 77.8687 307.932 69.9756 317.669 69.9756C327.406 69.9756 335.299 77.8687 335.299 87.6053C335.299 97.3419 327.406 105.235 317.669 105.235Z" fill="#3A1C5C"/>
<path d="M335.289 87.5959C335.289 97.3327 327.396 105.226 317.659 105.226C307.923 105.226 300.029 97.3327 300.029 87.5959C300.029 77.8591 307.923 69.9658 317.659 69.9658C327.396 69.9658 335.289 77.8591 335.289 87.5959Z" fill="white" fill-opacity="0.2"/>
<mask id="mask1_347_38" style="mask-type:alpha" maskUnits="userSpaceOnUse" x="300" y="69" width="36" height="37">
<path d="M335.436 87.4533C335.436 97.1901 327.543 105.083 317.806 105.083C308.069 105.083 300.176 97.1901 300.176 87.4533C300.176 77.7165 308.069 69.8232 317.806 69.8232C327.543 69.8232 335.436 77.7165 335.436 87.4533Z" fill="white" fill-opacity="0.2"/>
</mask>
<g mask="url(#mask1_347_38)">
<path d="M332.527 74.5781L329.601 72.4645L306.171 104.905L309.097 107.018L332.527 74.5781Z" fill="#C4C4C4"/>
<path d="M336.048 75.5273L334.498 74.4073L311.067 106.847L312.618 107.968L336.048 75.5273Z" fill="#C4C4C4"/>
</g>
<path d="M388.175 87.4533C388.175 97.1901 380.282 105.083 370.545 105.083C360.808 105.083 352.915 97.1901 352.915 87.4533C352.915 77.7165 360.808 69.8232 370.545 69.8232C380.282 69.8232 388.175 77.7165 388.175 87.4533Z" fill="white" fill-opacity="0.2"/>
<mask id="mask2_347_38" style="mask-type:alpha" maskUnits="userSpaceOnUse" x="353" y="70" width="36" height="36">
<path d="M388.321 87.8859C388.321 97.6227 380.428 105.516 370.691 105.516C360.954 105.516 353.061 97.6227 353.061 87.8859C353.061 78.1491 360.954 70.2559 370.691 70.2559C380.428 70.2559 388.321 78.1491 388.321 87.8859Z" fill="white" fill-opacity="0.2"/>
</mask>
<g mask="url(#mask2_347_38)">
<path d="M385.413 75.0117L382.487 72.8981L359.056 105.338L361.983 107.452L385.413 75.0117Z" fill="#C4C4C4"/>
<path d="M388.934 75.9639L387.383 74.8438L363.953 107.284L365.504 108.404L388.934 75.9639Z" fill="#C4C4C4"/>
</g>
<path d="M299.603 135.171C333.459 147.328 353.266 147.52 390.175 135.171V163.26H299.603V135.171Z" fill="#7748AF"/>
<path d="M344.029 173.008C328.247 173.008 306.423 152.443 299.603 134.601C334.57 148.578 371.624 141.556 390.175 134.601C380.354 155.165 361.761 173.008 344.029 173.008Z" fill="#3A1C5C"/>
<path d="M344.061 170.122C326.845 170.851 308.408 147.11 301.322 135.171C334.962 148.418 373.583 140.736 388.455 135.171C374.944 156.848 361.121 170.122 344.061 170.122Z" fill="#9F78CD"/>
<path d="M333.998 168.056L340.303 150.934C341.736 146.062 347.755 146.349 348.902 150.934L355.208 168.056C347.054 172.865 337.211 170.06 333.998 168.056Z" fill="#EE7A6A"/>
<path d="M333.998 168.135L339.157 153.804L346.322 170.714C340.59 171.288 335.908 169.09 333.998 168.135Z" fill="#DF5744"/>
<path d="M390.175 134.885C380.069 138.41 356.083 143.163 348.902 143.246V145.49C355.285 152.54 371.958 163.214 377.277 160.394C382.597 157.574 388.58 140.927 390.175 134.885Z" fill="#8B5EC1"/>
<path d="M299.603 134.885C309.709 138.41 333.695 143.163 340.876 143.246V145.49C334.493 152.54 317.82 163.214 312.5 160.394C307.181 157.574 301.198 140.927 299.603 134.885Z" fill="#8B5EC1"/>
<path d="M297.309 134.026C307.416 137.551 331.402 142.304 338.583 142.388V143.485C331.704 148.644 315.24 162.642 309.92 159.822C304.601 157.002 298.742 144.631 297.309 134.026Z" fill="#5F2E97"/>
<path d="M392.468 134.026C382.362 137.551 358.376 142.304 351.195 142.388V143.771C358.074 148.931 374.538 162.642 379.857 159.822C385.176 157.002 391.035 144.631 392.468 134.026Z" fill="#5F2E97"/>
<path d="M390.175 134.601C380.405 138.18 356.99 141.968 350.048 142.053V144.951C366.099 154.951 374.98 161.581 378.137 159.823C383.28 156.96 388.633 140.736 390.175 134.601Z" fill="#9F78CD"/>
<path d="M299.603 134.601C309.373 138.18 332.787 141.968 339.729 142.053V144.951C323.679 154.951 314.798 161.581 311.641 159.823C306.498 156.96 301.145 140.736 299.603 134.601Z" fill="#9F78CD"/>
<path d="M351.194 142.05H338.01V146.398C338.01 146.929 338.157 147.449 338.435 147.9L340.303 150.936H348.901L350.769 147.9C351.047 147.449 351.194 146.929 351.194 146.398V142.05Z" fill="#EE7A6A"/>
<path d="M334.57 219.439L319.092 213.42L320.239 212.56L329.297 206.866C329.94 206.462 330.656 206.19 331.405 206.065L331.99 205.968C335.143 212.847 334.665 217.815 334.57 219.439Z" fill="#4B217A"/>
<path d="M355.208 219.439L370.685 213.42L369.539 212.56L360.481 206.866C359.838 206.462 359.121 206.19 358.372 206.065L357.787 205.968C354.634 212.847 355.112 217.815 355.208 219.439Z" fill="#4B217A"/>
<path d="M320.239 200.522C316.341 202.127 318.615 209.885 320.239 212.56C324.347 214.184 332.449 217.146 333.137 217.146C332.564 204.821 325.112 198.515 320.239 200.522Z" fill="#5E2A99"/>
<path d="M369.539 200.522C373.437 202.127 371.163 209.885 369.539 212.56C365.43 214.184 357.329 217.146 356.641 217.146C357.214 204.821 364.666 198.515 369.539 200.522Z" fill="#5E2A99"/>
<path fill-rule="evenodd" clip-rule="evenodd" d="M321.127 200.255C320.823 200.314 320.526 200.402 320.239 200.52C316.341 202.125 318.615 209.883 320.239 212.558C321.322 212.986 322.702 213.527 324.16 214.092C323.663 212.395 323.181 210.948 322.751 209.654C321.539 206.01 320.734 203.588 321.127 200.255Z" fill="#582592"/>
<path fill-rule="evenodd" clip-rule="evenodd" d="M368.651 200.255C368.956 200.314 369.252 200.402 369.539 200.52C373.437 202.125 371.163 209.883 369.539 212.558C368.456 212.986 367.076 213.527 365.618 214.092C366.116 212.395 366.597 210.948 367.027 209.654C368.239 206.01 369.045 203.588 368.651 200.255Z" fill="#582592"/>
<path d="M305.048 224.311C313.532 231.648 328.264 224.119 334.57 219.438L332.85 218.578C318.863 228.438 309.252 225.744 306.194 223.164L305.048 224.311Z" fill="#4B217A"/>
<path d="M384.729 224.311C376.246 231.648 361.513 224.119 355.208 219.438L356.927 218.578C370.914 228.438 380.526 225.744 383.583 223.164L384.729 224.311Z" fill="#4B217A"/>
<path d="M306.195 223.163C308.029 221.329 313.074 217.431 319.379 213.418L324.252 215.424L311.354 225.169C309.348 225.169 306.673 223.641 306.195 223.163Z" fill="#582592"/>
<path d="M383.583 223.163C381.749 221.329 376.704 217.431 370.398 213.418L365.526 215.424L378.424 225.169C380.43 225.169 383.105 223.641 383.583 223.163Z" fill="#582592"/>
<path d="M339.729 152.369L340.303 150.936H348.901L349.475 152.369H339.729Z" fill="#DF5744"/>
<path d="M390.174 131.446C350.047 144.287 316.704 136.797 305.048 131.446V136.319C340.875 147.497 376.321 140.14 390.174 134.599V131.446Z" fill="#FFB2A8"/>
<path d="M403.933 22.8154C414.825 33.4203 414.06 49.1846 412.818 56.6367C411.767 55.2598 411.464 53.7298 409.665 52.624C388.706 39.7346 315.94 48.8979 282.979 48.8979C284.125 43.4521 286.418 35.7134 293.584 26.2549C302.537 14.4368 327.119 8.48437 344.029 5.04492C359.793 5.04485 393.506 12.663 403.933 22.8154Z" fill="#5F2E97"/>
<path fill-rule="evenodd" clip-rule="evenodd" d="M379.647 11.0576C384.801 17.3199 391.186 25.8438 392.182 45.7474L383.14 46.2795C394.553 47.1585 403.993 49.031 409.653 52.5121C410.868 53.2589 411.4 54.1992 411.942 55.1552C412.202 55.6147 412.465 56.0778 412.806 56.5247C414.048 49.0726 414.812 33.3084 403.921 22.7034C399.258 18.163 389.937 14.1295 379.647 11.0576Z" fill="#592B8D"/>
<path d="M337.723 6.47998C344.89 5.04687 352.34 5.62012 354.06 5.90674C352.914 1.60742 350.907 0.460925 346.321 0.460938C339.419 0.460957 337.723 4.76026 337.723 6.47998Z" fill="#3A1C5C"/>
<path d="M410.238 52.9133L412.818 57.2126C413.121 52.6261 411.332 49.7471 408.519 48.614C363.806 38.9835 311.832 45.4613 292.15 49.474L299.889 52.9133C331.761 45.1172 386.735 49.6649 410.238 52.9133Z" fill="#DDA400"/>
<path d="M289.858 73.5478V54.0576L254.604 61.7964L246.865 68.102L250.877 70.395L264.635 73.5478H289.858Z" fill="#FFBD00"/>
<path d="M289.858 47.1787C296.049 47.1787 303.902 50.5226 305.909 52.0513C297.883 52.0513 236.833 65.5225 250.878 69.5352C262.113 72.7453 281.546 72.9746 289.858 72.688V75.2676C270.75 75.5542 235.629 73.5478 248.011 63.2295C260.393 52.9111 282.31 47.752 289.858 47.1787Z" fill="#FFD966"/>
<path d="M347.182 43.7407C330.443 31.3587 308.297 23.4862 299.316 21.0977C298.169 21.7855 293.87 25.397 292.724 26.5435C287.45 31.8173 284.125 42.5942 283.265 48.04C285.463 47.7534 289.972 47.1802 290.431 47.1802C292.953 47.1802 296.068 48.1356 297.31 48.6133C314.507 44.7152 337.723 43.7407 347.182 43.7407Z" fill="#592B8D"/>
<path d="M383.297 44.8862C384.673 19.205 370.399 9.34521 362.947 7.33887C366.157 7.33887 372.979 9.24967 375.271 9.91846C387.654 18.4024 389.507 36.9564 389.603 45.4595C387.31 45.1728 385.303 44.8862 383.297 44.8862Z" fill="#491D7C"/>
<path d="M312.5 46.3223C313.933 31.9912 325.016 13.0742 328.838 8.48828L323.679 9.92139C316.861 18.4873 309.651 38.3905 309.348 46.6089C309.921 46.6089 311.354 46.3223 312.5 46.3223Z" fill="#502483"/>
<path d="M309.061 46.6069C310.494 32.2759 321.003 14.2187 324.825 9.63281L319.093 11.3525C310.15 22.5881 307.246 40.0146 309.061 46.6069Z" fill="#4B1F7E"/>
<path d="M383.296 44.8892C384.443 18.7493 370.398 8.96598 363.233 7.3418L360.94 6.76855C380.201 14.3354 381.29 36.5771 381.29 44.6025L383.296 44.8892Z" fill="#3A1C5C"/>
<path d="M392.182 45.7446L389.603 45.458C389.603 25.3945 380.335 13.452 375.271 9.91699L379.571 11.0635C390.348 22.299 392.564 38.8657 392.182 45.7446Z" fill="#502483"/>
<path d="M309.061 46.606C309.978 32.6188 319.953 16.1286 324.825 9.63184L326.545 9.05859C314.851 23.9629 310.399 40.3003 309.921 46.606H309.061Z" fill="#3A1C5C"/>
<path d="M427.385 151.011C423.521 137.748 411.224 120.14 404.583 120.14L404.583 129.425L404.583 135.616C407.634 135.833 416.129 149.571 419.189 155.678C422.677 155.736 426.106 152.591 427.385 151.011Z" fill="#FDC1B9"/>
<path d="M430.594 150.127C431.657 151.421 430.628 152.808 429.981 153.34C433.575 153.098 439.838 162.045 440.877 166.611C441.916 171.176 444.008 171.084 447.613 176.795C450.496 181.363 446.602 183.044 444.294 183.313C444.395 187.132 440.452 188.093 438.468 188.096C433.38 194.44 429.51 188.406 429.326 184.222C429.142 180.038 428.427 175.207 425.653 173.149C422.88 171.091 422.924 179.725 422.543 180.58C422.161 181.435 419.074 185.595 415.238 182.242C412.168 179.56 413.559 177.118 414.638 176.232C415.913 175.366 418.374 172.731 418.015 169.125C417.655 165.519 418.737 160.765 419.323 158.839L417.878 158.399C416.052 158.815 414.723 157.196 418.666 153.418C422.608 149.639 429.265 148.508 430.594 150.127Z" fill="#8B5EC1"/>
<mask id="mask3_347_38" style="mask-type:alpha" maskUnits="userSpaceOnUse" x="413" y="149" width="36" height="42">
<path d="M430.594 150.128C431.657 151.422 430.628 152.809 429.98 153.341C433.575 153.099 439.837 162.046 440.876 166.612C441.915 171.177 444.007 171.085 447.612 176.796C450.496 181.364 446.601 183.045 444.293 183.314C444.394 187.132 440.451 188.094 438.467 188.097C433.38 194.441 429.51 188.407 429.326 184.223C429.142 180.039 428.426 175.208 425.653 173.15C422.879 171.092 422.924 179.726 422.542 180.581C422.16 181.436 419.073 185.596 415.237 182.243C412.168 179.561 413.559 177.119 414.637 176.233C415.913 175.367 418.374 172.732 418.014 169.126C417.654 165.52 418.737 160.766 419.323 158.84L417.878 158.4C416.052 158.816 414.723 157.197 418.665 153.419C422.607 149.64 429.265 148.509 430.594 150.128Z" fill="#DEDEDE"/>
</mask>
<g mask="url(#mask3_347_38)">
<path d="M419.829 157.581C419.342 156.175 416.903 153.8 415.745 152.789L408.48 180.748C411.29 183.61 417.208 189.412 418.407 189.723L434.383 193.875L450.199 188.39L450.686 176.258C446.335 186.853 442.066 179.348 439.313 174.902C441.118 178.213 445.706 187.223 440.084 186.295C437.539 185.875 435.556 179.789 435.17 176.49C436.136 184.736 438.087 185.776 435.81 188.382C433.747 190.746 429.949 186.326 430.118 181.574C430.287 176.821 425.263 165.388 422.428 174.246C420.161 181.331 418.984 181.346 416.858 181.326C412.863 180.288 415.548 174.057 417.624 166.069C419.285 159.678 423.893 155.616 425.99 154.385C423.386 154.561 420.798 156.589 419.829 157.581Z" fill="#6D3EA9"/>
</g>
<path fill-rule="evenodd" clip-rule="evenodd" d="M407.222 120.99C406.396 120.611 405.348 120.107 404.635 120.107V129.609V135.621C406.451 135.75 410.466 140.934 413.845 146.184C412.597 137.768 409.401 126.858 407.222 120.99Z" fill="#FFB2A8"/>
<path fill-rule="evenodd" clip-rule="evenodd" d="M47.6948 43.2533C47.6948 39.7673 50.5207 36.9414 54.0067 36.9414H157.865C161.351 36.9414 164.177 39.7673 164.177 43.2533V165.531C164.177 169.017 161.351 171.843 157.865 171.843H54.0067C50.5207 171.843 47.6948 169.017 47.6948 165.531V43.2533ZM60.2865 47.8305H151.583V160.955H108.449C109.123 154.354 97.5886 147.743 82.14 146.017C73.8267 145.088 66.0285 145.758 60.2865 147.581V47.8305Z" fill="#602C9A"/>
<path d="M100.522 161.655C101.929 168.518 115.939 172.644 131.813 170.871C147.687 169.097 159.414 162.096 158.006 155.233C156.598 148.37 142.589 144.244 126.715 146.018C110.841 147.791 99.1138 154.792 100.522 161.655Z" fill="#602C9A"/>
<path fill-rule="evenodd" clip-rule="evenodd" d="M60.6099 173.112V36.7764L55.1478 39.169C53.0606 40.0833 51.7121 42.1461 51.7121 44.4249V166.282C51.7121 168.855 53.424 171.113 55.9008 171.807L60.222 173.002L60.6099 173.112Z" fill="white"/>
<path fill-rule="evenodd" clip-rule="evenodd" d="M146.767 220.953C152.812 225.371 161.524 231.738 157.345 241.216C156.432 243.286 154.741 244.554 152.548 245.219L151.683 244.787H150.133L148.788 245.794C146.86 245.864 144.74 245.665 142.538 245.277L141.866 244.271L138.25 243.24L136.856 243.935C134.871 243.362 132.894 242.693 130.999 241.981L129.466 240.144L127.916 239.629L126.251 240.044C125.463 239.697 124.707 239.351 123.989 239.01L123.266 237.565L121.716 236.018V217.691H142.674C143.608 218.644 145.084 219.723 146.767 220.953Z" fill="#3A1C5C"/>
<path fill-rule="evenodd" clip-rule="evenodd" d="M84.0413 220.953C77.9965 225.371 69.2843 231.738 73.463 241.216C74.3756 243.286 76.0676 244.554 78.2602 245.219L79.125 244.787H80.675L82.0198 245.794C83.9486 245.864 86.0685 245.665 88.2702 245.277L88.9419 244.271L92.5586 243.24L93.9523 243.935C95.9371 243.362 97.914 242.693 99.8092 241.981L101.342 240.144L102.892 239.629L104.557 240.044C105.345 239.697 106.101 239.351 106.819 239.01L107.542 237.565L109.092 236.018V217.691H88.1341C87.2004 218.644 85.7242 219.723 84.0413 220.953Z" fill="#3A1C5C"/>
<path fill-rule="evenodd" clip-rule="evenodd" d="M146.767 219.229C152.812 223.646 161.524 230.014 157.345 239.491C156.432 241.561 154.741 242.829 152.548 243.494L151.683 243.063H150.133L148.788 244.069C146.86 244.139 144.74 243.941 142.538 243.552L141.866 242.547L138.25 241.515L136.856 242.211C134.871 241.637 132.894 240.968 130.999 240.256L129.466 238.42L127.916 237.904L126.251 238.32C125.463 237.972 124.707 237.626 123.989 237.285L123.266 235.841L121.716 234.293V215.967H142.674C143.608 216.92 145.084 217.999 146.767 219.229Z" fill="#55248E"/>
<path fill-rule="evenodd" clip-rule="evenodd" d="M84.0413 219.229C77.9965 223.646 69.2843 230.014 73.463 239.491C74.3756 241.561 76.0676 242.829 78.2602 243.494L79.125 243.063H80.675L82.0198 244.069C83.9486 244.139 86.0685 243.941 88.2702 243.552L88.9419 242.547L92.5586 241.515L93.9523 242.211C95.9371 241.637 97.914 240.968 99.8092 240.256L101.342 238.42L102.892 237.904L104.557 238.32C105.345 237.972 106.101 237.626 106.819 237.285L107.542 235.841L109.092 234.293V215.967H88.1341C87.2004 216.92 85.7242 217.999 84.0413 219.229Z" fill="#55248E"/>
<path d="M121.716 229.954V228.015L158.439 237.769L157.005 240.351C154.71 243.565 144.19 241.021 139.504 239.204L123.095 232.058C122.257 231.693 121.716 230.867 121.716 229.954Z" fill="#4B217A"/>
<path d="M109.092 229.954V228.015L72.3687 237.769L73.8032 240.351C76.0984 243.565 86.6181 241.021 91.3042 239.204L107.713 232.058C108.551 231.693 109.092 230.867 109.092 229.954Z" fill="#4B217A"/>
<path d="M159.699 31.4771C160.617 -0.196877 136.364 18.2796 124.123 31.4771L126.418 34.3462L159.699 31.4771Z" fill="#502483"/>
<path d="M159.588 25.4637C147.216 20.5862 133.419 27.8549 126.916 34.0711L159.875 35.2184L159.588 25.4637Z" fill="#43206B"/>
<path d="M74.0141 31.4771C73.096 -0.196877 97.3488 18.2796 109.59 31.4771L107.295 34.3462L74.0141 31.4771Z" fill="#502483"/>
<path d="M74.09 26.2713C83.2709 19.3857 100.294 28.0883 106.797 34.3046L74.09 37.1736V26.2713Z" fill="#43206B"/>
<path d="M121.716 174.079H140.078V198.179H121.716V174.079Z" fill="#FDDEC2"/>
<path d="M109.092 174.079H90.7305V198.179H109.092V174.079Z" fill="#FDDEC2"/>
<path d="M141.226 207.361C141.226 206.727 140.712 206.213 140.078 206.213H121.142C120.509 206.213 119.995 206.727 119.995 207.361V210.803C119.995 211.437 120.509 211.951 121.142 211.951H140.078C140.712 211.951 141.226 211.437 141.226 210.803V207.361Z" fill="#55248E"/>
<path d="M89.5835 207.361C89.5835 206.727 90.0973 206.213 90.7311 206.213H109.667C110.3 206.213 110.814 206.727 110.814 207.361V210.803C110.814 211.437 110.3 211.951 109.667 211.951H90.7311C90.0973 211.951 89.5835 211.437 89.5835 210.803V207.361Z" fill="#55248E"/>
<path d="M141.226 207.935C141.226 207.301 140.712 206.787 140.078 206.787H121.142C120.509 206.787 119.995 207.301 119.995 207.935V211.378C119.995 212.011 120.509 212.525 121.142 212.525H140.078C140.712 212.525 141.226 212.011 141.226 211.378V207.935Z" fill="#4B217A"/>
<path d="M89.5835 207.935C89.5835 207.301 90.0973 206.787 90.7311 206.787H109.667C110.3 206.787 110.814 207.301 110.814 207.935V211.378C110.814 212.011 110.3 212.525 109.667 212.525H90.7311C90.0973 212.525 89.5835 212.011 89.5835 211.378V207.935Z" fill="#4B217A"/>
<path d="M141.226 205.64C141.226 205.006 140.712 204.492 140.078 204.492H121.142C120.509 204.492 119.995 205.006 119.995 205.64V209.656C119.995 210.29 120.509 210.804 121.142 210.804H140.078C140.712 210.804 141.226 210.29 141.226 209.656V205.64Z" fill="#55248E"/>
<path d="M89.5835 205.64C89.5835 205.006 90.0973 204.492 90.7311 204.492H109.667C110.3 204.492 110.814 205.006 110.814 205.64V209.656C110.814 210.29 110.3 210.804 109.667 210.804H90.7311C90.0973 210.804 89.5835 210.29 89.5835 209.656V205.64Z" fill="#55248E"/>
<path d="M140.078 198.183H121.716V205.642C121.716 205.959 121.973 206.216 122.29 206.216H139.504C139.821 206.216 140.078 205.959 140.078 205.642V198.183Z" fill="white"/>
<path d="M90.7305 198.183H109.092V205.642C109.092 205.959 108.835 206.216 108.518 206.216H91.3043C90.9874 206.216 90.7305 205.959 90.7305 205.642V198.183Z" fill="white"/>
<path d="M158.118 236.854C163.03 224.572 144.289 216.725 140.078 212.522H121.716V227.685C121.716 228.767 122.317 229.753 123.282 230.243C133.599 235.478 154.482 245.946 158.118 236.854Z" fill="#895EBC"/>
<path d="M72.6908 236.854C67.7786 224.572 86.5198 216.725 90.7308 212.522H109.092V227.685C109.092 228.767 108.492 229.753 107.527 230.243C97.2094 235.478 76.327 245.946 72.6908 236.854Z" fill="#895EBC"/>
<path fill-rule="evenodd" clip-rule="evenodd" d="M155.207 224.224C158.118 227.621 159.902 231.76 158.689 236.868C157.546 241.679 151.145 241.256 143.742 238.989C144.575 227.925 150.167 224.78 155.207 224.224Z" fill="white"/>
<path fill-rule="evenodd" clip-rule="evenodd" d="M75.6008 224.224C72.6898 227.621 70.9061 231.76 72.1196 236.868C73.2625 241.679 79.663 241.256 87.066 238.989C86.233 227.925 80.6412 224.78 75.6008 224.224Z" fill="white"/>
<path d="M121.716 185.555V174.079H140.078V179.18L121.716 185.555Z" fill="#FDD2AB"/>
<path d="M109.092 185.555V174.079H90.7305V179.18L109.092 185.555Z" fill="#FDD2AB"/>
<path d="M188.534 153.544C186.221 139.925 176.032 121.019 169.434 120.256L168.366 129.479L167.654 135.629C170.66 136.196 177.519 150.819 179.856 157.238C183.314 157.696 187.082 154.966 188.534 153.544Z" fill="#FDDEC2"/>
<path fill-rule="evenodd" clip-rule="evenodd" d="M177.591 152.467C174.565 145.37 169.491 135.408 167.021 134.941L167.733 128.792L168.011 126.383C172.124 134.028 177.071 144.283 177.591 152.467ZM168.769 119.841L168.8 119.568C169.236 119.619 169.687 119.748 170.15 119.95C169.676 119.928 169.215 119.892 168.769 119.841Z" fill="#FDD2AB"/>
<path d="M191.823 153.04C192.73 154.449 191.549 155.708 190.844 156.161C194.443 156.334 199.635 165.943 200.142 170.597C200.649 175.252 202.737 175.402 205.661 181.489C208.001 186.358 203.939 187.58 201.615 187.582C201.276 191.387 197.249 191.888 195.277 191.663C189.494 197.38 186.344 190.941 186.642 186.764C186.941 182.586 186.786 177.705 184.267 175.341C181.749 172.978 180.8 181.56 180.322 182.365C179.845 183.171 176.3 186.948 172.875 183.177C170.134 180.159 171.797 177.893 172.97 177.137C174.337 176.423 177.085 174.089 177.142 170.465C177.199 166.842 178.821 162.244 179.625 160.398L178.24 159.795C176.379 159.998 175.245 158.238 179.595 154.938C183.946 151.637 190.689 151.28 191.823 153.04Z" fill="#8B5EC1"/>
<mask id="mask4_347_38" style="mask-type:alpha" maskUnits="userSpaceOnUse" x="171" y="151" width="36" height="43">
<path d="M191.823 153.041C192.73 154.45 191.548 155.709 190.844 156.162C194.442 156.335 199.634 165.944 200.141 170.598C200.648 175.253 202.737 175.403 205.661 181.49C208 186.359 203.938 187.581 201.615 187.583C201.276 191.388 197.248 191.889 195.277 191.664C189.494 197.381 186.343 190.942 186.642 186.765C186.94 182.587 186.785 177.706 184.267 175.342C181.749 172.979 180.799 181.56 180.322 182.366C179.845 183.172 176.3 186.949 172.874 183.177C170.134 180.16 171.796 177.894 172.97 177.138C174.337 176.424 177.084 174.09 177.142 170.466C177.199 166.843 178.821 162.245 179.625 160.399L178.24 159.796C176.378 159.999 175.244 158.238 179.595 154.938C183.945 151.638 190.689 151.281 191.823 153.041Z" fill="#8B5EC1"/>
</mask>
<g mask="url(#mask4_347_38)">
<path d="M180.273 159.206C179.95 157.753 177.801 155.114 176.766 153.975L166.334 180.914C168.796 184.08 174.008 190.524 175.163 190.971L190.556 196.932L206.897 193.303L208.777 181.308C203.235 191.332 199.859 183.386 197.635 178.653C199.047 182.15 202.568 191.627 197.09 190.059C194.611 189.349 193.341 183.075 193.336 179.754C193.348 188.056 195.166 189.313 192.605 191.641C190.283 193.751 187.019 188.924 187.733 184.222C188.448 179.52 184.772 167.586 180.938 176.059C177.87 182.837 176.7 182.715 174.59 182.451C170.741 180.961 174.125 175.08 177.106 167.383C179.49 161.226 184.535 157.722 186.76 156.739C184.153 156.615 181.349 158.332 180.273 159.206Z" fill="#6D3EA9"/>
</g>
<path d="M58.0234 43.8258C58.0234 39.0723 61.877 35.2188 66.6305 35.2188H155.57C160.324 35.2188 164.177 39.0723 164.177 43.8258V165.472C164.177 170.226 160.324 174.08 155.57 174.08H66.6305C61.877 174.08 58.0234 170.226 58.0234 165.472V43.8258Z" fill="#FDDEC2"/>
<path d="M92.2494 104.939C92.2494 109.851 88.2674 113.833 83.3554 113.833C78.4434 113.833 74.4614 109.851 74.4614 104.939C74.4614 100.027 78.4434 96.0449 83.3554 96.0449C88.2674 96.0449 92.2494 100.027 92.2494 104.939Z" fill="#FAA69A"/>
<path fill-rule="evenodd" clip-rule="evenodd" d="M57.7837 41.4027C57.7837 37.9167 60.6096 35.0908 64.0955 35.0908H164.178C167.664 35.0908 170.49 37.9167 170.49 41.4027V167.944C170.49 171.43 167.664 174.256 164.178 174.256H64.0955C60.6096 174.256 57.7837 171.43 57.7837 167.944V41.4027ZM69.967 46.3241H158.304V163.023H116.568C117.221 156.215 106.06 149.394 91.1123 147.614C83.0683 146.656 75.5229 147.347 69.967 149.227V46.3241Z" fill="#7748AF"/>
<path d="M108.897 163.743C110.259 170.823 123.815 175.079 139.174 173.25C154.533 171.42 165.88 164.198 164.518 157.118C163.156 150.038 149.601 145.782 134.241 147.611C118.882 149.441 107.535 156.663 108.897 163.743Z" fill="#7748AF"/>
<path fill-rule="evenodd" clip-rule="evenodd" d="M84.4311 78.4904C83.9671 78.5935 83.6745 79.0533 83.7776 79.5173C84.0776 80.8674 84.8802 81.9236 85.7058 82.6799C86.5302 83.4352 87.4314 83.9417 88.0425 84.1862C88.4839 84.3627 88.9848 84.148 89.1614 83.7067C89.3379 83.2653 89.1232 82.7644 88.6819 82.5879C88.2529 82.4163 87.5315 82.0179 86.8686 81.4106C86.2068 80.8044 85.6573 80.0405 85.4581 79.1439C85.3549 78.6799 84.8952 78.3873 84.4311 78.4904Z" fill="#4B217A"/>
<path fill-rule="evenodd" clip-rule="evenodd" d="M79.8309 80.4473C79.4153 80.6782 79.2656 81.2022 79.4965 81.6177C80.9486 84.2314 83.7012 84.8687 84.9293 84.8687C85.4047 84.8687 85.79 84.4834 85.79 84.008C85.79 83.5326 85.4047 83.1473 84.9293 83.1473C84.0772 83.1473 82.0455 82.6613 81.0013 80.7817C80.7704 80.3662 80.2464 80.2165 79.8309 80.4473Z" fill="#4B217A"/>
<path d="M152.017 92.5217C152.017 98.5532 147.128 103.443 141.096 103.443C135.065 103.443 130.175 98.5532 130.175 92.5217C130.175 86.4901 135.065 81.6006 141.096 81.6006C147.128 81.6006 152.017 86.4901 152.017 92.5217Z" fill="#672E8A"/>
<path d="M140.659 88.1526C140.659 89.8415 139.29 91.2105 137.601 91.2105C135.913 91.2105 134.543 89.8415 134.543 88.1526C134.543 86.4638 135.913 85.0947 137.601 85.0947C139.29 85.0947 140.659 86.4638 140.659 88.1526Z" fill="white"/>
<path d="M102.092 92.5216C102.092 98.5532 97.2026 103.443 91.1711 103.443C85.1395 103.443 80.25 98.5532 80.25 92.5216C80.25 86.4901 85.1395 81.6006 91.1711 81.6006C97.2026 81.6006 102.092 86.4901 102.092 92.5216Z" fill="#682C86"/>
<path d="M90.7344 88.1526C90.7344 89.8415 89.3654 91.2105 87.6765 91.2105C85.9877 91.2105 84.6187 89.8415 84.6187 88.1526C84.6187 86.4638 85.9877 85.0947 87.6765 85.0947C89.3654 85.0947 90.7344 86.4638 90.7344 88.1526Z" fill="white"/>
<path fill-rule="evenodd" clip-rule="evenodd" d="M126.932 111.537C126.932 111.537 126.932 111.537 126.932 111.537C126.932 117.235 122.082 121.854 116.099 121.854C110.116 121.854 105.266 117.235 105.266 111.537C105.266 111.537 105.266 111.537 105.266 111.537H126.932Z" fill="#DF5744"/>
<path d="M123.725 118.838C121.238 117.212 114.486 114.936 108.519 118.838C110.814 121.133 117.413 124.289 123.725 118.838Z" fill="#EE7A6A"/>
<path d="M70.3603 151.086L115.404 151.086V142.049C97.4511 133.177 77.9902 135.411 70.3603 137.601V151.086Z" fill="#FDD2AB"/>
<path d="M160.734 151.127L115.404 151.127V142.17C132.193 133.376 152.189 134.836 160.734 138.551V151.127Z" fill="#FDD2AB"/>
<path d="M84.8474 156.292H113.109V147.59C96.7469 139.047 78.7488 141.13 71.7949 143.239C71.7949 150.448 77.6387 156.292 84.8474 156.292Z" fill="#7748AF"/>
<path d="M148.18 156.866L116.552 156.866V147.874C132.916 139.047 153.371 140.633 160.735 144.311C160.735 151.245 155.114 156.866 148.18 156.866Z" fill="#7748AF"/>
<path d="M80.5494 160.706C96.1288 162.171 109.778 155.747 113.109 150.842L111.962 148.006C95.1727 139.002 75.3339 139.057 67.7788 142.809C67.0929 151.397 71.9723 159.9 80.5494 160.706Z" fill="#542985"/>
<path d="M150.335 160.907C135.612 162.571 120.126 154.546 117.699 150.644V147.234C134.488 138.23 155.475 139.056 163.03 142.808C163.03 151.307 158.781 159.953 150.335 160.907Z" fill="#542985"/>
<path d="M117.699 174.079V146.249C115.978 147.684 115.914 148.222 115.404 148.784C114.792 147.885 114.543 147.397 113.109 146.249V174.079H117.699Z" fill="#5F2E97"/>
<g filter="url(#filter0_d_347_38)">
<path d="M119.994 162.604C119.994 164.189 121.279 165.473 122.863 165.473C124.448 165.473 125.732 164.189 125.732 162.604C125.732 161.02 124.448 159.735 122.863 159.735C121.279 159.735 119.994 161.02 119.994 162.604Z" fill="#FFCA36"/>
</g>
<g filter="url(#filter1_d_347_38)">
<path d="M104.502 162.604C104.502 164.189 105.786 165.473 107.371 165.473C108.955 165.473 110.24 164.189 110.24 162.604C110.24 161.02 108.955 159.735 107.371 159.735C105.786 159.735 104.502 161.02 104.502 162.604Z" fill="#FFCA36"/>
</g>
<path d="M101.633 92.0441C101.633 98.0757 96.7436 102.965 90.7121 102.965C84.6805 102.965 79.791 98.0757 79.791 92.0441C79.791 86.0126 84.6805 81.123 90.7121 81.123C96.7436 81.123 101.633 86.0126 101.633 92.0441Z" fill="#672E8A"/>
<path d="M95.3211 92.3129C95.3211 95.0066 93.1374 97.1902 90.4437 97.1902C87.7501 97.1902 85.5664 95.0066 85.5664 92.3129C85.5664 89.6192 87.7501 87.4355 90.4437 87.4355C93.1374 87.4355 95.3211 89.6192 95.3211 92.3129Z" fill="#4D2164"/>
<path d="M98.7645 85.9967C98.7645 87.7397 97.3515 89.1527 95.6086 89.1527C93.8656 89.1527 92.4526 87.7397 92.4526 85.9967C92.4526 84.2538 93.8656 82.8408 95.6086 82.8408C97.3515 82.8408 98.7645 84.2538 98.7645 85.9967Z" fill="white"/>
<path d="M86.1407 96.9048C86.1407 98.014 85.2415 98.9131 84.1323 98.9131C83.0232 98.9131 82.124 98.014 82.124 96.9048C82.124 95.7956 83.0232 94.8965 84.1323 94.8965C85.2415 94.8965 86.1407 95.7956 86.1407 96.9048Z" fill="white"/>
<path d="M80.3925 157.663C99.2554 159.545 108.216 153.337 113.109 150.907V146.283C96.3198 137.278 75.3334 138.896 67.7783 142.648C67.7783 150.164 72.9142 156.917 80.3925 157.663Z" fill="#5F2E97"/>
<path d="M150.416 157.663C131.553 159.545 122.592 153.337 117.699 150.907V146.283C134.488 137.278 155.475 138.896 163.03 142.648C163.03 150.164 157.894 156.917 150.416 157.663Z" fill="#5F2E97"/>
<path fill-rule="evenodd" clip-rule="evenodd" d="M161.778 46.1211L153.702 77.2267C153.219 79.0883 151.076 79.9495 149.434 78.9422L126.581 64.9256C126.445 64.8421 126.311 64.7561 126.179 64.6676L125.886 64.4881C123.639 63.1097 121.982 61.0384 121.102 58.6625L110.099 58.6625C109.414 60.4932 108.267 62.1414 106.744 63.4288C106.159 63.9884 105.51 64.4913 104.802 64.9256L81.949 78.9422C80.3067 79.9495 78.164 79.0883 77.6807 77.2267L69.6048 46.1211H161.778Z" fill="#FDD2AB"/>
<path d="M152.797 81.5252L149.259 78.8293L151.554 49.2783H160.735V138.792H155.284V86.5458C155.284 84.5759 154.364 82.719 152.797 81.5252Z" fill="#FDD2AB"/>
<path d="M70.3608 75.672C72.656 81.4101 78.9679 79.2105 81.8369 77.3935L70.3608 46.1211V75.672Z" fill="#FDD2AB"/>
<path d="M157.663 104.939C157.663 109.851 153.681 113.833 148.769 113.833C143.857 113.833 139.875 109.851 139.875 104.939C139.875 100.027 143.857 96.0449 148.769 96.0449C153.681 96.0449 157.663 100.027 157.663 104.939Z" fill="#FAA69A"/>
<path fill-rule="evenodd" clip-rule="evenodd" d="M147.835 78.4904C148.3 78.5935 148.592 79.0533 148.489 79.5173C148.189 80.8674 147.386 81.9236 146.561 82.6799C145.736 83.4352 144.835 83.9417 144.224 84.1862C143.783 84.3627 143.282 84.148 143.105 83.7067C142.929 83.2653 143.143 82.7644 143.585 82.5879C144.014 82.4163 144.735 82.0179 145.398 81.4106C146.06 80.8044 146.609 80.0405 146.809 79.1439C146.912 78.6799 147.371 78.3873 147.835 78.4904Z" fill="#4B217A"/>
<path fill-rule="evenodd" clip-rule="evenodd" d="M152.434 80.4473C152.85 80.6782 153 81.2022 152.769 81.6177C151.317 84.2314 148.564 84.8687 147.336 84.8687C146.86 84.8687 146.475 84.4834 146.475 84.008C146.475 83.5326 146.86 83.1473 147.336 83.1473C148.188 83.1473 150.22 82.6613 151.264 80.7817C151.495 80.3662 152.019 80.2165 152.434 80.4473Z" fill="#4B217A"/>
<path d="M152.127 92.6183C152.127 98.6499 147.238 103.539 141.206 103.539C135.175 103.539 130.285 98.6499 130.285 92.6183C130.285 86.5868 135.175 81.6973 141.206 81.6973C147.238 81.6973 152.127 86.5868 152.127 92.6183Z" fill="#672E8A"/>
<path d="M145.816 92.8871C145.816 95.5808 143.632 97.7644 140.938 97.7644C138.245 97.7644 136.061 95.5808 136.061 92.8871C136.061 90.1934 138.245 88.0098 140.938 88.0098C143.632 88.0098 145.816 90.1934 145.816 92.8871Z" fill="#4D2164"/>
<path d="M149.258 86.5758C149.258 88.3188 147.845 89.7318 146.102 89.7318C144.359 89.7318 142.946 88.3188 142.946 86.5758C142.946 84.8329 144.359 83.4199 146.102 83.4199C147.845 83.4199 149.258 84.8329 149.258 86.5758Z" fill="white"/>
<path d="M136.635 97.479C136.635 98.5882 135.736 99.4873 134.626 99.4873C133.517 99.4873 132.618 98.5882 132.618 97.479C132.618 96.3699 133.517 95.4707 134.626 95.4707C135.736 95.4707 136.635 96.3699 136.635 97.479Z" fill="white"/>
<path d="M112.846 103.093C115.603 105.61 118.19 104.53 119.711 103.127C120.216 102.661 120.041 101.866 119.422 101.566C117.012 100.401 115.326 100.269 113.056 101.499C112.455 101.824 112.341 102.633 112.846 103.093Z" fill="#FDD2AB"/>
<path fill-rule="evenodd" clip-rule="evenodd" d="M54.0071 39.8317C54.3556 39.5704 54.7373 39.3463 55.1476 39.1666L55.7285 38.9121V171.754C55.0964 171.555 54.5172 171.253 54.0071 170.871V39.8317Z" fill="#DEDEDE"/>
<path d="M163.03 46.1211H160.735V143.668H163.03V46.1211Z" fill="#5F2E97"/>
<path d="M67.7788 43.8271L67.7788 46.1224L163.03 46.1224L163.03 43.8271L67.7788 43.8271Z" fill="#5F2E97"/>
<path d="M70.0737 46.1211H67.7785V143.094H70.0737V46.1211Z" fill="#5F2E97"/>
<path fill-rule="evenodd" clip-rule="evenodd" d="M165.899 35.4531V166.33C165.899 170.353 162.858 173.675 152.989 174.363C152.903 174.369 152.813 174.375 152.72 174.381H164.178C167.664 174.381 170.49 171.555 170.49 168.069V41.5274C170.49 38.6382 168.549 36.2024 165.899 35.4531Z" fill="#8B5EC1"/>
<path d="M101.319 30.7038C105.645 31.8622 108.716 35.6414 109.259 40.0874L110.404 49.4587C110.952 53.9426 108.818 58.3307 104.953 60.6691L83.5697 73.6063C80.749 75.3129 77.0568 74.2987 75.6111 71.3357C69.3072 58.4161 67.1035 49.1656 66.3537 35.0771C66.2075 32.3305 68.0975 29.8833 70.8014 29.3797C81.663 27.3565 89.7611 27.6094 101.319 30.7038Z" fill="#5F2E97"/>
<path fill-rule="evenodd" clip-rule="evenodd" d="M76.7309 72.9468C76.478 60.7936 96.4441 52.2418 110.964 51.3428C110.682 54.9587 108.694 58.2858 105.524 60.2309L82.9984 74.0545C82.7988 74.177 82.5784 74.2797 82.3517 74.3383C80.3231 74.8622 78.4403 74.3174 76.7309 72.9468Z" fill="#502483"/>
<path d="M85.6909 42.6827C90.7873 39.1153 100.47 39.1151 113.212 44.3486C96.4049 40.2102 87.911 42.1704 85.6955 42.6817L85.6909 42.6827Z" fill="#4B217A"/>
<path fill-rule="evenodd" clip-rule="evenodd" d="M77.8759 73.4104C84.6522 63.4423 100.915 55.8589 111.271 52.244C111.323 51.9269 111.362 51.6067 111.387 51.2842C96.8676 52.1832 76.9015 60.735 77.1544 72.8882C77.3916 73.0784 77.6321 73.2526 77.8759 73.4104Z" fill="#4B217A"/>
<path d="M132.208 31.0016C127.881 32.16 124.811 35.9392 124.268 40.3853L123.123 49.7565C122.575 54.2404 124.709 58.6286 128.574 60.9669L149.957 73.9042C152.778 75.6108 156.47 74.5965 157.916 71.6336C164.22 58.7139 166.423 49.4634 167.173 35.3749C167.319 32.6284 165.429 30.1812 162.725 29.6775C151.864 27.6544 143.766 27.9073 132.208 31.0016Z" fill="#5F2E97"/>
<path fill-rule="evenodd" clip-rule="evenodd" d="M156.795 73.2407C157.048 61.0875 137.082 52.5358 122.563 51.6367C122.845 55.2526 124.832 58.5798 128.002 60.5248L150.528 74.3484C150.728 74.4709 150.948 74.5737 151.175 74.6322C153.203 75.1561 155.086 74.6113 156.795 73.2407Z" fill="#502483"/>
<path d="M147.835 42.9786C142.739 39.4112 133.056 39.4109 120.315 44.6445C137.121 40.5061 145.615 42.4663 147.831 42.9776L147.835 42.9786Z" fill="#4B217A"/>
<path fill-rule="evenodd" clip-rule="evenodd" d="M155.649 73.7033C148.873 63.7352 132.61 56.1519 122.254 52.537C122.202 52.2199 122.163 51.8997 122.138 51.5771C136.658 52.4762 156.624 61.028 156.371 73.1811C156.134 73.3713 155.893 73.5456 155.649 73.7033Z" fill="#4B217A"/>
<path d="M104.281 40.8931C104.281 34.555 109.419 29.417 115.757 29.417L117.837 29.417C124.175 29.417 129.313 34.555 129.313 40.8931L129.313 51.5801C129.313 53.1647 128.029 54.4492 126.444 54.4492L107.15 54.4492C105.566 54.4492 104.281 53.1647 104.281 51.5802L104.281 40.8931Z" fill="#FFBD00"/>
<path d="M126.881 49.5656V40.3848C125.045 51.0644 117.134 50.8234 114.831 51.8609H124.586C125.853 51.8609 126.881 50.8333 126.881 49.5656Z" fill="#FFD966"/>
<path d="M140.078 195.883H121.716V198.178H140.078V195.883Z" fill="#9F78CD"/>
<path d="M90.7305 195.883H109.092V198.178H90.7305V195.883Z" fill="#9F78CD"/>
<path d="M144.094 239.207C144.094 232.321 147.537 228.018 148.685 226.87C156.144 231.461 153.849 239.494 153.849 240.641C150.98 240.928 146.389 240.068 144.094 239.207Z" fill="#D7DAE6"/>
<path d="M86.7144 239.207C86.7144 232.321 83.2716 228.018 82.124 226.87C74.6643 231.461 76.9596 239.494 76.9595 240.641C79.8285 240.928 84.4192 240.068 86.7144 239.207Z" fill="#D7DAE6"/>
<path d="M149.833 226.007C141.512 220.843 135.487 213.383 135.2 212.522H132.331C132.236 213.288 133.135 214.99 132.905 215.678C132.676 216.367 135.487 220.938 136.922 223.138L146.103 230.597C146.375 229.893 147.537 227.728 149.833 226.007Z" fill="#502483"/>
<path d="M80.9761 226.007C89.2962 220.843 95.3212 213.383 95.6081 212.522H98.4771C98.5728 213.288 97.6738 214.99 97.9033 215.678C98.1328 216.367 95.3212 220.938 93.8867 223.138L84.7058 230.597C84.4333 229.893 83.2713 227.728 80.9761 226.007Z" fill="#502483"/>
<path d="M146.103 226.869C147.48 223.655 152.032 223.043 154.136 223.139L155.284 224.287C150.119 224.86 148.685 227.156 147.537 228.016L146.103 226.869Z" fill="#502483"/>
<path d="M84.7058 226.869C83.3286 223.655 78.7765 223.043 76.6725 223.139L75.5249 224.287C80.6891 224.86 82.1237 227.156 83.2713 228.016L84.7058 226.869Z" fill="#502483"/>
<path d="M134.349 215.356L133.766 214.531L132.618 212.522H121.716V227.728C121.945 228.876 122.672 229.832 122.864 230.024C129.175 233.466 138.93 237.77 144.094 239.204C143.865 235.532 145.72 231.267 146.963 229.163L140.716 222.915C138.382 220.581 136.252 218.053 134.349 215.356Z" fill="#5E2A99"/>
<path d="M96.4599 215.356L97.0427 214.531L98.1903 212.522H109.093V227.728C108.863 228.876 108.136 229.832 107.945 230.024C101.633 233.466 91.8785 237.77 86.7142 239.204C86.9438 235.532 85.0885 231.267 83.8452 229.163L90.093 222.915C92.4267 220.581 94.5567 218.053 96.4599 215.356Z" fill="#5E2A99"/>
<path d="M121.716 228.015V220.269C127.168 224.285 128.506 229.163 128.602 232.892C126.785 232.032 123.036 230.195 122.577 229.736C122.118 229.277 121.812 228.397 121.716 228.015Z" fill="#502483"/>
<path d="M109.092 228.015V220.269C103.641 224.285 102.302 229.163 102.207 232.892C104.024 232.032 107.772 230.195 108.231 229.736C108.691 229.277 108.997 228.397 109.092 228.015Z" fill="#502483"/>
<path d="M33.0127 149.024C36.8763 135.761 49.1731 118.153 55.8148 118.153L55.8147 127.438L55.8147 133.628C52.7639 133.846 44.2685 147.584 41.208 153.691C37.7206 153.749 34.2914 150.603 33.0127 149.024Z" fill="#FDDEC2"/>
<path d="M29.8038 148.143C28.7408 149.438 29.7698 150.825 30.4171 151.356C26.8226 151.114 20.5603 160.062 19.5212 164.627C18.4822 169.193 16.3901 169.101 12.7854 174.812C9.90166 179.38 13.7963 181.06 16.1041 181.329C16.0033 185.148 19.9463 186.11 21.9304 186.113C27.0175 192.457 30.8879 186.423 31.0718 182.239C31.2557 178.055 31.9712 173.223 34.7446 171.165C37.518 169.107 37.4738 177.741 37.8554 178.596C38.2371 179.452 41.324 183.612 45.1604 180.259C48.2296 177.577 46.839 175.135 45.76 174.249C44.4846 173.382 42.0236 170.748 42.3834 167.141C42.7431 163.535 41.6609 158.781 41.0748 156.855L42.5195 156.416C44.3458 156.831 45.6745 155.213 41.7323 151.434C37.7902 147.656 31.1326 146.525 29.8038 148.143Z" fill="#8B5EC1"/>
<mask id="mask5_347_38" style="mask-type:alpha" maskUnits="userSpaceOnUse" x="11" y="147" width="37" height="42">
<path d="M29.8038 148.144C28.7408 149.439 29.7698 150.826 30.4171 151.357C26.8226 151.115 20.5603 160.063 19.5213 164.628C18.4822 169.194 16.3901 169.102 12.7854 174.812C9.90167 179.381 13.7963 181.061 16.1041 181.33C16.0033 185.149 19.9463 186.111 21.9305 186.114C27.0175 192.458 30.8879 186.424 31.0718 182.24C31.2557 178.056 31.9712 173.224 34.7446 171.166C37.518 169.108 37.4738 177.742 37.8554 178.597C38.2371 179.453 41.324 183.613 45.1604 180.26C48.2296 177.578 46.839 175.136 45.76 174.25C44.4846 173.383 42.0236 170.749 42.3834 167.142C42.7431 163.536 41.6609 158.782 41.0748 156.856L42.5195 156.417C44.3458 156.832 45.6745 155.214 41.7324 151.435C37.7902 147.657 31.1326 146.526 29.8038 148.144Z" fill="#DEDEDE"/>
</mask>
<g mask="url(#mask5_347_38)">
<path d="M40.5681 155.597C41.0556 154.192 43.4943 151.817 44.6528 150.805L51.9175 178.765C49.1079 181.627 43.1891 187.429 41.9909 187.74L26.014 191.891L10.1984 186.407L9.71111 174.275C14.0629 184.87 18.3311 177.365 21.0844 172.919C19.2799 176.23 14.6919 185.239 20.3137 184.311C22.8586 183.892 24.8413 177.805 25.228 174.507C24.2614 182.753 22.3108 183.793 24.587 186.399C26.6509 188.763 30.4486 184.343 30.2796 179.59C30.1106 174.837 35.1349 163.405 37.9693 172.262C40.2368 179.348 41.4131 179.362 43.5399 179.343C47.5341 178.305 44.8491 172.074 42.7735 164.085C41.113 157.694 36.5045 153.633 34.4078 152.401C37.0119 152.577 39.5997 154.605 40.5681 155.597Z" fill="#6D3EA9"/>
</g>
<path fill-rule="evenodd" clip-rule="evenodd" d="M53.1749 119.003C54.0011 118.624 55.0485 118.12 55.7617 118.12V127.622V133.633C53.9457 133.763 49.9313 138.947 46.5516 144.196C47.7997 135.781 50.9956 124.871 53.1749 119.003Z" fill="#FDD2AB"/>
<defs>
<filter id="filter0_d_347_38" x="119.994" y="159.735" width="5.73828" height="7.23828" filterUnits="userSpaceOnUse" color-interpolation-filters="sRGB">
<feFlood flood-opacity="0" result="BackgroundImageFix"/>
<feColorMatrix in="SourceAlpha" type="matrix" values="0 0 0 0 0 0 0 0 0 0 0 0 0 0 0 0 0 0 127 0" result="hardAlpha"/>
<feOffset dy="1.5"/>
<feColorMatrix type="matrix" values="0 0 0 0 0.866667 0 0 0 0 0.643137 0 0 0 0 0 0 0 0 1 0"/>
<feBlend mode="normal" in2="BackgroundImageFix" result="effect1_dropShadow_347_38"/>
<feBlend mode="normal" in="SourceGraphic" in2="effect1_dropShadow_347_38" result="shape"/>
</filter>
<filter id="filter1_d_347_38" x="104.501" y="159.735" width="5.73828" height="7.23828" filterUnits="userSpaceOnUse" color-interpolation-filters="sRGB">
<feFlood flood-opacity="0" result="BackgroundImageFix"/>
<feColorMatrix in="SourceAlpha" type="matrix" values="0 0 0 0 0 0 0 0 0 0 0 0 0 0 0 0 0 0 127 0" result="hardAlpha"/>
<feOffset dy="1.5"/>
<feColorMatrix type="matrix" values="0 0 0 0 0.866667 0 0 0 0 0.643137 0 0 0 0 0 0 0 0 1 0"/>
<feBlend mode="normal" in2="BackgroundImageFix" result="effect1_dropShadow_347_38"/>
<feBlend mode="normal" in="SourceGraphic" in2="effect1_dropShadow_347_38" result="shape"/>
</filter>
</defs>
</svg>
