<svg width="1001" height="311" viewBox="0 0 1001 311" fill="none" xmlns="http://www.w3.org/2000/svg">
<path d="M1.69141 1.06738H310.729V310.105H1.69141V1.06738Z" fill="#F8F3FF"/>
<path fill-rule="evenodd" clip-rule="evenodd" d="M310.729 309.702H311.131L311.131 0.664065L285.378 0.664062V1.06649L27.8469 1.06648H1.69141L1.69141 1.06647L1.69141 26.8196L1.69141 310.104H2.0938H27.8469L310.729 310.104V309.702ZM285.378 284.351V26.8196L27.8469 26.8196V284.351L285.378 284.351Z" fill="#F3ACAC"/>
<path fill-rule="evenodd" clip-rule="evenodd" d="M1.86383 309.656L310.901 1.42358L310.617 1.13867L1.57968 309.371L1.86383 309.656Z" fill="black"/>
<path fill-rule="evenodd" clip-rule="evenodd" d="M310.585 309.644L1.54785 1.41088L1.83201 1.12598L310.87 309.359L310.585 309.644Z" fill="black"/>
<path fill-rule="evenodd" clip-rule="evenodd" d="M254.392 40.0977H58.0241C48.468 40.0977 40.7212 47.8445 40.7212 57.4006V253.768C40.7212 263.324 48.468 271.071 58.0241 271.071H254.392C263.948 271.071 271.695 263.324 271.695 253.768V57.4006C271.695 47.8445 263.948 40.0977 254.392 40.0977ZM58.0241 39.6953C48.2458 39.6953 40.3188 47.6222 40.3188 57.4006V253.768C40.3188 263.547 48.2458 271.473 58.0241 271.473H254.392C264.17 271.473 272.097 263.547 272.097 253.768V57.4006C272.097 47.6222 264.17 39.6953 254.392 39.6953H58.0241Z" fill="black"/>
<path fill-rule="evenodd" clip-rule="evenodd" d="M156.209 283.944C227.103 283.944 284.573 226.474 284.573 155.581C284.573 84.688 227.103 27.2178 156.209 27.2178C85.3164 27.2178 27.8462 84.688 27.8462 155.581C27.8462 226.474 85.3164 283.944 156.209 283.944ZM156.209 284.347C227.325 284.347 284.975 226.696 284.975 155.581C284.975 84.4658 227.325 26.8154 156.209 26.8154C85.0942 26.8154 27.4438 84.4658 27.4438 155.581C27.4438 226.696 85.0942 284.347 156.209 284.347Z" fill="black"/>
<path fill-rule="evenodd" clip-rule="evenodd" d="M156.209 219.569C191.545 219.569 220.19 190.924 220.19 155.589C220.19 120.253 191.545 91.6084 156.209 91.6084C120.874 91.6084 92.2291 120.253 92.2291 155.589C92.2291 190.924 120.874 219.569 156.209 219.569ZM156.209 219.972C191.767 219.972 220.592 191.147 220.592 155.589C220.592 120.031 191.767 91.2061 156.209 91.2061C120.652 91.2061 91.8267 120.031 91.8267 155.589C91.8267 191.147 120.652 219.972 156.209 219.972Z" fill="black"/>
<path fill-rule="evenodd" clip-rule="evenodd" d="M241.918 27.2178H71.3039C61.7478 27.2178 54.001 34.9646 54.001 44.5207V266.239C54.001 275.795 61.7478 283.542 71.3039 283.542H241.918C251.475 283.542 259.221 275.795 259.221 266.239V44.5207C259.221 34.9646 251.475 27.2178 241.918 27.2178ZM71.3039 26.8154C61.5256 26.8154 53.5986 34.7424 53.5986 44.5207V266.239C53.5986 276.017 61.5256 283.944 71.3039 283.944H241.918C251.697 283.944 259.624 276.017 259.624 266.239V44.5207C259.624 34.7424 251.697 26.8154 241.918 26.8154H71.3039Z" fill="black"/>
<path fill-rule="evenodd" clip-rule="evenodd" d="M284.604 240.905L284.604 70.6926C284.604 61.1365 276.857 53.3897 267.301 53.3897L44.7779 53.3897C35.2218 53.3897 27.475 61.1365 27.475 70.6926L27.475 240.905C27.475 250.461 35.2218 258.208 44.7779 258.208L267.301 258.208C276.857 258.208 284.604 250.461 284.604 240.905ZM285.006 70.6926C285.006 60.9142 277.079 52.9873 267.301 52.9873L44.7779 52.9873C34.9996 52.9873 27.0727 60.9142 27.0727 70.6926L27.0727 240.905C27.0727 250.683 34.9996 258.61 44.7779 258.61L267.301 258.61C277.079 258.61 285.006 250.683 285.006 240.905L285.006 70.6926Z" fill="black"/>
<path fill-rule="evenodd" clip-rule="evenodd" d="M155.808 310.909V0.664062H156.21V310.909H155.808Z" fill="black"/>
<path fill-rule="evenodd" clip-rule="evenodd" d="M311.532 156.19L1.2876 156.19V155.788L311.532 155.788V156.19Z" fill="black"/>
<path fill-rule="evenodd" clip-rule="evenodd" d="M311.129 104.281L0.884766 104.281V103.879L311.129 103.879V104.281Z" fill="black"/>
<path fill-rule="evenodd" clip-rule="evenodd" d="M312.335 207.695L2.09033 207.695V207.293L312.335 207.293V207.695Z" fill="black"/>
<path d="M53.5986 26.8154H233.871V52.5686H53.5986V26.8154Z" fill="#7E40C7"/>
<path d="M53.5986 258.6H233.871V284.353H53.5986V258.6Z" fill="#7E40C7"/>
<path d="M78.9497 52.5723L78.9497 258.597L53.1966 258.597L53.1966 52.5723L78.9497 52.5723Z" fill="#7E40C7"/>
<path d="M117.579 52.1689L117.579 258.596L91.826 258.596L91.826 52.1689L117.579 52.1689Z" fill="#7E40C7"/>
<path d="M259.254 52.9873L259.254 258.61L233.501 258.61L233.501 52.9873L259.254 52.9873Z" fill="#7E40C7"/>
<path fill-rule="evenodd" clip-rule="evenodd" d="M259.656 52.9846L233.501 52.9846L233.501 26.8299C233.568 26.8294 233.635 26.8291 233.702 26.8291C248.037 26.8291 259.657 38.4492 259.657 52.7834C259.657 52.8506 259.656 52.9176 259.656 52.9846Z" fill="#7E40C7"/>
<path fill-rule="evenodd" clip-rule="evenodd" d="M233.501 284.565L233.501 258.611L259.253 258.611C259.254 258.678 259.254 258.744 259.254 258.811C259.254 273.035 247.813 284.565 233.699 284.565C233.633 284.565 233.567 284.565 233.501 284.565Z" fill="#7E40C7"/>
<path d="M143.734 207.092H208.117V232.845H143.734V207.092Z" fill="#FECE00"/>
<path d="M432.973 0.664062H470.472V6.02113H432.973V0.664062Z" fill="#7E40C7"/>
<path d="M432.972 48.8789H470.472V54.236H432.972V48.8789Z" fill="#7E40C7"/>
<path d="M438.244 6.02539L438.244 48.8819L432.887 48.8819L432.887 6.02539L438.244 6.02539Z" fill="#7E40C7"/>
<path d="M446.281 5.93848L446.281 48.8787L440.924 48.8787L440.924 5.93848L446.281 5.93848Z" fill="#7E40C7"/>
<path d="M475.744 6.10254L475.744 48.8754L470.387 48.8754L470.387 6.10254L475.744 6.10254Z" fill="#7E40C7"/>
<path fill-rule="evenodd" clip-rule="evenodd" d="M475.829 6.10483L470.388 6.10483L470.388 0.664221C470.402 0.664115 470.416 0.664062 470.43 0.664062C473.412 0.664062 475.829 3.08124 475.829 6.06298C475.829 6.07695 475.829 6.0909 475.829 6.10483Z" fill="#7E40C7"/>
<path fill-rule="evenodd" clip-rule="evenodd" d="M470.387 54.2782L470.387 48.8794L475.744 48.8794C475.744 48.8932 475.744 48.9071 475.744 48.9209C475.744 51.8797 473.364 54.2783 470.428 54.2783C470.415 54.2783 470.401 54.2783 470.387 54.2782Z" fill="#7E40C7"/>
<path d="M451.722 38.166H465.115V43.5231H451.722V38.166Z" fill="#FECE00"/>
<path d="M735.62 3.49805H778.476V8.85512H735.62V3.49805Z" fill="#7E40C7"/>
<path d="M738.215 23.5068L738.215 46.3581L732.858 46.3581L732.858 23.5068L738.215 23.5068Z" fill="#7E40C7"/>
<path d="M735.534 8.8584L735.534 18.1496L730.177 18.1496L730.177 8.8584L735.534 8.8584Z" fill="#7E40C7"/>
<path d="M783.917 8.8584L783.917 18.1496L778.559 18.1496L778.559 8.8584L783.917 8.8584Z" fill="#7E40C7"/>
<path d="M754.285 38.2354L754.285 49.0332L748.928 49.0332L748.928 38.2354L754.285 38.2354Z" fill="#FECE00"/>
<path d="M764.999 38.2354L764.999 49.0332L759.641 49.0332L759.641 38.2354L764.999 38.2354Z" fill="#FECE00"/>
<path fill-rule="evenodd" clip-rule="evenodd" d="M732.855 46.3558L738.212 46.3558L738.212 51.7127C738.198 51.7128 738.185 51.7129 738.171 51.7129C735.235 51.7129 732.855 49.3329 732.855 46.397C732.855 46.3833 732.855 46.3695 732.855 46.3558Z" fill="#7E40C7"/>
<path d="M775.714 23.085L775.714 47.0244L781.071 47.0244L781.071 23.085L775.714 23.085Z" fill="#7E40C7"/>
<path fill-rule="evenodd" clip-rule="evenodd" d="M781.071 46.3558L775.714 46.3558L775.714 51.7127C775.727 51.7128 775.741 51.7129 775.755 51.7129C778.691 51.7129 781.071 49.3329 781.071 46.397C781.071 46.3833 781.071 46.3695 781.071 46.3558Z" fill="#7E40C7"/>
<path fill-rule="evenodd" clip-rule="evenodd" d="M735.622 3.49918V8.9398H730.182C730.182 8.92586 730.182 8.91191 730.182 8.89794C730.182 5.9162 732.599 3.49902 735.581 3.49902C735.595 3.49902 735.608 3.49908 735.622 3.49918Z" fill="#7E40C7"/>
<path d="M746.249 4.08594H751.606V19.9897H746.249V4.08594Z" fill="#7E40C7"/>
<path fill-rule="evenodd" clip-rule="evenodd" d="M778.476 3.49821V8.93882H783.916C783.916 8.92488 783.917 8.91093 783.917 8.89697C783.917 5.91523 781.499 3.49805 778.518 3.49805C778.504 3.49805 778.49 3.4981 778.476 3.49821Z" fill="#7E40C7"/>
<path d="M762.322 4.08594H767.679V18.2319H762.322V4.08594Z" fill="#7E40C7"/>
<path fill-rule="evenodd" clip-rule="evenodd" d="M764.999 38.3701C764.542 34.3367 761.118 31.2025 756.963 31.2025C752.807 31.2025 749.384 34.3367 748.927 38.3701L754.287 38.3701C754.345 36.8978 755.521 35.7226 756.963 35.7226C758.405 35.7226 759.581 36.8978 759.639 38.3701L764.999 38.3701Z" fill="#FECE00"/>
<path fill-rule="evenodd" clip-rule="evenodd" d="M762.404 18.1465C763.014 23.5322 767.585 27.7171 773.134 27.7171C778.683 27.7171 783.254 23.5322 783.863 18.1465H778.586C778.015 20.6393 775.784 22.4991 773.118 22.4991C770.453 22.4991 768.221 20.6393 767.651 18.1465H762.404Z" fill="#7E40C7"/>
<path fill-rule="evenodd" clip-rule="evenodd" d="M746.249 18.1465C746.859 23.5322 751.43 27.7171 756.979 27.7171C762.527 27.7171 767.099 23.5322 767.708 18.1465H762.333C761.75 20.5483 759.586 22.3317 757.005 22.3317C754.424 22.3317 752.26 20.5483 751.677 18.1465H746.249Z" fill="#7E40C7"/>
<path fill-rule="evenodd" clip-rule="evenodd" d="M730.179 18.0645C730.788 23.4501 735.36 27.635 740.908 27.635C746.457 27.635 751.028 23.4501 751.638 18.0645H746.349C745.764 20.5129 743.562 22.3334 740.935 22.3334C738.307 22.3334 736.105 20.5129 735.52 18.0645H730.179Z" fill="#7E40C7"/>
<path d="M738.215 46.3564H775.715V51.7135H738.215V46.3564Z" fill="#7E40C7"/>
<path fill-rule="evenodd" clip-rule="evenodd" d="M865.375 24.8546C872.055 24.8546 877.47 19.4393 877.47 12.7593C877.47 6.07929 872.055 0.664062 865.375 0.664062C858.695 0.664062 853.279 6.07929 853.279 12.7593C853.279 19.4393 858.695 24.8546 865.375 24.8546ZM865.416 19.4975C869.115 19.4975 872.113 16.4995 872.113 12.8012C872.113 9.10289 869.115 6.10484 865.416 6.10484C861.718 6.10484 858.72 9.10289 858.72 12.8012C858.72 16.4995 861.718 19.4975 865.416 19.4975Z" fill="#FECE00"/>
<path d="M849.347 48.959H865.418V54.3161H849.347V48.959Z" fill="#7E40C7"/>
<path d="M865.418 48.959H881.489V54.3161H865.418V48.959Z" fill="#7E40C7"/>
<path fill-rule="evenodd" clip-rule="evenodd" d="M843.989 48.9598C843.989 48.9458 843.989 48.9318 843.989 48.9178C843.989 37.0718 853.583 27.4688 865.418 27.4688C877.252 27.4688 886.846 37.0718 886.846 48.9178C886.846 48.9318 886.846 48.9458 886.846 48.9598H881.488C881.432 40.1235 874.259 32.9776 865.418 32.9776C856.577 32.9776 849.403 40.1235 849.347 48.9598H843.989Z" fill="#7E40C7"/>
<path fill-rule="evenodd" clip-rule="evenodd" d="M843.989 48.9632L849.346 48.9632L849.346 54.3202C849.333 54.3203 849.319 54.3203 849.305 54.3203C846.369 54.3203 843.989 51.9403 843.989 49.0045C843.989 48.9907 843.989 48.977 843.989 48.9632Z" fill="#7E40C7"/>
<path fill-rule="evenodd" clip-rule="evenodd" d="M886.846 48.9632L881.489 48.9632L881.489 54.3202C881.502 54.3203 881.516 54.3203 881.53 54.3203C884.466 54.3203 886.846 51.9403 886.846 49.0045C886.846 48.9907 886.846 48.977 886.846 48.9632Z" fill="#7E40C7"/>
<path d="M952.625 16.3516H964.428V21.7086H952.625V16.3516Z" fill="#7E40C7"/>
<path d="M963.258 16.5615L972.338 12.2445L974.638 17.0826L965.558 21.3996L963.258 16.5615Z" fill="#7E40C7"/>
<path d="M963.509 40.1953L972.201 44.3274L974.501 39.4893L965.809 35.3572L963.509 40.1953Z" fill="#7E40C7"/>
<path d="M976.65 14.8467L976.65 41.7994L971.293 41.7994L971.293 14.8467L976.65 14.8467Z" fill="#7E40C7"/>
<path d="M952.625 40.2119H964.428V34.8548H952.625V40.2119Z" fill="#7E40C7"/>
<path d="M952.625 21.542L952.625 34.851L947.268 34.851L947.268 21.542L952.625 21.542Z" fill="#7E40C7"/>
<path fill-rule="evenodd" clip-rule="evenodd" d="M952.627 16.3517V21.7086H947.27C947.27 21.6949 947.27 21.6812 947.27 21.6674C947.27 18.7316 949.65 16.3516 952.586 16.3516C952.6 16.3516 952.613 16.3516 952.627 16.3517Z" fill="#7E40C7"/>
<path fill-rule="evenodd" clip-rule="evenodd" d="M952.627 40.2118V34.8548H947.27C947.27 34.8686 947.27 34.8823 947.27 34.8961C947.27 37.8319 949.65 40.2119 952.586 40.2119C952.6 40.2119 952.613 40.2119 952.627 40.2118Z" fill="#7E40C7"/>
<path fill-rule="evenodd" clip-rule="evenodd" d="M984.249 46.7354C993.545 45.6814 1000.77 37.7907 1000.77 28.213C1000.77 18.6353 993.545 10.7445 984.249 9.69062L984.249 15.023C990.622 16.0692 995.484 21.5871 995.484 28.2371C995.484 34.887 990.622 40.4049 984.249 41.4512L984.249 46.7354ZM982.14 9.57104C982.135 9.57104 982.13 9.57104 982.126 9.57104C982.121 9.57104 982.116 9.57104 982.112 9.57104L982.14 9.57104Z" fill="#FECE00"/>
<path fill-rule="evenodd" clip-rule="evenodd" d="M980.817 38.7871C986.178 38.1803 990.343 33.6303 990.343 28.1073C990.343 22.5844 986.178 18.0344 980.817 17.4276L980.817 23.1356C983.037 23.7044 984.678 25.7186 984.678 28.1162C984.678 30.5137 983.037 32.5279 980.817 33.0967L980.817 38.7871ZM979.612 17.3588C979.606 17.3588 979.601 17.3588 979.595 17.3588C979.589 17.3588 979.583 17.3588 979.577 17.3588L979.612 17.3588Z" fill="#FECE00"/>
<path d="M981.087 33.0952C982.659 33.0952 983.933 34.3694 983.933 35.9412C983.933 37.5129 982.659 38.7871 981.087 38.7871C979.515 38.7871 978.241 37.5129 978.241 35.9412C978.241 34.3694 979.515 33.0952 981.087 33.0952Z" fill="#FECE00"/>
<path d="M981.005 17.3562C982.577 17.3562 983.851 18.6492 983.851 20.244C983.851 21.8389 982.577 23.1318 981.005 23.1318C979.433 23.1318 978.159 21.8389 978.159 20.244C978.159 18.6492 979.433 17.3562 981.005 17.3562Z" fill="#FECE00"/>
<path d="M967.024 19.0301C967.024 20.5094 965.788 21.7086 964.262 21.7086C962.737 21.7086 961.5 20.5094 961.5 19.0301C961.5 17.5508 962.737 16.3516 964.262 16.3516C965.788 16.3516 967.024 17.5508 967.024 19.0301Z" fill="#7E40C7"/>
<path d="M976.65 14.5992C976.65 16.1247 975.376 17.3614 973.804 17.3614C972.233 17.3614 970.958 16.1247 970.958 14.5992C970.958 13.0736 972.233 11.8369 973.804 11.8369C975.376 11.8369 976.65 13.0736 976.65 14.5992Z" fill="#7E40C7"/>
<path d="M976.651 41.7129C976.651 43.3309 975.302 44.6425 973.638 44.6425C971.974 44.6425 970.625 43.3309 970.625 41.7129C970.625 40.0949 971.974 38.7832 973.638 38.7832C975.302 38.7832 976.651 40.0949 976.651 41.7129Z" fill="#7E40C7"/>
<path d="M967.024 37.5311C967.024 39.0104 965.788 40.2096 964.262 40.2096C962.737 40.2096 961.5 39.0104 961.5 37.5311C961.5 36.0518 962.737 34.8525 964.262 34.8525C965.788 34.8525 967.024 36.0518 967.024 37.5311Z" fill="#7E40C7"/>
<path fill-rule="evenodd" clip-rule="evenodd" d="M984.256 9.70139C984.256 9.70139 984.256 9.70139 984.256 9.70139C982.788 9.70139 981.598 10.8912 981.598 12.359C981.598 13.8267 982.788 15.0166 984.256 15.0166C984.256 15.0166 984.256 15.0166 984.256 15.0166L984.256 9.70139Z" fill="#FECE00"/>
<path fill-rule="evenodd" clip-rule="evenodd" d="M984.247 41.4621C984.24 41.462 984.233 41.462 984.226 41.462C982.77 41.462 981.589 42.6425 981.589 44.0987C981.589 45.5549 982.77 46.7354 984.226 46.7354C984.233 46.7354 984.24 46.7353 984.247 46.7353L984.247 41.4621Z" fill="#FECE00"/>
<path d="M537.882 6.02441H549.266V11.3815H537.882V6.02441Z" fill="#7E40C7"/>
<path d="M545.917 8.86426L545.917 16.7325L540.56 16.7325L540.56 8.86426L545.917 8.86426Z" fill="#7E40C7"/>
<path d="M567.346 8.61719L567.346 16.7365L561.989 16.7365L561.989 8.61719L567.346 8.61719Z" fill="#7E40C7"/>
<path d="M558.641 6.02441H570.025V11.3815H558.641V6.02441Z" fill="#7E40C7"/>
<path d="M537.882 48.8779H570.024V54.235H537.882V48.8779Z" fill="#7E40C7"/>
<path d="M537.882 11.376L537.882 48.8755L532.525 48.8755L532.525 11.376L537.882 11.376Z" fill="#7E40C7"/>
<path d="M562.073 16.7363L562.073 22.0934L545.835 22.0934L545.835 16.7363L562.073 16.7363Z" fill="#7E40C7"/>
<path d="M575.381 11.376L575.381 48.8755L570.024 48.8755L570.024 11.376L575.381 11.376Z" fill="#7E40C7"/>
<path fill-rule="evenodd" clip-rule="evenodd" d="M532.525 48.8773L537.881 48.8773L537.881 54.2342C537.868 54.2343 537.854 54.2344 537.84 54.2344C534.904 54.2344 532.524 51.8544 532.524 48.9185C532.524 48.9048 532.524 48.891 532.525 48.8773Z" fill="#7E40C7"/>
<path fill-rule="evenodd" clip-rule="evenodd" d="M575.381 11.3815L570.024 11.3815L570.024 6.02457C570.038 6.02447 570.051 6.02441 570.065 6.02441C573.001 6.02441 575.381 8.40441 575.381 11.3403C575.381 11.354 575.381 11.3678 575.381 11.3815Z" fill="#7E40C7"/>
<path fill-rule="evenodd" clip-rule="evenodd" d="M561.989 22.0926L561.989 16.7357L567.346 16.7357C567.346 16.7494 567.346 16.7632 567.346 16.7769C567.346 19.7128 564.966 22.0928 562.03 22.0928C562.017 22.0928 562.003 22.0927 561.989 22.0926Z" fill="#7E40C7"/>
<path fill-rule="evenodd" clip-rule="evenodd" d="M575.381 48.8773L570.024 48.8773L570.024 54.2342C570.038 54.2343 570.051 54.2344 570.065 54.2344C573.001 54.2344 575.381 51.8544 575.381 48.9185C575.381 48.9048 575.381 48.891 575.381 48.8773Z" fill="#7E40C7"/>
<path fill-rule="evenodd" clip-rule="evenodd" d="M532.525 11.3815L537.881 11.3815L537.881 6.02457C537.868 6.02447 537.854 6.02441 537.84 6.02441C534.904 6.02441 532.524 8.40441 532.524 11.3403C532.524 11.354 532.524 11.3678 532.525 11.3815Z" fill="#7E40C7"/>
<path fill-rule="evenodd" clip-rule="evenodd" d="M545.919 22.0926V16.7357H540.562C540.562 16.7494 540.562 16.7632 540.562 16.7769C540.562 19.7128 542.942 22.0928 545.878 22.0928C545.892 22.0928 545.905 22.0927 545.919 22.0926Z" fill="#7E40C7"/>
<path fill-rule="evenodd" clip-rule="evenodd" d="M565.038 27.9833C566.061 29.0206 566.048 30.69 565.011 31.7121L553.585 42.9703C552.601 43.9405 551.034 43.9856 549.995 43.0735L544.847 38.5534C543.753 37.5926 543.645 35.9267 544.606 34.8325C545.566 33.7382 547.232 33.63 548.327 34.5908L551.631 37.4925L561.31 27.9558C562.347 26.9338 564.016 26.9461 565.038 27.9833Z" fill="#FECE00"/>
<path fill-rule="evenodd" clip-rule="evenodd" d="M564.08 10.7086H558.639C558.639 10.6946 558.639 10.6807 558.639 10.6667C558.639 8.10103 556.541 6.02113 553.952 6.02113C551.363 6.02113 549.265 8.10103 549.265 10.6667C549.265 10.6807 549.265 10.6946 549.265 10.7086H543.991C543.991 5.16114 548.488 0.664062 554.036 0.664062C559.583 0.664062 564.08 5.16114 564.08 10.7086Z" fill="#7E40C7"/>
<path fill-rule="evenodd" clip-rule="evenodd" d="M634.647 8.17188C633.723 8.17188 632.973 8.92139 632.973 9.84596V16.0401C632.973 22.0498 637.845 26.9216 643.855 26.9216H646.366V8.17188H634.647ZM643.771 21.6064V13.5289H639.251C638.789 13.5289 638.407 13.9025 638.411 14.3648C638.429 16.587 638.822 20.9514 643.771 21.6064Z" fill="#FECE00"/>
<path fill-rule="evenodd" clip-rule="evenodd" d="M684.953 8.17188C685.878 8.17188 686.628 8.92139 686.628 9.84596V16.0401C686.628 22.0498 681.756 26.9216 675.746 26.9216H673.235V8.17188H684.953ZM675.913 21.6483V13.5289H680.601C681.063 13.5289 681.442 13.9035 681.427 14.3655C681.35 16.7201 680.741 21.6483 675.913 21.6483Z" fill="#FECE00"/>
<path d="M662.605 36.2969L662.605 48.434L657.248 48.434L657.248 36.2969L662.605 36.2969Z" fill="#7E40C7"/>
<path fill-rule="evenodd" clip-rule="evenodd" d="M645.446 1.47656C644.521 1.47656 643.771 2.22608 643.771 3.15065V21.733C643.771 30.6089 650.967 37.8042 659.843 37.8042C668.719 37.8042 675.914 30.6089 675.914 21.733V3.15065C675.914 2.22608 675.164 1.47656 674.24 1.47656H645.446ZM650.886 6.83363C649.962 6.83363 649.212 7.58314 649.212 8.50771V21.6911C649.212 27.5853 653.99 32.3634 659.885 32.3634C665.779 32.3634 670.557 27.5853 670.557 21.6911V8.50771C670.557 7.58314 669.807 6.83363 668.883 6.83363H650.886Z" fill="#7E40C7"/>
<path d="M646.449 48.3486H673.234V53.622H646.449V48.3486Z" fill="#7E40C7"/>
<path d="M649.045 50.9853C649.045 52.4415 647.864 53.622 646.408 53.622C644.952 53.622 643.771 52.4415 643.771 50.9853C643.771 49.5291 644.952 48.3486 646.408 48.3486C647.864 48.3486 649.045 49.5291 649.045 50.9853Z" fill="#7E40C7"/>
<path d="M675.829 50.9853C675.829 52.4415 674.649 53.622 673.192 53.622C671.736 53.622 670.556 52.4415 670.556 50.9853C670.556 49.5291 671.736 48.3486 673.192 48.3486C674.649 48.3486 675.829 49.5291 675.829 50.9853Z" fill="#7E40C7"/>
<path d="M432.971 117.712H470.47V123.069H432.971V117.712Z" fill="#C4C4C4"/>
<path d="M432.972 165.93H470.471V171.287H432.972V165.93Z" fill="#C4C4C4"/>
<path d="M438.244 123.072L438.244 165.929L432.887 165.929L432.887 123.072L438.244 123.072Z" fill="#C4C4C4"/>
<path d="M446.281 122.985L446.281 165.926L440.924 165.926L440.924 122.985L446.281 122.985Z" fill="#C4C4C4"/>
<path d="M475.744 123.152L475.744 165.925L470.387 165.925L470.387 123.152L475.744 123.152Z" fill="#C4C4C4"/>
<path fill-rule="evenodd" clip-rule="evenodd" d="M475.828 123.152L470.388 123.152L470.388 117.711C470.402 117.711 470.416 117.711 470.43 117.711C473.411 117.711 475.829 120.128 475.829 123.11C475.829 123.124 475.829 123.138 475.828 123.152Z" fill="#C4C4C4"/>
<path fill-rule="evenodd" clip-rule="evenodd" d="M470.387 171.326L470.387 165.927L475.744 165.927C475.744 165.941 475.744 165.955 475.744 165.969C475.744 168.928 473.364 171.326 470.428 171.326C470.415 171.326 470.401 171.326 470.387 171.326Z" fill="#C4C4C4"/>
<path d="M451.722 155.214H465.115V160.571H451.722V155.214Z" fill="#C4C4C4"/>
<path d="M433.057 117.711H440.925V171.282H433.057V117.711Z" fill="#7E40C7"/>
<path d="M446.364 117.797H470.806C473.58 117.797 475.828 120.045 475.828 122.819V166.345C475.828 169.119 473.58 171.368 470.806 171.368H446.364V117.797Z" fill="#FECE00"/>
<path d="M440.924 117.797H458.585V171.368H440.924V117.797Z" fill="#FFDC75"/>
<path d="M451.973 155.208H465.366V160.565H451.973V155.208Z" fill="#8E89FA"/>
<path d="M454.568 157.887C454.568 159.366 453.368 160.565 451.889 160.565C450.41 160.565 449.21 159.366 449.21 157.887C449.21 156.407 450.41 155.208 451.889 155.208C453.368 155.208 454.568 156.407 454.568 157.887Z" fill="#8E89FA"/>
<path d="M467.96 157.887C467.96 159.366 466.76 160.565 465.281 160.565C463.802 160.565 462.603 159.366 462.603 157.887C462.603 156.407 463.802 155.208 465.281 155.208C466.76 155.208 467.96 156.407 467.96 157.887Z" fill="#8E89FA"/>
<path d="M458.627 117.711L458.627 125.202L454.014 127.712C453.736 127.864 453.396 127.662 453.396 127.344L453.396 117.711L458.627 117.711Z" fill="#8E89FA"/>
<path d="M458.627 117.711L458.627 125.202L463.24 127.712C463.519 127.864 463.859 127.662 463.859 127.344L463.859 117.711L458.627 117.711Z" fill="#7E40C7"/>
<path fill-rule="evenodd" clip-rule="evenodd" d="M458.587 160.57H465.284H465.367V160.569C466.808 160.524 467.962 159.343 467.962 157.891C467.962 156.44 466.808 155.258 465.367 155.214V155.213H465.284H458.587V160.57Z" fill="#7E40C7"/>
<path d="M457.95 131.413C458.224 130.847 459.03 130.847 459.305 131.413L461.502 135.936C461.612 136.162 461.828 136.319 462.077 136.353L467.07 137.035C467.695 137.121 467.944 137.891 467.488 138.326L463.856 141.797C463.673 141.972 463.59 142.227 463.635 142.476L464.526 147.414C464.638 148.033 463.985 148.509 463.43 148.212L458.982 145.838C458.76 145.72 458.494 145.72 458.273 145.838L453.825 148.212C453.27 148.509 452.617 148.033 452.729 147.414L453.62 142.476C453.665 142.227 453.582 141.972 453.399 141.797L449.766 138.326C449.31 137.891 449.56 137.121 450.185 137.035L455.178 136.353C455.427 136.319 455.643 136.162 455.753 135.936L457.95 131.413Z" fill="#EBEAFF"/>
<path fill-rule="evenodd" clip-rule="evenodd" d="M458.669 145.702C458.777 145.708 458.884 145.737 458.982 145.789L463.43 148.163C463.985 148.46 464.638 147.985 464.526 147.365L463.635 142.427C463.59 142.178 463.673 141.923 463.856 141.748L467.489 138.277C467.945 137.842 467.695 137.072 467.07 136.986L462.077 136.304C461.828 136.27 461.612 136.113 461.502 135.887L459.305 131.364C459.175 131.095 458.925 130.954 458.669 130.94V145.702Z" fill="white"/>
<path d="M457.95 131.413C458.225 130.847 459.031 130.847 459.306 131.413L461.502 135.936C461.612 136.162 461.828 136.319 462.078 136.353L467.07 137.035C467.695 137.121 467.945 137.891 467.489 138.326L463.856 141.797C463.673 141.972 463.59 142.227 463.635 142.476L464.526 147.414C464.638 148.033 463.986 148.509 463.43 148.212L458.983 145.838C458.761 145.72 458.495 145.72 458.273 145.838L453.826 148.212C453.27 148.509 452.618 148.033 452.73 147.414L453.621 142.476C453.665 142.227 453.583 141.972 453.4 141.797L449.767 138.326C449.311 137.891 449.56 137.121 450.185 137.035L455.178 136.353C455.428 136.319 455.644 136.162 455.754 135.936L457.95 131.413Z" fill="#EBEAFF"/>
<path fill-rule="evenodd" clip-rule="evenodd" d="M458.67 145.702C458.778 145.708 458.885 145.737 458.983 145.789L463.43 148.163C463.986 148.46 464.638 147.985 464.526 147.365L463.635 142.427C463.591 142.178 463.673 141.923 463.856 141.748L467.489 138.277C467.945 137.842 467.696 137.072 467.071 136.986L462.078 136.304C461.828 136.27 461.612 136.113 461.502 135.887L459.306 131.364C459.175 131.095 458.926 130.954 458.67 130.94V145.702Z" fill="white"/>
<path d="M757.215 139.39H777.388V165.84H757.215V139.39Z" fill="#FECE00"/>
<path d="M737.042 139.39H757.215V165.84H737.042V139.39Z" fill="#FFDC75"/>
<path d="M747.757 126.409H733.945C734.071 130.65 734.33 139.291 734.364 139.927C734.397 140.564 739.54 142.815 742.106 143.862L747.757 139.927V126.409Z" fill="#A371E0"/>
<path d="M735.619 122.98H749.514V128.338H735.619V122.98Z" fill="#A371E0"/>
<path d="M751.607 122.98H765V128.338H751.607V122.98Z" fill="#EBEAFF"/>
<path d="M767.677 122.98H778.894V128.338H767.677V122.98Z" fill="#7E40C7"/>
<path d="M738.215 142.989L738.215 165.841L732.858 165.841L732.858 142.989L738.215 142.989Z" fill="#FFDC75"/>
<path d="M735.534 128.34L735.534 137.631L730.177 137.631L730.177 128.34L735.534 128.34Z" fill="#A371E0"/>
<path d="M783.916 128.34L783.916 137.631L778.559 137.631L778.559 128.34L783.916 128.34Z" fill="#7E40C7"/>
<path fill-rule="evenodd" clip-rule="evenodd" d="M732.855 165.837L738.212 165.837L738.212 171.194C738.198 171.194 738.185 171.194 738.171 171.194C735.235 171.194 732.855 168.814 732.855 165.878C732.855 165.865 732.855 165.851 732.855 165.837Z" fill="#FFDC75"/>
<path d="M775.713 142.567L775.713 166.507L781.07 166.507L781.07 142.567L775.713 142.567Z" fill="#FECE00"/>
<path fill-rule="evenodd" clip-rule="evenodd" d="M781.07 165.837L775.713 165.837L775.713 171.194C775.726 171.194 775.74 171.194 775.754 171.194C778.69 171.194 781.07 168.814 781.07 165.878C781.07 165.865 781.07 165.851 781.07 165.837Z" fill="#FECE00"/>
<path fill-rule="evenodd" clip-rule="evenodd" d="M735.622 122.98V128.42H730.181C730.181 128.406 730.181 128.392 730.181 128.378C730.181 125.397 732.598 122.979 735.58 122.979C735.594 122.979 735.608 122.98 735.622 122.98Z" fill="#A371E0"/>
<path d="M746.249 128.34H748.927V137.631H746.249V128.34Z" fill="#A371E0"/>
<path fill-rule="evenodd" clip-rule="evenodd" d="M778.475 122.981V128.421H783.916C783.916 128.407 783.916 128.393 783.916 128.379C783.916 125.398 781.499 122.98 778.517 122.98C778.503 122.98 778.489 122.981 778.475 122.981Z" fill="#7E40C7"/>
<path d="M762.322 128.34H765.084V137.715H762.322V128.34Z" fill="#EBEAFF"/>
<path fill-rule="evenodd" clip-rule="evenodd" d="M762.404 137.629C763.013 143.015 767.585 147.199 773.133 147.199C778.682 147.199 783.253 143.015 783.863 137.629H778.585C778.015 140.122 775.784 141.982 773.118 141.982C770.452 141.982 768.221 140.122 767.651 137.629H762.404Z" fill="#7E40C7"/>
<path fill-rule="evenodd" clip-rule="evenodd" d="M746.249 137.629C746.858 143.015 751.429 147.199 756.978 147.199C762.527 147.199 767.098 143.015 767.708 137.629H762.333C761.75 140.031 759.586 141.814 757.005 141.814C754.424 141.814 752.259 140.031 751.676 137.629H746.249Z" fill="#EBEAFF"/>
<path fill-rule="evenodd" clip-rule="evenodd" d="M730.178 137.544C730.787 142.93 735.359 147.115 740.907 147.115C746.456 147.115 751.027 142.93 751.637 137.544H746.348C745.764 139.992 743.561 141.813 740.934 141.813C738.306 141.813 736.104 139.992 735.519 137.544H730.178Z" fill="#A371E0"/>
<path d="M738.215 165.839H754.286V171.196H738.215V165.839Z" fill="#FFDC75"/>
<path d="M759.641 165.839H776.214V171.196H759.641V165.839Z" fill="#FECE00"/>
<path d="M762.655 122.98H748.848C748.974 127.925 748.815 141.805 748.848 142.547V142.693V143.572L761.693 141.766L762.655 138.741V122.98Z" fill="#EBEAFF"/>
<mask id="mask0_520_201" style="mask-type:alpha" maskUnits="userSpaceOnUse" x="746" y="122" width="22" height="26">
<path fill-rule="evenodd" clip-rule="evenodd" d="M765.167 122.979H762.824H751.775H749.017C749.097 126.135 749.061 132.931 749.034 137.628H746.417C746.671 139.866 747.609 141.898 749.017 143.507V143.571L749.067 143.564C751.045 145.793 753.932 147.198 757.147 147.198C762.696 147.198 767.267 143.013 767.877 137.628H765.251V128.337H765.167V122.979Z" fill="white"/>
</mask>
<g mask="url(#mask0_520_201)">
<path d="M757.132 119.798H768.767V150.601H757.132V119.798Z" fill="white"/>
</g>
<path d="M778.893 122.98H765.087C765.212 127.925 765.053 141.805 765.087 142.547V142.693V143.572L777.931 141.766L778.893 138.741V122.98Z" fill="#7E40C7"/>
<path fill-rule="evenodd" clip-rule="evenodd" d="M764.998 157.853C764.541 153.819 761.118 150.685 756.962 150.685C752.807 150.685 749.383 153.819 748.927 157.853L754.286 157.853C754.344 156.38 755.52 155.205 756.962 155.205C758.405 155.205 759.58 156.38 759.639 157.853L764.998 157.853Z" fill="#A371E0"/>
<path d="M754.285 157.716L754.285 171.192L748.928 171.192L748.928 157.716L754.285 157.716Z" fill="#A371E0"/>
<path d="M764.998 157.716L764.998 171.192L759.641 171.192L759.641 157.716L764.998 157.716Z" fill="#7E40C7"/>
<path fill-rule="evenodd" clip-rule="evenodd" d="M757.171 155.215C758.516 155.322 759.583 156.454 759.638 157.854L764.998 157.854C764.549 153.889 761.232 150.793 757.171 150.689V155.215Z" fill="#7E40C7"/>
<path d="M751.607 155.121H757.215V171.192H751.607V155.121Z" fill="#A371E0"/>
<path d="M757.215 155.121H762.823V171.192H757.215V155.121Z" fill="#7E40C7"/>
<path d="M877.469 129.807C877.469 136.487 872.054 141.902 865.374 141.902C858.694 141.902 853.279 136.487 853.279 129.807C853.279 123.127 858.694 117.712 865.374 117.712C872.054 117.712 877.469 123.127 877.469 129.807Z" fill="#FFDC75"/>
<path d="M849.345 166.011H865.416V171.368H849.345V166.011Z" fill="#A371E0"/>
<path d="M865.418 166.011H881.489V171.368H865.418V166.011Z" fill="#7E40C7"/>
<path fill-rule="evenodd" clip-rule="evenodd" d="M886.846 166.008C886.846 165.994 886.846 165.98 886.846 165.966C886.846 154.12 877.252 144.517 865.418 144.517C853.583 144.517 843.989 154.12 843.989 165.966C843.989 165.98 843.989 165.994 843.989 166.008H886.846Z" fill="#A371E0"/>
<path fill-rule="evenodd" clip-rule="evenodd" d="M843.989 166.01L849.346 166.01L849.346 171.367C849.333 171.367 849.319 171.367 849.305 171.367C846.369 171.367 843.989 168.987 843.989 166.051C843.989 166.038 843.989 166.024 843.989 166.01Z" fill="#A371E0"/>
<path fill-rule="evenodd" clip-rule="evenodd" d="M886.845 166.01L881.488 166.01L881.488 171.367C881.501 171.367 881.515 171.367 881.529 171.367C884.465 171.367 886.845 168.987 886.845 166.051C886.845 166.038 886.845 166.024 886.845 166.01Z" fill="#7E40C7"/>
<path fill-rule="evenodd" clip-rule="evenodd" d="M865.418 141.902C872.079 141.88 877.471 136.473 877.471 129.807C877.471 123.141 872.079 117.734 865.418 117.712V141.902Z" fill="#FECE00"/>
<path fill-rule="evenodd" clip-rule="evenodd" d="M865.418 166.004H886.846L886.846 165.987C886.846 165.979 886.846 165.971 886.846 165.962C886.846 154.105 877.252 144.492 865.418 144.492V166.004Z" fill="#7E40C7"/>
<path d="M553.856 291.274V251.515V250.343H541.417L531.507 269.469L542.744 289.182L553.856 291.274Z" fill="#A371E0"/>
<path d="M553.856 291.274V251.515V250.343H566.295L576.205 269.469L564.968 289.182L553.856 291.274Z" fill="#7E40C7"/>
<path fill-rule="evenodd" clip-rule="evenodd" d="M553.868 279.953C559.739 279.953 564.498 275.194 564.498 269.323C564.498 263.452 559.739 258.692 553.868 258.692C547.997 258.692 543.237 263.452 543.237 269.323C543.237 275.194 547.997 279.953 553.868 279.953ZM553.868 274.596C556.78 274.596 559.141 272.235 559.141 269.323C559.141 266.41 556.78 264.049 553.868 264.049C550.955 264.049 548.594 266.41 548.594 269.323C548.594 272.235 550.955 274.596 553.868 274.596Z" fill="#FFDC75"/>
<path fill-rule="evenodd" clip-rule="evenodd" d="M553.856 280.055C559.727 280.055 564.486 275.295 564.486 269.424C564.486 263.553 559.727 258.794 553.856 258.794V264.151C556.768 264.151 559.129 266.512 559.129 269.424C559.129 272.337 556.768 274.698 553.856 274.698V280.055Z" fill="#FECE00"/>
<path fill-rule="evenodd" clip-rule="evenodd" d="M569.052 248.551C568.065 246.841 566.241 245.788 564.267 245.788L543.497 245.788C541.523 245.788 539.699 246.841 538.713 248.551L528.327 266.538C527.341 268.248 527.341 270.354 528.327 272.063L538.713 290.051C539.699 291.76 541.523 292.813 543.497 292.813L564.267 292.813C566.241 292.813 568.065 291.76 569.052 290.051L579.437 272.063C580.424 270.354 580.424 268.248 579.437 266.538L569.052 248.551ZM564.68 252.103C564.395 251.611 563.87 251.308 563.302 251.308L544.431 251.308C543.862 251.308 543.337 251.611 543.053 252.103L533.617 268.446C533.333 268.938 533.333 269.545 533.617 270.037L543.053 286.38C543.337 286.872 543.862 287.175 544.431 287.175L563.302 287.175C563.87 287.175 564.395 286.872 564.679 286.38L574.115 270.037C574.399 269.545 574.399 268.938 574.115 268.446L564.68 252.103Z" fill="#A371E0"/>
<path fill-rule="evenodd" clip-rule="evenodd" d="M553.856 292.846L564.269 292.846C566.243 292.846 568.067 291.793 569.053 290.083L579.439 272.096C580.425 270.386 580.426 268.281 579.439 266.571L569.053 248.584C568.067 246.874 566.243 245.821 564.269 245.821L553.856 245.821V251.341H563.304C563.872 251.341 564.397 251.644 564.681 252.136L574.117 268.479C574.401 268.971 574.401 269.578 574.117 270.07L564.681 286.413C564.397 286.905 563.872 287.208 563.304 287.208L553.856 287.208V292.846Z" fill="#7E40C7"/>
<path d="M564.15 269.087C564.15 275.004 559.353 279.801 553.436 279.801C547.519 279.801 542.722 275.004 542.722 269.087C542.722 263.17 547.519 258.373 553.436 258.373C559.353 258.373 564.15 263.17 564.15 269.087Z" fill="#FFDC75"/>
<path d="M558.795 269.132C558.795 272.114 556.378 274.531 553.396 274.531C550.414 274.531 547.997 272.114 547.997 269.132C547.997 266.151 550.414 263.733 553.396 263.733C556.378 263.733 558.795 266.151 558.795 269.132Z" fill="#E5E5E5"/>
<path fill-rule="evenodd" clip-rule="evenodd" d="M553.436 279.801C559.353 279.801 564.15 275.004 564.15 269.087C564.15 263.17 559.353 258.373 553.436 258.373V279.801Z" fill="#FECE00"/>
<path fill-rule="evenodd" clip-rule="evenodd" d="M553.436 274.531C556.398 274.508 558.793 272.1 558.793 269.132C558.793 266.164 556.398 263.756 553.436 263.733V274.531Z" fill="white"/>
<path d="M454.404 257.195V242.463L434.105 269.29H445.322L454.404 257.195Z" fill="#FFBE40"/>
<path d="M454.444 257.195V242.463L474.742 269.29H463.526L454.444 257.195Z" fill="#FF9F40"/>
<path d="M454.403 281.346V296.078L434.104 269.251H445.321L454.403 281.346Z" fill="#FF9F40"/>
<path d="M454.444 281.346V296.078L474.742 269.251H463.526L454.444 281.346Z" fill="#FFBE40"/>
<path d="M445.363 269.25L454.445 281.346V257.113L445.363 269.25Z" fill="#FFF159"/>
<path d="M463.527 269.123L454.445 257.027L454.445 281.26L463.527 269.123Z" fill="#FFDF40"/>
<path d="M660.331 153.7L660.331 165.837L657.318 165.837L657.318 153.7L660.331 153.7Z" fill="#FFDC75"/>
<path d="M660.331 153.7L660.331 165.837L663.344 165.837L663.344 153.7L660.331 153.7Z" fill="#FFCD00"/>
<path d="M635.806 130.432C635.806 129.277 636.743 128.34 637.899 128.34H649.199V147.09C641.802 147.09 635.806 141.093 635.806 133.697V130.432Z" fill="#A371E0"/>
<path d="M641.248 132.942C641.248 132.711 641.435 132.523 641.667 132.523H645.266V140.475C643.047 140.475 641.248 138.677 641.248 136.458V132.942Z" fill="white"/>
<path d="M684.019 130.432C684.019 129.277 683.082 128.34 681.926 128.34H670.626V147.09C678.023 147.09 684.019 141.093 684.019 133.697V130.432Z" fill="#7E40C7"/>
<path d="M678.747 132.942C678.747 132.711 678.56 132.523 678.329 132.523H674.729V140.475C676.948 140.475 678.747 138.677 678.747 136.458V132.942Z" fill="white"/>
<path fill-rule="evenodd" clip-rule="evenodd" d="M660.331 122.979H646.938C646.014 122.979 645.264 123.729 645.264 124.654V145.245C645.264 152.179 650.886 157.8 657.82 157.8H660.331V122.979Z" fill="#FFDC75"/>
<path fill-rule="evenodd" clip-rule="evenodd" d="M660.331 122.979H673.723C674.648 122.979 675.397 123.729 675.397 124.654V145.245C675.397 152.179 669.776 157.8 662.842 157.8H660.331V122.979Z" fill="#FFCD00"/>
<path fill-rule="evenodd" clip-rule="evenodd" d="M660.331 165.752H646.603H646.52V165.753C645.079 165.797 643.925 166.979 643.925 168.43C643.925 169.91 645.124 171.109 646.603 171.109C646.834 171.109 647.057 171.08 647.27 171.025H660.331V165.752Z" fill="#A371E0"/>
<path fill-rule="evenodd" clip-rule="evenodd" d="M660.331 165.752H674.058H674.142V165.753C675.583 165.797 676.737 166.979 676.737 168.43C676.737 169.91 675.538 171.109 674.058 171.109C673.828 171.109 673.605 171.08 673.391 171.025H660.331V165.752Z" fill="#7E40C7"/>
<path d="M659.612 129.731C659.887 129.165 660.693 129.165 660.968 129.731L663.164 134.254C663.274 134.481 663.49 134.637 663.74 134.671L668.733 135.354C669.358 135.439 669.607 136.209 669.151 136.645L665.518 140.116C665.335 140.291 665.252 140.545 665.297 140.794L666.188 145.732C666.3 146.352 665.648 146.827 665.092 146.531L660.645 144.157C660.423 144.038 660.157 144.038 659.935 144.157L655.488 146.531C654.932 146.827 654.28 146.352 654.392 145.732L655.283 140.794C655.328 140.545 655.245 140.291 655.062 140.116L651.429 136.645C650.973 136.209 651.222 135.439 651.848 135.354L656.84 134.671C657.09 134.637 657.306 134.481 657.416 134.254L659.612 129.731Z" fill="#EBEAFF"/>
<path fill-rule="evenodd" clip-rule="evenodd" d="M660.331 144.019C660.439 144.025 660.546 144.054 660.644 144.107L665.091 146.481C665.647 146.777 666.299 146.302 666.188 145.682L665.297 140.744C665.252 140.495 665.335 140.241 665.517 140.066L669.15 136.595C669.606 136.159 669.357 135.389 668.732 135.304L663.739 134.621C663.489 134.587 663.273 134.431 663.163 134.204L660.967 129.681C660.837 129.413 660.587 129.272 660.331 129.258V144.019Z" fill="white"/>
<path d="M537.881 123.071H549.265V128.428H537.881V123.071Z" fill="#A371E0"/>
<path d="M545.917 128.423L545.917 133.78L540.559 133.78L540.559 128.423L545.917 128.423Z" fill="#A371E0"/>
<path d="M567.345 125.663L567.345 133.782L561.988 133.782L561.988 125.663L567.345 125.663Z" fill="#7E40C7"/>
<path d="M558.641 123.071H570.024V128.428H558.641V123.071Z" fill="#7E40C7"/>
<path d="M537.881 165.925H553.953V171.282H537.881V165.925Z" fill="#A371E0"/>
<path d="M553.953 165.925H570.024V171.282H553.953V165.925Z" fill="#7E40C7"/>
<path d="M545.917 128.423L545.917 165.922L532.524 165.922L532.524 128.423L545.917 128.423Z" fill="#A371E0"/>
<path d="M561.988 133.783L561.988 165.926L553.952 165.926L553.952 133.783L561.988 133.783Z" fill="#7E40C7"/>
<path d="M553.953 133.783L553.953 165.926L545.917 165.926L545.917 133.783L553.953 133.783Z" fill="#A371E0"/>
<path d="M575.38 128.423L575.38 165.922L561.988 165.922L561.988 128.423L575.38 128.423Z" fill="#7E40C7"/>
<path fill-rule="evenodd" clip-rule="evenodd" d="M532.524 165.924L537.881 165.924L537.881 171.281C537.867 171.281 537.854 171.281 537.84 171.281C534.904 171.281 532.524 168.901 532.524 165.965C532.524 165.952 532.524 165.938 532.524 165.924Z" fill="#A371E0"/>
<path fill-rule="evenodd" clip-rule="evenodd" d="M575.38 128.428L570.023 128.428L570.023 123.071C570.037 123.071 570.051 123.071 570.065 123.071C573 123.071 575.38 125.451 575.38 128.387C575.38 128.401 575.38 128.415 575.38 128.428Z" fill="#7E40C7"/>
<path fill-rule="evenodd" clip-rule="evenodd" d="M561.988 139.139L561.988 133.783L567.345 133.783C567.345 133.796 567.345 133.81 567.345 133.824C567.345 136.76 564.965 139.14 562.029 139.14C562.016 139.14 562.002 139.14 561.988 139.139Z" fill="#7E40C7"/>
<path fill-rule="evenodd" clip-rule="evenodd" d="M575.38 165.924L570.023 165.924L570.023 171.281C570.037 171.281 570.051 171.281 570.065 171.281C573 171.281 575.38 168.901 575.38 165.965C575.38 165.952 575.38 165.938 575.38 165.924Z" fill="#7E40C7"/>
<path fill-rule="evenodd" clip-rule="evenodd" d="M532.524 128.428L537.881 128.428L537.881 123.071C537.867 123.071 537.854 123.071 537.84 123.071C534.904 123.071 532.524 125.451 532.524 128.387C532.524 128.401 532.524 128.415 532.524 128.428Z" fill="#A371E0"/>
<path fill-rule="evenodd" clip-rule="evenodd" d="M545.919 139.139V133.783H540.562C540.562 133.796 540.562 133.81 540.562 133.824C540.562 136.76 542.942 139.14 545.877 139.14C545.891 139.14 545.905 139.14 545.919 139.139Z" fill="#A371E0"/>
<path fill-rule="evenodd" clip-rule="evenodd" d="M565.038 145.03C566.061 146.067 566.048 147.737 565.011 148.759L553.585 160.017C552.601 160.987 551.034 161.032 549.995 160.12L544.847 155.6C543.753 154.64 543.645 152.974 544.606 151.879C545.566 150.785 547.232 150.677 548.327 151.638L551.631 154.539L561.31 145.003C562.347 143.981 564.016 143.993 565.038 145.03Z" fill="#FFDC75"/>
<path fill-rule="evenodd" clip-rule="evenodd" d="M564.08 127.755H558.639C558.639 127.742 558.639 127.728 558.639 127.714C558.639 125.148 556.541 123.068 553.952 123.068C551.363 123.068 549.265 125.148 549.265 127.714C549.265 127.728 549.265 127.742 549.265 127.755H543.991C543.991 122.208 548.488 117.711 554.036 117.711C559.583 117.711 564.08 122.208 564.08 127.755Z" fill="#A371E0"/>
<path fill-rule="evenodd" clip-rule="evenodd" d="M554.12 123.071C556.631 123.158 558.64 125.203 558.64 127.713C558.64 127.727 558.64 127.741 558.64 127.755H564.081C564.081 122.236 559.629 117.756 554.12 117.711V123.071Z" fill="#7E40C7"/>
<path fill-rule="evenodd" clip-rule="evenodd" d="M553.953 159.696L565.053 148.759C566.09 147.737 566.102 146.067 565.08 145.03C564.058 143.993 562.389 143.981 561.351 145.003L553.953 152.293V159.696Z" fill="#FECE00"/>
<path fill-rule="evenodd" clip-rule="evenodd" d="M756.795 245.174C756.379 245.154 755.96 245.144 755.539 245.144C741.532 245.144 730.177 256.499 730.177 270.506C730.177 284.513 741.532 295.868 755.539 295.868C769.546 295.868 780.902 284.513 780.902 270.506C780.902 270.113 780.893 269.722 780.875 269.334H760.98C758.668 269.334 756.795 267.46 756.795 265.149V245.174Z" fill="#7E40C7"/>
<path fill-rule="evenodd" clip-rule="evenodd" d="M762.151 242.466C773.563 242.466 782.891 251.943 783.543 263.894H767.383H765.751C762.963 263.575 762.303 261.521 762.151 259.838V242.466Z" fill="#FECE00"/>
<path d="M886.929 265.849C886.929 277.198 877.317 286.399 865.459 286.399C853.601 286.399 843.989 277.198 843.989 265.849C843.989 254.5 853.601 245.3 865.459 245.3C877.317 245.3 886.929 254.5 886.929 265.849Z" fill="#FFD966"/>
<path fill-rule="evenodd" clip-rule="evenodd" d="M865.503 286.397C877.34 286.374 886.929 277.182 886.929 265.847C886.929 254.512 877.34 245.32 865.503 245.298V286.397Z" fill="#FFCA36"/>
<path d="M850.023 280.119H865.503V293.512H857.02C853.156 293.512 850.023 290.514 850.023 286.815V280.119Z" fill="#A371E0"/>
<path d="M880.807 280.119H865.503V293.512H873.811C877.675 293.512 880.807 290.514 880.807 286.815V280.119Z" fill="#7E40C7"/>
<path d="M862.705 260.365H865.503V280.119H862.705V260.365Z" fill="#FFB736"/>
<path d="M865.503 260.365H868.301V280.119H865.503V260.365Z" fill="#FF941F"/>
<path d="M869.965 255.706L873.566 259.807L868.315 264.032L864.714 259.931L869.965 255.706Z" fill="#FF941F"/>
<path d="M873.567 259.806C872.383 260.758 870.618 260.611 869.624 259.479C868.629 258.346 868.782 256.657 869.965 255.705C871.148 254.753 872.914 254.899 873.908 256.032C874.903 257.164 874.75 258.854 873.567 259.806Z" fill="#FF941F"/>
<path d="M857.413 259.806C858.597 260.758 860.362 260.611 861.356 259.479C862.351 258.346 862.198 256.657 861.015 255.705C859.832 254.753 858.066 254.899 857.072 256.032C856.077 257.164 856.23 258.854 857.413 259.806Z" fill="#FFB736"/>
<path fill-rule="evenodd" clip-rule="evenodd" d="M857.413 259.808L861.014 255.707L865.502 259.318V260.8L862.664 264.033L857.413 259.808Z" fill="#FFB736"/>
<path d="M643.843 289.288H657.235V294.645H643.843V289.288Z" fill="#A371E0"/>
<path d="M659.831 289.288H675.902V294.645H659.831V289.288Z" fill="#7E40C7"/>
<path d="M681.258 270.728L681.258 289.477L659.83 289.477L659.83 270.728L681.258 270.728Z" fill="#7E40C7"/>
<path d="M657.15 270.728L657.15 289.477L638.484 289.477L638.484 270.728L657.15 270.728Z" fill="#A371E0"/>
<path fill-rule="evenodd" clip-rule="evenodd" d="M638.485 289.286L643.842 289.286L643.842 294.643C643.828 294.644 643.814 294.644 643.801 294.644C640.865 294.644 638.485 292.264 638.485 289.328C638.485 289.314 638.485 289.3 638.485 289.286Z" fill="#A371E0"/>
<path fill-rule="evenodd" clip-rule="evenodd" d="M681.258 289.286L675.901 289.286L675.901 294.643C675.915 294.644 675.929 294.644 675.942 294.644C678.878 294.644 681.258 292.264 681.258 289.328C681.258 289.314 681.258 289.3 681.258 289.286Z" fill="#7E40C7"/>
<path d="M647.148 244.694C653.744 241.915 657.416 249.298 659.871 253.483V257.375H645.516C642.349 254.208 640.552 247.473 647.148 244.694Z" fill="#FFD966"/>
<path d="M672.554 244.694C665.958 241.915 662.287 249.298 659.831 253.483V257.375H674.187C677.353 254.208 679.15 247.473 672.554 244.694Z" fill="#FFCA36"/>
<path d="M659.831 257.336H678.58V272.068H659.831V257.336Z" fill="#7E40C7"/>
<path d="M667.195 266.71H678.579V272.067H667.195V266.71Z" fill="#7E40C7"/>
<path d="M678.579 262.688L678.579 266.706L683.936 266.706L683.936 262.688L678.579 262.688Z" fill="#7E40C7"/>
<path fill-rule="evenodd" clip-rule="evenodd" d="M683.937 266.705L678.58 266.705L678.58 272.062C678.594 272.062 678.607 272.062 678.621 272.062C681.557 272.062 683.937 269.683 683.937 266.747C683.937 266.733 683.937 266.719 683.937 266.705Z" fill="#7E40C7"/>
<path fill-rule="evenodd" clip-rule="evenodd" d="M683.937 262.693L678.58 262.693L678.58 257.336C678.594 257.336 678.607 257.336 678.621 257.336C681.557 257.336 683.937 259.716 683.937 262.652C683.937 262.666 683.937 262.679 683.937 262.693Z" fill="#7E40C7"/>
<path d="M641.163 257.336H659.912V272.068H641.163V257.336Z" fill="#A371E0"/>
<path d="M641.163 262.688L641.163 266.706L635.806 266.706L635.806 262.688L641.163 262.688Z" fill="#A371E0"/>
<path fill-rule="evenodd" clip-rule="evenodd" d="M635.807 266.705L641.164 266.705L641.164 272.062C641.15 272.062 641.136 272.062 641.123 272.062C638.187 272.062 635.807 269.683 635.807 266.747C635.807 266.733 635.807 266.719 635.807 266.705Z" fill="#A371E0"/>
<path fill-rule="evenodd" clip-rule="evenodd" d="M635.807 262.693L641.164 262.693L641.164 257.336C641.15 257.336 641.136 257.336 641.123 257.336C638.187 257.336 635.807 259.716 635.807 262.652C635.807 262.666 635.807 262.679 635.807 262.693Z" fill="#A371E0"/>
<path d="M654.473 257.337H659.913V294.669H654.473V257.337Z" fill="#FFD966"/>
<path d="M659.831 257.312H665.271V294.645H659.831V257.312Z" fill="#FFCA36"/>
</svg>
