<svg width="1056" height="252" viewBox="0 0 1056 252" fill="none" xmlns="http://www.w3.org/2000/svg">
<rect x="864.9" y="96.1504" width="191.1" height="47" rx="10" fill="#0A0A0A"/>
<path d="M934.751 126.15H932.491V112.75H937.971C940.791 112.75 942.991 114.19 942.991 117.39C942.991 120.45 940.811 121.91 937.971 121.91H934.751V126.15ZM937.751 114.75H934.751V119.91H937.751C939.291 119.91 940.651 119.33 940.651 117.39C940.651 115.31 939.291 114.75 937.751 114.75ZM946.622 126.15H944.382V116.41H946.622V119.17C946.982 117.61 947.962 116.21 949.702 116.21C950.922 116.21 951.822 117.01 951.822 118.45C951.822 119.39 951.562 120.09 951.382 120.39H949.082C949.402 120.07 949.702 119.43 949.702 118.87C949.702 118.33 949.442 117.89 948.782 117.89C947.662 117.89 946.622 119.17 946.622 120.79V126.15ZM957.174 126.35C954.374 126.35 952.454 124.31 952.454 121.29C952.454 118.25 954.374 116.21 957.174 116.21C960.014 116.21 961.934 118.25 961.934 121.29C961.934 124.31 960.014 126.35 957.174 126.35ZM957.194 124.49C958.654 124.49 959.654 123.53 959.654 121.29C959.654 119.03 958.654 118.07 957.194 118.07C955.754 118.07 954.754 119.03 954.754 121.29C954.754 123.53 955.754 124.49 957.194 124.49ZM966.659 126.15H964.419V118.15H962.919V116.41H964.419V115.73C964.419 113.67 965.799 112.55 967.959 112.55C969.539 112.55 970.759 113.27 971.299 113.75L970.319 115.33C969.859 114.81 968.999 114.33 967.999 114.33C967.039 114.33 966.659 114.83 966.659 115.77V116.41H972.239V126.15H969.979V118.15H966.659V126.15ZM976.837 126.15H974.597V112.75H976.837V126.15ZM983.526 126.35C980.626 126.35 978.726 124.33 978.726 121.29C978.726 118.23 980.626 116.21 983.366 116.21C986.286 116.21 987.906 118.15 987.906 120.85C987.906 121.21 987.866 121.63 987.826 121.83H980.866C980.986 123.57 982.006 124.51 983.546 124.51C985.246 124.51 986.006 123.63 986.366 122.81L987.746 124.25C987.006 125.37 985.686 126.35 983.526 126.35ZM983.366 118.01C981.986 118.01 981.066 118.81 980.886 120.39H985.886C985.726 118.85 984.846 118.01 983.366 118.01Z" fill="#FDFDFD"/>
<rect x="649.45" y="97.1504" width="191.1" height="47" rx="10" fill="#0A0A0A"/>
<path d="M729.222 127.35C726.662 127.35 724.322 126.43 723.282 124.17L724.882 122.55C725.602 124.51 727.622 125.27 729.262 125.27C730.602 125.27 731.682 124.79 731.682 123.57C731.682 122.27 730.602 121.91 728.862 121.53L727.602 121.25C725.702 120.85 723.682 119.99 723.682 117.45C723.682 114.93 725.862 113.57 728.382 113.57C730.842 113.57 732.802 114.59 733.762 116.43L732.062 118.05C731.322 116.39 729.882 115.67 728.242 115.67C726.962 115.67 726.042 116.27 726.042 117.29C726.042 118.47 726.962 118.89 728.422 119.25L729.922 119.61C732.062 120.13 733.982 120.97 733.982 123.53C733.982 125.95 731.942 127.35 729.222 127.35ZM738.225 127.15H735.985V113.75H738.225V120.07C738.585 118.53 739.585 117.21 741.525 117.21C743.425 117.21 744.585 118.35 744.585 120.37V127.15H742.325V121.05C742.325 119.85 741.925 119.03 740.425 119.03C738.785 119.03 738.225 120.09 738.225 121.69V127.15ZM750.944 127.35C748.144 127.35 746.224 125.31 746.224 122.29C746.224 119.25 748.144 117.21 750.944 117.21C753.784 117.21 755.704 119.25 755.704 122.29C755.704 125.31 753.784 127.35 750.944 127.35ZM750.964 125.49C752.424 125.49 753.424 124.53 753.424 122.29C753.424 120.03 752.424 119.07 750.964 119.07C749.524 119.07 748.524 120.03 748.524 122.29C748.524 124.53 749.524 125.49 750.964 125.49ZM759.904 130.87H757.664V117.41H759.904V120.01C760.224 118.49 761.084 117.19 763.024 117.19C765.384 117.19 766.904 119.13 766.904 122.27C766.904 125.41 765.384 127.35 762.984 127.35C761.044 127.35 760.224 126.05 759.904 124.55V130.87ZM759.904 122.87C759.904 124.47 760.564 125.53 762.144 125.53C763.544 125.53 764.604 124.47 764.604 122.27C764.604 120.07 763.544 119.01 762.144 119.01C760.564 119.01 759.904 120.07 759.904 121.67V122.87Z" fill="#FDFDFD"/>
<rect x="434" y="97.1504" width="191.1" height="47" rx="10" fill="#0A0A0A"/>
<path d="M488.911 127.31C484.791 127.31 482.471 124.29 482.471 120.43C482.471 116.57 484.791 113.55 488.911 113.55C491.871 113.55 493.911 115.07 494.851 117.69L492.891 119.13C492.471 117.11 491.231 115.69 488.931 115.69C486.171 115.69 484.871 117.65 484.871 120.43C484.871 123.19 486.171 125.17 488.931 125.17C491.231 125.17 492.471 123.73 492.891 121.73L494.851 123.17C493.911 125.77 491.871 127.31 488.911 127.31ZM499.015 127.15H496.775V113.75H499.015V120.07C499.375 118.53 500.375 117.21 502.315 117.21C504.215 117.21 505.375 118.35 505.375 120.37V127.15H503.115V121.05C503.115 119.85 502.715 119.03 501.215 119.03C499.575 119.03 499.015 120.09 499.015 121.69V127.15ZM509.753 127.35C508.153 127.35 507.193 126.45 507.193 125.05C507.193 123.67 508.153 122.83 509.733 122.21L512.993 120.83C512.913 119.85 512.473 119.19 511.133 119.19C509.833 119.19 508.813 119.95 508.253 120.97L506.913 119.37C507.673 118.33 509.193 117.21 511.353 117.21C513.773 117.21 515.133 118.59 515.133 120.99V124.65C515.133 125.09 515.293 125.23 515.653 125.23H516.273V127.15H514.893C513.853 127.15 513.033 126.67 513.033 125.27V124.55C512.733 125.83 511.793 127.35 509.753 127.35ZM509.353 124.71C509.353 125.27 509.733 125.61 510.553 125.61C512.033 125.61 513.033 124.73 513.033 123.41V122.37L510.533 123.49C509.693 123.87 509.353 124.21 509.353 124.71ZM520.226 127.15H517.986V113.75H520.226V127.15ZM524.835 127.15H522.595V113.75H524.835V127.15ZM531.524 127.35C528.624 127.35 526.724 125.33 526.724 122.29C526.724 119.23 528.624 117.21 531.364 117.21C534.284 117.21 535.904 119.15 535.904 121.85C535.904 122.21 535.864 122.63 535.824 122.83H528.864C528.984 124.57 530.004 125.51 531.544 125.51C533.244 125.51 534.004 124.63 534.364 123.81L535.744 125.25C535.004 126.37 533.684 127.35 531.524 127.35ZM531.364 119.01C529.984 119.01 529.064 119.81 528.884 121.39H533.884C533.724 119.85 532.844 119.01 531.364 119.01ZM540.108 127.15H537.868V117.41H540.108V120.07C540.468 118.53 541.468 117.21 543.408 117.21C545.308 117.21 546.468 118.35 546.468 120.37V127.15H544.208V121.05C544.208 119.85 543.808 119.03 542.308 119.03C540.668 119.03 540.108 120.09 540.108 121.69V127.15ZM552.65 124.23C551.89 124.23 551.19 124.09 550.61 123.81C550.43 124.11 550.21 124.49 550.21 124.83C550.21 125.33 550.47 125.59 551.37 125.59H554.51C556.45 125.59 557.51 126.37 557.51 127.83C557.51 129.67 555.71 131.07 552.17 131.07C549.45 131.07 547.87 130.21 547.87 128.99C547.87 128.07 548.75 127.57 549.69 127.35C548.99 127.15 548.53 126.69 548.53 125.95C548.53 125.07 549.29 124.21 550.19 123.59C549.21 122.99 548.61 121.97 548.61 120.73C548.61 118.67 550.25 117.21 552.65 117.21C553.27 117.21 553.83 117.31 554.33 117.49L554.81 115.15L556.97 115.89L555.15 117.89C556.11 118.51 556.67 119.51 556.67 120.73C556.67 122.79 555.05 124.23 552.65 124.23ZM552.65 122.63C553.71 122.63 554.55 121.95 554.55 120.73C554.55 119.51 553.71 118.83 552.65 118.83C551.59 118.83 550.75 119.51 550.75 120.73C550.75 121.95 551.59 122.63 552.65 122.63ZM552.27 129.39C554.37 129.39 555.49 128.93 555.49 128.11C555.49 127.59 555.07 127.37 554.21 127.37H550.15C549.93 127.59 549.69 127.91 549.69 128.25C549.69 128.97 550.49 129.39 552.27 129.39ZM563.048 127.35C560.148 127.35 558.248 125.33 558.248 122.29C558.248 119.23 560.148 117.21 562.888 117.21C565.808 117.21 567.428 119.15 567.428 121.85C567.428 122.21 567.388 122.63 567.348 122.83H560.388C560.508 124.57 561.528 125.51 563.068 125.51C564.768 125.51 565.528 124.63 565.888 123.81L567.268 125.25C566.528 126.37 565.208 127.35 563.048 127.35ZM562.888 119.01C561.508 119.01 560.588 119.81 560.408 121.39H565.408C565.248 119.85 564.368 119.01 562.888 119.01ZM573.236 127.35C571.156 127.35 569.256 126.51 568.516 124.97L569.836 123.57C570.376 124.55 571.576 125.55 573.316 125.55C574.276 125.55 574.896 125.21 574.896 124.51C574.896 123.79 574.156 123.55 573.076 123.29L571.776 122.97C570.236 122.61 568.816 121.93 568.816 120.15C568.816 118.33 570.276 117.23 572.516 117.23C574.596 117.23 576.056 118.23 576.656 119.33L575.336 120.73C574.656 119.65 573.616 119.01 572.356 119.01C571.496 119.01 570.916 119.37 570.916 120.03C570.916 120.73 571.436 120.99 572.756 121.33L573.936 121.63C576.116 122.19 576.916 123.07 576.916 124.47C576.916 126.39 575.296 127.35 573.236 127.35Z" fill="#FDFDFD"/>
<rect x="215.05" y="97.1504" width="191.1" height="47" rx="10" fill="#0A0A0A"/>
<path d="M276.504 127.15H274.244V113.75H277.024L279.904 119.63L281.224 123.05L282.564 119.63L285.444 113.75H288.204V127.15H285.944V120.85L286.224 116.43L284.684 120.27L282.364 124.89H280.084L277.764 120.27L276.184 116.43L276.504 120.85V127.15ZM292.945 116.03H290.705V113.75H292.945V116.03ZM292.945 127.15H290.705V117.41H292.945V127.15ZM299.335 127.35C297.255 127.35 295.355 126.51 294.615 124.97L295.935 123.57C296.475 124.55 297.675 125.55 299.415 125.55C300.375 125.55 300.995 125.21 300.995 124.51C300.995 123.79 300.255 123.55 299.175 123.29L297.875 122.97C296.335 122.61 294.915 121.93 294.915 120.15C294.915 118.33 296.375 117.23 298.615 117.23C300.695 117.23 302.155 118.23 302.755 119.33L301.435 120.73C300.755 119.65 299.715 119.01 298.455 119.01C297.595 119.01 297.015 119.37 297.015 120.03C297.015 120.73 297.535 120.99 298.855 121.33L300.035 121.63C302.215 122.19 303.015 123.07 303.015 124.47C303.015 126.39 301.395 127.35 299.335 127.35ZM308.554 127.35C306.474 127.35 304.574 126.51 303.834 124.97L305.154 123.57C305.694 124.55 306.894 125.55 308.634 125.55C309.594 125.55 310.214 125.21 310.214 124.51C310.214 123.79 309.474 123.55 308.394 123.29L307.094 122.97C305.554 122.61 304.134 121.93 304.134 120.15C304.134 118.33 305.594 117.23 307.834 117.23C309.914 117.23 311.374 118.23 311.974 119.33L310.654 120.73C309.974 119.65 308.934 119.01 307.674 119.01C306.814 119.01 306.234 119.37 306.234 120.03C306.234 120.73 306.754 120.99 308.074 121.33L309.254 121.63C311.434 122.19 312.234 123.07 312.234 124.47C312.234 126.39 310.614 127.35 308.554 127.35ZM316.246 116.03H314.006V113.75H316.246V116.03ZM316.246 127.15H314.006V117.41H316.246V127.15ZM322.716 127.35C319.916 127.35 317.996 125.31 317.996 122.29C317.996 119.25 319.916 117.21 322.716 117.21C325.556 117.21 327.476 119.25 327.476 122.29C327.476 125.31 325.556 127.35 322.716 127.35ZM322.736 125.49C324.196 125.49 325.196 124.53 325.196 122.29C325.196 120.03 324.196 119.07 322.736 119.07C321.296 119.07 320.296 120.03 320.296 122.29C320.296 124.53 321.296 125.49 322.736 125.49ZM331.637 127.15H329.397V117.41H331.637V120.07C331.997 118.53 332.997 117.21 334.937 117.21C336.837 117.21 337.997 118.35 337.997 120.37V127.15H335.737V121.05C335.737 119.85 335.337 119.03 333.837 119.03C332.197 119.03 331.637 120.09 331.637 121.69V127.15ZM344.003 127.35C341.923 127.35 340.023 126.51 339.283 124.97L340.603 123.57C341.143 124.55 342.343 125.55 344.083 125.55C345.043 125.55 345.663 125.21 345.663 124.51C345.663 123.79 344.923 123.55 343.843 123.29L342.543 122.97C341.003 122.61 339.583 121.93 339.583 120.15C339.583 118.33 341.043 117.23 343.283 117.23C345.363 117.23 346.823 118.23 347.423 119.33L346.103 120.73C345.423 119.65 344.383 119.01 343.123 119.01C342.263 119.01 341.683 119.37 341.683 120.03C341.683 120.73 342.203 120.99 343.523 121.33L344.703 121.63C346.883 122.19 347.683 123.07 347.683 124.47C347.683 126.39 346.063 127.35 344.003 127.35Z" fill="#FDFDFD"/>
<rect y="96.1504" width="191.1" height="47" rx="10" fill="#0A0A0A"/>
<path d="M65.6511 126.31C61.5311 126.31 59.2111 123.29 59.2111 119.43C59.2111 115.57 61.5311 112.55 65.6511 112.55C68.6111 112.55 70.6511 114.07 71.5911 116.69L69.6311 118.13C69.2111 116.11 67.9711 114.69 65.6711 114.69C62.9111 114.69 61.6111 116.65 61.6111 119.43C61.6111 122.19 62.9111 124.17 65.6711 124.17C67.9711 124.17 69.2111 122.73 69.6311 120.73L71.5911 122.17C70.6511 124.77 68.6111 126.31 65.6511 126.31ZM77.4782 126.35C74.6782 126.35 72.7582 124.31 72.7582 121.29C72.7582 118.25 74.6782 116.21 77.4782 116.21C80.3182 116.21 82.2382 118.25 82.2382 121.29C82.2382 124.31 80.3182 126.35 77.4782 126.35ZM77.4982 124.49C78.9582 124.49 79.9582 123.53 79.9582 121.29C79.9582 119.03 78.9582 118.07 77.4982 118.07C76.0582 118.07 75.0582 119.03 75.0582 121.29C75.0582 123.53 76.0582 124.49 77.4982 124.49ZM87.1395 126.35C85.2595 126.35 84.0995 125.21 84.0995 123.19V116.41H86.3395V122.51C86.3395 123.71 86.7395 124.53 88.2395 124.53C89.8795 124.53 90.4395 123.47 90.4395 121.87V116.41H92.6995V126.15H90.4395V123.49C90.0795 125.03 89.0795 126.35 87.1395 126.35ZM97.2979 126.15H95.0579V116.41H97.2979V119.17C97.6579 117.61 98.6379 116.21 100.378 116.21C101.598 116.21 102.498 117.01 102.498 118.45C102.498 119.39 102.238 120.09 102.058 120.39H99.7579C100.078 120.07 100.378 119.43 100.378 118.87C100.378 118.33 100.118 117.89 99.4579 117.89C98.3379 117.89 97.2979 119.17 97.2979 120.79V126.15ZM107.73 126.35C105.65 126.35 103.75 125.51 103.01 123.97L104.33 122.57C104.87 123.55 106.07 124.55 107.81 124.55C108.77 124.55 109.39 124.21 109.39 123.51C109.39 122.79 108.65 122.55 107.57 122.29L106.27 121.97C104.73 121.61 103.31 120.93 103.31 119.15C103.31 117.33 104.77 116.23 107.01 116.23C109.09 116.23 110.55 117.23 111.15 118.33L109.83 119.73C109.15 118.65 108.11 118.01 106.85 118.01C105.99 118.01 105.41 118.37 105.41 119.03C105.41 119.73 105.93 119.99 107.25 120.33L108.43 120.63C110.61 121.19 111.41 122.07 111.41 123.47C111.41 125.39 109.79 126.35 107.73 126.35ZM117.308 126.35C114.408 126.35 112.508 124.33 112.508 121.29C112.508 118.23 114.408 116.21 117.148 116.21C120.068 116.21 121.688 118.15 121.688 120.85C121.688 121.21 121.648 121.63 121.608 121.83H114.648C114.768 123.57 115.788 124.51 117.328 124.51C119.028 124.51 119.788 123.63 120.148 122.81L121.528 124.25C120.788 125.37 119.468 126.35 117.308 126.35ZM117.148 118.01C115.768 118.01 114.848 118.81 114.668 120.39H119.668C119.508 118.85 118.628 118.01 117.148 118.01ZM127.496 126.35C125.416 126.35 123.516 125.51 122.776 123.97L124.096 122.57C124.636 123.55 125.836 124.55 127.576 124.55C128.536 124.55 129.156 124.21 129.156 123.51C129.156 122.79 128.416 122.55 127.336 122.29L126.036 121.97C124.496 121.61 123.076 120.93 123.076 119.15C123.076 117.33 124.536 116.23 126.776 116.23C128.856 116.23 130.316 117.23 130.916 118.33L129.596 119.73C128.916 118.65 127.876 118.01 126.616 118.01C125.756 118.01 125.176 118.37 125.176 119.03C125.176 119.73 125.696 119.99 127.016 120.33L128.196 120.63C130.376 121.19 131.176 122.07 131.176 123.47C131.176 125.39 129.556 126.35 127.496 126.35Z" fill="#FDFDFD"/>
<path d="M236.31 178.15H231.57V164.75H236.31C240.53 164.75 242.63 167.21 242.63 171.45C242.63 175.69 240.53 178.15 236.31 178.15ZM236.03 166.29H233.31V176.61H236.03C239.07 176.61 240.83 175.27 240.83 171.45C240.83 167.63 239.07 166.29 236.03 166.29ZM246.983 178.35C245.343 178.35 244.423 177.41 244.423 176.13C244.423 174.83 245.403 174.01 246.783 173.39L250.283 171.83C250.223 170.69 249.683 169.85 248.163 169.85C246.783 169.85 245.863 170.65 245.363 171.71L244.183 170.49C244.763 169.49 246.203 168.27 248.363 168.27C250.743 168.27 252.023 169.69 252.023 171.99V175.97C252.023 176.43 252.203 176.57 252.563 176.57H253.183V178.15H252.063C251.063 178.15 250.343 177.67 250.343 176.31V175.63C250.023 176.91 248.983 178.35 246.983 178.35ZM246.183 175.85C246.183 176.51 246.643 176.91 247.543 176.91C249.183 176.91 250.343 175.83 250.343 174.43V173.09L247.523 174.41C246.603 174.85 246.183 175.25 246.183 175.85ZM256.938 166.91H255.198V164.75H256.938V166.91ZM256.938 178.15H255.198V168.47H256.938V178.15ZM261.293 178.15H259.553V164.75H261.293V178.15ZM265.349 181.31C263.969 181.31 262.969 180.55 262.549 179.75L263.489 178.43C263.949 179.21 264.449 179.79 265.369 179.79C266.149 179.79 266.669 179.41 267.049 178.23L267.249 177.61L266.169 177.63L262.909 168.47H264.769L266.849 174.69L267.529 176.77L268.209 174.69L270.269 168.47H272.129L268.409 178.95C267.789 180.73 266.709 181.31 265.349 181.31ZM279.692 178.15H277.952V168.47H279.692V171.03C280.072 169.55 281.072 168.27 282.812 168.27C284.592 168.27 285.572 169.29 285.672 171.11C286.052 169.57 287.052 168.27 288.812 168.27C290.712 168.27 291.692 169.41 291.692 171.45V178.15H289.972V171.87C289.972 170.45 289.292 169.75 287.852 169.75C286.372 169.75 285.692 171.05 285.692 172.67V178.15H283.952V171.87C283.952 170.45 283.292 169.75 281.832 169.75C280.372 169.75 279.692 171.05 279.692 172.67V178.15ZM296.02 166.91H294.28V164.75H296.02V166.91ZM296.02 178.15H294.28V168.47H296.02V178.15ZM302.395 178.35C300.375 178.35 298.535 177.47 297.875 175.67L299.135 174.69C299.475 175.79 300.535 176.89 302.455 176.89C303.595 176.89 304.355 176.45 304.355 175.59C304.355 174.71 303.475 174.43 302.335 174.17L301.055 173.87C299.675 173.55 298.175 172.89 298.175 171.11C298.175 169.35 299.535 168.27 301.635 168.27C303.675 168.27 305.095 169.35 305.635 170.63L304.315 171.61C303.835 170.47 302.915 169.75 301.535 169.75C300.535 169.75 299.815 170.19 299.815 171.01C299.815 171.87 300.455 172.17 301.775 172.49L303.015 172.81C305.195 173.33 305.915 174.23 305.915 175.57C305.915 177.49 304.275 178.35 302.395 178.35ZM311.458 178.35C309.438 178.35 307.598 177.47 306.938 175.67L308.198 174.69C308.538 175.79 309.598 176.89 311.518 176.89C312.658 176.89 313.418 176.45 313.418 175.59C313.418 174.71 312.538 174.43 311.398 174.17L310.118 173.87C308.738 173.55 307.238 172.89 307.238 171.11C307.238 169.35 308.598 168.27 310.698 168.27C312.738 168.27 314.158 169.35 314.698 170.63L313.378 171.61C312.898 170.47 311.978 169.75 310.598 169.75C309.598 169.75 308.878 170.19 308.878 171.01C308.878 171.87 309.518 172.17 310.838 172.49L312.078 172.81C314.258 173.33 314.978 174.23 314.978 175.57C314.978 177.49 313.338 178.35 311.458 178.35ZM318.735 166.91H316.995V164.75H318.735V166.91ZM318.735 178.15H316.995V168.47H318.735V178.15ZM325.23 178.35C322.55 178.35 320.67 176.37 320.67 173.31C320.67 170.25 322.55 168.27 325.23 168.27C327.91 168.27 329.81 170.25 329.81 173.31C329.81 176.37 327.91 178.35 325.23 178.35ZM325.23 176.89C326.89 176.89 328.05 175.75 328.05 173.31C328.05 170.85 326.89 169.73 325.23 169.73C323.59 169.73 322.45 170.85 322.45 173.31C322.45 175.75 323.59 176.89 325.23 176.89ZM333.735 178.15H331.995V168.47H333.735V171.05C334.115 169.55 335.155 168.27 337.055 168.27C338.955 168.27 340.135 169.41 340.135 171.47V178.15H338.415V171.89C338.415 170.63 337.915 169.75 336.275 169.75C334.415 169.75 333.735 171.05 333.735 172.67V178.15ZM346.184 178.35C344.164 178.35 342.324 177.47 341.664 175.67L342.924 174.69C343.264 175.79 344.324 176.89 346.244 176.89C347.384 176.89 348.144 176.45 348.144 175.59C348.144 174.71 347.264 174.43 346.124 174.17L344.844 173.87C343.464 173.55 341.964 172.89 341.964 171.11C341.964 169.35 343.324 168.27 345.424 168.27C347.464 168.27 348.884 169.35 349.424 170.63L348.104 171.61C347.624 170.47 346.704 169.75 345.324 169.75C344.324 169.75 343.604 170.19 343.604 171.01C343.604 171.87 344.244 172.17 345.564 172.49L346.804 172.81C348.984 173.33 349.704 174.23 349.704 175.57C349.704 177.49 348.064 178.35 346.184 178.35Z" fill="#323232"/>
<path d="M237.33 211.31C233.27 211.31 231.05 208.29 231.05 204.43C231.05 200.57 233.27 197.55 237.33 197.55C240.33 197.55 242.35 199.15 243.21 201.91L241.65 202.93C241.21 200.69 239.89 199.19 237.35 199.19C234.29 199.19 232.89 201.37 232.89 204.43C232.89 207.49 234.29 209.67 237.35 209.67C239.89 209.67 241.21 208.17 241.65 205.93L243.21 206.95C242.35 209.71 240.33 211.31 237.33 211.31ZM249.176 211.35C246.496 211.35 244.616 209.37 244.616 206.31C244.616 203.25 246.496 201.27 249.176 201.27C251.856 201.27 253.756 203.25 253.756 206.31C253.756 209.37 251.856 211.35 249.176 211.35ZM249.176 209.89C250.836 209.89 251.996 208.75 251.996 206.31C251.996 203.85 250.836 202.73 249.176 202.73C247.536 202.73 246.396 203.85 246.396 206.31C246.396 208.75 247.536 209.89 249.176 209.89ZM257.68 211.15H255.94V201.47H257.68V204.05C258.06 202.55 259.1 201.27 261 201.27C262.9 201.27 264.08 202.41 264.08 204.47V211.15H262.36V204.89C262.36 203.63 261.86 202.75 260.22 202.75C258.36 202.75 257.68 204.05 257.68 205.67V211.15ZM269.629 211.37C268.049 211.37 266.929 210.33 266.929 208.67V202.83H265.369V201.47H266.929V200.23L268.669 198.95V201.47H271.849V202.83H268.669V208.15C268.669 209.39 269.249 209.69 270.009 209.69C270.869 209.69 271.469 208.97 271.729 208.37L272.309 210.09C271.889 210.75 270.969 211.37 269.629 211.37ZM275.766 199.91H274.026V197.75H275.766V199.91ZM275.766 211.15H274.026V201.47H275.766V211.15ZM280.122 211.15H278.382V201.47H280.122V204.05C280.502 202.55 281.542 201.27 283.442 201.27C285.342 201.27 286.522 202.41 286.522 204.47V211.15H284.802V204.89C284.802 203.63 284.302 202.75 282.662 202.75C280.802 202.75 280.122 204.05 280.122 205.67V211.15ZM292.124 211.35C290.224 211.35 289.044 210.21 289.044 208.17V201.47H290.764V207.75C290.764 208.99 291.264 209.89 292.904 209.89C294.784 209.89 295.464 208.57 295.464 206.97V201.47H297.184V211.15H295.464V208.51C295.104 210.03 294.064 211.35 292.124 211.35ZM301.567 199.91H299.827V197.75H301.567V199.91ZM301.567 211.15H299.827V201.47H301.567V211.15ZM305.922 211.15H304.182V201.47H305.922V204.05C306.302 202.55 307.342 201.27 309.242 201.27C311.142 201.27 312.322 202.41 312.322 204.47V211.15H310.602V204.89C310.602 203.63 310.102 202.75 308.462 202.75C306.602 202.75 305.922 204.05 305.922 205.67V211.15ZM318.568 208.19C317.868 208.19 317.228 208.05 316.688 207.79C316.448 208.11 316.168 208.57 316.168 208.99C316.168 209.51 316.448 209.77 317.448 209.77H320.368C322.128 209.77 323.228 210.47 323.228 211.93C323.228 213.77 321.428 215.07 318.168 215.07C315.688 215.07 314.128 214.25 314.128 212.97C314.128 212.07 314.948 211.53 315.688 211.23C315.068 211.03 314.748 210.57 314.748 209.93C314.748 209.17 315.328 208.33 316.268 207.57C315.308 206.97 314.748 205.95 314.748 204.73C314.748 202.71 316.288 201.27 318.568 201.27C319.208 201.27 319.788 201.39 320.288 201.59L320.888 199.27L322.688 199.91L320.908 201.91C321.828 202.51 322.388 203.53 322.388 204.73C322.388 206.75 320.848 208.19 318.568 208.19ZM318.568 206.85C319.788 206.85 320.708 206.05 320.708 204.73C320.708 203.41 319.788 202.61 318.568 202.61C317.368 202.61 316.428 203.41 316.428 204.73C316.428 206.05 317.368 206.85 318.568 206.85ZM318.168 213.69C320.368 213.69 321.608 213.13 321.608 212.17C321.608 211.55 321.128 211.27 320.148 211.27H316.188C315.868 211.55 315.528 211.97 315.528 212.43C315.528 213.21 316.428 213.69 318.168 213.69Z" fill="#323232"/>
<path d="M30.28 182.15H21.52V168.75H23.26V180.61H30.28V182.15ZM35.3228 182.35C32.5828 182.35 30.6828 180.39 30.6828 177.31C30.6828 174.25 32.5628 172.27 35.2228 172.27C37.9628 172.27 39.6228 174.09 39.6228 176.93C39.6228 177.23 39.5828 177.53 39.5428 177.71H32.3628C32.4628 179.75 33.6028 180.91 35.3228 180.91C37.2628 180.91 38.0428 179.85 38.4228 179.01L39.4828 180.21C38.7628 181.37 37.4228 182.35 35.3228 182.35ZM35.2228 173.73C33.6628 173.73 32.6228 174.65 32.4028 176.45H38.0628C37.8828 174.67 36.8428 173.73 35.2228 173.73ZM45.4316 182.35C43.4116 182.35 41.5716 181.47 40.9116 179.67L42.1716 178.69C42.5116 179.79 43.5716 180.89 45.4916 180.89C46.6316 180.89 47.3916 180.45 47.3916 179.59C47.3916 178.71 46.5116 178.43 45.3716 178.17L44.0916 177.87C42.7116 177.55 41.2116 176.89 41.2116 175.11C41.2116 173.35 42.5716 172.27 44.6716 172.27C46.7116 172.27 48.1316 173.35 48.6716 174.63L47.3516 175.61C46.8716 174.47 45.9516 173.75 44.5716 173.75C43.5716 173.75 42.8516 174.19 42.8516 175.01C42.8516 175.87 43.4916 176.17 44.8116 176.49L46.0516 176.81C48.2316 177.33 48.9516 178.23 48.9516 179.57C48.9516 181.49 47.3116 182.35 45.4316 182.35ZM54.4941 182.35C52.4741 182.35 50.6341 181.47 49.9741 179.67L51.2341 178.69C51.5741 179.79 52.6341 180.89 54.5541 180.89C55.6941 180.89 56.4541 180.45 56.4541 179.59C56.4541 178.71 55.5741 178.43 54.4341 178.17L53.1541 177.87C51.7741 177.55 50.2741 176.89 50.2741 175.11C50.2741 173.35 51.6341 172.27 53.7341 172.27C55.7741 172.27 57.1941 173.35 57.7341 174.63L56.4141 175.61C55.9341 174.47 55.0141 173.75 53.6341 173.75C52.6341 173.75 51.9141 174.19 51.9141 175.01C51.9141 175.87 52.5541 176.17 53.8741 176.49L55.1141 176.81C57.2941 177.33 58.0141 178.23 58.0141 179.57C58.0141 181.49 56.3741 182.35 54.4941 182.35ZM63.7156 182.35C61.0356 182.35 59.1556 180.37 59.1556 177.31C59.1556 174.25 61.0356 172.27 63.7156 172.27C66.3956 172.27 68.2956 174.25 68.2956 177.31C68.2956 180.37 66.3956 182.35 63.7156 182.35ZM63.7156 180.89C65.3756 180.89 66.5356 179.75 66.5356 177.31C66.5356 174.85 65.3756 173.73 63.7156 173.73C62.0756 173.73 60.9356 174.85 60.9356 177.31C60.9356 179.75 62.0756 180.89 63.7156 180.89ZM72.2202 182.15H70.4802V172.47H72.2202V175.05C72.6002 173.55 73.6402 172.27 75.5402 172.27C77.4402 172.27 78.6202 173.41 78.6202 175.47V182.15H76.9002V175.89C76.9002 174.63 76.4002 173.75 74.7602 173.75C72.9002 173.75 72.2202 175.05 72.2202 176.67V182.15ZM84.6698 182.35C82.6498 182.35 80.8098 181.47 80.1498 179.67L81.4098 178.69C81.7498 179.79 82.8098 180.89 84.7298 180.89C85.8698 180.89 86.6298 180.45 86.6298 179.59C86.6298 178.71 85.7498 178.43 84.6098 178.17L83.3298 177.87C81.9498 177.55 80.4498 176.89 80.4498 175.11C80.4498 173.35 81.8098 172.27 83.9098 172.27C85.9498 172.27 87.3698 173.35 87.9098 174.63L86.5898 175.61C86.1098 174.47 85.1898 173.75 83.8098 173.75C82.8098 173.75 82.0898 174.19 82.0898 175.01C82.0898 175.87 82.7298 176.17 84.0498 176.49L85.2898 176.81C87.4698 177.33 88.1898 178.23 88.1898 179.57C88.1898 181.49 86.5498 182.35 84.6698 182.35Z" fill="#323232"/>
<path d="M26.26 215.15H21.52V201.75H26.26C30.48 201.75 32.58 204.21 32.58 208.45C32.58 212.69 30.48 215.15 26.26 215.15ZM25.98 203.29H23.26V213.61H25.98C29.02 213.61 30.78 212.27 30.78 208.45C30.78 204.63 29.02 203.29 25.98 203.29ZM36.9333 215.35C35.2933 215.35 34.3733 214.41 34.3733 213.13C34.3733 211.83 35.3533 211.01 36.7333 210.39L40.2333 208.83C40.1733 207.69 39.6333 206.85 38.1133 206.85C36.7333 206.85 35.8133 207.65 35.3133 208.71L34.1333 207.49C34.7133 206.49 36.1533 205.27 38.3133 205.27C40.6933 205.27 41.9733 206.69 41.9733 208.99V212.97C41.9733 213.43 42.1533 213.57 42.5133 213.57H43.1333V215.15H42.0133C41.0133 215.15 40.2933 214.67 40.2933 213.31V212.63C39.9733 213.91 38.9333 215.35 36.9333 215.35ZM36.1333 212.85C36.1333 213.51 36.5933 213.91 37.4933 213.91C39.1333 213.91 40.2933 212.83 40.2933 211.43V210.09L37.4733 211.41C36.5533 211.85 36.1333 212.25 36.1333 212.85ZM46.8881 203.91H45.1481V201.75H46.8881V203.91ZM46.8881 215.15H45.1481V205.47H46.8881V215.15ZM51.2436 215.15H49.5036V201.75H51.2436V215.15ZM55.2991 218.31C53.9191 218.31 52.9191 217.55 52.4991 216.75L53.4391 215.43C53.8991 216.21 54.3991 216.79 55.3191 216.79C56.0991 216.79 56.6191 216.41 56.9991 215.23L57.1991 214.61L56.1191 214.63L52.8591 205.47H54.7191L56.7991 211.69L57.4791 213.77L58.1591 211.69L60.2191 205.47H62.0791L58.3591 215.95C57.7391 217.73 56.6591 218.31 55.2991 218.31ZM69.642 215.15H67.902V205.47H69.642V208.05C70.022 206.55 71.022 205.25 72.662 205.25C73.702 205.25 74.702 205.99 74.702 207.35C74.702 208.17 74.482 208.77 74.322 209.01H72.422C72.742 208.73 73.002 208.13 73.002 207.59C73.002 207.03 72.702 206.55 72.002 206.55C70.762 206.55 69.642 208.01 69.642 209.67V215.15ZM80.2056 215.35C77.4656 215.35 75.5656 213.39 75.5656 210.31C75.5656 207.25 77.4456 205.27 80.1056 205.27C82.8456 205.27 84.5056 207.09 84.5056 209.93C84.5056 210.23 84.4656 210.53 84.4256 210.71H77.2456C77.3456 212.75 78.4856 213.91 80.2056 213.91C82.1456 213.91 82.9256 212.85 83.3056 212.01L84.3656 213.21C83.6456 214.37 82.3056 215.35 80.2056 215.35ZM80.1056 206.73C78.5456 206.73 77.5056 207.65 77.2856 209.45H82.9456C82.7656 207.67 81.7256 206.73 80.1056 206.73ZM89.9414 215.15H87.6814L85.1614 205.47H87.1014L88.3614 211.43L88.8214 213.89L89.4214 211.43L91.1814 205.47H93.3214L95.0614 211.43L95.6814 213.89L96.1414 211.43L97.3814 205.47H99.3214L96.8214 215.15H94.5414L92.8814 209.49L92.2614 206.91L91.6014 209.49L89.9414 215.15ZM102.715 215.35C101.075 215.35 100.155 214.41 100.155 213.13C100.155 211.83 101.135 211.01 102.515 210.39L106.015 208.83C105.955 207.69 105.415 206.85 103.895 206.85C102.515 206.85 101.595 207.65 101.095 208.71L99.9145 207.49C100.495 206.49 101.935 205.27 104.095 205.27C106.475 205.27 107.755 206.69 107.755 208.99V212.97C107.755 213.43 107.935 213.57 108.295 213.57H108.915V215.15H107.795C106.795 215.15 106.075 214.67 106.075 213.31V212.63C105.755 213.91 104.715 215.35 102.715 215.35ZM101.915 212.85C101.915 213.51 102.375 213.91 103.275 213.91C104.915 213.91 106.075 212.83 106.075 211.43V210.09L103.255 211.41C102.335 211.85 101.915 212.25 101.915 212.85ZM112.669 215.15H110.929V205.47H112.669V208.05C113.049 206.55 114.049 205.25 115.689 205.25C116.729 205.25 117.729 205.99 117.729 207.35C117.729 208.17 117.509 208.77 117.349 209.01H115.449C115.769 208.73 116.029 208.13 116.029 207.59C116.029 207.03 115.729 206.55 115.029 206.55C113.789 206.55 112.669 208.01 112.669 209.67V215.15ZM122.533 215.39C120.093 215.39 118.573 213.39 118.573 210.33C118.573 207.27 120.093 205.27 122.533 205.27C124.393 205.27 125.313 206.51 125.653 207.99V201.75H127.393V215.15H125.653V212.67C125.313 214.15 124.393 215.39 122.533 215.39ZM120.333 210.33C120.333 212.81 121.593 213.93 123.113 213.93C124.973 213.93 125.653 212.63 125.653 211.03V209.65C125.653 208.05 124.973 206.75 123.113 206.75C121.593 206.75 120.333 207.87 120.333 210.33Z" fill="#323232"/>
<path d="M457.03 178.31C453.45 178.31 451.55 175.49 451.55 171.43C451.55 167.51 453.75 164.55 457.79 164.55C460.59 164.55 462.61 165.97 463.51 168.51L461.95 169.53C461.49 167.63 460.17 166.19 457.81 166.19C454.77 166.19 453.39 168.37 453.39 171.43C453.39 174.49 454.73 176.67 457.63 176.67C460.21 176.67 461.23 175.23 461.73 172.97H457.63V171.43H463.55V178.15H462.47L461.93 172.97C461.83 175.95 460.11 178.31 457.03 178.31ZM468.186 178.35C466.546 178.35 465.626 177.41 465.626 176.13C465.626 174.83 466.606 174.01 467.986 173.39L471.486 171.83C471.426 170.69 470.886 169.85 469.366 169.85C467.986 169.85 467.066 170.65 466.566 171.71L465.386 170.49C465.966 169.49 467.406 168.27 469.566 168.27C471.946 168.27 473.226 169.69 473.226 171.99V175.97C473.226 176.43 473.406 176.57 473.766 176.57H474.386V178.15H473.266C472.266 178.15 471.546 177.67 471.546 176.31V175.63C471.226 176.91 470.186 178.35 468.186 178.35ZM467.386 175.85C467.386 176.51 467.846 176.91 468.746 176.91C470.386 176.91 471.546 175.83 471.546 174.43V173.09L468.726 174.41C467.806 174.85 467.386 175.25 467.386 175.85ZM478.141 178.15H476.401V168.47H478.141V171.03C478.521 169.55 479.521 168.27 481.261 168.27C483.041 168.27 484.021 169.29 484.121 171.11C484.501 169.57 485.501 168.27 487.261 168.27C489.161 168.27 490.141 169.41 490.141 171.45V178.15H488.421V171.87C488.421 170.45 487.741 169.75 486.301 169.75C484.821 169.75 484.141 171.05 484.141 172.67V178.15H482.401V171.87C482.401 170.45 481.741 169.75 480.281 169.75C478.821 169.75 478.141 171.05 478.141 172.67V178.15ZM496.81 178.35C494.07 178.35 492.17 176.39 492.17 173.31C492.17 170.25 494.05 168.27 496.71 168.27C499.45 168.27 501.11 170.09 501.11 172.93C501.11 173.23 501.07 173.53 501.03 173.71H493.85C493.95 175.75 495.09 176.91 496.81 176.91C498.75 176.91 499.53 175.85 499.91 175.01L500.97 176.21C500.25 177.37 498.91 178.35 496.81 178.35ZM496.71 169.73C495.15 169.73 494.11 170.65 493.89 172.45H499.55C499.37 170.67 498.33 169.73 496.71 169.73ZM506.919 178.35C504.899 178.35 503.059 177.47 502.399 175.67L503.659 174.69C503.999 175.79 505.059 176.89 506.979 176.89C508.119 176.89 508.879 176.45 508.879 175.59C508.879 174.71 507.999 174.43 506.859 174.17L505.579 173.87C504.199 173.55 502.699 172.89 502.699 171.11C502.699 169.35 504.059 168.27 506.159 168.27C508.199 168.27 509.619 169.35 510.159 170.63L508.839 171.61C508.359 170.47 507.439 169.75 506.059 169.75C505.059 169.75 504.339 170.19 504.339 171.01C504.339 171.87 504.979 172.17 506.299 172.49L507.539 172.81C509.719 173.33 510.439 174.23 510.439 175.57C510.439 177.49 508.799 178.35 506.919 178.35Z" fill="#323232"/>
<path d="M453.81 211.15H452.07V197.75H457.91C460.53 197.75 462.47 199.19 462.47 201.87C462.47 204.01 461.01 205.37 458.95 205.65C459.57 205.85 460.07 206.27 460.49 207.01L462.89 211.15H460.85L458.49 207.03C457.99 206.13 457.27 205.81 455.95 205.81H453.81V211.15ZM457.63 199.29H453.81V204.35H457.63C459.23 204.35 460.67 203.77 460.67 201.87C460.67 199.87 459.23 199.29 457.63 199.29ZM466.507 211.35C464.867 211.35 463.947 210.41 463.947 209.13C463.947 207.83 464.927 207.01 466.307 206.39L469.807 204.83C469.747 203.69 469.207 202.85 467.687 202.85C466.307 202.85 465.387 203.65 464.887 204.71L463.707 203.49C464.287 202.49 465.727 201.27 467.887 201.27C470.267 201.27 471.547 202.69 471.547 204.99V208.97C471.547 209.43 471.727 209.57 472.087 209.57H472.707V211.15H471.587C470.587 211.15 469.867 210.67 469.867 209.31V208.63C469.547 209.91 468.507 211.35 466.507 211.35ZM465.707 208.85C465.707 209.51 466.167 209.91 467.067 209.91C468.707 209.91 469.867 208.83 469.867 207.43V206.09L467.047 207.41C466.127 207.85 465.707 208.25 465.707 208.85ZM476.461 211.15H474.721V201.47H476.461V204.05C476.841 202.55 477.881 201.27 479.781 201.27C481.681 201.27 482.861 202.41 482.861 204.47V211.15H481.141V204.89C481.141 203.63 480.641 202.75 479.001 202.75C477.141 202.75 476.461 204.05 476.461 205.67V211.15ZM487.184 211.15H485.444V197.75H487.184V204.55L487.124 205.91L488.544 204.51L491.724 201.47H493.904L489.924 205.23L493.964 211.15H491.864L488.724 206.31L487.184 207.77V211.15ZM497.243 199.91H495.503V197.75H497.243V199.91ZM497.243 211.15H495.503V201.47H497.243V211.15ZM501.598 211.15H499.858V201.47H501.598V204.05C501.978 202.55 503.018 201.27 504.918 201.27C506.818 201.27 507.998 202.41 507.998 204.47V211.15H506.278V204.89C506.278 203.63 505.778 202.75 504.138 202.75C502.278 202.75 501.598 204.05 501.598 205.67V211.15ZM514.244 208.19C513.544 208.19 512.904 208.05 512.364 207.79C512.124 208.11 511.844 208.57 511.844 208.99C511.844 209.51 512.124 209.77 513.124 209.77H516.044C517.804 209.77 518.904 210.47 518.904 211.93C518.904 213.77 517.104 215.07 513.844 215.07C511.364 215.07 509.804 214.25 509.804 212.97C509.804 212.07 510.624 211.53 511.364 211.23C510.744 211.03 510.424 210.57 510.424 209.93C510.424 209.17 511.004 208.33 511.944 207.57C510.984 206.97 510.424 205.95 510.424 204.73C510.424 202.71 511.964 201.27 514.244 201.27C514.884 201.27 515.464 201.39 515.964 201.59L516.564 199.27L518.364 199.91L516.584 201.91C517.504 202.51 518.064 203.53 518.064 204.73C518.064 206.75 516.524 208.19 514.244 208.19ZM514.244 206.85C515.464 206.85 516.384 206.05 516.384 204.73C516.384 203.41 515.464 202.61 514.244 202.61C513.044 202.61 512.104 203.41 512.104 204.73C512.104 206.05 513.044 206.85 514.244 206.85ZM513.844 213.69C516.044 213.69 517.284 213.13 517.284 212.17C517.284 211.55 516.804 211.27 515.824 211.27H511.864C511.544 211.55 511.204 211.97 511.204 212.43C511.204 213.21 512.104 213.69 513.844 213.69ZM524.106 211.35C522.086 211.35 520.246 210.47 519.586 208.67L520.846 207.69C521.186 208.79 522.246 209.89 524.166 209.89C525.306 209.89 526.066 209.45 526.066 208.59C526.066 207.71 525.186 207.43 524.046 207.17L522.766 206.87C521.386 206.55 519.886 205.89 519.886 204.11C519.886 202.35 521.246 201.27 523.346 201.27C525.386 201.27 526.806 202.35 527.346 203.63L526.026 204.61C525.546 203.47 524.626 202.75 523.246 202.75C522.246 202.75 521.526 203.19 521.526 204.01C521.526 204.87 522.166 205.17 523.486 205.49L524.726 205.81C526.906 206.33 527.626 207.23 527.626 208.57C527.626 210.49 525.986 211.35 524.106 211.35Z" fill="#323232"/>
<path d="M676.03 178.35C672.17 178.35 669.55 175.33 669.55 171.43C669.55 167.57 672.17 164.55 676.03 164.55C679.91 164.55 682.51 167.57 682.51 171.43C682.51 175.33 679.91 178.35 676.03 178.35ZM676.05 176.69C679.11 176.69 680.71 174.51 680.71 171.43C680.71 168.39 679.11 166.19 676.05 166.19C672.99 166.19 671.39 168.39 671.39 171.43C671.39 174.51 672.99 176.69 676.05 176.69ZM687.949 178.35C686.049 178.35 684.869 177.21 684.869 175.17V168.47H686.589V174.75C686.589 175.99 687.089 176.89 688.729 176.89C690.609 176.89 691.289 175.57 691.289 173.97V168.47H693.009V178.15H691.289V175.51C690.929 177.03 689.889 178.35 687.949 178.35ZM698.618 178.37C697.038 178.37 695.918 177.33 695.918 175.67V169.83H694.358V168.47H695.918V167.23L697.658 165.95V168.47H700.838V169.83H697.658V175.15C697.658 176.39 698.238 176.69 698.998 176.69C699.858 176.69 700.458 175.97 700.718 175.37L701.298 177.09C700.878 177.75 699.958 178.37 698.618 178.37ZM704.695 178.15H702.955V169.83H701.375V168.47H702.955V167.57C702.955 165.63 704.175 164.55 706.215 164.55C707.835 164.55 708.955 165.39 709.355 165.89L708.415 167.13C707.955 166.53 707.115 165.99 706.115 165.99C705.155 165.99 704.695 166.53 704.695 167.63V168.47H710.155V178.15H708.435V169.83H704.695V178.15ZM715.767 178.37C714.187 178.37 713.067 177.33 713.067 175.67V169.83H711.507V168.47H713.067V167.23L714.807 165.95V168.47H717.987V169.83H714.807V175.15C714.807 176.39 715.387 176.69 716.147 176.69C717.007 176.69 717.607 175.97 717.867 175.37L718.447 177.09C718.027 177.75 717.107 178.37 715.767 178.37ZM723.494 178.35C721.474 178.35 719.634 177.47 718.974 175.67L720.234 174.69C720.574 175.79 721.634 176.89 723.554 176.89C724.694 176.89 725.454 176.45 725.454 175.59C725.454 174.71 724.574 174.43 723.434 174.17L722.154 173.87C720.774 173.55 719.274 172.89 719.274 171.11C719.274 169.35 720.634 168.27 722.734 168.27C724.774 168.27 726.194 169.35 726.734 170.63L725.414 171.61C724.934 170.47 724.014 169.75 722.634 169.75C721.634 169.75 720.914 170.19 720.914 171.01C720.914 171.87 721.554 172.17 722.874 172.49L724.114 172.81C726.294 173.33 727.014 174.23 727.014 175.57C727.014 177.49 725.374 178.35 723.494 178.35Z" fill="#323232"/>
<path d="M675.83 211.31C671.77 211.31 669.55 208.29 669.55 204.43C669.55 200.57 671.77 197.55 675.83 197.55C678.83 197.55 680.85 199.15 681.71 201.91L680.15 202.93C679.71 200.69 678.39 199.19 675.85 199.19C672.79 199.19 671.39 201.37 671.39 204.43C671.39 207.49 672.79 209.67 675.85 209.67C678.39 209.67 679.71 208.17 680.15 205.93L681.71 206.95C680.85 209.71 678.83 211.31 675.83 211.31ZM685.673 211.15H683.933V197.75H685.673V204.05C686.053 202.55 687.093 201.27 688.993 201.27C690.893 201.27 692.073 202.41 692.073 204.47V211.15H690.353V204.89C690.353 203.63 689.853 202.75 688.213 202.75C686.353 202.75 685.673 204.05 685.673 205.67V211.15ZM696.695 211.35C695.055 211.35 694.135 210.41 694.135 209.13C694.135 207.83 695.115 207.01 696.495 206.39L699.995 204.83C699.935 203.69 699.395 202.85 697.875 202.85C696.495 202.85 695.575 203.65 695.075 204.71L693.895 203.49C694.475 202.49 695.915 201.27 698.075 201.27C700.455 201.27 701.735 202.69 701.735 204.99V208.97C701.735 209.43 701.915 209.57 702.275 209.57H702.895V211.15H701.775C700.775 211.15 700.055 210.67 700.055 209.31V208.63C699.735 209.91 698.695 211.35 696.695 211.35ZM695.895 208.85C695.895 209.51 696.355 209.91 697.255 209.91C698.895 209.91 700.055 208.83 700.055 207.43V206.09L697.235 207.41C696.315 207.85 695.895 208.25 695.895 208.85ZM706.649 211.15H704.909V201.47H706.649V204.05C707.029 202.55 708.029 201.25 709.669 201.25C710.709 201.25 711.709 201.99 711.709 203.35C711.709 204.17 711.489 204.77 711.329 205.01H709.429C709.749 204.73 710.009 204.13 710.009 203.59C710.009 203.03 709.709 202.55 709.009 202.55C707.769 202.55 706.649 204.01 706.649 205.67V211.15ZM715.249 211.35C713.609 211.35 712.689 210.41 712.689 209.13C712.689 207.83 713.669 207.01 715.049 206.39L718.549 204.83C718.489 203.69 717.949 202.85 716.429 202.85C715.049 202.85 714.129 203.65 713.629 204.71L712.449 203.49C713.029 202.49 714.469 201.27 716.629 201.27C719.009 201.27 720.289 202.69 720.289 204.99V208.97C720.289 209.43 720.469 209.57 720.829 209.57H721.449V211.15H720.329C719.329 211.15 718.609 210.67 718.609 209.31V208.63C718.289 209.91 717.249 211.35 715.249 211.35ZM714.449 208.85C714.449 209.51 714.909 209.91 715.809 209.91C717.449 209.91 718.609 208.83 718.609 207.43V206.09L715.789 207.41C714.869 207.85 714.449 208.25 714.449 208.85ZM727.445 211.35C724.665 211.35 722.885 209.39 722.885 206.31C722.885 203.25 724.665 201.27 727.445 201.27C729.965 201.27 731.445 202.73 731.905 204.67L730.205 205.37C730.005 203.83 729.205 202.73 727.465 202.73C725.705 202.73 724.645 204.03 724.645 206.31C724.645 208.59 725.705 209.91 727.465 209.91C729.205 209.91 730.005 208.79 730.205 207.25L731.905 207.95C731.445 209.89 729.965 211.35 727.445 211.35ZM737.075 211.37C735.495 211.37 734.375 210.33 734.375 208.67V202.83H732.815V201.47H734.375V200.23L736.115 198.95V201.47H739.295V202.83H736.115V208.15C736.115 209.39 736.695 209.69 737.455 209.69C738.315 209.69 738.915 208.97 739.175 208.37L739.755 210.09C739.335 210.75 738.415 211.37 737.075 211.37ZM744.908 211.35C742.168 211.35 740.268 209.39 740.268 206.31C740.268 203.25 742.148 201.27 744.808 201.27C747.548 201.27 749.208 203.09 749.208 205.93C749.208 206.23 749.168 206.53 749.128 206.71H741.948C742.048 208.75 743.188 209.91 744.908 209.91C746.848 209.91 747.628 208.85 748.008 208.01L749.068 209.21C748.348 210.37 747.008 211.35 744.908 211.35ZM744.808 202.73C743.248 202.73 742.208 203.65 741.988 205.45H747.648C747.468 203.67 746.428 202.73 744.808 202.73ZM753.153 211.15H751.413V201.47H753.153V204.05C753.533 202.55 754.533 201.25 756.173 201.25C757.213 201.25 758.213 201.99 758.213 203.35C758.213 204.17 757.993 204.77 757.833 205.01H755.933C756.253 204.73 756.513 204.13 756.513 203.59C756.513 203.03 756.213 202.55 755.513 202.55C754.273 202.55 753.153 204.01 753.153 205.67V211.15ZM763.357 211.35C761.337 211.35 759.497 210.47 758.837 208.67L760.097 207.69C760.437 208.79 761.497 209.89 763.417 209.89C764.557 209.89 765.317 209.45 765.317 208.59C765.317 207.71 764.437 207.43 763.297 207.17L762.017 206.87C760.637 206.55 759.137 205.89 759.137 204.11C759.137 202.35 760.497 201.27 762.597 201.27C764.637 201.27 766.057 202.35 766.597 203.63L765.277 204.61C764.797 203.47 763.877 202.75 762.497 202.75C761.497 202.75 760.777 203.19 760.777 204.01C760.777 204.87 761.417 205.17 762.737 205.49L763.977 205.81C766.157 206.33 766.877 207.23 766.877 208.57C766.877 210.49 765.237 211.35 763.357 211.35Z" fill="#323232"/>
<path d="M671.81 244.15H670.07V230.75H679.05V232.29H671.81V237.09H677.75V238.63H671.81V244.15ZM683.867 244.35C681.187 244.35 679.307 242.37 679.307 239.31C679.307 236.25 681.187 234.27 683.867 234.27C686.547 234.27 688.447 236.25 688.447 239.31C688.447 242.37 686.547 244.35 683.867 244.35ZM683.867 242.89C685.527 242.89 686.687 241.75 686.687 239.31C686.687 236.85 685.527 235.73 683.867 235.73C682.227 235.73 681.087 236.85 681.087 239.31C681.087 241.75 682.227 242.89 683.867 242.89ZM694.707 244.35C692.027 244.35 690.147 242.37 690.147 239.31C690.147 236.25 692.027 234.27 694.707 234.27C697.387 234.27 699.287 236.25 699.287 239.31C699.287 242.37 697.387 244.35 694.707 244.35ZM694.707 242.89C696.367 242.89 697.527 241.75 697.527 239.31C697.527 236.85 696.367 235.73 694.707 235.73C693.067 235.73 691.927 236.85 691.927 239.31C691.927 241.75 693.067 242.89 694.707 242.89ZM705.087 244.39C702.647 244.39 701.127 242.39 701.127 239.33C701.127 236.27 702.647 234.27 705.087 234.27C706.947 234.27 707.867 235.51 708.207 236.99V230.75H709.947V244.15H708.207V241.67C707.867 243.15 706.947 244.39 705.087 244.39ZM702.887 239.33C702.887 241.81 704.147 242.93 705.667 242.93C707.527 242.93 708.207 241.63 708.207 240.03V238.65C708.207 237.05 707.527 235.75 705.667 235.75C704.147 235.75 702.887 236.87 702.887 239.33ZM716.345 244.35C714.325 244.35 712.485 243.47 711.825 241.67L713.085 240.69C713.425 241.79 714.485 242.89 716.405 242.89C717.545 242.89 718.305 242.45 718.305 241.59C718.305 240.71 717.425 240.43 716.285 240.17L715.005 239.87C713.625 239.55 712.125 238.89 712.125 237.11C712.125 235.35 713.485 234.27 715.585 234.27C717.625 234.27 719.045 235.35 719.585 236.63L718.265 237.61C717.785 236.47 716.865 235.75 715.485 235.75C714.485 235.75 713.765 236.19 713.765 237.01C713.765 237.87 714.405 238.17 715.725 238.49L716.965 238.81C719.145 239.33 719.865 240.23 719.865 241.57C719.865 243.49 718.225 244.35 716.345 244.35Z" fill="#323232"/>
<path d="M885.84 178.15H884L889.4 164.75H891.14L896.54 178.15H894.62L893.16 174.41H887.3L885.84 178.15ZM889.56 168.63L887.9 172.87H892.56L890.9 168.63L890.24 166.53L889.56 168.63ZM901.584 178.35C898.804 178.35 897.024 176.39 897.024 173.31C897.024 170.25 898.804 168.27 901.584 168.27C904.104 168.27 905.584 169.73 906.044 171.67L904.344 172.37C904.144 170.83 903.344 169.73 901.604 169.73C899.844 169.73 898.784 171.03 898.784 173.31C898.784 175.59 899.844 176.91 901.604 176.91C903.344 176.91 904.144 175.79 904.344 174.25L906.044 174.95C905.584 176.89 904.104 178.35 901.584 178.35ZM911.955 178.35C909.175 178.35 907.395 176.39 907.395 173.31C907.395 170.25 909.175 168.27 911.955 168.27C914.475 168.27 915.955 169.73 916.415 171.67L914.715 172.37C914.515 170.83 913.715 169.73 911.975 169.73C910.215 169.73 909.155 171.03 909.155 173.31C909.155 175.59 910.215 176.91 911.975 176.91C913.715 176.91 914.515 175.79 914.715 174.25L916.415 174.95C915.955 176.89 914.475 178.35 911.955 178.35ZM922.186 178.35C919.506 178.35 917.626 176.37 917.626 173.31C917.626 170.25 919.506 168.27 922.186 168.27C924.866 168.27 926.766 170.25 926.766 173.31C926.766 176.37 924.866 178.35 922.186 178.35ZM922.186 176.89C923.846 176.89 925.006 175.75 925.006 173.31C925.006 170.85 923.846 169.73 922.186 169.73C920.546 169.73 919.406 170.85 919.406 173.31C919.406 175.75 920.546 176.89 922.186 176.89ZM931.97 178.35C930.07 178.35 928.89 177.21 928.89 175.17V168.47H930.61V174.75C930.61 175.99 931.11 176.89 932.75 176.89C934.63 176.89 935.31 175.57 935.31 173.97V168.47H937.03V178.15H935.31V175.51C934.95 177.03 933.91 178.35 931.97 178.35ZM941.413 178.15H939.673V168.47H941.413V171.05C941.793 169.55 942.833 168.27 944.733 168.27C946.633 168.27 947.813 169.41 947.813 171.47V178.15H946.093V171.89C946.093 170.63 945.593 169.75 943.953 169.75C942.093 169.75 941.413 171.05 941.413 172.67V178.15ZM953.362 178.37C951.782 178.37 950.662 177.33 950.662 175.67V169.83H949.102V168.47H950.662V167.23L952.402 165.95V168.47H955.582V169.83H952.402V175.15C952.402 176.39 952.982 176.69 953.742 176.69C954.602 176.69 955.202 175.97 955.462 175.37L956.042 177.09C955.622 177.75 954.702 178.37 953.362 178.37Z" fill="#323232"/>
<path d="M890.926 211.35C888.406 211.35 886.106 210.39 885.226 207.91L886.546 206.75C887.166 208.93 889.246 209.71 890.926 209.71C892.426 209.71 893.686 209.13 893.686 207.67C893.686 206.13 892.506 205.75 890.726 205.33L889.466 205.05C887.686 204.65 885.666 203.85 885.666 201.33C885.666 198.89 887.786 197.57 890.126 197.57C892.546 197.57 894.466 198.63 895.286 200.63L893.826 201.79C893.186 199.97 891.826 199.23 890.086 199.23C888.606 199.23 887.506 199.97 887.506 201.21C887.506 202.55 888.486 203.05 890.026 203.43L891.486 203.79C893.386 204.25 895.466 204.99 895.466 207.63C895.466 209.95 893.526 211.35 890.926 211.35ZM901.912 211.35C899.172 211.35 897.272 209.39 897.272 206.31C897.272 203.25 899.152 201.27 901.812 201.27C904.552 201.27 906.212 203.09 906.212 205.93C906.212 206.23 906.172 206.53 906.132 206.71H898.952C899.052 208.75 900.192 209.91 901.912 209.91C903.852 209.91 904.632 208.85 905.012 208.01L906.072 209.21C905.352 210.37 904.012 211.35 901.912 211.35ZM901.812 202.73C900.252 202.73 899.212 203.65 898.992 205.45H904.652C904.472 203.67 903.432 202.73 901.812 202.73ZM911.501 211.37C909.921 211.37 908.801 210.33 908.801 208.67V202.83H907.241V201.47H908.801V200.23L910.541 198.95V201.47H913.721V202.83H910.541V208.15C910.541 209.39 911.121 209.69 911.881 209.69C912.741 209.69 913.341 208.97 913.601 208.37L914.181 210.09C913.761 210.75 912.841 211.37 911.501 211.37ZM918.317 211.37C916.737 211.37 915.617 210.33 915.617 208.67V202.83H914.057V201.47H915.617V200.23L917.357 198.95V201.47H920.537V202.83H917.357V208.15C917.357 209.39 917.937 209.69 918.697 209.69C919.557 209.69 920.157 208.97 920.417 208.37L920.997 210.09C920.577 210.75 919.657 211.37 918.317 211.37ZM924.454 199.91H922.714V197.75H924.454V199.91ZM924.454 211.15H922.714V201.47H924.454V211.15ZM928.81 211.15H927.07V201.47H928.81V204.05C929.19 202.55 930.23 201.27 932.13 201.27C934.03 201.27 935.21 202.41 935.21 204.47V211.15H933.49V204.89C933.49 203.63 932.99 202.75 931.35 202.75C929.49 202.75 928.81 204.05 928.81 205.67V211.15ZM941.455 208.19C940.755 208.19 940.115 208.05 939.575 207.79C939.335 208.11 939.055 208.57 939.055 208.99C939.055 209.51 939.335 209.77 940.335 209.77H943.255C945.015 209.77 946.115 210.47 946.115 211.93C946.115 213.77 944.315 215.07 941.055 215.07C938.575 215.07 937.015 214.25 937.015 212.97C937.015 212.07 937.835 211.53 938.575 211.23C937.955 211.03 937.635 210.57 937.635 209.93C937.635 209.17 938.215 208.33 939.155 207.57C938.195 206.97 937.635 205.95 937.635 204.73C937.635 202.71 939.175 201.27 941.455 201.27C942.095 201.27 942.675 201.39 943.175 201.59L943.775 199.27L945.575 199.91L943.795 201.91C944.715 202.51 945.275 203.53 945.275 204.73C945.275 206.75 943.735 208.19 941.455 208.19ZM941.455 206.85C942.675 206.85 943.595 206.05 943.595 204.73C943.595 203.41 942.675 202.61 941.455 202.61C940.255 202.61 939.315 203.41 939.315 204.73C939.315 206.05 940.255 206.85 941.455 206.85ZM941.055 213.69C943.255 213.69 944.495 213.13 944.495 212.17C944.495 211.55 944.015 211.27 943.035 211.27H939.075C938.755 211.55 938.415 211.97 938.415 212.43C938.415 213.21 939.315 213.69 941.055 213.69ZM951.318 211.35C949.298 211.35 947.458 210.47 946.798 208.67L948.058 207.69C948.398 208.79 949.458 209.89 951.378 209.89C952.518 209.89 953.278 209.45 953.278 208.59C953.278 207.71 952.398 207.43 951.258 207.17L949.978 206.87C948.598 206.55 947.098 205.89 947.098 204.11C947.098 202.35 948.458 201.27 950.558 201.27C952.598 201.27 954.018 202.35 954.558 203.63L953.238 204.61C952.758 203.47 951.838 202.75 950.458 202.75C949.458 202.75 948.738 203.19 948.738 204.01C948.738 204.87 949.378 205.17 950.698 205.49L951.938 205.81C954.118 206.33 954.838 207.23 954.838 208.57C954.838 210.49 953.198 211.35 951.318 211.35Z" fill="#323232"/>
<rect y="147.15" width="1" height="68" fill="black"/>
<rect x="434" y="147.15" width="1" height="63" fill="black"/>
<rect x="649.55" y="148.15" width="1" height="96" fill="black"/>
<rect x="864.9" y="148.15" width="1" height="63" fill="black"/>
<rect x="215.05" y="147.15" width="1" height="64" fill="black"/>
<rect x="310.1" y="71.3496" width="1" height="25.8004" fill="black"/>
<rect x="95.0503" y="70.3496" width="1" height="25.8004" fill="black"/>
<rect x="529.05" y="71.3496" width="1" height="25.8004" fill="black"/>
<rect x="529.05" y="45.0488" width="1" height="25.8004" fill="black"/>
<rect x="744.5" y="71.3496" width="1" height="25.8004" fill="black"/>
<rect x="960.45" y="70.3496" width="1" height="25.8004" fill="black"/>
<rect x="8.5" y="181.15" width="1" height="8" transform="rotate(90 8.5 181.15)" fill="black"/>
<rect x="442.5" y="177.15" width="1" height="8" transform="rotate(90 442.5 177.15)" fill="black"/>
<rect x="658.05" y="177.15" width="1" height="8" transform="rotate(90 658.05 177.15)" fill="black"/>
<rect x="873.4" y="177.15" width="1" height="8" transform="rotate(90 873.4 177.15)" fill="black"/>
<rect x="962" y="70.3496" width="1.00005" height="866.4" transform="rotate(90 962 70.3496)" fill="black"/>
<rect x="223.55" y="177.15" width="1" height="8" transform="rotate(90 223.55 177.15)" fill="black"/>
<rect x="658.05" y="243.15" width="1" height="8" transform="rotate(90 658.05 243.15)" fill="black"/>
<rect x="658.05" y="210.15" width="1" height="8" transform="rotate(90 658.05 210.15)" fill="black"/>
<rect x="873.4" y="210.15" width="1" height="8" transform="rotate(90 873.4 210.15)" fill="black"/>
<rect x="8.5" y="214.15" width="1" height="8" transform="rotate(90 8.5 214.15)" fill="black"/>
<rect x="442.5" y="209.15" width="1" height="8" transform="rotate(90 442.5 209.15)" fill="black"/>
<rect x="223.55" y="210.15" width="1" height="8" transform="rotate(90 223.55 210.15)" fill="black"/>
<rect x="447.05" y="0.548828" width="165" height="44" rx="9.5" stroke="black"/>
<path d="M490.663 27.0488H488.629V14.9888H490.663V19.9928H496.459V14.9888H498.493V27.0488H496.459V21.7928H490.663V27.0488ZM504.375 27.2288C501.855 27.2288 500.127 25.3928 500.127 22.6748C500.127 19.9388 501.855 18.1028 504.375 18.1028C506.931 18.1028 508.659 19.9388 508.659 22.6748C508.659 25.3928 506.931 27.2288 504.375 27.2288ZM504.393 25.5548C505.707 25.5548 506.607 24.6908 506.607 22.6748C506.607 20.6408 505.707 19.7768 504.393 19.7768C503.097 19.7768 502.197 20.6408 502.197 22.6748C502.197 24.6908 503.097 25.5548 504.393 25.5548ZM512.404 27.0488H510.388V18.2828H512.404V20.6768C512.728 19.2908 513.592 18.1028 515.248 18.1028C516.85 18.1028 517.714 19.0388 517.804 20.6948C518.11 19.3088 518.974 18.1028 520.648 18.1028C522.322 18.1028 523.204 19.1288 523.204 20.9468V27.0488H521.188V21.5588C521.188 20.3528 520.684 19.7408 519.496 19.7408C518.308 19.7408 517.804 20.6948 517.804 22.1348V27.0488H515.788V21.5588C515.788 20.3528 515.284 19.7408 514.096 19.7408C512.908 19.7408 512.404 20.6948 512.404 22.1348V27.0488ZM529.13 27.2288C526.52 27.2288 524.81 25.4108 524.81 22.6748C524.81 19.9208 526.52 18.1028 528.986 18.1028C531.614 18.1028 533.072 19.8488 533.072 22.2788C533.072 22.6028 533.036 22.9808 533 23.1608H526.736C526.844 24.7268 527.762 25.5728 529.148 25.5728C530.678 25.5728 531.362 24.7808 531.686 24.0428L532.928 25.3388C532.262 26.3468 531.074 27.2288 529.13 27.2288ZM528.986 19.7228C527.744 19.7228 526.916 20.4428 526.754 21.8648H531.254C531.11 20.4788 530.318 19.7228 528.986 19.7228ZM536.891 30.3968H534.875V18.2828H536.891V20.6228C537.179 19.2548 537.953 18.0848 539.699 18.0848C541.823 18.0848 543.191 19.8308 543.191 22.6568C543.191 25.4828 541.823 27.2288 539.663 27.2288C537.917 27.2288 537.179 26.0588 536.891 24.7088V30.3968ZM536.891 23.1968C536.891 24.6368 537.485 25.5908 538.907 25.5908C540.167 25.5908 541.121 24.6368 541.121 22.6568C541.121 20.6768 540.167 19.7228 538.907 19.7228C537.485 19.7228 536.891 20.6768 536.891 22.1168V23.1968ZM546.713 27.2288C545.273 27.2288 544.409 26.4188 544.409 25.1588C544.409 23.9168 545.273 23.1608 546.695 22.6028L549.629 21.3608C549.557 20.4788 549.161 19.8848 547.955 19.8848C546.785 19.8848 545.867 20.5688 545.363 21.4868L544.157 20.0468C544.841 19.1108 546.209 18.1028 548.153 18.1028C550.331 18.1028 551.555 19.3448 551.555 21.5048V24.7988C551.555 25.1948 551.699 25.3208 552.023 25.3208H552.581V27.0488H551.339C550.403 27.0488 549.665 26.6168 549.665 25.3568V24.7088C549.395 25.8608 548.549 27.2288 546.713 27.2288ZM546.353 24.8528C546.353 25.3568 546.695 25.6628 547.433 25.6628C548.765 25.6628 549.665 24.8708 549.665 23.6828V22.7468L547.415 23.7548C546.659 24.0968 546.353 24.4028 546.353 24.8528ZM557.618 24.4208C556.934 24.4208 556.304 24.2948 555.782 24.0428C555.62 24.3128 555.422 24.6548 555.422 24.9608C555.422 25.4108 555.656 25.6448 556.466 25.6448H559.292C561.038 25.6448 561.992 26.3468 561.992 27.6608C561.992 29.3168 560.372 30.5768 557.186 30.5768C554.738 30.5768 553.316 29.8028 553.316 28.7048C553.316 27.8768 554.108 27.4268 554.954 27.2288C554.324 27.0488 553.91 26.6348 553.91 25.9688C553.91 25.1768 554.594 24.4028 555.404 23.8448C554.522 23.3048 553.982 22.3868 553.982 21.2708C553.982 19.4168 555.458 18.1028 557.618 18.1028C558.176 18.1028 558.68 18.1928 559.13 18.3548L559.562 16.2488L561.506 16.9148L559.868 18.7148C560.732 19.2728 561.236 20.1728 561.236 21.2708C561.236 23.1248 559.778 24.4208 557.618 24.4208ZM557.618 22.9808C558.572 22.9808 559.328 22.3688 559.328 21.2708C559.328 20.1728 558.572 19.5608 557.618 19.5608C556.664 19.5608 555.908 20.1728 555.908 21.2708C555.908 22.3688 556.664 22.9808 557.618 22.9808ZM557.276 29.0648C559.166 29.0648 560.174 28.6508 560.174 27.9128C560.174 27.4448 559.796 27.2468 559.022 27.2468H555.368C555.17 27.4448 554.954 27.7328 554.954 28.0388C554.954 28.6868 555.674 29.0648 557.276 29.0648ZM566.975 27.2288C564.365 27.2288 562.655 25.4108 562.655 22.6748C562.655 19.9208 564.365 18.1028 566.831 18.1028C569.459 18.1028 570.917 19.8488 570.917 22.2788C570.917 22.6028 570.881 22.9808 570.845 23.1608H564.581C564.689 24.7268 565.607 25.5728 566.993 25.5728C568.523 25.5728 569.207 24.7808 569.531 24.0428L570.773 25.3388C570.107 26.3468 568.919 27.2288 566.975 27.2288ZM566.831 19.7228C565.589 19.7228 564.761 20.4428 564.599 21.8648H569.099C568.955 20.4788 568.163 19.7228 566.831 19.7228Z" fill="#323232"/>
</svg>
