<svg width="1054" height="733" viewBox="0 0 1054 733" fill="none" xmlns="http://www.w3.org/2000/svg">
<rect x="544.5" y="384.691" width="509" height="347" rx="9.5" stroke="#F9F9F9"/>
<path d="M579.48 417.371C575.54 417.371 572.88 414.351 572.88 410.471C572.88 406.611 575.54 403.591 579.48 403.591C583.4 403.591 586.08 406.611 586.08 410.471C586.08 414.351 583.4 417.371 579.48 417.371ZM579.5 415.211C582.3 415.211 583.72 413.251 583.72 410.471C583.72 407.711 582.3 405.731 579.5 405.731C576.7 405.731 575.26 407.711 575.26 410.471C575.26 413.251 576.7 415.211 579.5 415.211ZM590.459 417.191H588.219V407.451H590.459V410.111C590.819 408.571 591.819 407.251 593.759 407.251C595.659 407.251 596.819 408.391 596.819 410.411V417.191H594.559V411.091C594.559 409.891 594.159 409.071 592.659 409.071C591.019 409.071 590.459 410.131 590.459 411.731V417.191ZM601.358 417.191H599.118V403.791H601.358V417.191ZM605.967 406.071H603.727V403.791H605.967V406.071ZM605.967 417.191H603.727V407.451H605.967V417.191ZM610.576 417.191H608.336V407.451H610.576V410.111C610.936 408.571 611.936 407.251 613.876 407.251C615.776 407.251 616.936 408.391 616.936 410.411V417.191H614.676V411.091C614.676 409.891 614.276 409.071 612.776 409.071C611.136 409.071 610.576 410.131 610.576 411.731V417.191ZM623.516 417.391C620.616 417.391 618.716 415.371 618.716 412.331C618.716 409.271 620.616 407.251 623.356 407.251C626.276 407.251 627.896 409.191 627.896 411.891C627.896 412.251 627.856 412.671 627.816 412.871H620.856C620.976 414.611 621.996 415.551 623.536 415.551C625.236 415.551 625.996 414.671 626.356 413.851L627.736 415.291C626.996 416.411 625.676 417.391 623.516 417.391ZM623.356 409.051C621.976 409.051 621.056 409.851 620.876 411.431H625.876C625.716 409.891 624.836 409.051 623.356 409.051ZM637.579 417.411C635.739 417.411 634.679 416.251 634.679 414.531V409.191H633.159V407.451H634.679V406.271L636.919 404.851V407.451H639.899V409.191H636.919V413.991C636.919 415.051 637.419 415.311 638.079 415.311C638.839 415.311 639.399 414.691 639.679 414.131L640.379 416.131C639.959 416.751 638.999 417.411 637.579 417.411ZM644.131 406.071H641.891V403.791H644.131V406.071ZM644.131 417.191H641.891V407.451H644.131V417.191ZM648.74 417.191H646.5V407.451H648.74V410.111C649.1 408.571 650.06 407.251 651.9 407.251C653.68 407.251 654.64 408.291 654.74 410.131C655.08 408.591 656.04 407.251 657.9 407.251C659.76 407.251 660.74 408.391 660.74 410.411V417.191H658.5V411.091C658.5 409.751 657.94 409.071 656.62 409.071C655.3 409.071 654.74 410.131 654.74 411.731V417.191H652.5V411.091C652.5 409.751 651.94 409.071 650.62 409.071C649.3 409.071 648.74 410.131 648.74 411.731V417.191ZM667.324 417.391C664.424 417.391 662.524 415.371 662.524 412.331C662.524 409.271 664.424 407.251 667.164 407.251C670.084 407.251 671.704 409.191 671.704 411.891C671.704 412.251 671.664 412.671 671.624 412.871H664.664C664.784 414.611 665.804 415.551 667.344 415.551C669.044 415.551 669.804 414.671 670.164 413.851L671.544 415.291C670.804 416.411 669.484 417.391 667.324 417.391ZM667.164 409.051C665.784 409.051 664.864 409.851 664.684 411.431H669.684C669.524 409.891 668.644 409.051 667.164 409.051Z" fill="#F9F9F9"/>
<circle cx="693" cy="581.191" r="120" fill="#FFEAE0"/>
<path d="M777.853 666.044C760.768 683.129 738.923 694.659 715.177 699.124C691.432 703.59 666.891 700.783 644.767 691.071C622.642 681.359 603.965 665.195 591.179 644.693C578.393 624.192 572.094 600.308 573.105 576.167C574.117 552.026 582.392 528.753 596.849 509.393C611.305 490.033 631.269 475.488 654.129 467.662C676.988 459.835 701.677 459.091 724.966 465.527C748.255 471.964 769.059 485.281 784.654 503.735L693 581.191L777.853 666.044Z" fill="#FFDCD4"/>
<path d="M777.853 666.044C763.899 679.998 746.719 690.296 727.834 696.024C708.95 701.753 688.944 702.736 669.589 698.886C650.234 695.036 632.127 686.472 616.873 673.953C601.618 661.433 589.686 645.345 582.134 627.113C574.583 608.881 571.644 589.068 573.578 569.429C575.512 549.79 582.26 530.931 593.224 514.523C604.187 498.115 619.028 484.663 636.432 475.361C653.836 466.058 673.266 461.191 693 461.191V581.191L777.853 666.044Z" fill="#FFC3C3"/>
<path d="M892.34 497.291V498.771L885 496.171V494.891L892.34 492.291V493.751L886.5 495.531L892.34 497.291ZM908.41 502.191H899.29V500.831L903.67 496.511C905.13 495.071 906.27 493.831 906.27 492.351C906.27 491.271 905.67 490.271 904.15 490.271C901.91 490.271 900.65 491.711 900.99 494.371L899.37 493.351C899.09 490.711 901.19 488.591 904.27 488.591C906.89 488.591 908.07 490.171 908.07 492.231C908.07 494.431 905.97 496.431 904.75 497.591L902.67 499.551L901.23 500.771L902.87 500.651H908.41V502.191ZM916.787 502.191H915.047V488.791H916.787V495.091C917.167 493.591 918.207 492.311 920.107 492.311C922.007 492.311 923.187 493.451 923.187 495.511V502.191H921.467V495.931C921.467 494.671 920.967 493.791 919.327 493.791C917.467 493.791 916.787 495.091 916.787 496.711V502.191ZM929.61 502.391C926.93 502.391 925.05 500.411 925.05 497.351C925.05 494.291 926.93 492.311 929.61 492.311C932.29 492.311 934.19 494.291 934.19 497.351C934.19 500.411 932.29 502.391 929.61 502.391ZM929.61 500.931C931.27 500.931 932.43 499.791 932.43 497.351C932.43 494.891 931.27 493.771 929.61 493.771C927.97 493.771 926.83 494.891 926.83 497.351C926.83 499.791 927.97 500.931 929.61 500.931ZM939.395 502.391C937.495 502.391 936.315 501.251 936.315 499.211V492.511H938.035V498.791C938.035 500.031 938.535 500.931 940.175 500.931C942.055 500.931 942.735 499.611 942.735 498.011V492.511H944.455V502.191H942.735V499.551C942.375 501.071 941.335 502.391 939.395 502.391ZM948.837 502.191H947.097V492.511H948.837V495.091C949.217 493.591 950.217 492.291 951.857 492.291C952.897 492.291 953.897 493.031 953.897 494.391C953.897 495.211 953.677 495.811 953.517 496.051H951.617C951.937 495.771 952.197 495.171 952.197 494.631C952.197 494.071 951.897 493.591 951.197 493.591C949.957 493.591 948.837 495.051 948.837 496.711V502.191ZM959.041 502.391C957.021 502.391 955.181 501.511 954.521 499.711L955.781 498.731C956.121 499.831 957.181 500.931 959.101 500.931C960.241 500.931 961.001 500.491 961.001 499.631C961.001 498.751 960.121 498.471 958.981 498.211L957.701 497.911C956.321 497.591 954.821 496.931 954.821 495.151C954.821 493.391 956.181 492.311 958.281 492.311C960.321 492.311 961.741 493.391 962.281 494.671L960.961 495.651C960.481 494.511 959.561 493.791 958.181 493.791C957.181 493.791 956.461 494.231 956.461 495.051C956.461 495.911 957.101 496.211 958.421 496.531L959.661 496.851C961.841 497.371 962.561 498.271 962.561 499.611C962.561 501.531 960.921 502.391 959.041 502.391Z" fill="#F9F9F9"/>
<path d="M894.68 545.191H885.56V543.831L889.94 539.511C891.4 538.071 892.54 536.831 892.54 535.351C892.54 534.271 891.94 533.271 890.42 533.271C888.18 533.271 886.92 534.711 887.26 537.371L885.64 536.351C885.36 533.711 887.46 531.591 890.54 531.591C893.16 531.591 894.34 533.171 894.34 535.231C894.34 537.431 892.24 539.431 891.02 540.591L888.94 542.551L887.5 543.771L889.14 543.651H894.68V545.191ZM900.929 540.091H896.209V538.871H900.929V540.091ZM911.331 545.191H909.591V541.991H902.851V540.631L909.591 531.791H911.331V540.451H913.731V541.991H911.331V545.191ZM904.831 540.451H909.591V534.311L904.831 540.451ZM921.689 545.191H919.949V531.791H921.689V538.091C922.069 536.591 923.109 535.311 925.009 535.311C926.909 535.311 928.089 536.451 928.089 538.511V545.191H926.369V538.931C926.369 537.671 925.869 536.791 924.229 536.791C922.369 536.791 921.689 538.091 921.689 539.711V545.191ZM934.513 545.391C931.833 545.391 929.953 543.411 929.953 540.351C929.953 537.291 931.833 535.311 934.513 535.311C937.193 535.311 939.093 537.291 939.093 540.351C939.093 543.411 937.193 545.391 934.513 545.391ZM934.513 543.931C936.173 543.931 937.333 542.791 937.333 540.351C937.333 537.891 936.173 536.771 934.513 536.771C932.873 536.771 931.733 537.891 931.733 540.351C931.733 542.791 932.873 543.931 934.513 543.931ZM944.297 545.391C942.397 545.391 941.217 544.251 941.217 542.211V535.511H942.937V541.791C942.937 543.031 943.437 543.931 945.077 543.931C946.957 543.931 947.637 542.611 947.637 541.011V535.511H949.357V545.191H947.637V542.551C947.277 544.071 946.237 545.391 944.297 545.391ZM953.74 545.191H952V535.511H953.74V538.091C954.12 536.591 955.12 535.291 956.76 535.291C957.8 535.291 958.8 536.031 958.8 537.391C958.8 538.211 958.58 538.811 958.42 539.051H956.52C956.84 538.771 957.1 538.171 957.1 537.631C957.1 537.071 956.8 536.591 956.1 536.591C954.86 536.591 953.74 538.051 953.74 539.711V545.191ZM963.943 545.391C961.923 545.391 960.083 544.511 959.423 542.711L960.683 541.731C961.023 542.831 962.083 543.931 964.003 543.931C965.143 543.931 965.903 543.491 965.903 542.631C965.903 541.751 965.023 541.471 963.883 541.211L962.603 540.911C961.223 540.591 959.723 539.931 959.723 538.151C959.723 536.391 961.083 535.311 963.183 535.311C965.223 535.311 966.643 536.391 967.183 537.671L965.863 538.651C965.383 537.511 964.463 536.791 963.083 536.791C962.083 536.791 961.363 537.231 961.363 538.051C961.363 538.911 962.003 539.211 963.323 539.531L964.563 539.851C966.743 540.371 967.463 541.271 967.463 542.611C967.463 544.531 965.823 545.391 963.943 545.391Z" fill="#F9F9F9"/>
<path d="M892.34 580.171L885 582.771V581.291L890.86 579.531L885 577.751V576.291L892.34 578.891V580.171ZM907.19 586.191H905.45V582.991H898.71V581.631L905.45 572.791H907.19V581.451H909.59V582.991H907.19V586.191ZM900.69 581.451H905.45V575.311L900.69 581.451ZM917.548 586.191H915.808V572.791H917.548V579.091C917.928 577.591 918.968 576.311 920.868 576.311C922.768 576.311 923.948 577.451 923.948 579.511V586.191H922.228V579.931C922.228 578.671 921.728 577.791 920.088 577.791C918.228 577.791 917.548 579.091 917.548 580.711V586.191ZM930.372 586.391C927.692 586.391 925.812 584.411 925.812 581.351C925.812 578.291 927.692 576.311 930.372 576.311C933.052 576.311 934.952 578.291 934.952 581.351C934.952 584.411 933.052 586.391 930.372 586.391ZM930.372 584.931C932.032 584.931 933.192 583.791 933.192 581.351C933.192 578.891 932.032 577.771 930.372 577.771C928.732 577.771 927.592 578.891 927.592 581.351C927.592 583.791 928.732 584.931 930.372 584.931ZM940.156 586.391C938.256 586.391 937.076 585.251 937.076 583.211V576.511H938.796V582.791C938.796 584.031 939.296 584.931 940.936 584.931C942.816 584.931 943.496 583.611 943.496 582.011V576.511H945.216V586.191H943.496V583.551C943.136 585.071 942.096 586.391 940.156 586.391ZM949.599 586.191H947.859V576.511H949.599V579.091C949.979 577.591 950.979 576.291 952.619 576.291C953.659 576.291 954.659 577.031 954.659 578.391C954.659 579.211 954.439 579.811 954.279 580.051H952.379C952.699 579.771 952.959 579.171 952.959 578.631C952.959 578.071 952.659 577.591 951.959 577.591C950.719 577.591 949.599 579.051 949.599 580.711V586.191ZM959.803 586.391C957.783 586.391 955.943 585.511 955.283 583.711L956.543 582.731C956.883 583.831 957.943 584.931 959.863 584.931C961.003 584.931 961.763 584.491 961.763 583.631C961.763 582.751 960.883 582.471 959.743 582.211L958.463 581.911C957.083 581.591 955.583 580.931 955.583 579.151C955.583 577.391 956.943 576.311 959.043 576.311C961.083 576.311 962.503 577.391 963.043 578.671L961.723 579.651C961.243 578.511 960.323 577.791 958.943 577.791C957.943 577.791 957.223 578.231 957.223 579.051C957.223 579.911 957.863 580.211 959.183 580.531L960.423 580.851C962.603 581.371 963.323 582.271 963.323 583.611C963.323 585.531 961.683 586.391 959.803 586.391Z" fill="#F9F9F9"/>
<path d="M627.928 599.351C625.592 599.351 623.912 598.119 623.912 593.879V593.687C623.912 590.199 625.416 588.311 628.056 588.311C629.672 588.311 630.856 589.175 631.48 590.439L630.28 591.431C629.88 590.359 629.08 589.655 627.944 589.655C626.648 589.655 625.384 590.487 625.384 593.831V594.999C625.56 593.191 626.728 592.151 628.472 592.151C630.664 592.151 631.624 593.735 631.624 595.687C631.624 597.767 630.12 599.351 627.928 599.351ZM627.896 598.023C629.288 598.023 630.152 597.047 630.152 595.767C630.152 594.359 629.464 593.447 627.928 593.447C626.536 593.447 625.544 594.151 625.544 595.543C625.544 597.287 626.456 598.023 627.896 598.023ZM640.419 599.191H633.123V598.103L636.627 594.647C637.795 593.495 638.707 592.503 638.707 591.319C638.707 590.455 638.227 589.655 637.011 589.655C635.219 589.655 634.211 590.807 634.483 592.935L633.187 592.119C632.963 590.007 634.643 588.311 637.107 588.311C639.203 588.311 640.147 589.575 640.147 591.223C640.147 592.983 638.467 594.583 637.491 595.511L635.827 597.079L634.675 598.055L635.987 597.959H640.419V599.191ZM643.908 593.159C642.564 593.159 641.572 592.215 641.572 590.743C641.572 589.271 642.564 588.327 643.908 588.327C645.236 588.327 646.228 589.271 646.228 590.743C646.228 592.215 645.236 593.159 643.908 593.159ZM643.572 599.191H642.116L649.668 588.471H651.124L643.572 599.191ZM643.908 592.135C644.66 592.135 645.124 591.591 645.124 590.743C645.124 589.879 644.66 589.335 643.908 589.335C643.156 589.335 642.708 589.879 642.708 590.743C642.708 591.591 643.156 592.135 643.908 592.135ZM649.38 599.191C648.036 599.191 647.044 598.247 647.044 596.775C647.044 595.303 648.036 594.359 649.38 594.359C650.708 594.359 651.7 595.303 651.7 596.775C651.7 598.247 650.708 599.191 649.38 599.191ZM649.38 598.167C650.132 598.167 650.596 597.623 650.596 596.775C650.596 595.911 650.132 595.367 649.38 595.367C648.628 595.367 648.18 595.911 648.18 596.775C648.18 597.623 648.628 598.167 649.38 598.167Z" fill="#323232"/>
<path d="M763.544 588.191H756.248V587.103L759.752 583.647C760.92 582.495 761.832 581.503 761.832 580.319C761.832 579.455 761.352 578.655 760.136 578.655C758.344 578.655 757.336 579.807 757.608 581.935L756.312 581.119C756.088 579.007 757.768 577.311 760.232 577.311C762.328 577.311 763.272 578.575 763.272 580.223C763.272 581.983 761.592 583.583 760.616 584.511L758.952 586.079L757.8 587.055L759.112 586.959H763.544V588.191ZM769.125 588.351C767.205 588.351 765.749 587.279 765.205 585.919L766.325 584.735C766.709 586.127 767.669 587.023 769.173 587.023C770.645 587.023 771.381 586.143 771.381 584.751C771.381 583.007 770.197 582.351 769.029 582.351C767.861 582.351 767.061 582.863 766.997 583.583L766.981 583.759L765.605 583.615L765.941 577.471H772.036V578.783H767.317L767.029 582.895C767.365 581.951 768.213 581.199 769.621 581.199C771.749 581.199 772.852 582.687 772.852 584.751C772.852 586.927 771.461 588.351 769.125 588.351ZM776.486 582.159C775.142 582.159 774.15 581.215 774.15 579.743C774.15 578.271 775.142 577.327 776.486 577.327C777.814 577.327 778.806 578.271 778.806 579.743C778.806 581.215 777.814 582.159 776.486 582.159ZM776.15 588.191H774.694L782.246 577.471H783.702L776.15 588.191ZM776.486 581.135C777.238 581.135 777.702 580.591 777.702 579.743C777.702 578.879 777.238 578.335 776.486 578.335C775.734 578.335 775.286 578.879 775.286 579.743C775.286 580.591 775.734 581.135 776.486 581.135ZM781.958 588.191C780.614 588.191 779.622 587.247 779.622 585.775C779.622 584.303 780.614 583.359 781.958 583.359C783.286 583.359 784.278 584.303 784.278 585.775C784.278 587.247 783.286 588.191 781.958 588.191ZM781.958 587.167C782.71 587.167 783.174 586.623 783.174 585.775C783.174 584.911 782.71 584.367 781.958 584.367C781.206 584.367 780.758 584.911 780.758 585.775C780.758 586.623 781.206 587.167 781.958 587.167Z" fill="#323232"/>
<path d="M718.872 512.191H717.48V503.391H715.56V502.431C716.424 502.431 717.192 502.175 717.704 501.471H718.872V512.191ZM724.884 512.351C722.564 512.351 721.204 510.975 720.852 509.359L722.036 508.303C722.356 509.935 723.044 511.023 725.06 511.023C726.436 511.023 727.22 510.367 727.22 509.279C727.22 507.999 726.212 507.423 724.724 507.423H722.98V506.223H724.74C726.084 506.223 726.756 505.647 726.756 504.527C726.756 503.503 726.148 502.655 724.772 502.655C723.396 502.655 722.404 503.439 722.212 504.911L721.028 503.919C721.476 502.463 722.884 501.311 724.804 501.311C727.284 501.311 728.212 502.847 728.212 504.223C728.212 505.327 727.396 506.463 726.036 506.655C727.988 506.815 728.692 508.031 728.692 509.423C728.692 511.167 727.22 512.351 724.884 512.351ZM732.346 506.159C731.002 506.159 730.01 505.215 730.01 503.743C730.01 502.271 731.002 501.327 732.346 501.327C733.674 501.327 734.666 502.271 734.666 503.743C734.666 505.215 733.674 506.159 732.346 506.159ZM732.01 512.191H730.554L738.106 501.471H739.562L732.01 512.191ZM732.346 505.135C733.098 505.135 733.562 504.591 733.562 503.743C733.562 502.879 733.098 502.335 732.346 502.335C731.594 502.335 731.146 502.879 731.146 503.743C731.146 504.591 731.594 505.135 732.346 505.135ZM737.818 512.191C736.474 512.191 735.482 511.247 735.482 509.775C735.482 508.303 736.474 507.359 737.818 507.359C739.146 507.359 740.138 508.303 740.138 509.775C740.138 511.247 739.146 512.191 737.818 512.191ZM737.818 511.167C738.57 511.167 739.034 510.623 739.034 509.775C739.034 508.911 738.57 508.367 737.818 508.367C737.066 508.367 736.618 508.911 736.618 509.775C736.618 510.623 737.066 511.167 737.818 511.167Z" fill="#323232"/>
<rect x="0.5" y="0.691406" width="509" height="347" rx="9.5" stroke="#F9F9F9"/>
<path d="M30.8 33.3914C28.24 33.3914 25.9 32.4714 24.86 30.2114L26.46 28.5914C27.18 30.5514 29.2 31.3114 30.84 31.3114C32.18 31.3114 33.26 30.8314 33.26 29.6114C33.26 28.3114 32.18 27.9514 30.44 27.5714L29.18 27.2914C27.28 26.8914 25.26 26.0314 25.26 23.4914C25.26 20.9714 27.44 19.6114 29.96 19.6114C32.42 19.6114 34.38 20.6314 35.34 22.4714L33.64 24.0914C32.9 22.4314 31.46 21.7114 29.82 21.7114C28.54 21.7114 27.62 22.3114 27.62 23.3314C27.62 24.5114 28.54 24.9314 30 25.2914L31.5 25.6514C33.64 26.1714 35.56 27.0114 35.56 29.5714C35.56 31.9914 33.52 33.3914 30.8 33.3914ZM41.9219 33.3914C39.0219 33.3914 37.1219 31.3714 37.1219 28.3314C37.1219 25.2714 39.0219 23.2514 41.7619 23.2514C44.6819 23.2514 46.3019 25.1914 46.3019 27.8914C46.3019 28.2514 46.2619 28.6714 46.2219 28.8714H39.2619C39.3819 30.6114 40.4019 31.5514 41.9419 31.5514C43.6419 31.5514 44.4019 30.6714 44.7619 29.8514L46.1419 31.2914C45.4019 32.4114 44.0819 33.3914 41.9219 33.3914ZM41.7619 25.0514C40.3819 25.0514 39.4619 25.8514 39.2819 27.4314H44.2819C44.1219 25.8914 43.2419 25.0514 41.7619 25.0514ZM49.0233 33.1914H46.4633L49.9033 28.3114L46.6633 23.4514H49.2233L50.6233 25.6514L51.5233 27.2114L52.3833 25.7114L53.8233 23.4514H56.3833L53.0033 28.2714L56.2833 33.1914H53.7233L52.2833 30.9314L51.3633 29.3914L50.4633 30.9114L49.0233 33.1914ZM60.1327 33.3914C58.2527 33.3914 57.0927 32.2514 57.0927 30.2314V23.4514H59.3327V29.5514C59.3327 30.7514 59.7327 31.5714 61.2327 31.5714C62.8727 31.5714 63.4327 30.5114 63.4327 28.9114V23.4514H65.6927V33.1914H63.4327V30.5314C63.0727 32.0714 62.0727 33.3914 60.1327 33.3914ZM70.1306 33.3914C68.5306 33.3914 67.5706 32.4914 67.5706 31.0914C67.5706 29.7114 68.5306 28.8714 70.1106 28.2514L73.3706 26.8714C73.2906 25.8914 72.8506 25.2314 71.5106 25.2314C70.2106 25.2314 69.1906 25.9914 68.6306 27.0114L67.2906 25.4114C68.0506 24.3714 69.5706 23.2514 71.7306 23.2514C74.1506 23.2514 75.5106 24.6314 75.5106 27.0314V30.6914C75.5106 31.1314 75.6706 31.2714 76.0306 31.2714H76.6506V33.1914H75.2706C74.2306 33.1914 73.4106 32.7114 73.4106 31.3114V30.5914C73.1106 31.8714 72.1706 33.3914 70.1306 33.3914ZM69.7306 30.7514C69.7306 31.3114 70.1106 31.6514 70.9306 31.6514C72.4106 31.6514 73.4106 30.7714 73.4106 29.4514V28.4114L70.9106 29.5314C70.0706 29.9114 69.7306 30.2514 69.7306 30.7514ZM80.6036 33.1914H78.3636V19.7914H80.6036V33.1914ZM85.213 22.0714H82.973V19.7914H85.213V22.0714ZM85.213 33.1914H82.973V23.4514H85.213V33.1914ZM91.1023 33.4114C89.2623 33.4114 88.2023 32.2514 88.2023 30.5314V25.1914H86.6823V23.4514H88.2023V22.2714L90.4423 20.8514V23.4514H93.4223V25.1914H90.4423V29.9914C90.4423 31.0514 90.9423 31.3114 91.6023 31.3114C92.3623 31.3114 92.9223 30.6914 93.2023 30.1314L93.9023 32.1314C93.4823 32.7514 92.5223 33.4114 91.1023 33.4114ZM96.748 36.5314C95.348 36.5314 94.208 35.8114 93.668 35.0514L94.728 33.2514C95.248 33.9914 95.848 34.5514 96.748 34.5514C97.508 34.5514 97.988 34.2114 98.348 33.1314L98.528 32.5914H97.148L93.928 23.4514H96.388L98.148 28.9714L98.848 31.5714L99.548 28.9714L101.288 23.4514H103.768L100.168 33.8714C99.468 35.8314 98.328 36.5314 96.748 36.5314Z" fill="#FFFEFE"/>
<circle cx="153" cy="196.191" r="120" fill="#FFDCD4"/>
<path d="M258.359 253.632C248.146 272.366 233.121 288.039 214.834 299.034C196.547 310.029 175.659 315.949 154.322 316.184C132.986 316.419 111.972 310.961 93.4473 300.371C74.9224 289.782 59.5562 274.445 48.932 255.94C38.3078 237.435 32.8099 216.431 33.005 195.094C33.2001 173.757 39.081 152.858 50.0417 134.551C61.0025 116.243 76.6466 101.189 95.362 90.94C114.077 80.691 135.187 75.6177 156.516 76.2429L153 196.191L258.359 253.632Z" fill="#FFC3C3"/>
<path d="M258.359 253.632C248.66 271.423 234.613 286.468 217.529 297.365C200.444 308.261 180.879 314.654 160.657 315.947C140.435 317.24 120.214 313.391 101.881 304.759C83.5483 296.127 67.6998 282.993 55.8135 266.582C43.9273 250.171 36.3904 231.017 33.9056 210.906C31.4208 190.796 34.0691 170.383 41.6036 151.573C49.138 132.762 61.3132 116.166 76.9939 103.331C92.6745 90.4964 111.35 81.8416 131.279 78.1737L153 196.191L258.359 253.632Z" fill="#FFEAE0"/>
<path d="M343.26 120.191H341.52V106.791H343.46L346.92 113.431L348.28 116.371L349.62 113.431L353.1 106.791H355.04V120.191H353.3V112.791L353.48 109.171L352 112.491L349.12 117.951H347.42L344.54 112.491L343.04 109.171L343.26 112.791V120.191ZM360.078 120.391C358.438 120.391 357.518 119.451 357.518 118.171C357.518 116.871 358.498 116.051 359.878 115.431L363.378 113.871C363.318 112.731 362.778 111.891 361.258 111.891C359.878 111.891 358.958 112.691 358.458 113.751L357.278 112.531C357.858 111.531 359.298 110.311 361.458 110.311C363.838 110.311 365.118 111.731 365.118 114.031V118.011C365.118 118.471 365.298 118.611 365.658 118.611H366.278V120.191H365.158C364.158 120.191 363.438 119.711 363.438 118.351V117.671C363.118 118.951 362.078 120.391 360.078 120.391ZM359.278 117.891C359.278 118.551 359.738 118.951 360.638 118.951C362.278 118.951 363.438 117.871 363.438 116.471V115.131L360.618 116.451C359.698 116.891 359.278 117.291 359.278 117.891ZM370.033 120.191H368.293V106.791H370.033V120.191ZM376.768 120.391C374.028 120.391 372.128 118.431 372.128 115.351C372.128 112.291 374.008 110.311 376.668 110.311C379.408 110.311 381.068 112.131 381.068 114.971C381.068 115.271 381.028 115.571 380.988 115.751H373.808C373.908 117.791 375.048 118.951 376.768 118.951C378.708 118.951 379.488 117.891 379.868 117.051L380.928 118.251C380.208 119.411 378.868 120.391 376.768 120.391ZM376.668 111.771C375.108 111.771 374.068 112.691 373.848 114.491H379.508C379.328 112.711 378.288 111.771 376.668 111.771Z" fill="#FFFEFE"/>
<path d="M343.26 160.191H341.52V146.791H350.5V148.331H343.26V153.131H349.2V154.671H343.26V160.191ZM355.557 160.391C352.817 160.391 350.917 158.431 350.917 155.351C350.917 152.291 352.797 150.311 355.457 150.311C358.197 150.311 359.857 152.131 359.857 154.971C359.857 155.271 359.817 155.571 359.777 155.751H352.597C352.697 157.791 353.837 158.951 355.557 158.951C357.497 158.951 358.277 157.891 358.657 157.051L359.717 158.251C358.997 159.411 357.657 160.391 355.557 160.391ZM355.457 151.771C353.897 151.771 352.857 152.691 352.637 154.491H358.297C358.117 152.711 357.077 151.771 355.457 151.771ZM363.802 160.191H362.062V150.511H363.802V153.071C364.182 151.591 365.182 150.311 366.922 150.311C368.702 150.311 369.682 151.331 369.782 153.151C370.162 151.611 371.162 150.311 372.922 150.311C374.822 150.311 375.802 151.451 375.802 153.491V160.191H374.082V153.911C374.082 152.491 373.402 151.791 371.962 151.791C370.482 151.791 369.802 153.091 369.802 154.711V160.191H368.062V153.911C368.062 152.491 367.402 151.791 365.942 151.791C364.482 151.791 363.802 153.091 363.802 154.711V160.191ZM380.429 160.391C378.789 160.391 377.869 159.451 377.869 158.171C377.869 156.871 378.849 156.051 380.229 155.431L383.729 153.871C383.669 152.731 383.129 151.891 381.609 151.891C380.229 151.891 379.309 152.691 378.809 153.751L377.629 152.531C378.209 151.531 379.649 150.311 381.809 150.311C384.189 150.311 385.469 151.731 385.469 154.031V158.011C385.469 158.471 385.649 158.611 386.009 158.611H386.629V160.191H385.509C384.509 160.191 383.789 159.711 383.789 158.351V157.671C383.469 158.951 382.429 160.391 380.429 160.391ZM379.629 157.891C379.629 158.551 380.089 158.951 380.989 158.951C382.629 158.951 383.789 157.871 383.789 156.471V155.131L380.969 156.451C380.049 156.891 379.629 157.291 379.629 157.891ZM390.384 160.191H388.644V146.791H390.384V160.191ZM397.12 160.391C394.38 160.391 392.48 158.431 392.48 155.351C392.48 152.291 394.36 150.311 397.02 150.311C399.76 150.311 401.42 152.131 401.42 154.971C401.42 155.271 401.38 155.571 401.34 155.751H394.16C394.26 157.791 395.4 158.951 397.12 158.951C399.06 158.951 399.84 157.891 400.22 157.051L401.28 158.251C400.56 159.411 399.22 160.391 397.12 160.391ZM397.02 151.771C395.46 151.771 394.42 152.691 394.2 154.491H399.86C399.68 152.711 398.64 151.771 397.02 151.771Z" fill="#FFFEFE"/>
<path d="M201.056 169.351C198.736 169.351 197.376 167.975 197.024 166.359L198.208 165.303C198.528 166.935 199.216 168.023 201.232 168.023C202.608 168.023 203.392 167.367 203.392 166.279C203.392 164.999 202.384 164.423 200.896 164.423H199.152V163.223H200.912C202.256 163.223 202.928 162.647 202.928 161.527C202.928 160.503 202.32 159.655 200.944 159.655C199.568 159.655 198.576 160.439 198.384 161.911L197.2 160.919C197.648 159.463 199.056 158.311 200.976 158.311C203.456 158.311 204.384 159.847 204.384 161.223C204.384 162.327 203.568 163.463 202.208 163.655C204.16 163.815 204.864 165.031 204.864 166.423C204.864 168.167 203.392 169.351 201.056 169.351ZM213.037 169.191H211.645V166.631H206.253V165.543L211.645 158.471H213.037V165.399H214.957V166.631H213.037V169.191ZM207.837 165.399H211.645V160.487L207.837 165.399ZM218.111 163.159C216.767 163.159 215.775 162.215 215.775 160.743C215.775 159.271 216.767 158.327 218.111 158.327C219.439 158.327 220.431 159.271 220.431 160.743C220.431 162.215 219.439 163.159 218.111 163.159ZM217.775 169.191H216.319L223.871 158.471H225.327L217.775 169.191ZM218.111 162.135C218.863 162.135 219.327 161.591 219.327 160.743C219.327 159.879 218.863 159.335 218.111 159.335C217.359 159.335 216.911 159.879 216.911 160.743C216.911 161.591 217.359 162.135 218.111 162.135ZM223.583 169.191C222.239 169.191 221.247 168.247 221.247 166.775C221.247 165.303 222.239 164.359 223.583 164.359C224.911 164.359 225.903 165.303 225.903 166.775C225.903 168.247 224.911 169.191 223.583 169.191ZM223.583 168.167C224.335 168.167 224.799 167.623 224.799 166.775C224.799 165.911 224.335 165.367 223.583 165.367C222.831 165.367 222.383 165.911 222.383 166.775C222.383 167.623 222.831 168.167 223.583 168.167Z" fill="#323232"/>
<path d="M98.928 223.351C96.592 223.351 94.912 222.119 94.912 217.879V217.687C94.912 214.199 96.416 212.311 99.056 212.311C100.672 212.311 101.856 213.175 102.48 214.439L101.28 215.431C100.88 214.359 100.08 213.655 98.944 213.655C97.648 213.655 96.384 214.487 96.384 217.831V218.999C96.56 217.191 97.728 216.151 99.472 216.151C101.664 216.151 102.624 217.735 102.624 219.687C102.624 221.767 101.12 223.351 98.928 223.351ZM98.896 222.023C100.288 222.023 101.152 221.047 101.152 219.767C101.152 218.359 100.464 217.447 98.928 217.447C97.536 217.447 96.544 218.151 96.544 219.543C96.544 221.287 97.456 222.023 98.896 222.023ZM108.4 223.351C106.08 223.351 104.72 221.975 104.368 220.359L105.552 219.303C105.872 220.935 106.56 222.023 108.576 222.023C109.952 222.023 110.736 221.367 110.736 220.279C110.736 218.999 109.728 218.423 108.24 218.423H106.496V217.223H108.256C109.6 217.223 110.272 216.647 110.272 215.527C110.272 214.503 109.664 213.655 108.288 213.655C106.912 213.655 105.92 214.439 105.728 215.911L104.544 214.919C104.992 213.463 106.4 212.311 108.32 212.311C110.8 212.311 111.728 213.847 111.728 215.223C111.728 216.327 110.912 217.463 109.552 217.655C111.504 217.815 112.208 219.031 112.208 220.423C112.208 222.167 110.736 223.351 108.4 223.351ZM115.861 217.159C114.517 217.159 113.525 216.215 113.525 214.743C113.525 213.271 114.517 212.327 115.861 212.327C117.189 212.327 118.181 213.271 118.181 214.743C118.181 216.215 117.189 217.159 115.861 217.159ZM115.525 223.191H114.069L121.621 212.471H123.077L115.525 223.191ZM115.861 216.135C116.613 216.135 117.077 215.591 117.077 214.743C117.077 213.879 116.613 213.335 115.861 213.335C115.109 213.335 114.661 213.879 114.661 214.743C114.661 215.591 115.109 216.135 115.861 216.135ZM121.333 223.191C119.989 223.191 118.997 222.247 118.997 220.775C118.997 219.303 119.989 218.359 121.333 218.359C122.661 218.359 123.653 219.303 123.653 220.775C123.653 222.247 122.661 223.191 121.333 223.191ZM121.333 222.167C122.085 222.167 122.549 221.623 122.549 220.775C122.549 219.911 122.085 219.367 121.333 219.367C120.581 219.367 120.133 219.911 120.133 220.775C120.133 221.623 120.581 222.167 121.333 222.167Z" fill="#323232"/>
<path d="M344.48 201.391C340.62 201.391 338 198.371 338 194.471C338 190.611 340.62 187.591 344.48 187.591C348.36 187.591 350.96 190.611 350.96 194.471C350.96 198.371 348.36 201.391 344.48 201.391ZM344.5 199.731C347.56 199.731 349.16 197.551 349.16 194.471C349.16 191.431 347.56 189.231 344.5 189.231C341.44 189.231 339.84 191.431 339.84 194.471C339.84 197.551 341.44 199.731 344.5 199.731ZM356.521 201.411C354.941 201.411 353.821 200.371 353.821 198.711V192.871H352.261V191.511H353.821V190.271L355.561 188.991V191.511H358.741V192.871H355.561V198.191C355.561 199.431 356.141 199.731 356.901 199.731C357.761 199.731 358.361 199.011 358.621 198.411L359.201 200.131C358.781 200.791 357.861 201.411 356.521 201.411ZM362.658 201.191H360.918V187.791H362.658V194.091C363.038 192.591 364.078 191.311 365.978 191.311C367.878 191.311 369.058 192.451 369.058 194.511V201.191H367.338V194.931C367.338 193.671 366.838 192.791 365.198 192.791C363.338 192.791 362.658 194.091 362.658 195.711V201.191ZM375.721 201.391C372.981 201.391 371.081 199.431 371.081 196.351C371.081 193.291 372.961 191.311 375.621 191.311C378.361 191.311 380.021 193.131 380.021 195.971C380.021 196.271 379.981 196.571 379.941 196.751H372.761C372.861 198.791 374.001 199.951 375.721 199.951C377.661 199.951 378.441 198.891 378.821 198.051L379.881 199.251C379.161 200.411 377.821 201.391 375.721 201.391ZM375.621 192.771C374.061 192.771 373.021 193.691 372.801 195.491H378.461C378.281 193.711 377.241 192.771 375.621 192.771ZM383.966 201.191H382.226V191.511H383.966V194.091C384.346 192.591 385.346 191.291 386.986 191.291C388.026 191.291 389.026 192.031 389.026 193.391C389.026 194.211 388.806 194.811 388.646 195.051H386.746C387.066 194.771 387.326 194.171 387.326 193.631C387.326 193.071 387.026 192.591 386.326 192.591C385.086 192.591 383.966 194.051 383.966 195.711V201.191ZM394.17 201.391C392.15 201.391 390.31 200.511 389.65 198.711L390.91 197.731C391.25 198.831 392.31 199.931 394.23 199.931C395.37 199.931 396.13 199.491 396.13 198.631C396.13 197.751 395.25 197.471 394.11 197.211L392.83 196.911C391.45 196.591 389.95 195.931 389.95 194.151C389.95 192.391 391.31 191.311 393.41 191.311C395.45 191.311 396.87 192.391 397.41 193.671L396.09 194.651C395.61 193.511 394.69 192.791 393.31 192.791C392.31 192.791 391.59 193.231 391.59 194.051C391.59 194.911 392.23 195.211 393.55 195.531L394.79 195.851C396.97 196.371 397.69 197.271 397.69 198.611C397.69 200.531 396.05 201.391 394.17 201.391Z" fill="#FFFEFE"/>
<circle cx="319" cy="111.191" r="9" fill="#FFDCD4"/>
<circle cx="319" cy="153.191" r="9" fill="#FFEAE0"/>
<circle cx="319" cy="195.191" r="9" fill="#FFC3C3"/>
<path d="M150.056 55.3514C147.736 55.3514 146.376 53.9754 146.024 52.3594L147.208 51.3034C147.528 52.9354 148.216 54.0234 150.232 54.0234C151.608 54.0234 152.392 53.3674 152.392 52.2794C152.392 50.9994 151.384 50.4234 149.896 50.4234H148.152V49.2234H149.912C151.256 49.2234 151.928 48.6474 151.928 47.5274C151.928 46.5034 151.32 45.6554 149.944 45.6554C148.568 45.6554 147.576 46.4394 147.384 47.9114L146.2 46.9194C146.648 45.4634 148.056 44.3114 149.976 44.3114C152.456 44.3114 153.384 45.8474 153.384 47.2234C153.384 48.3274 152.568 49.4634 151.208 49.6554C153.16 49.8154 153.864 51.0314 153.864 52.4234C153.864 54.1674 152.392 55.3514 150.056 55.3514ZM157.518 49.1594C156.174 49.1594 155.182 48.2154 155.182 46.7434C155.182 45.2714 156.174 44.3274 157.518 44.3274C158.846 44.3274 159.838 45.2714 159.838 46.7434C159.838 48.2154 158.846 49.1594 157.518 49.1594ZM157.182 55.1914H155.726L163.278 44.4714H164.734L157.182 55.1914ZM157.518 48.1354C158.27 48.1354 158.734 47.5914 158.734 46.7434C158.734 45.8794 158.27 45.3354 157.518 45.3354C156.766 45.3354 156.318 45.8794 156.318 46.7434C156.318 47.5914 156.766 48.1354 157.518 48.1354ZM162.99 55.1914C161.646 55.1914 160.654 54.2474 160.654 52.7754C160.654 51.3034 161.646 50.3594 162.99 50.3594C164.318 50.3594 165.31 51.3034 165.31 52.7754C165.31 54.2474 164.318 55.1914 162.99 55.1914ZM162.99 54.1674C163.742 54.1674 164.206 53.6234 164.206 52.7754C164.206 51.9114 163.742 51.3674 162.99 51.3674C162.238 51.3674 161.79 51.9114 161.79 52.7754C161.79 53.6234 162.238 54.1674 162.99 54.1674Z" fill="#FFFEFE"/>
<path d="M143 84.1914V65.1914H171" stroke="#C4C4C4"/>
<circle cx="866" cy="495.191" r="9" fill="#FFDCD4"/>
<circle cx="866" cy="537.191" r="9" fill="#FFEAE0"/>
<circle cx="866" cy="579.191" r="9" fill="#FFC3C3"/>
<rect x="544.5" y="0.691406" width="509" height="347" rx="9.5" stroke="#F9F9F9"/>
<path d="M574.48 33.1914H572.1L577.34 19.7914H579.94L585.18 33.1914H582.7L581.42 29.8114H575.76L574.48 33.1914ZM577.88 24.2314L576.5 27.8514H580.68L579.32 24.2314L578.6 21.8114L577.88 24.2314ZM590.091 30.2714C589.331 30.2714 588.631 30.1314 588.051 29.8514C587.871 30.1514 587.651 30.5314 587.651 30.8714C587.651 31.3714 587.911 31.6314 588.811 31.6314H591.951C593.891 31.6314 594.951 32.4114 594.951 33.8714C594.951 35.7114 593.151 37.1114 589.611 37.1114C586.891 37.1114 585.311 36.2514 585.311 35.0314C585.311 34.1114 586.191 33.6114 587.131 33.3914C586.431 33.1914 585.971 32.7314 585.971 31.9914C585.971 31.1114 586.731 30.2514 587.631 29.6314C586.651 29.0314 586.051 28.0114 586.051 26.7714C586.051 24.7114 587.691 23.2514 590.091 23.2514C590.711 23.2514 591.271 23.3514 591.771 23.5314L592.251 21.1914L594.411 21.9314L592.591 23.9314C593.551 24.5514 594.111 25.5514 594.111 26.7714C594.111 28.8314 592.491 30.2714 590.091 30.2714ZM590.091 28.6714C591.151 28.6714 591.991 27.9914 591.991 26.7714C591.991 25.5514 591.151 24.8714 590.091 24.8714C589.031 24.8714 588.191 25.5514 588.191 26.7714C588.191 27.9914 589.031 28.6714 590.091 28.6714ZM589.711 35.4314C591.811 35.4314 592.931 34.9714 592.931 34.1514C592.931 33.6314 592.511 33.4114 591.651 33.4114H587.591C587.371 33.6314 587.131 33.9514 587.131 34.2914C587.131 35.0114 587.931 35.4314 589.711 35.4314ZM600.488 33.3914C597.588 33.3914 595.688 31.3714 595.688 28.3314C595.688 25.2714 597.588 23.2514 600.328 23.2514C603.248 23.2514 604.868 25.1914 604.868 27.8914C604.868 28.2514 604.828 28.6714 604.788 28.8714H597.828C597.948 30.6114 598.968 31.5514 600.508 31.5514C602.208 31.5514 602.968 30.6714 603.328 29.8514L604.708 31.2914C603.968 32.4114 602.648 33.3914 600.488 33.3914ZM600.328 25.0514C598.948 25.0514 598.028 25.8514 597.848 27.4314H602.848C602.688 25.8914 601.808 25.0514 600.328 25.0514Z" fill="#FFFEFE"/>
<circle cx="693" cy="196.191" r="120" fill="#FFDCD4"/>
<path d="M812.874 201.68C811.8 225.137 803.868 247.763 790.06 266.756C776.252 285.749 757.175 300.273 735.193 308.529C713.211 316.785 689.29 318.411 666.393 313.204C643.496 307.998 622.629 296.188 606.379 279.238C590.128 262.288 579.208 240.943 574.97 217.847C570.733 194.751 573.364 170.919 582.539 149.305C591.714 127.69 607.028 109.242 626.586 96.2457C646.143 83.2498 669.083 76.2774 692.565 76.1922L693 196.191L812.874 201.68Z" fill="#EEA2A2"/>
<path d="M812.84 202.378C811.741 223.679 804.984 244.301 793.265 262.122C781.547 279.943 765.29 294.319 746.169 303.769C727.048 313.22 705.754 317.403 684.479 315.889C663.205 314.374 642.718 307.217 625.128 295.153C607.539 283.09 593.483 266.556 584.407 247.255C575.331 227.953 571.563 206.582 573.492 185.341C575.42 164.099 582.975 143.756 595.379 126.405C607.783 109.054 624.587 95.3221 644.062 86.6238L693 196.191L812.84 202.378Z" fill="#FFC3C3"/>
<path d="M812.923 200.503C812.244 219.374 807.122 237.819 797.972 254.338C788.822 270.856 775.902 284.982 760.265 295.567C744.627 306.152 726.712 312.897 707.976 315.253C689.24 317.61 670.213 315.512 652.44 309.129C634.668 302.747 618.653 292.26 605.698 278.522C592.742 264.784 583.211 248.182 577.881 230.067C572.55 211.952 571.57 192.834 575.02 174.268C578.469 155.703 586.252 138.213 597.735 123.222L693 196.191L812.923 200.503Z" fill="#FFEAE0"/>
<path d="M742.544 155.191H735.248V154.103L738.752 150.647C739.92 149.495 740.832 148.503 740.832 147.319C740.832 146.455 740.352 145.655 739.136 145.655C737.344 145.655 736.336 146.807 736.608 148.935L735.312 148.119C735.088 146.007 736.768 144.311 739.232 144.311C741.328 144.311 742.272 145.575 742.272 147.223C742.272 148.983 740.592 150.583 739.616 151.511L737.952 153.079L736.8 154.055L738.112 153.959H742.544V155.191ZM747.944 155.351C745.608 155.351 743.928 154.119 743.928 149.879V149.687C743.928 146.199 745.432 144.311 748.072 144.311C749.688 144.311 750.872 145.175 751.496 146.439L750.296 147.431C749.896 146.359 749.096 145.655 747.96 145.655C746.664 145.655 745.4 146.487 745.4 149.831V150.999C745.576 149.191 746.744 148.151 748.488 148.151C750.68 148.151 751.64 149.735 751.64 151.687C751.64 153.767 750.136 155.351 747.944 155.351ZM747.912 154.023C749.304 154.023 750.168 153.047 750.168 151.767C750.168 150.359 749.48 149.447 747.944 149.447C746.552 149.447 745.56 150.151 745.56 151.543C745.56 153.287 746.472 154.023 747.912 154.023ZM755.268 149.159C753.924 149.159 752.932 148.215 752.932 146.743C752.932 145.271 753.924 144.327 755.268 144.327C756.596 144.327 757.588 145.271 757.588 146.743C757.588 148.215 756.596 149.159 755.268 149.159ZM754.932 155.191H753.476L761.028 144.471H762.484L754.932 155.191ZM755.268 148.135C756.02 148.135 756.484 147.591 756.484 146.743C756.484 145.879 756.02 145.335 755.268 145.335C754.516 145.335 754.068 145.879 754.068 146.743C754.068 147.591 754.516 148.135 755.268 148.135ZM760.74 155.191C759.396 155.191 758.404 154.247 758.404 152.775C758.404 151.303 759.396 150.359 760.74 150.359C762.068 150.359 763.06 151.303 763.06 152.775C763.06 154.247 762.068 155.191 760.74 155.191ZM760.74 154.167C761.492 154.167 761.956 153.623 761.956 152.775C761.956 151.911 761.492 151.367 760.74 151.367C759.988 151.367 759.54 151.911 759.54 152.775C759.54 153.623 759.988 154.167 760.74 154.167Z" fill="#323232"/>
<path d="M888.84 112.191H887.1V101.191H884.7V99.9914C885.78 99.9914 886.74 99.6714 887.38 98.7914H888.84V112.191ZM896.611 112.391C892.931 112.391 891.211 109.371 891.211 105.471C891.211 101.611 892.931 98.5914 896.611 98.5914C900.271 98.5914 901.991 101.611 901.991 105.471C901.991 109.371 900.271 112.391 896.611 112.391ZM896.631 110.731C899.271 110.731 900.171 108.551 900.171 105.471C900.171 102.431 899.271 100.231 896.631 100.231C893.971 100.231 893.051 102.431 893.051 105.471C893.051 108.551 893.971 110.731 896.631 110.731ZM908.624 107.091H903.904V105.871H908.624V107.091ZM914.367 112.191H912.627V101.191H910.227V99.9914C911.307 99.9914 912.267 99.6714 912.907 98.7914H914.367V112.191ZM921.72 112.391C918.38 112.391 916.8 110.911 916.8 108.751C916.8 107.391 917.54 105.931 919.74 105.391C918 105.111 917.2 103.811 917.2 102.271C917.2 100.251 918.78 98.5914 921.72 98.5914C924.64 98.5914 926.24 100.251 926.24 102.251C926.24 103.811 925.32 105.111 923.6 105.391C925.8 105.931 926.64 107.391 926.64 108.751C926.64 110.911 925.04 112.391 921.72 112.391ZM921.72 104.691C923.46 104.691 924.42 103.751 924.42 102.471C924.42 101.311 923.64 100.231 921.72 100.231C919.8 100.231 919.04 101.311 919.04 102.471C919.04 103.751 919.78 104.691 921.72 104.691ZM921.72 110.751C924.06 110.751 924.62 109.651 924.62 108.451C924.62 107.111 923.66 106.091 921.72 106.091C919.78 106.091 918.82 107.111 918.82 108.451C918.82 109.651 919.38 110.751 921.72 110.751ZM934.905 115.351C933.525 115.351 932.525 114.591 932.105 113.791L933.045 112.471C933.505 113.251 934.005 113.831 934.925 113.831C935.705 113.831 936.225 113.451 936.605 112.271L936.805 111.651L935.725 111.671L932.465 102.511H934.325L936.405 108.731L937.085 110.811L937.765 108.731L939.825 102.511H941.685L937.965 112.991C937.345 114.771 936.265 115.351 934.905 115.351ZM946.92 112.391C944.18 112.391 942.28 110.431 942.28 107.351C942.28 104.291 944.16 102.311 946.82 102.311C949.56 102.311 951.22 104.131 951.22 106.971C951.22 107.271 951.18 107.571 951.14 107.751H943.96C944.06 109.791 945.2 110.951 946.92 110.951C948.86 110.951 949.64 109.891 950.02 109.051L951.08 110.251C950.36 111.411 949.02 112.391 946.92 112.391ZM946.82 103.771C945.26 103.771 944.22 104.691 944 106.491H949.66C949.48 104.711 948.44 103.771 946.82 103.771ZM955.484 112.391C953.844 112.391 952.924 111.451 952.924 110.171C952.924 108.871 953.904 108.051 955.284 107.431L958.784 105.871C958.724 104.731 958.184 103.891 956.664 103.891C955.284 103.891 954.364 104.691 953.864 105.751L952.684 104.531C953.264 103.531 954.704 102.311 956.864 102.311C959.244 102.311 960.524 103.731 960.524 106.031V110.011C960.524 110.471 960.704 110.611 961.064 110.611H961.684V112.191H960.564C959.564 112.191 958.844 111.711 958.844 110.351V109.671C958.524 110.951 957.484 112.391 955.484 112.391ZM954.684 109.891C954.684 110.551 955.144 110.951 956.044 110.951C957.684 110.951 958.844 109.871 958.844 108.471V107.131L956.024 108.451C955.104 108.891 954.684 109.291 954.684 109.891ZM965.439 112.191H963.699V102.511H965.439V105.091C965.819 103.591 966.819 102.291 968.459 102.291C969.499 102.291 970.499 103.031 970.499 104.391C970.499 105.211 970.279 105.811 970.119 106.051H968.219C968.539 105.771 968.799 105.171 968.799 104.631C968.799 104.071 968.499 103.591 967.799 103.591C966.559 103.591 965.439 105.051 965.439 106.711V112.191ZM980.411 112.391C977.731 112.391 975.851 110.411 975.851 107.351C975.851 104.291 977.731 102.311 980.411 102.311C983.091 102.311 984.991 104.291 984.991 107.351C984.991 110.411 983.091 112.391 980.411 112.391ZM980.411 110.931C982.071 110.931 983.231 109.791 983.231 107.351C983.231 104.891 982.071 103.771 980.411 103.771C978.771 103.771 977.631 104.891 977.631 107.351C977.631 109.791 978.771 110.931 980.411 110.931ZM988.955 112.191H987.215V98.7914H988.955V112.191ZM994.99 112.431C992.55 112.431 991.03 110.431 991.03 107.371C991.03 104.311 992.55 102.311 994.99 102.311C996.85 102.311 997.77 103.551 998.11 105.031V98.7914H999.85V112.191H998.11V109.711C997.77 111.191 996.85 112.431 994.99 112.431ZM992.79 107.371C992.79 109.851 994.05 110.971 995.57 110.971C997.43 110.971 998.11 109.671 998.11 108.071V106.691C998.11 105.091 997.43 103.791 995.57 103.791C994.05 103.791 992.79 104.911 992.79 107.371ZM1006.25 112.391C1004.23 112.391 1002.39 111.511 1001.73 109.711L1002.99 108.731C1003.33 109.831 1004.39 110.931 1006.31 110.931C1007.45 110.931 1008.21 110.491 1008.21 109.631C1008.21 108.751 1007.33 108.471 1006.19 108.211L1004.91 107.911C1003.53 107.591 1002.03 106.931 1002.03 105.151C1002.03 103.391 1003.39 102.311 1005.49 102.311C1007.53 102.311 1008.95 103.391 1009.49 104.671L1008.17 105.651C1007.69 104.511 1006.77 103.791 1005.39 103.791C1004.39 103.791 1003.67 104.231 1003.67 105.051C1003.67 105.911 1004.31 106.211 1005.63 106.531L1006.87 106.851C1009.05 107.371 1009.77 108.271 1009.77 109.611C1009.77 111.531 1008.13 112.391 1006.25 112.391Z" fill="#F9F9F9"/>
<path d="M888.84 152.191H887.1V141.191H884.7V139.991C885.78 139.991 886.74 139.671 887.38 138.791H888.84V152.191ZM895.752 152.391C893.712 152.391 892.232 151.311 891.452 149.731L892.932 148.491C893.452 149.831 894.452 150.711 895.892 150.711C897.492 150.711 899.072 149.671 899.072 145.491V144.031C898.852 146.291 897.372 147.591 895.212 147.591C892.472 147.591 891.272 145.611 891.272 143.171C891.272 140.571 893.152 138.591 895.892 138.591C898.812 138.591 900.912 140.131 900.912 145.431V145.891C900.912 150.051 899.072 152.391 895.752 152.391ZM895.892 145.971C897.632 145.971 898.852 145.091 898.852 143.351C898.852 141.171 897.712 140.251 895.932 140.251C894.192 140.251 893.092 141.471 893.092 143.071C893.092 144.831 893.972 145.971 895.892 145.971ZM907.843 147.091H903.123V145.871H907.843V147.091ZM919.133 152.191H910.013V150.831L914.393 146.511C915.853 145.071 916.993 143.831 916.993 142.351C916.993 141.271 916.393 140.271 914.873 140.271C912.633 140.271 911.373 141.711 911.713 144.371L910.093 143.351C909.813 140.711 911.913 138.591 914.993 138.591C917.613 138.591 918.793 140.171 918.793 142.231C918.793 144.431 916.693 146.431 915.473 147.591L913.393 149.551L911.953 150.771L913.593 150.651H919.133V152.191ZM926.109 152.391C923.709 152.391 921.889 151.051 921.209 149.351L922.609 147.871C923.089 149.611 924.289 150.731 926.169 150.731C928.009 150.731 928.929 149.631 928.929 147.891C928.929 145.711 927.449 144.891 925.989 144.891C924.529 144.891 923.529 145.531 923.449 146.431L923.429 146.651L921.709 146.471L922.129 138.791H929.749V140.431H923.849L923.489 145.571C923.909 144.391 924.969 143.451 926.729 143.451C929.389 143.451 930.769 145.311 930.769 147.891C930.769 150.611 929.029 152.391 926.109 152.391ZM939.026 155.351C937.646 155.351 936.646 154.591 936.226 153.791L937.166 152.471C937.626 153.251 938.126 153.831 939.046 153.831C939.826 153.831 940.346 153.451 940.726 152.271L940.926 151.651L939.846 151.671L936.586 142.511H938.446L940.526 148.731L941.206 150.811L941.886 148.731L943.946 142.511H945.806L942.086 152.991C941.466 154.771 940.386 155.351 939.026 155.351ZM951.042 152.391C948.302 152.391 946.402 150.431 946.402 147.351C946.402 144.291 948.282 142.311 950.942 142.311C953.682 142.311 955.342 144.131 955.342 146.971C955.342 147.271 955.302 147.571 955.262 147.751H948.082C948.182 149.791 949.322 150.951 951.042 150.951C952.982 150.951 953.762 149.891 954.142 149.051L955.202 150.251C954.482 151.411 953.142 152.391 951.042 152.391ZM950.942 143.771C949.382 143.771 948.342 144.691 948.122 146.491H953.782C953.602 144.711 952.562 143.771 950.942 143.771ZM959.605 152.391C957.965 152.391 957.045 151.451 957.045 150.171C957.045 148.871 958.025 148.051 959.405 147.431L962.905 145.871C962.845 144.731 962.305 143.891 960.785 143.891C959.405 143.891 958.485 144.691 957.985 145.751L956.805 144.531C957.385 143.531 958.825 142.311 960.985 142.311C963.365 142.311 964.645 143.731 964.645 146.031V150.011C964.645 150.471 964.825 150.611 965.185 150.611H965.805V152.191H964.685C963.685 152.191 962.965 151.711 962.965 150.351V149.671C962.645 150.951 961.605 152.391 959.605 152.391ZM958.805 149.891C958.805 150.551 959.265 150.951 960.165 150.951C961.805 150.951 962.965 149.871 962.965 148.471V147.131L960.145 148.451C959.225 148.891 958.805 149.291 958.805 149.891ZM969.56 152.191H967.82V142.511H969.56V145.091C969.94 143.591 970.94 142.291 972.58 142.291C973.62 142.291 974.62 143.031 974.62 144.391C974.62 145.211 974.4 145.811 974.24 146.051H972.34C972.66 145.771 972.92 145.171 972.92 144.631C972.92 144.071 972.62 143.591 971.92 143.591C970.68 143.591 969.56 145.051 969.56 146.711V152.191ZM984.532 152.391C981.852 152.391 979.972 150.411 979.972 147.351C979.972 144.291 981.852 142.311 984.532 142.311C987.212 142.311 989.112 144.291 989.112 147.351C989.112 150.411 987.212 152.391 984.532 152.391ZM984.532 150.931C986.192 150.931 987.352 149.791 987.352 147.351C987.352 144.891 986.192 143.771 984.532 143.771C982.892 143.771 981.752 144.891 981.752 147.351C981.752 149.791 982.892 150.931 984.532 150.931ZM993.076 152.191H991.336V138.791H993.076V152.191ZM999.111 152.431C996.671 152.431 995.151 150.431 995.151 147.371C995.151 144.311 996.671 142.311 999.111 142.311C1000.97 142.311 1001.89 143.551 1002.23 145.031V138.791H1003.97V152.191H1002.23V149.711C1001.89 151.191 1000.97 152.431 999.111 152.431ZM996.911 147.371C996.911 149.851 998.171 150.971 999.691 150.971C1001.55 150.971 1002.23 149.671 1002.23 148.071V146.691C1002.23 145.091 1001.55 143.791 999.691 143.791C998.171 143.791 996.911 144.911 996.911 147.371ZM1010.37 152.391C1008.35 152.391 1006.51 151.511 1005.85 149.711L1007.11 148.731C1007.45 149.831 1008.51 150.931 1010.43 150.931C1011.57 150.931 1012.33 150.491 1012.33 149.631C1012.33 148.751 1011.45 148.471 1010.31 148.211L1009.03 147.911C1007.65 147.591 1006.15 146.931 1006.15 145.151C1006.15 143.391 1007.51 142.311 1009.61 142.311C1011.65 142.311 1013.07 143.391 1013.61 144.671L1012.29 145.651C1011.81 144.511 1010.89 143.791 1009.51 143.791C1008.51 143.791 1007.79 144.231 1007.79 145.051C1007.79 145.911 1008.43 146.211 1009.75 146.531L1010.99 146.851C1013.17 147.371 1013.89 148.271 1013.89 149.611C1013.89 151.531 1012.25 152.391 1010.37 152.391Z" fill="#F9F9F9"/>
<path d="M894.68 193.191H885.56V191.831L889.94 187.511C891.4 186.071 892.54 184.831 892.54 183.351C892.54 182.271 891.94 181.271 890.42 181.271C888.18 181.271 886.92 182.711 887.26 185.371L885.64 184.351C885.36 181.711 887.46 179.591 890.54 179.591C893.16 179.591 894.34 181.171 894.34 183.231C894.34 185.431 892.24 187.431 891.02 188.591L888.94 190.551L887.5 191.771L889.14 191.651H894.68V193.191ZM901.43 193.391C898.51 193.391 896.41 191.851 896.41 186.551V186.311C896.41 181.951 898.29 179.591 901.59 179.591C903.61 179.591 905.09 180.671 905.87 182.251L904.37 183.491C903.87 182.151 902.87 181.271 901.45 181.271C899.83 181.271 898.25 182.311 898.25 186.491V187.951C898.47 185.691 899.93 184.391 902.11 184.391C904.85 184.391 906.05 186.371 906.05 188.811C906.05 191.411 904.17 193.391 901.43 193.391ZM901.39 191.731C903.13 191.731 904.21 190.511 904.21 188.911C904.21 187.151 903.35 186.011 901.43 186.011C899.69 186.011 898.45 186.891 898.45 188.631C898.45 190.811 899.59 191.731 901.39 191.731ZM912.921 188.091H908.201V186.871H912.921V188.091ZM920.144 193.391C917.244 193.391 915.544 191.671 915.104 189.651L916.584 188.331C916.984 190.371 917.844 191.731 920.364 191.731C922.084 191.731 923.064 190.911 923.064 189.551C923.064 187.951 921.804 187.231 919.944 187.231H917.764V185.731H919.964C921.644 185.731 922.484 185.011 922.484 183.611C922.484 182.331 921.724 181.271 920.004 181.271C918.284 181.271 917.044 182.251 916.804 184.091L915.324 182.851C915.884 181.031 917.644 179.591 920.044 179.591C923.144 179.591 924.304 181.511 924.304 183.231C924.304 184.611 923.284 186.031 921.584 186.271C924.024 186.471 924.904 187.991 924.904 189.731C924.904 191.911 923.064 193.391 920.144 193.391ZM932.574 193.391C930.174 193.391 928.354 192.051 927.674 190.351L929.074 188.871C929.554 190.611 930.754 191.731 932.634 191.731C934.474 191.731 935.394 190.631 935.394 188.891C935.394 186.711 933.914 185.891 932.454 185.891C930.994 185.891 929.994 186.531 929.914 187.431L929.894 187.651L928.174 187.471L928.594 179.791H936.214V181.431H930.314L929.954 186.571C930.374 185.391 931.434 184.451 933.194 184.451C935.854 184.451 937.234 186.311 937.234 188.891C937.234 191.611 935.494 193.391 932.574 193.391ZM945.49 196.351C944.11 196.351 943.11 195.591 942.69 194.791L943.63 193.471C944.09 194.251 944.59 194.831 945.51 194.831C946.29 194.831 946.81 194.451 947.19 193.271L947.39 192.651L946.31 192.671L943.05 183.511H944.91L946.99 189.731L947.67 191.811L948.35 189.731L950.41 183.511H952.27L948.55 193.991C947.93 195.771 946.85 196.351 945.49 196.351ZM957.506 193.391C954.766 193.391 952.866 191.431 952.866 188.351C952.866 185.291 954.746 183.311 957.406 183.311C960.146 183.311 961.806 185.131 961.806 187.971C961.806 188.271 961.766 188.571 961.726 188.751H954.546C954.646 190.791 955.786 191.951 957.506 191.951C959.446 191.951 960.226 190.891 960.606 190.051L961.666 191.251C960.946 192.411 959.606 193.391 957.506 193.391ZM957.406 184.771C955.846 184.771 954.806 185.691 954.586 187.491H960.246C960.066 185.711 959.026 184.771 957.406 184.771ZM966.07 193.391C964.43 193.391 963.51 192.451 963.51 191.171C963.51 189.871 964.49 189.051 965.87 188.431L969.37 186.871C969.31 185.731 968.77 184.891 967.25 184.891C965.87 184.891 964.95 185.691 964.45 186.751L963.27 185.531C963.85 184.531 965.29 183.311 967.45 183.311C969.83 183.311 971.11 184.731 971.11 187.031V191.011C971.11 191.471 971.29 191.611 971.65 191.611H972.27V193.191H971.15C970.15 193.191 969.43 192.711 969.43 191.351V190.671C969.11 191.951 968.07 193.391 966.07 193.391ZM965.27 190.891C965.27 191.551 965.73 191.951 966.63 191.951C968.27 191.951 969.43 190.871 969.43 189.471V188.131L966.61 189.451C965.69 189.891 965.27 190.291 965.27 190.891ZM976.025 193.191H974.285V183.511H976.025V186.091C976.405 184.591 977.405 183.291 979.045 183.291C980.085 183.291 981.085 184.031 981.085 185.391C981.085 186.211 980.865 186.811 980.705 187.051H978.805C979.125 186.771 979.385 186.171 979.385 185.631C979.385 185.071 979.085 184.591 978.385 184.591C977.145 184.591 976.025 186.051 976.025 187.711V193.191ZM990.997 193.391C988.317 193.391 986.437 191.411 986.437 188.351C986.437 185.291 988.317 183.311 990.997 183.311C993.677 183.311 995.577 185.291 995.577 188.351C995.577 191.411 993.677 193.391 990.997 193.391ZM990.997 191.931C992.657 191.931 993.817 190.791 993.817 188.351C993.817 185.891 992.657 184.771 990.997 184.771C989.357 184.771 988.217 185.891 988.217 188.351C988.217 190.791 989.357 191.931 990.997 191.931ZM999.54 193.191H997.8V179.791H999.54V193.191ZM1005.58 193.431C1003.14 193.431 1001.62 191.431 1001.62 188.371C1001.62 185.311 1003.14 183.311 1005.58 183.311C1007.44 183.311 1008.36 184.551 1008.7 186.031V179.791H1010.44V193.191H1008.7V190.711C1008.36 192.191 1007.44 193.431 1005.58 193.431ZM1003.38 188.371C1003.38 190.851 1004.64 191.971 1006.16 191.971C1008.02 191.971 1008.7 190.671 1008.7 189.071V187.691C1008.7 186.091 1008.02 184.791 1006.16 184.791C1004.64 184.791 1003.38 185.911 1003.38 188.371ZM1016.83 193.391C1014.81 193.391 1012.97 192.511 1012.31 190.711L1013.57 189.731C1013.91 190.831 1014.97 191.931 1016.89 191.931C1018.03 191.931 1018.79 191.491 1018.79 190.631C1018.79 189.751 1017.91 189.471 1016.77 189.211L1015.49 188.911C1014.11 188.591 1012.61 187.931 1012.61 186.151C1012.61 184.391 1013.97 183.311 1016.07 183.311C1018.11 183.311 1019.53 184.391 1020.07 185.671L1018.75 186.651C1018.27 185.511 1017.35 184.791 1015.97 184.791C1014.97 184.791 1014.25 185.231 1014.25 186.051C1014.25 186.911 1014.89 187.211 1016.21 187.531L1017.45 187.851C1019.63 188.371 1020.35 189.271 1020.35 190.611C1020.35 192.531 1018.71 193.391 1016.83 193.391Z" fill="#F9F9F9"/>
<path d="M890.32 235.391C887.42 235.391 885.72 233.671 885.28 231.651L886.76 230.331C887.16 232.371 888.02 233.731 890.54 233.731C892.26 233.731 893.24 232.911 893.24 231.551C893.24 229.951 891.98 229.231 890.12 229.231H887.94V227.731H890.14C891.82 227.731 892.66 227.011 892.66 225.611C892.66 224.331 891.9 223.271 890.18 223.271C888.46 223.271 887.22 224.251 886.98 226.091L885.5 224.851C886.06 223.031 887.82 221.591 890.22 221.591C893.32 221.591 894.48 223.511 894.48 225.231C894.48 226.611 893.46 228.031 891.76 228.271C894.2 228.471 895.08 229.991 895.08 231.731C895.08 233.911 893.24 235.391 890.32 235.391ZM902.172 235.391C899.252 235.391 897.152 233.851 897.152 228.551V228.311C897.152 223.951 899.032 221.591 902.332 221.591C904.352 221.591 905.832 222.671 906.612 224.251L905.112 225.491C904.612 224.151 903.612 223.271 902.192 223.271C900.572 223.271 898.992 224.311 898.992 228.491V229.951C899.212 227.691 900.672 226.391 902.852 226.391C905.592 226.391 906.792 228.371 906.792 230.811C906.792 233.411 904.912 235.391 902.172 235.391ZM902.132 233.731C903.872 233.731 904.952 232.511 904.952 230.911C904.952 229.151 904.092 228.011 902.172 228.011C900.432 228.011 899.192 228.891 899.192 230.631C899.192 232.811 900.332 233.731 902.132 233.731ZM913.663 230.091H908.943V228.871H913.663V230.091ZM920.883 235.391C917.963 235.391 915.863 233.851 915.863 228.551V228.311C915.863 223.951 917.743 221.591 921.043 221.591C923.063 221.591 924.543 222.671 925.323 224.251L923.823 225.491C923.323 224.151 922.323 223.271 920.903 223.271C919.283 223.271 917.703 224.311 917.703 228.491V229.951C917.923 227.691 919.383 226.391 921.563 226.391C924.303 226.391 925.503 228.371 925.503 230.811C925.503 233.411 923.623 235.391 920.883 235.391ZM920.843 233.731C922.583 233.731 923.663 232.511 923.663 230.911C923.663 229.151 922.803 228.011 920.883 228.011C919.143 228.011 917.903 228.891 917.903 230.631C917.903 232.811 919.043 233.731 920.843 233.731ZM932.568 235.391C928.888 235.391 927.168 232.371 927.168 228.471C927.168 224.611 928.888 221.591 932.568 221.591C936.228 221.591 937.948 224.611 937.948 228.471C937.948 232.371 936.228 235.391 932.568 235.391ZM932.588 233.731C935.228 233.731 936.128 231.551 936.128 228.471C936.128 225.431 935.228 223.231 932.588 223.231C929.928 223.231 929.008 225.431 929.008 228.471C929.008 231.551 929.928 233.731 932.588 233.731ZM946.115 238.351C944.735 238.351 943.735 237.591 943.315 236.791L944.255 235.471C944.715 236.251 945.215 236.831 946.135 236.831C946.915 236.831 947.435 236.451 947.815 235.271L948.015 234.651L946.935 234.671L943.675 225.511H945.535L947.615 231.731L948.295 233.811L948.975 231.731L951.035 225.511H952.895L949.175 235.991C948.555 237.771 947.475 238.351 946.115 238.351ZM958.131 235.391C955.391 235.391 953.491 233.431 953.491 230.351C953.491 227.291 955.371 225.311 958.031 225.311C960.771 225.311 962.431 227.131 962.431 229.971C962.431 230.271 962.391 230.571 962.351 230.751H955.171C955.271 232.791 956.411 233.951 958.131 233.951C960.071 233.951 960.851 232.891 961.231 232.051L962.291 233.251C961.571 234.411 960.231 235.391 958.131 235.391ZM958.031 226.771C956.471 226.771 955.431 227.691 955.211 229.491H960.871C960.691 227.711 959.651 226.771 958.031 226.771ZM966.695 235.391C965.055 235.391 964.135 234.451 964.135 233.171C964.135 231.871 965.115 231.051 966.495 230.431L969.995 228.871C969.935 227.731 969.395 226.891 967.875 226.891C966.495 226.891 965.575 227.691 965.075 228.751L963.895 227.531C964.475 226.531 965.915 225.311 968.075 225.311C970.455 225.311 971.735 226.731 971.735 229.031V233.011C971.735 233.471 971.915 233.611 972.275 233.611H972.895V235.191H971.775C970.775 235.191 970.055 234.711 970.055 233.351V232.671C969.735 233.951 968.695 235.391 966.695 235.391ZM965.895 232.891C965.895 233.551 966.355 233.951 967.255 233.951C968.895 233.951 970.055 232.871 970.055 231.471V230.131L967.235 231.451C966.315 231.891 965.895 232.291 965.895 232.891ZM976.65 235.191H974.91V225.511H976.65V228.091C977.03 226.591 978.03 225.291 979.67 225.291C980.71 225.291 981.71 226.031 981.71 227.391C981.71 228.211 981.49 228.811 981.33 229.051H979.43C979.75 228.771 980.01 228.171 980.01 227.631C980.01 227.071 979.71 226.591 979.01 226.591C977.77 226.591 976.65 228.051 976.65 229.711V235.191ZM991.622 235.391C988.942 235.391 987.062 233.411 987.062 230.351C987.062 227.291 988.942 225.311 991.622 225.311C994.302 225.311 996.202 227.291 996.202 230.351C996.202 233.411 994.302 235.391 991.622 235.391ZM991.622 233.931C993.282 233.931 994.442 232.791 994.442 230.351C994.442 227.891 993.282 226.771 991.622 226.771C989.982 226.771 988.842 227.891 988.842 230.351C988.842 232.791 989.982 233.931 991.622 233.931ZM1000.17 235.191H998.425V221.791H1000.17V235.191ZM1006.2 235.431C1003.76 235.431 1002.24 233.431 1002.24 230.371C1002.24 227.311 1003.76 225.311 1006.2 225.311C1008.06 225.311 1008.98 226.551 1009.32 228.031V221.791H1011.06V235.191H1009.32V232.711C1008.98 234.191 1008.06 235.431 1006.2 235.431ZM1004 230.371C1004 232.851 1005.26 233.971 1006.78 233.971C1008.64 233.971 1009.32 232.671 1009.32 231.071V229.691C1009.32 228.091 1008.64 226.791 1006.78 226.791C1005.26 226.791 1004 227.911 1004 230.371ZM1017.46 235.391C1015.44 235.391 1013.6 234.511 1012.94 232.711L1014.2 231.731C1014.54 232.831 1015.6 233.931 1017.52 233.931C1018.66 233.931 1019.42 233.491 1019.42 232.631C1019.42 231.751 1018.54 231.471 1017.4 231.211L1016.12 230.911C1014.74 230.591 1013.24 229.931 1013.24 228.151C1013.24 226.391 1014.6 225.311 1016.7 225.311C1018.74 225.311 1020.16 226.391 1020.7 227.671L1019.38 228.651C1018.9 227.511 1017.98 226.791 1016.6 226.791C1015.6 226.791 1014.88 227.231 1014.88 228.051C1014.88 228.911 1015.52 229.211 1016.84 229.531L1018.08 229.851C1020.26 230.371 1020.98 231.271 1020.98 232.611C1020.98 234.531 1019.34 235.391 1017.46 235.391Z" fill="#F9F9F9"/>
<path d="M658.312 250.351C656.392 250.351 654.936 249.279 654.392 247.919L655.512 246.735C655.896 248.127 656.856 249.023 658.36 249.023C659.832 249.023 660.568 248.143 660.568 246.751C660.568 245.007 659.384 244.351 658.216 244.351C657.048 244.351 656.248 244.863 656.184 245.583L656.168 245.759L654.792 245.615L655.128 239.471H661.224V240.783H656.504L656.216 244.895C656.552 243.951 657.4 243.199 658.808 243.199C660.936 243.199 662.04 244.687 662.04 246.751C662.04 248.927 660.648 250.351 658.312 250.351ZM666.839 250.351C665.207 250.351 664.023 249.487 663.399 248.223L664.583 247.231C664.999 248.303 665.799 249.007 666.951 249.007C668.231 249.007 669.495 248.175 669.495 244.831V243.663C669.319 245.471 668.135 246.511 666.407 246.511C664.215 246.511 663.255 244.927 663.255 242.975C663.255 240.895 664.759 239.311 666.951 239.311C669.287 239.311 670.967 240.543 670.967 244.783V245.151C670.967 248.479 669.495 250.351 666.839 250.351ZM666.951 245.215C668.343 245.215 669.319 244.511 669.319 243.119C669.319 241.375 668.407 240.639 666.983 240.639C665.591 240.639 664.711 241.615 664.711 242.895C664.711 244.303 665.415 245.215 666.951 245.215ZM674.705 244.159C673.361 244.159 672.369 243.215 672.369 241.743C672.369 240.271 673.361 239.327 674.705 239.327C676.033 239.327 677.025 240.271 677.025 241.743C677.025 243.215 676.033 244.159 674.705 244.159ZM674.369 250.191H672.913L680.465 239.471H681.921L674.369 250.191ZM674.705 243.135C675.457 243.135 675.921 242.591 675.921 241.743C675.921 240.879 675.457 240.335 674.705 240.335C673.953 240.335 673.505 240.879 673.505 241.743C673.505 242.591 673.953 243.135 674.705 243.135ZM680.177 250.191C678.833 250.191 677.841 249.247 677.841 247.775C677.841 246.303 678.833 245.359 680.177 245.359C681.505 245.359 682.497 246.303 682.497 247.775C682.497 249.247 681.505 250.191 680.177 250.191ZM680.177 249.167C680.929 249.167 681.393 248.623 681.393 247.775C681.393 246.911 680.929 246.367 680.177 246.367C679.425 246.367 678.977 246.911 678.977 247.775C678.977 248.623 679.425 249.167 680.177 249.167Z" fill="#323232"/>
<path d="M679.832 58.3514C677.16 58.3514 675.896 57.1674 675.896 55.4394C675.896 54.3514 676.488 53.1834 678.248 52.7514C676.856 52.5274 676.216 51.4874 676.216 50.2554C676.216 48.6394 677.48 47.3114 679.832 47.3114C682.168 47.3114 683.448 48.6394 683.448 50.2394C683.448 51.4874 682.712 52.5274 681.336 52.7514C683.096 53.1834 683.768 54.3514 683.768 55.4394C683.768 57.1674 682.488 58.3514 679.832 58.3514ZM679.832 52.1914C681.224 52.1914 681.992 51.4394 681.992 50.4154C681.992 49.4874 681.368 48.6234 679.832 48.6234C678.296 48.6234 677.688 49.4874 677.688 50.4154C677.688 51.4394 678.28 52.1914 679.832 52.1914ZM679.832 57.0394C681.704 57.0394 682.152 56.1594 682.152 55.1994C682.152 54.1274 681.384 53.3114 679.832 53.3114C678.28 53.3114 677.512 54.1274 677.512 55.1994C677.512 56.1594 677.96 57.0394 679.832 57.0394ZM687.408 52.1594C686.064 52.1594 685.072 51.2154 685.072 49.7434C685.072 48.2714 686.064 47.3274 687.408 47.3274C688.736 47.3274 689.728 48.2714 689.728 49.7434C689.728 51.2154 688.736 52.1594 687.408 52.1594ZM687.072 58.1914H685.616L693.168 47.4714H694.624L687.072 58.1914ZM687.408 51.1354C688.16 51.1354 688.624 50.5914 688.624 49.7434C688.624 48.8794 688.16 48.3354 687.408 48.3354C686.656 48.3354 686.208 48.8794 686.208 49.7434C686.208 50.5914 686.656 51.1354 687.408 51.1354ZM692.88 58.1914C691.536 58.1914 690.544 57.2474 690.544 55.7754C690.544 54.3034 691.536 53.3594 692.88 53.3594C694.208 53.3594 695.2 54.3034 695.2 55.7754C695.2 57.2474 694.208 58.1914 692.88 58.1914ZM692.88 57.1674C693.632 57.1674 694.096 56.6234 694.096 55.7754C694.096 54.9114 693.632 54.3674 692.88 54.3674C692.128 54.3674 691.68 54.9114 691.68 55.7754C691.68 56.6234 692.128 57.1674 692.88 57.1674Z" fill="#FFFEFE"/>
<circle cx="866" cy="100.191" r="9" fill="#FFDCD4"/>
<circle cx="866" cy="142.191" r="9" fill="#FFEAE0"/>
<circle cx="866" cy="184.191" r="9" fill="#FFC3C3"/>
<circle cx="866" cy="226.191" r="9" fill="#EEA2A2"/>
<path d="M671 91.1914V65.1914H700" stroke="#C4C4C4"/>
<path d="M601.712 78.1914H600.192C600.192 72.8634 602.48 70.4794 604.24 68.7834H598.48V67.4714H605.504V69.0554C603.136 71.3114 601.712 73.6314 601.712 78.1914ZM608.736 72.1594C607.392 72.1594 606.4 71.2154 606.4 69.7434C606.4 68.2714 607.392 67.3274 608.736 67.3274C610.064 67.3274 611.056 68.2714 611.056 69.7434C611.056 71.2154 610.064 72.1594 608.736 72.1594ZM608.4 78.1914H606.944L614.496 67.4714H615.952L608.4 78.1914ZM608.736 71.1354C609.488 71.1354 609.952 70.5914 609.952 69.7434C609.952 68.8794 609.488 68.3354 608.736 68.3354C607.984 68.3354 607.536 68.8794 607.536 69.7434C607.536 70.5914 607.984 71.1354 608.736 71.1354ZM614.208 78.1914C612.864 78.1914 611.872 77.2474 611.872 75.7754C611.872 74.3034 612.864 73.3594 614.208 73.3594C615.536 73.3594 616.528 74.3034 616.528 75.7754C616.528 77.2474 615.536 78.1914 614.208 78.1914ZM614.208 77.1674C614.96 77.1674 615.424 76.6234 615.424 75.7754C615.424 74.9114 614.96 74.3674 614.208 74.3674C613.456 74.3674 613.008 74.9114 613.008 75.7754C613.008 76.6234 613.456 77.1674 614.208 77.1674Z" fill="#FFFEFE"/>
<path d="M623 112.191V88.1914H593" stroke="#C4C4C4"/>
<rect x="1.5" y="384.691" width="509" height="347" rx="9.5" stroke="#F9F9F9"/>
<path d="M32.48 417.371C28.54 417.371 25.88 414.351 25.88 410.471C25.88 406.611 28.54 403.591 32.48 403.591C36.4 403.591 39.08 406.611 39.08 410.471C39.08 414.351 36.4 417.371 32.48 417.371ZM32.5 415.211C35.3 415.211 36.72 413.251 36.72 410.471C36.72 407.711 35.3 405.731 32.5 405.731C29.7 405.731 28.26 407.711 28.26 410.471C28.26 413.251 29.7 415.211 32.5 415.211ZM45.4391 417.391C42.5391 417.391 40.7191 415.351 40.7191 412.331C40.7191 409.291 42.5391 407.251 45.4391 407.251C47.8791 407.251 49.4191 408.631 49.9391 410.471L47.9191 411.471C47.6991 410.071 46.9791 409.131 45.4791 409.131C43.9391 409.131 42.9991 410.271 42.9991 412.331C42.9991 414.371 43.9391 415.511 45.4791 415.511C46.9991 415.511 47.6991 414.571 47.9191 413.171L49.9391 414.171C49.4191 416.011 47.8791 417.391 45.4391 417.391ZM55.7125 417.391C52.8125 417.391 50.9925 415.351 50.9925 412.331C50.9925 409.291 52.8125 407.251 55.7125 407.251C58.1525 407.251 59.6925 408.631 60.2125 410.471L58.1925 411.471C57.9725 410.071 57.2525 409.131 55.7525 409.131C54.2125 409.131 53.2725 410.271 53.2725 412.331C53.2725 414.371 54.2125 415.511 55.7525 415.511C57.2725 415.511 57.9725 414.571 58.1925 413.171L60.2125 414.171C59.6925 416.011 58.1525 417.391 55.7125 417.391ZM64.7069 417.391C62.8269 417.391 61.6669 416.251 61.6669 414.231V407.451H63.9069V413.551C63.9069 414.751 64.3069 415.571 65.8069 415.571C67.4469 415.571 68.0069 414.511 68.0069 412.911V407.451H70.2669V417.191H68.0069V414.531C67.6469 416.071 66.6469 417.391 64.7069 417.391ZM74.8653 420.911H72.6253V407.451H74.8653V410.051C75.1853 408.531 76.0453 407.231 77.9853 407.231C80.3453 407.231 81.8653 409.171 81.8653 412.311C81.8653 415.451 80.3453 417.391 77.9453 417.391C76.0053 417.391 75.1853 416.091 74.8653 414.591V420.911ZM74.8653 412.911C74.8653 414.511 75.5253 415.571 77.1053 415.571C78.5053 415.571 79.5653 414.511 79.5653 412.311C79.5653 410.111 78.5053 409.051 77.1053 409.051C75.5253 409.051 74.8653 410.111 74.8653 411.711V412.911ZM85.7791 417.391C84.1791 417.391 83.2191 416.491 83.2191 415.091C83.2191 413.711 84.1791 412.871 85.7591 412.251L89.0191 410.871C88.9391 409.891 88.4991 409.231 87.1591 409.231C85.8591 409.231 84.8391 409.991 84.2791 411.011L82.9391 409.411C83.6991 408.371 85.2191 407.251 87.3791 407.251C89.7991 407.251 91.1591 408.631 91.1591 411.031V414.691C91.1591 415.131 91.3191 415.271 91.6791 415.271H92.2991V417.191H90.9191C89.8791 417.191 89.0591 416.711 89.0591 415.311V414.591C88.7591 415.871 87.8191 417.391 85.7791 417.391ZM85.3791 414.751C85.3791 415.311 85.7591 415.651 86.5791 415.651C88.0591 415.651 89.0591 414.771 89.0591 413.451V412.411L86.5591 413.531C85.7191 413.911 85.3791 414.251 85.3791 414.751ZM97.2781 417.411C95.4381 417.411 94.3781 416.251 94.3781 414.531V409.191H92.8581V407.451H94.3781V406.271L96.6181 404.851V407.451H99.5981V409.191H96.6181V413.991C96.6181 415.051 97.1181 415.311 97.7781 415.311C98.5381 415.311 99.0981 414.691 99.3781 414.131L100.078 416.131C99.6581 416.751 98.6981 417.411 97.2781 417.411ZM103.83 406.071H101.59V403.791H103.83V406.071ZM103.83 417.191H101.59V407.451H103.83V417.191ZM110.3 417.391C107.5 417.391 105.58 415.351 105.58 412.331C105.58 409.291 107.5 407.251 110.3 407.251C113.14 407.251 115.06 409.291 115.06 412.331C115.06 415.351 113.14 417.391 110.3 417.391ZM110.32 415.531C111.78 415.531 112.78 414.571 112.78 412.331C112.78 410.071 111.78 409.111 110.32 409.111C108.88 409.111 107.88 410.071 107.88 412.331C107.88 414.571 108.88 415.531 110.32 415.531ZM119.221 417.191H116.981V407.451H119.221V410.111C119.581 408.571 120.581 407.251 122.521 407.251C124.421 407.251 125.581 408.391 125.581 410.411V417.191H123.321V411.091C123.321 409.891 122.921 409.071 121.421 409.071C119.781 409.071 119.221 410.131 119.221 411.731V417.191Z" fill="#FFFEFE"/>
<circle cx="153" cy="583.191" r="120" fill="#FFEAE0"/>
<path d="M60.893 506.274C78.9694 484.628 104.092 470.04 131.852 465.07C159.612 460.1 188.235 465.065 212.699 479.095C237.163 493.125 255.904 515.323 265.633 541.792C275.362 568.262 275.458 597.313 265.903 623.847C256.349 650.38 237.755 672.701 213.384 686.892C189.013 701.083 160.423 706.237 132.631 701.45C104.839 696.663 79.6211 682.241 61.4023 660.715C43.1835 639.188 33.1283 611.933 33.0012 583.732L153 583.191L60.893 506.274Z" fill="#FFC3C3"/>
<path d="M127.771 465.873C152.029 460.657 177.308 463.088 200.127 472.833C222.947 482.578 242.184 499.156 255.191 520.287C268.198 541.417 274.335 566.06 272.757 590.823C271.179 615.586 261.964 639.25 246.38 658.559C230.796 677.867 209.61 691.87 185.738 698.639C161.866 705.409 136.483 704.612 113.083 696.358C89.6835 688.104 69.4176 672.8 55.0757 652.552C40.7338 632.303 33.0213 608.107 33 583.294L153 583.191L127.771 465.873Z" fill="#EEA2A2"/>
<path d="M153 463.191C176.734 463.191 199.935 470.229 219.668 483.415C239.402 496.601 254.783 515.342 263.866 537.269C272.948 559.197 275.324 583.325 270.694 606.602C266.064 629.88 254.635 651.262 237.853 668.044C221.071 684.827 199.689 696.255 176.411 700.886C153.133 705.516 129.005 703.139 107.078 694.057C85.1509 684.974 66.4094 669.594 53.2236 649.86C40.0379 630.126 33 606.925 33 583.191H153V463.191Z" fill="#FFDCD4"/>
<path d="M346.7 505.391C344.18 505.391 341.88 504.431 341 501.951L342.32 500.791C342.94 502.971 345.02 503.751 346.7 503.751C348.2 503.751 349.46 503.171 349.46 501.711C349.46 500.171 348.28 499.791 346.5 499.371L345.24 499.091C343.46 498.691 341.44 497.891 341.44 495.371C341.44 492.931 343.56 491.611 345.9 491.611C348.32 491.611 350.24 492.671 351.06 494.671L349.6 495.831C348.96 494.011 347.6 493.271 345.86 493.271C344.38 493.271 343.28 494.011 343.28 495.251C343.28 496.591 344.26 497.091 345.8 497.471L347.26 497.831C349.16 498.291 351.24 499.031 351.24 501.671C351.24 503.991 349.3 505.391 346.7 505.391ZM356.396 505.411C354.816 505.411 353.696 504.371 353.696 502.711V496.871H352.136V495.511H353.696V494.271L355.436 492.991V495.511H358.616V496.871H355.436V502.191C355.436 503.431 356.016 503.731 356.776 503.731C357.636 503.731 358.236 503.011 358.496 502.411L359.076 504.131C358.656 504.791 357.736 505.411 356.396 505.411ZM363.363 505.391C361.463 505.391 360.283 504.251 360.283 502.211V495.511H362.003V501.791C362.003 503.031 362.503 503.931 364.143 503.931C366.023 503.931 366.703 502.611 366.703 501.011V495.511H368.423V505.191H366.703V502.551C366.343 504.071 365.303 505.391 363.363 505.391ZM374.447 505.431C372.007 505.431 370.487 503.431 370.487 500.371C370.487 497.311 372.007 495.311 374.447 495.311C376.307 495.311 377.227 496.551 377.567 498.031V491.791H379.307V505.191H377.567V502.711C377.227 504.191 376.307 505.431 374.447 505.431ZM372.247 500.371C372.247 502.851 373.507 503.971 375.027 503.971C376.887 503.971 377.567 502.671 377.567 501.071V499.691C377.567 498.091 376.887 496.791 375.027 496.791C373.507 496.791 372.247 497.911 372.247 500.371ZM386.065 505.391C383.325 505.391 381.425 503.431 381.425 500.351C381.425 497.291 383.305 495.311 385.965 495.311C388.705 495.311 390.365 497.131 390.365 499.971C390.365 500.271 390.325 500.571 390.285 500.751H383.105C383.205 502.791 384.345 503.951 386.065 503.951C388.005 503.951 388.785 502.891 389.165 502.051L390.225 503.251C389.505 504.411 388.165 505.391 386.065 505.391ZM385.965 496.771C384.405 496.771 383.365 497.691 383.145 499.491H388.805C388.625 497.711 387.585 496.771 385.965 496.771ZM394.31 505.191H392.57V495.511H394.31V498.091C394.69 496.591 395.73 495.311 397.63 495.311C399.53 495.311 400.71 496.451 400.71 498.511V505.191H398.99V498.931C398.99 497.671 398.49 496.791 396.85 496.791C394.99 496.791 394.31 498.091 394.31 499.711V505.191ZM406.259 505.411C404.679 505.411 403.559 504.371 403.559 502.711V496.871H401.999V495.511H403.559V494.271L405.299 492.991V495.511H408.479V496.871H405.299V502.191C405.299 503.431 405.879 503.731 406.639 503.731C407.499 503.731 408.099 503.011 408.359 502.411L408.939 504.131C408.519 504.791 407.599 505.411 406.259 505.411Z" fill="#FFFEFE"/>
<path d="M347.48 545.391C343.62 545.391 341 542.371 341 538.471C341 534.611 343.62 531.591 347.48 531.591C351.36 531.591 353.96 534.611 353.96 538.471C353.96 542.371 351.36 545.391 347.48 545.391ZM347.5 543.731C350.56 543.731 352.16 541.551 352.16 538.471C352.16 535.431 350.56 533.231 347.5 533.231C344.44 533.231 342.84 535.431 342.84 538.471C342.84 541.551 344.44 543.731 347.5 543.731ZM358.781 545.191H357.041V536.871H355.461V535.511H357.041V534.611C357.041 532.531 358.181 531.591 359.761 531.591C361.301 531.591 362.341 532.471 362.561 534.031C362.781 532.451 363.961 531.591 365.781 531.591C367.401 531.591 368.521 532.431 368.921 532.931L367.981 534.171C367.521 533.571 366.681 533.031 365.681 533.031C364.721 533.031 364.261 533.571 364.261 534.671V535.511H369.721V545.191H368.001V536.871H364.261V545.191H362.521V536.871H358.781V545.191ZM358.781 535.051V535.511H362.521V535.271C362.521 533.551 361.481 532.971 360.401 532.971C359.421 532.971 358.781 533.431 358.781 535.051ZM376.336 545.391C373.556 545.391 371.776 543.431 371.776 540.351C371.776 537.291 373.556 535.311 376.336 535.311C378.856 535.311 380.336 536.771 380.796 538.711L379.096 539.411C378.896 537.871 378.096 536.771 376.356 536.771C374.596 536.771 373.536 538.071 373.536 540.351C373.536 542.631 374.596 543.951 376.356 543.951C378.096 543.951 378.896 542.831 379.096 541.291L380.796 541.991C380.336 543.931 378.856 545.391 376.336 545.391ZM386.807 545.391C384.067 545.391 382.167 543.431 382.167 540.351C382.167 537.291 384.047 535.311 386.707 535.311C389.447 535.311 391.107 537.131 391.107 539.971C391.107 540.271 391.067 540.571 391.027 540.751H383.847C383.947 542.791 385.087 543.951 386.807 543.951C388.747 543.951 389.527 542.891 389.907 542.051L390.967 543.251C390.247 544.411 388.907 545.391 386.807 545.391ZM386.707 536.771C385.147 536.771 384.107 537.691 383.887 539.491H389.547C389.367 537.711 388.327 536.771 386.707 536.771ZM395.052 545.191H393.312V535.511H395.052V538.091C395.432 536.591 396.432 535.291 398.072 535.291C399.112 535.291 400.112 536.031 400.112 537.391C400.112 538.211 399.892 538.811 399.732 539.051H397.832C398.152 538.771 398.412 538.171 398.412 537.631C398.412 537.071 398.112 536.591 397.412 536.591C396.172 536.591 395.052 538.051 395.052 539.711V545.191Z" fill="#FFFEFE"/>
<path d="M202.712 583.191H201.192C201.192 577.863 203.48 575.479 205.24 573.783H199.48V572.471H206.504V574.055C204.136 576.311 202.712 578.631 202.712 583.191ZM211.578 583.351C209.658 583.351 208.202 582.279 207.658 580.919L208.778 579.735C209.162 581.127 210.122 582.023 211.626 582.023C213.098 582.023 213.834 581.143 213.834 579.751C213.834 578.007 212.65 577.351 211.482 577.351C210.314 577.351 209.514 577.863 209.45 578.583L209.434 578.759L208.058 578.615L208.394 572.471H214.49V573.783H209.77L209.482 577.895C209.818 576.951 210.666 576.199 212.074 576.199C214.202 576.199 215.306 577.687 215.306 579.751C215.306 581.927 213.914 583.351 211.578 583.351ZM218.94 577.159C217.596 577.159 216.604 576.215 216.604 574.743C216.604 573.271 217.596 572.327 218.94 572.327C220.268 572.327 221.26 573.271 221.26 574.743C221.26 576.215 220.268 577.159 218.94 577.159ZM218.604 583.191H217.148L224.7 572.471H226.156L218.604 583.191ZM218.94 576.135C219.692 576.135 220.156 575.591 220.156 574.743C220.156 573.879 219.692 573.335 218.94 573.335C218.188 573.335 217.74 573.879 217.74 574.743C217.74 575.591 218.188 576.135 218.94 576.135ZM224.411 583.191C223.068 583.191 222.076 582.247 222.076 580.775C222.076 579.303 223.068 578.359 224.411 578.359C225.74 578.359 226.732 579.303 226.732 580.775C226.732 582.247 225.74 583.191 224.411 583.191ZM224.411 582.167C225.164 582.167 225.628 581.623 225.628 580.775C225.628 579.911 225.164 579.367 224.411 579.367C223.66 579.367 223.212 579.911 223.212 580.775C223.212 581.623 223.66 582.167 224.411 582.167Z" fill="#323232"/>
<path d="M65.872 561.191H64.48V552.391H62.56V551.431C63.424 551.431 64.192 551.175 64.704 550.471H65.872V561.191ZM72.0888 561.351C69.1448 561.351 67.7688 558.935 67.7688 555.815C67.7688 552.727 69.1448 550.311 72.0888 550.311C75.0168 550.311 76.3928 552.727 76.3928 555.815C76.3928 558.935 75.0168 561.351 72.0888 561.351ZM72.1048 560.023C74.2168 560.023 74.9368 558.279 74.9368 555.815C74.9368 553.383 74.2168 551.623 72.1048 551.623C69.9768 551.623 69.2408 553.383 69.2408 555.815C69.2408 558.279 69.9768 560.023 72.1048 560.023ZM79.9551 555.159C78.6111 555.159 77.6191 554.215 77.6191 552.743C77.6191 551.271 78.6111 550.327 79.9551 550.327C81.2831 550.327 82.2751 551.271 82.2751 552.743C82.2751 554.215 81.2831 555.159 79.9551 555.159ZM79.6191 561.191H78.1631L85.7151 550.471H87.1711L79.6191 561.191ZM79.9551 554.135C80.7071 554.135 81.1711 553.591 81.1711 552.743C81.1711 551.879 80.7071 551.335 79.9551 551.335C79.2031 551.335 78.7551 551.879 78.7551 552.743C78.7551 553.591 79.2031 554.135 79.9551 554.135ZM85.4271 561.191C84.0831 561.191 83.0911 560.247 83.0911 558.775C83.0911 557.303 84.0831 556.359 85.4271 556.359C86.7551 556.359 87.7471 557.303 87.7471 558.775C87.7471 560.247 86.7551 561.191 85.4271 561.191ZM85.4271 560.167C86.1791 560.167 86.6431 559.623 86.6431 558.775C86.6431 557.911 86.1791 557.367 85.4271 557.367C84.6751 557.367 84.2271 557.911 84.2271 558.775C84.2271 559.623 84.6751 560.167 85.4271 560.167Z" fill="#323232"/>
<path d="M106.872 517.191H105.48V508.391H103.56V507.431C104.424 507.431 105.192 507.175 105.704 506.471H106.872V517.191ZM111.794 517.191H110.402V508.391H108.482V507.431C109.346 507.431 110.114 507.175 110.626 506.471H111.794V517.191ZM115.596 511.159C114.252 511.159 113.26 510.215 113.26 508.743C113.26 507.271 114.252 506.327 115.596 506.327C116.924 506.327 117.916 507.271 117.916 508.743C117.916 510.215 116.924 511.159 115.596 511.159ZM115.26 517.191H113.804L121.356 506.471H122.812L115.26 517.191ZM115.596 510.135C116.348 510.135 116.812 509.591 116.812 508.743C116.812 507.879 116.348 507.335 115.596 507.335C114.844 507.335 114.396 507.879 114.396 508.743C114.396 509.591 114.844 510.135 115.596 510.135ZM121.068 517.191C119.724 517.191 118.732 516.247 118.732 514.775C118.732 513.303 119.724 512.359 121.068 512.359C122.396 512.359 123.388 513.303 123.388 514.775C123.388 516.247 122.396 517.191 121.068 517.191ZM121.068 516.167C121.82 516.167 122.284 515.623 122.284 514.775C122.284 513.911 121.82 513.367 121.068 513.367C120.316 513.367 119.868 513.911 119.868 514.775C119.868 515.623 120.316 516.167 121.068 516.167Z" fill="#323232"/>
<path d="M149.568 445.191H148.176V442.631H142.784V441.543L148.176 434.471H149.568V441.399H151.488V442.631H149.568V445.191ZM144.368 441.399H148.176V436.487L144.368 441.399ZM154.643 439.159C153.299 439.159 152.307 438.215 152.307 436.743C152.307 435.271 153.299 434.327 154.643 434.327C155.971 434.327 156.963 435.271 156.963 436.743C156.963 438.215 155.971 439.159 154.643 439.159ZM154.307 445.191H152.851L160.403 434.471H161.859L154.307 445.191ZM154.643 438.135C155.395 438.135 155.859 437.591 155.859 436.743C155.859 435.879 155.395 435.335 154.643 435.335C153.891 435.335 153.443 435.879 153.443 436.743C153.443 437.591 153.891 438.135 154.643 438.135ZM160.115 445.191C158.771 445.191 157.779 444.247 157.779 442.775C157.779 441.303 158.771 440.359 160.115 440.359C161.443 440.359 162.435 441.303 162.435 442.775C162.435 444.247 161.443 445.191 160.115 445.191ZM160.115 444.167C160.867 444.167 161.331 443.623 161.331 442.775C161.331 441.911 160.867 441.367 160.115 441.367C159.363 441.367 158.915 441.911 158.915 442.775C158.915 443.623 159.363 444.167 160.115 444.167Z" fill="#FFFEFE"/>
<path d="M340.26 586.191H338.52V572.791H347.5V574.331H340.26V579.131H346.2V580.671H340.26V586.191ZM350.49 586.191H348.75V576.511H350.49V579.091C350.87 577.591 351.87 576.291 353.51 576.291C354.55 576.291 355.55 577.031 355.55 578.391C355.55 579.211 355.33 579.811 355.17 580.051H353.27C353.59 579.771 353.85 579.171 353.85 578.631C353.85 578.071 353.55 577.591 352.85 577.591C351.61 577.591 350.49 579.051 350.49 580.711V586.191ZM361.053 586.391C358.313 586.391 356.413 584.431 356.413 581.351C356.413 578.291 358.293 576.311 360.953 576.311C363.693 576.311 365.353 578.131 365.353 580.971C365.353 581.271 365.313 581.571 365.273 581.751H358.093C358.193 583.791 359.333 584.951 361.053 584.951C362.993 584.951 363.773 583.891 364.153 583.051L365.213 584.251C364.493 585.411 363.153 586.391 361.053 586.391ZM360.953 577.771C359.393 577.771 358.353 578.691 358.133 580.491H363.793C363.613 578.711 362.573 577.771 360.953 577.771ZM371.874 586.391C369.134 586.391 367.234 584.431 367.234 581.351C367.234 578.291 369.114 576.311 371.774 576.311C374.514 576.311 376.174 578.131 376.174 580.971C376.174 581.271 376.134 581.571 376.094 581.751H368.914C369.014 583.791 370.154 584.951 371.874 584.951C373.814 584.951 374.594 583.891 374.974 583.051L376.034 584.251C375.314 585.411 373.974 586.391 371.874 586.391ZM371.774 577.771C370.214 577.771 369.174 578.691 368.954 580.491H374.614C374.434 578.711 373.394 577.771 371.774 577.771ZM380.158 586.191H378.418V572.791H380.158V586.191ZM384.773 586.391C383.133 586.391 382.213 585.451 382.213 584.171C382.213 582.871 383.193 582.051 384.573 581.431L388.073 579.871C388.013 578.731 387.473 577.891 385.953 577.891C384.573 577.891 383.653 578.691 383.153 579.751L381.973 578.531C382.553 577.531 383.993 576.311 386.153 576.311C388.533 576.311 389.813 577.731 389.813 580.031V584.011C389.813 584.471 389.993 584.611 390.353 584.611H390.973V586.191H389.853C388.853 586.191 388.133 585.711 388.133 584.351V583.671C387.813 584.951 386.773 586.391 384.773 586.391ZM383.973 583.891C383.973 584.551 384.433 584.951 385.333 584.951C386.973 584.951 388.133 583.871 388.133 582.471V581.131L385.313 582.451C384.393 582.891 383.973 583.291 383.973 583.891ZM394.728 586.191H392.988V576.511H394.728V579.091C395.108 577.591 396.148 576.311 398.048 576.311C399.948 576.311 401.128 577.451 401.128 579.511V586.191H399.408V579.931C399.408 578.671 398.908 577.791 397.268 577.791C395.408 577.791 394.728 579.091 394.728 580.711V586.191ZM407.692 586.391C404.912 586.391 403.132 584.431 403.132 581.351C403.132 578.291 404.912 576.311 407.692 576.311C410.212 576.311 411.692 577.771 412.152 579.711L410.452 580.411C410.252 578.871 409.452 577.771 407.712 577.771C405.952 577.771 404.892 579.071 404.892 581.351C404.892 583.631 405.952 584.951 407.712 584.951C409.452 584.951 410.252 583.831 410.452 582.291L412.152 582.991C411.692 584.931 410.212 586.391 407.692 586.391ZM418.163 586.391C415.423 586.391 413.523 584.431 413.523 581.351C413.523 578.291 415.403 576.311 418.063 576.311C420.803 576.311 422.463 578.131 422.463 580.971C422.463 581.271 422.423 581.571 422.383 581.751H415.203C415.303 583.791 416.443 584.951 418.163 584.951C420.103 584.951 420.883 583.891 421.263 583.051L422.323 584.251C421.603 585.411 420.263 586.391 418.163 586.391ZM418.063 577.771C416.503 577.771 415.463 578.691 415.243 580.491H420.903C420.723 578.711 419.683 577.771 418.063 577.771ZM426.408 586.191H424.668V576.511H426.408V579.091C426.788 577.591 427.788 576.291 429.428 576.291C430.468 576.291 431.468 577.031 431.468 578.391C431.468 579.211 431.248 579.811 431.088 580.051H429.188C429.508 579.771 429.768 579.171 429.768 578.631C429.768 578.071 429.468 577.591 428.768 577.591C427.528 577.591 426.408 579.051 426.408 580.711V586.191Z" fill="#FFFEFE"/>
<path d="M344.48 628.391C340.62 628.391 338 625.371 338 621.471C338 617.611 340.62 614.591 344.48 614.591C348.36 614.591 350.96 617.611 350.96 621.471C350.96 625.371 348.36 628.391 344.48 628.391ZM344.5 626.731C347.56 626.731 349.16 624.551 349.16 621.471C349.16 618.431 347.56 616.231 344.5 616.231C341.44 616.231 339.84 618.431 339.84 621.471C339.84 624.551 341.44 626.731 344.5 626.731ZM356.521 628.411C354.941 628.411 353.821 627.371 353.821 625.711V619.871H352.261V618.511H353.821V617.271L355.561 615.991V618.511H358.741V619.871H355.561V625.191C355.561 626.431 356.141 626.731 356.901 626.731C357.761 626.731 358.361 626.011 358.621 625.411L359.201 627.131C358.781 627.791 357.861 628.411 356.521 628.411ZM362.658 628.191H360.918V614.791H362.658V621.091C363.038 619.591 364.078 618.311 365.978 618.311C367.878 618.311 369.058 619.451 369.058 621.511V628.191H367.338V621.931C367.338 620.671 366.838 619.791 365.198 619.791C363.338 619.791 362.658 621.091 362.658 622.711V628.191ZM375.721 628.391C372.981 628.391 371.081 626.431 371.081 623.351C371.081 620.291 372.961 618.311 375.621 618.311C378.361 618.311 380.021 620.131 380.021 622.971C380.021 623.271 379.981 623.571 379.941 623.751H372.761C372.861 625.791 374.001 626.951 375.721 626.951C377.661 626.951 378.441 625.891 378.821 625.051L379.881 626.251C379.161 627.411 377.821 628.391 375.721 628.391ZM375.621 619.771C374.061 619.771 373.021 620.691 372.801 622.491H378.461C378.281 620.711 377.241 619.771 375.621 619.771ZM383.966 628.191H382.226V618.511H383.966V621.091C384.346 619.591 385.346 618.291 386.986 618.291C388.026 618.291 389.026 619.031 389.026 620.391C389.026 621.211 388.806 621.811 388.646 622.051H386.746C387.066 621.771 387.326 621.171 387.326 620.631C387.326 620.071 387.026 619.591 386.326 619.591C385.086 619.591 383.966 621.051 383.966 622.711V628.191ZM394.17 628.391C392.15 628.391 390.31 627.511 389.65 625.711L390.91 624.731C391.25 625.831 392.31 626.931 394.23 626.931C395.37 626.931 396.13 626.491 396.13 625.631C396.13 624.751 395.25 624.471 394.11 624.211L392.83 623.911C391.45 623.591 389.95 622.931 389.95 621.151C389.95 619.391 391.31 618.311 393.41 618.311C395.45 618.311 396.87 619.391 397.41 620.671L396.09 621.651C395.61 620.511 394.69 619.791 393.31 619.791C392.31 619.791 391.59 620.231 391.59 621.051C391.59 621.911 392.23 622.211 393.55 622.531L394.79 622.851C396.97 623.371 397.69 624.271 397.69 625.611C397.69 627.531 396.05 628.391 394.17 628.391Z" fill="#FFFEFE"/>
<path d="M139 471.191V452.191H167" stroke="#C4C4C4"/>
<circle cx="319" cy="493.191" r="9" fill="#FFDCD4"/>
<circle cx="319" cy="535.191" r="9" fill="#FFEAE0"/>
<circle cx="319" cy="577.191" r="9" fill="#FFC3C3"/>
<circle cx="319" cy="619.191" r="9" fill="#EEA2A2"/>
</svg>
