<svg width="1140" height="574" viewBox="0 0 1140 574" fill="none" xmlns="http://www.w3.org/2000/svg">
<rect x="0.527344" y="148.776" width="180" height="47" rx="10" fill="#FFDCD5"/>
<path d="M48.2426 177.776H45.9826V164.376H48.2426V169.936H54.6826V164.376H56.9426V177.776H54.6826V171.936H48.2426V177.776ZM63.4778 177.976C60.6778 177.976 58.7578 175.936 58.7578 172.916C58.7578 169.876 60.6778 167.836 63.4778 167.836C66.3178 167.836 68.2378 169.876 68.2378 172.916C68.2378 175.936 66.3178 177.976 63.4778 177.976ZM63.4978 176.116C64.9578 176.116 65.9578 175.156 65.9578 172.916C65.9578 170.656 64.9578 169.696 63.4978 169.696C62.0578 169.696 61.0578 170.656 61.0578 172.916C61.0578 175.156 62.0578 176.116 63.4978 176.116ZM72.399 177.776H70.159V168.036H72.399V170.696C72.759 169.156 73.719 167.836 75.559 167.836C77.339 167.836 78.299 168.876 78.399 170.716C78.739 169.176 79.699 167.836 81.559 167.836C83.419 167.836 84.399 168.976 84.399 170.996V177.776H82.159V171.676C82.159 170.336 81.599 169.656 80.279 169.656C78.959 169.656 78.399 170.716 78.399 172.316V177.776H76.159V171.676C76.159 170.336 75.599 169.656 74.279 169.656C72.959 169.656 72.399 170.716 72.399 172.316V177.776ZM90.9829 177.976C88.0829 177.976 86.1829 175.956 86.1829 172.916C86.1829 169.856 88.0829 167.836 90.8229 167.836C93.7429 167.836 95.3629 169.776 95.3629 172.476C95.3629 172.836 95.3229 173.256 95.2829 173.456H88.3229C88.4429 175.196 89.4629 176.136 91.0029 176.136C92.7029 176.136 93.4629 175.256 93.8229 174.436L95.2029 175.876C94.4629 176.996 93.1429 177.976 90.9829 177.976ZM90.8229 169.636C89.4429 169.636 88.5229 170.436 88.3429 172.016H93.3429C93.1829 170.476 92.3029 169.636 90.8229 169.636ZM99.606 181.496H97.366V168.036H99.606V170.636C99.926 169.116 100.786 167.816 102.726 167.816C105.086 167.816 106.606 169.756 106.606 172.896C106.606 176.036 105.086 177.976 102.686 177.976C100.746 177.976 99.926 176.676 99.606 175.176V181.496ZM99.606 173.496C99.606 175.096 100.266 176.156 101.846 176.156C103.246 176.156 104.306 175.096 104.306 172.896C104.306 170.696 103.246 169.636 101.846 169.636C100.266 169.636 99.606 170.696 99.606 172.296V173.496ZM110.52 177.976C108.92 177.976 107.96 177.076 107.96 175.676C107.96 174.296 108.92 173.456 110.5 172.836L113.76 171.456C113.68 170.476 113.24 169.816 111.9 169.816C110.6 169.816 109.58 170.576 109.02 171.596L107.68 169.996C108.44 168.956 109.96 167.836 112.12 167.836C114.54 167.836 115.9 169.216 115.9 171.616V175.276C115.9 175.716 116.06 175.856 116.42 175.856H117.04V177.776H115.66C114.62 177.776 113.8 177.296 113.8 175.896V175.176C113.5 176.456 112.56 177.976 110.52 177.976ZM110.12 175.336C110.12 175.896 110.5 176.236 111.32 176.236C112.8 176.236 113.8 175.356 113.8 174.036V172.996L111.3 174.116C110.46 174.496 110.12 174.836 110.12 175.336ZM122.636 174.856C121.876 174.856 121.176 174.716 120.596 174.436C120.416 174.736 120.196 175.116 120.196 175.456C120.196 175.956 120.456 176.216 121.356 176.216H124.496C126.436 176.216 127.496 176.996 127.496 178.456C127.496 180.296 125.696 181.696 122.156 181.696C119.436 181.696 117.856 180.836 117.856 179.616C117.856 178.696 118.736 178.196 119.676 177.976C118.976 177.776 118.516 177.316 118.516 176.576C118.516 175.696 119.276 174.836 120.176 174.216C119.196 173.616 118.596 172.596 118.596 171.356C118.596 169.296 120.236 167.836 122.636 167.836C123.256 167.836 123.816 167.936 124.316 168.116L124.796 165.776L126.956 166.516L125.136 168.516C126.096 169.136 126.656 170.136 126.656 171.356C126.656 173.416 125.036 174.856 122.636 174.856ZM122.636 173.256C123.696 173.256 124.536 172.576 124.536 171.356C124.536 170.136 123.696 169.456 122.636 169.456C121.576 169.456 120.736 170.136 120.736 171.356C120.736 172.576 121.576 173.256 122.636 173.256ZM122.256 180.016C124.356 180.016 125.476 179.556 125.476 178.736C125.476 178.216 125.056 177.996 124.196 177.996H120.136C119.916 178.216 119.676 178.536 119.676 178.876C119.676 179.596 120.476 180.016 122.256 180.016ZM133.034 177.976C130.134 177.976 128.234 175.956 128.234 172.916C128.234 169.856 130.134 167.836 132.874 167.836C135.794 167.836 137.414 169.776 137.414 172.476C137.414 172.836 137.374 173.256 137.334 173.456H130.374C130.494 175.196 131.514 176.136 133.054 176.136C134.754 176.136 135.514 175.256 135.874 174.436L137.254 175.876C136.514 176.996 135.194 177.976 133.034 177.976ZM132.874 169.636C131.494 169.636 130.574 170.436 130.394 172.016H135.394C135.234 170.476 134.354 169.636 132.874 169.636Z" fill="black"/>
<rect x="0.526855" y="247.737" width="180" height="47" rx="10" fill="#FFDCD5"/>
<path d="M39.3163 276.737H37.0563V263.337H42.5363C45.3563 263.337 47.5563 264.777 47.5563 267.977C47.5563 271.037 45.3763 272.497 42.5363 272.497H39.3163V276.737ZM42.3163 265.337H39.3163V270.497H42.3163C43.8563 270.497 45.2163 269.917 45.2163 267.977C45.2163 265.897 43.8563 265.337 42.3163 265.337ZM51.1876 276.737H48.9476V266.997H51.1876V269.757C51.5476 268.197 52.5276 266.797 54.2676 266.797C55.4876 266.797 56.3876 267.597 56.3876 269.037C56.3876 269.977 56.1276 270.677 55.9476 270.977H53.6476C53.9676 270.657 54.2676 270.017 54.2676 269.457C54.2676 268.917 54.0076 268.477 53.3476 268.477C52.2276 268.477 51.1876 269.757 51.1876 271.377V276.737ZM61.739 276.937C58.939 276.937 57.019 274.897 57.019 271.877C57.019 268.837 58.939 266.797 61.739 266.797C64.579 266.797 66.499 268.837 66.499 271.877C66.499 274.897 64.579 276.937 61.739 276.937ZM61.759 275.077C63.219 275.077 64.219 274.117 64.219 271.877C64.219 269.617 63.219 268.657 61.759 268.657C60.319 268.657 59.319 269.617 59.319 271.877C59.319 274.117 60.319 275.077 61.759 275.077ZM71.9955 276.957C69.5955 276.957 68.0755 275.017 68.0755 271.877C68.0755 268.737 69.5955 266.797 71.9555 266.797C73.8955 266.797 74.7555 268.097 75.0755 269.617V263.337H77.3155V276.737H75.0755V274.157C74.7555 275.657 73.9355 276.957 71.9955 276.957ZM70.3755 271.877C70.3755 274.077 71.4355 275.137 72.8555 275.137C74.4155 275.137 75.0755 274.097 75.0755 272.497V271.277C75.0755 269.677 74.4155 268.617 72.8355 268.617C71.4355 268.617 70.3755 269.697 70.3755 271.877ZM82.6502 276.937C80.7702 276.937 79.6102 275.797 79.6102 273.777V266.997H81.8502V273.097C81.8502 274.297 82.2502 275.117 83.7502 275.117C85.3902 275.117 85.9502 274.057 85.9502 272.457V266.997H88.2102V276.737H85.9502V274.077C85.5902 275.617 84.5902 276.937 82.6502 276.937ZM94.7496 276.937C91.8496 276.937 90.0296 274.897 90.0296 271.877C90.0296 268.837 91.8496 266.797 94.7496 266.797C97.1896 266.797 98.7296 268.177 99.2496 270.017L97.2296 271.017C97.0096 269.617 96.2896 268.677 94.7896 268.677C93.2496 268.677 92.3096 269.817 92.3096 271.877C92.3096 273.917 93.2496 275.057 94.7896 275.057C96.3096 275.057 97.0096 274.117 97.2296 272.717L99.2496 273.717C98.7296 275.557 97.1896 276.937 94.7496 276.937ZM104.46 276.957C102.62 276.957 101.56 275.797 101.56 274.077V268.737H100.04V266.997H101.56V265.817L103.8 264.397V266.997H106.78V268.737H103.8V273.537C103.8 274.597 104.3 274.857 104.96 274.857C105.72 274.857 106.28 274.237 106.56 273.677L107.26 275.677C106.84 276.297 105.88 276.957 104.46 276.957ZM112.401 276.937C110.321 276.937 108.421 276.097 107.681 274.557L109.001 273.157C109.541 274.137 110.741 275.137 112.481 275.137C113.441 275.137 114.061 274.797 114.061 274.097C114.061 273.377 113.321 273.137 112.241 272.877L110.941 272.557C109.401 272.197 107.981 271.517 107.981 269.737C107.981 267.917 109.441 266.817 111.681 266.817C113.761 266.817 115.221 267.817 115.821 268.917L114.501 270.317C113.821 269.237 112.781 268.597 111.521 268.597C110.661 268.597 110.081 268.957 110.081 269.617C110.081 270.317 110.601 270.577 111.921 270.917L113.101 271.217C115.281 271.777 116.081 272.657 116.081 274.057C116.081 275.977 114.461 276.937 112.401 276.937ZM124.254 276.737H122.014V263.337H124.254V276.737ZM128.863 265.617H126.623V263.337H128.863V265.617ZM128.863 276.737H126.623V266.997H128.863V276.737ZM135.253 276.937C133.173 276.937 131.273 276.097 130.533 274.557L131.853 273.157C132.393 274.137 133.593 275.137 135.333 275.137C136.293 275.137 136.913 274.797 136.913 274.097C136.913 273.377 136.173 273.137 135.093 272.877L133.793 272.557C132.253 272.197 130.833 271.517 130.833 269.737C130.833 267.917 132.293 266.817 134.533 266.817C136.613 266.817 138.073 267.817 138.673 268.917L137.353 270.317C136.673 269.237 135.633 268.597 134.373 268.597C133.513 268.597 132.933 268.957 132.933 269.617C132.933 270.317 133.453 270.577 134.773 270.917L135.953 271.217C138.133 271.777 138.933 272.657 138.933 274.057C138.933 275.977 137.313 276.937 135.253 276.937ZM144.03 276.957C142.19 276.957 141.13 275.797 141.13 274.077V268.737H139.61V266.997H141.13V265.817L143.37 264.397V266.997H146.35V268.737H143.37V273.537C143.37 274.597 143.87 274.857 144.53 274.857C145.29 274.857 145.85 274.237 146.13 273.677L146.83 275.677C146.41 276.297 145.45 276.957 144.03 276.957Z" fill="black"/>
<rect x="0.527344" y="501.437" width="180" height="47" rx="10" fill="#FFDCD5"/>
<path d="M27.2094 530.437H24.9494V517.037H30.4294C33.2494 517.037 35.4494 518.477 35.4494 521.677C35.4494 524.737 33.2694 526.197 30.4294 526.197H27.2094V530.437ZM30.2094 519.037H27.2094V524.197H30.2094C31.7494 524.197 33.1094 523.617 33.1094 521.677C33.1094 519.597 31.7494 519.037 30.2094 519.037ZM39.0806 530.437H36.8406V520.697H39.0806V523.457C39.4406 521.897 40.4206 520.497 42.1606 520.497C43.3806 520.497 44.2806 521.297 44.2806 522.737C44.2806 523.677 44.0206 524.377 43.8406 524.677H41.5406C41.8606 524.357 42.1606 523.717 42.1606 523.157C42.1606 522.617 41.9006 522.177 41.2406 522.177C40.1206 522.177 39.0806 523.457 39.0806 525.077V530.437ZM49.6321 530.637C46.8321 530.637 44.9121 528.597 44.9121 525.577C44.9121 522.537 46.8321 520.497 49.6321 520.497C52.4721 520.497 54.3921 522.537 54.3921 525.577C54.3921 528.597 52.4721 530.637 49.6321 530.637ZM49.6521 528.777C51.1121 528.777 52.1121 527.817 52.1121 525.577C52.1121 523.317 51.1121 522.357 49.6521 522.357C48.2121 522.357 47.2121 523.317 47.2121 525.577C47.2121 527.817 48.2121 528.777 49.6521 528.777ZM59.8886 530.657C57.4886 530.657 55.9686 528.717 55.9686 525.577C55.9686 522.437 57.4886 520.497 59.8486 520.497C61.7886 520.497 62.6486 521.797 62.9686 523.317V517.037H65.2086V530.437H62.9686V527.857C62.6486 529.357 61.8286 530.657 59.8886 530.657ZM58.2686 525.577C58.2686 527.777 59.3286 528.837 60.7486 528.837C62.3086 528.837 62.9686 527.797 62.9686 526.197V524.977C62.9686 523.377 62.3086 522.317 60.7286 522.317C59.3286 522.317 58.2686 523.397 58.2686 525.577ZM70.5433 530.637C68.6633 530.637 67.5033 529.497 67.5033 527.477V520.697H69.7433V526.797C69.7433 527.997 70.1433 528.817 71.6433 528.817C73.2833 528.817 73.8433 527.757 73.8433 526.157V520.697H76.1033V530.437H73.8433V527.777C73.4833 529.317 72.4833 530.637 70.5433 530.637ZM82.6427 530.637C79.7427 530.637 77.9227 528.597 77.9227 525.577C77.9227 522.537 79.7427 520.497 82.6427 520.497C85.0827 520.497 86.6227 521.877 87.1427 523.717L85.1227 524.717C84.9027 523.317 84.1827 522.377 82.6827 522.377C81.1427 522.377 80.2027 523.517 80.2027 525.577C80.2027 527.617 81.1427 528.757 82.6827 528.757C84.2027 528.757 84.9027 527.817 85.1227 526.417L87.1427 527.417C86.6227 529.257 85.0827 530.637 82.6427 530.637ZM92.3528 530.657C90.5128 530.657 89.4528 529.497 89.4528 527.777V522.437H87.9328V520.697H89.4528V519.517L91.6928 518.097V520.697H94.6728V522.437H91.6928V527.237C91.6928 528.297 92.1928 528.557 92.8528 528.557C93.6128 528.557 94.1728 527.937 94.4528 527.377L95.1528 529.377C94.7328 529.997 93.7728 530.657 92.3528 530.657ZM105.908 530.437H100.848V517.037H105.908C110.048 517.037 112.288 519.597 112.288 523.737C112.288 527.877 110.068 530.437 105.908 530.437ZM105.628 519.037H103.108V528.437H105.648C108.408 528.437 109.928 527.097 109.928 523.737C109.928 520.377 108.408 519.037 105.628 519.037ZM118.739 530.637C115.839 530.637 113.939 528.617 113.939 525.577C113.939 522.517 115.839 520.497 118.579 520.497C121.499 520.497 123.119 522.437 123.119 525.137C123.119 525.497 123.079 525.917 123.039 526.117H116.079C116.199 527.857 117.219 528.797 118.759 528.797C120.459 528.797 121.219 527.917 121.579 527.097L122.959 528.537C122.219 529.657 120.899 530.637 118.739 530.637ZM118.579 522.297C117.199 522.297 116.279 523.097 116.099 524.677H121.099C120.939 523.137 120.059 522.297 118.579 522.297ZM128.427 530.657C126.587 530.657 125.527 529.497 125.527 527.777V522.437H124.007V520.697H125.527V519.517L127.767 518.097V520.697H130.747V522.437H127.767V527.237C127.767 528.297 128.267 528.557 128.927 528.557C129.687 528.557 130.247 527.937 130.527 527.377L131.227 529.377C130.807 529.997 129.847 530.657 128.427 530.657ZM134.526 530.637C132.926 530.637 131.966 529.737 131.966 528.337C131.966 526.957 132.926 526.117 134.506 525.497L137.766 524.117C137.686 523.137 137.246 522.477 135.906 522.477C134.606 522.477 133.586 523.237 133.026 524.257L131.686 522.657C132.446 521.617 133.966 520.497 136.126 520.497C138.546 520.497 139.906 521.877 139.906 524.277V527.937C139.906 528.377 140.066 528.517 140.426 528.517H141.046V530.437H139.666C138.626 530.437 137.806 529.957 137.806 528.557V527.837C137.506 529.117 136.566 530.637 134.526 530.637ZM134.126 527.997C134.126 528.557 134.506 528.897 135.326 528.897C136.806 528.897 137.806 528.017 137.806 526.697V525.657L135.306 526.777C134.466 527.157 134.126 527.497 134.126 527.997ZM144.999 519.317H142.759V517.037H144.999V519.317ZM144.999 530.437H142.759V520.697H144.999V530.437ZM149.608 530.437H147.368V517.037H149.608V530.437ZM155.997 530.637C153.917 530.637 152.017 529.797 151.277 528.257L152.597 526.857C153.137 527.837 154.337 528.837 156.077 528.837C157.037 528.837 157.657 528.497 157.657 527.797C157.657 527.077 156.917 526.837 155.837 526.577L154.537 526.257C152.997 525.897 151.577 525.217 151.577 523.437C151.577 521.617 153.037 520.517 155.277 520.517C157.357 520.517 158.817 521.517 159.417 522.617L158.097 524.017C157.417 522.937 156.377 522.297 155.117 522.297C154.257 522.297 153.677 522.657 153.677 523.317C153.677 524.017 154.197 524.277 155.517 524.617L156.697 524.917C158.877 525.477 159.677 526.357 159.677 527.757C159.677 529.677 158.057 530.637 155.997 530.637Z" fill="black"/>
<rect x="200.257" y="374.815" width="180" height="47" rx="10" fill="#FFDCD5"/>
<rect x="720.514" y="240.112" width="180" height="56.5283" rx="10" fill="#FFDCD5"/>
<rect x="959.652" y="237.442" width="180" height="56.5283" rx="10" fill="#FFDCD5"/>
<path d="M277.069 403.975C272.949 403.975 270.629 400.955 270.629 397.095C270.629 393.235 272.949 390.215 277.069 390.215C280.029 390.215 282.069 391.735 283.009 394.355L281.049 395.795C280.629 393.775 279.389 392.355 277.089 392.355C274.329 392.355 273.029 394.315 273.029 397.095C273.029 399.855 274.329 401.835 277.089 401.835C279.389 401.835 280.629 400.395 281.049 398.395L283.009 399.835C282.069 402.435 280.029 403.975 277.069 403.975ZM286.954 404.015C285.354 404.015 284.394 403.115 284.394 401.715C284.394 400.335 285.354 399.495 286.934 398.875L290.194 397.495C290.114 396.515 289.674 395.855 288.334 395.855C287.034 395.855 286.014 396.615 285.454 397.635L284.114 396.035C284.874 394.995 286.394 393.875 288.554 393.875C290.974 393.875 292.334 395.255 292.334 397.655V401.315C292.334 401.755 292.494 401.895 292.854 401.895H293.474V403.815H292.094C291.054 403.815 290.234 403.335 290.234 401.935V401.215C289.934 402.495 288.994 404.015 286.954 404.015ZM286.554 401.375C286.554 401.935 286.934 402.275 287.754 402.275C289.234 402.275 290.234 401.395 290.234 400.075V399.035L287.734 400.155C286.894 400.535 286.554 400.875 286.554 401.375ZM297.427 403.815H295.187V394.075H297.427V396.835C297.787 395.275 298.767 393.875 300.507 393.875C301.727 393.875 302.627 394.675 302.627 396.115C302.627 397.055 302.367 397.755 302.187 398.055H299.887C300.207 397.735 300.507 397.095 300.507 396.535C300.507 395.995 300.247 395.555 299.587 395.555C298.467 395.555 297.427 396.835 297.427 398.455V403.815ZM307.633 404.035C305.793 404.035 304.733 402.875 304.733 401.155V395.815H303.213V394.075H304.733V392.895L306.973 391.475V394.075H309.953V395.815H306.973V400.615C306.973 401.675 307.473 401.935 308.133 401.935C308.893 401.935 309.453 401.315 309.733 400.755L310.433 402.755C310.013 403.375 309.053 404.035 307.633 404.035Z" fill="black"/>
<path d="M783.318 261.376H777.338V247.976H783.418C786.138 247.976 787.418 249.416 787.418 251.396C787.418 253.176 786.018 254.236 783.858 254.416C786.898 254.656 787.978 256.016 787.978 257.816C787.978 260.196 786.198 261.376 783.318 261.376ZM782.738 249.976H779.598V253.556H782.818C784.158 253.556 785.078 253.136 785.078 251.776C785.078 250.416 784.138 249.976 782.738 249.976ZM783.038 255.456H779.598V259.376H782.978C784.818 259.376 785.658 258.776 785.658 257.416C785.658 256.056 784.598 255.456 783.038 255.456ZM794.091 261.576C791.291 261.576 789.371 259.536 789.371 256.516C789.371 253.476 791.291 251.436 794.091 251.436C796.931 251.436 798.851 253.476 798.851 256.516C798.851 259.536 796.931 261.576 794.091 261.576ZM794.111 259.716C795.571 259.716 796.571 258.756 796.571 256.516C796.571 254.256 795.571 253.296 794.111 253.296C792.671 253.296 791.671 254.256 791.671 256.516C791.671 258.756 792.671 259.716 794.111 259.716ZM805.067 261.576C802.267 261.576 800.347 259.536 800.347 256.516C800.347 253.476 802.267 251.436 805.067 251.436C807.907 251.436 809.827 253.476 809.827 256.516C809.827 259.536 807.907 261.576 805.067 261.576ZM805.087 259.716C806.547 259.716 807.547 258.756 807.547 256.516C807.547 254.256 806.547 253.296 805.087 253.296C803.647 253.296 802.647 254.256 802.647 256.516C802.647 258.756 803.647 259.716 805.087 259.716ZM814.027 261.376H811.787V247.976H814.027V254.116L813.947 255.996L815.547 254.236L818.207 251.636H820.947L817.007 255.476L820.947 261.376H818.327L815.487 256.816L814.027 258.256V261.376ZM824.594 250.256H822.354V247.976H824.594V250.256ZM824.594 261.376H822.354V251.636H824.594V261.376ZM829.203 261.376H826.963V251.636H829.203V254.296C829.563 252.756 830.563 251.436 832.503 251.436C834.403 251.436 835.563 252.576 835.563 254.596V261.376H833.303V255.276C833.303 254.076 832.903 253.256 831.403 253.256C829.763 253.256 829.203 254.316 829.203 255.916V261.376ZM841.745 258.456C840.985 258.456 840.285 258.316 839.705 258.036C839.525 258.336 839.305 258.716 839.305 259.056C839.305 259.556 839.565 259.816 840.465 259.816H843.605C845.545 259.816 846.605 260.596 846.605 262.056C846.605 263.896 844.805 265.296 841.265 265.296C838.545 265.296 836.965 264.436 836.965 263.216C836.965 262.296 837.845 261.796 838.785 261.576C838.085 261.376 837.625 260.916 837.625 260.176C837.625 259.296 838.385 258.436 839.285 257.816C838.305 257.216 837.705 256.196 837.705 254.956C837.705 252.896 839.345 251.436 841.745 251.436C842.365 251.436 842.925 251.536 843.425 251.716L843.905 249.376L846.065 250.116L844.245 252.116C845.205 252.736 845.765 253.736 845.765 254.956C845.765 257.016 844.145 258.456 841.745 258.456ZM841.745 256.856C842.805 256.856 843.645 256.176 843.645 254.956C843.645 253.736 842.805 253.056 841.745 253.056C840.685 253.056 839.845 253.736 839.845 254.956C839.845 256.176 840.685 256.856 841.745 256.856ZM841.365 263.616C843.465 263.616 844.585 263.156 844.585 262.336C844.585 261.816 844.165 261.596 843.305 261.596H839.245C839.025 261.816 838.785 262.136 838.785 262.476C838.785 263.196 839.585 263.616 841.365 263.616ZM760.783 286.576C757.883 286.576 756.063 284.536 756.063 281.516C756.063 278.476 757.883 276.436 760.783 276.436C763.223 276.436 764.763 277.816 765.283 279.656L763.263 280.656C763.043 279.256 762.323 278.316 760.823 278.316C759.283 278.316 758.343 279.456 758.343 281.516C758.343 283.556 759.283 284.696 760.823 284.696C762.343 284.696 763.043 283.756 763.263 282.356L765.283 283.356C764.763 285.196 763.223 286.576 760.783 286.576ZM770.936 286.576C768.136 286.576 766.216 284.536 766.216 281.516C766.216 278.476 768.136 276.436 770.936 276.436C773.776 276.436 775.696 278.476 775.696 281.516C775.696 284.536 773.776 286.576 770.936 286.576ZM770.956 284.716C772.416 284.716 773.416 283.756 773.416 281.516C773.416 279.256 772.416 278.296 770.956 278.296C769.516 278.296 768.516 279.256 768.516 281.516C768.516 283.756 769.516 284.716 770.956 284.716ZM779.858 286.376H777.618V276.636H779.858V279.296C780.218 277.756 781.218 276.436 783.158 276.436C785.058 276.436 786.218 277.576 786.218 279.596V286.376H783.958V280.276C783.958 279.076 783.558 278.256 782.058 278.256C780.418 278.256 779.858 279.316 779.858 280.916V286.376ZM791.242 286.376H789.002V278.376H787.502V276.636H789.002V275.956C789.002 273.896 790.382 272.776 792.542 272.776C794.122 272.776 795.342 273.496 795.882 273.976L794.902 275.556C794.442 275.036 793.582 274.556 792.582 274.556C791.622 274.556 791.242 275.056 791.242 275.996V276.636H796.822V286.376H794.562V278.376H791.242V286.376ZM801.42 286.376H799.18V276.636H801.42V279.396C801.78 277.836 802.76 276.436 804.5 276.436C805.72 276.436 806.62 277.236 806.62 278.676C806.62 279.616 806.36 280.316 806.18 280.616H803.88C804.2 280.296 804.5 279.656 804.5 279.096C804.5 278.556 804.24 278.116 803.58 278.116C802.46 278.116 801.42 279.396 801.42 281.016V286.376ZM810.19 286.376H807.95V276.636H810.19V279.296C810.55 277.756 811.51 276.436 813.35 276.436C815.13 276.436 816.09 277.476 816.19 279.316C816.53 277.776 817.49 276.436 819.35 276.436C821.21 276.436 822.19 277.576 822.19 279.596V286.376H819.95V280.276C819.95 278.936 819.39 278.256 818.07 278.256C816.75 278.256 816.19 279.316 816.19 280.916V286.376H813.95V280.276C813.95 278.936 813.39 278.256 812.07 278.256C810.75 278.256 810.19 279.316 810.19 280.916V286.376ZM826.572 286.576C824.972 286.576 824.012 285.676 824.012 284.276C824.012 282.896 824.972 282.056 826.552 281.436L829.812 280.056C829.732 279.076 829.292 278.416 827.952 278.416C826.652 278.416 825.632 279.176 825.072 280.196L823.732 278.596C824.492 277.556 826.012 276.436 828.172 276.436C830.592 276.436 831.952 277.816 831.952 280.216V283.876C831.952 284.316 832.112 284.456 832.472 284.456H833.092V286.376H831.712C830.672 286.376 829.852 285.896 829.852 284.496V283.776C829.552 285.056 828.612 286.576 826.572 286.576ZM826.172 283.936C826.172 284.496 826.552 284.836 827.372 284.836C828.852 284.836 829.852 283.956 829.852 282.636V281.596L827.352 282.716C826.512 283.096 826.172 283.436 826.172 283.936ZM838.071 286.596C836.231 286.596 835.171 285.436 835.171 283.716V278.376H833.651V276.636H835.171V275.456L837.411 274.036V276.636H840.391V278.376H837.411V283.176C837.411 284.236 837.911 284.496 838.571 284.496C839.331 284.496 839.891 283.876 840.171 283.316L840.871 285.316C840.451 285.936 839.491 286.596 838.071 286.596ZM844.623 275.256H842.383V272.976H844.623V275.256ZM844.623 286.376H842.383V276.636H844.623V286.376ZM851.092 286.576C848.293 286.576 846.373 284.536 846.373 281.516C846.373 278.476 848.293 276.436 851.092 276.436C853.933 276.436 855.853 278.476 855.853 281.516C855.853 284.536 853.933 286.576 851.092 286.576ZM851.113 284.716C852.573 284.716 853.573 283.756 853.573 281.516C853.573 279.256 852.573 278.296 851.113 278.296C849.673 278.296 848.673 279.256 848.673 281.516C848.673 283.756 849.673 284.716 851.113 284.716ZM860.014 286.376H857.774V276.636H860.014V279.296C860.374 277.756 861.374 276.436 863.314 276.436C865.214 276.436 866.374 277.576 866.374 279.596V286.376H864.114V280.276C864.114 279.076 863.714 278.256 862.214 278.256C860.574 278.256 860.014 279.316 860.014 280.916V286.376Z" fill="black"/>
<path d="M988.138 271.366C984.018 271.366 981.698 268.346 981.698 264.486C981.698 260.626 984.018 257.606 988.138 257.606C991.098 257.606 993.138 259.126 994.078 261.746L992.118 263.186C991.698 261.166 990.458 259.746 988.158 259.746C985.398 259.746 984.098 261.706 984.098 264.486C984.098 267.246 985.398 269.226 988.158 269.226C990.458 269.226 991.698 267.786 992.118 265.786L994.078 267.226C993.138 269.826 991.098 271.366 988.138 271.366ZM999.966 271.406C997.166 271.406 995.246 269.366 995.246 266.346C995.246 263.306 997.166 261.266 999.966 261.266C1002.81 261.266 1004.73 263.306 1004.73 266.346C1004.73 269.366 1002.81 271.406 999.966 271.406ZM999.986 269.546C1001.45 269.546 1002.45 268.586 1002.45 266.346C1002.45 264.086 1001.45 263.126 999.986 263.126C998.546 263.126 997.546 264.086 997.546 266.346C997.546 268.586 998.546 269.546 999.986 269.546ZM1008.89 271.206H1006.65V261.466H1008.89V264.126C1009.25 262.586 1010.21 261.266 1012.05 261.266C1013.83 261.266 1014.79 262.306 1014.89 264.146C1015.23 262.606 1016.19 261.266 1018.05 261.266C1019.91 261.266 1020.89 262.406 1020.89 264.426V271.206H1018.65V265.106C1018.65 263.766 1018.09 263.086 1016.77 263.086C1015.45 263.086 1014.89 264.146 1014.89 265.746V271.206H1012.65V265.106C1012.65 263.766 1012.09 263.086 1010.77 263.086C1009.45 263.086 1008.89 264.146 1008.89 265.746V271.206ZM1025.43 274.926H1023.19V261.466H1025.43V264.066C1025.75 262.546 1026.61 261.246 1028.55 261.246C1030.91 261.246 1032.43 263.186 1032.43 266.326C1032.43 269.466 1030.91 271.406 1028.51 271.406C1026.57 271.406 1025.75 270.106 1025.43 268.606V274.926ZM1025.43 266.926C1025.43 268.526 1026.09 269.586 1027.67 269.586C1029.07 269.586 1030.13 268.526 1030.13 266.326C1030.13 264.126 1029.07 263.066 1027.67 263.066C1026.09 263.066 1025.43 264.126 1025.43 265.726V266.926ZM1036.52 271.206H1034.28V257.806H1036.52V271.206ZM1043.21 271.406C1040.31 271.406 1038.41 269.386 1038.41 266.346C1038.41 263.286 1040.31 261.266 1043.05 261.266C1045.97 261.266 1047.59 263.206 1047.59 265.906C1047.59 266.266 1047.55 266.686 1047.51 266.886H1040.55C1040.67 268.626 1041.69 269.566 1043.23 269.566C1044.93 269.566 1045.69 268.686 1046.05 267.866L1047.43 269.306C1046.69 270.426 1045.37 271.406 1043.21 271.406ZM1043.05 263.066C1041.67 263.066 1040.75 263.866 1040.57 265.446H1045.57C1045.41 263.906 1044.53 263.066 1043.05 263.066ZM1052.9 271.426C1051.06 271.426 1050 270.266 1050 268.546V263.206H1048.48V261.466H1050V260.286L1052.24 258.866V261.466H1055.22V263.206H1052.24V268.006C1052.24 269.066 1052.74 269.326 1053.4 269.326C1054.16 269.326 1054.72 268.706 1055 268.146L1055.7 270.146C1055.28 270.766 1054.32 271.426 1052.9 271.426ZM1060.89 271.406C1057.99 271.406 1056.09 269.386 1056.09 266.346C1056.09 263.286 1057.99 261.266 1060.73 261.266C1063.65 261.266 1065.27 263.206 1065.27 265.906C1065.27 266.266 1065.23 266.686 1065.19 266.886H1058.23C1058.35 268.626 1059.37 269.566 1060.91 269.566C1062.61 269.566 1063.37 268.686 1063.73 267.866L1065.11 269.306C1064.37 270.426 1063.05 271.406 1060.89 271.406ZM1060.73 263.066C1059.35 263.066 1058.43 263.866 1058.25 265.446H1063.25C1063.09 263.906 1062.21 263.066 1060.73 263.066ZM1075.53 271.406C1072.73 271.406 1070.81 269.366 1070.81 266.346C1070.81 263.306 1072.73 261.266 1075.53 261.266C1078.37 261.266 1080.29 263.306 1080.29 266.346C1080.29 269.366 1078.37 271.406 1075.53 271.406ZM1075.55 269.546C1077.01 269.546 1078.01 268.586 1078.01 266.346C1078.01 264.086 1077.01 263.126 1075.55 263.126C1074.11 263.126 1073.11 264.086 1073.11 266.346C1073.11 268.586 1074.11 269.546 1075.55 269.546ZM1084.45 271.206H1082.21V261.466H1084.45V264.226C1084.81 262.666 1085.79 261.266 1087.53 261.266C1088.75 261.266 1089.65 262.066 1089.65 263.506C1089.65 264.446 1089.39 265.146 1089.21 265.446H1086.91C1087.23 265.126 1087.53 264.486 1087.53 263.926C1087.53 263.386 1087.27 262.946 1086.61 262.946C1085.49 262.946 1084.45 264.226 1084.45 265.846V271.206ZM1094.28 271.426C1091.88 271.426 1090.36 269.486 1090.36 266.346C1090.36 263.206 1091.88 261.266 1094.24 261.266C1096.18 261.266 1097.04 262.566 1097.36 264.086V257.806H1099.6V271.206H1097.36V268.626C1097.04 270.126 1096.22 271.426 1094.28 271.426ZM1092.66 266.346C1092.66 268.546 1093.72 269.606 1095.14 269.606C1096.7 269.606 1097.36 268.566 1097.36 266.966V265.746C1097.36 264.146 1096.7 263.086 1095.12 263.086C1093.72 263.086 1092.66 264.166 1092.66 266.346ZM1106.28 271.406C1103.38 271.406 1101.48 269.386 1101.48 266.346C1101.48 263.286 1103.38 261.266 1106.12 261.266C1109.04 261.266 1110.66 263.206 1110.66 265.906C1110.66 266.266 1110.62 266.686 1110.58 266.886H1103.62C1103.74 268.626 1104.76 269.566 1106.3 269.566C1108 269.566 1108.76 268.686 1109.12 267.866L1110.5 269.306C1109.76 270.426 1108.44 271.406 1106.28 271.406ZM1106.12 263.066C1104.74 263.066 1103.82 263.866 1103.64 265.446H1108.64C1108.48 263.906 1107.6 263.066 1106.12 263.066ZM1114.86 271.206H1112.62V261.466H1114.86V264.226C1115.22 262.666 1116.2 261.266 1117.94 261.266C1119.16 261.266 1120.06 262.066 1120.06 263.506C1120.06 264.446 1119.8 265.146 1119.62 265.446H1117.32C1117.64 265.126 1117.94 264.486 1117.94 263.926C1117.94 263.386 1117.68 262.946 1117.02 262.946C1115.9 262.946 1114.86 264.226 1114.86 265.846V271.206Z" fill="black"/>
<rect x="290.257" y="469.771" width="73.3934" height="73.3934" transform="rotate(45 290.257 469.771)" fill="black"/>
<rect x="610.761" y="216.479" width="73.3934" height="73.3934" transform="rotate(45 610.761 216.479)" fill="black"/>
<circle cx="90.397" cy="47.8813" r="46.397" stroke="black"/>
<path d="M73.9907 41.0628C70.0507 41.0628 67.3907 38.0428 67.3907 34.1628C67.3907 30.3028 70.0507 27.2828 73.9907 27.2828C77.9107 27.2828 80.5907 30.3028 80.5907 34.1628C80.5907 38.0428 77.9107 41.0628 73.9907 41.0628ZM74.0107 38.9028C76.8107 38.9028 78.2307 36.9428 78.2307 34.1628C78.2307 31.4028 76.8107 29.4228 74.0107 29.4228C71.2107 29.4228 69.7707 31.4028 69.7707 34.1628C69.7707 36.9428 71.2107 38.9028 74.0107 38.9028ZM84.8917 44.6028H82.6517V31.1428H84.8917V33.7428C85.2117 32.2228 86.0717 30.9228 88.0117 30.9228C90.3717 30.9228 91.8917 32.8628 91.8917 36.0028C91.8917 39.1428 90.3717 41.0828 87.9717 41.0828C86.0317 41.0828 85.2117 39.7828 84.8917 38.2828V44.6028ZM84.8917 36.6028C84.8917 38.2028 85.5517 39.2628 87.1317 39.2628C88.5317 39.2628 89.5917 38.2028 89.5917 36.0028C89.5917 33.8028 88.5317 32.7428 87.1317 32.7428C85.5517 32.7428 84.8917 33.8028 84.8917 35.4028V36.6028ZM98.2217 41.0828C95.3217 41.0828 93.4217 39.0628 93.4217 36.0228C93.4217 32.9628 95.3217 30.9428 98.0617 30.9428C100.982 30.9428 102.602 32.8828 102.602 35.5828C102.602 35.9428 102.562 36.3628 102.522 36.5628H95.5617C95.6817 38.3028 96.7017 39.2428 98.2417 39.2428C99.9417 39.2428 100.702 38.3628 101.062 37.5428L102.442 38.9828C101.702 40.1028 100.382 41.0828 98.2217 41.0828ZM98.0617 32.7428C96.6817 32.7428 95.7617 33.5428 95.5817 35.1228H100.582C100.422 33.5828 99.5417 32.7428 98.0617 32.7428ZM106.806 40.8828H104.566V31.1428H106.806V33.8028C107.166 32.2628 108.166 30.9428 110.106 30.9428C112.006 30.9428 113.166 32.0828 113.166 34.1028V40.8828H110.906V34.7828C110.906 33.5828 110.506 32.7628 109.006 32.7628C107.366 32.7628 106.806 33.8228 106.806 35.4228V40.8828ZM61.8945 65.8828H59.0145L56.5345 56.1428H59.0345L60.0345 61.6228L60.4545 64.3628L61.0745 61.6228L62.5545 56.1428H65.2145L66.7145 61.6228L67.3145 64.3628L67.7345 61.6228L68.7545 56.1428H71.2545L68.7545 65.8828H65.8945L64.5145 60.8228L63.8945 57.8028L63.2545 60.8228L61.8945 65.8828ZM76.3857 66.0828C73.4857 66.0828 71.5857 64.0628 71.5857 61.0228C71.5857 57.9628 73.4857 55.9428 76.2257 55.9428C79.1457 55.9428 80.7657 57.8828 80.7657 60.5828C80.7657 60.9428 80.7257 61.3628 80.6857 61.5628H73.7257C73.8457 63.3028 74.8657 64.2428 76.4057 64.2428C78.1057 64.2428 78.8657 63.3628 79.2257 62.5428L80.6057 63.9828C79.8657 65.1028 78.5457 66.0828 76.3857 66.0828ZM76.2257 57.7428C74.8457 57.7428 73.9257 58.5428 73.7457 60.1228H78.7457C78.5857 58.5828 77.7057 57.7428 76.2257 57.7428ZM85.0089 65.8828H82.7689V52.4828H85.0089V58.7628C85.3289 57.2428 86.1889 55.9428 88.1289 55.9428C90.5089 55.9428 92.0289 57.8828 92.0289 61.0228C92.0289 64.1628 90.5089 66.1028 88.0889 66.1028C86.1489 66.1028 85.3289 64.8028 85.0089 63.3028V65.8828ZM85.0089 61.6428C85.0089 63.2428 85.6689 64.2828 87.2489 64.2828C88.6689 64.2828 89.7289 63.2228 89.7289 61.0228C89.7289 58.8428 88.6689 57.7628 87.2489 57.7628C85.6689 57.7628 85.0089 58.8228 85.0089 60.4228V61.6428ZM97.6678 66.0828C95.5878 66.0828 93.6878 65.2428 92.9478 63.7028L94.2678 62.3028C94.8078 63.2828 96.0078 64.2828 97.7478 64.2828C98.7078 64.2828 99.3278 63.9428 99.3278 63.2428C99.3278 62.5228 98.5878 62.2828 97.5078 62.0228L96.2078 61.7028C94.6678 61.3428 93.2478 60.6628 93.2478 58.8828C93.2478 57.0628 94.7078 55.9628 96.9478 55.9628C99.0278 55.9628 100.488 56.9628 101.088 58.0628L99.7678 59.4628C99.0878 58.3828 98.0478 57.7428 96.7878 57.7428C95.9278 57.7428 95.3478 58.1028 95.3478 58.7628C95.3478 59.4628 95.8678 59.7228 97.1878 60.0628L98.3678 60.3628C100.548 60.9228 101.348 61.8028 101.348 63.2028C101.348 65.1228 99.7278 66.0828 97.6678 66.0828ZM105.36 54.7628H103.12V52.4828H105.36V54.7628ZM105.36 65.8828H103.12V56.1428H105.36V65.8828ZM111.25 66.1028C109.41 66.1028 108.35 64.9428 108.35 63.2228V57.8828H106.83V56.1428H108.35V54.9628L110.59 53.5428V56.1428H113.57V57.8828H110.59V62.6828C110.59 63.7428 111.09 64.0028 111.75 64.0028C112.51 64.0028 113.07 63.3828 113.35 62.8228L114.05 64.8228C113.63 65.4428 112.67 66.1028 111.25 66.1028ZM119.237 66.0828C116.337 66.0828 114.437 64.0628 114.437 61.0228C114.437 57.9628 116.337 55.9428 119.077 55.9428C121.997 55.9428 123.617 57.8828 123.617 60.5828C123.617 60.9428 123.577 61.3628 123.537 61.5628H116.577C116.697 63.3028 117.717 64.2428 119.257 64.2428C120.957 64.2428 121.717 63.3628 122.077 62.5428L123.457 63.9828C122.717 65.1028 121.397 66.0828 119.237 66.0828ZM119.077 57.7428C117.697 57.7428 116.777 58.5428 116.597 60.1228H121.597C121.437 58.5828 120.557 57.7428 119.077 57.7428Z" fill="black"/>
<circle cx="90.397" cy="399.908" r="46.397" stroke="black"/>
<path d="M64.2261 392.909H55.1061V379.509H57.3661V390.909H64.2261V392.909ZM69.1833 393.109C66.3833 393.109 64.4633 391.069 64.4633 388.049C64.4633 385.009 66.3833 382.969 69.1833 382.969C72.0233 382.969 73.9433 385.009 73.9433 388.049C73.9433 391.069 72.0233 393.109 69.1833 393.109ZM69.2033 391.249C70.6633 391.249 71.6633 390.289 71.6633 388.049C71.6633 385.789 70.6633 384.829 69.2033 384.829C67.7633 384.829 66.7633 385.789 66.7633 388.049C66.7633 390.289 67.7633 391.249 69.2033 391.249ZM80.1599 393.109C77.3599 393.109 75.4399 391.069 75.4399 388.049C75.4399 385.009 77.3599 382.969 80.1599 382.969C82.9999 382.969 84.9199 385.009 84.9199 388.049C84.9199 391.069 82.9999 393.109 80.1599 393.109ZM80.1799 391.249C81.6399 391.249 82.6399 390.289 82.6399 388.049C82.6399 385.789 81.6399 384.829 80.1799 384.829C78.7399 384.829 77.7399 385.789 77.7399 388.049C77.7399 390.289 78.7399 391.249 80.1799 391.249ZM89.1202 392.909H86.8802V379.509H89.1202V385.649L89.0402 387.529L90.6402 385.769L93.3002 383.169H96.0402L92.1002 387.009L96.0402 392.909H93.4202L90.5802 388.349L89.1202 389.789V392.909ZM104.587 392.909H102.347V384.909H100.847V383.169H102.347V382.569C102.347 380.549 103.587 379.309 105.647 379.309C107.067 379.309 108.007 380.009 108.407 380.529L107.427 382.129C107.067 381.549 106.487 381.109 105.747 381.109C104.927 381.109 104.587 381.549 104.587 382.349V383.169H107.427V384.909H104.587V392.909ZM112.621 393.109C109.821 393.109 107.901 391.069 107.901 388.049C107.901 385.009 109.821 382.969 112.621 382.969C115.461 382.969 117.381 385.009 117.381 388.049C117.381 391.069 115.461 393.109 112.621 393.109ZM112.641 391.249C114.101 391.249 115.101 390.289 115.101 388.049C115.101 385.789 114.101 384.829 112.641 384.829C111.201 384.829 110.201 385.789 110.201 388.049C110.201 390.289 111.201 391.249 112.641 391.249ZM121.542 392.909H119.302V383.169H121.542V385.929C121.902 384.369 122.882 382.969 124.622 382.969C125.842 382.969 126.742 383.769 126.742 385.209C126.742 386.149 126.482 386.849 126.302 387.149H124.002C124.322 386.829 124.622 386.189 124.622 385.629C124.622 385.089 124.362 384.649 123.702 384.649C122.582 384.649 121.542 385.929 121.542 387.549V392.909ZM70.4264 418.109C67.5264 418.109 65.7064 416.069 65.7064 413.049C65.7064 410.009 67.5264 407.969 70.4264 407.969C72.8664 407.969 74.4064 409.349 74.9264 411.189L72.9064 412.189C72.6864 410.789 71.9664 409.849 70.4664 409.849C68.9264 409.849 67.9864 410.989 67.9864 413.049C67.9864 415.089 68.9264 416.229 70.4664 416.229C71.9864 416.229 72.6864 415.289 72.9064 413.889L74.9264 414.889C74.4064 416.729 72.8664 418.109 70.4264 418.109ZM78.8328 418.109C77.2328 418.109 76.2728 417.209 76.2728 415.809C76.2728 414.429 77.2328 413.589 78.8128 412.969L82.0728 411.589C81.9928 410.609 81.5528 409.949 80.2128 409.949C78.9128 409.949 77.8928 410.709 77.3328 411.729L75.9928 410.129C76.7528 409.089 78.2728 407.969 80.4328 407.969C82.8528 407.969 84.2128 409.349 84.2128 411.749V415.409C84.2128 415.849 84.3728 415.989 84.7328 415.989H85.3528V417.909H83.9728C82.9328 417.909 82.1128 417.429 82.1128 416.029V415.309C81.8128 416.589 80.8728 418.109 78.8328 418.109ZM78.4328 415.469C78.4328 416.029 78.8128 416.369 79.6328 416.369C81.1128 416.369 82.1128 415.489 82.1128 414.169V413.129L79.6128 414.249C78.7728 414.629 78.4328 414.969 78.4328 415.469ZM89.3057 417.909H87.0657V404.509H89.3057V410.649L89.2257 412.529L90.8257 410.769L93.4857 408.169H96.2257L92.2857 412.009L96.2257 417.909H93.6057L90.7657 413.349L89.3057 414.789V417.909ZM101.308 418.109C98.4076 418.109 96.5076 416.089 96.5076 413.049C96.5076 409.989 98.4076 407.969 101.148 407.969C104.068 407.969 105.688 409.909 105.688 412.609C105.688 412.969 105.648 413.389 105.608 413.589H98.6476C98.7676 415.329 99.7876 416.269 101.328 416.269C103.028 416.269 103.788 415.389 104.148 414.569L105.528 416.009C104.788 417.129 103.468 418.109 101.308 418.109ZM101.148 409.769C99.7676 409.769 98.8476 410.569 98.6676 412.149H103.668C103.508 410.609 102.628 409.769 101.148 409.769ZM111.496 418.109C109.416 418.109 107.516 417.269 106.776 415.729L108.096 414.329C108.636 415.309 109.836 416.309 111.576 416.309C112.536 416.309 113.156 415.969 113.156 415.269C113.156 414.549 112.416 414.309 111.336 414.049L110.036 413.729C108.496 413.369 107.076 412.689 107.076 410.909C107.076 409.089 108.536 407.989 110.776 407.989C112.856 407.989 114.316 408.989 114.916 410.089L113.596 411.489C112.916 410.409 111.876 409.769 110.616 409.769C109.756 409.769 109.176 410.129 109.176 410.789C109.176 411.489 109.696 411.749 111.016 412.089L112.196 412.389C114.376 412.949 115.176 413.829 115.176 415.229C115.176 417.149 113.556 418.109 111.496 418.109Z" fill="black"/>
<circle cx="290.256" cy="280.705" r="46.397" stroke="black"/>
<path d="M276.392 275.832C273.64 275.832 271.992 273.736 271.992 270.328C271.992 267.176 273.832 264.824 277.16 264.824C279.416 264.824 281.08 265.912 281.816 267.848L280.248 268.968C279.928 267.592 278.904 266.536 277.176 266.536C274.936 266.536 273.912 268.104 273.912 270.328C273.912 272.6 274.952 274.136 277.064 274.136C278.872 274.136 279.672 273.16 280.056 271.672H276.968V270.152H281.864V275.704H280.712L280.216 271.672C280.136 274.088 278.776 275.832 276.392 275.832ZM287.059 275.864C284.819 275.864 283.283 274.232 283.283 271.816C283.283 269.384 284.819 267.752 287.059 267.752C289.331 267.752 290.867 269.384 290.867 271.816C290.867 274.232 289.331 275.864 287.059 275.864ZM287.075 274.376C288.243 274.376 289.043 273.608 289.043 271.816C289.043 270.008 288.243 269.24 287.075 269.24C285.923 269.24 285.123 270.008 285.123 271.816C285.123 273.608 285.923 274.376 287.075 274.376ZM298.579 275.88C297.107 275.88 296.259 274.952 296.259 273.576V269.304H295.043V267.912H296.259V266.968L298.051 265.832V267.912H300.435V269.304H298.051V273.144C298.051 273.992 298.451 274.2 298.979 274.2C299.587 274.2 300.035 273.704 300.259 273.256L300.819 274.856C300.483 275.352 299.715 275.88 298.579 275.88ZM304.793 275.864C302.553 275.864 301.017 274.232 301.017 271.816C301.017 269.384 302.553 267.752 304.793 267.752C307.065 267.752 308.601 269.384 308.601 271.816C308.601 274.232 307.065 275.864 304.793 275.864ZM304.809 274.376C305.977 274.376 306.777 273.608 306.777 271.816C306.777 270.008 305.977 269.24 304.809 269.24C303.657 269.24 302.857 270.008 302.857 271.816C302.857 273.608 303.657 274.376 304.809 274.376ZM261.858 295.864C259.538 295.864 258.082 294.232 258.082 291.816C258.082 289.384 259.538 287.752 261.858 287.752C263.81 287.752 265.042 288.856 265.458 290.328L263.842 291.128C263.666 290.008 263.09 289.256 261.89 289.256C260.658 289.256 259.906 290.168 259.906 291.816C259.906 293.448 260.658 294.36 261.89 294.36C263.106 294.36 263.666 293.608 263.842 292.488L265.458 293.288C265.042 294.76 263.81 295.864 261.858 295.864ZM268.633 295.704H266.841V284.984H268.633V290.04C268.921 288.808 269.721 287.752 271.273 287.752C272.793 287.752 273.721 288.664 273.721 290.28V295.704H271.913V290.824C271.913 289.864 271.593 289.208 270.393 289.208C269.081 289.208 268.633 290.056 268.633 291.336V295.704ZM278.985 295.864C276.665 295.864 275.145 294.248 275.145 291.816C275.145 289.368 276.665 287.752 278.857 287.752C281.193 287.752 282.489 289.304 282.489 291.464C282.489 291.752 282.457 292.088 282.425 292.248H276.857C276.953 293.64 277.769 294.392 279.001 294.392C280.361 294.392 280.969 293.688 281.257 293.032L282.361 294.184C281.769 295.08 280.713 295.864 278.985 295.864ZM278.857 289.192C277.753 289.192 277.017 289.832 276.873 291.096H280.873C280.745 289.864 280.041 289.192 278.857 289.192ZM287.592 295.864C285.272 295.864 283.816 294.232 283.816 291.816C283.816 289.384 285.272 287.752 287.592 287.752C289.544 287.752 290.776 288.856 291.192 290.328L289.576 291.128C289.4 290.008 288.824 289.256 287.624 289.256C286.392 289.256 285.64 290.168 285.64 291.816C285.64 293.448 286.392 294.36 287.624 294.36C288.84 294.36 289.4 293.608 289.576 292.488L291.192 293.288C290.776 294.76 289.544 295.864 287.592 295.864ZM294.368 295.704H292.576V284.984H294.368V289.896L294.304 291.4L295.584 289.992L297.712 287.912H299.904L296.752 290.984L299.904 295.704H297.808L295.536 292.056L294.368 293.208V295.704ZM303.793 295.864C301.553 295.864 300.017 294.232 300.017 291.816C300.017 289.384 301.553 287.752 303.793 287.752C306.065 287.752 307.601 289.384 307.601 291.816C307.601 294.232 306.065 295.864 303.793 295.864ZM303.809 294.376C304.977 294.376 305.777 293.608 305.777 291.816C305.777 290.008 304.977 289.24 303.809 289.24C302.657 289.24 301.857 290.008 301.857 291.816C301.857 293.608 302.657 294.376 303.809 294.376ZM311.522 295.864C310.018 295.864 309.09 294.952 309.09 293.336V287.912H310.882V292.792C310.882 293.752 311.202 294.408 312.402 294.408C313.714 294.408 314.162 293.56 314.162 292.28V287.912H315.97V295.704H314.162V293.576C313.874 294.808 313.074 295.864 311.522 295.864ZM320.47 295.88C318.998 295.88 318.15 294.952 318.15 293.576V289.304H316.934V287.912H318.15V286.968L319.942 285.832V287.912H322.326V289.304H319.942V293.144C319.942 293.992 320.342 294.2 320.87 294.2C321.478 294.2 321.926 293.704 322.15 293.256L322.71 294.856C322.374 295.352 321.606 295.88 320.47 295.88Z" fill="black"/>
<circle cx="458.474" cy="280.707" r="46.397" stroke="black"/>
<path d="M441.227 265.866C439.179 265.866 437.307 265.13 436.475 263.322L437.755 262.026C438.331 263.594 439.947 264.202 441.259 264.202C442.331 264.202 443.195 263.818 443.195 262.842C443.195 261.802 442.331 261.514 440.939 261.21L439.931 260.986C438.411 260.666 436.795 259.978 436.795 257.946C436.795 255.93 438.539 254.842 440.555 254.842C442.523 254.842 444.091 255.658 444.859 257.13L443.499 258.426C442.907 257.098 441.755 256.522 440.443 256.522C439.419 256.522 438.683 257.002 438.683 257.818C438.683 258.762 439.419 259.098 440.587 259.386L441.787 259.674C443.499 260.09 445.035 260.762 445.035 262.81C445.035 264.746 443.403 265.866 441.227 265.866ZM450.125 265.866C447.805 265.866 446.285 264.25 446.285 261.818C446.285 259.37 447.805 257.754 449.997 257.754C452.333 257.754 453.629 259.306 453.629 261.466C453.629 261.754 453.597 262.09 453.565 262.25H447.997C448.093 263.642 448.909 264.394 450.141 264.394C451.501 264.394 452.109 263.69 452.397 263.034L453.501 264.186C452.909 265.082 451.853 265.866 450.125 265.866ZM449.997 259.194C448.893 259.194 448.157 259.834 448.013 261.098H452.013C451.885 259.866 451.181 259.194 449.997 259.194ZM457.023 265.706H455.231V254.986H457.023V265.706ZM462.375 265.866C460.055 265.866 458.535 264.25 458.535 261.818C458.535 259.37 460.055 257.754 462.247 257.754C464.583 257.754 465.879 259.306 465.879 261.466C465.879 261.754 465.847 262.09 465.815 262.25H460.247C460.343 263.642 461.159 264.394 462.391 264.394C463.751 264.394 464.359 263.69 464.647 263.034L465.751 264.186C465.159 265.082 464.103 265.866 462.375 265.866ZM462.247 259.194C461.143 259.194 460.407 259.834 460.263 261.098H464.263C464.135 259.866 463.431 259.194 462.247 259.194ZM470.982 265.866C468.662 265.866 467.206 264.234 467.206 261.818C467.206 259.386 468.662 257.754 470.982 257.754C472.934 257.754 474.166 258.858 474.582 260.33L472.966 261.13C472.79 260.01 472.214 259.258 471.014 259.258C469.782 259.258 469.03 260.17 469.03 261.818C469.03 263.45 469.782 264.362 471.014 264.362C472.23 264.362 472.79 263.61 472.966 262.49L474.582 263.29C474.166 264.762 472.934 265.866 470.982 265.866ZM478.75 265.882C477.278 265.882 476.43 264.954 476.43 263.578V259.306H475.214V257.914H476.43V256.97L478.222 255.834V257.914H480.606V259.306H478.222V263.146C478.222 263.994 478.622 264.202 479.15 264.202C479.758 264.202 480.206 263.706 480.43 263.258L480.99 264.858C480.654 265.354 479.886 265.882 478.75 265.882ZM430.609 288.682H428.817V277.914H430.609V279.994C430.865 278.778 431.553 277.738 433.105 277.738C434.993 277.738 436.209 279.29 436.209 281.802C436.209 284.314 434.993 285.866 433.073 285.866C431.521 285.866 430.865 284.826 430.609 283.626V288.682ZM430.609 282.282C430.609 283.562 431.137 284.41 432.401 284.41C433.521 284.41 434.369 283.562 434.369 281.802C434.369 280.042 433.521 279.194 432.401 279.194C431.137 279.194 430.609 280.042 430.609 281.322V282.282ZM439.34 285.866C438.06 285.866 437.292 285.146 437.292 284.026C437.292 282.922 438.06 282.25 439.324 281.754L441.932 280.65C441.868 279.866 441.516 279.338 440.444 279.338C439.404 279.338 438.588 279.946 438.14 280.762L437.068 279.482C437.676 278.65 438.892 277.754 440.62 277.754C442.556 277.754 443.644 278.858 443.644 280.778V283.706C443.644 284.058 443.772 284.17 444.06 284.17H444.556V285.706H443.452C442.62 285.706 441.964 285.322 441.964 284.202V283.626C441.724 284.65 440.972 285.866 439.34 285.866ZM439.02 283.754C439.02 284.202 439.324 284.474 439.98 284.474C441.164 284.474 441.964 283.77 441.964 282.714V281.882L439.964 282.778C439.292 283.082 439.02 283.354 439.02 283.754ZM447.228 288.378C446.108 288.378 445.196 287.802 444.764 287.194L445.612 285.754C446.028 286.346 446.508 286.794 447.228 286.794C447.836 286.794 448.22 286.522 448.508 285.658L448.652 285.226H447.548L444.972 277.914H446.94L448.348 282.33L448.908 284.41L449.468 282.33L450.86 277.914H452.844L449.964 286.25C449.404 287.818 448.492 288.378 447.228 288.378ZM455.39 285.706H453.598V277.914H455.39V280.042C455.678 278.81 456.446 277.754 457.918 277.754C459.342 277.754 460.11 278.586 460.19 280.058C460.462 278.826 461.23 277.754 462.718 277.754C464.206 277.754 464.99 278.666 464.99 280.282V285.706H463.198V280.826C463.198 279.754 462.75 279.21 461.694 279.21C460.638 279.21 460.19 280.058 460.19 281.338V285.706H458.398V280.826C458.398 279.754 457.95 279.21 456.894 279.21C455.838 279.21 455.39 280.058 455.39 281.338V285.706ZM470.257 285.866C467.937 285.866 466.417 284.25 466.417 281.818C466.417 279.37 467.937 277.754 470.129 277.754C472.465 277.754 473.761 279.306 473.761 281.466C473.761 281.754 473.729 282.09 473.697 282.25H468.129C468.225 283.642 469.041 284.394 470.273 284.394C471.633 284.394 472.241 283.69 472.529 283.034L473.633 284.186C473.041 285.082 471.985 285.866 470.257 285.866ZM470.129 279.194C469.025 279.194 468.289 279.834 468.145 281.098H472.145C472.017 279.866 471.313 279.194 470.129 279.194ZM477.125 285.706H475.333V277.914H477.125V280.042C477.413 278.81 478.213 277.754 479.765 277.754C481.285 277.754 482.213 278.666 482.213 280.282V285.706H480.405V280.826C480.405 279.866 480.085 279.21 478.885 279.21C477.573 279.21 477.125 280.058 477.125 281.338V285.706ZM486.664 285.882C485.192 285.882 484.344 284.954 484.344 283.578V279.306H483.128V277.914H484.344V276.97L486.136 275.834V277.914H488.52V279.306H486.136V283.146C486.136 283.994 486.536 284.202 487.064 284.202C487.672 284.202 488.12 283.706 488.344 283.258L488.904 284.858C488.568 285.354 487.8 285.882 486.664 285.882ZM434.125 305.706H432.333V297.914H434.125V300.042C434.413 298.81 435.181 297.754 436.653 297.754C438.077 297.754 438.845 298.586 438.925 300.058C439.197 298.826 439.965 297.754 441.453 297.754C442.941 297.754 443.725 298.666 443.725 300.282V305.706H441.933V300.826C441.933 299.754 441.485 299.21 440.429 299.21C439.373 299.21 438.925 300.058 438.925 301.338V305.706H437.133V300.826C437.133 299.754 436.685 299.21 435.629 299.21C434.573 299.21 434.125 300.058 434.125 301.338V305.706ZM448.992 305.866C446.672 305.866 445.152 304.25 445.152 301.818C445.152 299.37 446.672 297.754 448.864 297.754C451.2 297.754 452.496 299.306 452.496 301.466C452.496 301.754 452.464 302.09 452.432 302.25H446.864C446.96 303.642 447.776 304.394 449.008 304.394C450.368 304.394 450.976 303.69 451.264 303.034L452.368 304.186C451.776 305.082 450.72 305.866 448.992 305.866ZM448.864 299.194C447.76 299.194 447.024 299.834 446.88 301.098H450.88C450.752 299.866 450.048 299.194 448.864 299.194ZM456.742 305.882C455.27 305.882 454.422 304.954 454.422 303.578V299.306H453.206V297.914H454.422V296.97L456.214 295.834V297.914H458.598V299.306H456.214V303.146C456.214 303.994 456.614 304.202 457.142 304.202C457.75 304.202 458.198 303.706 458.422 303.258L458.982 304.858C458.646 305.354 457.878 305.882 456.742 305.882ZM461.984 305.706H460.192V294.986H461.984V300.042C462.272 298.81 463.072 297.754 464.624 297.754C466.144 297.754 467.072 298.666 467.072 300.282V305.706H465.264V300.826C465.264 299.866 464.944 299.21 463.744 299.21C462.432 299.21 461.984 300.058 461.984 301.338V305.706ZM472.16 305.866C469.92 305.866 468.384 304.234 468.384 301.818C468.384 299.386 469.92 297.754 472.16 297.754C474.432 297.754 475.968 299.386 475.968 301.818C475.968 304.234 474.432 305.866 472.16 305.866ZM472.176 304.378C473.344 304.378 474.144 303.61 474.144 301.818C474.144 300.01 473.344 299.242 472.176 299.242C471.024 299.242 470.224 300.01 470.224 301.818C470.224 303.61 471.024 304.378 472.176 304.378ZM480.365 305.882C478.445 305.882 477.229 304.33 477.229 301.818C477.229 299.306 478.445 297.754 480.333 297.754C481.885 297.754 482.573 298.794 482.829 300.01V294.986H484.621V305.706H482.829V303.642C482.573 304.842 481.917 305.882 480.365 305.882ZM479.069 301.818C479.069 303.578 479.917 304.426 481.053 304.426C482.301 304.426 482.829 303.594 482.829 302.314V301.338C482.829 300.058 482.301 299.21 481.037 299.21C479.917 299.21 479.069 300.074 479.069 301.818Z" fill="black"/>
<circle cx="460.864" cy="430.712" r="46.397" stroke="black"/>
<path d="M450.067 415.712H442.483V404.992H450.067V406.592H444.291V409.44H449.075V411.04H444.291V414.112H450.067V415.712ZM453.132 415.712H451.34V407.92H453.132V410.048C453.42 408.816 454.22 407.76 455.772 407.76C457.292 407.76 458.22 408.672 458.22 410.288V415.712H456.412V410.832C456.412 409.872 456.092 409.216 454.892 409.216C453.58 409.216 453.132 410.064 453.132 411.344V415.712ZM462.671 415.888C461.199 415.888 460.351 414.96 460.351 413.584V409.312H459.135V407.92H460.351V406.976L462.143 405.84V407.92H464.527V409.312H462.143V413.152C462.143 414 462.543 414.208 463.071 414.208C463.679 414.208 464.127 413.712 464.351 413.264L464.911 414.864C464.575 415.36 463.807 415.888 462.671 415.888ZM469.061 415.872C466.741 415.872 465.221 414.256 465.221 411.824C465.221 409.376 466.741 407.76 468.933 407.76C471.269 407.76 472.565 409.312 472.565 411.472C472.565 411.76 472.533 412.096 472.501 412.256H466.933C467.029 413.648 467.845 414.4 469.077 414.4C470.437 414.4 471.045 413.696 471.333 413.04L472.437 414.192C471.845 415.088 470.789 415.872 469.061 415.872ZM468.933 409.2C467.829 409.2 467.093 409.84 466.949 411.104H470.949C470.821 409.872 470.117 409.2 468.933 409.2ZM475.928 415.712H474.136V407.92H475.928V410.128C476.216 408.88 477 407.76 478.392 407.76C479.368 407.76 480.088 408.4 480.088 409.552C480.088 410.304 479.88 410.864 479.736 411.104H477.896C478.152 410.848 478.392 410.336 478.392 409.888C478.392 409.456 478.184 409.104 477.656 409.104C476.76 409.104 475.928 410.128 475.928 411.424V415.712ZM432.999 438.688H431.207V427.92H432.999V430C433.255 428.784 433.943 427.744 435.495 427.744C437.383 427.744 438.599 429.296 438.599 431.808C438.599 434.32 437.383 435.872 435.463 435.872C433.911 435.872 433.255 434.832 432.999 433.632V438.688ZM432.999 432.288C432.999 433.568 433.527 434.416 434.791 434.416C435.911 434.416 436.759 433.568 436.759 431.808C436.759 430.048 435.911 429.2 434.791 429.2C433.527 429.2 432.999 430.048 432.999 431.328V432.288ZM441.73 435.872C440.45 435.872 439.682 435.152 439.682 434.032C439.682 432.928 440.45 432.256 441.714 431.76L444.322 430.656C444.258 429.872 443.906 429.344 442.834 429.344C441.794 429.344 440.978 429.952 440.53 430.768L439.458 429.488C440.066 428.656 441.282 427.76 443.01 427.76C444.946 427.76 446.034 428.864 446.034 430.784V433.712C446.034 434.064 446.162 434.176 446.45 434.176H446.946V435.712H445.842C445.01 435.712 444.354 435.328 444.354 434.208V433.632C444.114 434.656 443.362 435.872 441.73 435.872ZM441.41 433.76C441.41 434.208 441.714 434.48 442.37 434.48C443.554 434.48 444.354 433.776 444.354 432.72V431.888L442.354 432.784C441.682 433.088 441.41 433.36 441.41 433.76ZM449.617 438.384C448.497 438.384 447.585 437.808 447.153 437.2L448.001 435.76C448.417 436.352 448.897 436.8 449.617 436.8C450.225 436.8 450.609 436.528 450.897 435.664L451.041 435.232H449.937L447.361 427.92H449.329L450.737 432.336L451.297 434.416L451.857 432.336L453.249 427.92H455.233L452.353 436.256C451.793 437.824 450.881 438.384 449.617 438.384ZM457.78 435.712H455.988V427.92H457.78V430.048C458.068 428.816 458.836 427.76 460.308 427.76C461.732 427.76 462.5 428.592 462.58 430.064C462.852 428.832 463.62 427.76 465.108 427.76C466.596 427.76 467.38 428.672 467.38 430.288V435.712H465.588V430.832C465.588 429.76 465.14 429.216 464.084 429.216C463.028 429.216 462.58 430.064 462.58 431.344V435.712H460.788V430.832C460.788 429.76 460.34 429.216 459.284 429.216C458.228 429.216 457.78 430.064 457.78 431.344V435.712ZM472.647 435.872C470.327 435.872 468.807 434.256 468.807 431.824C468.807 429.376 470.327 427.76 472.519 427.76C474.855 427.76 476.151 429.312 476.151 431.472C476.151 431.76 476.119 432.096 476.087 432.256H470.519C470.615 433.648 471.431 434.4 472.663 434.4C474.023 434.4 474.631 433.696 474.919 433.04L476.023 434.192C475.431 435.088 474.375 435.872 472.647 435.872ZM472.519 429.2C471.415 429.2 470.679 429.84 470.535 431.104H474.535C474.407 429.872 473.703 429.2 472.519 429.2ZM479.514 435.712H477.722V427.92H479.514V430.048C479.802 428.816 480.602 427.76 482.154 427.76C483.674 427.76 484.602 428.672 484.602 430.288V435.712H482.794V430.832C482.794 429.872 482.474 429.216 481.274 429.216C479.962 429.216 479.514 430.064 479.514 431.344V435.712ZM489.054 435.888C487.582 435.888 486.734 434.96 486.734 433.584V429.312H485.518V427.92H486.734V426.976L488.526 425.84V427.92H490.91V429.312H488.526V433.152C488.526 434 488.926 434.208 489.454 434.208C490.062 434.208 490.51 433.712 490.734 433.264L491.294 434.864C490.958 435.36 490.19 435.888 489.054 435.888ZM450.405 446.816H448.613V444.992H450.405V446.816ZM450.405 455.712H448.613V447.92H450.405V455.712ZM454.092 455.712H452.3V447.92H454.092V450.048C454.38 448.816 455.18 447.76 456.732 447.76C458.252 447.76 459.18 448.672 459.18 450.288V455.712H457.372V450.832C457.372 449.872 457.052 449.216 455.852 449.216C454.54 449.216 454.092 450.064 454.092 451.344V455.712ZM463.2 455.712H461.408V449.312H460.208V447.92H461.408V447.44C461.408 445.824 462.4 444.832 464.048 444.832C465.184 444.832 465.936 445.392 466.256 445.808L465.472 447.088C465.184 446.624 464.72 446.272 464.128 446.272C463.472 446.272 463.2 446.624 463.2 447.264V447.92H465.472V449.312H463.2V455.712ZM469.627 455.872C467.387 455.872 465.851 454.24 465.851 451.824C465.851 449.392 467.387 447.76 469.627 447.76C471.899 447.76 473.435 449.392 473.435 451.824C473.435 454.24 471.899 455.872 469.627 455.872ZM469.643 454.384C470.811 454.384 471.611 453.616 471.611 451.824C471.611 450.016 470.811 449.248 469.643 449.248C468.491 449.248 467.691 450.016 467.691 451.824C467.691 453.616 468.491 454.384 469.643 454.384Z" fill="black"/>
<circle cx="610.761" cy="419.896" r="46.397" stroke="black"/>
<circle cx="1049.65" cy="135.213" r="46.397" stroke="black"/>
<path d="M593.514 405.056C591.466 405.056 589.594 404.32 588.762 402.512L590.042 401.216C590.618 402.784 592.234 403.392 593.546 403.392C594.618 403.392 595.482 403.008 595.482 402.032C595.482 400.992 594.618 400.704 593.226 400.4L592.218 400.176C590.698 399.856 589.082 399.168 589.082 397.136C589.082 395.12 590.826 394.032 592.842 394.032C594.81 394.032 596.378 394.848 597.146 396.32L595.786 397.616C595.194 396.288 594.042 395.712 592.73 395.712C591.706 395.712 590.97 396.192 590.97 397.008C590.97 397.952 591.706 398.288 592.874 398.576L594.074 398.864C595.786 399.28 597.322 399.952 597.322 402C597.322 403.936 595.69 405.056 593.514 405.056ZM602.411 405.056C600.091 405.056 598.571 403.44 598.571 401.008C598.571 398.56 600.091 396.944 602.283 396.944C604.619 396.944 605.915 398.496 605.915 400.656C605.915 400.944 605.883 401.28 605.851 401.44H600.283C600.379 402.832 601.195 403.584 602.427 403.584C603.787 403.584 604.395 402.88 604.683 402.224L605.787 403.376C605.195 404.272 604.139 405.056 602.411 405.056ZM602.283 398.384C601.179 398.384 600.443 399.024 600.299 400.288H604.299C604.171 399.056 603.467 398.384 602.283 398.384ZM609.31 404.896H607.518V394.176H609.31V404.896ZM614.661 405.056C612.341 405.056 610.821 403.44 610.821 401.008C610.821 398.56 612.341 396.944 614.533 396.944C616.869 396.944 618.165 398.496 618.165 400.656C618.165 400.944 618.133 401.28 618.101 401.44H612.533C612.629 402.832 613.445 403.584 614.677 403.584C616.037 403.584 616.645 402.88 616.933 402.224L618.037 403.376C617.445 404.272 616.389 405.056 614.661 405.056ZM614.533 398.384C613.429 398.384 612.693 399.024 612.549 400.288H616.549C616.421 399.056 615.717 398.384 614.533 398.384ZM623.269 405.056C620.949 405.056 619.493 403.424 619.493 401.008C619.493 398.576 620.949 396.944 623.269 396.944C625.221 396.944 626.453 398.048 626.869 399.52L625.253 400.32C625.077 399.2 624.501 398.448 623.301 398.448C622.069 398.448 621.317 399.36 621.317 401.008C621.317 402.64 622.069 403.552 623.301 403.552C624.517 403.552 625.077 402.8 625.253 401.68L626.869 402.48C626.453 403.952 625.221 405.056 623.269 405.056ZM631.037 405.072C629.565 405.072 628.717 404.144 628.717 402.768V398.496H627.501V397.104H628.717V396.16L630.509 395.024V397.104H632.893V398.496H630.509V402.336C630.509 403.184 630.909 403.392 631.437 403.392C632.045 403.392 632.493 402.896 632.717 402.448L633.277 404.048C632.941 404.544 632.173 405.072 631.037 405.072ZM586.378 425.072C584.458 425.072 583.242 423.52 583.242 421.008C583.242 418.496 584.458 416.944 586.346 416.944C587.898 416.944 588.586 417.984 588.842 419.2V414.176H590.634V424.896H588.842V422.832C588.586 424.032 587.93 425.072 586.378 425.072ZM585.082 421.008C585.082 422.768 585.93 423.616 587.066 423.616C588.314 423.616 588.842 422.784 588.842 421.504V420.528C588.842 419.248 588.314 418.4 587.05 418.4C585.93 418.4 585.082 419.264 585.082 421.008ZM595.974 425.056C593.654 425.056 592.134 423.44 592.134 421.008C592.134 418.56 593.654 416.944 595.846 416.944C598.182 416.944 599.478 418.496 599.478 420.656C599.478 420.944 599.446 421.28 599.414 421.44H593.846C593.942 422.832 594.758 423.584 595.99 423.584C597.35 423.584 597.958 422.88 598.246 422.224L599.35 423.376C598.758 424.272 597.702 425.056 595.974 425.056ZM595.846 418.384C594.742 418.384 594.006 419.024 593.862 420.288H597.862C597.734 419.056 597.03 418.384 595.846 418.384ZM602.872 424.896H601.08V414.176H602.872V424.896ZM606.56 416H604.768V414.176H606.56V416ZM606.56 424.896H604.768V417.104H606.56V424.896ZM612.647 424.896H610.359L607.591 417.104H609.575L610.903 421.344L611.543 423.728L612.167 421.344L613.479 417.104H615.431L612.647 424.896ZM619.489 425.056C617.169 425.056 615.649 423.44 615.649 421.008C615.649 418.56 617.169 416.944 619.361 416.944C621.697 416.944 622.993 418.496 622.993 420.656C622.993 420.944 622.961 421.28 622.929 421.44H617.361C617.457 422.832 618.273 423.584 619.505 423.584C620.865 423.584 621.473 422.88 621.761 422.224L622.865 423.376C622.273 424.272 621.217 425.056 619.489 425.056ZM619.361 418.384C618.257 418.384 617.521 419.024 617.377 420.288H621.377C621.249 419.056 620.545 418.384 619.361 418.384ZM626.357 424.896H624.565V417.104H626.357V419.312C626.645 418.064 627.429 416.944 628.821 416.944C629.797 416.944 630.517 417.584 630.517 418.736C630.517 419.488 630.309 420.048 630.165 420.288H628.325C628.581 420.032 628.821 419.52 628.821 419.072C628.821 418.64 628.613 418.288 628.085 418.288C627.189 418.288 626.357 419.312 626.357 420.608V424.896ZM633.1 427.568C631.98 427.568 631.068 426.992 630.636 426.384L631.484 424.944C631.9 425.536 632.38 425.984 633.1 425.984C633.708 425.984 634.092 425.712 634.38 424.848L634.524 424.416H633.42L630.844 417.104H632.812L634.22 421.52L634.78 423.6L635.34 421.52L636.732 417.104H638.716L635.836 425.44C635.276 427.008 634.364 427.568 633.1 427.568ZM588.993 445.056C586.753 445.056 585.217 443.424 585.217 441.008C585.217 438.576 586.753 436.944 588.993 436.944C591.265 436.944 592.801 438.576 592.801 441.008C592.801 443.424 591.265 445.056 588.993 445.056ZM589.009 443.568C590.177 443.568 590.977 442.8 590.977 441.008C590.977 439.2 590.177 438.432 589.009 438.432C587.857 438.432 587.057 439.2 587.057 441.008C587.057 442.8 587.857 443.568 589.009 443.568ZM596.161 447.872H594.369V437.104H596.161V439.184C596.417 437.968 597.105 436.928 598.657 436.928C600.545 436.928 601.761 438.48 601.761 440.992C601.761 443.504 600.545 445.056 598.625 445.056C597.073 445.056 596.417 444.016 596.161 442.816V447.872ZM596.161 441.472C596.161 442.752 596.689 443.6 597.953 443.6C599.073 443.6 599.921 442.752 599.921 440.992C599.921 439.232 599.073 438.384 597.953 438.384C596.689 438.384 596.161 439.232 596.161 440.512V441.472ZM605.888 445.072C604.416 445.072 603.568 444.144 603.568 442.768V438.496H602.352V437.104H603.568V436.16L605.36 435.024V437.104H607.744V438.496H605.36V442.336C605.36 443.184 605.76 443.392 606.288 443.392C606.896 443.392 607.344 442.896 607.568 442.448L608.128 444.048C607.792 444.544 607.024 445.072 605.888 445.072ZM611.13 436H609.338V434.176H611.13V436ZM611.13 444.896H609.338V437.104H611.13V444.896ZM616.306 445.056C614.066 445.056 612.53 443.424 612.53 441.008C612.53 438.576 614.066 436.944 616.306 436.944C618.578 436.944 620.114 438.576 620.114 441.008C620.114 443.424 618.578 445.056 616.306 445.056ZM616.322 443.568C617.49 443.568 618.29 442.8 618.29 441.008C618.29 439.2 617.49 438.432 616.322 438.432C615.17 438.432 614.37 439.2 614.37 441.008C614.37 442.8 615.17 443.568 616.322 443.568ZM623.443 444.896H621.651V437.104H623.443V439.232C623.731 438 624.531 436.944 626.083 436.944C627.603 436.944 628.531 437.856 628.531 439.472V444.896H626.723V440.016C626.723 439.056 626.403 438.4 625.203 438.4C623.891 438.4 623.443 439.248 623.443 440.528V444.896ZM633.335 445.056C631.671 445.056 630.151 444.384 629.559 443.152L630.615 442.032C631.047 442.816 632.007 443.616 633.399 443.616C634.167 443.616 634.663 443.344 634.663 442.784C634.663 442.208 634.071 442.016 633.207 441.808L632.167 441.552C630.935 441.264 629.799 440.72 629.799 439.296C629.799 437.84 630.967 436.96 632.759 436.96C634.423 436.96 635.591 437.76 636.071 438.64L635.015 439.76C634.471 438.896 633.639 438.384 632.631 438.384C631.943 438.384 631.479 438.672 631.479 439.2C631.479 439.76 631.895 439.968 632.951 440.24L633.895 440.48C635.639 440.928 636.279 441.632 636.279 442.752C636.279 444.288 634.983 445.056 633.335 445.056Z" fill="black"/>
<path d="M282.652 516.667H277.868V505.947H282.732C284.908 505.947 285.932 507.099 285.932 508.683C285.932 510.107 284.812 510.955 283.084 511.099C285.516 511.291 286.38 512.379 286.38 513.819C286.38 515.723 284.956 516.667 282.652 516.667ZM282.188 507.547H279.676V510.411H282.252C283.324 510.411 284.06 510.075 284.06 508.987C284.06 507.899 283.308 507.547 282.188 507.547ZM282.428 511.931H279.676V515.067H282.38C283.852 515.067 284.524 514.587 284.524 513.499C284.524 512.411 283.676 511.931 282.428 511.931ZM290.374 516.827C288.87 516.827 287.942 515.915 287.942 514.299V508.875H289.734V513.755C289.734 514.715 290.054 515.371 291.254 515.371C292.566 515.371 293.014 514.523 293.014 513.243V508.875H294.822V516.667H293.014V514.539C292.726 515.771 291.926 516.827 290.374 516.827ZM298.01 519.339C296.89 519.339 295.978 518.763 295.546 518.155L296.394 516.715C296.81 517.307 297.29 517.755 298.01 517.755C298.618 517.755 299.002 517.483 299.29 516.619L299.434 516.187H298.33L295.754 508.875H297.722L299.13 513.291L299.69 515.371L300.25 513.291L301.642 508.875H303.626L300.746 517.211C300.186 518.779 299.274 519.339 298.01 519.339ZM270.124 536.827C267.804 536.827 266.348 535.195 266.348 532.779C266.348 530.347 267.804 528.715 270.124 528.715C272.076 528.715 273.308 529.819 273.724 531.291L272.108 532.091C271.932 530.971 271.356 530.219 270.156 530.219C268.924 530.219 268.172 531.131 268.172 532.779C268.172 534.411 268.924 535.323 270.156 535.323C271.372 535.323 271.932 534.571 272.108 533.451L273.724 534.251C273.308 535.723 272.076 536.827 270.124 536.827ZM276.849 536.827C275.569 536.827 274.801 536.107 274.801 534.987C274.801 533.883 275.569 533.211 276.833 532.715L279.441 531.611C279.377 530.827 279.025 530.299 277.953 530.299C276.913 530.299 276.097 530.907 275.649 531.723L274.577 530.443C275.185 529.611 276.401 528.715 278.129 528.715C280.065 528.715 281.153 529.819 281.153 531.739V534.667C281.153 535.019 281.281 535.131 281.569 535.131H282.065V536.667H280.961C280.129 536.667 279.473 536.283 279.473 535.163V534.587C279.233 535.611 278.481 536.827 276.849 536.827ZM276.529 534.715C276.529 535.163 276.833 535.435 277.489 535.435C278.673 535.435 279.473 534.731 279.473 533.675V532.843L277.473 533.739C276.801 534.043 276.529 534.315 276.529 534.715ZM285.227 536.667H283.435V525.947H285.227V530.859L285.163 532.363L286.443 530.955L288.571 528.875H290.763L287.611 531.947L290.763 536.667H288.667L286.395 533.019L285.227 534.171V536.667ZM294.829 536.827C292.509 536.827 290.989 535.211 290.989 532.779C290.989 530.331 292.509 528.715 294.701 528.715C297.037 528.715 298.333 530.267 298.333 532.427C298.333 532.715 298.301 533.051 298.269 533.211H292.701C292.797 534.603 293.613 535.355 294.845 535.355C296.205 535.355 296.813 534.651 297.101 533.995L298.205 535.147C297.613 536.043 296.557 536.827 294.829 536.827ZM294.701 530.155C293.597 530.155 292.861 530.795 292.717 532.059H296.717C296.589 530.827 295.885 530.155 294.701 530.155ZM302.979 536.827C301.315 536.827 299.795 536.155 299.203 534.923L300.259 533.803C300.691 534.587 301.651 535.387 303.043 535.387C303.811 535.387 304.307 535.115 304.307 534.555C304.307 533.979 303.715 533.787 302.851 533.579L301.811 533.323C300.579 533.035 299.443 532.491 299.443 531.067C299.443 529.611 300.611 528.731 302.403 528.731C304.067 528.731 305.235 529.531 305.715 530.411L304.659 531.531C304.115 530.667 303.283 530.155 302.275 530.155C301.587 530.155 301.123 530.443 301.123 530.971C301.123 531.531 301.539 531.739 302.595 532.011L303.539 532.251C305.283 532.699 305.923 533.403 305.923 534.523C305.923 536.059 304.627 536.827 302.979 536.827ZM311.085 533.339H309.389V532.875C309.389 530.443 312.157 530.283 312.157 528.667C312.157 527.963 311.677 527.499 310.621 527.499C309.197 527.499 308.189 528.427 308.429 530.379L306.909 529.291C306.701 527.259 308.349 525.787 310.749 525.787C312.797 525.787 314.093 526.667 314.093 528.491C314.093 530.939 311.085 531.035 311.085 533.019V533.339ZM311.245 536.667H309.197V534.395H311.245V536.667Z" fill="#FDFDFD"/>
<path d="M1034.78 120.213H1032.97V111.093H1029.69V109.493H1038.07V111.093H1034.78V120.213ZM1040.56 120.213H1038.77V112.421H1040.56V114.629C1040.85 113.381 1041.63 112.261 1043.02 112.261C1044 112.261 1044.72 112.901 1044.72 114.053C1044.72 114.805 1044.51 115.365 1044.37 115.605H1042.53C1042.78 115.349 1043.02 114.837 1043.02 114.389C1043.02 113.957 1042.82 113.605 1042.29 113.605C1041.39 113.605 1040.56 114.629 1040.56 115.925V120.213ZM1047.48 120.373C1046.2 120.373 1045.43 119.653 1045.43 118.533C1045.43 117.429 1046.2 116.757 1047.46 116.261L1050.07 115.157C1050.01 114.373 1049.65 113.845 1048.58 113.845C1047.54 113.845 1046.73 114.453 1046.28 115.269L1045.21 113.989C1045.81 113.157 1047.03 112.261 1048.76 112.261C1050.69 112.261 1051.78 113.365 1051.78 115.285V118.213C1051.78 118.565 1051.91 118.677 1052.2 118.677H1052.69V120.213H1051.59C1050.76 120.213 1050.1 119.829 1050.1 118.709V118.133C1049.86 119.157 1049.11 120.373 1047.48 120.373ZM1047.16 118.261C1047.16 118.709 1047.46 118.981 1048.12 118.981C1049.3 118.981 1050.1 118.277 1050.1 117.221V116.389L1048.1 117.285C1047.43 117.589 1047.16 117.861 1047.16 118.261ZM1057.41 120.373C1055.09 120.373 1053.63 118.741 1053.63 116.325C1053.63 113.893 1055.09 112.261 1057.41 112.261C1059.36 112.261 1060.59 113.365 1061.01 114.837L1059.39 115.637C1059.22 114.517 1058.64 113.765 1057.44 113.765C1056.21 113.765 1055.46 114.677 1055.46 116.325C1055.46 117.957 1056.21 118.869 1057.44 118.869C1058.66 118.869 1059.22 118.117 1059.39 116.997L1061.01 117.797C1060.59 119.269 1059.36 120.373 1057.41 120.373ZM1064.18 120.213H1062.39V109.493H1064.18V114.405L1064.12 115.909L1065.4 114.501L1067.53 112.421H1069.72L1066.57 115.493L1069.72 120.213H1067.62L1065.35 116.565L1064.18 117.717V120.213ZM1033.84 140.373C1031.6 140.373 1030.07 138.741 1030.07 136.325C1030.07 133.893 1031.6 132.261 1033.84 132.261C1036.12 132.261 1037.65 133.893 1037.65 136.325C1037.65 138.741 1036.12 140.373 1033.84 140.373ZM1033.86 138.885C1035.03 138.885 1035.83 138.117 1035.83 136.325C1035.83 134.517 1035.03 133.749 1033.86 133.749C1032.71 133.749 1031.91 134.517 1031.91 136.325C1031.91 138.117 1032.71 138.885 1033.86 138.885ZM1040.98 140.213H1039.19V132.421H1040.98V134.629C1041.27 133.381 1042.05 132.261 1043.45 132.261C1044.42 132.261 1045.14 132.901 1045.14 134.053C1045.14 134.805 1044.93 135.365 1044.79 135.605H1042.95C1043.21 135.349 1043.45 134.837 1043.45 134.389C1043.45 133.957 1043.24 133.605 1042.71 133.605C1041.81 133.605 1040.98 134.629 1040.98 135.925V140.213ZM1048.85 140.389C1046.93 140.389 1045.71 138.837 1045.71 136.325C1045.71 133.813 1046.93 132.261 1048.81 132.261C1050.37 132.261 1051.05 133.301 1051.31 134.517V129.493H1053.1V140.213H1051.31V138.149C1051.05 139.349 1050.4 140.389 1048.85 140.389ZM1047.55 136.325C1047.55 138.085 1048.4 138.933 1049.53 138.933C1050.78 138.933 1051.31 138.101 1051.31 136.821V135.845C1051.31 134.565 1050.78 133.717 1049.52 133.717C1048.4 133.717 1047.55 134.581 1047.55 136.325ZM1058.44 140.373C1056.12 140.373 1054.6 138.757 1054.6 136.325C1054.6 133.877 1056.12 132.261 1058.31 132.261C1060.65 132.261 1061.95 133.813 1061.95 135.973C1061.95 136.261 1061.91 136.597 1061.88 136.757H1056.31C1056.41 138.149 1057.23 138.901 1058.46 138.901C1059.82 138.901 1060.43 138.197 1060.71 137.541L1061.82 138.693C1061.23 139.589 1060.17 140.373 1058.44 140.373ZM1058.31 133.701C1057.21 133.701 1056.47 134.341 1056.33 135.605H1060.33C1060.2 134.373 1059.5 133.701 1058.31 133.701ZM1065.31 140.213H1063.52V132.421H1065.31V134.629C1065.6 133.381 1066.38 132.261 1067.77 132.261C1068.75 132.261 1069.47 132.901 1069.47 134.053C1069.47 134.805 1069.26 135.365 1069.12 135.605H1067.28C1067.53 135.349 1067.77 134.837 1067.77 134.389C1067.77 133.957 1067.57 133.605 1067.04 133.605C1066.14 133.605 1065.31 134.629 1065.31 135.925V140.213ZM1032.08 160.373C1030.41 160.373 1028.89 159.701 1028.3 158.469L1029.36 157.349C1029.79 158.133 1030.75 158.933 1032.14 158.933C1032.91 158.933 1033.41 158.661 1033.41 158.101C1033.41 157.525 1032.81 157.333 1031.95 157.125L1030.91 156.869C1029.68 156.581 1028.54 156.037 1028.54 154.613C1028.54 153.157 1029.71 152.277 1031.5 152.277C1033.17 152.277 1034.33 153.077 1034.81 153.957L1033.76 155.077C1033.21 154.213 1032.38 153.701 1031.37 153.701C1030.69 153.701 1030.22 153.989 1030.22 154.517C1030.22 155.077 1030.64 155.285 1031.69 155.557L1032.64 155.797C1034.38 156.245 1035.02 156.949 1035.02 158.069C1035.02 159.605 1033.73 160.373 1032.08 160.373ZM1039.1 160.389C1037.63 160.389 1036.78 159.461 1036.78 158.085V153.813H1035.56V152.421H1036.78V151.477L1038.57 150.341V152.421H1040.96V153.813H1038.57V157.653C1038.57 158.501 1038.97 158.709 1039.5 158.709C1040.11 158.709 1040.56 158.213 1040.78 157.765L1041.34 159.365C1041 159.861 1040.24 160.389 1039.1 160.389ZM1043.98 160.373C1042.7 160.373 1041.93 159.653 1041.93 158.533C1041.93 157.429 1042.7 156.757 1043.96 156.261L1046.57 155.157C1046.51 154.373 1046.15 153.845 1045.08 153.845C1044.04 153.845 1043.23 154.453 1042.78 155.269L1041.71 153.989C1042.31 153.157 1043.53 152.261 1045.26 152.261C1047.19 152.261 1048.28 153.365 1048.28 155.285V158.213C1048.28 158.565 1048.41 158.677 1048.7 158.677H1049.19V160.213H1048.09C1047.26 160.213 1046.6 159.829 1046.6 158.709V158.133C1046.36 159.157 1045.61 160.373 1043.98 160.373ZM1043.66 158.261C1043.66 158.709 1043.96 158.981 1044.62 158.981C1045.8 158.981 1046.6 158.277 1046.6 157.221V156.389L1044.6 157.285C1043.93 157.589 1043.66 157.861 1043.66 158.261ZM1053.18 160.389C1051.71 160.389 1050.86 159.461 1050.86 158.085V153.813H1049.64V152.421H1050.86V151.477L1052.65 150.341V152.421H1055.03V153.813H1052.65V157.653C1052.65 158.501 1053.05 158.709 1053.58 158.709C1054.19 158.709 1054.63 158.213 1054.86 157.765L1055.42 159.365C1055.08 159.861 1054.31 160.389 1053.18 160.389ZM1058.67 160.373C1057.16 160.373 1056.24 159.461 1056.24 157.845V152.421H1058.03V157.301C1058.03 158.261 1058.35 158.917 1059.55 158.917C1060.86 158.917 1061.31 158.069 1061.31 156.789V152.421H1063.12V160.213H1061.31V158.085C1061.02 159.317 1060.22 160.373 1058.67 160.373ZM1067.97 160.373C1066.3 160.373 1064.78 159.701 1064.19 158.469L1065.25 157.349C1065.68 158.133 1066.64 158.933 1068.03 158.933C1068.8 158.933 1069.3 158.661 1069.3 158.101C1069.3 157.525 1068.7 157.333 1067.84 157.125L1066.8 156.869C1065.57 156.581 1064.43 156.037 1064.43 154.613C1064.43 153.157 1065.6 152.277 1067.39 152.277C1069.06 152.277 1070.22 153.077 1070.7 153.957L1069.65 155.077C1069.1 154.213 1068.27 153.701 1067.26 153.701C1066.58 153.701 1066.11 153.989 1066.11 154.517C1066.11 155.077 1066.53 155.285 1067.58 155.557L1068.53 155.797C1070.27 156.245 1070.91 156.949 1070.91 158.069C1070.91 159.605 1069.62 160.373 1067.97 160.373Z" fill="black"/>
<path d="M588.008 263.504C584.712 263.504 582.856 261.088 582.856 258C582.856 254.912 584.712 252.496 588.008 252.496C590.376 252.496 592.008 253.712 592.76 255.808L591.192 256.96C590.856 255.344 589.864 254.208 588.024 254.208C585.816 254.208 584.776 255.776 584.776 258C584.776 260.208 585.816 261.792 588.024 261.792C589.864 261.792 590.856 260.64 591.192 259.04L592.76 260.192C592.008 262.272 590.376 263.504 588.008 263.504ZM597.47 263.536C595.23 263.536 593.694 261.904 593.694 259.488C593.694 257.056 595.23 255.424 597.47 255.424C599.742 255.424 601.278 257.056 601.278 259.488C601.278 261.904 599.742 263.536 597.47 263.536ZM597.486 262.048C598.654 262.048 599.454 261.28 599.454 259.488C599.454 257.68 598.654 256.912 597.486 256.912C596.334 256.912 595.534 257.68 595.534 259.488C595.534 261.28 596.334 262.048 597.486 262.048ZM604.607 263.376H602.815V255.584H604.607V257.712C604.895 256.48 605.695 255.424 607.247 255.424C608.767 255.424 609.695 256.336 609.695 257.952V263.376H607.887V258.496C607.887 257.536 607.567 256.88 606.367 256.88C605.055 256.88 604.607 257.728 604.607 259.008V263.376ZM613.714 263.376H611.922V256.976H610.722V255.584H611.922V255.04C611.922 253.392 613.026 252.496 614.754 252.496C616.018 252.496 616.994 253.072 617.426 253.456L616.642 254.72C616.274 254.304 615.586 253.92 614.786 253.92C614.018 253.92 613.714 254.32 613.714 255.072V255.584H618.178V263.376H616.37V256.976H613.714V263.376ZM621.857 263.376H620.065V255.584H621.857V257.792C622.145 256.544 622.929 255.424 624.321 255.424C625.297 255.424 626.017 256.064 626.017 257.216C626.017 257.968 625.809 258.528 625.665 258.768H623.825C624.081 258.512 624.321 258 624.321 257.552C624.321 257.12 624.113 256.768 623.585 256.768C622.689 256.768 621.857 257.792 621.857 259.088V263.376ZM628.872 263.376H627.08V255.584H628.872V257.712C629.16 256.48 629.928 255.424 631.4 255.424C632.824 255.424 633.592 256.256 633.672 257.728C633.944 256.496 634.712 255.424 636.2 255.424C637.688 255.424 638.472 256.336 638.472 257.952V263.376H636.68V258.496C636.68 257.424 636.232 256.88 635.176 256.88C634.12 256.88 633.672 257.728 633.672 259.008V263.376H631.88V258.496C631.88 257.424 631.432 256.88 630.376 256.88C629.32 256.88 628.872 257.728 628.872 259.008V263.376ZM578.693 286.352H576.901V275.584H578.693V277.664C578.949 276.448 579.637 275.408 581.189 275.408C583.077 275.408 584.293 276.96 584.293 279.472C584.293 281.984 583.077 283.536 581.157 283.536C579.605 283.536 578.949 282.496 578.693 281.296V286.352ZM578.693 279.952C578.693 281.232 579.221 282.08 580.485 282.08C581.605 282.08 582.453 281.232 582.453 279.472C582.453 277.712 581.605 276.864 580.485 276.864C579.221 276.864 578.693 277.712 578.693 278.992V279.952ZM587.424 283.536C586.144 283.536 585.376 282.816 585.376 281.696C585.376 280.592 586.144 279.92 587.408 279.424L590.016 278.32C589.952 277.536 589.6 277.008 588.528 277.008C587.488 277.008 586.672 277.616 586.224 278.432L585.152 277.152C585.76 276.32 586.976 275.424 588.704 275.424C590.64 275.424 591.728 276.528 591.728 278.448V281.376C591.728 281.728 591.856 281.84 592.144 281.84H592.64V283.376H591.536C590.704 283.376 590.048 282.992 590.048 281.872V281.296C589.808 282.32 589.056 283.536 587.424 283.536ZM587.104 281.424C587.104 281.872 587.408 282.144 588.064 282.144C589.248 282.144 590.048 281.44 590.048 280.384V279.552L588.048 280.448C587.376 280.752 587.104 281.024 587.104 281.424ZM595.311 286.048C594.191 286.048 593.279 285.472 592.847 284.864L593.695 283.424C594.111 284.016 594.591 284.464 595.311 284.464C595.919 284.464 596.303 284.192 596.591 283.328L596.735 282.896H595.631L593.055 275.584H595.023L596.431 280L596.991 282.08L597.551 280L598.943 275.584H600.927L598.047 283.92C597.487 285.488 596.575 286.048 595.311 286.048ZM603.474 283.376H601.682V275.584H603.474V277.712C603.762 276.48 604.53 275.424 606.002 275.424C607.426 275.424 608.194 276.256 608.274 277.728C608.546 276.496 609.314 275.424 610.802 275.424C612.29 275.424 613.074 276.336 613.074 277.952V283.376H611.282V278.496C611.282 277.424 610.834 276.88 609.778 276.88C608.722 276.88 608.274 277.728 608.274 279.008V283.376H606.482V278.496C606.482 277.424 606.034 276.88 604.978 276.88C603.922 276.88 603.474 277.728 603.474 279.008V283.376ZM618.341 283.536C616.021 283.536 614.501 281.92 614.501 279.488C614.501 277.04 616.021 275.424 618.213 275.424C620.549 275.424 621.845 276.976 621.845 279.136C621.845 279.424 621.813 279.76 621.781 279.92H616.213C616.309 281.312 617.125 282.064 618.357 282.064C619.717 282.064 620.325 281.36 620.613 280.704L621.717 281.856C621.125 282.752 620.069 283.536 618.341 283.536ZM618.213 276.864C617.109 276.864 616.373 277.504 616.229 278.768H620.229C620.101 277.536 619.397 276.864 618.213 276.864ZM625.208 283.376H623.416V275.584H625.208V277.712C625.496 276.48 626.296 275.424 627.848 275.424C629.368 275.424 630.296 276.336 630.296 277.952V283.376H628.488V278.496C628.488 277.536 628.168 276.88 626.968 276.88C625.656 276.88 625.208 277.728 625.208 279.008V283.376ZM634.748 283.552C633.276 283.552 632.428 282.624 632.428 281.248V276.976H631.212V275.584H632.428V274.64L634.22 273.504V275.584H636.604V276.976H634.22V280.816C634.22 281.664 634.62 281.872 635.148 281.872C635.756 281.872 636.204 281.376 636.428 280.928L636.988 282.528C636.652 283.024 635.884 283.552 634.748 283.552ZM641.941 280.048H640.245V279.584C640.245 277.152 643.013 276.992 643.013 275.376C643.013 274.672 642.533 274.208 641.477 274.208C640.053 274.208 639.045 275.136 639.285 277.088L637.765 276C637.557 273.968 639.205 272.496 641.605 272.496C643.653 272.496 644.949 273.376 644.949 275.2C644.949 277.648 641.941 277.744 641.941 279.728V280.048ZM642.101 283.376H640.053V281.104H642.101V283.376Z" fill="#FDFDFD"/>
<path d="M90.397 141.777L96.1705 131.777L84.6235 131.777L90.397 141.777ZM89.397 101.777L89.397 132.777L91.397 132.777L91.397 101.777L89.397 101.777Z" fill="black"/>
<path d="M90.397 243.409L96.1705 233.409L84.6235 233.409L90.397 243.409ZM89.397 203.409L89.397 234.409L91.397 234.409L91.397 203.409L89.397 203.409Z" fill="black"/>
<path d="M90.397 345.694L96.1705 335.694L84.6235 335.694L90.397 345.694ZM89.397 305.694L89.397 336.694L91.397 336.694L91.397 305.694L89.397 305.694Z" fill="black"/>
<path d="M90.397 494.438L96.1705 484.438L84.6235 484.437L90.397 494.438ZM89.397 454.437L89.397 485.437L91.397 485.438L91.397 454.438L89.397 454.437Z" fill="black"/>
<path d="M229.887 522.658L219.887 516.885V528.432L229.887 522.658ZM189.887 523.658H220.887V521.658H189.887V523.658Z" fill="black"/>
<path d="M290.257 425.792L284.483 435.792L296.03 435.792L290.257 425.792ZM291.257 465.792L291.257 434.792L289.257 434.792L289.257 465.792L291.257 465.792Z" fill="black"/>
<path d="M290.256 331.208L284.483 341.208L296.03 341.208L290.256 331.208ZM291.256 371.208L291.256 340.208L289.256 340.208L289.256 371.208L291.256 371.208Z" fill="black"/>
<path d="M394.365 280.706L384.365 274.933V286.48L394.365 280.706ZM354.365 281.706H385.365V279.706H354.365V281.706Z" fill="black"/>
<path d="M460.864 377.772L466.638 367.772L455.091 367.772L460.864 377.772ZM459.864 337.772L459.864 368.772L461.864 368.772L461.864 337.772L459.864 337.772Z" fill="black"/>
<path d="M555.812 424.896L545.812 419.122V430.669L555.812 424.896ZM515.812 425.896H546.812V423.896H515.812V425.896Z" fill="black"/>
<path d="M610.761 327.603L604.988 337.603L616.535 337.603L610.761 327.603ZM611.761 367.603L611.761 336.603L609.761 336.603L609.761 367.603L611.761 367.603Z" fill="black"/>
<path d="M1049.65 189.776L1055.43 199.776L1043.88 199.776L1049.65 189.776ZM1048.65 229.776L1048.65 198.776L1050.65 198.776L1050.65 229.776L1048.65 229.776Z" fill="black"/>
<path d="M713.641 268.376L703.641 262.602V274.149L713.641 268.376ZM673.641 269.376H704.641V267.376H673.641V269.376Z" fill="black"/>
<path d="M947.388 265.706L937.388 259.933V271.48L947.388 265.706ZM907.388 266.706H938.388V264.706H907.388V266.706Z" fill="black"/>
<path d="M133.406 295.312L141.316 303.724L144.647 292.668L133.406 295.312ZM138.943 298.149C140.181 298.591 141.383 299.05 142.551 299.524L143.304 297.671C142.109 297.186 140.88 296.717 139.616 296.266L138.943 298.149ZM146.279 301.148C147.491 301.713 148.662 302.296 149.793 302.898L150.733 301.133C149.57 300.514 148.368 299.914 147.124 299.335L146.279 301.148ZM153.241 304.866C154.389 305.567 155.491 306.289 156.548 307.032L157.698 305.396C156.605 304.628 155.468 303.882 154.284 303.159L153.241 304.866ZM159.689 309.402C160.73 310.246 161.722 311.112 162.667 312L164.037 310.543C163.056 309.621 162.027 308.723 160.949 307.848L159.689 309.402ZM165.428 314.798C166.324 315.778 167.171 316.782 167.971 317.807L169.548 316.576C168.716 315.51 167.835 314.467 166.904 313.449L165.428 314.798ZM170.272 321.003C171 322.102 171.683 323.224 172.322 324.366L174.068 323.391C173.405 322.205 172.696 321.04 171.939 319.898L170.272 321.003ZM174.12 327.877C174.678 329.07 175.195 330.283 175.673 331.516L177.538 330.793C177.044 329.52 176.509 328.265 175.931 327.03L174.12 327.877ZM176.985 335.24C177.385 336.496 177.75 337.77 178.083 339.06L180.019 338.561C179.678 337.236 179.303 335.926 178.891 334.633L176.985 335.24ZM178.973 342.917C179.238 344.21 179.475 345.518 179.685 346.839L181.66 346.525C181.445 345.176 181.203 343.839 180.932 342.515L178.973 342.917ZM180.233 350.775C180.39 352.089 180.525 353.414 180.64 354.75L182.633 354.579C182.516 353.222 182.379 351.874 182.219 350.537L180.233 350.775ZM180.923 358.728C180.998 360.052 181.056 361.385 181.099 362.727L183.098 362.662C183.054 361.306 182.996 359.956 182.919 358.614L180.923 358.728ZM181.186 366.724C181.201 368.054 181.204 369.391 181.197 370.734L183.197 370.745C183.204 369.392 183.201 368.043 183.185 366.701L181.186 366.724ZM181.147 374.74C181.122 376.074 181.089 377.413 181.05 378.756L183.049 378.814C183.089 377.466 183.122 376.12 183.147 374.778L181.147 374.74ZM180.918 382.766C180.869 384.104 180.816 385.444 180.762 386.786L182.76 386.867C182.815 385.524 182.868 384.18 182.916 382.839L180.918 382.766ZM180.594 390.802C180.538 392.143 180.481 393.484 180.427 394.825L182.425 394.906C182.48 393.567 182.536 392.227 182.593 390.887L180.594 390.802ZM180.27 398.85C180.221 400.193 180.176 401.536 180.136 402.876L182.136 402.935C182.175 401.6 182.22 400.263 182.269 398.923L180.27 398.85ZM180.037 406.913C180.011 408.259 179.993 409.602 179.985 410.942L181.985 410.954C181.993 409.624 182.011 408.29 182.037 406.951L180.037 406.913ZM179.993 414.99C180.007 416.339 180.033 417.683 180.074 419.021L182.073 418.96C182.033 417.636 182.006 416.306 181.992 414.969L179.993 414.99ZM180.245 423.077C180.318 424.427 180.409 425.77 180.519 427.105L182.512 426.94C182.404 425.625 182.315 424.301 182.242 422.968L180.245 423.077ZM180.918 431.153C181.073 432.5 181.251 433.837 181.454 435.165L183.431 434.862C183.232 433.561 183.057 432.248 182.905 430.924L180.918 431.153ZM182.153 439.178C182.416 440.512 182.707 441.834 183.029 443.143L184.971 442.665C184.657 441.388 184.372 440.097 184.116 438.792L182.153 439.178ZM184.108 447.076C184.504 448.379 184.935 449.667 185.404 450.939L187.28 450.247C186.825 449.014 186.407 447.763 186.022 446.495L184.108 447.076ZM186.937 454.725C187.488 455.968 188.079 457.193 188.715 458.399L190.484 457.466C189.87 456.302 189.298 455.118 188.766 453.915L186.937 454.725ZM190.754 461.953C191.468 463.1 192.227 464.226 193.034 465.331L194.649 464.152C193.872 463.087 193.141 462.001 192.452 460.896L190.754 461.953ZM195.585 468.563C196.452 469.581 197.365 470.577 198.326 471.55L199.749 470.146C198.823 469.207 197.943 468.246 197.108 467.266L195.585 468.563ZM201.336 474.387C202.329 475.259 203.367 476.109 204.45 476.938L205.665 475.35C204.617 474.548 203.614 473.725 202.654 472.884L201.336 474.387ZM207.815 479.342C208.908 480.072 210.043 480.783 211.22 481.473L212.232 479.748C211.088 479.077 209.986 478.387 208.925 477.679L207.815 479.342ZM214.812 483.447C215.993 484.056 217.213 484.646 218.472 485.217L219.298 483.395C218.068 482.838 216.879 482.262 215.728 481.669L214.812 483.447ZM222.172 486.795C223.441 487.304 224.748 487.795 226.092 488.268L226.757 486.382C225.438 485.918 224.158 485.436 222.915 484.938L222.172 486.795ZM229.816 489.503C231.085 489.899 232.386 490.28 233.718 490.647L234.248 488.718C232.937 488.358 231.658 487.983 230.412 487.594L229.816 489.503ZM237.738 491.681C238.986 491.982 240.26 492.27 241.56 492.545L241.975 490.589C240.692 490.317 239.436 490.033 238.206 489.737L237.738 491.681ZM245.543 493.334C246.895 493.584 248.273 493.821 249.679 494.045L249.994 492.07C248.604 491.848 247.241 491.614 245.907 491.368L245.543 493.334ZM253.522 494.615C254.825 494.795 256.15 494.964 257.499 495.122L257.732 493.136C256.397 492.979 255.084 492.812 253.795 492.634L253.522 494.615ZM261.614 495.565C262.312 495.633 263.015 495.699 263.724 495.762L263.901 493.769C263.198 493.707 262.501 493.642 261.809 493.574L261.614 495.565Z" fill="black"/>
<path d="M379.46 379.765L388.618 372.731L377.947 368.317L379.46 379.765ZM382.792 374.577C383.342 373.388 383.9 372.232 384.468 371.108L382.683 370.206C382.104 371.351 381.536 372.528 380.977 373.737L382.792 374.577ZM386.368 367.524C387.011 366.367 387.665 365.248 388.329 364.164L386.625 363.119C385.945 364.227 385.277 365.371 384.62 366.552L386.368 367.524ZM390.496 360.811C391.244 359.711 392.004 358.654 392.776 357.637L391.182 356.428C390.39 357.473 389.61 358.558 388.843 359.685L390.496 360.811ZM395.257 354.547C396.116 353.537 396.988 352.573 397.872 351.652L396.429 350.267C395.517 351.217 394.619 352.211 393.734 353.25L395.257 354.547ZM400.702 348.888C401.672 348 402.655 347.16 403.652 346.364L402.404 344.801C401.372 345.625 400.355 346.495 399.352 347.412L400.702 348.888ZM406.83 344.004C407.913 343.257 409.011 342.558 410.122 341.903L409.107 340.18C407.955 340.858 406.818 341.583 405.695 342.357L406.83 344.004ZM413.575 340.03C414.751 339.445 415.941 338.904 417.145 338.405L416.38 336.557C415.134 337.073 413.902 337.633 412.684 338.239L413.575 340.03ZM420.82 337.022C422.06 336.601 423.314 336.219 424.581 335.874L424.055 333.944C422.75 334.3 421.457 334.694 420.176 335.129L420.82 337.022ZM428.408 334.947C429.689 334.674 430.983 334.434 432.288 334.225L431.971 332.25C430.634 332.464 429.307 332.71 427.991 332.991L428.408 334.947ZM436.195 333.69C437.502 333.541 438.819 333.419 440.146 333.321L439.999 331.326C438.647 331.426 437.303 331.551 435.968 331.703L436.195 333.69ZM444.089 333.1C445.404 333.048 446.728 333.018 448.059 333.005L448.041 331.005C446.691 331.018 445.348 331.049 444.011 331.101L444.089 333.1ZM452.03 333.02C453.347 333.041 454.671 333.077 456.002 333.126L456.075 331.127C454.732 331.078 453.394 331.042 452.062 331.02L452.03 333.02ZM459.986 333.308C461.304 333.378 462.627 333.459 463.954 333.548L464.088 331.552C462.752 331.463 461.421 331.382 460.094 331.311L459.986 333.308ZM467.94 333.834C469.26 333.935 470.584 334.042 471.912 334.151L472.076 332.158C470.746 332.048 469.418 331.941 468.093 331.84L467.94 333.834ZM475.896 334.487C477.219 334.6 478.548 334.715 479.876 334.828L480.046 332.835C478.717 332.722 477.392 332.608 476.066 332.494L475.896 334.487ZM483.864 335.163C485.193 335.272 486.523 335.378 487.855 335.479L488.006 333.484C486.679 333.384 485.353 333.278 484.028 333.17L483.864 335.163ZM491.852 335.763C493.185 335.851 494.519 335.932 495.853 336.004L495.961 334.007C494.636 333.936 493.31 333.855 491.984 333.767L491.852 335.763ZM499.863 336.19C501.201 336.241 502.538 336.28 503.874 336.306L503.913 334.306C502.59 334.281 501.265 334.242 499.94 334.191L499.863 336.19ZM507.896 336.341C509.237 336.337 510.577 336.318 511.915 336.28L511.859 334.281C510.539 334.318 509.216 334.337 507.891 334.341L507.896 336.341ZM515.939 336.111C517.28 336.035 518.619 335.938 519.956 335.818L519.778 333.826C518.464 333.944 517.146 334.039 515.826 334.114L515.939 336.111ZM523.965 335.389C525.299 335.221 526.63 335.029 527.957 334.809L527.63 332.836C526.33 333.051 525.025 333.24 523.716 333.404L523.965 335.389ZM531.927 334.065C533.242 333.789 534.553 333.483 535.859 333.146L535.359 331.21C534.084 331.539 532.803 331.837 531.517 332.107L531.927 334.065ZM539.756 332.04C541.036 331.642 542.309 331.212 543.577 330.746L542.887 328.869C541.652 329.322 540.411 329.742 539.163 330.13L539.756 332.04ZM547.347 329.248C548.576 328.721 549.797 328.159 551.012 327.559L550.126 325.766C548.944 326.35 547.755 326.897 546.559 327.409L547.347 329.248ZM554.599 325.665C555.761 325.01 556.915 324.318 558.061 323.588L556.987 321.901C555.871 322.612 554.747 323.285 553.617 323.922L554.599 325.665ZM561.42 321.318C562.501 320.545 563.575 319.735 564.64 318.887L563.394 317.322C562.356 318.149 561.31 318.939 560.257 319.691L561.42 321.318ZM567.747 316.28C568.738 315.405 569.722 314.495 570.697 313.548L569.304 312.113C568.351 313.039 567.391 313.927 566.424 314.78L567.747 316.28ZM573.555 310.643C574.451 309.689 575.341 308.701 576.223 307.679L574.709 306.372C573.845 307.373 572.974 308.34 572.097 309.273L573.555 310.643ZM578.845 304.509C579.651 303.494 580.45 302.449 581.242 301.372L579.63 300.187C578.853 301.245 578.069 302.27 577.279 303.266L578.845 304.509ZM583.588 298.058C583.976 297.49 584.361 296.913 584.745 296.329L583.074 295.231C582.696 295.805 582.317 296.372 581.936 296.931L583.588 298.058Z" fill="black"/>
<path d="M314.673 469.771H312.413V464.931L307.373 456.371H310.173L312.153 460.051L313.553 463.131L315.013 460.071L317.093 456.371H319.713L314.673 464.931V469.771Z" fill="black"/>
<path d="M658.789 298.704H656.529V293.864L651.489 285.304H654.289L656.269 288.984L657.669 292.064L659.129 289.004L661.209 285.304H663.829L658.789 293.864V298.704Z" fill="black"/>
<path d="M267.595 469.771H265.335V456.371H267.435L272.855 464.171L274.175 466.271L274.035 463.731V456.371H276.295V469.771H274.215L268.655 461.851L267.435 459.951L267.595 462.391V469.771Z" fill="black"/>
<path d="M555.647 300.704H553.387V287.304H555.487L560.907 295.104L562.227 297.204L562.087 294.664V287.304H564.347V300.704H562.267L556.707 292.784L555.487 290.884L555.647 293.324V300.704Z" fill="black"/>
</svg>
