<svg width="45" height="45" viewBox="0 0 45 45" fill="none" xmlns="http://www.w3.org/2000/svg">
<circle cx="22.3596" cy="22.3032" r="21.5991" stroke="white"/>
<path d="M29.3997 28.1733C29.3997 29.0979 29.2176 30.0133 28.8638 30.8674C28.51 31.7216 27.9914 32.4977 27.3377 33.1514C26.6839 33.8051 25.9079 34.3237 25.0537 34.6775C24.1996 35.0313 23.2841 35.2134 22.3596 35.2134C21.4351 35.2134 20.5196 35.0313 19.6655 34.6775C18.8114 34.3237 18.0353 33.8051 17.3816 33.1514C16.7278 32.4977 16.2093 31.7216 15.8555 30.8674C15.5017 30.0133 15.3196 29.0979 15.3196 28.1733" stroke="white"/>
<ellipse cx="12.7299" cy="18.5837" rx="2.58975" ry="3.71948" fill="white"/>
<ellipse cx="31.9894" cy="18.5837" rx="2.58975" ry="3.71948" fill="white"/>
</svg>
