<svg width="718" height="120" viewBox="0 0 718 120" fill="none" xmlns="http://www.w3.org/2000/svg">
<path d="M11.1376 106.272H9.7776L10.7376 102.752H8.7376V101.532H11.0576L12.0776 97.7125H9.7576V96.4925H12.3976L13.3776 92.8725H14.7376L13.7576 96.4925H16.9976L17.9776 92.8725H19.3376L18.3576 96.4925H20.3576V97.7125H18.0376L17.0176 101.532H19.3376V102.752H16.6776L15.7376 106.272H14.3776L15.3376 102.752H12.0776L11.1376 106.272ZM13.4376 97.7125L12.4176 101.532H15.6576L16.6776 97.7125H13.4376ZM27.3849 106.472C24.4849 106.472 22.7849 104.752 22.3449 102.732L23.8249 101.412C24.2249 103.452 25.0849 104.812 27.6049 104.812C29.3249 104.812 30.3049 103.992 30.3049 102.632C30.3049 101.032 29.0449 100.312 27.1849 100.312H25.0049V98.8125H27.2049C28.8849 98.8125 29.7249 98.0925 29.7249 96.6925C29.7249 95.4125 28.9649 94.3525 27.2449 94.3525C25.5249 94.3525 24.2849 95.3325 24.0449 97.1725L22.5649 95.9325C23.1249 94.1125 24.8849 92.6725 27.2849 92.6725C30.3849 92.6725 31.5449 94.5925 31.5449 96.3125C31.5449 97.6925 30.5249 99.1125 28.8249 99.3525C31.2649 99.5525 32.1449 101.072 32.1449 102.812C32.1449 104.992 30.3049 106.472 27.3849 106.472ZM40.352 106.272H34.792V92.8725H40.452C43.012 92.8725 44.372 94.2525 44.372 96.2925C44.372 97.7325 43.432 99.0325 41.192 99.2725C43.992 99.5725 44.972 100.952 44.972 102.672C44.972 104.952 43.252 106.272 40.352 106.272ZM39.852 94.4125H36.532V98.6125H39.932C41.472 98.6125 42.572 98.1325 42.572 96.5125C42.572 94.9125 41.452 94.4125 39.852 94.4125ZM40.132 100.172H36.532V104.732H40.072C42.192 104.732 43.172 104.052 43.172 102.452C43.172 100.832 41.872 100.172 40.132 100.172ZM52.6073 106.472C50.2073 106.472 48.3873 105.132 47.7073 103.432L49.1073 101.952C49.5873 103.692 50.7873 104.812 52.6673 104.812C54.5073 104.812 55.4273 103.712 55.4273 101.972C55.4273 99.7925 53.9473 98.9725 52.4873 98.9725C51.0273 98.9725 50.0273 99.6125 49.9473 100.512L49.9273 100.732L48.2073 100.552L48.6273 92.8725H56.2473V94.5125H50.3473L49.9873 99.6525C50.4073 98.4725 51.4673 97.5325 53.2273 97.5325C55.8873 97.5325 57.2673 99.3925 57.2673 101.972C57.2673 104.692 55.5273 106.472 52.6073 106.472ZM65.4496 106.272H59.8896V92.8725H65.5496C68.1096 92.8725 69.4696 94.2525 69.4696 96.2925C69.4696 97.7325 68.5296 99.0325 66.2896 99.2725C69.0896 99.5725 70.0696 100.952 70.0696 102.672C70.0696 104.952 68.3496 106.272 65.4496 106.272ZM64.9496 94.4125H61.6296V98.6125H65.0296C66.5696 98.6125 67.6696 98.1325 67.6696 96.5125C67.6696 94.9125 66.5496 94.4125 64.9496 94.4125ZM65.2296 100.172H61.6296V104.732H65.1696C67.2896 104.732 68.2696 104.052 68.2696 102.452C68.2696 100.832 66.9696 100.172 65.2296 100.172ZM77.3249 106.272H72.5849V92.8725H77.3249C81.5449 92.8725 83.6449 95.3325 83.6449 99.5725C83.6449 103.812 81.5449 106.272 77.3249 106.272ZM77.0449 94.4125H74.3249V104.732H77.0449C80.0849 104.732 81.8449 103.392 81.8449 99.5725C81.8449 95.7525 80.0849 94.4125 77.0449 94.4125ZM91.2792 106.472C88.8792 106.472 87.0592 105.132 86.3792 103.432L87.7792 101.952C88.2592 103.692 89.4592 104.812 91.3392 104.812C93.1792 104.812 94.0992 103.712 94.0992 101.972C94.0992 99.7925 92.6192 98.9725 91.1592 98.9725C89.6992 98.9725 88.6992 99.6125 88.6192 100.512L88.5992 100.732L86.8792 100.552L87.2992 92.8725H94.9192V94.5125H89.0192L88.6592 99.6525C89.0792 98.4725 90.1392 97.5325 91.8992 97.5325C94.5592 97.5325 95.9392 99.3925 95.9392 101.972C95.9392 104.692 94.1992 106.472 91.2792 106.472Z" fill="#323232"/>
<path d="M197.889 106.272H196.529L197.489 102.752H195.489V101.532H197.809L198.829 97.7125H196.509V96.4925H199.149L200.129 92.8725H201.489L200.509 96.4925H203.749L204.729 92.8725H206.089L205.109 96.4925H207.109V97.7125H204.789L203.769 101.532H206.089V102.752H203.429L202.489 106.272H201.129L202.089 102.752H198.829L197.889 106.272ZM200.189 97.7125L199.169 101.532H202.409L203.429 97.7125H200.189ZM217.276 106.272H215.536V103.072H208.796V101.712L215.536 92.8725H217.276V101.532H219.676V103.072H217.276V106.272ZM210.776 101.532H215.536V95.3925L210.776 101.532ZM226.311 106.472C223.911 106.472 222.091 105.132 221.411 103.432L222.811 101.952C223.291 103.692 224.491 104.812 226.371 104.812C228.211 104.812 229.131 103.712 229.131 101.972C229.131 99.7925 227.651 98.9725 226.191 98.9725C224.731 98.9725 223.731 99.6125 223.651 100.512L223.631 100.732L221.911 100.552L222.331 92.8725H229.951V94.5125H224.051L223.691 99.6525C224.111 98.4725 225.171 97.5325 226.931 97.5325C229.591 97.5325 230.971 99.3925 230.971 101.972C230.971 104.692 229.231 106.472 226.311 106.472ZM238.038 106.472C235.118 106.472 233.018 104.932 233.018 99.6325V99.3925C233.018 95.0325 234.898 92.6725 238.198 92.6725C240.218 92.6725 241.698 93.7525 242.478 95.3325L240.978 96.5725C240.478 95.2325 239.478 94.3525 238.058 94.3525C236.438 94.3525 234.858 95.3925 234.858 99.5725V101.032C235.078 98.7725 236.538 97.4725 238.718 97.4725C241.458 97.4725 242.658 99.4525 242.658 101.892C242.658 104.492 240.778 106.472 238.038 106.472ZM237.998 104.812C239.738 104.812 240.818 103.592 240.818 101.992C240.818 100.232 239.958 99.0925 238.038 99.0925C236.298 99.0925 235.058 99.9725 235.058 101.712C235.058 103.892 236.198 104.812 237.998 104.812ZM249.878 106.472C246.978 106.472 245.278 104.752 244.838 102.732L246.318 101.412C246.718 103.452 247.578 104.812 250.098 104.812C251.818 104.812 252.798 103.992 252.798 102.632C252.798 101.032 251.538 100.312 249.678 100.312H247.498V98.8125H249.698C251.378 98.8125 252.218 98.0925 252.218 96.6925C252.218 95.4125 251.458 94.3525 249.738 94.3525C248.018 94.3525 246.778 95.3325 246.538 97.1725L245.058 95.9325C245.618 94.1125 247.378 92.6725 249.778 92.6725C252.878 92.6725 254.038 94.5925 254.038 96.3125C254.038 97.6925 253.018 99.1125 251.318 99.3525C253.758 99.5525 254.638 101.072 254.638 102.812C254.638 104.992 252.798 106.472 249.878 106.472ZM262.025 106.272H257.285V92.8725H262.025C266.245 92.8725 268.345 95.3325 268.345 99.5725C268.345 103.812 266.245 106.272 262.025 106.272ZM261.745 94.4125H259.025V104.732H261.745C264.785 104.732 266.545 103.392 266.545 99.5725C266.545 95.7525 264.785 94.4125 261.745 94.4125ZM273.979 106.272H272.079C272.079 99.6125 274.939 96.6325 277.139 94.5125H269.939V92.8725H278.719V94.8525C275.759 97.6725 273.979 100.572 273.979 106.272Z" fill="#323232"/>
<path d="M384.64 106.272H383.28L384.24 102.752H382.24V101.532H384.56L385.58 97.7125H383.26V96.4925H385.9L386.88 92.8725H388.24L387.26 96.4925H390.5L391.48 92.8725H392.84L391.86 96.4925H393.86V97.7125H391.54L390.52 101.532H392.84V102.752H390.18L389.24 106.272H387.88L388.84 102.752H385.58L384.64 106.272ZM386.94 97.7125L385.92 101.532H389.16L390.18 97.7125H386.94ZM400.727 106.472C397.807 106.472 395.707 104.932 395.707 99.6325V99.3925C395.707 95.0325 397.587 92.6725 400.887 92.6725C402.907 92.6725 404.387 93.7525 405.167 95.3325L403.667 96.5725C403.167 95.2325 402.167 94.3525 400.747 94.3525C399.127 94.3525 397.547 95.3925 397.547 99.5725V101.032C397.767 98.7725 399.227 97.4725 401.407 97.4725C404.147 97.4725 405.347 99.4525 405.347 101.892C405.347 104.492 403.467 106.472 400.727 106.472ZM400.687 104.812C402.427 104.812 403.507 103.592 403.507 101.992C403.507 100.232 402.647 99.0925 400.727 99.0925C398.987 99.0925 397.747 99.9725 397.747 101.712C397.747 103.892 398.887 104.812 400.687 104.812ZM410.794 106.272H409.054V95.2725H406.654V94.0725C407.734 94.0725 408.694 93.7525 409.334 92.8725H410.794V106.272ZM416.453 106.272H414.553C414.553 99.6125 417.413 96.6325 419.613 94.5125H412.413V92.8725H421.193V94.8525C418.233 97.6725 416.453 100.572 416.453 106.272ZM423.733 106.272H421.893L427.293 92.8725H429.033L434.433 106.272H432.513L431.053 102.532H425.193L423.733 106.272ZM427.453 96.7525L425.793 100.992H430.453L428.793 96.7525L428.133 94.6525L427.453 96.7525ZM440.28 106.272H435.54V92.8725H440.28C444.5 92.8725 446.6 95.3325 446.6 99.5725C446.6 103.812 444.5 106.272 440.28 106.272ZM440 94.4125H437.28V104.732H440C443.04 104.732 444.8 103.392 444.8 99.5725C444.8 95.7525 443.04 94.4125 440 94.4125ZM453.776 106.272H449.036V92.8725H453.776C457.996 92.8725 460.096 95.3325 460.096 99.5725C460.096 103.812 457.996 106.272 453.776 106.272ZM453.496 94.4125H450.776V104.732H453.496C456.536 104.732 458.296 103.392 458.296 99.5725C458.296 95.7525 456.536 94.4125 453.496 94.4125Z" fill="#323232"/>
<path d="M571.391 106.272H570.031L570.991 102.752H568.991V101.532H571.311L572.331 97.7125H570.011V96.4925H572.651L573.631 92.8725H574.991L574.011 96.4925H577.251L578.231 92.8725H579.591L578.611 96.4925H580.611V97.7125H578.291L577.271 101.532H579.591V102.752H576.931L575.991 106.272H574.631L575.591 102.752H572.331L571.391 106.272ZM573.691 97.7125L572.671 101.532H575.911L576.931 97.7125H573.691ZM588.398 106.272H582.838V92.8725H588.498C591.058 92.8725 592.418 94.2525 592.418 96.2925C592.418 97.7325 591.478 99.0325 589.238 99.2725C592.038 99.5725 593.018 100.952 593.018 102.672C593.018 104.952 591.298 106.272 588.398 106.272ZM587.898 94.4125H584.578V98.6125H587.978C589.518 98.6125 590.618 98.1325 590.618 96.5125C590.618 94.9125 589.498 94.4125 587.898 94.4125ZM588.178 100.172H584.578V104.732H588.118C590.238 104.732 591.218 104.052 591.218 102.452C591.218 100.832 589.918 100.172 588.178 100.172ZM598.854 106.272H597.114V95.2725H594.714V94.0725C595.794 94.0725 596.754 93.7525 597.394 92.8725H598.854V106.272ZM606.426 106.272H601.686V92.8725H606.426C610.646 92.8725 612.746 95.3325 612.746 99.5725C612.746 103.812 610.646 106.272 606.426 106.272ZM606.146 94.4125H603.426V104.732H606.146C609.186 104.732 610.946 103.392 610.946 99.5725C610.946 95.7525 609.186 94.4125 606.146 94.4125ZM623.2 106.272H621.46V103.072H614.72V101.712L621.46 92.8725H623.2V101.532H625.6V103.072H623.2V106.272ZM616.7 101.532H621.46V95.3925L616.7 101.532ZM629.364 106.272H627.624V92.8725H636.604V94.4125H629.364V99.2125H635.304V100.752H629.364V106.272ZM637.731 106.272H635.891L641.291 92.8725H643.031L648.431 106.272H646.511L645.051 102.532H639.191L637.731 106.272ZM641.451 96.7525L639.791 100.992H644.451L642.791 96.7525L642.131 94.6525L641.451 96.7525Z" fill="#323232"/>
<path d="M186.751 5C186.751 2.23858 188.99 0 191.751 0H338.623C341.384 0 343.623 2.23858 343.623 5V82.0146H186.751V5Z" fill="#4563D7"/>
<path d="M187.251 82.5146H343.123V114.53C343.123 117.015 341.108 119.03 338.623 119.03H191.751C189.266 119.03 187.251 117.015 187.251 114.53V82.5146Z" stroke="black"/>
<path d="M373.502 5C373.502 2.23858 375.741 0 378.502 0H525.374C528.135 0 530.374 2.23858 530.374 5V82.0146H373.502V5Z" fill="#617ADD"/>
<path d="M560.253 5C560.253 2.23858 562.492 0 565.253 0H712.125C714.886 0 717.125 2.23858 717.125 5V82.0146H560.253V5Z" fill="#B1D4FA"/>
<path d="M374.002 82.5146H529.874V114.53C529.874 117.015 527.859 119.03 525.374 119.03H378.502C376.017 119.03 374.002 117.015 374.002 114.53V82.5146Z" stroke="black"/>
<path d="M560.753 82.5146H716.625V114.53C716.625 117.015 714.61 119.03 712.125 119.03H565.253C562.768 119.03 560.753 117.015 560.753 114.53V82.5146Z" stroke="black"/>
<path d="M0 5C0 2.23858 2.23858 0 5 0H151.872C154.633 0 156.872 2.23858 156.872 5V82.0146H0V5Z" fill="#3B5BD5"/>
<path d="M0.5 82.5146H156.372V114.53C156.372 117.015 154.357 119.03 151.872 119.03H5C2.51472 119.03 0.5 117.015 0.5 114.53V82.5146Z" stroke="black"/>
</svg>
