<svg width="1088" height="121" viewBox="0 0 1088 121" fill="none" xmlns="http://www.w3.org/2000/svg">
<path d="M11.9418 107.059H10.5818L11.5418 103.539H9.5418V102.319H11.8618L12.8818 98.4991H10.5618V97.2791H13.2018L14.1818 93.6591H15.5418L14.5618 97.2791H17.8018L18.7818 93.6591H20.1418L19.1618 97.2791H21.1618V98.4991H18.8418L17.8218 102.319H20.1418V103.539H17.4818L16.5418 107.059H15.1818L16.1418 103.539H12.8818L11.9418 107.059ZM14.2418 98.4991L13.2218 102.319H16.4618L17.4818 98.4991H14.2418ZM25.1291 107.059H23.3891V93.6591H32.3691V95.1991H25.1291V99.9991H31.0691V101.539H25.1291V107.059ZM39.5788 107.219C35.5188 107.219 33.2988 104.199 33.2988 100.339C33.2988 96.4791 35.5188 93.4591 39.5788 93.4591C42.5788 93.4591 44.5988 95.0591 45.4588 97.8191L43.8988 98.8391C43.4588 96.5991 42.1388 95.0991 39.5988 95.0991C36.5388 95.0991 35.1388 97.2791 35.1388 100.339C35.1388 103.399 36.5388 105.579 39.5988 105.579C42.1388 105.579 43.4588 104.079 43.8988 101.839L45.4588 102.859C44.5988 105.619 42.5788 107.219 39.5788 107.219ZM51.0013 107.059H49.1013C49.1013 100.399 51.9613 97.4191 54.1613 95.2991H46.9613V93.6591H55.7413V95.6391C52.7813 98.4591 51.0013 101.359 51.0013 107.059ZM61.6424 107.259C58.7224 107.259 56.6224 105.719 56.6224 100.419V100.179C56.6224 95.8191 58.5024 93.4591 61.8024 93.4591C63.8224 93.4591 65.3024 94.5391 66.0824 96.1191L64.5824 97.3591C64.0824 96.0191 63.0824 95.1391 61.6624 95.1391C60.0424 95.1391 58.4624 96.1791 58.4624 100.359V101.819C58.6824 99.5591 60.1424 98.2591 62.3224 98.2591C65.0624 98.2591 66.2624 100.239 66.2624 102.679C66.2624 105.279 64.3824 107.259 61.6424 107.259ZM61.6024 105.599C63.3424 105.599 64.4224 104.379 64.4224 102.779C64.4224 101.019 63.5624 99.8791 61.6424 99.8791C59.9024 99.8791 58.6624 100.759 58.6624 102.499C58.6624 104.679 59.8024 105.599 61.6024 105.599ZM73.4821 107.259C70.5821 107.259 68.8821 105.539 68.4421 103.519L69.9221 102.199C70.3221 104.239 71.1821 105.599 73.7021 105.599C75.4221 105.599 76.4021 104.779 76.4021 103.419C76.4021 101.819 75.1421 101.099 73.2821 101.099H71.1021V99.5991H73.3021C74.9821 99.5991 75.8221 98.8791 75.8221 97.4791C75.8221 96.1991 75.0621 95.1391 73.3421 95.1391C71.6221 95.1391 70.3821 96.1191 70.1421 97.9591L68.6621 96.7191C69.2221 94.8991 70.9821 93.4591 73.3821 93.4591C76.4821 93.4591 77.6421 95.3791 77.6421 97.0991C77.6421 98.4791 76.6221 99.8991 74.9221 100.139C77.3621 100.339 78.2421 101.859 78.2421 103.599C78.2421 105.779 76.4021 107.259 73.4821 107.259ZM88.458 107.059H86.718V103.859H79.978V102.499L86.718 93.6591H88.458V102.319H90.858V103.859H88.458V107.059ZM81.958 102.319H86.718V96.1791L81.958 102.319Z" fill="#323232"/>
<path d="M383.835 107.059H382.475L383.435 103.539H381.435V102.319H383.755L384.775 98.4991H382.455V97.2791H385.095L386.075 93.6591H387.435L386.455 97.2791H389.695L390.675 93.6591H392.035L391.055 97.2791H393.055V98.4991H390.735L389.715 102.319H392.035V103.539H389.375L388.435 107.059H387.075L388.035 103.539H384.775L383.835 107.059ZM386.135 98.4991L385.115 102.319H388.355L389.375 98.4991H386.135ZM397.023 107.059H395.283V93.6591H404.263V95.1991H397.023V99.9991H402.963V101.539H397.023V107.059ZM411.429 107.059H405.869V93.6591H411.529C414.089 93.6591 415.449 95.0391 415.449 97.0791C415.449 98.5191 414.509 99.8191 412.269 100.059C415.069 100.359 416.049 101.739 416.049 103.459C416.049 105.739 414.329 107.059 411.429 107.059ZM410.929 95.1991H407.609V99.3991H411.009C412.549 99.3991 413.649 98.9191 413.649 97.2991C413.649 95.6991 412.529 95.1991 410.929 95.1991ZM411.209 100.959H407.609V105.519H411.149C413.269 105.519 414.249 104.839 414.249 103.239C414.249 101.619 412.949 100.959 411.209 100.959ZM423.084 107.259C419.744 107.259 418.164 105.779 418.164 103.619C418.164 102.259 418.904 100.799 421.104 100.259C419.364 99.9791 418.564 98.6791 418.564 97.1391C418.564 95.1191 420.144 93.4591 423.084 93.4591C426.004 93.4591 427.604 95.1191 427.604 97.1191C427.604 98.6791 426.684 99.9791 424.964 100.259C427.164 100.799 428.004 102.259 428.004 103.619C428.004 105.779 426.404 107.259 423.084 107.259ZM423.084 99.5591C424.824 99.5591 425.784 98.6191 425.784 97.3391C425.784 96.1791 425.004 95.0991 423.084 95.0991C421.164 95.0991 420.404 96.1791 420.404 97.3391C420.404 98.6191 421.144 99.5591 423.084 99.5591ZM423.084 105.619C425.424 105.619 425.984 104.519 425.984 103.319C425.984 101.979 425.024 100.959 423.084 100.959C421.144 100.959 420.184 101.979 420.184 103.319C420.184 104.519 420.744 105.619 423.084 105.619ZM439.794 107.059H430.634V93.6591H439.794V95.1991H432.374V99.4191H438.494V100.959H432.374V105.519H439.794V107.059ZM447.258 107.259C444.858 107.259 443.038 105.919 442.358 104.219L443.758 102.739C444.238 104.479 445.438 105.599 447.318 105.599C449.158 105.599 450.078 104.499 450.078 102.759C450.078 100.579 448.598 99.7591 447.138 99.7591C445.678 99.7591 444.678 100.399 444.598 101.299L444.578 101.519L442.858 101.339L443.278 93.6591H450.898V95.2991H444.998L444.638 100.439C445.058 99.2591 446.118 98.3191 447.878 98.3191C450.538 98.3191 451.918 100.179 451.918 102.759C451.918 105.479 450.178 107.259 447.258 107.259ZM458.631 107.259C455.291 107.259 453.711 105.779 453.711 103.619C453.711 102.259 454.451 100.799 456.651 100.259C454.911 99.9791 454.111 98.6791 454.111 97.1391C454.111 95.1191 455.691 93.4591 458.631 93.4591C461.551 93.4591 463.151 95.1191 463.151 97.1191C463.151 98.6791 462.231 99.9791 460.511 100.259C462.711 100.799 463.551 102.259 463.551 103.619C463.551 105.779 461.951 107.259 458.631 107.259ZM458.631 99.5591C460.371 99.5591 461.331 98.6191 461.331 97.3391C461.331 96.1791 460.551 95.0991 458.631 95.0991C456.711 95.0991 455.951 96.1791 455.951 97.3391C455.951 98.6191 456.691 99.5591 458.631 99.5591ZM458.631 105.619C460.971 105.619 461.531 104.519 461.531 103.319C461.531 101.979 460.571 100.959 458.631 100.959C456.691 100.959 455.731 101.979 455.731 103.319C455.731 104.519 456.291 105.619 458.631 105.619Z" fill="#323232"/>
<path d="M569.783 107.059H568.423L569.383 103.539H567.383V102.319H569.703L570.723 98.4991H568.403V97.2791H571.043L572.023 93.6591H573.383L572.403 97.2791H575.643L576.623 93.6591H577.983L577.003 97.2791H579.003V98.4991H576.683L575.663 102.319H577.983V103.539H575.323L574.383 107.059H573.023L573.983 103.539H570.723L569.783 107.059ZM572.083 98.4991L571.063 102.319H574.303L575.323 98.4991H572.083ZM582.97 107.059H581.23V93.6591H590.21V95.1991H582.97V99.9991H588.91V101.539H582.97V107.059ZM593.556 107.059H591.816V93.6591H600.796V95.1991H593.556V99.9991H599.496V101.539H593.556V107.059ZM607.142 107.059H602.402V93.6591H607.142C611.362 93.6591 613.462 96.1191 613.462 100.359C613.462 104.599 611.362 107.059 607.142 107.059ZM606.862 95.1991H604.142V105.519H606.862C609.902 105.519 611.662 104.179 611.662 100.359C611.662 96.5391 609.902 95.1991 606.862 95.1991ZM620.638 107.059H615.898V93.6591H620.638C624.858 93.6591 626.958 96.1191 626.958 100.359C626.958 104.599 624.858 107.059 620.638 107.059ZM620.358 95.1991H617.638V105.519H620.358C623.398 105.519 625.158 104.179 625.158 100.359C625.158 96.5391 623.398 95.1991 620.358 95.1991ZM635.174 107.219C631.114 107.219 628.894 104.199 628.894 100.339C628.894 96.4791 631.114 93.4591 635.174 93.4591C638.174 93.4591 640.194 95.0591 641.054 97.8191L639.494 98.8391C639.054 96.5991 637.734 95.0991 635.194 95.0991C632.134 95.0991 630.734 97.2791 630.734 100.339C630.734 103.399 632.134 105.579 635.194 105.579C637.734 105.579 639.054 104.079 639.494 101.839L641.054 102.859C640.194 105.619 638.174 107.219 635.174 107.219ZM648.116 107.259C645.196 107.259 643.096 105.719 643.096 100.419V100.179C643.096 95.8191 644.976 93.4591 648.276 93.4591C650.296 93.4591 651.776 94.5391 652.556 96.1191L651.056 97.3591C650.556 96.0191 649.556 95.1391 648.136 95.1391C646.516 95.1391 644.936 96.1791 644.936 100.359V101.819C645.156 99.5591 646.616 98.2591 648.796 98.2591C651.536 98.2591 652.736 100.239 652.736 102.679C652.736 105.279 650.856 107.259 648.116 107.259ZM648.076 105.599C649.816 105.599 650.896 104.379 650.896 102.779C650.896 101.019 650.036 99.8791 648.116 99.8791C646.376 99.8791 645.136 100.759 645.136 102.499C645.136 104.679 646.276 105.599 648.076 105.599Z" fill="#323232"/>
<path d="M755.73 107.059H754.37L755.33 103.539H753.33V102.319H755.65L756.67 98.4991H754.35V97.2791H756.99L757.97 93.6591H759.33L758.35 97.2791H761.59L762.57 93.6591H763.93L762.95 97.2791H764.95V98.4991H762.63L761.61 102.319H763.93V103.539H761.27L760.33 107.059H758.97L759.93 103.539H756.67L755.73 107.059ZM758.03 98.4991L757.01 102.319H760.25L761.27 98.4991H758.03ZM768.917 107.059H767.177V93.6591H776.157V95.1991H768.917V99.9991H774.857V101.539H768.917V107.059ZM779.503 107.059H777.763V93.6591H786.743V95.1991H779.503V99.9991H785.443V101.539H779.503V107.059ZM797.509 107.059H788.349V93.6591H797.509V95.1991H790.089V99.4191H796.209V100.959H790.089V105.519H797.509V107.059ZM804.373 107.259C801.033 107.259 799.453 105.779 799.453 103.619C799.453 102.259 800.193 100.799 802.393 100.259C800.653 99.9791 799.853 98.6791 799.853 97.1391C799.853 95.1191 801.433 93.4591 804.373 93.4591C807.293 93.4591 808.893 95.1191 808.893 97.1191C808.893 98.6791 807.973 99.9791 806.253 100.259C808.453 100.799 809.293 102.259 809.293 103.619C809.293 105.779 807.693 107.259 804.373 107.259ZM804.373 99.5591C806.113 99.5591 807.073 98.6191 807.073 97.3391C807.073 96.1791 806.293 95.0991 804.373 95.0991C802.453 95.0991 801.693 96.1791 801.693 97.3391C801.693 98.6191 802.433 99.5591 804.373 99.5591ZM804.373 105.619C806.713 105.619 807.273 104.519 807.273 103.319C807.273 101.979 806.313 100.959 804.373 100.959C802.433 100.959 801.473 101.979 801.473 103.319C801.473 104.519 802.033 105.619 804.373 105.619ZM816.663 107.059H811.923V93.6591H816.663C820.883 93.6591 822.983 96.1191 822.983 100.359C822.983 104.599 820.883 107.059 816.663 107.059ZM816.383 95.1991H813.663V105.519H816.383C819.423 105.519 821.183 104.179 821.183 100.359C821.183 96.5391 819.423 95.1991 816.383 95.1991ZM830.138 107.259C827.218 107.259 825.118 105.719 825.118 100.419V100.179C825.118 95.8191 826.998 93.4591 830.298 93.4591C832.318 93.4591 833.798 94.5391 834.578 96.1191L833.078 97.3591C832.578 96.0191 831.578 95.1391 830.158 95.1391C828.538 95.1391 826.958 96.1791 826.958 100.359V101.819C827.178 99.5591 828.638 98.2591 830.818 98.2591C833.558 98.2591 834.758 100.239 834.758 102.679C834.758 105.279 832.878 107.259 830.138 107.259ZM830.098 105.599C831.838 105.599 832.918 104.379 832.918 102.779C832.918 101.019 832.058 99.8791 830.138 99.8791C828.398 99.8791 827.158 100.759 827.158 102.499C827.158 104.679 828.298 105.599 830.098 105.599Z" fill="#323232"/>
<path d="M941.677 107.059H940.317L941.277 103.539H939.277V102.319H941.597L942.617 98.4991H940.297V97.2791H942.937L943.917 93.6591H945.277L944.297 97.2791H947.537L948.517 93.6591H949.877L948.897 97.2791H950.897V98.4991H948.577L947.557 102.319H949.877V103.539H947.217L946.277 107.059H944.917L945.877 103.539H942.617L941.677 107.059ZM943.977 98.4991L942.957 102.319H946.197L947.217 98.4991H943.977ZM954.864 107.059H953.124V93.6591H962.104V95.1991H954.864V99.9991H960.804V101.539H954.864V107.059ZM965.45 107.059H963.71V93.6591H972.69V95.1991H965.45V99.9991H971.39V101.539H965.45V107.059ZM976.036 107.059H974.296V93.6591H983.276V95.1991H976.036V99.9991H981.976V101.539H976.036V107.059ZM993.33 107.059H991.59V103.859H984.85V102.499L991.59 93.6591H993.33V102.319H995.73V103.859H993.33V107.059ZM986.83 102.319H991.59V96.1791L986.83 102.319ZM1006.91 107.059H997.753V93.6591H1006.91V95.1991H999.493V99.4191H1005.61V100.959H999.493V105.519H1006.91V107.059ZM1013.78 107.259C1010.44 107.259 1008.86 105.779 1008.86 103.619C1008.86 102.259 1009.6 100.799 1011.8 100.259C1010.06 99.9791 1009.26 98.6791 1009.26 97.1391C1009.26 95.1191 1010.84 93.4591 1013.78 93.4591C1016.7 93.4591 1018.3 95.1191 1018.3 97.1191C1018.3 98.6791 1017.38 99.9791 1015.66 100.259C1017.86 100.799 1018.7 102.259 1018.7 103.619C1018.7 105.779 1017.1 107.259 1013.78 107.259ZM1013.78 99.5591C1015.52 99.5591 1016.48 98.6191 1016.48 97.3391C1016.48 96.1791 1015.7 95.0991 1013.78 95.0991C1011.86 95.0991 1011.1 96.1791 1011.1 97.3391C1011.1 98.6191 1011.84 99.5591 1013.78 99.5591ZM1013.78 105.619C1016.12 105.619 1016.68 104.519 1016.68 103.319C1016.68 101.979 1015.72 100.959 1013.78 100.959C1011.84 100.959 1010.88 101.979 1010.88 103.319C1010.88 104.519 1011.44 105.619 1013.78 105.619Z" fill="#323232"/>
<path d="M197.889 107.059H196.529L197.489 103.539H195.489V102.319H197.809L198.829 98.4991H196.509V97.2791H199.149L200.129 93.6591H201.489L200.509 97.2791H203.749L204.729 93.6591H206.089L205.109 97.2791H207.109V98.4991H204.789L203.769 102.319H206.089V103.539H203.429L202.489 107.059H201.129L202.089 103.539H198.829L197.889 107.059ZM200.189 98.4991L199.169 102.319H202.409L203.429 98.4991H200.189ZM211.076 107.059H209.336V93.6591H218.316V95.1991H211.076V99.9991H217.016V101.539H211.076V107.059ZM225.482 107.059H219.922V93.6591H225.582C228.142 93.6591 229.502 95.0391 229.502 97.0791C229.502 98.5191 228.562 99.8191 226.322 100.059C229.122 100.359 230.102 101.739 230.102 103.459C230.102 105.739 228.382 107.059 225.482 107.059ZM224.982 95.1991H221.662V99.3991H225.062C226.602 99.3991 227.702 98.9191 227.702 97.2991C227.702 95.6991 226.582 95.1991 224.982 95.1991ZM225.262 100.959H221.662V105.519H225.202C227.322 105.519 228.302 104.839 228.302 103.239C228.302 101.619 227.002 100.959 225.262 100.959ZM237.137 107.259C233.797 107.259 232.217 105.779 232.217 103.619C232.217 102.259 232.957 100.799 235.157 100.259C233.417 99.9791 232.617 98.6791 232.617 97.1391C232.617 95.1191 234.197 93.4591 237.137 93.4591C240.057 93.4591 241.657 95.1191 241.657 97.1191C241.657 98.6791 240.737 99.9791 239.017 100.259C241.217 100.799 242.057 102.259 242.057 103.619C242.057 105.779 240.457 107.259 237.137 107.259ZM237.137 99.5591C238.877 99.5591 239.837 98.6191 239.837 97.3391C239.837 96.1791 239.057 95.0991 237.137 95.0991C235.217 95.0991 234.457 96.1791 234.457 97.3391C234.457 98.6191 235.197 99.5591 237.137 99.5591ZM237.137 105.619C239.477 105.619 240.037 104.519 240.037 103.319C240.037 101.979 239.077 100.959 237.137 100.959C235.197 100.959 234.237 101.979 234.237 103.319C234.237 104.519 234.797 105.619 237.137 105.619ZM249.261 107.259C246.861 107.259 245.041 105.919 244.361 104.219L245.761 102.739C246.241 104.479 247.441 105.599 249.321 105.599C251.161 105.599 252.081 104.499 252.081 102.759C252.081 100.579 250.601 99.7591 249.141 99.7591C247.681 99.7591 246.681 100.399 246.601 101.299L246.581 101.519L244.861 101.339L245.281 93.6591H252.901V95.2991H247.001L246.641 100.439C247.061 99.2591 248.121 98.3191 249.881 98.3191C252.541 98.3191 253.921 100.179 253.921 102.759C253.921 105.479 252.181 107.259 249.261 107.259ZM263.936 107.059H262.196V103.859H255.456V102.499L262.196 93.6591H263.936V102.319H266.336V103.859H263.936V107.059ZM257.436 102.319H262.196V96.1791L257.436 102.319ZM268.779 107.059H266.939L272.339 93.6591H274.079L279.479 107.059H277.559L276.099 103.319H270.239L268.779 107.059ZM272.499 97.5391L270.839 101.779H275.499L273.839 97.5391L273.179 95.4391L272.499 97.5391Z" fill="#323232"/>
<path d="M0.804199 5.78662C0.804199 3.0252 3.04278 0.786621 5.8042 0.786621H152.676C155.438 0.786621 157.676 3.0252 157.676 5.78662V82.8013H0.804199V5.78662Z" fill="#FC7634"/>
<path d="M1.3042 83.3013H157.176V115.316C157.176 117.802 155.162 119.816 152.676 119.816H5.8042C3.31892 119.816 1.3042 117.802 1.3042 115.316V83.3013Z" stroke="black"/>
<path d="M372.698 5.78662C372.698 3.0252 374.937 0.786621 377.698 0.786621H524.57C527.332 0.786621 529.57 3.0252 529.57 5.78662V82.8013H372.698V5.78662Z" fill="#FB8E58"/>
<path d="M558.646 5.78662C558.646 3.0252 560.884 0.786621 563.646 0.786621H710.518C713.279 0.786621 715.518 3.0252 715.518 5.78662V82.8013H558.646V5.78662Z" fill="#FFDDC6"/>
<path d="M373.198 83.3013H529.07V115.316C529.07 117.802 527.056 119.816 524.57 119.816H377.698C375.213 119.816 373.198 117.802 373.198 115.316V83.3013Z" stroke="black"/>
<path d="M744.593 5.78662C744.593 3.0252 746.831 0.786621 749.593 0.786621H896.465C899.226 0.786621 901.465 3.0252 901.465 5.78662V82.8013H744.593V5.78662Z" fill="#FFE8D6"/>
<path d="M559.146 83.3013H715.018V115.316C715.018 117.802 713.003 119.816 710.518 119.816H563.646C561.16 119.816 559.146 117.802 559.146 115.316V83.3013Z" stroke="black"/>
<path d="M745.093 83.3013H900.965V115.316C900.965 117.802 898.95 119.816 896.465 119.816H749.593C747.107 119.816 745.093 117.802 745.093 115.316V83.3013Z" stroke="black"/>
<path d="M930.54 5.78662C930.54 3.0252 932.779 0.786621 935.54 0.786621H1082.41C1085.17 0.786621 1087.41 3.0252 1087.41 5.78662V82.8013H930.54V5.78662Z" fill="#FFF4E8"/>
<path d="M186.751 5.78662C186.751 3.0252 188.99 0.786621 191.751 0.786621H338.623C341.384 0.786621 343.623 3.0252 343.623 5.78662V82.8013H186.751V5.78662Z" fill="#FB854A"/>
<path d="M931.04 83.3013H1086.91V115.316C1086.91 117.802 1084.9 119.816 1082.41 119.816H935.54C933.055 119.816 931.04 117.802 931.04 115.316V83.3013Z" stroke="black"/>
<path d="M187.251 83.3013H343.123V115.316C343.123 117.802 341.108 119.816 338.623 119.816H191.751C189.266 119.816 187.251 117.802 187.251 115.316V83.3013Z" stroke="black"/>
</svg>
