<svg width="904" height="121" viewBox="0 0 904 121" fill="none" xmlns="http://www.w3.org/2000/svg">
<path d="M11.1376 106.942H9.7776L10.7376 103.422H8.7376V102.202H11.0576L12.0776 98.3824H9.7576V97.1624H12.3976L13.3776 93.5424H14.7376L13.7576 97.1624H16.9976L17.9776 93.5424H19.3376L18.3576 97.1624H20.3576V98.3824H18.0376L17.0176 102.202H19.3376V103.422H16.6776L15.7376 106.942H14.3776L15.3376 103.422H12.0776L11.1376 106.942ZM13.4376 98.3824L12.4176 102.202H15.6576L16.6776 98.3824H13.4376ZM25.9049 106.942H24.1649V95.9424H21.7649V94.7424C22.8449 94.7424 23.8049 94.4224 24.4449 93.5424H25.9049V106.942ZM30.4773 106.942H28.7373V93.5424H37.7173V95.0824H30.4773V99.8824H36.4173V101.422H30.4773V106.942ZM43.151 106.942H41.411V95.9424H39.011V94.7424C40.091 94.7424 41.051 94.4224 41.691 93.5424H43.151V106.942ZM47.7234 106.942H45.9834V93.5424H54.9634V95.0824H47.7234V99.8824H53.6634V101.422H47.7234V106.942ZM66.2371 106.942H57.1171V105.582L61.4971 101.262C62.9571 99.8224 64.0971 98.5824 64.0971 97.1024C64.0971 96.0224 63.4971 95.0224 61.9771 95.0224C59.7371 95.0224 58.4771 96.4624 58.8171 99.1224L57.1971 98.1024C56.9171 95.4624 59.0171 93.3424 62.0971 93.3424C64.7171 93.3424 65.8971 94.9224 65.8971 96.9824C65.8971 99.1824 63.7971 101.182 62.5771 102.342L60.4971 104.302L59.0571 105.522L60.6971 105.402H66.2371V106.942ZM72.9867 107.142C70.0667 107.142 67.9667 105.602 67.9667 100.302V100.062C67.9667 95.7024 69.8467 93.3424 73.1467 93.3424C75.1667 93.3424 76.6467 94.4224 77.4267 96.0024L75.9267 97.2424C75.4267 95.9024 74.4267 95.0224 73.0067 95.0224C71.3867 95.0224 69.8067 96.0624 69.8067 100.242V101.702C70.0267 99.4424 71.4867 98.1424 73.6667 98.1424C76.4067 98.1424 77.6067 100.122 77.6067 102.562C77.6067 105.162 75.7267 107.142 72.9867 107.142ZM72.9467 105.482C74.6867 105.482 75.7667 104.262 75.7667 102.662C75.7667 100.902 74.9067 99.7624 72.9867 99.7624C71.2467 99.7624 70.0067 100.642 70.0067 102.382C70.0067 104.562 71.1467 105.482 72.9467 105.482Z" fill="#323232"/>
<path d="M197.888 106.942H196.528L197.488 103.422H195.488V102.202H197.808L198.828 98.3824H196.508V97.1624H199.148L200.128 93.5424H201.488L200.508 97.1624H203.748L204.728 93.5424H206.088L205.108 97.1624H207.108V98.3824H204.788L203.768 102.202H206.088V103.422H203.428L202.488 106.942H201.128L202.088 103.422H198.828L197.888 106.942ZM200.188 98.3824L199.168 102.202H202.408L203.428 98.3824H200.188ZM213.975 107.142C211.055 107.142 208.955 105.602 208.955 100.302V100.062C208.955 95.7024 210.835 93.3424 214.135 93.3424C216.155 93.3424 217.635 94.4224 218.415 96.0024L216.915 97.2424C216.415 95.9024 215.415 95.0224 213.995 95.0224C212.375 95.0224 210.795 96.0624 210.795 100.242V101.702C211.015 99.4424 212.475 98.1424 214.655 98.1424C217.395 98.1424 218.595 100.122 218.595 102.562C218.595 105.162 216.715 107.142 213.975 107.142ZM213.935 105.482C215.675 105.482 216.755 104.262 216.755 102.662C216.755 100.902 215.895 99.7624 213.975 99.7624C212.235 99.7624 210.995 100.642 210.995 102.382C210.995 104.562 212.135 105.482 213.935 105.482ZM223.393 106.942H221.493C221.493 100.282 224.353 97.3024 226.553 95.1824H219.353V93.5424H228.133V95.5224C225.173 98.3424 223.393 101.242 223.393 106.942ZM234.034 107.142C231.114 107.142 229.014 105.602 229.014 100.302V100.062C229.014 95.7024 230.894 93.3424 234.194 93.3424C236.214 93.3424 237.694 94.4224 238.474 96.0024L236.974 97.2424C236.474 95.9024 235.474 95.0224 234.054 95.0224C232.434 95.0224 230.854 96.0624 230.854 100.242V101.702C231.074 99.4424 232.534 98.1424 234.714 98.1424C237.454 98.1424 238.654 100.122 238.654 102.562C238.654 105.162 236.774 107.142 234.034 107.142ZM233.994 105.482C235.734 105.482 236.814 104.262 236.814 102.662C236.814 100.902 235.954 99.7624 234.034 99.7624C232.294 99.7624 231.054 100.642 231.054 102.382C231.054 104.562 232.194 105.482 233.994 105.482ZM247.029 107.102C242.969 107.102 240.749 104.082 240.749 100.222C240.749 96.3624 242.969 93.3424 247.029 93.3424C250.029 93.3424 252.049 94.9424 252.909 97.7024L251.349 98.7224C250.909 96.4824 249.589 94.9824 247.049 94.9824C243.989 94.9824 242.589 97.1624 242.589 100.222C242.589 103.282 243.989 105.462 247.049 105.462C249.589 105.462 250.909 103.962 251.349 101.722L252.909 102.742C252.049 105.502 250.029 107.102 247.029 107.102ZM258.452 106.942H256.552C256.552 100.282 259.412 97.3024 261.612 95.1824H254.412V93.5424H263.192V95.5224C260.232 98.3424 258.452 101.242 258.452 106.942ZM270.872 106.942H265.312V93.5424H270.972C273.532 93.5424 274.892 94.9224 274.892 96.9624C274.892 98.4024 273.952 99.7024 271.712 99.9424C274.512 100.242 275.492 101.622 275.492 103.342C275.492 105.622 273.772 106.942 270.872 106.942ZM270.372 95.0824H267.052V99.2824H270.452C271.992 99.2824 273.092 98.8024 273.092 97.1824C273.092 95.5824 271.972 95.0824 270.372 95.0824ZM270.652 100.842H267.052V105.402H270.592C272.712 105.402 273.692 104.722 273.692 103.122C273.692 101.502 272.392 100.842 270.652 100.842Z" fill="#323232"/>
<path d="M384.439 107.313H383.079L384.039 103.793H382.039V102.573H384.359L385.379 98.7535H383.059V97.5335H385.699L386.679 93.9135H388.039L387.059 97.5335H390.299L391.279 93.9135H392.639L391.659 97.5335H393.659V98.7535H391.339L390.319 102.573H392.639V103.793H389.979L389.039 107.313H387.679L388.639 103.793H385.379L384.439 107.313ZM386.739 98.7535L385.719 102.573H388.959L389.979 98.7535H386.739ZM399.006 107.313H397.106C397.106 100.653 399.966 97.6735 402.166 95.5535H394.966V93.9135H403.746V95.8935C400.786 98.7135 399.006 101.613 399.006 107.313ZM411.627 107.473C407.567 107.473 405.347 104.453 405.347 100.593C405.347 96.7335 407.567 93.7135 411.627 93.7135C414.627 93.7135 416.647 95.3135 417.507 98.0735L415.947 99.0935C415.507 96.8535 414.187 95.3535 411.647 95.3535C408.587 95.3535 407.187 97.5335 407.187 100.593C407.187 103.653 408.587 105.833 411.647 105.833C414.187 105.833 415.507 104.333 415.947 102.093L417.507 103.113C416.647 105.873 414.627 107.473 411.627 107.473ZM423.049 107.313H421.149C421.149 100.653 424.009 97.6735 426.209 95.5535H419.009V93.9135H427.789V95.8935C424.829 98.7135 423.049 101.613 423.049 107.313ZM434.65 107.313H429.91V93.9135H434.65C438.87 93.9135 440.97 96.3735 440.97 100.613C440.97 104.853 438.87 107.313 434.65 107.313ZM434.37 95.4535H431.65V105.773H434.37C437.41 105.773 439.17 104.433 439.17 100.613C439.17 96.7935 437.41 95.4535 434.37 95.4535ZM448.004 107.513C444.664 107.513 443.084 106.033 443.084 103.873C443.084 102.513 443.824 101.053 446.024 100.513C444.284 100.233 443.484 98.9335 443.484 97.3935C443.484 95.3735 445.064 93.7135 448.004 93.7135C450.924 93.7135 452.524 95.3735 452.524 97.3735C452.524 98.9335 451.604 100.233 449.884 100.513C452.084 101.053 452.924 102.513 452.924 103.873C452.924 106.033 451.324 107.513 448.004 107.513ZM448.004 99.8135C449.744 99.8135 450.704 98.8735 450.704 97.5935C450.704 96.4335 449.924 95.3535 448.004 95.3535C446.084 95.3535 445.324 96.4335 445.324 97.5935C445.324 98.8735 446.064 99.8135 448.004 99.8135ZM448.004 105.873C450.344 105.873 450.904 104.773 450.904 103.573C450.904 102.233 449.944 101.213 448.004 101.213C446.064 101.213 445.104 102.233 445.104 103.573C445.104 104.773 445.664 105.873 448.004 105.873ZM460.258 107.513C456.578 107.513 454.858 104.493 454.858 100.593C454.858 96.7335 456.578 93.7135 460.258 93.7135C463.918 93.7135 465.638 96.7335 465.638 100.593C465.638 104.493 463.918 107.513 460.258 107.513ZM460.278 105.853C462.918 105.853 463.818 103.673 463.818 100.593C463.818 97.5535 462.918 95.3535 460.278 95.3535C457.618 95.3535 456.698 97.5535 456.698 100.593C456.698 103.673 457.618 105.853 460.278 105.853Z" fill="#323232"/>
<path d="M758.137 106.942H756.777L757.737 103.422H755.737V102.202H758.057L759.077 98.3824H756.757V97.1624H759.397L760.377 93.5424H761.737L760.757 97.1624H763.997L764.977 93.5424H766.337L765.357 97.1624H767.357V98.3824H765.037L764.017 102.202H766.337V103.422H763.677L762.737 106.942H761.377L762.337 103.422H759.077L758.137 106.942ZM760.437 98.3824L759.417 102.202H762.657L763.677 98.3824H760.437ZM774.384 107.142C771.484 107.142 769.784 105.422 769.344 103.402L770.824 102.082C771.224 104.122 772.084 105.482 774.604 105.482C776.324 105.482 777.304 104.662 777.304 103.302C777.304 101.702 776.044 100.982 774.184 100.982H772.004V99.4824H774.204C775.884 99.4824 776.724 98.7624 776.724 97.3624C776.724 96.0824 775.964 95.0224 774.244 95.0224C772.524 95.0224 771.284 96.0024 771.044 97.8424L769.564 96.6024C770.124 94.7824 771.884 93.3424 774.284 93.3424C777.384 93.3424 778.544 95.2624 778.544 96.9824C778.544 98.3624 777.524 99.7824 775.824 100.022C778.264 100.222 779.144 101.742 779.144 103.482C779.144 105.662 777.304 107.142 774.384 107.142ZM787.351 106.942H781.791V93.5424H787.451C790.011 93.5424 791.371 94.9224 791.371 96.9624C791.371 98.4024 790.431 99.7024 788.191 99.9424C790.991 100.242 791.971 101.622 791.971 103.342C791.971 105.622 790.251 106.942 787.351 106.942ZM786.851 95.0824H783.531V99.2824H786.931C788.471 99.2824 789.571 98.8024 789.571 97.1824C789.571 95.5824 788.451 95.0824 786.851 95.0824ZM787.131 100.842H783.531V105.402H787.071C789.191 105.402 790.171 104.722 790.171 103.122C790.171 101.502 788.871 100.842 787.131 100.842ZM799.607 107.142C797.207 107.142 795.387 105.802 794.707 104.102L796.107 102.622C796.587 104.362 797.787 105.482 799.667 105.482C801.507 105.482 802.427 104.382 802.427 102.642C802.427 100.462 800.947 99.6424 799.487 99.6424C798.027 99.6424 797.027 100.282 796.947 101.182L796.927 101.402L795.207 101.222L795.627 93.5424H803.247V95.1824H797.347L796.987 100.322C797.407 99.1424 798.467 98.2024 800.227 98.2024C802.887 98.2024 804.267 100.062 804.267 102.642C804.267 105.362 802.527 107.142 799.607 107.142ZM812.449 106.942H806.889V93.5424H812.549C815.109 93.5424 816.469 94.9224 816.469 96.9624C816.469 98.4024 815.529 99.7024 813.289 99.9424C816.089 100.242 817.069 101.622 817.069 103.342C817.069 105.622 815.349 106.942 812.449 106.942ZM811.949 95.0824H808.629V99.2824H812.029C813.569 99.2824 814.669 98.8024 814.669 97.1824C814.669 95.5824 813.549 95.0824 811.949 95.0824ZM812.229 100.842H808.629V105.402H812.169C814.289 105.402 815.269 104.722 815.269 103.122C815.269 101.502 813.969 100.842 812.229 100.842ZM824.324 106.942H819.584V93.5424H824.324C828.544 93.5424 830.644 96.0024 830.644 100.242C830.644 104.482 828.544 106.942 824.324 106.942ZM824.044 95.0824H821.324V105.402H824.044C827.084 105.402 828.844 104.062 828.844 100.242C828.844 96.4224 827.084 95.0824 824.044 95.0824ZM838.279 107.142C835.879 107.142 834.059 105.802 833.379 104.102L834.779 102.622C835.259 104.362 836.459 105.482 838.339 105.482C840.179 105.482 841.099 104.382 841.099 102.642C841.099 100.462 839.619 99.6424 838.159 99.6424C836.699 99.6424 835.699 100.282 835.619 101.182L835.599 101.402L833.879 101.222L834.299 93.5424H841.919V95.1824H836.019L835.659 100.322C836.079 99.1424 837.139 98.2024 838.899 98.2024C841.559 98.2024 842.939 100.062 842.939 102.642C842.939 105.362 841.199 107.142 838.279 107.142Z" fill="#323232"/>
<path d="M571.439 106.942H570.079L571.039 103.422H569.039V102.202H571.359L572.379 98.3824H570.059V97.1624H572.699L573.679 93.5424H575.039L574.059 97.1624H577.299L578.279 93.5424H579.639L578.659 97.1624H580.659V98.3824H578.339L577.319 102.202H579.639V103.422H576.979L576.039 106.942H574.679L575.639 103.422H572.379L571.439 106.942ZM573.739 98.3824L572.719 102.202H575.959L576.979 98.3824H573.739ZM584.626 106.942H582.886V93.5424H591.866V95.0824H584.626V99.8824H590.566V101.422H584.626V106.942ZM598.86 107.142C595.18 107.142 593.46 104.122 593.46 100.222C593.46 96.3624 595.18 93.3424 598.86 93.3424C602.52 93.3424 604.24 96.3624 604.24 100.222C604.24 104.122 602.52 107.142 598.86 107.142ZM598.88 105.482C601.52 105.482 602.42 103.302 602.42 100.222C602.42 97.1824 601.52 94.9824 598.88 94.9824C596.22 94.9824 595.3 97.1824 595.3 100.222C595.3 103.302 596.22 105.482 598.88 105.482ZM608.513 106.942H606.773V93.5424H615.753V95.0824H608.513V99.8824H614.453V101.422H608.513V106.942ZM627.027 106.942H617.907V105.582L622.287 101.262C623.747 99.8224 624.887 98.5824 624.887 97.1024C624.887 96.0224 624.287 95.0224 622.767 95.0224C620.527 95.0224 619.267 96.4624 619.607 99.1224L617.987 98.1024C617.707 95.4624 619.807 93.3424 622.887 93.3424C625.507 93.3424 626.687 94.9224 626.687 96.9824C626.687 99.1824 624.587 101.182 623.367 102.342L621.287 104.302L619.847 105.522L621.487 105.402H627.027V106.942ZM631.208 106.942H629.468V93.5424H638.448V95.0824H631.208V99.8824H637.148V101.422H631.208V106.942ZM645.682 107.142C643.282 107.142 641.462 105.802 640.782 104.102L642.182 102.622C642.662 104.362 643.862 105.482 645.742 105.482C647.582 105.482 648.502 104.382 648.502 102.642C648.502 100.462 647.022 99.6424 645.562 99.6424C644.102 99.6424 643.102 100.282 643.022 101.182L643.002 101.402L641.282 101.222L641.702 93.5424H649.322V95.1824H643.422L643.062 100.322C643.482 99.1424 644.542 98.2024 646.302 98.2024C648.962 98.2024 650.342 100.062 650.342 102.642C650.342 105.362 648.602 107.142 645.682 107.142Z" fill="#323232"/>
<path d="M0 5.66992C0 2.9085 2.23858 0.669922 5 0.669922H151.872C154.633 0.669922 156.872 2.9085 156.872 5.66992V82.6846H0V5.66992Z" fill="#1F1F26"/>
<path d="M0.5 83.1846H156.372V115.2C156.372 117.685 154.357 119.7 151.872 119.7H5C2.51472 119.7 0.5 117.685 0.5 115.2V83.1846Z" stroke="black"/>
<path d="M186.751 5.66992C186.751 2.9085 188.99 0.669922 191.751 0.669922H338.623C341.384 0.669922 343.623 2.9085 343.623 5.66992V82.6846H186.751V5.66992Z" fill="#676C7B"/>
<path d="M187.251 83.1846H343.123V115.2C343.123 117.685 341.108 119.7 338.623 119.7H191.751C189.266 119.7 187.251 117.685 187.251 115.2V83.1846Z" stroke="black"/>
<path d="M373.302 6.04101C373.302 3.27959 375.54 1.04102 378.302 1.04102H525.174C527.935 1.04102 530.174 3.27959 530.174 6.04102V83.0557H373.302V6.04101Z" fill="#7C7D80"/>
<path d="M373.802 83.5557H529.674V115.571C529.674 118.056 527.659 120.071 525.174 120.071H378.302C375.816 120.071 373.802 118.056 373.802 115.571V83.5557Z" stroke="black"/>
<path d="M747.5 5.66992C747.5 3.18464 749.515 1.16992 752 1.16992H898.872C901.357 1.16992 903.372 3.18464 903.372 5.66992V82.1846H747.5V5.66992Z" fill="white" stroke="black"/>
<path d="M747.5 83.1846H903.372V115.2C903.372 117.685 901.357 119.7 898.872 119.7H752C749.515 119.7 747.5 117.685 747.5 115.2V83.1846Z" stroke="black"/>
<path d="M560.302 5.66992C560.302 2.9085 562.54 0.669922 565.302 0.669922H712.174C714.935 0.669922 717.174 2.9085 717.174 5.66992V82.6846H560.302V5.66992Z" fill="#F0F2F5"/>
<path d="M560.802 83.1846H716.674V115.2C716.674 117.685 714.659 119.7 712.174 119.7H565.302C562.816 119.7 560.802 117.685 560.802 115.2V83.1846Z" stroke="black"/>
</svg>
