<svg width="715" height="120" viewBox="0 0 715 120" fill="none" xmlns="http://www.w3.org/2000/svg">
<path d="M569.137 106.272H567.777L568.737 102.752H566.737V101.532H569.057L570.077 97.7125H567.757V96.4925H570.397L571.377 92.8725H572.737L571.757 96.4925H574.997L575.977 92.8725H577.337L576.357 96.4925H578.357V97.7125H576.037L575.017 101.532H577.337V102.752H574.677L573.737 106.272H572.377L573.337 102.752H570.077L569.137 106.272ZM571.437 97.7125L570.417 101.532H573.657L574.677 97.7125H571.437ZM585.464 106.472C581.784 106.472 580.064 103.452 580.064 99.5525C580.064 95.6925 581.784 92.6725 585.464 92.6725C589.124 92.6725 590.844 95.6925 590.844 99.5525C590.844 103.452 589.124 106.472 585.464 106.472ZM585.484 104.812C588.124 104.812 589.024 102.632 589.024 99.5525C589.024 96.5125 588.124 94.3125 585.484 94.3125C582.824 94.3125 581.904 96.5125 581.904 99.5525C581.904 102.632 582.824 104.812 585.484 104.812ZM598.199 106.472C594.519 106.472 592.799 103.452 592.799 99.5525C592.799 95.6925 594.519 92.6725 598.199 92.6725C601.859 92.6725 603.579 95.6925 603.579 99.5525C603.579 103.452 601.859 106.472 598.199 106.472ZM598.219 104.812C600.859 104.812 601.759 102.632 601.759 99.5525C601.759 96.5125 600.859 94.3125 598.219 94.3125C595.559 94.3125 594.639 96.5125 594.639 99.5525C594.639 102.632 595.559 104.812 598.219 104.812ZM609.801 106.472C607.761 106.472 606.281 105.392 605.501 103.812L606.981 102.572C607.501 103.912 608.501 104.792 609.941 104.792C611.541 104.792 613.121 103.752 613.121 99.5725V98.1125C612.901 100.372 611.421 101.672 609.261 101.672C606.521 101.672 605.321 99.6925 605.321 97.2525C605.321 94.6525 607.201 92.6725 609.941 92.6725C612.861 92.6725 614.961 94.2125 614.961 99.5125V99.9725C614.961 104.132 613.121 106.472 609.801 106.472ZM609.941 100.052C611.681 100.052 612.901 99.1725 612.901 97.4325C612.901 95.2525 611.761 94.3325 609.981 94.3325C608.241 94.3325 607.141 95.5525 607.141 97.1525C607.141 98.9125 608.021 100.052 609.941 100.052ZM622.431 106.472C619.511 106.472 617.411 104.932 617.411 99.6325V99.3925C617.411 95.0325 619.291 92.6725 622.591 92.6725C624.611 92.6725 626.091 93.7525 626.871 95.3325L625.371 96.5725C624.871 95.2325 623.871 94.3525 622.451 94.3525C620.831 94.3525 619.251 95.3925 619.251 99.5725V101.032C619.471 98.7725 620.931 97.4725 623.111 97.4725C625.851 97.4725 627.051 99.4525 627.051 101.892C627.051 104.492 625.171 106.472 622.431 106.472ZM622.391 104.812C624.131 104.812 625.211 103.592 625.211 101.992C625.211 100.232 624.351 99.0925 622.431 99.0925C620.691 99.0925 619.451 99.9725 619.451 101.712C619.451 103.892 620.591 104.812 622.391 104.812ZM633.258 106.472C631.218 106.472 629.738 105.392 628.958 103.812L630.438 102.572C630.958 103.912 631.958 104.792 633.398 104.792C634.998 104.792 636.578 103.752 636.578 99.5725V98.1125C636.358 100.372 634.878 101.672 632.718 101.672C629.978 101.672 628.778 99.6925 628.778 97.2525C628.778 94.6525 630.658 92.6725 633.398 92.6725C636.318 92.6725 638.418 94.2125 638.418 99.5125V99.9725C638.418 104.132 636.578 106.472 633.258 106.472ZM633.398 100.052C635.138 100.052 636.358 99.1725 636.358 97.4325C636.358 95.2525 635.218 94.3325 633.438 94.3325C631.698 94.3325 630.598 95.5525 630.598 97.1525C630.598 98.9125 631.478 100.052 633.398 100.052ZM646.73 106.272H641.17V92.8725H646.83C649.39 92.8725 650.75 94.2525 650.75 96.2925C650.75 97.7325 649.81 99.0325 647.57 99.2725C650.37 99.5725 651.35 100.952 651.35 102.672C651.35 104.952 649.63 106.272 646.73 106.272ZM646.23 94.4125H642.91V98.6125H646.31C647.85 98.6125 648.95 98.1325 648.95 96.5125C648.95 94.9125 647.83 94.4125 646.23 94.4125ZM646.51 100.172H642.91V104.732H646.45C648.57 104.732 649.55 104.052 649.55 102.452C649.55 100.832 648.25 100.172 646.51 100.172Z" fill="#323232"/>
<path d="M11.1376 106.272H9.7776L10.7376 102.752H8.7376V101.532H11.0576L12.0776 97.7125H9.7576V96.4925H12.3976L13.3776 92.8725H14.7376L13.7576 96.4925H16.9976L17.9776 92.8725H19.3376L18.3576 96.4925H20.3576V97.7125H18.0376L17.0176 101.532H19.3376V102.752H16.6776L15.7376 106.272H14.3776L15.3376 102.752H12.0776L11.1376 106.272ZM13.4376 97.7125L12.4176 101.532H15.6576L16.6776 97.7125H13.4376ZM30.5249 106.272H28.7849V103.072H22.0449V101.712L28.7849 92.8725H30.5249V101.532H32.9249V103.072H30.5249V106.272ZM24.0249 101.532H28.7849V95.3925L24.0249 101.532ZM39.5353 106.472C35.8553 106.472 34.1353 103.452 34.1353 99.5525C34.1353 95.6925 35.8553 92.6725 39.5353 92.6725C43.1953 92.6725 44.9153 95.6925 44.9153 99.5525C44.9153 103.452 43.1953 106.472 39.5353 106.472ZM39.5553 104.812C42.1953 104.812 43.0953 102.632 43.0953 99.5525C43.0953 96.5125 42.1953 94.3125 39.5553 94.3125C36.8953 94.3125 35.9753 96.5125 35.9753 99.5525C35.9753 102.632 36.8953 104.812 39.5553 104.812ZM49.5135 106.272H47.6135C47.6135 99.6125 50.4735 96.6325 52.6735 94.5125H45.4735V92.8725H54.2535V94.8525C51.2935 97.6725 49.5135 100.572 49.5135 106.272ZM61.934 106.272H56.374V92.8725H62.034C64.594 92.8725 65.954 94.2525 65.954 96.2925C65.954 97.7325 65.014 99.0325 62.774 99.2725C65.574 99.5725 66.554 100.952 66.554 102.672C66.554 104.952 64.834 106.272 61.934 106.272ZM61.434 94.4125H58.114V98.6125H61.514C63.054 98.6125 64.154 98.1325 64.154 96.5125C64.154 94.9125 63.034 94.4125 61.434 94.4125ZM61.714 100.172H58.114V104.732H61.654C63.774 104.732 64.754 104.052 64.754 102.452C64.754 100.832 63.454 100.172 61.714 100.172ZM78.2293 106.272H69.0693V92.8725H78.2293V94.4125H70.8093V98.6325H76.9293V100.172H70.8093V104.732H78.2293V106.272ZM83.6932 106.272H81.7932C81.7932 99.6125 84.6532 96.6325 86.8532 94.5125H79.6532V92.8725H88.4332V94.8525C85.4732 97.6725 83.6932 100.572 83.6932 106.272Z" fill="#323232"/>
<path d="M197.138 106.272H195.778L196.738 102.752H194.738V101.532H197.058L198.078 97.7125H195.758V96.4925H198.398L199.378 92.8725H200.738L199.758 96.4925H202.998L203.978 92.8725H205.338L204.358 96.4925H206.358V97.7125H204.038L203.018 101.532H205.338V102.752H202.678L201.738 106.272H200.378L201.338 102.752H198.078L197.138 106.272ZM199.438 97.7125L198.418 101.532H201.658L202.678 97.7125H199.438ZM216.525 106.272H214.785V103.072H208.045V101.712L214.785 92.8725H216.525V101.532H218.925V103.072H216.525V106.272ZM210.025 101.532H214.785V95.3925L210.025 101.532ZM226.708 106.432C222.648 106.432 220.428 103.412 220.428 99.5525C220.428 95.6925 222.648 92.6725 226.708 92.6725C229.708 92.6725 231.728 94.2725 232.588 97.0325L231.028 98.0525C230.588 95.8125 229.268 94.3125 226.728 94.3125C223.668 94.3125 222.268 96.4925 222.268 99.5525C222.268 102.612 223.668 104.792 226.728 104.792C229.268 104.792 230.588 103.292 231.028 101.052L232.588 102.072C231.728 104.832 229.708 106.432 226.708 106.432ZM240.322 106.432C236.262 106.432 234.042 103.412 234.042 99.5525C234.042 95.6925 236.262 92.6725 240.322 92.6725C243.322 92.6725 245.342 94.2725 246.202 97.0325L244.642 98.0525C244.202 95.8125 242.882 94.3125 240.342 94.3125C237.282 94.3125 235.882 96.4925 235.882 99.5525C235.882 102.612 237.282 104.792 240.342 104.792C242.882 104.792 244.202 103.292 244.642 101.052L246.202 102.072C245.342 104.832 243.322 106.432 240.322 106.432ZM253.744 106.472C251.344 106.472 249.524 105.132 248.844 103.432L250.244 101.952C250.724 103.692 251.924 104.812 253.804 104.812C255.644 104.812 256.564 103.712 256.564 101.972C256.564 99.7925 255.084 98.9725 253.624 98.9725C252.164 98.9725 251.164 99.6125 251.084 100.512L251.064 100.732L249.344 100.552L249.764 92.8725H257.384V94.5125H251.484L251.124 99.6525C251.544 98.4725 252.604 97.5325 254.364 97.5325C257.024 97.5325 258.404 99.3925 258.404 101.972C258.404 104.692 256.664 106.472 253.744 106.472ZM264.403 106.472C262.363 106.472 260.883 105.392 260.103 103.812L261.583 102.572C262.103 103.912 263.103 104.792 264.543 104.792C266.143 104.792 267.723 103.752 267.723 99.5725V98.1125C267.503 100.372 266.023 101.672 263.863 101.672C261.123 101.672 259.923 99.6925 259.923 97.2525C259.923 94.6525 261.803 92.6725 264.543 92.6725C267.463 92.6725 269.563 94.2125 269.563 99.5125V99.9725C269.563 104.132 267.723 106.472 264.403 106.472ZM264.543 100.052C266.283 100.052 267.503 99.1725 267.503 97.4325C267.503 95.2525 266.363 94.3325 264.583 94.3325C262.843 94.3325 261.743 95.5525 261.743 97.1525C261.743 98.9125 262.623 100.052 264.543 100.052ZM277.195 106.472C273.515 106.472 271.795 103.452 271.795 99.5525C271.795 95.6925 273.515 92.6725 277.195 92.6725C280.855 92.6725 282.575 95.6925 282.575 99.5525C282.575 103.452 280.855 106.472 277.195 106.472ZM277.215 104.812C279.855 104.812 280.755 102.632 280.755 99.5525C280.755 96.5125 279.855 94.3125 277.215 94.3125C274.555 94.3125 273.635 96.5125 273.635 99.5525C273.635 102.632 274.555 104.812 277.215 104.812Z" fill="#323232"/>
<path d="M383.137 106.272H381.777L382.737 102.752H380.737V101.532H383.057L384.077 97.7125H381.757V96.4925H384.397L385.377 92.8725H386.737L385.757 96.4925H388.997L389.977 92.8725H391.337L390.357 96.4925H392.357V97.7125H390.037L389.017 101.532H391.337V102.752H388.677L387.737 106.272H386.377L387.337 102.752H384.077L383.137 106.272ZM385.437 97.7125L384.417 101.532H387.657L388.677 97.7125H385.437ZM396.324 106.272H394.584V92.8725H403.564V94.4125H396.324V99.2125H402.264V100.752H396.324V106.272ZM410.318 106.472C407.398 106.472 405.298 104.932 405.298 99.6325V99.3925C405.298 95.0325 407.178 92.6725 410.478 92.6725C412.498 92.6725 413.978 93.7525 414.758 95.3325L413.258 96.5725C412.758 95.2325 411.758 94.3525 410.338 94.3525C408.718 94.3525 407.138 95.3925 407.138 99.5725V101.032C407.358 98.7725 408.818 97.4725 410.998 97.4725C413.738 97.4725 414.938 99.4525 414.938 101.892C414.938 104.492 413.058 106.472 410.318 106.472ZM410.278 104.812C412.018 104.812 413.098 103.592 413.098 101.992C413.098 100.232 412.238 99.0925 410.318 99.0925C408.578 99.0925 407.338 99.9725 407.338 101.712C407.338 103.892 408.478 104.812 410.278 104.812ZM422.439 106.472C420.039 106.472 418.219 105.132 417.539 103.432L418.939 101.952C419.419 103.692 420.619 104.812 422.499 104.812C424.339 104.812 425.259 103.712 425.259 101.972C425.259 99.7925 423.779 98.9725 422.319 98.9725C420.859 98.9725 419.859 99.6125 419.779 100.512L419.759 100.732L418.039 100.552L418.459 92.8725H426.079V94.5125H420.179L419.819 99.6525C420.239 98.4725 421.299 97.5325 423.059 97.5325C425.719 97.5325 427.099 99.3925 427.099 101.972C427.099 104.692 425.359 106.472 422.439 106.472ZM435.481 106.432C431.421 106.432 429.201 103.412 429.201 99.5525C429.201 95.6925 431.421 92.6725 435.481 92.6725C438.481 92.6725 440.501 94.2725 441.361 97.0325L439.801 98.0525C439.361 95.8125 438.041 94.3125 435.501 94.3125C432.441 94.3125 431.041 96.4925 431.041 99.5525C431.041 102.612 432.441 104.792 435.501 104.792C438.041 104.792 439.361 103.292 439.801 101.052L441.361 102.072C440.501 104.832 438.481 106.432 435.481 106.432ZM448.584 106.472C445.684 106.472 443.984 104.752 443.544 102.732L445.024 101.412C445.424 103.452 446.284 104.812 448.804 104.812C450.524 104.812 451.504 103.992 451.504 102.632C451.504 101.032 450.244 100.312 448.384 100.312H446.204V98.8125H448.404C450.084 98.8125 450.924 98.0925 450.924 96.6925C450.924 95.4125 450.164 94.3525 448.444 94.3525C446.724 94.3525 445.484 95.3325 445.244 97.1725L443.764 95.9325C444.324 94.1125 446.084 92.6725 448.484 92.6725C451.584 92.6725 452.744 94.5925 452.744 96.3125C452.744 97.6925 451.724 99.1125 450.024 99.3525C452.464 99.5525 453.344 101.072 453.344 102.812C453.344 104.992 451.504 106.472 448.584 106.472ZM463.56 106.272H461.82V103.072H455.08V101.712L461.82 92.8725H463.56V101.532H465.96V103.072H463.56V106.272ZM457.06 101.532H461.82V95.3925L457.06 101.532Z" fill="#323232"/>
<path d="M558 5C558 2.23858 560.239 0 563 0H709.872C712.633 0 714.872 2.23858 714.872 5V82.0146H558V5Z" fill="#00969B"/>
<path d="M0 5C0 2.23858 2.23858 0 5 0H151.872C154.633 0 156.872 2.23858 156.872 5V82.0146H0V5Z" fill="#407BE7"/>
<path d="M558.5 82.5146H714.372V114.53C714.372 117.015 712.357 119.03 709.872 119.03H563C560.515 119.03 558.5 117.015 558.5 114.53V82.5146Z" stroke="black"/>
<path d="M186 5C186 2.23858 188.239 0 191 0H337.872C340.633 0 342.872 2.23858 342.872 5V82.0146H186V5Z" fill="#4CC590"/>
<path d="M0.5 82.5146H156.372V114.53C156.372 117.015 154.357 119.03 151.872 119.03H5C2.51472 119.03 0.5 117.015 0.5 114.53V82.5146Z" stroke="black"/>
<path d="M186.5 82.5146H342.372V114.53C342.372 117.015 340.357 119.03 337.872 119.03H191C188.515 119.03 186.5 117.015 186.5 114.53V82.5146Z" stroke="black"/>
<path d="M372 5C372 2.23858 374.239 0 377 0H523.872C526.633 0 528.872 2.23858 528.872 5V82.0146H372V5Z" fill="#F65C34"/>
<path d="M372.5 82.5146H528.372V114.53C528.372 117.015 526.357 119.03 523.872 119.03H377C374.515 119.03 372.5 117.015 372.5 114.53V82.5146Z" stroke="black"/>
</svg>
