<svg width="424" height="200" viewBox="0 0 424 200" fill="none" xmlns="http://www.w3.org/2000/svg">
<rect x="104.5" y="19.9341" width="84.2383" height="29" rx="4.5" fill="white"/>
<path d="M122.119 30.8267V38.5396" stroke="#00A029" stroke-linecap="round"/>
<path d="M125.976 34.6826L118.263 34.6826" stroke="#00A029" stroke-linecap="round"/>
<circle cx="122.119" cy="34.4341" r="7.61914" stroke="#00A029"/>
<path d="M138.735 39.9341V30.1313H141.524C142.372 30.1313 143.044 30.3387 143.541 30.7534C144.038 31.1681 144.286 31.7082 144.286 32.3735C144.286 32.9295 144.136 33.4126 143.835 33.8228C143.534 34.2329 143.119 34.5246 142.591 34.6978V34.7251C143.252 34.8026 143.78 35.0532 144.177 35.4771C144.573 35.8963 144.771 36.4432 144.771 37.1177C144.771 37.9562 144.471 38.6353 143.869 39.1548C143.268 39.6743 142.509 39.9341 141.593 39.9341H138.735ZM139.884 31.1704V34.3354H141.06C141.688 34.3354 142.183 34.1851 142.543 33.8843C142.903 33.5789 143.083 33.1506 143.083 32.5991C143.083 31.6466 142.456 31.1704 141.203 31.1704H139.884ZM139.884 35.3677V38.895H141.442C142.117 38.895 142.639 38.7355 143.008 38.4165C143.382 38.0975 143.568 37.66 143.568 37.104C143.568 35.9465 142.78 35.3677 141.203 35.3677H139.884ZM152.271 39.9341H151.149V38.8267H151.122C150.657 39.6743 149.937 40.0981 148.962 40.0981C147.294 40.0981 146.46 39.1047 146.46 37.1177V32.9341H147.574V36.9399C147.574 38.4165 148.139 39.1548 149.27 39.1548C149.816 39.1548 150.265 38.9543 150.616 38.5532C150.972 38.1476 151.149 37.619 151.149 36.9673V32.9341H152.271V39.9341ZM157.787 39.8657C157.523 40.0116 157.174 40.0845 156.741 40.0845C155.515 40.0845 154.902 39.4009 154.902 38.0337V33.8911H153.699V32.9341H154.902V31.2251L156.023 30.8628V32.9341H157.787V33.8911H156.023V37.8354C156.023 38.3049 156.103 38.6398 156.263 38.8403C156.422 39.0409 156.687 39.1411 157.056 39.1411C157.338 39.1411 157.582 39.0636 157.787 38.9087V39.8657ZM162.531 39.8657C162.267 40.0116 161.918 40.0845 161.485 40.0845C160.259 40.0845 159.646 39.4009 159.646 38.0337V33.8911H158.443V32.9341H159.646V31.2251L160.768 30.8628V32.9341H162.531V33.8911H160.768V37.8354C160.768 38.3049 160.847 38.6398 161.007 38.8403C161.166 39.0409 161.431 39.1411 161.8 39.1411C162.082 39.1411 162.326 39.0636 162.531 38.9087V39.8657ZM166.954 40.0981C165.92 40.0981 165.092 39.7723 164.473 39.1206C163.857 38.4644 163.55 37.5962 163.55 36.5161C163.55 35.3403 163.871 34.422 164.514 33.7612C165.156 33.1004 166.024 32.77 167.118 32.77C168.162 32.77 168.975 33.0913 169.559 33.7339C170.146 34.3765 170.44 35.2674 170.44 36.4067C170.44 37.5233 170.124 38.4188 169.49 39.0933C168.861 39.7632 168.016 40.0981 166.954 40.0981ZM167.036 33.7134C166.316 33.7134 165.746 33.9595 165.327 34.4517C164.908 34.9393 164.698 35.6138 164.698 36.4751C164.698 37.3045 164.91 37.9585 165.334 38.437C165.758 38.9155 166.325 39.1548 167.036 39.1548C167.761 39.1548 168.317 38.9201 168.704 38.4507C169.096 37.9813 169.292 37.3136 169.292 36.4478C169.292 35.5728 169.096 34.8983 168.704 34.4243C168.317 33.9504 167.761 33.7134 167.036 33.7134ZM178.042 39.9341H176.921V35.9419C176.921 34.4562 176.379 33.7134 175.294 33.7134C174.733 33.7134 174.269 33.9253 173.899 34.3491C173.535 34.7684 173.353 35.2993 173.353 35.9419V39.9341H172.231V32.9341H173.353V34.0962H173.38C173.909 33.2121 174.674 32.77 175.677 32.77C176.442 32.77 177.028 33.0184 177.434 33.5151C177.839 34.0073 178.042 34.7205 178.042 35.6548V39.9341Z" fill="#676C7B"/>
<rect x="104.5" y="19.9341" width="84.2383" height="29" rx="4.5" stroke="#E0E0E0"/>
<rect x="20" y="109.434" width="76" height="30" rx="5" fill="#407BE7"/>
<path d="M37.5621 129.434V119.564H41.5101C42.5554 119.564 43.3627 119.788 43.9321 120.236C44.5014 120.684 44.7861 121.319 44.7861 122.14C44.7861 122.756 44.5994 123.269 44.2261 123.68C43.8621 124.091 43.3534 124.361 42.7001 124.492V124.296C43.4281 124.38 43.9974 124.632 44.4081 125.052C44.8281 125.463 45.0381 126.018 45.0381 126.718C45.0381 127.595 44.7441 128.267 44.1561 128.734C43.5774 129.201 42.7561 129.434 41.6921 129.434H37.5621ZM38.6961 128.496H41.5801C42.2894 128.496 42.8494 128.361 43.2601 128.09C43.6801 127.81 43.8901 127.348 43.8901 126.704C43.8901 126.051 43.6801 125.589 43.2601 125.318C42.8494 125.038 42.2894 124.898 41.5801 124.898H38.6961V128.496ZM38.6961 123.974H41.3421C42.1074 123.974 42.6814 123.825 43.0641 123.526C43.4467 123.227 43.6381 122.798 43.6381 122.238C43.6381 121.659 43.4467 121.225 43.0641 120.936C42.6814 120.637 42.1074 120.488 41.3421 120.488H38.6961V123.974ZM49.4297 129.56C48.599 129.56 47.969 129.331 47.5397 128.874C47.1197 128.417 46.9097 127.717 46.9097 126.774V122.406H48.0437V126.746C48.0437 127.39 48.1744 127.866 48.4357 128.174C48.697 128.473 49.103 128.622 49.6537 128.622C50.2697 128.622 50.7644 128.421 51.1377 128.02C51.511 127.619 51.6977 127.082 51.6977 126.41V122.406H52.8317V129.434H51.7257V127.852H51.9077C51.7117 128.393 51.3944 128.813 50.9557 129.112C50.5264 129.411 50.0177 129.56 49.4297 129.56ZM57.5238 129.56C56.8331 129.56 56.3058 129.364 55.9418 128.972C55.5778 128.571 55.3958 127.969 55.3958 127.166V123.288H54.0238V122.406H55.3958V120.488L56.5298 120.166V122.406H58.5458V123.288H56.5298V127.04C56.5298 127.6 56.6231 128.001 56.8098 128.244C57.0058 128.477 57.2951 128.594 57.6778 128.594C57.8551 128.594 58.0138 128.58 58.1538 128.552C58.2938 128.515 58.4198 128.473 58.5318 128.426V129.378C58.4011 129.434 58.2424 129.476 58.0558 129.504C57.8784 129.541 57.7011 129.56 57.5238 129.56ZM62.2406 129.56C61.5499 129.56 61.0226 129.364 60.6586 128.972C60.2946 128.571 60.1126 127.969 60.1126 127.166V123.288H58.7406V122.406H60.1126V120.488L61.2466 120.166V122.406H63.2626V123.288H61.2466V127.04C61.2466 127.6 61.3399 128.001 61.5266 128.244C61.7226 128.477 62.0119 128.594 62.3946 128.594C62.5719 128.594 62.7306 128.58 62.8706 128.552C63.0106 128.515 63.1366 128.473 63.2486 128.426V129.378C63.1179 129.434 62.9592 129.476 62.7726 129.504C62.5952 129.541 62.4179 129.56 62.2406 129.56ZM67.4588 129.56C66.7868 129.56 66.1988 129.415 65.6948 129.126C65.2001 128.827 64.8174 128.407 64.5468 127.866C64.2761 127.315 64.1408 126.667 64.1408 125.92C64.1408 125.164 64.2761 124.515 64.5468 123.974C64.8174 123.433 65.2001 123.017 65.6948 122.728C66.1988 122.429 66.7868 122.28 67.4588 122.28C68.1401 122.28 68.7281 122.429 69.2228 122.728C69.7268 123.017 70.1141 123.433 70.3848 123.974C70.6648 124.515 70.8048 125.164 70.8048 125.92C70.8048 126.667 70.6648 127.315 70.3848 127.866C70.1141 128.407 69.7268 128.827 69.2228 129.126C68.7281 129.415 68.1401 129.56 67.4588 129.56ZM67.4588 128.636C68.1308 128.636 68.6628 128.407 69.0548 127.95C69.4468 127.483 69.6428 126.807 69.6428 125.92C69.6428 125.024 69.4421 124.347 69.0408 123.89C68.6488 123.423 68.1214 123.19 67.4588 123.19C66.7961 123.19 66.2688 123.423 65.8768 123.89C65.4848 124.347 65.2888 125.024 65.2888 125.92C65.2888 126.807 65.4848 127.483 65.8768 127.95C66.2688 128.407 66.7961 128.636 67.4588 128.636ZM72.5728 129.434V124.03C72.5728 123.769 72.5588 123.503 72.5308 123.232C72.5121 122.952 72.4888 122.677 72.4608 122.406H73.5528L73.6928 123.946H73.5248C73.7301 123.405 74.0568 122.994 74.5048 122.714C74.9621 122.425 75.4895 122.28 76.0868 122.28C76.9175 122.28 77.5428 122.504 77.9628 122.952C78.3921 123.391 78.6068 124.086 78.6068 125.038V129.434H77.4728V125.108C77.4728 124.445 77.3375 123.965 77.0668 123.666C76.8055 123.358 76.3948 123.204 75.8348 123.204C75.1815 123.204 74.6635 123.405 74.2808 123.806C73.8981 124.207 73.7068 124.744 73.7068 125.416V129.434H72.5728Z" fill="white"/>
<rect x="113.5" y="109.934" width="79" height="29" rx="4.5" fill="white"/>
<path d="M132.562 129.434V119.564H136.51C137.555 119.564 138.363 119.788 138.932 120.236C139.501 120.684 139.786 121.319 139.786 122.14C139.786 122.756 139.599 123.269 139.226 123.68C138.862 124.091 138.353 124.361 137.7 124.492V124.296C138.428 124.38 138.997 124.632 139.408 125.052C139.828 125.463 140.038 126.018 140.038 126.718C140.038 127.595 139.744 128.267 139.156 128.734C138.577 129.201 137.756 129.434 136.692 129.434H132.562ZM133.696 128.496H136.58C137.289 128.496 137.849 128.361 138.26 128.09C138.68 127.81 138.89 127.348 138.89 126.704C138.89 126.051 138.68 125.589 138.26 125.318C137.849 125.038 137.289 124.898 136.58 124.898H133.696V128.496ZM133.696 123.974H136.342C137.107 123.974 137.681 123.825 138.064 123.526C138.447 123.227 138.638 122.798 138.638 122.238C138.638 121.659 138.447 121.225 138.064 120.936C137.681 120.637 137.107 120.488 136.342 120.488H133.696V123.974ZM144.43 129.56C143.599 129.56 142.969 129.331 142.54 128.874C142.12 128.417 141.91 127.717 141.91 126.774V122.406H143.044V126.746C143.044 127.39 143.174 127.866 143.436 128.174C143.697 128.473 144.103 128.622 144.654 128.622C145.27 128.622 145.764 128.421 146.138 128.02C146.511 127.619 146.698 127.082 146.698 126.41V122.406H147.832V129.434H146.726V127.852H146.908C146.712 128.393 146.394 128.813 145.956 129.112C145.526 129.411 145.018 129.56 144.43 129.56ZM152.524 129.56C151.833 129.56 151.306 129.364 150.942 128.972C150.578 128.571 150.396 127.969 150.396 127.166V123.288H149.024V122.406H150.396V120.488L151.53 120.166V122.406H153.546V123.288H151.53V127.04C151.53 127.6 151.623 128.001 151.81 128.244C152.006 128.477 152.295 128.594 152.678 128.594C152.855 128.594 153.014 128.58 153.154 128.552C153.294 128.515 153.42 128.473 153.532 128.426V129.378C153.401 129.434 153.242 129.476 153.056 129.504C152.878 129.541 152.701 129.56 152.524 129.56ZM157.241 129.56C156.55 129.56 156.023 129.364 155.659 128.972C155.295 128.571 155.113 127.969 155.113 127.166V123.288H153.741V122.406H155.113V120.488L156.247 120.166V122.406H158.263V123.288H156.247V127.04C156.247 127.6 156.34 128.001 156.527 128.244C156.723 128.477 157.012 128.594 157.395 128.594C157.572 128.594 157.731 128.58 157.871 128.552C158.011 128.515 158.137 128.473 158.249 128.426V129.378C158.118 129.434 157.959 129.476 157.773 129.504C157.595 129.541 157.418 129.56 157.241 129.56ZM162.459 129.56C161.787 129.56 161.199 129.415 160.695 129.126C160.2 128.827 159.817 128.407 159.547 127.866C159.276 127.315 159.141 126.667 159.141 125.92C159.141 125.164 159.276 124.515 159.547 123.974C159.817 123.433 160.2 123.017 160.695 122.728C161.199 122.429 161.787 122.28 162.459 122.28C163.14 122.28 163.728 122.429 164.223 122.728C164.727 123.017 165.114 123.433 165.385 123.974C165.665 124.515 165.805 125.164 165.805 125.92C165.805 126.667 165.665 127.315 165.385 127.866C165.114 128.407 164.727 128.827 164.223 129.126C163.728 129.415 163.14 129.56 162.459 129.56ZM162.459 128.636C163.131 128.636 163.663 128.407 164.055 127.95C164.447 127.483 164.643 126.807 164.643 125.92C164.643 125.024 164.442 124.347 164.041 123.89C163.649 123.423 163.121 123.19 162.459 123.19C161.796 123.19 161.269 123.423 160.877 123.89C160.485 124.347 160.289 125.024 160.289 125.92C160.289 126.807 160.485 127.483 160.877 127.95C161.269 128.407 161.796 128.636 162.459 128.636ZM167.573 129.434V124.03C167.573 123.769 167.559 123.503 167.531 123.232C167.512 122.952 167.489 122.677 167.461 122.406H168.553L168.693 123.946H168.525C168.73 123.405 169.057 122.994 169.505 122.714C169.962 122.425 170.489 122.28 171.087 122.28C171.917 122.28 172.543 122.504 172.963 122.952C173.392 123.391 173.607 124.086 173.607 125.038V129.434H172.473V125.108C172.473 124.445 172.337 123.965 172.067 123.666C171.805 123.358 171.395 123.204 170.835 123.204C170.181 123.204 169.663 123.405 169.281 123.806C168.898 124.207 168.707 124.744 168.707 125.416V129.434H167.573Z" fill="#262626"/>
<rect x="113.5" y="109.934" width="79" height="29" rx="4.5" stroke="#D9D9D9"/>
<rect x="313.5" y="19.9341" width="84" height="29" rx="4.5" fill="white"/>
<path d="M329.5 33.9341C329.776 33.9341 330 34.1579 330 34.4341V40.4341C330 40.7102 329.776 40.9341 329.5 40.9341C329.224 40.9341 329 40.7102 329 40.4341V34.4341C329 34.1579 329.224 33.9341 329.5 33.9341Z" fill="#FF4140"/>
<path d="M332 33.9341C332.276 33.9341 332.5 34.1579 332.5 34.4341V40.4341C332.5 40.7102 332.276 40.9341 332 40.9341C331.724 40.9341 331.5 40.7102 331.5 40.4341V34.4341C331.5 34.1579 331.724 33.9341 332 33.9341Z" fill="#FF4140"/>
<path d="M335 34.4341C335 34.1579 334.776 33.9341 334.5 33.9341C334.224 33.9341 334 34.1579 334 34.4341V40.4341C334 40.7102 334.224 40.9341 334.5 40.9341C334.776 40.9341 335 40.7102 335 40.4341V34.4341Z" fill="#FF4140"/>
<path fill-rule="evenodd" clip-rule="evenodd" d="M338.5 31.4341C338.5 31.9864 338.052 32.4341 337.5 32.4341H337V41.4341C337 42.5387 336.105 43.4341 335 43.4341H329C327.895 43.4341 327 42.5387 327 41.4341V32.4341H326.5C325.948 32.4341 325.5 31.9864 325.5 31.4341V30.4341C325.5 29.8818 325.948 29.4341 326.5 29.4341H330C330 28.8818 330.448 28.4341 331 28.4341H333C333.552 28.4341 334 28.8818 334 29.4341H337.5C338.052 29.4341 338.5 29.8818 338.5 30.4341V31.4341ZM328.118 32.4341L328 32.4931V41.4341C328 41.9864 328.448 42.4341 329 42.4341H335C335.552 42.4341 336 41.9864 336 41.4341V32.4931L335.882 32.4341H328.118ZM326.5 31.4341V30.4341H337.5V31.4341H326.5Z" fill="#FF4140"/>
<path d="M347.497 40.4341V30.6313H350.286C351.134 30.6313 351.806 30.8387 352.303 31.2534C352.799 31.6681 353.048 32.2082 353.048 32.8735C353.048 33.4295 352.897 33.9126 352.597 34.3228C352.296 34.7329 351.881 35.0246 351.353 35.1978V35.2251C352.013 35.3026 352.542 35.5532 352.938 35.9771C353.335 36.3963 353.533 36.9432 353.533 37.6177C353.533 38.4562 353.232 39.1353 352.631 39.6548C352.029 40.1743 351.271 40.4341 350.354 40.4341H347.497ZM348.646 31.6704V34.8354H349.821C350.45 34.8354 350.945 34.6851 351.305 34.3843C351.665 34.0789 351.845 33.6506 351.845 33.0991C351.845 32.1466 351.218 31.6704 349.965 31.6704H348.646ZM348.646 35.8677V39.395H350.204C350.879 39.395 351.4 39.2355 351.77 38.9165C352.143 38.5975 352.33 38.16 352.33 37.604C352.33 36.4465 351.542 35.8677 349.965 35.8677H348.646ZM361.032 40.4341H359.911V39.3267H359.884C359.419 40.1743 358.699 40.5981 357.724 40.5981C356.056 40.5981 355.222 39.6047 355.222 37.6177V33.4341H356.336V37.4399C356.336 38.9165 356.901 39.6548 358.031 39.6548C358.578 39.6548 359.027 39.4543 359.378 39.0532C359.733 38.6476 359.911 38.119 359.911 37.4673V33.4341H361.032V40.4341ZM366.549 40.3657C366.285 40.5116 365.936 40.5845 365.503 40.5845C364.277 40.5845 363.664 39.9009 363.664 38.5337V34.3911H362.461V33.4341H363.664V31.7251L364.785 31.3628V33.4341H366.549V34.3911H364.785V38.3354C364.785 38.8049 364.865 39.1398 365.024 39.3403C365.184 39.5409 365.448 39.6411 365.817 39.6411C366.1 39.6411 366.344 39.5636 366.549 39.4087V40.3657ZM371.293 40.3657C371.029 40.5116 370.68 40.5845 370.247 40.5845C369.021 40.5845 368.408 39.9009 368.408 38.5337V34.3911H367.205V33.4341H368.408V31.7251L369.529 31.3628V33.4341H371.293V34.3911H369.529V38.3354C369.529 38.8049 369.609 39.1398 369.769 39.3403C369.928 39.5409 370.192 39.6411 370.562 39.6411C370.844 39.6411 371.088 39.5636 371.293 39.4087V40.3657ZM375.716 40.5981C374.681 40.5981 373.854 40.2723 373.234 39.6206C372.619 38.9644 372.312 38.0962 372.312 37.0161C372.312 35.8403 372.633 34.922 373.275 34.2612C373.918 33.6004 374.786 33.27 375.88 33.27C376.924 33.27 377.737 33.5913 378.32 34.2339C378.908 34.8765 379.202 35.7674 379.202 36.9067C379.202 38.0233 378.885 38.9188 378.252 39.5933C377.623 40.2632 376.778 40.5981 375.716 40.5981ZM375.798 34.2134C375.078 34.2134 374.508 34.4595 374.089 34.9517C373.67 35.4393 373.46 36.1138 373.46 36.9751C373.46 37.8045 373.672 38.4585 374.096 38.937C374.52 39.4155 375.087 39.6548 375.798 39.6548C376.522 39.6548 377.078 39.4201 377.466 38.9507C377.858 38.4813 378.054 37.8136 378.054 36.9478C378.054 36.0728 377.858 35.3983 377.466 34.9243C377.078 34.4504 376.522 34.2134 375.798 34.2134ZM386.804 40.4341H385.683V36.4419C385.683 34.9562 385.14 34.2134 384.056 34.2134C383.495 34.2134 383.03 34.4253 382.661 34.8491C382.297 35.2684 382.114 35.7993 382.114 36.4419V40.4341H380.993V33.4341H382.114V34.5962H382.142C382.67 33.7121 383.436 33.27 384.438 33.27C385.204 33.27 385.79 33.5184 386.195 34.0151C386.601 34.5073 386.804 35.2205 386.804 36.1548V40.4341Z" fill="#E8505B"/>
<rect x="313.5" y="19.9341" width="84" height="29" rx="4.5" stroke="#E8505B"/>
<rect x="19.5" y="20.9341" width="65" height="29" rx="4.5" fill="white"/>
<path d="M32.4971 40.9341V31.1313H35.2861C36.1338 31.1313 36.806 31.3387 37.3027 31.7534C37.7995 32.1681 38.0479 32.7082 38.0479 33.3735C38.0479 33.9295 37.8975 34.4126 37.5967 34.8228C37.2959 35.2329 36.8812 35.5246 36.3525 35.6978V35.7251C37.0133 35.8026 37.542 36.0532 37.9385 36.4771C38.335 36.8963 38.5332 37.4432 38.5332 38.1177C38.5332 38.9562 38.2324 39.6353 37.6309 40.1548C37.0293 40.6743 36.2705 40.9341 35.3545 40.9341H32.4971ZM33.6455 32.1704V35.3354H34.8213C35.4502 35.3354 35.9447 35.1851 36.3047 34.8843C36.6647 34.5789 36.8447 34.1506 36.8447 33.5991C36.8447 32.6466 36.2181 32.1704 34.9648 32.1704H33.6455ZM33.6455 36.3677V39.895H35.2041C35.8786 39.895 36.4004 39.7355 36.7695 39.4165C37.1432 39.0975 37.3301 38.66 37.3301 38.104C37.3301 36.9465 36.5417 36.3677 34.9648 36.3677H33.6455ZM46.0322 40.9341H44.9111V39.8267H44.8838C44.4189 40.6743 43.6989 41.0981 42.7236 41.0981C41.0557 41.0981 40.2217 40.1047 40.2217 38.1177V33.9341H41.3359V37.9399C41.3359 39.4165 41.901 40.1548 43.0312 40.1548C43.5781 40.1548 44.027 39.9543 44.3779 39.5532C44.7334 39.1476 44.9111 38.619 44.9111 37.9673V33.9341H46.0322V40.9341ZM51.5488 40.8657C51.2845 41.0116 50.9359 41.0845 50.5029 41.0845C49.277 41.0845 48.6641 40.4009 48.6641 39.0337V34.8911H47.4609V33.9341H48.6641V32.2251L49.7852 31.8628V33.9341H51.5488V34.8911H49.7852V38.8354C49.7852 39.3049 49.8649 39.6398 50.0244 39.8403C50.1839 40.0409 50.4482 40.1411 50.8174 40.1411C51.0999 40.1411 51.3438 40.0636 51.5488 39.9087V40.8657ZM56.293 40.8657C56.0286 41.0116 55.68 41.0845 55.2471 41.0845C54.0212 41.0845 53.4082 40.4009 53.4082 39.0337V34.8911H52.2051V33.9341H53.4082V32.2251L54.5293 31.8628V33.9341H56.293V34.8911H54.5293V38.8354C54.5293 39.3049 54.609 39.6398 54.7686 39.8403C54.9281 40.0409 55.1924 40.1411 55.5615 40.1411C55.8441 40.1411 56.0879 40.0636 56.293 39.9087V40.8657ZM60.7158 41.0981C59.6813 41.0981 58.8542 40.7723 58.2344 40.1206C57.6191 39.4644 57.3115 38.5962 57.3115 37.5161C57.3115 36.3403 57.6328 35.422 58.2754 34.7612C58.918 34.1004 59.7861 33.77 60.8799 33.77C61.9235 33.77 62.737 34.0913 63.3203 34.7339C63.9082 35.3765 64.2021 36.2674 64.2021 37.4067C64.2021 38.5233 63.8854 39.4188 63.252 40.0933C62.623 40.7632 61.7777 41.0981 60.7158 41.0981ZM60.7979 34.7134C60.0778 34.7134 59.5081 34.9595 59.0889 35.4517C58.6696 35.9393 58.46 36.6138 58.46 37.4751C58.46 38.3045 58.6719 38.9585 59.0957 39.437C59.5195 39.9155 60.0869 40.1548 60.7979 40.1548C61.5225 40.1548 62.0785 39.9201 62.4658 39.4507C62.8577 38.9813 63.0537 38.3136 63.0537 37.4478C63.0537 36.5728 62.8577 35.8983 62.4658 35.4243C62.0785 34.9504 61.5225 34.7134 60.7979 34.7134ZM71.8037 40.9341H70.6826V36.9419C70.6826 35.4562 70.1403 34.7134 69.0557 34.7134C68.4951 34.7134 68.0303 34.9253 67.6611 35.3491C67.2965 35.7684 67.1143 36.2993 67.1143 36.9419V40.9341H65.9932V33.9341H67.1143V35.0962H67.1416C67.6702 34.2121 68.4359 33.77 69.4385 33.77C70.2041 33.77 70.7897 34.0184 71.1953 34.5151C71.6009 35.0073 71.8037 35.7205 71.8037 36.6548V40.9341Z" fill="#407BE7"/>
<rect x="19.5" y="20.9341" width="65" height="29" rx="4.5" stroke="#407BE7"/>
<rect x="209.5" y="19.9341" width="83" height="29" rx="4.5" fill="white"/>
<path d="M233.854 26.5805C233.995 26.722 234.039 26.9341 233.964 27.1198L228.146 41.6669C227.919 42.2344 227.145 42.3066 226.817 41.791L223.638 36.7963L218.643 33.6178C218.128 33.2897 218.2 32.5157 218.767 32.2887L233.315 26.4699C233.5 26.3956 233.712 26.4391 233.854 26.5805ZM224.637 36.504L227.398 40.8426L232.131 29.0101L224.637 36.504ZM231.424 28.303L219.592 33.036L223.93 35.7969L231.424 28.303Z" fill="#407BE7"/>
<path d="M243.285 39.9341V30.1313H246.074C246.922 30.1313 247.594 30.3387 248.091 30.7534C248.588 31.1681 248.836 31.7082 248.836 32.3735C248.836 32.9295 248.686 33.4126 248.385 33.8228C248.084 34.2329 247.669 34.5246 247.141 34.6978V34.7251C247.801 34.8026 248.33 35.0532 248.727 35.4771C249.123 35.8963 249.321 36.4432 249.321 37.1177C249.321 37.9562 249.021 38.6353 248.419 39.1548C247.817 39.6743 247.059 39.9341 246.143 39.9341H243.285ZM244.434 31.1704V34.3354H245.609C246.238 34.3354 246.733 34.1851 247.093 33.8843C247.453 33.5789 247.633 33.1506 247.633 32.5991C247.633 31.6466 247.006 31.1704 245.753 31.1704H244.434ZM244.434 35.3677V38.895H245.992C246.667 38.895 247.188 38.7355 247.558 38.4165C247.931 38.0975 248.118 37.66 248.118 37.104C248.118 35.9465 247.33 35.3677 245.753 35.3677H244.434ZM256.82 39.9341H255.699V38.8267H255.672C255.207 39.6743 254.487 40.0981 253.512 40.0981C251.844 40.0981 251.01 39.1047 251.01 37.1177V32.9341H252.124V36.9399C252.124 38.4165 252.689 39.1548 253.819 39.1548C254.366 39.1548 254.815 38.9543 255.166 38.5532C255.521 38.1476 255.699 37.619 255.699 36.9673V32.9341H256.82V39.9341ZM262.337 39.8657C262.073 40.0116 261.724 40.0845 261.291 40.0845C260.065 40.0845 259.452 39.4009 259.452 38.0337V33.8911H258.249V32.9341H259.452V31.2251L260.573 30.8628V32.9341H262.337V33.8911H260.573V37.8354C260.573 38.3049 260.653 38.6398 260.812 38.8403C260.972 39.0409 261.236 39.1411 261.605 39.1411C261.888 39.1411 262.132 39.0636 262.337 38.9087V39.8657ZM267.081 39.8657C266.817 40.0116 266.468 40.0845 266.035 40.0845C264.809 40.0845 264.196 39.4009 264.196 38.0337V33.8911H262.993V32.9341H264.196V31.2251L265.317 30.8628V32.9341H267.081V33.8911H265.317V37.8354C265.317 38.3049 265.397 38.6398 265.557 38.8403C265.716 39.0409 265.98 39.1411 266.35 39.1411C266.632 39.1411 266.876 39.0636 267.081 38.9087V39.8657ZM271.504 40.0981C270.469 40.0981 269.642 39.7723 269.022 39.1206C268.407 38.4644 268.1 37.5962 268.1 36.5161C268.1 35.3403 268.421 34.422 269.063 33.7612C269.706 33.1004 270.574 32.77 271.668 32.77C272.712 32.77 273.525 33.0913 274.108 33.7339C274.696 34.3765 274.99 35.2674 274.99 36.4067C274.99 37.5233 274.674 38.4188 274.04 39.0933C273.411 39.7632 272.566 40.0981 271.504 40.0981ZM271.586 33.7134C270.866 33.7134 270.296 33.9595 269.877 34.4517C269.458 34.9393 269.248 35.6138 269.248 36.4751C269.248 37.3045 269.46 37.9585 269.884 38.437C270.308 38.9155 270.875 39.1548 271.586 39.1548C272.311 39.1548 272.867 38.9201 273.254 38.4507C273.646 37.9813 273.842 37.3136 273.842 36.4478C273.842 35.5728 273.646 34.8983 273.254 34.4243C272.867 33.9504 272.311 33.7134 271.586 33.7134ZM282.592 39.9341H281.471V35.9419C281.471 34.4562 280.928 33.7134 279.844 33.7134C279.283 33.7134 278.818 33.9253 278.449 34.3491C278.085 34.7684 277.902 35.2993 277.902 35.9419V39.9341H276.781V32.9341H277.902V34.0962H277.93C278.458 33.2121 279.224 32.77 280.227 32.77C280.992 32.77 281.578 33.0184 281.983 33.5151C282.389 34.0073 282.592 34.7205 282.592 35.6548V39.9341Z" fill="#676C7B"/>
<rect x="209.5" y="19.9341" width="83" height="29" rx="4.5" stroke="#D9D9D9"/>
<rect x="0.5" y="0.934082" width="423" height="198" rx="9.5" stroke="#7E40C7" stroke-dasharray="5 5"/>
<rect x="21" y="62.4341" width="379" height="33" rx="4" fill="white" stroke="#ECEFF1" stroke-width="2" stroke-dasharray="4 4"/>
<circle cx="185" cy="79.4341" r="8.5" fill="white" stroke="#646368"/>
<path d="M185 75.2798L185 83.5875" stroke="#646368" stroke-linecap="round"/>
<path d="M189.153 79.4341H180.846" stroke="#646368" stroke-linecap="round"/>
<path d="M202.232 84.4341V74.5641H206.18C207.225 74.5641 208.033 74.7881 208.602 75.2361C209.171 75.6841 209.456 76.3187 209.456 77.1401C209.456 77.7561 209.269 78.2694 208.896 78.6801C208.532 79.0907 208.023 79.3614 207.37 79.4921V79.2961C208.098 79.3801 208.667 79.6321 209.078 80.0521C209.498 80.4627 209.708 81.0181 209.708 81.7181C209.708 82.5954 209.414 83.2674 208.826 83.7341C208.247 84.2007 207.426 84.4341 206.362 84.4341H202.232ZM203.366 83.4961H206.25C206.959 83.4961 207.519 83.3607 207.93 83.0901C208.35 82.8101 208.56 82.3481 208.56 81.7041C208.56 81.0507 208.35 80.5887 207.93 80.3181C207.519 80.0381 206.959 79.8981 206.25 79.8981H203.366V83.4961ZM203.366 78.9741H206.012C206.777 78.9741 207.351 78.8247 207.734 78.5261C208.117 78.2274 208.308 77.7981 208.308 77.2381C208.308 76.6594 208.117 76.2254 207.734 75.9361C207.351 75.6374 206.777 75.4881 206.012 75.4881H203.366V78.9741ZM214.1 84.5601C213.269 84.5601 212.639 84.3314 212.21 83.8741C211.79 83.4167 211.58 82.7167 211.58 81.7741V77.4061H212.714V81.7461C212.714 82.3901 212.844 82.8661 213.106 83.1741C213.367 83.4727 213.773 83.6221 214.324 83.6221C214.94 83.6221 215.434 83.4214 215.808 83.0201C216.181 82.6187 216.368 82.0821 216.368 81.4101V77.4061H217.502V84.4341H216.396V82.8521H216.578C216.382 83.3934 216.064 83.8134 215.626 84.1121C215.196 84.4107 214.688 84.5601 214.1 84.5601ZM222.194 84.5601C221.503 84.5601 220.976 84.3641 220.612 83.9721C220.248 83.5707 220.066 82.9687 220.066 82.1661V78.2881H218.694V77.4061H220.066V75.4881L221.2 75.1661V77.4061H223.216V78.2881H221.2V82.0401C221.2 82.6001 221.293 83.0014 221.48 83.2441C221.676 83.4774 221.965 83.5941 222.348 83.5941C222.525 83.5941 222.684 83.5801 222.824 83.5521C222.964 83.5147 223.09 83.4727 223.202 83.4261V84.3781C223.071 84.4341 222.912 84.4761 222.726 84.5041C222.548 84.5414 222.371 84.5601 222.194 84.5601ZM226.91 84.5601C226.22 84.5601 225.693 84.3641 225.329 83.9721C224.965 83.5707 224.783 82.9687 224.783 82.1661V78.2881H223.411V77.4061H224.783V75.4881L225.917 75.1661V77.4061H227.933V78.2881H225.917V82.0401C225.917 82.6001 226.01 83.0014 226.197 83.2441C226.393 83.4774 226.682 83.5941 227.065 83.5941C227.242 83.5941 227.401 83.5801 227.541 83.5521C227.681 83.5147 227.807 83.4727 227.919 83.4261V84.3781C227.788 84.4341 227.629 84.4761 227.443 84.5041C227.265 84.5414 227.088 84.5601 226.91 84.5601ZM232.129 84.5601C231.457 84.5601 230.869 84.4154 230.365 84.1261C229.87 83.8274 229.487 83.4074 229.217 82.8661C228.946 82.3154 228.811 81.6667 228.811 80.9201C228.811 80.1641 228.946 79.5154 229.217 78.9741C229.487 78.4327 229.87 78.0174 230.365 77.7281C230.869 77.4294 231.457 77.2801 232.129 77.2801C232.81 77.2801 233.398 77.4294 233.893 77.7281C234.397 78.0174 234.784 78.4327 235.055 78.9741C235.335 79.5154 235.475 80.1641 235.475 80.9201C235.475 81.6667 235.335 82.3154 235.055 82.8661C234.784 83.4074 234.397 83.8274 233.893 84.1261C233.398 84.4154 232.81 84.5601 232.129 84.5601ZM232.129 83.6361C232.801 83.6361 233.333 83.4074 233.725 82.9501C234.117 82.4834 234.313 81.8067 234.313 80.9201C234.313 80.0241 234.112 79.3474 233.711 78.8901C233.319 78.4234 232.791 78.1901 232.129 78.1901C231.466 78.1901 230.939 78.4234 230.547 78.8901C230.155 79.3474 229.959 80.0241 229.959 80.9201C229.959 81.8067 230.155 82.4834 230.547 82.9501C230.939 83.4074 231.466 83.6361 232.129 83.6361ZM237.243 84.4341V79.0301C237.243 78.7687 237.229 78.5027 237.201 78.2321C237.182 77.9521 237.159 77.6767 237.131 77.4061H238.223L238.363 78.9461H238.195C238.4 78.4047 238.727 77.9941 239.175 77.7141C239.632 77.4247 240.159 77.2801 240.757 77.2801C241.587 77.2801 242.213 77.5041 242.633 77.9521C243.062 78.3907 243.277 79.0861 243.277 80.0381V84.4341H242.143V80.1081C242.143 79.4454 242.007 78.9647 241.737 78.6661C241.475 78.3581 241.065 78.2041 240.505 78.2041C239.851 78.2041 239.333 78.4047 238.951 78.8061C238.568 79.2074 238.377 79.7441 238.377 80.4161V84.4341H237.243Z" fill="#262626"/>
<rect x="313.738" y="109.934" width="85.2383" height="29" rx="4.5" fill="white"/>
<path d="M328.806 121.883L334.26 127.337" stroke="#E8505B" stroke-linecap="round"/>
<path d="M334.259 121.883L328.805 127.337" stroke="#E8505B" stroke-linecap="round"/>
<circle cx="331.357" cy="124.434" r="7.61914" stroke="#E8505B"/>
<path d="M348.762 129.934V120.131H351.551C352.398 120.131 353.071 120.339 353.567 120.753C354.064 121.168 354.312 121.708 354.312 122.374C354.312 122.93 354.162 123.413 353.861 123.823C353.561 124.233 353.146 124.525 352.617 124.698V124.725C353.278 124.803 353.807 125.053 354.203 125.477C354.6 125.896 354.798 126.443 354.798 127.118C354.798 127.956 354.497 128.635 353.896 129.155C353.294 129.674 352.535 129.934 351.619 129.934H348.762ZM349.91 121.17V124.335H351.086C351.715 124.335 352.209 124.185 352.569 123.884C352.929 123.579 353.109 123.151 353.109 122.599C353.109 121.647 352.483 121.17 351.229 121.17H349.91ZM349.91 125.368V128.895H351.469C352.143 128.895 352.665 128.736 353.034 128.417C353.408 128.097 353.595 127.66 353.595 127.104C353.595 125.946 352.806 125.368 351.229 125.368H349.91ZM362.297 129.934H361.176V128.827H361.148C360.684 129.674 359.964 130.098 358.988 130.098C357.32 130.098 356.486 129.105 356.486 127.118V122.934H357.601V126.94C357.601 128.417 358.166 129.155 359.296 129.155C359.843 129.155 360.292 128.954 360.643 128.553C360.998 128.148 361.176 127.619 361.176 126.967V122.934H362.297V129.934ZM367.813 129.866C367.549 130.012 367.201 130.084 366.768 130.084C365.542 130.084 364.929 129.401 364.929 128.034V123.891H363.726V122.934H364.929V121.225L366.05 120.863V122.934H367.813V123.891H366.05V127.835C366.05 128.305 366.13 128.64 366.289 128.84C366.449 129.041 366.713 129.141 367.082 129.141C367.365 129.141 367.608 129.064 367.813 128.909V129.866ZM372.558 129.866C372.293 130.012 371.945 130.084 371.512 130.084C370.286 130.084 369.673 129.401 369.673 128.034V123.891H368.47V122.934H369.673V121.225L370.794 120.863V122.934H372.558V123.891H370.794V127.835C370.794 128.305 370.874 128.64 371.033 128.84C371.193 129.041 371.457 129.141 371.826 129.141C372.109 129.141 372.353 129.064 372.558 128.909V129.866ZM376.98 130.098C375.946 130.098 375.119 129.772 374.499 129.121C373.884 128.464 373.576 127.596 373.576 126.516C373.576 125.34 373.897 124.422 374.54 123.761C375.183 123.1 376.051 122.77 377.145 122.77C378.188 122.77 379.002 123.091 379.585 123.734C380.173 124.376 380.467 125.267 380.467 126.407C380.467 127.523 380.15 128.419 379.517 129.093C378.888 129.763 378.042 130.098 376.98 130.098ZM377.062 123.713C376.342 123.713 375.773 123.959 375.354 124.452C374.934 124.939 374.725 125.614 374.725 126.475C374.725 127.305 374.937 127.958 375.36 128.437C375.784 128.916 376.352 129.155 377.062 129.155C377.787 129.155 378.343 128.92 378.73 128.451C379.122 127.981 379.318 127.314 379.318 126.448C379.318 125.573 379.122 124.898 378.73 124.424C378.343 123.95 377.787 123.713 377.062 123.713ZM388.068 129.934H386.947V125.942C386.947 124.456 386.405 123.713 385.32 123.713C384.76 123.713 384.295 123.925 383.926 124.349C383.561 124.768 383.379 125.299 383.379 125.942V129.934H382.258V122.934H383.379V124.096H383.406C383.935 123.212 384.701 122.77 385.703 122.77C386.469 122.77 387.054 123.018 387.46 123.515C387.866 124.007 388.068 124.721 388.068 125.655V129.934Z" fill="#676C7B"/>
<rect x="313.738" y="109.934" width="85.2383" height="29" rx="4.5" stroke="#D9D9D9"/>
<rect x="210.5" y="109.934" width="85.2383" height="29" rx="4.5" fill="white"/>
<path d="M224.487 124.682L227.285 127.378" stroke="#00A029" stroke-linecap="round"/>
<path d="M232.739 121.925L227.285 127.379" stroke="#00A029" stroke-linecap="round"/>
<circle cx="228.119" cy="124.434" r="7.61914" stroke="#00A029"/>
<path d="M245.523 129.934V120.131H248.312C249.16 120.131 249.832 120.339 250.329 120.753C250.826 121.168 251.074 121.708 251.074 122.374C251.074 122.93 250.924 123.413 250.623 123.823C250.322 124.233 249.908 124.525 249.379 124.698V124.725C250.04 124.803 250.568 125.053 250.965 125.477C251.361 125.896 251.56 126.443 251.56 127.118C251.56 127.956 251.259 128.635 250.657 129.155C250.056 129.674 249.297 129.934 248.381 129.934H245.523ZM246.672 121.17V124.335H247.848C248.477 124.335 248.971 124.185 249.331 123.884C249.691 123.579 249.871 123.151 249.871 122.599C249.871 121.647 249.244 121.17 247.991 121.17H246.672ZM246.672 125.368V128.895H248.23C248.905 128.895 249.427 128.736 249.796 128.417C250.17 128.097 250.356 127.66 250.356 127.104C250.356 125.946 249.568 125.368 247.991 125.368H246.672ZM259.059 129.934H257.938V128.827H257.91C257.445 129.674 256.725 130.098 255.75 130.098C254.082 130.098 253.248 129.105 253.248 127.118V122.934H254.362V126.94C254.362 128.417 254.927 129.155 256.058 129.155C256.604 129.155 257.053 128.954 257.404 128.553C257.76 128.148 257.938 127.619 257.938 126.967V122.934H259.059V129.934ZM264.575 129.866C264.311 130.012 263.962 130.084 263.529 130.084C262.303 130.084 261.69 129.401 261.69 128.034V123.891H260.487V122.934H261.69V121.225L262.812 120.863V122.934H264.575V123.891H262.812V127.835C262.812 128.305 262.891 128.64 263.051 128.84C263.21 129.041 263.475 129.141 263.844 129.141C264.126 129.141 264.37 129.064 264.575 128.909V129.866ZM269.319 129.866C269.055 130.012 268.706 130.084 268.273 130.084C267.048 130.084 266.435 129.401 266.435 128.034V123.891H265.231V122.934H266.435V121.225L267.556 120.863V122.934H269.319V123.891H267.556V127.835C267.556 128.305 267.635 128.64 267.795 128.84C267.954 129.041 268.219 129.141 268.588 129.141C268.87 129.141 269.114 129.064 269.319 128.909V129.866ZM273.742 130.098C272.708 130.098 271.881 129.772 271.261 129.121C270.646 128.464 270.338 127.596 270.338 126.516C270.338 125.34 270.659 124.422 271.302 123.761C271.944 123.1 272.812 122.77 273.906 122.77C274.95 122.77 275.763 123.091 276.347 123.734C276.935 124.376 277.229 125.267 277.229 126.407C277.229 127.523 276.912 128.419 276.278 129.093C275.649 129.763 274.804 130.098 273.742 130.098ZM273.824 123.713C273.104 123.713 272.535 123.959 272.115 124.452C271.696 124.939 271.486 125.614 271.486 126.475C271.486 127.305 271.698 127.958 272.122 128.437C272.546 128.916 273.113 129.155 273.824 129.155C274.549 129.155 275.105 128.92 275.492 128.451C275.884 127.981 276.08 127.314 276.08 126.448C276.08 125.573 275.884 124.898 275.492 124.424C275.105 123.95 274.549 123.713 273.824 123.713ZM284.83 129.934H283.709V125.942C283.709 124.456 283.167 123.713 282.082 123.713C281.521 123.713 281.057 123.925 280.688 124.349C280.323 124.768 280.141 125.299 280.141 125.942V129.934H279.02V122.934H280.141V124.096H280.168C280.697 123.212 281.462 122.77 282.465 122.77C283.23 122.77 283.816 123.018 284.222 123.515C284.627 124.007 284.83 124.721 284.83 125.655V129.934Z" fill="#676C7B"/>
<rect x="210.5" y="109.934" width="85.2383" height="29" rx="4.5" stroke="#D9D9D9"/>
<rect x="20" y="152.434" width="79" height="30" rx="5" fill="#407BE7"/>
<path d="M29.5 160.934C29.5 160.658 29.7239 160.434 30 160.434H42C42.2761 160.434 42.5 160.658 42.5 160.934V162.934C42.5 163.058 42.4543 163.177 42.3716 163.269L38 168.126V172.934C38 173.149 37.8623 173.34 37.6581 173.408L34.6581 174.408C34.5056 174.459 34.338 174.434 34.2076 174.34C34.0773 174.246 34 174.095 34 173.934V168.126L29.6284 163.269C29.5457 163.177 29.5 163.058 29.5 162.934V160.934ZM30.5 161.434V162.742L34.8716 167.6C34.9543 167.691 35 167.811 35 167.934V173.24L37 172.574V167.934C37 167.811 37.0457 167.691 37.1284 167.6L41.5 162.742V161.434H30.5Z" fill="white"/>
<path d="M50.4971 172.934V163.131H53.2861C54.1338 163.131 54.806 163.339 55.3027 163.753C55.7995 164.168 56.0479 164.708 56.0479 165.374C56.0479 165.93 55.8975 166.413 55.5967 166.823C55.2959 167.233 54.8812 167.525 54.3525 167.698V167.725C55.0133 167.803 55.542 168.053 55.9385 168.477C56.335 168.896 56.5332 169.443 56.5332 170.118C56.5332 170.956 56.2324 171.635 55.6309 172.155C55.0293 172.674 54.2705 172.934 53.3545 172.934H50.4971ZM51.6455 164.17V167.335H52.8213C53.4502 167.335 53.9447 167.185 54.3047 166.884C54.6647 166.579 54.8447 166.151 54.8447 165.599C54.8447 164.647 54.2181 164.17 52.9648 164.17H51.6455ZM51.6455 168.368V171.895H53.2041C53.8786 171.895 54.4004 171.736 54.7695 171.417C55.1432 171.097 55.3301 170.66 55.3301 170.104C55.3301 168.946 54.5417 168.368 52.9648 168.368H51.6455ZM64.0322 172.934H62.9111V171.827H62.8838C62.4189 172.674 61.6989 173.098 60.7236 173.098C59.0557 173.098 58.2217 172.105 58.2217 170.118V165.934H59.3359V169.94C59.3359 171.417 59.901 172.155 61.0312 172.155C61.5781 172.155 62.027 171.954 62.3779 171.553C62.7334 171.148 62.9111 170.619 62.9111 169.967V165.934H64.0322V172.934ZM69.5488 172.866C69.2845 173.012 68.9359 173.084 68.5029 173.084C67.277 173.084 66.6641 172.401 66.6641 171.034V166.891H65.4609V165.934H66.6641V164.225L67.7852 163.863V165.934H69.5488V166.891H67.7852V170.835C67.7852 171.305 67.8649 171.64 68.0244 171.84C68.1839 172.041 68.4482 172.141 68.8174 172.141C69.0999 172.141 69.3438 172.064 69.5488 171.909V172.866ZM74.293 172.866C74.0286 173.012 73.68 173.084 73.2471 173.084C72.0212 173.084 71.4082 172.401 71.4082 171.034V166.891H70.2051V165.934H71.4082V164.225L72.5293 163.863V165.934H74.293V166.891H72.5293V170.835C72.5293 171.305 72.609 171.64 72.7686 171.84C72.9281 172.041 73.1924 172.141 73.5615 172.141C73.8441 172.141 74.0879 172.064 74.293 171.909V172.866ZM78.7158 173.098C77.6813 173.098 76.8542 172.772 76.2344 172.121C75.6191 171.464 75.3115 170.596 75.3115 169.516C75.3115 168.34 75.6328 167.422 76.2754 166.761C76.918 166.1 77.7861 165.77 78.8799 165.77C79.9235 165.77 80.737 166.091 81.3203 166.734C81.9082 167.376 82.2021 168.267 82.2021 169.407C82.2021 170.523 81.8854 171.419 81.252 172.093C80.623 172.763 79.7777 173.098 78.7158 173.098ZM78.7979 166.713C78.0778 166.713 77.5081 166.959 77.0889 167.452C76.6696 167.939 76.46 168.614 76.46 169.475C76.46 170.305 76.6719 170.958 77.0957 171.437C77.5195 171.916 78.0869 172.155 78.7979 172.155C79.5225 172.155 80.0785 171.92 80.4658 171.451C80.8577 170.981 81.0537 170.314 81.0537 169.448C81.0537 168.573 80.8577 167.898 80.4658 167.424C80.0785 166.95 79.5225 166.713 78.7979 166.713ZM89.8037 172.934H88.6826V168.942C88.6826 167.456 88.1403 166.713 87.0557 166.713C86.4951 166.713 86.0303 166.925 85.6611 167.349C85.2965 167.768 85.1143 168.299 85.1143 168.942V172.934H83.9932V165.934H85.1143V167.096H85.1416C85.6702 166.212 86.4359 165.77 87.4385 165.77C88.2041 165.77 88.7897 166.018 89.1953 166.515C89.6009 167.007 89.8037 167.721 89.8037 168.655V172.934Z" fill="white"/>
<rect x="20.5" y="152.934" width="78" height="29" rx="4.5" stroke="#EBEBEB" stroke-opacity="0.4"/>
<circle cx="233" cy="166.434" r="15" fill="#F2F2F2"/>
<path d="M228.028 161.461L237.819 171.252" stroke="#7C7D80" stroke-linecap="round"/>
<path d="M237.818 161.461L228.028 171.252" stroke="#7C7D80" stroke-linecap="round"/>
<circle cx="272" cy="166.434" r="15" fill="#F2F2F2"/>
<path fill-rule="evenodd" clip-rule="evenodd" d="M273.921 159.452C274.706 159.352 275.5 159.672 276.306 160.431L276.307 160.432C277.116 161.198 277.485 161.974 277.43 162.765C277.376 163.529 276.933 164.175 276.428 164.709M276.428 164.709L270.91 170.55C270.754 170.719 270.545 170.863 270.346 170.969C270.145 171.076 269.913 171.168 269.694 171.207L269.691 171.208L267.526 171.578C267.001 171.668 266.498 171.537 266.14 171.197C265.781 170.857 265.623 170.362 265.682 169.835L265.682 169.833L265.932 167.645C265.961 167.427 266.042 167.192 266.137 166.987C266.232 166.784 266.362 166.568 266.515 166.405L266.516 166.404L272.037 160.56C272.542 160.026 273.163 159.549 273.921 159.452M272.77 161.253C272.769 161.253 272.77 161.253 272.77 161.253L267.25 167.095C267.25 167.095 267.25 167.095 267.25 167.095C267.195 167.154 267.119 167.268 267.051 167.414C266.984 167.557 266.944 167.689 266.932 167.774L266.684 169.946C266.684 169.946 266.684 169.946 266.684 169.947C266.656 170.206 266.736 170.373 266.834 170.465C266.931 170.557 267.1 170.627 267.355 170.584L267.356 170.583L269.519 170.214C269.603 170.199 269.733 170.153 269.871 170.079C270.01 170.005 270.115 169.924 270.168 169.867L270.174 169.86L275.695 164.016C276.144 163.541 276.394 163.109 276.423 162.694C276.45 162.307 276.291 161.806 275.615 161.166C274.942 160.533 274.435 160.403 274.049 160.453C273.637 160.505 273.219 160.778 272.77 161.253Z" fill="#676C7B"/>
<path fill-rule="evenodd" clip-rule="evenodd" d="M271.407 161.383C271.682 161.34 271.94 161.529 271.983 161.804C272.236 163.431 273.557 164.677 275.2 164.843C275.477 164.871 275.679 165.118 275.651 165.395C275.623 165.672 275.376 165.874 275.099 165.846C273.002 165.635 271.311 164.043 270.986 161.959C270.943 161.684 271.132 161.426 271.407 161.383Z" fill="#676C7B"/>
<path fill-rule="evenodd" clip-rule="evenodd" d="M265 173.279C265 173.001 265.226 172.775 265.504 172.775H277.609C277.887 172.775 278.113 173.001 278.113 173.279C278.113 173.558 277.887 173.784 277.609 173.784H265.504C265.226 173.784 265 173.558 265 173.279Z" fill="#676C7B"/>
<circle cx="311" cy="166.434" r="15" fill="#F2F2F2"/>
<path d="M306 160.434C306 159.33 306.821 158.434 307.833 158.434H315.167C316.179 158.434 317 159.33 317 160.434V173.934C317 174.118 316.907 174.288 316.758 174.375C316.609 174.462 316.428 174.452 316.287 174.35L311.5 171.535L306.713 174.35C306.572 174.452 306.391 174.462 306.242 174.375C306.093 174.288 306 174.118 306 173.934V160.434ZM307.833 159.434C307.327 159.434 306.917 159.882 306.917 160.434V173L311.246 170.518C311.4 170.406 311.6 170.406 311.754 170.518L316.083 173V160.434C316.083 159.882 315.673 159.434 315.167 159.434H307.833Z" fill="#1F1F26"/>
<rect x="113.5" y="152.934" width="85" height="29" rx="4.5" fill="white"/>
<path d="M139 167.434C139 167.434 136 161.934 131 161.934C126 161.934 123 167.434 123 167.434C123 167.434 126 172.934 131 172.934C136 172.934 139 167.434 139 167.434ZM124.173 167.434C124.23 167.347 124.295 167.251 124.367 167.146C124.702 166.666 125.196 166.027 125.832 165.391C127.121 164.102 128.881 162.934 131 162.934C133.119 162.934 134.879 164.102 136.168 165.391C136.804 166.027 137.298 166.666 137.633 167.146C137.705 167.251 137.77 167.347 137.827 167.434C137.77 167.521 137.705 167.617 137.633 167.722C137.298 168.202 136.804 168.841 136.168 169.477C134.879 170.766 133.119 171.934 131 171.934C128.881 171.934 127.121 170.766 125.832 169.477C125.196 168.841 124.702 168.202 124.367 167.722C124.295 167.617 124.23 167.521 124.173 167.434Z" fill="black"/>
<path d="M131 164.934C129.619 164.934 128.5 166.053 128.5 167.434C128.5 168.815 129.619 169.934 131 169.934C132.381 169.934 133.5 168.815 133.5 167.434C133.5 166.053 132.381 164.934 131 164.934ZM127.5 167.434C127.5 165.501 129.067 163.934 131 163.934C132.933 163.934 134.5 165.501 134.5 167.434C134.5 169.367 132.933 170.934 131 170.934C129.067 170.934 127.5 169.367 127.5 167.434Z" fill="black"/>
<path d="M148.285 172.934V163.131H151.074C151.922 163.131 152.594 163.339 153.091 163.753C153.588 164.168 153.836 164.708 153.836 165.374C153.836 165.93 153.686 166.413 153.385 166.823C153.084 167.233 152.669 167.525 152.141 167.698V167.725C152.801 167.803 153.33 168.053 153.727 168.477C154.123 168.896 154.321 169.443 154.321 170.118C154.321 170.956 154.021 171.635 153.419 172.155C152.817 172.674 152.059 172.934 151.143 172.934H148.285ZM149.434 164.17V167.335H150.609C151.238 167.335 151.733 167.185 152.093 166.884C152.453 166.579 152.633 166.151 152.633 165.599C152.633 164.647 152.006 164.17 150.753 164.17H149.434ZM149.434 168.368V171.895H150.992C151.667 171.895 152.188 171.736 152.558 171.417C152.931 171.097 153.118 170.66 153.118 170.104C153.118 168.946 152.33 168.368 150.753 168.368H149.434ZM161.82 172.934H160.699V171.827H160.672C160.207 172.674 159.487 173.098 158.512 173.098C156.844 173.098 156.01 172.105 156.01 170.118V165.934H157.124V169.94C157.124 171.417 157.689 172.155 158.819 172.155C159.366 172.155 159.815 171.954 160.166 171.553C160.521 171.148 160.699 170.619 160.699 169.967V165.934H161.82V172.934ZM167.337 172.866C167.073 173.012 166.724 173.084 166.291 173.084C165.065 173.084 164.452 172.401 164.452 171.034V166.891H163.249V165.934H164.452V164.225L165.573 163.863V165.934H167.337V166.891H165.573V170.835C165.573 171.305 165.653 171.64 165.812 171.84C165.972 172.041 166.236 172.141 166.605 172.141C166.888 172.141 167.132 172.064 167.337 171.909V172.866ZM172.081 172.866C171.817 173.012 171.468 173.084 171.035 173.084C169.809 173.084 169.196 172.401 169.196 171.034V166.891H167.993V165.934H169.196V164.225L170.317 163.863V165.934H172.081V166.891H170.317V170.835C170.317 171.305 170.397 171.64 170.557 171.84C170.716 172.041 170.98 172.141 171.35 172.141C171.632 172.141 171.876 172.064 172.081 171.909V172.866ZM176.504 173.098C175.469 173.098 174.642 172.772 174.022 172.121C173.407 171.464 173.1 170.596 173.1 169.516C173.1 168.34 173.421 167.422 174.063 166.761C174.706 166.1 175.574 165.77 176.668 165.77C177.712 165.77 178.525 166.091 179.108 166.734C179.696 167.376 179.99 168.267 179.99 169.407C179.99 170.523 179.674 171.419 179.04 172.093C178.411 172.763 177.566 173.098 176.504 173.098ZM176.586 166.713C175.866 166.713 175.296 166.959 174.877 167.452C174.458 167.939 174.248 168.614 174.248 169.475C174.248 170.305 174.46 170.958 174.884 171.437C175.308 171.916 175.875 172.155 176.586 172.155C177.311 172.155 177.867 171.92 178.254 171.451C178.646 170.981 178.842 170.314 178.842 169.448C178.842 168.573 178.646 167.898 178.254 167.424C177.867 166.95 177.311 166.713 176.586 166.713ZM187.592 172.934H186.471V168.942C186.471 167.456 185.928 166.713 184.844 166.713C184.283 166.713 183.818 166.925 183.449 167.349C183.085 167.768 182.902 168.299 182.902 168.942V172.934H181.781V165.934H182.902V167.096H182.93C183.458 166.212 184.224 165.77 185.227 165.77C185.992 165.77 186.578 166.018 186.983 166.515C187.389 167.007 187.592 167.721 187.592 168.655V172.934Z" fill="#676C7B"/>
<rect x="113.5" y="152.934" width="85" height="29" rx="4.5" stroke="#D9D9D9"/>
<rect width="21.9012" height="22" rx="5" transform="matrix(-1 0 0 1 385.803 155.434)" fill="#FFE4D6"/>
<path d="M378.104 166.434L371.601 159.932V172.936L378.104 166.434Z" fill="#FFBE9E"/>
<rect x="336" y="155.434" width="21.9012" height="22" rx="5" fill="#FFE4D6"/>
<path d="M343.699 166.434L350.202 159.932V172.936L343.699 166.434Z" fill="#FFBE9E"/>
</svg>
