<svg width="606" height="161" viewBox="0 0 606 161" fill="none" xmlns="http://www.w3.org/2000/svg">
<path d="M107.12 25.4341H114.48C120.614 25.4341 123.067 23.1341 123.067 17.3841V10.4841C123.067 4.73408 120.614 2.43408 114.48 2.43408H107.12C100.987 2.43408 98.5337 4.73408 98.5337 10.4841V17.3841C98.5337 23.1341 100.987 25.4341 107.12 25.4341Z" stroke="#407BE7" stroke-width="1.5" stroke-linecap="round" stroke-linejoin="round"/>
<path d="M115.093 21.4095C116.443 21.4095 117.547 20.3745 117.547 19.1095V8.75947C117.547 7.49447 116.443 6.45947 115.093 6.45947C113.744 6.45947 112.64 7.49447 112.64 8.75947V19.1095C112.64 20.3745 113.732 21.4095 115.093 21.4095Z" stroke="#FC7735" stroke-width="1.5" stroke-linecap="round" stroke-linejoin="round"/>
<path d="M106.507 21.4087C107.856 21.4087 108.96 20.3737 108.96 19.1087V15.0837C108.96 13.8187 107.856 12.7837 106.507 12.7837C105.158 12.7837 104.054 13.8187 104.054 15.0837V19.1087C104.054 20.3737 105.145 21.4087 106.507 21.4087Z" stroke="#FC7735" stroke-width="1.5" stroke-linecap="round" stroke-linejoin="round"/>
<path d="M102.421 59.9341L102.408 64.7741C102.408 66.0847 103.697 67.4882 105.276 67.901L109.472 68.9949C110.196 69.1806 111.393 69.1806 112.129 68.9949L116.326 67.901C117.904 67.4882 119.194 66.0847 119.194 64.7741V59.9857" stroke="#FC7735" stroke-width="1.5" stroke-linecap="round" stroke-linejoin="round"/>
<path d="M108.259 48.9481L100.419 52.7504C97.9053 53.9694 97.9053 56.6978 100.419 57.9168L108.259 61.7191C109.666 62.406 111.984 62.406 113.39 61.7191L121.192 57.9168C123.692 56.6978 123.692 53.9791 121.192 52.76L113.39 48.9577C111.984 48.2611 109.666 48.2611 108.259 48.9481Z" stroke="#407BE7" stroke-width="1.5" stroke-linecap="round" stroke-linejoin="round"/>
<path d="M122.833 63.385V56.4849" stroke="#407BE7" stroke-width="1.5" stroke-linecap="round" stroke-linejoin="round"/>
<path d="M116.437 106.25C117.448 106.25 118.268 105.481 118.268 104.533C118.268 103.585 117.448 102.817 116.437 102.817C115.426 102.817 114.606 103.585 114.606 104.533C114.606 105.481 115.426 106.25 116.437 106.25Z" stroke="#FC7735" stroke-width="1.5" stroke-miterlimit="10" stroke-linecap="round" stroke-linejoin="round"/>
<path d="M110.333 105.037V104.03C110.333 103.435 110.852 102.943 111.493 102.943C112.598 102.943 113.049 102.211 112.494 101.312C112.176 100.798 112.366 100.128 112.921 99.8307L113.977 99.2643C114.459 98.9954 115.081 99.1556 115.368 99.6075L115.435 99.7162C115.985 100.614 116.888 100.614 117.443 99.7162L117.51 99.6075C117.797 99.1556 118.419 98.9954 118.902 99.2643L119.957 99.8307C120.513 100.128 120.702 100.798 120.384 101.312C119.829 102.211 120.281 102.943 121.385 102.943C122.02 102.943 122.545 103.429 122.545 104.03V105.037C122.545 105.632 122.026 106.124 121.385 106.124C120.281 106.124 119.829 106.856 120.384 107.755C120.702 108.275 120.513 108.939 119.957 109.236L118.902 109.803C118.419 110.072 117.797 109.911 117.51 109.459L117.443 109.351C116.894 108.452 115.991 108.452 115.435 109.351L115.368 109.459C115.081 109.911 114.459 110.072 113.977 109.803L112.921 109.236C112.366 108.939 112.176 108.269 112.494 107.755C113.049 106.856 112.598 106.124 111.493 106.124C110.852 106.124 110.333 105.632 110.333 105.037Z" stroke="#407BE7" stroke-width="1.5" stroke-miterlimit="10" stroke-linecap="round" stroke-linejoin="round"/>
<path d="M108.529 97.4345C111.77 97.4345 114.396 94.972 114.396 91.9343C114.396 88.8966 111.77 86.4341 108.529 86.4341C105.289 86.4341 102.663 88.8966 102.663 91.9343C102.663 94.972 105.289 97.4345 108.529 97.4345Z" stroke="#FC7735" stroke-width="1.5" stroke-linecap="round" stroke-linejoin="round"/>
<path d="M97.5337 109.932C97.5337 105.288 102.462 101.532 108.529 101.532" stroke="#FC7735" stroke-width="1.5" stroke-linecap="round" stroke-linejoin="round"/>
<path d="M123.659 156.684C123.659 156.684 125.534 156.684 125.534 154.809C125.534 152.934 123.659 147.309 116.159 147.309C108.659 147.309 106.784 152.934 106.784 154.809C106.784 156.684 108.659 156.684 108.659 156.684H123.659ZM108.701 154.809C108.694 154.808 108.685 154.807 108.674 154.805C108.669 154.804 108.664 154.804 108.659 154.803C108.661 154.307 108.972 152.872 110.082 151.576C111.121 150.364 112.939 149.184 116.159 149.184C119.379 149.184 121.196 150.364 122.235 151.576C123.346 152.872 123.656 154.307 123.659 154.803C123.654 154.804 123.649 154.804 123.643 154.805C123.632 154.807 123.623 154.808 123.617 154.809H108.701Z" fill="#407BE7"/>
<path d="M116.159 143.559C118.23 143.559 119.909 141.88 119.909 139.809C119.909 137.738 118.23 136.059 116.159 136.059C114.088 136.059 112.409 137.738 112.409 139.809C112.409 141.88 114.088 143.559 116.159 143.559ZM121.784 139.809C121.784 142.916 119.265 145.434 116.159 145.434C113.052 145.434 110.534 142.916 110.534 139.809C110.534 136.702 113.052 134.184 116.159 134.184C119.265 134.184 121.784 136.702 121.784 139.809Z" fill="#FC7735"/>
<path d="M108.539 147.834C107.849 147.613 107.083 147.453 106.233 147.371C105.812 147.33 105.371 147.309 104.909 147.309C97.4087 147.309 95.5337 152.934 95.5337 154.809C95.5337 156.059 96.1587 156.684 97.4087 156.684H105.314C105.05 156.151 104.909 155.52 104.909 154.809C104.909 152.915 105.616 150.98 106.952 149.364C107.409 148.812 107.938 148.297 108.539 147.834ZM104.759 149.185C103.638 150.897 103.034 152.849 103.034 154.809H97.4087C97.4087 154.32 97.7166 152.878 98.8323 151.576C99.855 150.383 101.632 149.221 104.759 149.185Z" fill="#407BE7"/>
<path d="M98.3462 140.747C98.3462 137.64 100.865 135.122 103.971 135.122C107.078 135.122 109.596 137.64 109.596 140.747C109.596 143.853 107.078 146.372 103.971 146.372C100.865 146.372 98.3462 143.853 98.3462 140.747ZM103.971 136.997C101.9 136.997 100.221 138.676 100.221 140.747C100.221 142.818 101.9 144.497 103.971 144.497C106.042 144.497 107.721 142.818 107.721 140.747C107.721 138.676 106.042 136.997 103.971 136.997Z" fill="#FC7735"/>
<path d="M21.1125 25.5845C21.1125 25.5845 23.125 25.5845 23.125 23.572C23.125 21.5595 21.1125 15.522 13.0625 15.522C5.0125 15.522 3 21.5595 3 23.572C3 25.5845 5.0125 25.5845 5.0125 25.5845H21.1125ZM5.05747 23.572C5.05049 23.5712 5.04074 23.5699 5.0289 23.5679C5.02332 23.567 5.01786 23.566 5.01252 23.565C5.01543 23.0336 5.34833 21.4929 6.5405 20.102C7.6556 18.8011 9.60641 17.5345 13.0625 17.5345C16.5186 17.5345 18.4694 18.8011 19.5845 20.102C20.7767 21.4929 21.1096 23.0336 21.1125 23.565C21.1071 23.566 21.1017 23.567 21.0961 23.5679C21.0843 23.5699 21.0745 23.5712 21.0675 23.572H5.05747Z" fill="#407BE7"/>
<path d="M13.0624 11.4966C15.2853 11.4966 17.0874 9.69453 17.0874 7.47158C17.0874 5.24864 15.2853 3.44658 13.0624 3.44658C10.8395 3.44658 9.0374 5.24864 9.0374 7.47158C9.0374 9.69453 10.8395 11.4966 13.0624 11.4966ZM19.0999 7.47158C19.0999 10.806 16.3968 13.5091 13.0624 13.5091C9.72798 13.5091 7.0249 10.806 7.0249 7.47158C7.0249 4.13716 9.72798 1.43408 13.0624 1.43408C16.3968 1.43408 19.0999 4.13716 19.0999 7.47158Z" fill="#FC7735"/>
<path d="M23.0796 91.0336V93.0919C22.7729 93.0574 22.4172 93.0344 22.0369 93.0344H16.7869C14.1619 93.0344 13.2909 93.8509 13.2909 96.3117V102.188H5.90657C1.98131 102.188 1 101.268 1 97.588V91.0336C1 87.354 1.98131 86.4341 5.90657 86.4341H18.173C22.0982 86.4341 23.0796 87.354 23.0796 91.0336Z" stroke="#407BE7" stroke-width="1.5" stroke-linecap="round" stroke-linejoin="round"/>
<path d="M9.58691 102.186V107.131" stroke="#407BE7" stroke-width="1.5" stroke-linecap="round" stroke-linejoin="round"/>
<path d="M1 97.8188H13.2664" stroke="#407BE7" stroke-width="1.5" stroke-linecap="round" stroke-linejoin="round"/>
<path d="M5.8457 107.133H13.2669" stroke="#407BE7" stroke-width="1.5" stroke-linecap="round" stroke-linejoin="round"/>
<path d="M23.0801 93.0931C22.7735 93.0586 22.4177 93.0356 22.0375 93.0356H16.7874C14.1624 93.0356 13.2915 93.8521 13.2915 96.3129V106.156C13.2915 108.617 14.1624 109.433 16.7874 109.433H22.0375C24.6625 109.433 25.5334 108.617 25.5334 106.156V96.3129C25.5334 94.2086 24.8956 93.3116 23.0801 93.0931ZM19.4125 96.3129C20.1362 96.3129 20.725 96.8648 20.725 97.5432C20.725 98.2216 20.1362 98.7736 19.4125 98.7736C18.6888 98.7736 18.1 98.2216 18.1 97.5432C18.1 96.8648 18.6888 96.3129 19.4125 96.3129ZM19.4125 106.156C17.965 106.156 16.7874 105.052 16.7874 103.695C16.7874 103.132 16.996 102.603 17.3394 102.189C17.8178 101.614 18.5661 101.234 19.4125 101.234C20.0749 101.234 20.6759 101.464 21.1298 101.832C21.6818 102.292 22.0375 102.959 22.0375 103.695C22.0375 105.052 20.8599 106.156 19.4125 106.156Z" stroke="#FC7735" stroke-width="1.5" stroke-miterlimit="10" stroke-linecap="round" stroke-linejoin="round"/>
<path d="M22.0376 103.694C22.0376 105.051 20.8601 106.154 19.4126 106.154C17.9652 106.154 16.7876 105.051 16.7876 103.694C16.7876 103.13 16.9961 102.601 17.3396 102.187C17.818 101.612 18.5662 101.233 19.4126 101.233C20.075 101.233 20.6761 101.463 21.1299 101.831C21.6819 102.291 22.0376 102.958 22.0376 103.694Z" stroke="#FC7735" stroke-width="1.5" stroke-miterlimit="10" stroke-linecap="round" stroke-linejoin="round"/>
<path d="M19.4116 98.7717C20.1365 98.7717 20.7241 98.2209 20.7241 97.5414C20.7241 96.8618 20.1365 96.311 19.4116 96.311C18.6868 96.311 18.0991 96.8618 18.0991 97.5414C18.0991 98.2209 18.6868 98.7717 19.4116 98.7717Z" stroke="#FC7735" stroke-width="1.5" stroke-miterlimit="10" stroke-linecap="round" stroke-linejoin="round"/>
<path d="M13.7817 150.276V152.57" stroke="#FC7735" stroke-width="1.5" stroke-linecap="round" stroke-linejoin="round"/>
<path d="M7.95557 156.284H19.6093V155.191C19.6093 153.99 18.5605 153.006 17.2785 153.006H10.2863C9.0044 153.006 7.95557 153.99 7.95557 155.191V156.284V156.284Z" stroke="#407BE7" stroke-width="1.5" stroke-miterlimit="10"/>
<path d="M6.78955 156.282H20.774" stroke="#407BE7" stroke-width="1.5" stroke-linecap="round" stroke-linejoin="round"/>
<path d="M13.6073 149.729C9.09732 149.729 5.44971 146.309 5.44971 142.081V138.804C5.44971 136.39 7.53572 134.434 10.1112 134.434H17.1034C19.6789 134.434 21.7649 136.39 21.7649 138.804V142.081C21.7649 146.309 18.1173 149.729 13.6073 149.729Z" stroke="#FC7735" stroke-width="1.5" stroke-linecap="round" stroke-linejoin="round"/>
<path d="M5.99723 144.976C5.1232 144.713 4.35405 144.233 3.74806 143.665C2.69922 142.572 2 141.261 2 139.732C2 138.202 3.28191 137 4.91343 137H5.67092C5.43785 137.503 5.32131 138.06 5.32131 138.639V141.917C5.32131 143.009 5.56604 144.036 5.99723 144.976Z" stroke="#FC7735" stroke-width="1.5" stroke-linecap="round" stroke-linejoin="round"/>
<path d="M21.2163 144.976C22.0903 144.713 22.8595 144.233 23.4655 143.665C24.5143 142.572 25.2135 141.261 25.2135 139.732C25.2135 138.202 23.9316 137 22.3001 137H21.5426C21.7757 137.503 21.8922 138.06 21.8922 138.639V141.917C21.8922 143.009 21.6475 144.036 21.2163 144.976Z" stroke="#FC7735" stroke-width="1.5" stroke-linecap="round" stroke-linejoin="round"/>
<path d="M9.33502 57.1041C8.9141 57.1041 8.57288 57.4454 8.57288 57.8663C8.57288 58.2872 8.9141 58.6284 9.33502 58.6284H16.9565C17.3774 58.6284 17.7186 58.2872 17.7186 57.8663C17.7186 57.4454 17.3774 57.1041 16.9565 57.1041H9.33502Z" fill="#407BE7"/>
<path d="M8.57288 60.9149C8.57288 60.4939 8.9141 60.1527 9.33502 60.1527H16.9565C17.3774 60.1527 17.7186 60.4939 17.7186 60.9149C17.7186 61.3358 17.3774 61.677 16.9565 61.677H13.1458H9.33502C8.9141 61.677 8.57288 61.3358 8.57288 60.9149Z" fill="#407BE7"/>
<path d="M8.57288 63.9634C8.57288 63.5425 8.9141 63.2013 9.33502 63.2013H12.3836C12.8045 63.2013 13.1458 63.5425 13.1458 63.9634C13.1458 64.3844 12.8045 64.7256 12.3836 64.7256H9.33502C8.9141 64.7256 8.57288 64.3844 8.57288 63.9634Z" fill="#407BE7"/>
<path d="M15.4322 46.4341H7.04858C5.3649 46.4341 4 47.799 4 49.4827V67.7742C4 69.4579 5.3649 70.8228 7.04858 70.8228H19.2429C20.9266 70.8228 22.2915 69.4579 22.2915 67.7742V53.2934L15.4322 46.4341ZM15.4322 47.9584V51.007C15.4322 52.2697 16.4559 53.2934 17.7186 53.2934H20.7672V67.7742C20.7672 68.616 20.0848 69.2985 19.2429 69.2985H7.04858C6.20674 69.2985 5.52429 68.616 5.52429 67.7742V49.4827C5.52429 48.6408 6.20674 47.9584 7.04858 47.9584H15.4322Z" fill="#FC7735"/>
<path d="M301.653 25.4341H309.013C315.146 25.4341 317.6 23.1341 317.6 17.3841V10.4841C317.6 4.73408 315.146 2.43408 309.013 2.43408H301.653C295.52 2.43408 293.066 4.73408 293.066 10.4841V17.3841C293.066 23.1341 295.52 25.4341 301.653 25.4341Z" stroke="#676C7B" stroke-width="1.5" stroke-linecap="round" stroke-linejoin="round"/>
<path d="M309.626 21.4095C310.976 21.4095 312.08 20.3745 312.08 19.1095V8.75947C312.08 7.49447 310.976 6.45947 309.626 6.45947C308.277 6.45947 307.173 7.49447 307.173 8.75947V19.1095C307.173 20.3745 308.265 21.4095 309.626 21.4095Z" stroke="#676C7B" stroke-width="1.5" stroke-linecap="round" stroke-linejoin="round"/>
<path d="M301.039 21.4087C302.389 21.4087 303.493 20.3737 303.493 19.1087V15.0837C303.493 13.8187 302.389 12.7837 301.039 12.7837C299.69 12.7837 298.586 13.8187 298.586 15.0837V19.1087C298.586 20.3737 299.678 21.4087 301.039 21.4087Z" stroke="#676C7B" stroke-width="1.5" stroke-linecap="round" stroke-linejoin="round"/>
<path d="M296.954 59.9341L296.94 64.7741C296.94 66.0847 298.23 67.4882 299.808 67.901L304.005 68.9949C304.728 69.1806 305.925 69.1806 306.662 68.9949L310.859 67.901C312.437 67.4882 313.726 66.0847 313.726 64.7741V59.9857" stroke="#676C7B" stroke-width="1.5" stroke-linecap="round" stroke-linejoin="round"/>
<path d="M302.792 48.9481L294.952 52.7504C292.438 53.9694 292.438 56.6978 294.952 57.9168L302.792 61.7191C304.198 62.406 306.517 62.406 307.923 61.7191L315.724 57.9168C318.225 56.6978 318.225 53.9791 315.724 52.76L307.923 48.9577C306.517 48.2611 304.198 48.2611 302.792 48.9481Z" stroke="#676C7B" stroke-width="1.5" stroke-linecap="round" stroke-linejoin="round"/>
<path d="M317.365 63.385V56.4849" stroke="#676C7B" stroke-width="1.5" stroke-linecap="round" stroke-linejoin="round"/>
<path d="M310.969 106.25C311.981 106.25 312.8 105.481 312.8 104.533C312.8 103.585 311.981 102.817 310.969 102.817C309.958 102.817 309.139 103.585 309.139 104.533C309.139 105.481 309.958 106.25 310.969 106.25Z" stroke="#676C7B" stroke-width="1.5" stroke-miterlimit="10" stroke-linecap="round" stroke-linejoin="round"/>
<path d="M304.866 105.037V104.03C304.866 103.435 305.385 102.943 306.026 102.943C307.13 102.943 307.582 102.211 307.027 101.312C306.709 100.798 306.898 100.128 307.454 99.8307L308.509 99.2643C308.992 98.9954 309.614 99.1556 309.901 99.6075L309.968 99.7162C310.517 100.614 311.42 100.614 311.976 99.7162L312.043 99.6075C312.33 99.1556 312.952 98.9954 313.434 99.2643L314.49 99.8307C315.045 100.128 315.235 100.798 314.917 101.312C314.362 102.211 314.813 102.943 315.918 102.943C316.553 102.943 317.078 103.429 317.078 104.03V105.037C317.078 105.632 316.559 106.124 315.918 106.124C314.813 106.124 314.362 106.856 314.917 107.755C315.235 108.275 315.045 108.939 314.49 109.236L313.434 109.803C312.952 110.072 312.33 109.911 312.043 109.459L311.976 109.351C311.427 108.452 310.523 108.452 309.968 109.351L309.901 109.459C309.614 109.911 308.992 110.072 308.509 109.803L307.454 109.236C306.898 108.939 306.709 108.269 307.027 107.755C307.582 106.856 307.13 106.124 306.026 106.124C305.385 106.124 304.866 105.632 304.866 105.037Z" stroke="#676C7B" stroke-width="1.5" stroke-miterlimit="10" stroke-linecap="round" stroke-linejoin="round"/>
<path d="M303.062 97.4345C306.302 97.4345 308.929 94.972 308.929 91.9343C308.929 88.8966 306.302 86.4341 303.062 86.4341C299.822 86.4341 297.195 88.8966 297.195 91.9343C297.195 94.972 299.822 97.4345 303.062 97.4345Z" stroke="#676C7B" stroke-width="1.5" stroke-linecap="round" stroke-linejoin="round"/>
<path d="M292.066 109.932C292.066 105.288 296.995 101.532 303.062 101.532" stroke="#676C7B" stroke-width="1.5" stroke-linecap="round" stroke-linejoin="round"/>
<path d="M318.191 156.684C318.191 156.684 320.066 156.684 320.066 154.809C320.066 152.934 318.191 147.309 310.691 147.309C303.191 147.309 301.316 152.934 301.316 154.809C301.316 156.684 303.191 156.684 303.191 156.684H318.191ZM303.233 154.809C303.227 154.808 303.218 154.807 303.207 154.805C303.201 154.804 303.196 154.804 303.191 154.803C303.194 154.307 303.504 152.872 304.615 151.576C305.654 150.364 307.471 149.184 310.691 149.184C313.911 149.184 315.729 150.364 316.768 151.576C317.879 152.872 318.189 154.307 318.191 154.803C318.186 154.804 318.181 154.804 318.176 154.805C318.165 154.807 318.156 154.808 318.15 154.809H303.233Z" fill="#676C7B"/>
<path d="M310.691 143.559C312.762 143.559 314.441 141.88 314.441 139.809C314.441 137.738 312.762 136.059 310.691 136.059C308.62 136.059 306.941 137.738 306.941 139.809C306.941 141.88 308.62 143.559 310.691 143.559ZM316.316 139.809C316.316 142.916 313.798 145.434 310.691 145.434C307.585 145.434 305.066 142.916 305.066 139.809C305.066 136.702 307.585 134.184 310.691 134.184C313.798 134.184 316.316 136.702 316.316 139.809Z" fill="#676C7B"/>
<path d="M303.071 147.834C302.382 147.613 301.616 147.453 300.766 147.371C300.345 147.33 299.904 147.309 299.441 147.309C291.941 147.309 290.066 152.934 290.066 154.809C290.066 156.059 290.691 156.684 291.941 156.684H299.847C299.583 156.151 299.441 155.52 299.441 154.809C299.441 152.915 300.149 150.98 301.485 149.364C301.941 148.812 302.471 148.297 303.071 147.834ZM299.291 149.185C298.171 150.897 297.566 152.849 297.566 154.809H291.941C291.941 154.32 292.249 152.878 293.365 151.576C294.388 150.383 296.165 149.221 299.291 149.185Z" fill="#676C7B"/>
<path d="M292.879 140.747C292.879 137.64 295.397 135.122 298.504 135.122C301.611 135.122 304.129 137.64 304.129 140.747C304.129 143.853 301.611 146.372 298.504 146.372C295.397 146.372 292.879 143.853 292.879 140.747ZM298.504 136.997C296.433 136.997 294.754 138.676 294.754 140.747C294.754 142.818 296.433 144.497 298.504 144.497C300.575 144.497 302.254 142.818 302.254 140.747C302.254 138.676 300.575 136.997 298.504 136.997Z" fill="#676C7B"/>
<path d="M215.646 25.5845C215.646 25.5845 217.658 25.5845 217.658 23.572C217.658 21.5595 215.646 15.522 207.596 15.522C199.546 15.522 197.533 21.5595 197.533 23.572C197.533 25.5845 199.546 25.5845 199.546 25.5845H215.646ZM199.591 23.572C199.584 23.5712 199.574 23.5699 199.562 23.5679C199.557 23.567 199.551 23.566 199.546 23.565C199.549 23.0336 199.882 21.4929 201.074 20.102C202.189 18.8011 204.14 17.5345 207.596 17.5345C211.052 17.5345 213.003 18.8011 214.118 20.102C215.31 21.4929 215.643 23.0336 215.646 23.565C215.64 23.566 215.635 23.567 215.629 23.5679C215.617 23.5699 215.608 23.5712 215.601 23.572H199.591Z" fill="#676C7B"/>
<path d="M207.596 11.4966C209.819 11.4966 211.621 9.69453 211.621 7.47158C211.621 5.24864 209.819 3.44658 207.596 3.44658C205.373 3.44658 203.571 5.24864 203.571 7.47158C203.571 9.69453 205.373 11.4966 207.596 11.4966ZM213.634 7.47158C213.634 10.806 210.931 13.5091 207.596 13.5091C204.262 13.5091 201.559 10.806 201.559 7.47158C201.559 4.13716 204.262 1.43408 207.596 1.43408C210.931 1.43408 213.634 4.13716 213.634 7.47158Z" fill="#676C7B"/>
<path d="M217.613 91.0336V93.0919C217.306 93.0574 216.95 93.0344 216.57 93.0344H211.32C208.695 93.0344 207.824 93.8509 207.824 96.3117V102.188H200.44C196.515 102.188 195.533 101.268 195.533 97.588V91.0336C195.533 87.354 196.515 86.4341 200.44 86.4341H212.706C216.631 86.4341 217.613 87.354 217.613 91.0336Z" stroke="#676C7B" stroke-width="1.5" stroke-linecap="round" stroke-linejoin="round"/>
<path d="M204.12 102.186V107.131" stroke="#676C7B" stroke-width="1.5" stroke-linecap="round" stroke-linejoin="round"/>
<path d="M195.533 97.8188H207.8" stroke="#676C7B" stroke-width="1.5" stroke-linecap="round" stroke-linejoin="round"/>
<path d="M200.379 107.133H207.8" stroke="#676C7B" stroke-width="1.5" stroke-linecap="round" stroke-linejoin="round"/>
<path d="M217.614 93.0931C217.307 93.0586 216.951 93.0356 216.571 93.0356H211.321C208.696 93.0356 207.825 93.8521 207.825 96.3129V106.156C207.825 108.617 208.696 109.433 211.321 109.433H216.571C219.196 109.433 220.067 108.617 220.067 106.156V96.3129C220.067 94.2086 219.429 93.3116 217.614 93.0931ZM213.946 96.3129C214.67 96.3129 215.259 96.8648 215.259 97.5432C215.259 98.2216 214.67 98.7736 213.946 98.7736C213.222 98.7736 212.634 98.2216 212.634 97.5432C212.634 96.8648 213.222 96.3129 213.946 96.3129ZM213.946 106.156C212.499 106.156 211.321 105.052 211.321 103.695C211.321 103.132 211.53 102.603 211.873 102.189C212.352 101.614 213.1 101.234 213.946 101.234C214.609 101.234 215.21 101.464 215.663 101.832C216.215 102.292 216.571 102.959 216.571 103.695C216.571 105.052 215.394 106.156 213.946 106.156Z" stroke="#676C7B" stroke-width="1.5" stroke-miterlimit="10" stroke-linecap="round" stroke-linejoin="round"/>
<path d="M216.57 103.694C216.57 105.051 215.393 106.154 213.945 106.154C212.498 106.154 211.32 105.051 211.32 103.694C211.32 103.13 211.529 102.601 211.872 102.187C212.351 101.612 213.099 101.233 213.945 101.233C214.608 101.233 215.209 101.463 215.663 101.831C216.215 102.291 216.57 102.958 216.57 103.694Z" stroke="#676C7B" stroke-width="1.5" stroke-miterlimit="10" stroke-linecap="round" stroke-linejoin="round"/>
<path d="M213.945 98.7717C214.67 98.7717 215.258 98.2209 215.258 97.5414C215.258 96.8618 214.67 96.311 213.945 96.311C213.22 96.311 212.633 96.8618 212.633 97.5414C212.633 98.2209 213.22 98.7717 213.945 98.7717Z" stroke="#676C7B" stroke-width="1.5" stroke-miterlimit="10" stroke-linecap="round" stroke-linejoin="round"/>
<path d="M208.314 150.276V152.57" stroke="#676C7B" stroke-width="1.5" stroke-linecap="round" stroke-linejoin="round"/>
<path d="M202.488 156.284H214.142V155.191C214.142 153.99 213.093 153.006 211.811 153.006H204.819C203.537 153.006 202.488 153.99 202.488 155.191V156.284V156.284Z" stroke="#676C7B" stroke-width="1.5" stroke-miterlimit="10"/>
<path d="M201.323 156.282H215.308" stroke="#676C7B" stroke-width="1.5" stroke-linecap="round" stroke-linejoin="round"/>
<path d="M208.14 149.729C203.63 149.729 199.982 146.309 199.982 142.081V138.804C199.982 136.39 202.068 134.434 204.644 134.434H211.636C214.212 134.434 216.298 136.39 216.298 138.804V142.081C216.298 146.309 212.65 149.729 208.14 149.729Z" stroke="#676C7B" stroke-width="1.5" stroke-linecap="round" stroke-linejoin="round"/>
<path d="M200.53 144.976C199.656 144.713 198.887 144.233 198.281 143.665C197.232 142.572 196.533 141.261 196.533 139.732C196.533 138.202 197.815 137 199.447 137H200.204C199.971 137.503 199.855 138.06 199.855 138.639V141.917C199.855 143.009 200.099 144.036 200.53 144.976Z" stroke="#676C7B" stroke-width="1.5" stroke-linecap="round" stroke-linejoin="round"/>
<path d="M215.75 144.976C216.624 144.713 217.393 144.233 217.999 143.665C219.048 142.572 219.747 141.261 219.747 139.732C219.747 138.202 218.465 137 216.834 137H216.076C216.309 137.503 216.426 138.06 216.426 138.639V141.917C216.426 143.009 216.181 144.036 215.75 144.976Z" stroke="#676C7B" stroke-width="1.5" stroke-linecap="round" stroke-linejoin="round"/>
<path d="M203.868 57.1041C203.447 57.1041 203.106 57.4454 203.106 57.8663C203.106 58.2872 203.447 58.6284 203.868 58.6284H211.49C211.911 58.6284 212.252 58.2872 212.252 57.8663C212.252 57.4454 211.911 57.1041 211.49 57.1041H203.868Z" fill="#676C7B"/>
<path d="M203.106 60.9149C203.106 60.4939 203.447 60.1527 203.868 60.1527H211.49C211.911 60.1527 212.252 60.4939 212.252 60.9149C212.252 61.3358 211.911 61.677 211.49 61.677H207.679H203.868C203.447 61.677 203.106 61.3358 203.106 60.9149Z" fill="#676C7B"/>
<path d="M203.106 63.9634C203.106 63.5425 203.447 63.2013 203.868 63.2013H206.917C207.338 63.2013 207.679 63.5425 207.679 63.9634C207.679 64.3844 207.338 64.7256 206.917 64.7256H203.868C203.447 64.7256 203.106 64.3844 203.106 63.9634Z" fill="#676C7B"/>
<path d="M209.965 46.4341H201.582C199.898 46.4341 198.533 47.799 198.533 49.4827V67.7742C198.533 69.4579 199.898 70.8228 201.582 70.8228H213.776C215.46 70.8228 216.825 69.4579 216.825 67.7742V53.2934L209.965 46.4341ZM209.965 47.9584V51.007C209.965 52.2697 210.989 53.2934 212.252 53.2934H215.3V67.7742C215.3 68.616 214.618 69.2985 213.776 69.2985H201.582C200.74 69.2985 200.057 68.616 200.057 67.7742V49.4827C200.057 48.6408 200.74 47.9584 201.582 47.9584H209.965Z" fill="#676C7B"/>
<path d="M399.312 25.1958C401.293 26.8466 405.255 26.8466 407.236 25.1958" stroke="#676C7B" stroke-width="2" stroke-linecap="round" stroke-linejoin="round"/>
<path d="M393.666 20.5062L393.665 20.5055L393.664 20.5054L393.664 20.5052L393.663 20.505L393.663 20.505L393.64 20.4969L393.616 20.4894C392.754 20.2298 392.125 19.8654 391.715 19.4078C391.323 18.9701 391.068 18.377 391.068 17.5104V17.5033L391.068 17.4961C391.053 16.4736 391.729 15.9069 392.899 14.9823C393.42 14.571 394.067 14.0573 394.511 13.3978C394.99 12.6892 395.226 11.8321 395.017 10.7948C394.721 8.35133 395.625 6.01435 397.17 4.26947C398.731 2.50597 400.867 1.43408 402.903 1.43408H403.645C405.681 1.43408 407.817 2.50597 409.378 4.26947C410.922 6.01435 411.827 8.35134 411.531 10.7948C411.322 11.8288 411.553 12.6833 412.028 13.3913C412.47 14.0498 413.113 14.5614 413.631 14.9709C414.79 15.8875 415.48 16.4613 415.48 17.5106C415.48 18.3415 415.228 18.9388 414.829 19.3896C414.415 19.8575 413.783 20.2331 412.932 20.4894L412.908 20.4969L412.885 20.505L412.885 20.505L412.884 20.5052L412.884 20.5054L412.883 20.5055L412.881 20.5062L412.859 20.5139C412.837 20.5213 412.802 20.533 412.753 20.5485C412.655 20.5795 412.504 20.6256 412.3 20.6818C411.893 20.7941 411.276 20.9469 410.46 21.1007C408.83 21.4082 406.405 21.7198 403.274 21.7198C400.143 21.7198 397.718 21.4082 396.088 21.1007C395.272 20.9469 394.655 20.7941 394.248 20.6818C394.044 20.6256 393.893 20.5795 393.795 20.5485C393.746 20.533 393.711 20.5213 393.689 20.5139L393.666 20.5062Z" stroke="#676C7B" stroke-width="2"/>
<path d="M395.067 49.4341C395.067 47.7772 396.411 46.4341 398.067 46.4341H410.067C411.724 46.4341 413.067 47.7772 413.067 49.4341V69.6841C413.067 69.9607 412.915 70.2148 412.671 70.3453C412.427 70.4759 412.131 70.4615 411.901 70.3081L404.067 66.0855L396.233 70.3081C396.003 70.4615 395.707 70.4759 395.463 70.3453C395.22 70.2148 395.067 69.9607 395.067 69.6841V49.4341ZM398.067 47.9341C397.239 47.9341 396.567 48.6057 396.567 49.4341V68.2827L403.651 64.56C403.903 64.3921 404.231 64.3921 404.483 64.56L411.567 68.2827V49.4341C411.567 48.6057 410.896 47.9341 410.067 47.9341H398.067Z" fill="#676C7B"/>
<path fill-rule="evenodd" clip-rule="evenodd" d="M407.895 85.4665C409.287 85.2847 410.696 85.866 412.126 87.2411L412.128 87.2427C413.564 88.6293 414.218 90.036 414.119 91.4687C414.025 92.8531 413.239 94.0248 412.343 94.9917M412.343 94.9917L402.553 105.574C402.277 105.881 401.905 106.141 401.553 106.334C401.196 106.528 400.783 106.695 400.396 106.766L400.39 106.767L396.549 107.437C395.618 107.601 394.725 107.363 394.089 106.747C393.454 106.132 393.173 105.234 393.277 104.279L393.277 104.276L393.721 100.311C393.772 99.9166 393.916 99.4898 394.085 99.1196C394.253 98.7507 394.483 98.3595 394.755 98.0638L394.757 98.0619L404.552 87.474C405.448 86.5067 406.55 85.6422 407.895 85.4665M405.852 88.7298C405.852 88.7299 405.852 88.7296 405.852 88.7298L396.059 99.3152C396.059 99.3154 396.059 99.3149 396.059 99.3152C395.961 99.4217 395.827 99.6279 395.707 99.892C395.588 100.151 395.517 100.391 395.496 100.546L395.056 104.48C395.056 104.481 395.056 104.481 395.056 104.482C395.005 104.951 395.148 105.253 395.32 105.421C395.493 105.587 395.793 105.715 396.245 105.636L396.247 105.635L400.085 104.966C400.234 104.938 400.465 104.855 400.709 104.722C400.957 104.587 401.143 104.441 401.236 104.336L401.247 104.324L411.042 93.7366C411.84 92.876 412.283 92.0918 412.334 91.3412C412.382 90.6389 412.1 89.7308 410.899 88.5715C409.706 87.425 408.806 87.1901 408.122 87.2794C407.392 87.3748 406.649 87.8697 405.852 88.7298Z" fill="#676C7B"/>
<path fill-rule="evenodd" clip-rule="evenodd" d="M403.434 88.9651C403.922 88.8874 404.38 89.2287 404.456 89.7274C404.906 92.6767 407.25 94.9339 410.163 95.2336C410.655 95.2842 411.014 95.7323 410.964 96.2344C410.915 96.7365 410.476 97.1026 409.984 97.052C406.265 96.6695 403.264 93.785 402.688 90.0087C402.611 89.51 402.946 89.0428 403.434 88.9651Z" fill="#676C7B"/>
<path fill-rule="evenodd" clip-rule="evenodd" d="M392.067 110.52C392.067 110.016 392.468 109.606 392.962 109.606H414.437C414.931 109.606 415.332 110.016 415.332 110.52C415.332 111.025 414.931 111.434 414.437 111.434H392.962C392.468 111.434 392.067 111.025 392.067 110.52Z" fill="#676C7B"/>
<path fill-rule="evenodd" clip-rule="evenodd" d="M399.145 132.434C399.655 132.434 400.068 132.847 400.068 133.357V137.049C400.068 137.559 399.655 137.973 399.145 137.973C398.635 137.973 398.222 137.559 398.222 137.049V133.357C398.222 132.847 398.635 132.434 399.145 132.434Z" fill="#676C7B"/>
<path fill-rule="evenodd" clip-rule="evenodd" d="M408.99 132.434C409.5 132.434 409.914 132.847 409.914 133.357V137.049C409.914 137.559 409.5 137.973 408.99 137.973C408.481 137.973 408.067 137.559 408.067 137.049V133.357C408.067 132.847 408.481 132.434 408.99 132.434Z" fill="#676C7B"/>
<path fill-rule="evenodd" clip-rule="evenodd" d="M392.683 142.083C392.683 141.573 393.096 141.16 393.606 141.16H414.529C415.039 141.16 415.452 141.573 415.452 142.083C415.452 142.593 415.039 143.006 414.529 143.006H393.606C393.096 143.006 392.683 142.593 392.683 142.083Z" fill="#676C7B"/>
<path fill-rule="evenodd" clip-rule="evenodd" d="M395.128 137.524C394.34 138.373 393.914 139.653 393.914 141.357V151.819C393.914 153.523 394.34 154.803 395.128 155.652C395.906 156.489 397.166 157.05 399.144 157.05H408.99C410.968 157.05 412.229 156.489 413.006 155.652C413.795 154.803 414.221 153.523 414.221 151.819V141.357C414.221 139.653 413.795 138.373 413.006 137.524C412.229 136.687 410.968 136.126 408.99 136.126H399.144C397.166 136.126 395.906 136.687 395.128 137.524ZM393.776 136.268C394.998 134.951 396.815 134.28 399.144 134.28H408.99C411.32 134.28 413.136 134.951 414.359 136.268C415.571 137.572 416.067 139.37 416.067 141.357V151.819C416.067 153.806 415.571 155.604 414.359 156.908C413.136 158.225 411.32 158.896 408.99 158.896H399.144C396.815 158.896 394.998 158.225 393.776 156.908C392.564 155.604 392.067 153.806 392.067 151.819V141.357C392.067 139.37 392.564 137.572 393.776 136.268Z" fill="#676C7B"/>
<path d="M497.417 141.372C497.866 141.372 498.229 141.735 498.229 142.184V151.934C498.229 152.383 497.866 152.747 497.417 152.747C496.968 152.747 496.604 152.383 496.604 151.934V142.184C496.604 141.735 496.968 141.372 497.417 141.372Z" fill="#676C7B"/>
<path d="M501.479 141.372C501.928 141.372 502.292 141.735 502.292 142.184V151.934C502.292 152.383 501.928 152.747 501.479 152.747C501.031 152.747 500.667 152.383 500.667 151.934V142.184C500.667 141.735 501.031 141.372 501.479 141.372Z" fill="#676C7B"/>
<path d="M506.354 142.184C506.354 141.735 505.991 141.372 505.542 141.372C505.093 141.372 504.729 141.735 504.729 142.184V151.934C504.729 152.383 505.093 152.747 505.542 152.747C505.991 152.747 506.354 152.383 506.354 151.934V142.184Z" fill="#676C7B"/>
<path fill-rule="evenodd" clip-rule="evenodd" d="M512.042 137.309C512.042 138.207 511.314 138.934 510.417 138.934H509.604V153.559C509.604 155.354 508.149 156.809 506.354 156.809H496.604C494.81 156.809 493.354 155.354 493.354 153.559V138.934H492.542C491.645 138.934 490.917 138.207 490.917 137.309V135.684C490.917 134.787 491.645 134.059 492.542 134.059H498.229C498.229 133.162 498.957 132.434 499.854 132.434H503.104C504.002 132.434 504.729 133.162 504.729 134.059H510.417C511.314 134.059 512.042 134.787 512.042 135.684V137.309ZM495.171 138.934L494.979 139.03V153.559C494.979 154.457 495.707 155.184 496.604 155.184H506.354C507.252 155.184 507.979 154.457 507.979 153.559V139.03L507.788 138.934H495.171ZM492.542 137.309V135.684H510.417V137.309H492.542Z" fill="#676C7B"/>
<path d="M490.326 15.9023L490.773 15.9144C491.667 15.9265 492.379 16.651 492.379 17.5446V17.9431C492.379 18.8367 493.104 19.5733 494.009 19.5733C494.903 19.5733 495.639 18.8488 495.639 17.9431V17.5688C495.639 16.6752 496.364 15.9386 497.27 15.9386C498.163 15.9386 498.9 16.6631 498.9 17.5688V17.9431C498.9 18.8367 499.624 19.5733 500.53 19.5733C501.424 19.5733 502.16 18.8488 502.16 17.9431V17.5688C502.16 16.6752 502.885 15.9386 503.79 15.9386C504.684 15.9386 505.42 16.6631 505.42 17.5688V17.9431C505.42 18.8367 506.145 19.5733 507.051 19.5733C507.944 19.5733 508.681 18.8488 508.681 17.9431V17.5688C508.681 16.6752 509.405 15.9386 510.311 15.9386H510.854" stroke="#4182EB" stroke-width="2" stroke-linecap="round" stroke-linejoin="round"/>
<path d="M488.479 25.5859H512.63" stroke="#FC7735" stroke-width="2" stroke-linecap="round" stroke-linejoin="round"/>
<path d="M489.82 25.5867V14.7188C489.82 12.7143 491.62 11.0962 493.841 11.0962H507.257C509.479 11.0962 511.278 12.7143 511.278 14.7188V25.5867" stroke="#FC7735" stroke-width="2" stroke-linecap="round" stroke-linejoin="round"/>
<path d="M495.726 5.05767V2.64258" stroke="#4182EB" stroke-width="2" stroke-linecap="round" stroke-linejoin="round"/>
<path d="M505.385 5.05767V2.64258" stroke="#4182EB" stroke-width="2" stroke-linecap="round" stroke-linejoin="round"/>
<path d="M500.555 5.05672V1.43408" stroke="#4182EB" stroke-width="2" stroke-linecap="round" stroke-linejoin="round"/>
<path d="M492.778 11.0944V7.67701C492.778 6.22796 494.082 5.05664 495.701 5.05664H505.421C507.027 5.05664 508.331 6.22796 508.331 7.67701V11.0944" stroke="#FC7735" stroke-width="2" stroke-linecap="round" stroke-linejoin="round"/>
<path d="M496.167 62.4694C496.167 62.0379 496.517 61.6881 496.948 61.6881H504.761C505.192 61.6881 505.542 62.0379 505.542 62.4694C505.542 62.9009 505.192 63.2506 504.761 63.2506H496.948C496.517 63.2506 496.167 62.9009 496.167 62.4694Z" fill="#407BE7"/>
<path d="M496.167 65.5944C496.167 65.1629 496.517 64.8131 496.948 64.8131H500.073C500.505 64.8131 500.854 65.1629 500.854 65.5944C500.854 66.0259 500.505 66.3756 500.073 66.3756H496.948C496.517 66.3756 496.167 66.0259 496.167 65.5944Z" fill="#407BE7"/>
<path d="M503.198 45.4341H494.604C492.879 45.4341 491.479 46.8332 491.479 48.5591V67.3091C491.479 69.035 492.879 70.4341 494.604 70.4341H507.104C508.83 70.4341 510.229 69.035 510.229 67.3091V52.4653L503.198 45.4341ZM503.198 46.9966V50.1216C503.198 51.416 504.248 52.4653 505.542 52.4653H508.667V67.3091C508.667 68.172 507.967 68.8716 507.104 68.8716H494.604C493.742 68.8716 493.042 68.172 493.042 67.3091V48.5591C493.042 47.6961 493.742 46.9966 494.604 46.9966H503.198Z" fill="#407BE7"/>
<path d="M498.979 56.11C498.573 56.11 498.261 56.2342 498.044 56.4825C497.828 56.7308 497.719 57.0821 497.719 57.5364C497.719 57.996 497.838 58.35 498.076 58.5983C498.319 58.8466 498.644 58.9708 499.051 58.9708C499.267 58.9708 499.45 58.9417 499.597 58.8836C499.751 58.8255 499.896 58.7594 500.033 58.6855C500.123 58.7594 500.192 58.8492 500.239 58.9549C500.292 59.0553 500.319 59.1742 500.319 59.3115C500.319 59.5281 500.197 59.713 499.954 59.8662C499.716 60.0141 499.352 60.0881 498.86 60.0881C498.507 60.0881 498.174 60.0379 497.862 59.9375C497.55 59.8372 497.278 59.684 497.046 59.4779C496.813 59.2666 496.628 59.0025 496.491 58.6855C496.359 58.3632 496.293 57.9802 496.293 57.5364C496.293 57.1244 496.356 56.7625 496.483 56.4508C496.615 56.1338 496.792 55.867 497.014 55.6504C497.241 55.4338 497.505 55.27 497.807 55.1591C498.108 55.0481 498.43 54.9927 498.773 54.9927C499.259 54.9927 499.634 55.0719 499.899 55.2304C500.168 55.3889 500.303 55.5923 500.303 55.8406C500.303 55.978 500.268 56.0968 500.2 56.1972C500.131 56.2976 500.052 56.3768 499.962 56.4349C499.825 56.3451 499.677 56.2685 499.518 56.2051C499.365 56.1417 499.185 56.11 498.979 56.11Z" fill="#407BE7"/>
<path d="M503.965 59.787C503.891 59.8504 503.775 59.9058 503.617 59.9534C503.464 60.0009 503.294 60.0247 503.11 60.0247C502.888 60.0247 502.697 59.993 502.539 59.9296C502.381 59.8609 502.272 59.7685 502.214 59.6523C502.156 59.5308 502.085 59.3749 502 59.1847C501.916 58.9892 501.826 58.7726 501.731 58.5349C501.641 58.2972 501.546 58.0462 501.445 57.7821C501.35 57.5127 501.258 57.2406 501.168 56.9659C501.078 56.6912 500.994 56.4217 500.914 56.1576C500.835 55.8934 500.767 55.6451 500.708 55.4127C500.782 55.3387 500.888 55.2727 501.025 55.2146C501.168 55.1512 501.319 55.1195 501.477 55.1195C501.673 55.1195 501.831 55.1617 501.953 55.2463C502.079 55.3255 502.172 55.4761 502.23 55.698C502.373 56.2157 502.515 56.7123 502.658 57.1878C502.806 57.6579 502.959 58.1493 503.117 58.6617H503.165C503.308 58.1651 503.453 57.6236 503.601 57.0372C503.754 56.4508 503.899 55.867 504.037 55.2859C504.132 55.2383 504.232 55.1987 504.338 55.167C504.449 55.1353 504.573 55.1195 504.71 55.1195C504.906 55.1195 505.072 55.1644 505.21 55.2542C505.347 55.3387 505.416 55.4814 505.416 55.6821C505.416 55.7983 505.387 55.9674 505.328 56.1893C505.276 56.4112 505.204 56.6621 505.114 56.9421C505.03 57.2168 504.932 57.5047 504.821 57.8059C504.716 58.107 504.607 58.3923 504.496 58.6617C504.391 58.9259 504.29 59.1609 504.195 59.367C504.1 59.5677 504.024 59.7077 503.965 59.787Z" fill="#407BE7"/>
<path d="M499.364 100.55L505.422 94.4919M511.619 90.795L506.505 107.413C506.047 108.903 505.818 109.648 505.423 109.895C505.08 110.109 504.655 110.144 504.281 109.989C503.851 109.811 503.502 109.114 502.805 107.719L499.566 101.242C499.456 101.021 499.4 100.91 499.326 100.814C499.261 100.729 499.185 100.653 499.1 100.587C499.004 100.514 498.893 100.458 498.672 100.348L492.194 97.1089C490.8 96.4119 490.103 96.0635 489.924 95.633C489.77 95.2596 489.805 94.8342 490.019 94.4914C490.266 94.0961 491.011 93.867 492.501 93.4086L509.119 88.2953C510.29 87.9349 510.876 87.7547 511.271 87.9C511.616 88.0265 511.888 88.298 512.014 88.6426C512.159 89.0382 511.979 89.6238 511.619 90.795Z" stroke="#407BE7" stroke-width="2" stroke-linecap="round" stroke-linejoin="round"/>
<path d="M595.233 3.43408H587.767C583.434 3.43408 583.1 7.17622 585.439 9.21337L597.561 19.7977C599.9 21.8348 599.566 25.5769 595.233 25.5769H587.767C583.434 25.5769 583.1 21.8348 585.439 19.7977L597.561 9.21337C599.9 7.17622 599.566 3.43408 595.233 3.43408Z" stroke="#FC7735" stroke-width="1.5" stroke-linecap="round" stroke-linejoin="round"/>
<path d="M587.471 20.7244L589.884 18.3438C590.644 17.5944 591.858 17.5735 592.644 18.2963L595.229 20.6768C596.57 21.9108 595.697 24.1482 593.875 24.1482H588.876C587.087 24.1482 586.198 21.9803 587.471 20.7244Z" fill="#407BE7"/>
<path d="M584.381 59.2376C581.961 59.2376 580 57.2293 580 54.7518C580 52.2744 581.961 50.266 584.381 50.266H585.826M584.381 59.2376C584.381 59.2376 585.894 64.6177 586.43 66.262C586.966 67.9063 589.645 67.9063 589.645 65.7139C589.645 63.5215 589.645 62.3179 589.645 59.5237M584.381 59.2376H585.826M589.645 59.5237C592.696 60.2374 595.524 62.1389 598.245 63.5319C603.698 66.3233 603.576 57.4704 603.576 54.7518C603.576 52.0333 603.698 43.1803 598.245 45.9718C594.833 47.719 591.251 50.266 587.272 50.266H585.826M589.645 59.5237C588.869 59.3423 588.078 59.2376 587.272 59.2376H585.826M585.826 59.2376V50.266" stroke="#676C7B" stroke-width="1.5"/>
<path d="M604.647 52.0332V57.5332" stroke="#676C7B" stroke-width="1.5" stroke-linecap="round" stroke-linejoin="round"/>
</svg>
