<svg width="517" height="285" viewBox="0 0 517 285" fill="none" xmlns="http://www.w3.org/2000/svg">
<rect x="0.5" y="0.947754" width="515.641" height="283.449" rx="9.5" stroke="#7E40C7" stroke-dasharray="5 5"/>
<path d="M35.5654 52.4565C35.5654 53.2769 35.4902 54.0037 35.3398 54.6372C35.194 55.2707 34.9798 55.8062 34.6973 56.2437C34.4193 56.6766 34.0752 57.007 33.665 57.2349C33.2594 57.4582 32.7969 57.5698 32.2773 57.5698C31.7852 57.5698 31.3454 57.4627 30.958 57.2485C30.5752 57.0298 30.2516 56.7131 29.9873 56.2983C29.723 55.8836 29.5225 55.3755 29.3857 54.7739C29.249 54.1678 29.1807 53.4751 29.1807 52.6958C29.1807 51.839 29.2513 51.0825 29.3926 50.4263C29.5384 49.77 29.7503 49.2209 30.0283 48.7788C30.3063 48.3322 30.6504 47.9972 31.0605 47.7739C31.4753 47.5461 31.9492 47.4321 32.4824 47.4321C34.5378 47.4321 35.5654 49.1069 35.5654 52.4565ZM34.417 52.5659C34.417 49.7769 33.7539 48.3823 32.4277 48.3823C31.0286 48.3823 30.3291 49.8019 30.3291 52.6411C30.3291 55.2889 31.015 56.6128 32.3867 56.6128C33.7402 56.6128 34.417 55.2638 34.417 52.5659Z" fill="#1F1F26"/>
<path d="M134.262 49.1294C134.262 48.8286 134.214 48.5666 134.118 48.3433C134.027 48.12 133.899 47.9354 133.735 47.7896C133.576 47.6392 133.387 47.5275 133.168 47.4546C132.949 47.3817 132.712 47.3452 132.457 47.3452C132.238 47.3452 132.024 47.3748 131.814 47.4341C131.605 47.4933 131.4 47.5754 131.199 47.6802C131.003 47.785 130.812 47.9103 130.625 48.0562C130.443 48.202 130.272 48.3638 130.112 48.5415V47.3384C130.427 47.033 130.778 46.8006 131.165 46.6411C131.557 46.4771 132.033 46.395 132.594 46.395C132.995 46.395 133.366 46.4543 133.708 46.5728C134.05 46.6867 134.346 46.8553 134.597 47.0786C134.847 47.3019 135.043 47.5776 135.185 47.9058C135.33 48.2339 135.403 48.6099 135.403 49.0337C135.403 49.4211 135.358 49.772 135.267 50.0864C135.18 50.4009 135.046 50.6971 134.863 50.9751C134.686 51.2531 134.46 51.5197 134.187 51.7749C133.913 52.0301 133.592 52.2899 133.223 52.5542C132.762 52.8823 132.382 53.1626 132.081 53.395C131.785 53.6274 131.548 53.8462 131.37 54.0513C131.197 54.2518 131.074 54.4546 131.001 54.6597C130.933 54.8602 130.898 55.0926 130.898 55.3569H135.779V56.3618H129.729V55.8765C129.729 55.4572 129.775 55.0881 129.866 54.769C129.957 54.45 130.108 54.147 130.317 53.8599C130.527 53.5728 130.8 53.2856 131.138 52.9985C131.479 52.7114 131.896 52.3879 132.389 52.0278C132.744 51.7726 133.04 51.5288 133.277 51.2964C133.519 51.064 133.713 50.8315 133.858 50.5991C134.004 50.3667 134.107 50.132 134.166 49.895C134.23 49.6535 134.262 49.3983 134.262 49.1294ZM143.155 53.3677C143.155 53.8462 143.073 54.2791 142.909 54.6665C142.745 55.0539 142.51 55.3866 142.205 55.6646C141.904 55.9425 141.54 56.1567 141.111 56.3071C140.683 56.4575 140.207 56.5327 139.683 56.5327C138.771 56.5327 138.094 56.396 137.652 56.1226V54.9331C138.318 55.3615 138.999 55.5757 139.696 55.5757C140.052 55.5757 140.371 55.5233 140.653 55.4185C140.94 55.3136 141.184 55.1678 141.385 54.981C141.585 54.7941 141.738 54.5685 141.843 54.3042C141.952 54.0399 142.007 53.7505 142.007 53.436C142.007 52.798 141.793 52.299 141.364 51.939C140.936 51.5744 140.314 51.3921 139.498 51.3921C139.366 51.3921 139.227 51.3944 139.081 51.3989C138.935 51.4035 138.789 51.4103 138.644 51.4194C138.498 51.424 138.354 51.4308 138.213 51.4399C138.076 51.4491 137.951 51.4604 137.837 51.4741L138.172 46.5591H142.704V47.5708H139.143L138.944 50.4487C139.09 50.4396 139.245 50.4328 139.409 50.4282C139.573 50.4191 139.719 50.4146 139.847 50.4146C140.366 50.4146 140.831 50.4829 141.241 50.6196C141.651 50.7563 141.998 50.9523 142.28 51.2075C142.567 51.4582 142.784 51.7681 142.93 52.1372C143.08 52.5018 143.155 52.9119 143.155 53.3677Z" fill="#1F1F26"/>
<path d="M245.679 54.4048C245.679 54.8833 245.597 55.3162 245.433 55.7036C245.269 56.091 245.034 56.4237 244.729 56.7017C244.428 56.9797 244.063 57.1938 243.635 57.3442C243.206 57.4946 242.73 57.5698 242.206 57.5698C241.295 57.5698 240.618 57.4331 240.176 57.1597V55.9702C240.841 56.3986 241.522 56.6128 242.22 56.6128C242.575 56.6128 242.894 56.5604 243.177 56.4556C243.464 56.3507 243.708 56.2049 243.908 56.0181C244.109 55.8312 244.261 55.6056 244.366 55.3413C244.476 55.077 244.53 54.7876 244.53 54.4731C244.53 53.8351 244.316 53.3361 243.888 52.9761C243.459 52.6115 242.837 52.4292 242.021 52.4292C241.889 52.4292 241.75 52.4315 241.604 52.436C241.459 52.4406 241.313 52.4474 241.167 52.4565C241.021 52.4611 240.878 52.4679 240.736 52.4771C240.6 52.4862 240.474 52.4976 240.36 52.5112L240.695 47.5962H245.228V48.6079H241.666L241.468 51.4858C241.614 51.4767 241.769 51.4699 241.933 51.4653C242.097 51.4562 242.243 51.4517 242.37 51.4517C242.89 51.4517 243.354 51.52 243.765 51.6567C244.175 51.7935 244.521 51.9894 244.804 52.2446C245.091 52.4953 245.307 52.8052 245.453 53.1743C245.604 53.5389 245.679 53.9491 245.679 54.4048ZM253.574 52.4565C253.574 53.2769 253.499 54.0037 253.349 54.6372C253.203 55.2707 252.989 55.8062 252.706 56.2437C252.428 56.6766 252.084 57.007 251.674 57.2349C251.268 57.4582 250.806 57.5698 250.286 57.5698C249.794 57.5698 249.354 57.4627 248.967 57.2485C248.584 57.0298 248.26 56.7131 247.996 56.2983C247.732 55.8836 247.531 55.3755 247.395 54.7739C247.258 54.1678 247.189 53.4751 247.189 52.6958C247.189 51.839 247.26 51.0825 247.401 50.4263C247.547 49.77 247.759 49.2209 248.037 48.7788C248.315 48.3322 248.659 47.9972 249.069 47.7739C249.484 47.5461 249.958 47.4321 250.491 47.4321C252.547 47.4321 253.574 49.1069 253.574 52.4565ZM252.426 52.5659C252.426 49.7769 251.763 48.3823 250.437 48.3823C249.037 48.3823 248.338 49.8019 248.338 52.6411C248.338 55.2889 249.024 56.6128 250.396 56.6128C251.749 56.6128 252.426 55.2638 252.426 52.5659Z" fill="#1F1F26"/>
<path d="M356.066 47.2085C355.916 47.4683 355.734 47.7918 355.52 48.1792C355.31 48.5666 355.087 49.0018 354.85 49.4849C354.613 49.9679 354.371 50.4875 354.125 51.0435C353.879 51.5994 353.649 52.1737 353.435 52.7661C353.22 53.3586 353.031 53.9601 352.867 54.5708C352.708 55.1769 352.591 55.7739 352.519 56.3618H351.315C351.397 55.7785 351.523 55.1838 351.691 54.5776C351.865 53.967 352.058 53.37 352.272 52.7866C352.491 52.1987 352.721 51.6336 352.963 51.0913C353.204 50.549 353.439 50.05 353.667 49.5942C353.895 49.1385 354.102 48.7375 354.289 48.3911C354.48 48.0402 354.633 47.7668 354.747 47.5708H349.832V46.5591H356.066V47.2085ZM363.333 53.3677C363.333 53.8462 363.251 54.2791 363.087 54.6665C362.923 55.0539 362.688 55.3866 362.383 55.6646C362.082 55.9425 361.717 56.1567 361.289 56.3071C360.861 56.4575 360.384 56.5327 359.86 56.5327C358.949 56.5327 358.272 56.396 357.83 56.1226V54.9331C358.495 55.3615 359.177 55.5757 359.874 55.5757C360.229 55.5757 360.549 55.5233 360.831 55.4185C361.118 55.3136 361.362 55.1678 361.562 54.981C361.763 54.7941 361.916 54.5685 362.021 54.3042C362.13 54.0399 362.185 53.7505 362.185 53.436C362.185 52.798 361.97 52.299 361.542 51.939C361.114 51.5744 360.492 51.3921 359.676 51.3921C359.544 51.3921 359.405 51.3944 359.259 51.3989C359.113 51.4035 358.967 51.4103 358.821 51.4194C358.675 51.424 358.532 51.4308 358.391 51.4399C358.254 51.4491 358.129 51.4604 358.015 51.4741L358.35 46.5591H362.882V47.5708H359.32L359.122 50.4487C359.268 50.4396 359.423 50.4328 359.587 50.4282C359.751 50.4191 359.897 50.4146 360.024 50.4146C360.544 50.4146 361.009 50.4829 361.419 50.6196C361.829 50.7563 362.175 50.9523 362.458 51.2075C362.745 51.4582 362.962 51.7681 363.107 52.1372C363.258 52.5018 363.333 52.9119 363.333 53.3677Z" fill="#1F1F26"/>
<path d="M445.452 57.3989H444.331V48.9292C444.244 49.0158 444.117 49.116 443.948 49.23C443.784 49.3394 443.597 49.4487 443.388 49.5581C443.183 49.6675 442.964 49.77 442.731 49.8657C442.504 49.9614 442.28 50.0366 442.062 50.0913V48.9565C442.308 48.8882 442.567 48.797 442.841 48.6831C443.119 48.5646 443.39 48.4347 443.654 48.2935C443.923 48.1476 444.176 47.9972 444.413 47.8423C444.65 47.6828 444.855 47.5278 445.028 47.3774H445.452V57.3989ZM455.022 52.4565C455.022 53.2769 454.947 54.0037 454.797 54.6372C454.651 55.2707 454.437 55.8062 454.154 56.2437C453.876 56.6766 453.532 57.007 453.122 57.2349C452.716 57.4582 452.254 57.5698 451.734 57.5698C451.242 57.5698 450.802 57.4627 450.415 57.2485C450.032 57.0298 449.709 56.7131 449.444 56.2983C449.18 55.8836 448.979 55.3755 448.843 54.7739C448.706 54.1678 448.638 53.4751 448.638 52.6958C448.638 51.839 448.708 51.0825 448.85 50.4263C448.995 49.77 449.207 49.2209 449.485 48.7788C449.763 48.3322 450.107 47.9972 450.518 47.7739C450.932 47.5461 451.406 47.4321 451.939 47.4321C453.995 47.4321 455.022 49.1069 455.022 52.4565ZM453.874 52.5659C453.874 49.7769 453.211 48.3823 451.885 48.3823C450.486 48.3823 449.786 49.8019 449.786 52.6411C449.786 55.2889 450.472 56.6128 451.844 56.6128C453.197 56.6128 453.874 55.2638 453.874 52.5659ZM462.569 52.4565C462.569 53.2769 462.494 54.0037 462.344 54.6372C462.198 55.2707 461.984 55.8062 461.701 56.2437C461.423 56.6766 461.079 57.007 460.669 57.2349C460.263 57.4582 459.801 57.5698 459.281 57.5698C458.789 57.5698 458.349 57.4627 457.962 57.2485C457.579 57.0298 457.256 56.7131 456.991 56.2983C456.727 55.8836 456.526 55.3755 456.39 54.7739C456.253 54.1678 456.185 53.4751 456.185 52.6958C456.185 51.839 456.255 51.0825 456.396 50.4263C456.542 49.77 456.754 49.2209 457.032 48.7788C457.31 48.3322 457.654 47.9972 458.064 47.7739C458.479 47.5461 458.953 47.4321 459.486 47.4321C461.542 47.4321 462.569 49.1069 462.569 52.4565ZM461.421 52.5659C461.421 49.7769 460.758 48.3823 459.432 48.3823C458.033 48.3823 457.333 49.8019 457.333 52.6411C457.333 55.2889 458.019 56.6128 459.391 56.6128C460.744 56.6128 461.421 55.2638 461.421 52.5659Z" fill="#1F1F26"/>
<path d="M477.942 27.2651C477.268 27.2651 476.73 27.0441 476.329 26.6021C475.928 26.1554 475.728 25.5607 475.728 24.8179C475.728 24.0067 475.939 23.3687 476.363 22.9038C476.787 22.4344 477.359 22.1997 478.079 22.1997C478.776 22.1997 479.316 22.4162 479.699 22.8491C480.087 23.2821 480.28 23.8905 480.28 24.6743C480.28 25.4582 480.064 26.0871 479.631 26.561C479.202 27.0304 478.64 27.2651 477.942 27.2651ZM478.038 22.9517C477.605 22.9517 477.263 23.1134 477.013 23.437C476.762 23.756 476.637 24.1958 476.637 24.7563C476.637 25.3078 476.76 25.7384 477.006 26.0483C477.252 26.3537 477.587 26.5063 478.011 26.5063C478.439 26.5063 478.774 26.3468 479.016 26.0278C479.257 25.7088 479.378 25.2668 479.378 24.7017C479.378 24.1502 479.257 23.7218 479.016 23.4165C478.779 23.1066 478.453 22.9517 478.038 22.9517ZM484.505 22.3501L478.216 32.2212H477.238L483.521 22.3501H484.505ZM483.78 32.3032C483.106 32.3032 482.568 32.0799 482.167 31.6333C481.766 31.1867 481.565 30.5942 481.565 29.856C481.565 29.0448 481.78 28.4045 482.208 27.9351C482.636 27.4611 483.206 27.2241 483.917 27.2241C484.61 27.2241 485.15 27.4429 485.537 27.8804C485.924 28.3179 486.118 28.9308 486.118 29.7192C486.118 30.4985 485.902 31.1252 485.469 31.5991C485.04 32.0685 484.478 32.3032 483.78 32.3032ZM483.876 27.9966C483.438 27.9966 483.094 28.1561 482.844 28.4751C482.598 28.7941 482.475 29.2362 482.475 29.8013C482.475 30.3436 482.598 30.7697 482.844 31.0796C483.09 31.3849 483.425 31.5376 483.849 31.5376C484.277 31.5376 484.612 31.3781 484.854 31.0591C485.095 30.7355 485.216 30.2935 485.216 29.7329C485.216 29.1769 485.095 28.7485 484.854 28.4478C484.617 28.147 484.291 27.9966 483.876 27.9966Z" fill="#1F1F26"/>
<rect x="28.0449" y="21.9028" width="440.287" height="9.5" rx="4.75" fill="#E2EBFB"/>
<rect x="28.5928" y="21.9028" width="110.071" height="9.5" rx="4.75" fill="#407BE7"/>
<path d="M138.664 21.9028L138.664 31.4028" stroke="#407BE7"/>
<path d="M248.734 21.938L248.734 31.438" stroke="#407BE7"/>
<path d="M358.842 21.9028L358.842 31.4028" stroke="#407BE7"/>
<path d="M138.663 32.9028C142.386 32.9028 145.911 30.3594 145.911 26.6528C145.911 22.9462 142.386 20.4028 138.663 20.4028C134.941 20.4028 131.416 22.9462 131.416 26.6528C131.416 30.3594 134.941 32.9028 138.663 32.9028Z" fill="#407BE7" stroke="white" stroke-width="3"/>
<path d="M35.5654 120.703C35.5654 121.523 35.4902 122.25 35.3398 122.883C35.194 123.517 34.9798 124.052 34.6973 124.49C34.4193 124.923 34.0752 125.253 33.665 125.481C33.2594 125.704 32.7969 125.816 32.2773 125.816C31.7852 125.816 31.3454 125.709 30.958 125.495C30.5752 125.276 30.2516 124.959 29.9873 124.544C29.723 124.13 29.5225 123.622 29.3857 123.02C29.249 122.414 29.1807 121.721 29.1807 120.942C29.1807 120.085 29.2513 119.329 29.3926 118.672C29.5384 118.016 29.7503 117.467 30.0283 117.025C30.3063 116.578 30.6504 116.243 31.0605 116.02C31.4753 115.792 31.9492 115.678 32.4824 115.678C34.5378 115.678 35.5654 117.353 35.5654 120.703ZM34.417 120.812C34.417 118.023 33.7539 116.628 32.4277 116.628C31.0286 116.628 30.3291 118.048 30.3291 120.887C30.3291 123.535 31.015 124.859 32.3867 124.859C33.7402 124.859 34.417 123.51 34.417 120.812Z" fill="#1F1F26"/>
<path d="M134.262 117.375C134.262 117.075 134.214 116.813 134.118 116.589C134.027 116.366 133.899 116.181 133.735 116.036C133.576 115.885 133.387 115.774 133.168 115.701C132.949 115.628 132.712 115.591 132.457 115.591C132.238 115.591 132.024 115.621 131.814 115.68C131.605 115.739 131.4 115.821 131.199 115.926C131.003 116.031 130.812 116.156 130.625 116.302C130.443 116.448 130.272 116.61 130.112 116.788V115.584C130.427 115.279 130.778 115.047 131.165 114.887C131.557 114.723 132.033 114.641 132.594 114.641C132.995 114.641 133.366 114.7 133.708 114.819C134.05 114.933 134.346 115.101 134.597 115.325C134.847 115.548 135.043 115.824 135.185 116.152C135.33 116.48 135.403 116.856 135.403 117.28C135.403 117.667 135.358 118.018 135.267 118.333C135.18 118.647 135.046 118.943 134.863 119.221C134.686 119.499 134.46 119.766 134.187 120.021C133.913 120.276 133.592 120.536 133.223 120.8C132.762 121.128 132.382 121.409 132.081 121.641C131.785 121.874 131.548 122.092 131.37 122.297C131.197 122.498 131.074 122.701 131.001 122.906C130.933 123.106 130.898 123.339 130.898 123.603H135.779V124.608H129.729V124.123C129.729 123.703 129.775 123.334 129.866 123.015C129.957 122.696 130.108 122.393 130.317 122.106C130.527 121.819 130.8 121.532 131.138 121.245C131.479 120.958 131.896 120.634 132.389 120.274C132.744 120.019 133.04 119.775 133.277 119.542C133.519 119.31 133.713 119.078 133.858 118.845C134.004 118.613 134.107 118.378 134.166 118.141C134.23 117.9 134.262 117.644 134.262 117.375ZM143.155 121.614C143.155 122.092 143.073 122.525 142.909 122.913C142.745 123.3 142.51 123.633 142.205 123.911C141.904 124.189 141.54 124.403 141.111 124.553C140.683 124.704 140.207 124.779 139.683 124.779C138.771 124.779 138.094 124.642 137.652 124.369V123.179C138.318 123.608 138.999 123.822 139.696 123.822C140.052 123.822 140.371 123.769 140.653 123.665C140.94 123.56 141.184 123.414 141.385 123.227C141.585 123.04 141.738 122.815 141.843 122.55C141.952 122.286 142.007 121.997 142.007 121.682C142.007 121.044 141.793 120.545 141.364 120.185C140.936 119.82 140.314 119.638 139.498 119.638C139.366 119.638 139.227 119.64 139.081 119.645C138.935 119.65 138.789 119.656 138.644 119.666C138.498 119.67 138.354 119.677 138.213 119.686C138.076 119.695 137.951 119.707 137.837 119.72L138.172 114.805H142.704V115.817H139.143L138.944 118.695C139.09 118.686 139.245 118.679 139.409 118.674C139.573 118.665 139.719 118.661 139.847 118.661C140.366 118.661 140.831 118.729 141.241 118.866C141.651 119.002 141.998 119.198 142.28 119.454C142.567 119.704 142.784 120.014 142.93 120.383C143.08 120.748 143.155 121.158 143.155 121.614Z" fill="#1F1F26"/>
<path d="M245.679 122.651C245.679 123.129 245.597 123.562 245.433 123.95C245.269 124.337 245.034 124.67 244.729 124.948C244.428 125.226 244.063 125.44 243.635 125.59C243.206 125.741 242.73 125.816 242.206 125.816C241.295 125.816 240.618 125.679 240.176 125.406V124.216C240.841 124.645 241.522 124.859 242.22 124.859C242.575 124.859 242.894 124.806 243.177 124.702C243.464 124.597 243.708 124.451 243.908 124.264C244.109 124.077 244.261 123.852 244.366 123.587C244.476 123.323 244.53 123.034 244.53 122.719C244.53 122.081 244.316 121.582 243.888 121.222C243.459 120.858 242.837 120.675 242.021 120.675C241.889 120.675 241.75 120.678 241.604 120.682C241.459 120.687 241.313 120.694 241.167 120.703C241.021 120.707 240.878 120.714 240.736 120.723C240.6 120.732 240.474 120.744 240.36 120.757L240.695 115.842H245.228V116.854H241.666L241.468 119.732C241.614 119.723 241.769 119.716 241.933 119.711C242.097 119.702 242.243 119.698 242.37 119.698C242.89 119.698 243.354 119.766 243.765 119.903C244.175 120.04 244.521 120.236 244.804 120.491C245.091 120.741 245.307 121.051 245.453 121.42C245.604 121.785 245.679 122.195 245.679 122.651ZM253.574 120.703C253.574 121.523 253.499 122.25 253.349 122.883C253.203 123.517 252.989 124.052 252.706 124.49C252.428 124.923 252.084 125.253 251.674 125.481C251.268 125.704 250.806 125.816 250.286 125.816C249.794 125.816 249.354 125.709 248.967 125.495C248.584 125.276 248.26 124.959 247.996 124.544C247.732 124.13 247.531 123.622 247.395 123.02C247.258 122.414 247.189 121.721 247.189 120.942C247.189 120.085 247.26 119.329 247.401 118.672C247.547 118.016 247.759 117.467 248.037 117.025C248.315 116.578 248.659 116.243 249.069 116.02C249.484 115.792 249.958 115.678 250.491 115.678C252.547 115.678 253.574 117.353 253.574 120.703ZM252.426 120.812C252.426 118.023 251.763 116.628 250.437 116.628C249.037 116.628 248.338 118.048 248.338 120.887C248.338 123.535 249.024 124.859 250.396 124.859C251.749 124.859 252.426 123.51 252.426 120.812Z" fill="#1F1F26"/>
<path d="M356.066 115.455C355.916 115.714 355.734 116.038 355.52 116.425C355.31 116.813 355.087 117.248 354.85 117.731C354.613 118.214 354.371 118.734 354.125 119.29C353.879 119.846 353.649 120.42 353.435 121.012C353.22 121.605 353.031 122.206 352.867 122.817C352.708 123.423 352.591 124.02 352.519 124.608H351.315C351.397 124.025 351.523 123.43 351.691 122.824C351.865 122.213 352.058 121.616 352.272 121.033C352.491 120.445 352.721 119.88 352.963 119.337C353.204 118.795 353.439 118.296 353.667 117.84C353.895 117.385 354.102 116.984 354.289 116.637C354.48 116.286 354.633 116.013 354.747 115.817H349.832V114.805H356.066V115.455ZM363.333 121.614C363.333 122.092 363.251 122.525 363.087 122.913C362.923 123.3 362.688 123.633 362.383 123.911C362.082 124.189 361.717 124.403 361.289 124.553C360.861 124.704 360.384 124.779 359.86 124.779C358.949 124.779 358.272 124.642 357.83 124.369V123.179C358.495 123.608 359.177 123.822 359.874 123.822C360.229 123.822 360.549 123.769 360.831 123.665C361.118 123.56 361.362 123.414 361.562 123.227C361.763 123.04 361.916 122.815 362.021 122.55C362.13 122.286 362.185 121.997 362.185 121.682C362.185 121.044 361.97 120.545 361.542 120.185C361.114 119.82 360.492 119.638 359.676 119.638C359.544 119.638 359.405 119.64 359.259 119.645C359.113 119.65 358.967 119.656 358.821 119.666C358.675 119.67 358.532 119.677 358.391 119.686C358.254 119.695 358.129 119.707 358.015 119.72L358.35 114.805H362.882V115.817H359.32L359.122 118.695C359.268 118.686 359.423 118.679 359.587 118.674C359.751 118.665 359.897 118.661 360.024 118.661C360.544 118.661 361.009 118.729 361.419 118.866C361.829 119.002 362.175 119.198 362.458 119.454C362.745 119.704 362.962 120.014 363.107 120.383C363.258 120.748 363.333 121.158 363.333 121.614Z" fill="#1F1F26"/>
<path d="M445.452 125.645H444.331V117.175C444.244 117.262 444.117 117.362 443.948 117.476C443.784 117.585 443.597 117.695 443.388 117.804C443.183 117.914 442.964 118.016 442.731 118.112C442.504 118.208 442.28 118.283 442.062 118.337V117.203C442.308 117.134 442.567 117.043 442.841 116.929C443.119 116.811 443.39 116.681 443.654 116.54C443.923 116.394 444.176 116.243 444.413 116.088C444.65 115.929 444.855 115.774 445.028 115.624H445.452V125.645ZM455.022 120.703C455.022 121.523 454.947 122.25 454.797 122.883C454.651 123.517 454.437 124.052 454.154 124.49C453.876 124.923 453.532 125.253 453.122 125.481C452.716 125.704 452.254 125.816 451.734 125.816C451.242 125.816 450.802 125.709 450.415 125.495C450.032 125.276 449.709 124.959 449.444 124.544C449.18 124.13 448.979 123.622 448.843 123.02C448.706 122.414 448.638 121.721 448.638 120.942C448.638 120.085 448.708 119.329 448.85 118.672C448.995 118.016 449.207 117.467 449.485 117.025C449.763 116.578 450.107 116.243 450.518 116.02C450.932 115.792 451.406 115.678 451.939 115.678C453.995 115.678 455.022 117.353 455.022 120.703ZM453.874 120.812C453.874 118.023 453.211 116.628 451.885 116.628C450.486 116.628 449.786 118.048 449.786 120.887C449.786 123.535 450.472 124.859 451.844 124.859C453.197 124.859 453.874 123.51 453.874 120.812ZM462.569 120.703C462.569 121.523 462.494 122.25 462.344 122.883C462.198 123.517 461.984 124.052 461.701 124.49C461.423 124.923 461.079 125.253 460.669 125.481C460.263 125.704 459.801 125.816 459.281 125.816C458.789 125.816 458.349 125.709 457.962 125.495C457.579 125.276 457.256 124.959 456.991 124.544C456.727 124.13 456.526 123.622 456.39 123.02C456.253 122.414 456.185 121.721 456.185 120.942C456.185 120.085 456.255 119.329 456.396 118.672C456.542 118.016 456.754 117.467 457.032 117.025C457.31 116.578 457.654 116.243 458.064 116.02C458.479 115.792 458.953 115.678 459.486 115.678C461.542 115.678 462.569 117.353 462.569 120.703ZM461.421 120.812C461.421 118.023 460.758 116.628 459.432 116.628C458.033 116.628 457.333 118.048 457.333 120.887C457.333 123.535 458.019 124.859 459.391 124.859C460.744 124.859 461.421 123.51 461.421 120.812Z" fill="#1F1F26"/>
<path d="M477.942 95.5112C477.268 95.5112 476.73 95.2902 476.329 94.8481C475.928 94.4015 475.728 93.8068 475.728 93.064C475.728 92.2528 475.939 91.6147 476.363 91.1499C476.787 90.6805 477.359 90.4458 478.079 90.4458C478.776 90.4458 479.316 90.6623 479.699 91.0952C480.087 91.5282 480.28 92.1366 480.28 92.9204C480.28 93.7043 480.064 94.3332 479.631 94.8071C479.202 95.2765 478.64 95.5112 477.942 95.5112ZM478.038 91.1978C477.605 91.1978 477.263 91.3595 477.013 91.6831C476.762 92.0021 476.637 92.4419 476.637 93.0024C476.637 93.5539 476.76 93.9845 477.006 94.2944C477.252 94.5998 477.587 94.7524 478.011 94.7524C478.439 94.7524 478.774 94.5929 479.016 94.2739C479.257 93.9549 479.378 93.5129 479.378 92.9478C479.378 92.3963 479.257 91.9679 479.016 91.6626C478.779 91.3527 478.453 91.1978 478.038 91.1978ZM484.505 90.5962L478.216 100.467H477.238L483.521 90.5962H484.505ZM483.78 100.549C483.106 100.549 482.568 100.326 482.167 99.8794C481.766 99.4328 481.565 98.8403 481.565 98.1021C481.565 97.2909 481.78 96.6506 482.208 96.1812C482.636 95.7072 483.206 95.4702 483.917 95.4702C484.61 95.4702 485.15 95.689 485.537 96.1265C485.924 96.564 486.118 97.1769 486.118 97.9653C486.118 98.7446 485.902 99.3713 485.469 99.8452C485.04 100.315 484.478 100.549 483.78 100.549ZM483.876 96.2427C483.438 96.2427 483.094 96.4022 482.844 96.7212C482.598 97.0402 482.475 97.4823 482.475 98.0474C482.475 98.5897 482.598 99.0158 482.844 99.3257C483.09 99.631 483.425 99.7837 483.849 99.7837C484.277 99.7837 484.612 99.6242 484.854 99.3052C485.095 98.9816 485.216 98.5396 485.216 97.979C485.216 97.423 485.095 96.9946 484.854 96.6938C484.617 96.3931 484.291 96.2427 483.876 96.2427Z" fill="#1F1F26"/>
<rect x="28.0449" y="90.1489" width="440.287" height="9.5" rx="4.75" fill="#E2EBFB"/>
<rect x="28.5928" y="90.1489" width="220.141" height="9.5" rx="4.75" fill="#407BE7"/>
<path d="M248.734 90.1841L248.734 99.6841" stroke="#407BE7"/>
<path d="M358.842 90.1489L358.842 99.6489" stroke="#407BE7"/>
<path d="M248.189 101.149C251.911 101.149 255.436 98.6055 255.436 94.8989C255.436 91.1923 251.911 88.6489 248.189 88.6489C244.466 88.6489 240.941 91.1923 240.941 94.8989C240.941 98.6055 244.466 101.149 248.189 101.149Z" fill="#407BE7" stroke="white" stroke-width="3"/>
<path d="M35.5654 257.195C35.5654 258.016 35.4902 258.743 35.3398 259.376C35.194 260.009 34.9798 260.545 34.6973 260.982C34.4193 261.415 34.0752 261.746 33.665 261.974C33.2594 262.197 32.7969 262.309 32.2773 262.309C31.7852 262.309 31.3454 262.201 30.958 261.987C30.5752 261.769 30.2516 261.452 29.9873 261.037C29.723 260.622 29.5225 260.114 29.3857 259.513C29.249 258.907 29.1807 258.214 29.1807 257.435C29.1807 256.578 29.2513 255.821 29.3926 255.165C29.5384 254.509 29.7503 253.96 30.0283 253.518C30.3063 253.071 30.6504 252.736 31.0605 252.513C31.4753 252.285 31.9492 252.171 32.4824 252.171C34.5378 252.171 35.5654 253.846 35.5654 257.195ZM34.417 257.305C34.417 254.516 33.7539 253.121 32.4277 253.121C31.0286 253.121 30.3291 254.541 30.3291 257.38C30.3291 260.028 31.015 261.352 32.3867 261.352C33.7402 261.352 34.417 260.003 34.417 257.305Z" fill="#1F1F26"/>
<path d="M134.262 253.868C134.262 253.567 134.214 253.305 134.118 253.082C134.027 252.859 133.899 252.674 133.735 252.528C133.576 252.378 133.387 252.266 133.168 252.193C132.949 252.12 132.712 252.084 132.457 252.084C132.238 252.084 132.024 252.114 131.814 252.173C131.605 252.232 131.4 252.314 131.199 252.419C131.003 252.524 130.812 252.649 130.625 252.795C130.443 252.941 130.272 253.103 130.112 253.28V252.077C130.427 251.772 130.778 251.539 131.165 251.38C131.557 251.216 132.033 251.134 132.594 251.134C132.995 251.134 133.366 251.193 133.708 251.312C134.05 251.425 134.346 251.594 134.597 251.817C134.847 252.041 135.043 252.316 135.185 252.645C135.33 252.973 135.403 253.349 135.403 253.772C135.403 254.16 135.358 254.511 135.267 254.825C135.18 255.14 135.046 255.436 134.863 255.714C134.686 255.992 134.46 256.258 134.187 256.514C133.913 256.769 133.592 257.029 133.223 257.293C132.762 257.621 132.382 257.901 132.081 258.134C131.785 258.366 131.548 258.585 131.37 258.79C131.197 258.991 131.074 259.193 131.001 259.398C130.933 259.599 130.898 259.831 130.898 260.096H135.779V261.101H129.729V260.615C129.729 260.196 129.775 259.827 129.866 259.508C129.957 259.189 130.108 258.886 130.317 258.599C130.527 258.312 130.8 258.024 131.138 257.737C131.479 257.45 131.896 257.127 132.389 256.767C132.744 256.511 133.04 256.268 133.277 256.035C133.519 255.803 133.713 255.57 133.858 255.338C134.004 255.105 134.107 254.871 134.166 254.634C134.23 254.392 134.262 254.137 134.262 253.868ZM143.155 258.106C143.155 258.585 143.073 259.018 142.909 259.405C142.745 259.793 142.51 260.125 142.205 260.403C141.904 260.681 141.54 260.896 141.111 261.046C140.683 261.196 140.207 261.271 139.683 261.271C138.771 261.271 138.094 261.135 137.652 260.861V259.672C138.318 260.1 138.999 260.314 139.696 260.314C140.052 260.314 140.371 260.262 140.653 260.157C140.94 260.052 141.184 259.907 141.385 259.72C141.585 259.533 141.738 259.307 141.843 259.043C141.952 258.779 142.007 258.489 142.007 258.175C142.007 257.537 141.793 257.038 141.364 256.678C140.936 256.313 140.314 256.131 139.498 256.131C139.366 256.131 139.227 256.133 139.081 256.138C138.935 256.142 138.789 256.149 138.644 256.158C138.498 256.163 138.354 256.17 138.213 256.179C138.076 256.188 137.951 256.199 137.837 256.213L138.172 251.298H142.704V252.31H139.143L138.944 255.188C139.09 255.178 139.245 255.172 139.409 255.167C139.573 255.158 139.719 255.153 139.847 255.153C140.366 255.153 140.831 255.222 141.241 255.358C141.651 255.495 141.998 255.691 142.28 255.946C142.567 256.197 142.784 256.507 142.93 256.876C143.08 257.241 143.155 257.651 143.155 258.106Z" fill="#1F1F26"/>
<path d="M245.679 259.144C245.679 259.622 245.597 260.055 245.433 260.442C245.269 260.83 245.034 261.162 244.729 261.44C244.428 261.718 244.063 261.933 243.635 262.083C243.206 262.233 242.73 262.309 242.206 262.309C241.295 262.309 240.618 262.172 240.176 261.898V260.709C240.841 261.137 241.522 261.352 242.22 261.352C242.575 261.352 242.894 261.299 243.177 261.194C243.464 261.09 243.708 260.944 243.908 260.757C244.109 260.57 244.261 260.344 244.366 260.08C244.476 259.816 244.53 259.526 244.53 259.212C244.53 258.574 244.316 258.075 243.888 257.715C243.459 257.35 242.837 257.168 242.021 257.168C241.889 257.168 241.75 257.17 241.604 257.175C241.459 257.179 241.313 257.186 241.167 257.195C241.021 257.2 240.878 257.207 240.736 257.216C240.6 257.225 240.474 257.236 240.36 257.25L240.695 252.335H245.228V253.347H241.666L241.468 256.225C241.614 256.215 241.769 256.209 241.933 256.204C242.097 256.195 242.243 256.19 242.37 256.19C242.89 256.19 243.354 256.259 243.765 256.396C244.175 256.532 244.521 256.728 244.804 256.983C245.091 257.234 245.307 257.544 245.453 257.913C245.604 258.278 245.679 258.688 245.679 259.144ZM253.574 257.195C253.574 258.016 253.499 258.743 253.349 259.376C253.203 260.009 252.989 260.545 252.706 260.982C252.428 261.415 252.084 261.746 251.674 261.974C251.268 262.197 250.806 262.309 250.286 262.309C249.794 262.309 249.354 262.201 248.967 261.987C248.584 261.769 248.26 261.452 247.996 261.037C247.732 260.622 247.531 260.114 247.395 259.513C247.258 258.907 247.189 258.214 247.189 257.435C247.189 256.578 247.26 255.821 247.401 255.165C247.547 254.509 247.759 253.96 248.037 253.518C248.315 253.071 248.659 252.736 249.069 252.513C249.484 252.285 249.958 252.171 250.491 252.171C252.547 252.171 253.574 253.846 253.574 257.195ZM252.426 257.305C252.426 254.516 251.763 253.121 250.437 253.121C249.037 253.121 248.338 254.541 248.338 257.38C248.338 260.028 249.024 261.352 250.396 261.352C251.749 261.352 252.426 260.003 252.426 257.305Z" fill="#1F1F26"/>
<path d="M356.066 251.947C355.916 252.207 355.734 252.531 355.52 252.918C355.31 253.305 355.087 253.741 354.85 254.224C354.613 254.707 354.371 255.226 354.125 255.782C353.879 256.338 353.649 256.912 353.435 257.505C353.22 258.097 353.031 258.699 352.867 259.31C352.708 259.916 352.591 260.513 352.519 261.101H351.315C351.397 260.517 351.523 259.923 351.691 259.316C351.865 258.706 352.058 258.109 352.272 257.525C352.491 256.938 352.721 256.372 352.963 255.83C353.204 255.288 353.439 254.789 353.667 254.333C353.895 253.877 354.102 253.476 354.289 253.13C354.48 252.779 354.633 252.506 354.747 252.31H349.832V251.298H356.066V251.947ZM363.333 258.106C363.333 258.585 363.251 259.018 363.087 259.405C362.923 259.793 362.688 260.125 362.383 260.403C362.082 260.681 361.717 260.896 361.289 261.046C360.861 261.196 360.384 261.271 359.86 261.271C358.949 261.271 358.272 261.135 357.83 260.861V259.672C358.495 260.1 359.177 260.314 359.874 260.314C360.229 260.314 360.549 260.262 360.831 260.157C361.118 260.052 361.362 259.907 361.562 259.72C361.763 259.533 361.916 259.307 362.021 259.043C362.13 258.779 362.185 258.489 362.185 258.175C362.185 257.537 361.97 257.038 361.542 256.678C361.114 256.313 360.492 256.131 359.676 256.131C359.544 256.131 359.405 256.133 359.259 256.138C359.113 256.142 358.967 256.149 358.821 256.158C358.675 256.163 358.532 256.17 358.391 256.179C358.254 256.188 358.129 256.199 358.015 256.213L358.35 251.298H362.882V252.31H359.32L359.122 255.188C359.268 255.178 359.423 255.172 359.587 255.167C359.751 255.158 359.897 255.153 360.024 255.153C360.544 255.153 361.009 255.222 361.419 255.358C361.829 255.495 362.175 255.691 362.458 255.946C362.745 256.197 362.962 256.507 363.107 256.876C363.258 257.241 363.333 257.651 363.333 258.106Z" fill="#1F1F26"/>
<path d="M445.452 262.138H444.331V253.668C444.244 253.755 444.117 253.855 443.948 253.969C443.784 254.078 443.597 254.188 443.388 254.297C443.183 254.406 442.964 254.509 442.731 254.604C442.504 254.7 442.28 254.775 442.062 254.83V253.695C442.308 253.627 442.567 253.536 442.841 253.422C443.119 253.303 443.39 253.174 443.654 253.032C443.923 252.886 444.176 252.736 444.413 252.581C444.65 252.422 444.855 252.267 445.028 252.116H445.452V262.138ZM455.022 257.195C455.022 258.016 454.947 258.743 454.797 259.376C454.651 260.009 454.437 260.545 454.154 260.982C453.876 261.415 453.532 261.746 453.122 261.974C452.716 262.197 452.254 262.309 451.734 262.309C451.242 262.309 450.802 262.201 450.415 261.987C450.032 261.769 449.709 261.452 449.444 261.037C449.18 260.622 448.979 260.114 448.843 259.513C448.706 258.907 448.638 258.214 448.638 257.435C448.638 256.578 448.708 255.821 448.85 255.165C448.995 254.509 449.207 253.96 449.485 253.518C449.763 253.071 450.107 252.736 450.518 252.513C450.932 252.285 451.406 252.171 451.939 252.171C453.995 252.171 455.022 253.846 455.022 257.195ZM453.874 257.305C453.874 254.516 453.211 253.121 451.885 253.121C450.486 253.121 449.786 254.541 449.786 257.38C449.786 260.028 450.472 261.352 451.844 261.352C453.197 261.352 453.874 260.003 453.874 257.305ZM462.569 257.195C462.569 258.016 462.494 258.743 462.344 259.376C462.198 260.009 461.984 260.545 461.701 260.982C461.423 261.415 461.079 261.746 460.669 261.974C460.263 262.197 459.801 262.309 459.281 262.309C458.789 262.309 458.349 262.201 457.962 261.987C457.579 261.769 457.256 261.452 456.991 261.037C456.727 260.622 456.526 260.114 456.39 259.513C456.253 258.907 456.185 258.214 456.185 257.435C456.185 256.578 456.255 255.821 456.396 255.165C456.542 254.509 456.754 253.96 457.032 253.518C457.31 253.071 457.654 252.736 458.064 252.513C458.479 252.285 458.953 252.171 459.486 252.171C461.542 252.171 462.569 253.846 462.569 257.195ZM461.421 257.305C461.421 254.516 460.758 253.121 459.432 253.121C458.033 253.121 457.333 254.541 457.333 257.38C457.333 260.028 458.019 261.352 459.391 261.352C460.744 261.352 461.421 260.003 461.421 257.305Z" fill="#1F1F26"/>
<path d="M477.942 232.003C477.268 232.003 476.73 231.782 476.329 231.34C475.928 230.894 475.728 230.299 475.728 229.556C475.728 228.745 475.939 228.107 476.363 227.642C476.787 227.173 477.359 226.938 478.079 226.938C478.776 226.938 479.316 227.154 479.699 227.587C480.087 228.02 480.28 228.629 480.28 229.413C480.28 230.196 480.064 230.825 479.631 231.299C479.202 231.769 478.64 232.003 477.942 232.003ZM478.038 227.69C477.605 227.69 477.263 227.852 477.013 228.175C476.762 228.494 476.637 228.934 476.637 229.495C476.637 230.046 476.76 230.477 477.006 230.787C477.252 231.092 477.587 231.245 478.011 231.245C478.439 231.245 478.774 231.085 479.016 230.766C479.257 230.447 479.378 230.005 479.378 229.44C479.378 228.889 479.257 228.46 479.016 228.155C478.779 227.845 478.453 227.69 478.038 227.69ZM484.505 227.088L478.216 236.959H477.238L483.521 227.088H484.505ZM483.78 237.042C483.106 237.042 482.568 236.818 482.167 236.372C481.766 235.925 481.565 235.333 481.565 234.594C481.565 233.783 481.78 233.143 482.208 232.673C482.636 232.199 483.206 231.962 483.917 231.962C484.61 231.962 485.15 232.181 485.537 232.619C485.924 233.056 486.118 233.669 486.118 234.458C486.118 235.237 485.902 235.863 485.469 236.337C485.04 236.807 484.478 237.042 483.78 237.042ZM483.876 232.735C483.438 232.735 483.094 232.894 482.844 233.213C482.598 233.532 482.475 233.974 482.475 234.54C482.475 235.082 482.598 235.508 482.844 235.818C483.09 236.123 483.425 236.276 483.849 236.276C484.277 236.276 484.612 236.116 484.854 235.797C485.095 235.474 485.216 235.032 485.216 234.471C485.216 233.915 485.095 233.487 484.854 233.186C484.617 232.885 484.291 232.735 483.876 232.735Z" fill="#1F1F26"/>
<rect x="28.0449" y="226.641" width="440.287" height="9.5" rx="4.75" fill="#E2EBFB"/>
<rect x="28.5928" y="226.641" width="439.739" height="9.5" rx="4.75" fill="#407BE7"/>
<path d="M138.664 226.641L138.664 236.141" stroke="#407BE7"/>
<path d="M248.734 226.676L248.734 236.176" stroke="#407BE7"/>
<path d="M358.842 226.641L358.842 236.141" stroke="#407BE7"/>
<path d="M464.705 237.641C468.428 237.641 471.953 235.098 471.953 231.391C471.953 227.684 468.428 225.141 464.705 225.141C460.983 225.141 457.458 227.684 457.458 231.391C457.458 235.098 460.983 237.641 464.705 237.641Z" fill="#407BE7" stroke="white" stroke-width="3"/>
<path d="M35.5654 188.949C35.5654 189.769 35.4902 190.496 35.3398 191.129C35.194 191.763 34.9798 192.298 34.6973 192.736C34.4193 193.169 34.0752 193.499 33.665 193.727C33.2594 193.95 32.7969 194.062 32.2773 194.062C31.7852 194.062 31.3454 193.955 30.958 193.741C30.5752 193.522 30.2516 193.205 29.9873 192.791C29.723 192.376 29.5225 191.868 29.3857 191.266C29.249 190.66 29.1807 189.967 29.1807 189.188C29.1807 188.331 29.2513 187.575 29.3926 186.918C29.5384 186.262 29.7503 185.713 30.0283 185.271C30.3063 184.824 30.6504 184.489 31.0605 184.266C31.4753 184.038 31.9492 183.924 32.4824 183.924C34.5378 183.924 35.5654 185.599 35.5654 188.949ZM34.417 189.058C34.417 186.269 33.7539 184.875 32.4277 184.875C31.0286 184.875 30.3291 186.294 30.3291 189.133C30.3291 191.781 31.015 193.105 32.3867 193.105C33.7402 193.105 34.417 191.756 34.417 189.058Z" fill="#1F1F26"/>
<path d="M134.262 185.622C134.262 185.321 134.214 185.059 134.118 184.835C134.027 184.612 133.899 184.428 133.735 184.282C133.576 184.131 133.387 184.02 133.168 183.947C132.949 183.874 132.712 183.837 132.457 183.837C132.238 183.837 132.024 183.867 131.814 183.926C131.605 183.986 131.4 184.068 131.199 184.172C131.003 184.277 130.812 184.403 130.625 184.548C130.443 184.694 130.272 184.856 130.112 185.034V183.831C130.427 183.525 130.778 183.293 131.165 183.133C131.557 182.969 132.033 182.887 132.594 182.887C132.995 182.887 133.366 182.946 133.708 183.065C134.05 183.179 134.346 183.347 134.597 183.571C134.847 183.794 135.043 184.07 135.185 184.398C135.33 184.726 135.403 185.102 135.403 185.526C135.403 185.913 135.358 186.264 135.267 186.579C135.18 186.893 135.046 187.189 134.863 187.467C134.686 187.745 134.46 188.012 134.187 188.267C133.913 188.522 133.592 188.782 133.223 189.046C132.762 189.375 132.382 189.655 132.081 189.887C131.785 190.12 131.548 190.338 131.37 190.543C131.197 190.744 131.074 190.947 131.001 191.152C130.933 191.352 130.898 191.585 130.898 191.849H135.779V192.854H129.729V192.369C129.729 191.949 129.775 191.58 129.866 191.261C129.957 190.942 130.108 190.639 130.317 190.352C130.527 190.065 130.8 189.778 131.138 189.491C131.479 189.204 131.896 188.88 132.389 188.52C132.744 188.265 133.04 188.021 133.277 187.789C133.519 187.556 133.713 187.324 133.858 187.091C134.004 186.859 134.107 186.624 134.166 186.387C134.23 186.146 134.262 185.89 134.262 185.622ZM143.155 189.86C143.155 190.338 143.073 190.771 142.909 191.159C142.745 191.546 142.51 191.879 142.205 192.157C141.904 192.435 141.54 192.649 141.111 192.799C140.683 192.95 140.207 193.025 139.683 193.025C138.771 193.025 138.094 192.888 137.652 192.615V191.425C138.318 191.854 138.999 192.068 139.696 192.068C140.052 192.068 140.371 192.015 140.653 191.911C140.94 191.806 141.184 191.66 141.385 191.473C141.585 191.286 141.738 191.061 141.843 190.796C141.952 190.532 142.007 190.243 142.007 189.928C142.007 189.29 141.793 188.791 141.364 188.431C140.936 188.067 140.314 187.884 139.498 187.884C139.366 187.884 139.227 187.887 139.081 187.891C138.935 187.896 138.789 187.903 138.644 187.912C138.498 187.916 138.354 187.923 138.213 187.932C138.076 187.941 137.951 187.953 137.837 187.966L138.172 183.051H142.704V184.063H139.143L138.944 186.941C139.09 186.932 139.245 186.925 139.409 186.92C139.573 186.911 139.719 186.907 139.847 186.907C140.366 186.907 140.831 186.975 141.241 187.112C141.651 187.249 141.998 187.444 142.28 187.7C142.567 187.95 142.784 188.26 142.93 188.629C143.08 188.994 143.155 189.404 143.155 189.86Z" fill="#1F1F26"/>
<path d="M245.679 190.897C245.679 191.375 245.597 191.808 245.433 192.196C245.269 192.583 245.034 192.916 244.729 193.194C244.428 193.472 244.063 193.686 243.635 193.836C243.206 193.987 242.73 194.062 242.206 194.062C241.295 194.062 240.618 193.925 240.176 193.652V192.462C240.841 192.891 241.522 193.105 242.22 193.105C242.575 193.105 242.894 193.053 243.177 192.948C243.464 192.843 243.708 192.697 243.908 192.51C244.109 192.323 244.261 192.098 244.366 191.833C244.476 191.569 244.53 191.28 244.53 190.965C244.53 190.327 244.316 189.828 243.888 189.468C243.459 189.104 242.837 188.921 242.021 188.921C241.889 188.921 241.75 188.924 241.604 188.928C241.459 188.933 241.313 188.94 241.167 188.949C241.021 188.953 240.878 188.96 240.736 188.969C240.6 188.978 240.474 188.99 240.36 189.003L240.695 184.088H245.228V185.1H241.666L241.468 187.978C241.614 187.969 241.769 187.962 241.933 187.958C242.097 187.948 242.243 187.944 242.37 187.944C242.89 187.944 243.354 188.012 243.765 188.149C244.175 188.286 244.521 188.482 244.804 188.737C245.091 188.987 245.307 189.297 245.453 189.667C245.604 190.031 245.679 190.441 245.679 190.897ZM253.574 188.949C253.574 189.769 253.499 190.496 253.349 191.129C253.203 191.763 252.989 192.298 252.706 192.736C252.428 193.169 252.084 193.499 251.674 193.727C251.268 193.95 250.806 194.062 250.286 194.062C249.794 194.062 249.354 193.955 248.967 193.741C248.584 193.522 248.26 193.205 247.996 192.791C247.732 192.376 247.531 191.868 247.395 191.266C247.258 190.66 247.189 189.967 247.189 189.188C247.189 188.331 247.26 187.575 247.401 186.918C247.547 186.262 247.759 185.713 248.037 185.271C248.315 184.824 248.659 184.489 249.069 184.266C249.484 184.038 249.958 183.924 250.491 183.924C252.547 183.924 253.574 185.599 253.574 188.949ZM252.426 189.058C252.426 186.269 251.763 184.875 250.437 184.875C249.037 184.875 248.338 186.294 248.338 189.133C248.338 191.781 249.024 193.105 250.396 193.105C251.749 193.105 252.426 191.756 252.426 189.058Z" fill="#1F1F26"/>
<path d="M356.066 183.701C355.916 183.96 355.734 184.284 355.52 184.671C355.31 185.059 355.087 185.494 354.85 185.977C354.613 186.46 354.371 186.98 354.125 187.536C353.879 188.092 353.649 188.666 353.435 189.258C353.22 189.851 353.031 190.452 352.867 191.063C352.708 191.669 352.591 192.266 352.519 192.854H351.315C351.397 192.271 351.523 191.676 351.691 191.07C351.865 190.459 352.058 189.862 352.272 189.279C352.491 188.691 352.721 188.126 352.963 187.583C353.204 187.041 353.439 186.542 353.667 186.086C353.895 185.631 354.102 185.23 354.289 184.883C354.48 184.532 354.633 184.259 354.747 184.063H349.832V183.051H356.066V183.701ZM363.333 189.86C363.333 190.338 363.251 190.771 363.087 191.159C362.923 191.546 362.688 191.879 362.383 192.157C362.082 192.435 361.717 192.649 361.289 192.799C360.861 192.95 360.384 193.025 359.86 193.025C358.949 193.025 358.272 192.888 357.83 192.615V191.425C358.495 191.854 359.177 192.068 359.874 192.068C360.229 192.068 360.549 192.015 360.831 191.911C361.118 191.806 361.362 191.66 361.562 191.473C361.763 191.286 361.916 191.061 362.021 190.796C362.13 190.532 362.185 190.243 362.185 189.928C362.185 189.29 361.97 188.791 361.542 188.431C361.114 188.067 360.492 187.884 359.676 187.884C359.544 187.884 359.405 187.887 359.259 187.891C359.113 187.896 358.967 187.903 358.821 187.912C358.675 187.916 358.532 187.923 358.391 187.932C358.254 187.941 358.129 187.953 358.015 187.966L358.35 183.051H362.882V184.063H359.32L359.122 186.941C359.268 186.932 359.423 186.925 359.587 186.92C359.751 186.911 359.897 186.907 360.024 186.907C360.544 186.907 361.009 186.975 361.419 187.112C361.829 187.249 362.175 187.444 362.458 187.7C362.745 187.95 362.962 188.26 363.107 188.629C363.258 188.994 363.333 189.404 363.333 189.86Z" fill="#1F1F26"/>
<path d="M445.452 193.891H444.331V185.421C444.244 185.508 444.117 185.608 443.948 185.722C443.784 185.832 443.597 185.941 443.388 186.05C443.183 186.16 442.964 186.262 442.731 186.358C442.504 186.454 442.28 186.529 442.062 186.583V185.449C442.308 185.38 442.567 185.289 442.841 185.175C443.119 185.057 443.39 184.927 443.654 184.786C443.923 184.64 444.176 184.489 444.413 184.334C444.65 184.175 444.855 184.02 445.028 183.87H445.452V193.891ZM455.022 188.949C455.022 189.769 454.947 190.496 454.797 191.129C454.651 191.763 454.437 192.298 454.154 192.736C453.876 193.169 453.532 193.499 453.122 193.727C452.716 193.95 452.254 194.062 451.734 194.062C451.242 194.062 450.802 193.955 450.415 193.741C450.032 193.522 449.709 193.205 449.444 192.791C449.18 192.376 448.979 191.868 448.843 191.266C448.706 190.66 448.638 189.967 448.638 189.188C448.638 188.331 448.708 187.575 448.85 186.918C448.995 186.262 449.207 185.713 449.485 185.271C449.763 184.824 450.107 184.489 450.518 184.266C450.932 184.038 451.406 183.924 451.939 183.924C453.995 183.924 455.022 185.599 455.022 188.949ZM453.874 189.058C453.874 186.269 453.211 184.875 451.885 184.875C450.486 184.875 449.786 186.294 449.786 189.133C449.786 191.781 450.472 193.105 451.844 193.105C453.197 193.105 453.874 191.756 453.874 189.058ZM462.569 188.949C462.569 189.769 462.494 190.496 462.344 191.129C462.198 191.763 461.984 192.298 461.701 192.736C461.423 193.169 461.079 193.499 460.669 193.727C460.263 193.95 459.801 194.062 459.281 194.062C458.789 194.062 458.349 193.955 457.962 193.741C457.579 193.522 457.256 193.205 456.991 192.791C456.727 192.376 456.526 191.868 456.39 191.266C456.253 190.66 456.185 189.967 456.185 189.188C456.185 188.331 456.255 187.575 456.396 186.918C456.542 186.262 456.754 185.713 457.032 185.271C457.31 184.824 457.654 184.489 458.064 184.266C458.479 184.038 458.953 183.924 459.486 183.924C461.542 183.924 462.569 185.599 462.569 188.949ZM461.421 189.058C461.421 186.269 460.758 184.875 459.432 184.875C458.033 184.875 457.333 186.294 457.333 189.133C457.333 191.781 458.019 193.105 459.391 193.105C460.744 193.105 461.421 191.756 461.421 189.058Z" fill="#1F1F26"/>
<path d="M477.942 163.757C477.268 163.757 476.73 163.536 476.329 163.094C475.928 162.648 475.728 162.053 475.728 161.31C475.728 160.499 475.939 159.861 476.363 159.396C476.787 158.927 477.359 158.692 478.079 158.692C478.776 158.692 479.316 158.908 479.699 159.341C480.087 159.774 480.28 160.383 480.28 161.167C480.28 161.95 480.064 162.579 479.631 163.053C479.202 163.523 478.64 163.757 477.942 163.757ZM478.038 159.444C477.605 159.444 477.263 159.606 477.013 159.929C476.762 160.248 476.637 160.688 476.637 161.249C476.637 161.8 476.76 162.231 477.006 162.541C477.252 162.846 477.587 162.999 478.011 162.999C478.439 162.999 478.774 162.839 479.016 162.52C479.257 162.201 479.378 161.759 479.378 161.194C479.378 160.642 479.257 160.214 479.016 159.909C478.779 159.599 478.453 159.444 478.038 159.444ZM484.505 158.842L478.216 168.713H477.238L483.521 158.842H484.505ZM483.78 168.795C483.106 168.795 482.568 168.572 482.167 168.125C481.766 167.679 481.565 167.086 481.565 166.348C481.565 165.537 481.78 164.897 482.208 164.427C482.636 163.953 483.206 163.716 483.917 163.716C484.61 163.716 485.15 163.935 485.537 164.373C485.924 164.81 486.118 165.423 486.118 166.211C486.118 166.991 485.902 167.617 485.469 168.091C485.04 168.561 484.478 168.795 483.78 168.795ZM483.876 164.489C483.438 164.489 483.094 164.648 482.844 164.967C482.598 165.286 482.475 165.728 482.475 166.293C482.475 166.836 482.598 167.262 482.844 167.572C483.09 167.877 483.425 168.03 483.849 168.03C484.277 168.03 484.612 167.87 484.854 167.551C485.095 167.228 485.216 166.786 485.216 166.225C485.216 165.669 485.095 165.241 484.854 164.94C484.617 164.639 484.291 164.489 483.876 164.489Z" fill="#1F1F26"/>
<rect x="28.0449" y="158.395" width="440.287" height="9.5" rx="4.75" fill="#E2EBFB"/>
<rect x="28.5928" y="158.395" width="330.248" height="9.5" rx="4.75" fill="#407BE7"/>
<path d="M138.664 158.395L138.664 167.895" stroke="#407BE7"/>
<path d="M248.734 158.43L248.734 167.93" stroke="#407BE7"/>
<path d="M358.842 158.395L358.842 167.895" stroke="#407BE7"/>
<path d="M358.841 169.395C362.563 169.395 366.088 166.852 366.088 163.145C366.088 159.438 362.563 156.895 358.841 156.895C355.119 156.895 351.594 159.438 351.594 163.145C351.594 166.852 355.119 169.395 358.841 169.395Z" fill="#407BE7" stroke="white" stroke-width="3"/>
</svg>
