<svg width="226" height="306" viewBox="0 0 226 306" fill="none" xmlns="http://www.w3.org/2000/svg">
<rect x="0.5" y="0.729004" width="225" height="304.414" rx="9.5" stroke="#7E40C7" stroke-dasharray="5 5"/>
<circle cx="132.46" cy="120.338" r="2.46045" fill="#F65C34"/>
<path d="M143.03 124.838V116.378H146.486C147.374 116.378 148.062 116.59 148.55 117.014C149.038 117.43 149.282 118.014 149.282 118.766C149.282 119.262 149.17 119.686 148.946 120.038C148.73 120.382 148.422 120.646 148.022 120.83C147.63 121.014 147.17 121.106 146.642 121.106L146.858 120.95H147.098C147.426 120.95 147.718 121.03 147.974 121.19C148.238 121.35 148.446 121.618 148.598 121.994L149.798 124.838H148.706L147.554 122.042C147.418 121.682 147.214 121.45 146.942 121.346C146.67 121.234 146.33 121.178 145.922 121.178H144.026V124.838H143.03ZM144.026 120.398H146.342C146.982 120.398 147.466 120.262 147.794 119.99C148.13 119.71 148.298 119.31 148.298 118.79C148.298 118.27 148.13 117.874 147.794 117.602C147.466 117.33 146.982 117.194 146.342 117.194H144.026V120.398ZM153.777 124.946C152.833 124.946 152.089 124.674 151.545 124.13C151.001 123.578 150.729 122.814 150.729 121.838C150.729 121.206 150.849 120.658 151.089 120.194C151.329 119.722 151.665 119.358 152.097 119.102C152.529 118.838 153.025 118.706 153.585 118.706C154.137 118.706 154.601 118.822 154.977 119.054C155.353 119.286 155.641 119.618 155.841 120.05C156.041 120.474 156.141 120.978 156.141 121.562V121.922H151.473V121.31H155.505L155.301 121.466C155.301 120.826 155.157 120.326 154.869 119.966C154.581 119.606 154.153 119.426 153.585 119.426C152.985 119.426 152.517 119.638 152.181 120.062C151.845 120.478 151.677 121.042 151.677 121.754V121.862C151.677 122.614 151.861 123.186 152.229 123.578C152.605 123.962 153.129 124.154 153.801 124.154C154.161 124.154 154.497 124.102 154.809 123.998C155.129 123.886 155.433 123.706 155.721 123.458L156.057 124.142C155.793 124.398 155.457 124.598 155.049 124.742C154.649 124.878 154.225 124.946 153.777 124.946ZM156.837 127.478C156.725 127.478 156.585 127.462 156.417 127.43C156.249 127.406 156.109 127.374 155.997 127.334V126.518C156.093 126.55 156.205 126.578 156.333 126.602C156.461 126.634 156.581 126.65 156.693 126.65C157.029 126.65 157.277 126.542 157.437 126.326C157.605 126.118 157.689 125.774 157.689 125.294V118.814H158.661V125.39C158.661 126.078 158.509 126.598 158.205 126.95C157.909 127.302 157.453 127.478 156.837 127.478ZM157.581 117.446V116.354H158.769V117.446H157.581ZM163.164 124.946C162.22 124.946 161.476 124.674 160.932 124.13C160.388 123.578 160.116 122.814 160.116 121.838C160.116 121.206 160.236 120.658 160.476 120.194C160.716 119.722 161.052 119.358 161.484 119.102C161.916 118.838 162.412 118.706 162.972 118.706C163.524 118.706 163.988 118.822 164.364 119.054C164.74 119.286 165.028 119.618 165.228 120.05C165.428 120.474 165.528 120.978 165.528 121.562V121.922H160.86V121.31H164.892L164.688 121.466C164.688 120.826 164.544 120.326 164.256 119.966C163.968 119.606 163.54 119.426 162.972 119.426C162.372 119.426 161.904 119.638 161.568 120.062C161.232 120.478 161.064 121.042 161.064 121.754V121.862C161.064 122.614 161.248 123.186 161.616 123.578C161.992 123.962 162.516 124.154 163.188 124.154C163.548 124.154 163.884 124.102 164.196 123.998C164.516 123.886 164.82 123.706 165.108 123.458L165.444 124.142C165.18 124.398 164.844 124.598 164.436 124.742C164.036 124.878 163.612 124.946 163.164 124.946ZM169.547 124.946C168.955 124.946 168.439 124.818 167.999 124.562C167.567 124.306 167.231 123.942 166.991 123.47C166.759 122.998 166.643 122.438 166.643 121.79C166.643 121.134 166.763 120.578 167.003 120.122C167.243 119.658 167.579 119.306 168.011 119.066C168.451 118.826 168.963 118.706 169.547 118.706C169.931 118.706 170.303 118.774 170.663 118.91C171.031 119.046 171.335 119.238 171.575 119.486L171.227 120.182C170.987 119.95 170.723 119.778 170.435 119.666C170.155 119.554 169.879 119.498 169.607 119.498C168.983 119.498 168.499 119.694 168.155 120.086C167.811 120.478 167.639 121.05 167.639 121.802C167.639 122.546 167.811 123.122 168.155 123.53C168.499 123.938 168.983 124.142 169.607 124.142C169.871 124.142 170.143 124.09 170.423 123.986C170.711 123.882 170.979 123.71 171.227 123.47L171.575 124.154C171.327 124.41 171.019 124.606 170.651 124.742C170.283 124.878 169.915 124.946 169.547 124.946ZM175.093 124.946C174.501 124.946 174.049 124.778 173.737 124.442C173.425 124.098 173.269 123.582 173.269 122.894V119.57H172.093V118.814H173.269V117.17L174.241 116.894V118.814H175.969V119.57H174.241V122.786C174.241 123.266 174.321 123.61 174.481 123.818C174.649 124.018 174.897 124.118 175.225 124.118C175.377 124.118 175.513 124.106 175.633 124.082C175.753 124.05 175.861 124.014 175.957 123.974V124.79C175.845 124.838 175.709 124.874 175.549 124.898C175.397 124.93 175.245 124.946 175.093 124.946ZM179.77 124.946C178.826 124.946 178.082 124.674 177.538 124.13C176.994 123.578 176.722 122.814 176.722 121.838C176.722 121.206 176.842 120.658 177.082 120.194C177.322 119.722 177.658 119.358 178.09 119.102C178.522 118.838 179.018 118.706 179.578 118.706C180.13 118.706 180.594 118.822 180.97 119.054C181.346 119.286 181.634 119.618 181.834 120.05C182.034 120.474 182.134 120.978 182.134 121.562V121.922H177.466V121.31H181.498L181.294 121.466C181.294 120.826 181.15 120.326 180.862 119.966C180.574 119.606 180.146 119.426 179.578 119.426C178.978 119.426 178.51 119.638 178.174 120.062C177.838 120.478 177.67 121.042 177.67 121.754V121.862C177.67 122.614 177.854 123.186 178.222 123.578C178.598 123.962 179.122 124.154 179.794 124.154C180.154 124.154 180.49 124.102 180.802 123.998C181.122 123.886 181.426 123.706 181.714 123.458L182.05 124.142C181.786 124.398 181.45 124.598 181.042 124.742C180.642 124.878 180.218 124.946 179.77 124.946ZM185.901 124.946C185.373 124.946 184.909 124.822 184.509 124.574C184.109 124.318 183.797 123.958 183.573 123.494C183.357 123.03 183.249 122.474 183.249 121.826C183.249 121.17 183.357 120.61 183.573 120.146C183.797 119.682 184.109 119.326 184.509 119.078C184.909 118.83 185.373 118.706 185.901 118.706C186.445 118.706 186.913 118.842 187.305 119.114C187.705 119.386 187.973 119.754 188.109 120.218H187.965V116.006H188.937V124.838H187.977V123.398H188.109C187.981 123.878 187.717 124.258 187.317 124.538C186.917 124.81 186.445 124.946 185.901 124.946ZM186.105 124.154C186.673 124.154 187.129 123.958 187.473 123.566C187.817 123.166 187.989 122.586 187.989 121.826C187.989 121.058 187.817 120.478 187.473 120.086C187.129 119.686 186.673 119.486 186.105 119.486C185.537 119.486 185.081 119.686 184.737 120.086C184.401 120.478 184.233 121.058 184.233 121.826C184.233 122.586 184.401 123.166 184.737 123.566C185.081 123.958 185.537 124.154 186.105 124.154Z" fill="#DA1F29"/>
<circle cx="132.46" cy="89.3384" r="2.46045" fill="#4CC590"/>
<path d="M147.073 93.9464C146.225 93.9464 145.505 93.7704 144.913 93.4184C144.321 93.0664 143.865 92.5664 143.545 91.9184C143.233 91.2704 143.077 90.4984 143.077 89.6024C143.077 88.7064 143.233 87.9384 143.545 87.2984C143.865 86.6504 144.321 86.1504 144.913 85.7984C145.505 85.4464 146.225 85.2704 147.073 85.2704C147.673 85.2704 148.209 85.3624 148.681 85.5464C149.153 85.7304 149.565 85.9984 149.917 86.3504L149.545 87.1424C149.161 86.8064 148.781 86.5624 148.405 86.4104C148.029 86.2504 147.589 86.1704 147.085 86.1704C146.117 86.1704 145.381 86.4704 144.877 87.0704C144.373 87.6704 144.121 88.5144 144.121 89.6024C144.121 90.6904 144.373 91.5384 144.877 92.1464C145.381 92.7464 146.117 93.0464 147.085 93.0464C147.589 93.0464 148.029 92.9704 148.405 92.8184C148.781 92.6584 149.161 92.4064 149.545 92.0624L149.917 92.8664C149.565 93.2104 149.153 93.4784 148.681 93.6704C148.209 93.8544 147.673 93.9464 147.073 93.9464ZM153.534 93.9464C152.958 93.9464 152.454 93.8224 152.022 93.5744C151.598 93.3184 151.27 92.9584 151.038 92.4944C150.806 92.0224 150.69 91.4664 150.69 90.8264C150.69 90.1784 150.806 89.6224 151.038 89.1584C151.27 88.6944 151.598 88.3384 152.022 88.0904C152.454 87.8344 152.958 87.7064 153.534 87.7064C154.118 87.7064 154.622 87.8344 155.046 88.0904C155.478 88.3384 155.81 88.6944 156.042 89.1584C156.282 89.6224 156.402 90.1784 156.402 90.8264C156.402 91.4664 156.282 92.0224 156.042 92.4944C155.81 92.9584 155.478 93.3184 155.046 93.5744C154.622 93.8224 154.118 93.9464 153.534 93.9464ZM153.534 93.1544C154.11 93.1544 154.566 92.9584 154.902 92.5664C155.238 92.1664 155.406 91.5864 155.406 90.8264C155.406 90.0584 155.234 89.4784 154.89 89.0864C154.554 88.6864 154.102 88.4864 153.534 88.4864C152.966 88.4864 152.514 88.6864 152.178 89.0864C151.842 89.4784 151.674 90.0584 151.674 90.8264C151.674 91.5864 151.842 92.1664 152.178 92.5664C152.514 92.9584 152.966 93.1544 153.534 93.1544ZM157.918 93.8384V89.2064C157.918 88.9824 157.906 88.7544 157.882 88.5224C157.866 88.2824 157.846 88.0464 157.822 87.8144H158.758L158.878 89.1344H158.734C158.91 88.6704 159.19 88.3184 159.574 88.0784C159.966 87.8304 160.418 87.7064 160.93 87.7064C161.642 87.7064 162.178 87.8984 162.538 88.2824C162.906 88.6584 163.09 89.2544 163.09 90.0704V93.8384H162.118V90.1304C162.118 89.5624 162.002 89.1504 161.77 88.8944C161.546 88.6304 161.194 88.4984 160.714 88.4984C160.154 88.4984 159.71 88.6704 159.382 89.0144C159.054 89.3584 158.89 89.8184 158.89 90.3944V93.8384H157.918ZM165.261 93.8384V88.5704H164.085V87.8144H165.525L165.261 88.0664V87.0584C165.261 86.3784 165.429 85.8584 165.765 85.4984C166.109 85.1384 166.597 84.9584 167.229 84.9584C167.381 84.9584 167.541 84.9744 167.709 85.0064C167.885 85.0304 168.033 85.0664 168.153 85.1144V85.9184C168.057 85.8784 167.937 85.8464 167.793 85.8224C167.657 85.7904 167.517 85.7744 167.373 85.7744C166.997 85.7744 166.713 85.8864 166.521 86.1104C166.329 86.3344 166.233 86.6784 166.233 87.1424V88.0184L166.077 87.8144H169.941V93.8384H168.969V88.5704H166.233V93.8384H165.261ZM168.861 86.4464V85.3544H170.061V86.4464H168.861ZM171.816 93.8384V89.2664C171.816 89.0264 171.808 88.7824 171.792 88.5344C171.784 88.2864 171.768 88.0464 171.744 87.8144H172.68L172.8 89.2784L172.632 89.2904C172.712 88.9304 172.852 88.6344 173.052 88.4024C173.252 88.1704 173.488 87.9984 173.76 87.8864C174.032 87.7664 174.316 87.7064 174.612 87.7064C174.732 87.7064 174.836 87.7104 174.924 87.7184C175.02 87.7264 175.108 87.7464 175.188 87.7784L175.176 88.6424C175.056 88.6024 174.944 88.5784 174.84 88.5704C174.744 88.5544 174.632 88.5464 174.504 88.5464C174.152 88.5464 173.844 88.6304 173.58 88.7984C173.324 88.9664 173.128 89.1824 172.992 89.4464C172.864 89.7104 172.8 89.9904 172.8 90.2864V93.8384H171.816ZM176.199 93.8384V89.2064C176.199 88.9824 176.187 88.7544 176.163 88.5224C176.147 88.2824 176.127 88.0464 176.103 87.8144H177.039L177.159 89.1344H177.015C177.175 88.6784 177.427 88.3264 177.771 88.0784C178.123 87.8304 178.547 87.7064 179.043 87.7064C179.547 87.7064 179.955 87.8264 180.267 88.0664C180.587 88.3064 180.803 88.6784 180.915 89.1824H180.735C180.887 88.7264 181.155 88.3664 181.539 88.1024C181.923 87.8384 182.371 87.7064 182.883 87.7064C183.547 87.7064 184.047 87.8984 184.383 88.2824C184.719 88.6584 184.887 89.2544 184.887 90.0704V93.8384H183.915V90.1304C183.915 89.5624 183.815 89.1504 183.615 88.8944C183.415 88.6304 183.095 88.4984 182.655 88.4984C182.151 88.4984 181.751 88.6744 181.455 89.0264C181.167 89.3704 181.023 89.8344 181.023 90.4184V93.8384H180.051V90.1304C180.051 89.5624 179.951 89.1504 179.751 88.8944C179.551 88.6304 179.231 88.4984 178.791 88.4984C178.287 88.4984 177.891 88.6744 177.603 89.0264C177.315 89.3704 177.171 89.8344 177.171 90.4184V93.8384H176.199ZM189.41 93.9464C188.466 93.9464 187.722 93.6744 187.178 93.1304C186.634 92.5784 186.362 91.8144 186.362 90.8384C186.362 90.2064 186.482 89.6584 186.722 89.1944C186.962 88.7224 187.298 88.3584 187.73 88.1024C188.162 87.8384 188.658 87.7064 189.218 87.7064C189.77 87.7064 190.234 87.8224 190.61 88.0544C190.986 88.2864 191.274 88.6184 191.474 89.0504C191.674 89.4744 191.774 89.9784 191.774 90.5624V90.9224H187.106V90.3104H191.138L190.934 90.4664C190.934 89.8264 190.79 89.3264 190.502 88.9664C190.214 88.6064 189.786 88.4264 189.218 88.4264C188.618 88.4264 188.15 88.6384 187.814 89.0624C187.478 89.4784 187.31 90.0424 187.31 90.7544V90.8624C187.31 91.6144 187.494 92.1864 187.862 92.5784C188.238 92.9624 188.762 93.1544 189.434 93.1544C189.794 93.1544 190.13 93.1024 190.442 92.9984C190.762 92.8864 191.066 92.7064 191.354 92.4584L191.69 93.1424C191.426 93.3984 191.09 93.5984 190.682 93.7424C190.282 93.8784 189.858 93.9464 189.41 93.9464ZM195.541 93.9464C195.013 93.9464 194.549 93.8224 194.149 93.5744C193.749 93.3184 193.437 92.9584 193.213 92.4944C192.997 92.0304 192.889 91.4744 192.889 90.8264C192.889 90.1704 192.997 89.6104 193.213 89.1464C193.437 88.6824 193.749 88.3264 194.149 88.0784C194.549 87.8304 195.013 87.7064 195.541 87.7064C196.085 87.7064 196.553 87.8424 196.945 88.1144C197.345 88.3864 197.613 88.7544 197.749 89.2184H197.605V85.0064H198.577V93.8384H197.617V92.3984H197.749C197.621 92.8784 197.357 93.2584 196.957 93.5384C196.557 93.8104 196.085 93.9464 195.541 93.9464ZM195.745 93.1544C196.313 93.1544 196.769 92.9584 197.113 92.5664C197.457 92.1664 197.629 91.5864 197.629 90.8264C197.629 90.0584 197.457 89.4784 197.113 89.0864C196.769 88.6864 196.313 88.4864 195.745 88.4864C195.177 88.4864 194.721 88.6864 194.377 89.0864C194.041 89.4784 193.873 90.0584 193.873 90.8264C193.873 91.5864 194.041 92.1664 194.377 92.5664C194.721 92.9584 195.177 93.1544 195.745 93.1544Z" fill="#00A029"/>
<circle cx="132.46" cy="27.3384" r="2.46045" fill="#00969B"/>
<path d="M143.149 31.8384V23.3784H144.013L147.409 31.0464H147.061L150.457 23.3784H151.321V31.8384H150.409V24.6624H150.769L147.565 31.8384H146.905L143.689 24.6624H144.049V31.8384H143.149ZM155.802 31.9464C155.226 31.9464 154.722 31.8224 154.29 31.5744C153.866 31.3184 153.538 30.9584 153.306 30.4944C153.074 30.0224 152.958 29.4664 152.958 28.8264C152.958 28.1784 153.074 27.6224 153.306 27.1584C153.538 26.6944 153.866 26.3384 154.29 26.0904C154.722 25.8344 155.226 25.7064 155.802 25.7064C156.386 25.7064 156.89 25.8344 157.314 26.0904C157.746 26.3384 158.078 26.6944 158.31 27.1584C158.55 27.6224 158.67 28.1784 158.67 28.8264C158.67 29.4664 158.55 30.0224 158.31 30.4944C158.078 30.9584 157.746 31.3184 157.314 31.5744C156.89 31.8224 156.386 31.9464 155.802 31.9464ZM155.802 31.1544C156.378 31.1544 156.834 30.9584 157.17 30.5664C157.506 30.1664 157.674 29.5864 157.674 28.8264C157.674 28.0584 157.502 27.4784 157.158 27.0864C156.822 26.6864 156.37 26.4864 155.802 26.4864C155.234 26.4864 154.782 26.6864 154.446 27.0864C154.11 27.4784 153.942 28.0584 153.942 28.8264C153.942 29.5864 154.11 30.1664 154.446 30.5664C154.782 30.9584 155.234 31.1544 155.802 31.1544ZM162.465 31.9464C161.937 31.9464 161.473 31.8224 161.073 31.5744C160.673 31.3184 160.361 30.9584 160.137 30.4944C159.921 30.0304 159.813 29.4744 159.813 28.8264C159.813 28.1704 159.921 27.6104 160.137 27.1464C160.361 26.6824 160.673 26.3264 161.073 26.0784C161.473 25.8304 161.937 25.7064 162.465 25.7064C163.009 25.7064 163.477 25.8424 163.869 26.1144C164.269 26.3864 164.537 26.7544 164.673 27.2184H164.529V23.0064H165.501V31.8384H164.541V30.3984H164.673C164.545 30.8784 164.281 31.2584 163.881 31.5384C163.481 31.8104 163.009 31.9464 162.465 31.9464ZM162.669 31.1544C163.237 31.1544 163.693 30.9584 164.037 30.5664C164.381 30.1664 164.553 29.5864 164.553 28.8264C164.553 28.0584 164.381 27.4784 164.037 27.0864C163.693 26.6864 163.237 26.4864 162.669 26.4864C162.101 26.4864 161.645 26.6864 161.301 27.0864C160.965 27.4784 160.797 28.0584 160.797 28.8264C160.797 29.5864 160.965 30.1664 161.301 30.5664C161.645 30.9584 162.101 31.1544 162.669 31.1544ZM167.381 31.8384V25.8144H168.353V31.8384H167.381ZM167.261 24.4464V23.3544H168.461V24.4464H167.261ZM170.552 31.8384V26.5704H169.376V25.8144H170.816L170.552 26.0664V25.0584C170.552 24.3784 170.724 23.8584 171.068 23.4984C171.412 23.1384 171.904 22.9584 172.544 22.9584C172.704 22.9584 172.868 22.9744 173.036 23.0064C173.212 23.0304 173.356 23.0664 173.468 23.1144V23.9184C173.372 23.8784 173.252 23.8464 173.108 23.8224C172.972 23.7904 172.832 23.7744 172.688 23.7744C172.44 23.7744 172.228 23.8264 172.052 23.9304C171.876 24.0264 171.744 24.1744 171.656 24.3744C171.568 24.5744 171.524 24.8304 171.524 25.1424V26.0184L171.368 25.8144H173.204V26.5704H171.524V31.8384H170.552ZM173.973 34.5624L173.745 33.7584C174.121 33.6704 174.433 33.5664 174.681 33.4464C174.937 33.3344 175.149 33.1824 175.317 32.9904C175.485 32.7984 175.629 32.5584 175.749 32.2704L176.061 31.5624L176.037 31.9704L173.409 25.8144H174.465L176.637 31.1064H176.325L178.473 25.8144H179.493L176.709 32.3424C176.549 32.7264 176.373 33.0464 176.181 33.3024C175.989 33.5664 175.781 33.7784 175.557 33.9384C175.341 34.1064 175.101 34.2384 174.837 34.3344C174.573 34.4304 174.285 34.5064 173.973 34.5624ZM180.588 31.8384V25.8144H181.56V31.8384H180.588ZM180.468 24.4464V23.3544H181.668V24.4464H180.468ZM183.447 31.8384V27.2064C183.447 26.9824 183.435 26.7544 183.411 26.5224C183.395 26.2824 183.375 26.0464 183.351 25.8144H184.287L184.407 27.1344H184.263C184.439 26.6704 184.719 26.3184 185.103 26.0784C185.495 25.8304 185.947 25.7064 186.459 25.7064C187.171 25.7064 187.707 25.8984 188.067 26.2824C188.435 26.6584 188.619 27.2544 188.619 28.0704V31.8384H187.647V28.1304C187.647 27.5624 187.531 27.1504 187.299 26.8944C187.075 26.6304 186.723 26.4984 186.243 26.4984C185.683 26.4984 185.239 26.6704 184.911 27.0144C184.583 27.3584 184.419 27.8184 184.419 28.3944V31.8384H183.447ZM193.13 34.5144C192.61 34.5144 192.13 34.4504 191.69 34.3224C191.25 34.1944 190.854 33.9984 190.502 33.7344L190.79 33.0024C191.038 33.1784 191.282 33.3184 191.522 33.4224C191.762 33.5264 192.01 33.6024 192.266 33.6504C192.522 33.7064 192.794 33.7344 193.082 33.7344C193.674 33.7344 194.122 33.5784 194.426 33.2664C194.73 32.9544 194.882 32.5104 194.882 31.9344V30.1704H195.002C194.874 30.6424 194.61 31.0184 194.21 31.2984C193.81 31.5704 193.342 31.7064 192.806 31.7064C192.254 31.7064 191.774 31.5864 191.366 31.3464C190.966 31.0984 190.654 30.7504 190.43 30.3024C190.214 29.8464 190.106 29.3104 190.106 28.6944C190.106 28.0864 190.214 27.5584 190.43 27.1104C190.654 26.6624 190.966 26.3184 191.366 26.0784C191.774 25.8304 192.254 25.7064 192.806 25.7064C193.35 25.7064 193.818 25.8424 194.21 26.1144C194.61 26.3864 194.874 26.7624 195.002 27.2424L194.882 27.1224L194.99 25.8144H195.938C195.906 26.0464 195.882 26.2824 195.866 26.5224C195.85 26.7544 195.842 26.9824 195.842 27.2064V31.8024C195.842 32.6984 195.61 33.3744 195.146 33.8304C194.69 34.2864 194.018 34.5144 193.13 34.5144ZM192.986 30.9144C193.57 30.9144 194.03 30.7224 194.366 30.3384C194.702 29.9464 194.87 29.3984 194.87 28.6944C194.87 27.9904 194.702 27.4464 194.366 27.0624C194.03 26.6784 193.57 26.4864 192.986 26.4864C192.41 26.4864 191.95 26.6784 191.606 27.0624C191.262 27.4464 191.09 27.9904 191.09 28.6944C191.09 29.3984 191.262 29.9464 191.606 30.3384C191.95 30.7224 192.41 30.9144 192.986 30.9144Z" fill="#00969B"/>
<circle cx="132.46" cy="58.3384" r="2.46045" fill="#407BE7"/>
<path d="M146.661 62.9464C145.813 62.9464 145.093 62.7704 144.501 62.4184C143.909 62.0664 143.453 61.5664 143.133 60.9184C142.821 60.2704 142.665 59.4984 142.665 58.6024C142.665 57.7064 142.821 56.9384 143.133 56.2984C143.453 55.6504 143.909 55.1504 144.501 54.7984C145.093 54.4464 145.813 54.2704 146.661 54.2704C147.261 54.2704 147.797 54.3624 148.269 54.5464C148.741 54.7304 149.153 54.9984 149.505 55.3504L149.133 56.1424C148.749 55.8064 148.369 55.5624 147.993 55.4104C147.617 55.2504 147.177 55.1704 146.673 55.1704C145.705 55.1704 144.969 55.4704 144.465 56.0704C143.961 56.6704 143.709 57.5144 143.709 58.6024C143.709 59.6904 143.961 60.5384 144.465 61.1464C144.969 61.7464 145.705 62.0464 146.673 62.0464C147.177 62.0464 147.617 61.9704 147.993 61.8184C148.369 61.6584 148.749 61.4064 149.133 61.0624L149.505 61.8664C149.153 62.2104 148.741 62.4784 148.269 62.6704C147.797 62.8544 147.261 62.9464 146.661 62.9464ZM151.072 62.8384V54.0064H152.044V58.1464H151.888C152.056 57.6744 152.336 57.3184 152.728 57.0784C153.128 56.8304 153.588 56.7064 154.108 56.7064C154.828 56.7064 155.364 56.9024 155.716 57.2944C156.068 57.6784 156.244 58.2624 156.244 59.0464V62.8384H155.272V59.1064C155.272 58.5464 155.16 58.1384 154.936 57.8824C154.72 57.6264 154.368 57.4984 153.88 57.4984C153.32 57.4984 152.872 57.6704 152.536 58.0144C152.208 58.3584 152.044 58.8104 152.044 59.3704V62.8384H151.072ZM160.779 62.9464C159.835 62.9464 159.091 62.6744 158.547 62.1304C158.003 61.5784 157.731 60.8144 157.731 59.8384C157.731 59.2064 157.851 58.6584 158.091 58.1944C158.331 57.7224 158.667 57.3584 159.099 57.1024C159.531 56.8384 160.027 56.7064 160.587 56.7064C161.139 56.7064 161.603 56.8224 161.979 57.0544C162.355 57.2864 162.643 57.6184 162.843 58.0504C163.043 58.4744 163.143 58.9784 163.143 59.5624V59.9224H158.475V59.3104H162.507L162.303 59.4664C162.303 58.8264 162.159 58.3264 161.871 57.9664C161.583 57.6064 161.155 57.4264 160.587 57.4264C159.987 57.4264 159.519 57.6384 159.183 58.0624C158.847 58.4784 158.679 59.0424 158.679 59.7544V59.8624C158.679 60.6144 158.863 61.1864 159.231 61.5784C159.607 61.9624 160.131 62.1544 160.803 62.1544C161.163 62.1544 161.499 62.1024 161.811 61.9984C162.131 61.8864 162.435 61.7064 162.723 61.4584L163.059 62.1424C162.795 62.3984 162.459 62.5984 162.051 62.7424C161.651 62.8784 161.227 62.9464 160.779 62.9464ZM167.163 62.9464C166.571 62.9464 166.055 62.8184 165.615 62.5624C165.183 62.3064 164.847 61.9424 164.607 61.4704C164.375 60.9984 164.259 60.4384 164.259 59.7904C164.259 59.1344 164.379 58.5784 164.619 58.1224C164.859 57.6584 165.195 57.3064 165.627 57.0664C166.067 56.8264 166.579 56.7064 167.163 56.7064C167.547 56.7064 167.919 56.7744 168.279 56.9104C168.647 57.0464 168.951 57.2384 169.191 57.4864L168.843 58.1824C168.603 57.9504 168.339 57.7784 168.051 57.6664C167.771 57.5544 167.495 57.4984 167.223 57.4984C166.599 57.4984 166.115 57.6944 165.771 58.0864C165.427 58.4784 165.255 59.0504 165.255 59.8024C165.255 60.5464 165.427 61.1224 165.771 61.5304C166.115 61.9384 166.599 62.1424 167.223 62.1424C167.487 62.1424 167.759 62.0904 168.039 61.9864C168.327 61.8824 168.595 61.7104 168.843 61.4704L169.191 62.1544C168.943 62.4104 168.635 62.6064 168.267 62.7424C167.899 62.8784 167.531 62.9464 167.163 62.9464ZM170.572 62.8384V54.0064H171.544V59.4904H171.568L174.364 56.8144H175.588L172.288 59.9584L172.312 59.4664L175.9 62.8384H174.64L171.568 60.0064H171.544V62.8384H170.572ZM176.748 62.8384V56.8144H177.72V62.8384H176.748ZM176.628 55.4464V54.3544H177.828V55.4464H176.628ZM179.607 62.8384V58.2064C179.607 57.9824 179.595 57.7544 179.571 57.5224C179.555 57.2824 179.535 57.0464 179.511 56.8144H180.447L180.567 58.1344H180.423C180.599 57.6704 180.879 57.3184 181.263 57.0784C181.655 56.8304 182.107 56.7064 182.619 56.7064C183.331 56.7064 183.867 56.8984 184.227 57.2824C184.595 57.6584 184.779 58.2544 184.779 59.0704V62.8384H183.807V59.1304C183.807 58.5624 183.691 58.1504 183.459 57.8944C183.235 57.6304 182.883 57.4984 182.403 57.4984C181.843 57.4984 181.399 57.6704 181.071 58.0144C180.743 58.3584 180.579 58.8184 180.579 59.3944V62.8384H179.607ZM189.29 65.5144C188.77 65.5144 188.29 65.4504 187.85 65.3224C187.41 65.1944 187.014 64.9984 186.662 64.7344L186.95 64.0024C187.198 64.1784 187.442 64.3184 187.682 64.4224C187.922 64.5264 188.17 64.6024 188.426 64.6504C188.682 64.7064 188.954 64.7344 189.242 64.7344C189.834 64.7344 190.282 64.5784 190.586 64.2664C190.89 63.9544 191.042 63.5104 191.042 62.9344V61.1704H191.162C191.034 61.6424 190.77 62.0184 190.37 62.2984C189.97 62.5704 189.502 62.7064 188.966 62.7064C188.414 62.7064 187.934 62.5864 187.526 62.3464C187.126 62.0984 186.814 61.7504 186.59 61.3024C186.374 60.8464 186.266 60.3104 186.266 59.6944C186.266 59.0864 186.374 58.5584 186.59 58.1104C186.814 57.6624 187.126 57.3184 187.526 57.0784C187.934 56.8304 188.414 56.7064 188.966 56.7064C189.51 56.7064 189.978 56.8424 190.37 57.1144C190.77 57.3864 191.034 57.7624 191.162 58.2424L191.042 58.1224L191.15 56.8144H192.098C192.066 57.0464 192.042 57.2824 192.026 57.5224C192.01 57.7544 192.002 57.9824 192.002 58.2064V62.8024C192.002 63.6984 191.77 64.3744 191.306 64.8304C190.85 65.2864 190.178 65.5144 189.29 65.5144ZM189.146 61.9144C189.73 61.9144 190.19 61.7224 190.526 61.3384C190.862 60.9464 191.03 60.3984 191.03 59.6944C191.03 58.9904 190.862 58.4464 190.526 58.0624C190.19 57.6784 189.73 57.4864 189.146 57.4864C188.57 57.4864 188.11 57.6784 187.766 58.0624C187.422 58.4464 187.25 58.9904 187.25 59.6944C187.25 60.3984 187.422 60.9464 187.766 61.3384C188.11 61.7224 188.57 61.9144 189.146 61.9144Z" fill="#0766DC"/>
<rect x="20.5" y="55.3384" width="71" height="24" rx="4.5" fill="#FFE8E8"/>
<path d="M29.7227 72.8384V63.0356H32.4297C35.8841 63.0356 37.6113 64.6284 37.6113 67.814C37.6113 69.327 37.1305 70.5438 36.1689 71.4644C35.2119 72.3804 33.929 72.8384 32.3203 72.8384H29.7227ZM30.8711 64.0747V71.7993H32.334C33.6191 71.7993 34.6195 71.4552 35.335 70.7671C36.0505 70.0789 36.4082 69.1037 36.4082 67.8413C36.4082 65.3302 35.0729 64.0747 32.4023 64.0747H30.8711ZM46.7852 72.8384H45.5137L44.4746 70.0903H40.3184L39.3408 72.8384H38.0625L41.8223 63.0356H43.0117L46.7852 72.8384ZM44.0986 69.0581L42.5605 64.8813C42.5104 64.7446 42.4603 64.5259 42.4102 64.2251H42.3828C42.3372 64.5031 42.2848 64.7218 42.2256 64.8813L40.7012 69.0581H44.0986ZM53.6484 63.0356L50.415 69.2153V72.8384H49.2666V69.2427L46.1152 63.0356H47.4209L49.6152 67.4653C49.6426 67.52 49.7223 67.7205 49.8545 68.0669H49.875C49.9206 67.9119 50.0072 67.7114 50.1348 67.4653L52.4316 63.0356H53.6484ZM58.4473 69.3794H54.7148V68.4976H58.4473V69.3794ZM64.5723 73.0024C63.1823 73.0024 62.068 72.5444 61.2295 71.6284C60.3955 70.7124 59.9785 69.5207 59.9785 68.0532C59.9785 66.4764 60.4046 65.2186 61.2568 64.2798C62.109 63.341 63.2689 62.8716 64.7363 62.8716C66.0898 62.8716 67.179 63.3273 68.0039 64.2388C68.8333 65.1502 69.248 66.342 69.248 67.814C69.248 69.4136 68.8242 70.6782 67.9766 71.6079C67.1289 72.5376 65.9941 73.0024 64.5723 73.0024ZM64.6543 63.9106C63.6243 63.9106 62.7881 64.2821 62.1455 65.0249C61.5029 65.7677 61.1816 66.743 61.1816 67.9507C61.1816 69.1584 61.4938 70.1313 62.1182 70.8696C62.7471 71.6034 63.5651 71.9702 64.5723 71.9702C65.6478 71.9702 66.4954 71.6193 67.1152 70.9175C67.735 70.2157 68.0449 69.2336 68.0449 67.9712C68.0449 66.6769 67.7441 65.6766 67.1426 64.9702C66.541 64.2638 65.7116 63.9106 64.6543 63.9106ZM76.1523 64.0747H72.3242V67.4653H75.8652V68.4976H72.3242V72.8384H71.1758V63.0356H76.1523V64.0747ZM82.9883 64.0747H79.1602V67.4653H82.7012V68.4976H79.1602V72.8384H78.0117V63.0356H82.9883V64.0747Z" fill="#E8505B"/>
<rect x="20.5" y="55.3384" width="71" height="24" rx="4.5" stroke="#FF7B7B"/>
<rect x="20.5" y="96.3384" width="71" height="24" rx="4.5" fill="#FFE8E8"/>
<path d="M39.1494 113.838H37.8779L36.8389 111.09H32.6826L31.7051 113.838H30.4268L34.1865 104.036H35.376L39.1494 113.838ZM36.4629 110.058L34.9248 105.881C34.8747 105.745 34.8245 105.526 34.7744 105.225H34.7471C34.7015 105.503 34.6491 105.722 34.5898 105.881L33.0654 110.058H36.4629ZM50.5928 113.838H49.4512V107.262C49.4512 106.743 49.4831 106.107 49.5469 105.355H49.5195C49.4102 105.797 49.3122 106.114 49.2256 106.305L45.876 113.838H45.3154L41.9727 106.36C41.877 106.141 41.779 105.806 41.6787 105.355H41.6514C41.6878 105.747 41.7061 106.387 41.7061 107.276V113.838H40.5986V104.036H42.1162L45.124 110.872C45.3564 111.396 45.5068 111.788 45.5752 112.047H45.6162C45.8122 111.51 45.9694 111.109 46.0879 110.844L49.1572 104.036H50.5928V113.838ZM56.6084 110.379H52.876V109.498H56.6084V110.379ZM62.7334 114.002C61.3434 114.002 60.2292 113.544 59.3906 112.628C58.5566 111.712 58.1396 110.521 58.1396 109.053C58.1396 107.476 58.5658 106.219 59.418 105.28C60.2702 104.341 61.43 103.872 62.8975 103.872C64.251 103.872 65.3402 104.327 66.165 105.239C66.9945 106.15 67.4092 107.342 67.4092 108.814C67.4092 110.414 66.9854 111.678 66.1377 112.608C65.29 113.538 64.1553 114.002 62.7334 114.002ZM62.8154 104.911C61.7855 104.911 60.9492 105.282 60.3066 106.025C59.6641 106.768 59.3428 107.743 59.3428 108.951C59.3428 110.158 59.6549 111.131 60.2793 111.87C60.9082 112.603 61.7262 112.97 62.7334 112.97C63.8089 112.97 64.6566 112.619 65.2764 111.917C65.8962 111.216 66.2061 110.234 66.2061 108.971C66.2061 107.677 65.9053 106.677 65.3037 105.97C64.7021 105.264 63.8727 104.911 62.8154 104.911ZM74.3135 105.075H70.4854V108.465H74.0264V109.498H70.4854V113.838H69.3369V104.036H74.3135V105.075ZM81.1494 105.075H77.3213V108.465H80.8623V109.498H77.3213V113.838H76.1729V104.036H81.1494V105.075Z" fill="#E8505B"/>
<rect x="20.5" y="96.3384" width="71" height="24" rx="4.5" stroke="#FF7B7B"/>
<rect x="20.5" y="137.338" width="72" height="24" rx="4.5" fill="#FFE8E8"/>
<path d="M33.8047 151.133V154.838H32.6562V145.036H35.3496C36.3978 145.036 37.209 145.291 37.7832 145.801C38.362 146.312 38.6514 147.032 38.6514 147.961C38.6514 148.891 38.3301 149.652 37.6875 150.245C37.0495 150.837 36.1859 151.133 35.0967 151.133H33.8047ZM33.8047 146.075V150.094H35.0078C35.8008 150.094 36.4046 149.914 36.8193 149.554C37.2386 149.19 37.4482 148.677 37.4482 148.016C37.4482 146.722 36.6826 146.075 35.1514 146.075H33.8047ZM50.498 154.838H49.3564V148.262C49.3564 147.743 49.3883 147.107 49.4521 146.355H49.4248C49.3154 146.797 49.2174 147.114 49.1309 147.305L45.7812 154.838H45.2207L41.8779 147.36C41.7822 147.141 41.6842 146.806 41.584 146.355H41.5566C41.5931 146.747 41.6113 147.387 41.6113 148.276V154.838H40.5039V145.036H42.0215L45.0293 151.872C45.2617 152.396 45.4121 152.788 45.4805 153.047H45.5215C45.7174 152.51 45.8747 152.109 45.9932 151.844L49.0625 145.036H50.498V154.838ZM56.5137 151.379H52.7812V150.498H56.5137V151.379ZM62.6387 155.002C61.2487 155.002 60.1344 154.544 59.2959 153.628C58.4619 152.712 58.0449 151.521 58.0449 150.053C58.0449 148.476 58.471 147.219 59.3232 146.28C60.1755 145.341 61.3353 144.872 62.8027 144.872C64.1562 144.872 65.2454 145.327 66.0703 146.239C66.8997 147.15 67.3145 148.342 67.3145 149.814C67.3145 151.414 66.8906 152.678 66.043 153.608C65.1953 154.538 64.0605 155.002 62.6387 155.002ZM62.7207 145.911C61.6908 145.911 60.8545 146.282 60.2119 147.025C59.5693 147.768 59.248 148.743 59.248 149.951C59.248 151.158 59.5602 152.131 60.1846 152.87C60.8135 153.603 61.6315 153.97 62.6387 153.97C63.7142 153.97 64.5618 153.619 65.1816 152.917C65.8014 152.216 66.1113 151.234 66.1113 149.971C66.1113 148.677 65.8105 147.677 65.209 146.97C64.6074 146.264 63.778 145.911 62.7207 145.911ZM74.2188 146.075H70.3906V149.465H73.9316V150.498H70.3906V154.838H69.2422V145.036H74.2188V146.075ZM81.0547 146.075H77.2266V149.465H80.7676V150.498H77.2266V154.838H76.0781V145.036H81.0547V146.075Z" fill="#E8505B"/>
<rect x="20.5" y="137.338" width="72" height="24" rx="4.5" stroke="#FF7B7B"/>
<rect x="20.5" y="178.338" width="84" height="24" rx="4.5" fill="#FFE8E8"/>
<path d="M42.4775 195.838H41.3359V189.262C41.3359 188.743 41.3678 188.107 41.4316 187.355H41.4043C41.2949 187.797 41.1969 188.114 41.1104 188.305L37.7607 195.838H37.2002L33.8574 188.36C33.7617 188.141 33.6637 187.806 33.5635 187.355H33.5361C33.5726 187.747 33.5908 188.387 33.5908 189.276V195.838H32.4834V186.036H34.001L37.0088 192.872C37.2412 193.396 37.3916 193.788 37.46 194.047H37.501C37.6969 193.51 37.8542 193.109 37.9727 192.844L41.042 186.036H42.4775V195.838ZM50.5713 195.838H49.4502V194.731H49.4229C48.958 195.579 48.238 196.002 47.2627 196.002C45.5947 196.002 44.7607 195.009 44.7607 193.022V188.838H45.875V192.844C45.875 194.321 46.4401 195.059 47.5703 195.059C48.1172 195.059 48.5661 194.859 48.917 194.458C49.2725 194.052 49.4502 193.523 49.4502 192.872V188.838H50.5713V195.838ZM52.417 195.585V194.382C53.0277 194.833 53.6999 195.059 54.4336 195.059C55.418 195.059 55.9102 194.731 55.9102 194.075C55.9102 193.888 55.8669 193.731 55.7803 193.603C55.6982 193.471 55.5843 193.355 55.4385 193.254C55.2972 193.154 55.1286 193.065 54.9326 192.988C54.7412 192.906 54.5339 192.821 54.3105 192.735C54.0007 192.612 53.7272 192.489 53.4902 192.366C53.2578 192.238 53.0618 192.097 52.9023 191.942C52.7474 191.782 52.6289 191.602 52.5469 191.402C52.4694 191.201 52.4307 190.967 52.4307 190.698C52.4307 190.37 52.5059 190.08 52.6562 189.83C52.8066 189.574 53.0072 189.362 53.2578 189.194C53.5085 189.021 53.7933 188.891 54.1123 188.804C54.4359 188.718 54.7686 188.674 55.1104 188.674C55.7165 188.674 56.2588 188.779 56.7373 188.989V190.124C56.2223 189.786 55.6299 189.618 54.96 189.618C54.7503 189.618 54.5612 189.643 54.3926 189.693C54.224 189.738 54.0781 189.805 53.9551 189.891C53.8366 189.978 53.7432 190.083 53.6748 190.206C53.611 190.324 53.5791 190.456 53.5791 190.602C53.5791 190.784 53.611 190.937 53.6748 191.06C53.7432 191.183 53.8411 191.292 53.9688 191.388C54.0964 191.484 54.2513 191.57 54.4336 191.648C54.6159 191.725 54.8232 191.81 55.0557 191.901C55.3656 192.019 55.6436 192.142 55.8896 192.27C56.1357 192.393 56.3454 192.534 56.5186 192.694C56.6917 192.849 56.8239 193.029 56.915 193.234C57.0107 193.439 57.0586 193.683 57.0586 193.965C57.0586 194.312 56.9811 194.612 56.8262 194.868C56.6758 195.123 56.473 195.335 56.2178 195.503C55.9626 195.672 55.6686 195.797 55.3359 195.879C55.0033 195.961 54.6546 196.002 54.29 196.002C53.57 196.002 52.9456 195.863 52.417 195.585ZM62.0352 195.77C61.7708 195.916 61.4222 195.989 60.9893 195.989C59.7633 195.989 59.1504 195.305 59.1504 193.938V189.795H57.9473V188.838H59.1504V187.129L60.2715 186.767V188.838H62.0352V189.795H60.2715V193.74C60.2715 194.209 60.3512 194.544 60.5107 194.745C60.6702 194.945 60.9346 195.045 61.3037 195.045C61.5863 195.045 61.8301 194.968 62.0352 194.813V195.77ZM71.0244 189.973C70.8285 189.823 70.5459 189.748 70.1768 189.748C69.6982 189.748 69.2972 189.973 68.9736 190.424C68.6546 190.875 68.4951 191.491 68.4951 192.27V195.838H67.374V188.838H68.4951V190.281H68.5225C68.682 189.789 68.9258 189.406 69.2539 189.132C69.582 188.854 69.9489 188.715 70.3545 188.715C70.6462 188.715 70.8695 188.747 71.0244 188.811V189.973ZM77.8672 192.619H72.9248C72.943 193.398 73.1527 194 73.5537 194.423C73.9548 194.847 74.5062 195.059 75.208 195.059C75.9964 195.059 76.721 194.799 77.3818 194.28V195.333C76.7666 195.779 75.9531 196.002 74.9414 196.002C73.9525 196.002 73.1755 195.686 72.6104 195.052C72.0452 194.414 71.7627 193.519 71.7627 192.366C71.7627 191.277 72.0703 190.39 72.6855 189.707C73.3053 189.018 74.0732 188.674 74.9893 188.674C75.9053 188.674 76.6139 188.971 77.1152 189.563C77.6165 190.155 77.8672 190.978 77.8672 192.031V192.619ZM76.7188 191.668C76.7142 191.021 76.557 190.518 76.2471 190.158C75.9417 189.798 75.5156 189.618 74.9688 189.618C74.4401 189.618 73.9912 189.807 73.6221 190.185C73.2529 190.563 73.0251 191.058 72.9385 191.668H76.7188ZM84.5801 195.838H83.459V194.745H83.4316C82.944 195.583 82.2262 196.002 81.2783 196.002C80.5811 196.002 80.0342 195.818 79.6377 195.449C79.2458 195.08 79.0498 194.59 79.0498 193.979C79.0498 192.671 79.82 191.91 81.3604 191.696L83.459 191.402C83.459 190.212 82.9782 189.618 82.0166 189.618C81.1735 189.618 80.4124 189.905 79.7334 190.479V189.331C80.4215 188.893 81.2145 188.674 82.1123 188.674C83.7575 188.674 84.5801 189.545 84.5801 191.286V195.838ZM83.459 192.297L81.7705 192.53C81.251 192.603 80.859 192.733 80.5947 192.919C80.3304 193.102 80.1982 193.428 80.1982 193.897C80.1982 194.239 80.319 194.519 80.5605 194.738C80.8066 194.952 81.1325 195.059 81.5381 195.059C82.0941 195.059 82.5521 194.865 82.9121 194.478C83.2767 194.086 83.459 193.592 83.459 192.995V192.297ZM92.667 195.838H91.5459V194.649H91.5186C90.999 195.551 90.1969 196.002 89.1123 196.002C88.2327 196.002 87.5286 195.69 87 195.066C86.4759 194.437 86.2139 193.583 86.2139 192.502C86.2139 191.345 86.5055 190.417 87.0889 189.72C87.6722 189.023 88.4492 188.674 89.4199 188.674C90.3815 188.674 91.0811 189.053 91.5186 189.809H91.5459V185.475H92.667V195.838ZM91.5459 192.673V191.641C91.5459 191.076 91.359 190.597 90.9854 190.206C90.6117 189.814 90.1377 189.618 89.5635 189.618C88.8799 189.618 88.3421 189.868 87.9502 190.37C87.5583 190.871 87.3623 191.564 87.3623 192.448C87.3623 193.254 87.5492 193.892 87.9229 194.362C88.3011 194.827 88.807 195.059 89.4404 195.059C90.0648 195.059 90.5706 194.833 90.958 194.382C91.3499 193.931 91.5459 193.361 91.5459 192.673Z" fill="#E8505B"/>
<rect x="20.5" y="178.338" width="84" height="24" rx="4.5" stroke="#FF7B7B"/>
<rect x="20.5" y="14.3384" width="72" height="24" rx="4.5" fill="#F0F8FF"/>
<path d="M42.0488 22.0356L39.2803 31.8384H37.9336L35.917 24.6743C35.8304 24.369 35.778 24.0363 35.7598 23.6763H35.7324C35.7051 24.0135 35.6458 24.3416 35.5547 24.6606L33.5244 31.8384H32.1914L29.3203 22.0356H30.585L32.6699 29.5552C32.7565 29.8696 32.8112 30.1978 32.834 30.5396H32.8682C32.891 30.298 32.9616 29.9699 33.0801 29.5552L35.2471 22.0356H36.3477L38.4258 29.6099C38.4987 29.8696 38.5534 30.175 38.5898 30.5259H38.6172C38.6354 30.2889 38.6969 29.9744 38.8018 29.5825L40.8047 22.0356H42.0488ZM45.7402 32.0024C44.7057 32.0024 43.8786 31.6766 43.2588 31.0249C42.6436 30.3687 42.3359 29.5005 42.3359 28.4204C42.3359 27.2446 42.6572 26.3263 43.2998 25.6655C43.9424 25.0047 44.8105 24.6743 45.9043 24.6743C46.9479 24.6743 47.7614 24.9956 48.3447 25.6382C48.9326 26.2808 49.2266 27.1717 49.2266 28.311C49.2266 29.4276 48.9098 30.3231 48.2764 30.9976C47.6475 31.6675 46.8021 32.0024 45.7402 32.0024ZM45.8223 25.6177C45.1022 25.6177 44.5326 25.8638 44.1133 26.356C43.694 26.8436 43.4844 27.5181 43.4844 28.3794C43.4844 29.2088 43.6963 29.8628 44.1201 30.3413C44.5439 30.8198 45.1113 31.0591 45.8223 31.0591C46.5469 31.0591 47.1029 30.8244 47.4902 30.355C47.8822 29.8856 48.0781 29.2179 48.0781 28.3521C48.0781 27.4771 47.8822 26.8026 47.4902 26.3286C47.1029 25.8547 46.5469 25.6177 45.8223 25.6177ZM54.668 25.9731C54.472 25.8228 54.1895 25.7476 53.8203 25.7476C53.3418 25.7476 52.9408 25.9731 52.6172 26.4243C52.2982 26.8755 52.1387 27.4907 52.1387 28.27V31.8384H51.0176V24.8384H52.1387V26.2808H52.166C52.3255 25.7886 52.5693 25.4058 52.8975 25.1323C53.2256 24.8543 53.5924 24.7153 53.998 24.7153C54.2897 24.7153 54.513 24.7472 54.668 24.811V25.9731ZM61.6953 31.8384H60.123L57.0332 28.4751H57.0059V31.8384H55.8848V21.4751H57.0059V28.0444H57.0332L59.9727 24.8384H61.4424L58.1953 28.2153L61.6953 31.8384ZM68.8184 31.8384H67.6973V30.6489H67.6699C67.1504 31.5513 66.3483 32.0024 65.2637 32.0024C64.3841 32.0024 63.68 31.6903 63.1514 31.0659C62.6273 30.437 62.3652 29.5825 62.3652 28.5024C62.3652 27.3449 62.6569 26.4175 63.2402 25.7202C63.8236 25.0229 64.6006 24.6743 65.5713 24.6743C66.5329 24.6743 67.2324 25.0526 67.6699 25.8091H67.6973V21.4751H68.8184V31.8384ZM67.6973 28.6733V27.6411C67.6973 27.076 67.5104 26.5975 67.1367 26.2056C66.763 25.8136 66.2891 25.6177 65.7148 25.6177C65.0312 25.6177 64.4935 25.8683 64.1016 26.3696C63.7096 26.8709 63.5137 27.5636 63.5137 28.4478C63.5137 29.2544 63.7005 29.8924 64.0742 30.3618C64.4525 30.8267 64.9583 31.0591 65.5918 31.0591C66.2161 31.0591 66.722 30.8335 67.1094 30.3823C67.5013 29.9312 67.6973 29.3615 67.6973 28.6733ZM76.0986 31.8384H74.9775V30.7446H74.9502C74.4626 31.5832 73.7448 32.0024 72.7969 32.0024C72.0996 32.0024 71.5527 31.8179 71.1562 31.4487C70.7643 31.0796 70.5684 30.5897 70.5684 29.979C70.5684 28.6711 71.3385 27.91 72.8789 27.6958L74.9775 27.4019C74.9775 26.2124 74.4967 25.6177 73.5352 25.6177C72.6921 25.6177 71.931 25.9048 71.252 26.479V25.3306C71.9401 24.8931 72.7331 24.6743 73.6309 24.6743C75.276 24.6743 76.0986 25.5448 76.0986 27.2856V31.8384ZM74.9775 28.2974L73.2891 28.5298C72.7695 28.6027 72.3776 28.7326 72.1133 28.9194C71.849 29.1017 71.7168 29.4276 71.7168 29.897C71.7168 30.2388 71.8376 30.519 72.0791 30.7378C72.3252 30.952 72.651 31.0591 73.0566 31.0591C73.6126 31.0591 74.0706 30.8654 74.4307 30.478C74.7952 30.0861 74.9775 29.5916 74.9775 28.9946V28.2974ZM83.7822 24.8384L80.5625 32.9595C79.9883 34.4087 79.1816 35.1333 78.1426 35.1333C77.8509 35.1333 77.6071 35.1037 77.4111 35.0444V34.0396C77.6527 34.1216 77.8737 34.1626 78.0742 34.1626C78.6393 34.1626 79.0632 33.8254 79.3457 33.1509L79.9062 31.8247L77.1719 24.8384H78.416L80.3096 30.2251C80.3324 30.2935 80.3802 30.4712 80.4531 30.7583H80.4941C80.5169 30.6489 80.5625 30.4757 80.6309 30.2388L82.6201 24.8384H83.7822Z" fill="#4081EC"/>
<rect x="20.5" y="14.3384" width="72" height="24" rx="4.5" stroke="#BFDEFF"/>
<rect x="20.5" y="219.338" width="79" height="24" rx="4.5" fill="#F0F8FF"/>
<path d="M31.6172 236.838H30.4688V227.036H31.6172V236.838ZM43.9902 236.838H42.8691V232.819C42.8691 232.044 42.7484 231.484 42.5068 231.137C42.2699 230.791 41.8688 230.618 41.3037 230.618C40.8252 230.618 40.4173 230.836 40.0801 231.274C39.7474 231.711 39.5811 232.236 39.5811 232.846V236.838H38.46V232.682C38.46 231.306 37.929 230.618 36.8672 230.618C36.375 230.618 35.9694 230.825 35.6504 231.24C35.3314 231.65 35.1719 232.185 35.1719 232.846V236.838H34.0508V229.838H35.1719V230.946H35.1992C35.696 230.098 36.4206 229.674 37.373 229.674C37.8516 229.674 38.2686 229.809 38.624 230.078C38.9795 230.342 39.2233 230.691 39.3555 231.124C39.875 230.157 40.6497 229.674 41.6797 229.674C43.2201 229.674 43.9902 230.625 43.9902 232.525V236.838ZM47.2578 235.827H47.2305V240.058H46.1094V229.838H47.2305V231.069H47.2578C47.8092 230.139 48.6159 229.674 49.6777 229.674C50.5801 229.674 51.2842 229.989 51.79 230.618C52.2959 231.242 52.5488 232.081 52.5488 233.133C52.5488 234.305 52.264 235.243 51.6943 235.95C51.1247 236.652 50.3454 237.002 49.3564 237.002C48.4495 237.002 47.75 236.611 47.2578 235.827ZM47.2305 233.003V233.981C47.2305 234.56 47.4173 235.052 47.791 235.458C48.1693 235.859 48.6478 236.059 49.2266 236.059C49.9056 236.059 50.4365 235.799 50.8193 235.28C51.2067 234.76 51.4004 234.038 51.4004 233.113C51.4004 232.333 51.2204 231.723 50.8604 231.281C50.5003 230.839 50.0127 230.618 49.3975 230.618C48.7458 230.618 48.2217 230.846 47.8252 231.301C47.4287 231.752 47.2305 232.32 47.2305 233.003ZM57.2656 237.002C56.2311 237.002 55.404 236.677 54.7842 236.025C54.1689 235.369 53.8613 234.5 53.8613 233.42C53.8613 232.245 54.1826 231.326 54.8252 230.666C55.4678 230.005 56.3359 229.674 57.4297 229.674C58.4733 229.674 59.2868 229.996 59.8701 230.638C60.458 231.281 60.752 232.172 60.752 233.311C60.752 234.428 60.4352 235.323 59.8018 235.998C59.1729 236.667 58.3275 237.002 57.2656 237.002ZM57.3477 230.618C56.6276 230.618 56.0579 230.864 55.6387 231.356C55.2194 231.844 55.0098 232.518 55.0098 233.379C55.0098 234.209 55.2217 234.863 55.6455 235.341C56.0693 235.82 56.6367 236.059 57.3477 236.059C58.0723 236.059 58.6283 235.824 59.0156 235.355C59.4076 234.886 59.6035 234.218 59.6035 233.352C59.6035 232.477 59.4076 231.803 59.0156 231.329C58.6283 230.855 58.0723 230.618 57.3477 230.618ZM66.1934 230.973C65.9974 230.823 65.7148 230.748 65.3457 230.748C64.8672 230.748 64.4661 230.973 64.1426 231.424C63.8236 231.875 63.6641 232.491 63.6641 233.27V236.838H62.543V229.838H63.6641V231.281H63.6914C63.8509 230.789 64.0947 230.406 64.4229 230.132C64.751 229.854 65.1178 229.715 65.5234 229.715C65.8151 229.715 66.0384 229.747 66.1934 229.811V230.973ZM70.6572 236.77C70.3929 236.916 70.0443 236.989 69.6113 236.989C68.3854 236.989 67.7725 236.305 67.7725 234.938V230.795H66.5693V229.838H67.7725V228.129L68.8936 227.767V229.838H70.6572V230.795H68.8936V234.74C68.8936 235.209 68.9733 235.544 69.1328 235.745C69.2923 235.945 69.5566 236.045 69.9258 236.045C70.2083 236.045 70.4521 235.968 70.6572 235.813V236.77ZM77.165 236.838H76.0439V235.745H76.0166C75.529 236.583 74.8112 237.002 73.8633 237.002C73.166 237.002 72.6191 236.818 72.2227 236.449C71.8307 236.08 71.6348 235.59 71.6348 234.979C71.6348 233.671 72.4049 232.91 73.9453 232.696L76.0439 232.402C76.0439 231.212 75.5632 230.618 74.6016 230.618C73.7585 230.618 72.9974 230.905 72.3184 231.479V230.331C73.0065 229.893 73.7995 229.674 74.6973 229.674C76.3424 229.674 77.165 230.545 77.165 232.286V236.838ZM76.0439 233.297L74.3555 233.53C73.8359 233.603 73.444 233.733 73.1797 233.919C72.9154 234.102 72.7832 234.428 72.7832 234.897C72.7832 235.239 72.904 235.519 73.1455 235.738C73.3916 235.952 73.7174 236.059 74.123 236.059C74.679 236.059 75.137 235.865 75.4971 235.478C75.8617 235.086 76.0439 234.592 76.0439 233.995V233.297ZM85.0879 236.838H83.9668V232.846C83.9668 231.361 83.4245 230.618 82.3398 230.618C81.7793 230.618 81.3145 230.83 80.9453 231.253C80.5807 231.673 80.3984 232.204 80.3984 232.846V236.838H79.2773V229.838H80.3984V231H80.4258C80.9544 230.116 81.7201 229.674 82.7227 229.674C83.4883 229.674 84.0739 229.923 84.4795 230.419C84.8851 230.912 85.0879 231.625 85.0879 232.559V236.838ZM90.4541 236.77C90.1898 236.916 89.8411 236.989 89.4082 236.989C88.1823 236.989 87.5693 236.305 87.5693 234.938V230.795H86.3662V229.838H87.5693V228.129L88.6904 227.767V229.838H90.4541V230.795H88.6904V234.74C88.6904 235.209 88.7702 235.544 88.9297 235.745C89.0892 235.945 89.3535 236.045 89.7227 236.045C90.0052 236.045 90.249 235.968 90.4541 235.813V236.77Z" fill="#4081EC"/>
<rect x="20.5" y="219.338" width="79" height="24" rx="4.5" stroke="#BFDEFF"/>
<rect x="20.5" y="260.338" width="76" height="24" rx="4.5" fill="white"/>
<path d="M35.415 269.075H31.5869V272.465H35.1279V273.498H31.5869V277.838H30.4385V268.036H35.415V269.075ZM40.7744 271.973C40.5785 271.823 40.2959 271.748 39.9268 271.748C39.4482 271.748 39.0472 271.973 38.7236 272.424C38.4046 272.875 38.2451 273.491 38.2451 274.27V277.838H37.124V270.838H38.2451V272.281H38.2725C38.432 271.789 38.6758 271.406 39.0039 271.132C39.332 270.854 39.6989 270.715 40.1045 270.715C40.3962 270.715 40.6195 270.747 40.7744 270.811V271.973ZM44.917 278.002C43.8825 278.002 43.0553 277.677 42.4355 277.025C41.8203 276.369 41.5127 275.5 41.5127 274.42C41.5127 273.245 41.834 272.326 42.4766 271.666C43.1191 271.005 43.9873 270.674 45.0811 270.674C46.1247 270.674 46.9382 270.996 47.5215 271.638C48.1094 272.281 48.4033 273.172 48.4033 274.311C48.4033 275.428 48.0866 276.323 47.4531 276.998C46.8242 277.667 45.9788 278.002 44.917 278.002ZM44.999 271.618C44.279 271.618 43.7093 271.864 43.29 272.356C42.8708 272.844 42.6611 273.518 42.6611 274.379C42.6611 275.209 42.873 275.863 43.2969 276.341C43.7207 276.82 44.2881 277.059 44.999 277.059C45.7236 277.059 46.2796 276.824 46.667 276.355C47.0589 275.886 47.2549 275.218 47.2549 274.352C47.2549 273.477 47.0589 272.803 46.667 272.329C46.2796 271.855 45.7236 271.618 44.999 271.618ZM60.1338 277.838H59.0127V273.819C59.0127 273.044 58.8919 272.484 58.6504 272.137C58.4134 271.791 58.0124 271.618 57.4473 271.618C56.9688 271.618 56.5609 271.836 56.2236 272.274C55.891 272.711 55.7246 273.236 55.7246 273.846V277.838H54.6035V273.682C54.6035 272.306 54.0726 271.618 53.0107 271.618C52.5186 271.618 52.113 271.825 51.7939 272.24C51.4749 272.65 51.3154 273.185 51.3154 273.846V277.838H50.1943V270.838H51.3154V271.946H51.3428C51.8395 271.098 52.5641 270.674 53.5166 270.674C53.9951 270.674 54.4121 270.809 54.7676 271.078C55.123 271.342 55.3669 271.691 55.499 272.124C56.0186 271.157 56.7933 270.674 57.8232 270.674C59.3636 270.674 60.1338 271.625 60.1338 273.525V277.838ZM72.042 269.075H69.2119V277.838H68.0635V269.075H65.2402V268.036H72.042V269.075ZM80.2588 277.168C79.2744 277.724 78.1807 278.002 76.9775 278.002C75.5785 278.002 74.446 277.551 73.5801 276.649C72.7188 275.747 72.2881 274.553 72.2881 273.067C72.2881 271.549 72.7666 270.305 73.7236 269.334C74.6852 268.359 75.902 267.872 77.374 267.872C78.4404 267.872 79.3359 268.045 80.0605 268.391V269.663C79.2676 269.161 78.3288 268.911 77.2441 268.911C76.1458 268.911 75.2458 269.289 74.5439 270.045C73.8421 270.802 73.4912 271.782 73.4912 272.985C73.4912 274.224 73.8171 275.2 74.4688 275.911C75.1204 276.617 76.0046 276.97 77.1211 276.97C77.8867 276.97 78.5498 276.818 79.1104 276.512V273.764H76.9639V272.725H80.2588V277.168ZM87.6279 277.838H82.542V268.036H83.6904V276.799H87.6279V277.838Z" fill="#40819D" fill-opacity="0.615686"/>
<rect x="20.5" y="260.338" width="76" height="24" rx="4.5" stroke="#EBEBEB"/>
</svg>
