<svg width="726" height="336" viewBox="0 0 726 336" fill="none" xmlns="http://www.w3.org/2000/svg">
<path d="M34.008 66.4341H30.216V55.7141H34.008C37.384 55.7141 39.064 57.6821 39.064 61.0741C39.064 64.4661 37.384 66.4341 34.008 66.4341ZM33.784 56.9461H31.608V65.2021H33.784C36.216 65.2021 37.624 64.1301 37.624 61.0741C37.624 58.0181 36.216 56.9461 33.784 56.9461ZM44.2739 66.5941C42.0819 66.5941 40.5619 65.0261 40.5619 62.5621C40.5619 60.1141 42.0659 58.5301 44.1939 58.5301C46.3859 58.5301 47.7139 59.9861 47.7139 62.2581C47.7139 62.4981 47.6819 62.7381 47.6499 62.8821H41.9059C41.9859 64.5141 42.8979 65.4421 44.2739 65.4421C45.8259 65.4421 46.4499 64.5941 46.7539 63.9221L47.6019 64.8821C47.0259 65.8101 45.9539 66.5941 44.2739 66.5941ZM44.1939 59.6981C42.9459 59.6981 42.1139 60.4341 41.9379 61.8741H46.4659C46.3219 60.4501 45.4899 59.6981 44.1939 59.6981ZM51.3529 66.4341H49.9609V59.7781H48.6969V58.6901H49.9609V57.9701C49.9609 56.4181 50.9529 55.5541 52.4089 55.5541C53.5929 55.5541 54.3289 56.1941 54.6489 56.6901L53.8809 57.6821C53.5769 57.1221 53.0809 56.7061 52.3929 56.7061C51.6729 56.7061 51.3529 57.1221 51.3529 57.8581V58.6901H53.8489V59.7781H51.3529V66.4341ZM56.6873 66.5941C55.3753 66.5941 54.6393 65.8421 54.6393 64.8181C54.6393 63.7781 55.4233 63.1221 56.5273 62.6261L59.3273 61.3781C59.2793 60.4661 58.8473 59.7941 57.6313 59.7941C56.5273 59.7941 55.7913 60.4341 55.3913 61.2821L54.4473 60.3061C54.9113 59.5061 56.0633 58.5301 57.7913 58.5301C59.6953 58.5301 60.7193 59.6661 60.7193 61.5061V64.6901C60.7193 65.0581 60.8633 65.1701 61.1513 65.1701H61.6473V66.4341H60.7513C59.9513 66.4341 59.3753 66.0501 59.3753 64.9621V64.4181C59.1193 65.4421 58.2873 66.5941 56.6873 66.5941ZM56.0473 64.5941C56.0473 65.1221 56.4153 65.4421 57.1353 65.4421C58.4473 65.4421 59.3753 64.5781 59.3753 63.4581V62.3861L57.1193 63.4421C56.3832 63.7941 56.0473 64.1141 56.0473 64.5941ZM65.6751 66.5941C64.1551 66.5941 63.2111 65.6821 63.2111 64.0501V58.6901H64.5871V63.7141C64.5871 64.7061 64.9871 65.4261 66.2991 65.4261C67.8031 65.4261 68.3471 64.3701 68.3471 63.0901V58.6901H69.7231V66.4341H68.3471V64.3221C68.0591 65.5381 67.2271 66.5941 65.6751 66.5941ZM73.2293 66.4341H71.8372V55.7141H73.2293V66.4341ZM77.9136 66.6101C76.6496 66.6101 75.7536 65.7781 75.7536 64.4501V59.7781H74.5056V58.6901H75.7536V57.6981L77.1456 56.6741V58.6901H79.6896V59.7781H77.1456V64.0341C77.1456 65.0261 77.6096 65.2661 78.2176 65.2661C78.9056 65.2661 79.3856 64.6901 79.5936 64.2101L80.0576 65.5861C79.7216 66.1141 78.9856 66.6101 77.9136 66.6101Z" fill="#323232"/>
<path d="M32.608 141.434H31.216V130.714H32.608V135.322H38.256V130.714H39.648V141.434H38.256V136.554H32.608V141.434ZM44.9569 141.594C42.8129 141.594 41.3089 140.01 41.3089 137.562C41.3089 135.114 42.8129 133.53 44.9569 133.53C47.1009 133.53 48.6209 135.114 48.6209 137.562C48.6209 140.01 47.1009 141.594 44.9569 141.594ZM44.9569 140.426C46.2849 140.426 47.2129 139.514 47.2129 137.562C47.2129 135.594 46.2849 134.698 44.9569 134.698C43.6449 134.698 42.7329 135.594 42.7329 137.562C42.7329 139.514 43.6449 140.426 44.9569 140.426ZM53.6091 141.434H51.8491L49.0491 133.69H50.5531L52.0891 138.282L52.7611 140.41L53.4171 138.282L54.9371 133.69H56.4251L53.6091 141.434ZM60.477 141.594C58.285 141.594 56.765 140.026 56.765 137.562C56.765 135.114 58.269 133.53 60.397 133.53C62.589 133.53 63.917 134.986 63.917 137.258C63.917 137.498 63.885 137.738 63.853 137.882H58.109C58.189 139.514 59.101 140.442 60.477 140.442C62.029 140.442 62.653 139.594 62.957 138.922L63.805 139.882C63.229 140.81 62.157 141.594 60.477 141.594ZM60.397 134.698C59.149 134.698 58.317 135.434 58.141 136.874H62.669C62.525 135.45 61.693 134.698 60.397 134.698ZM67.073 141.434H65.681V133.69H67.073V135.754C67.377 134.554 68.177 133.514 69.489 133.514C70.321 133.514 71.121 134.106 71.121 135.194C71.121 135.85 70.945 136.33 70.817 136.522H69.297C69.553 136.298 69.761 135.818 69.761 135.386C69.761 134.938 69.521 134.554 68.961 134.554C67.969 134.554 67.073 135.722 67.073 137.05V141.434Z" fill="#323232"/>
<path d="M31.608 217.434H30.216V206.714H37.4V207.946H31.608V211.786H36.36V213.018H31.608V217.434ZM41.2538 217.594C39.1098 217.594 37.6058 216.01 37.6058 213.562C37.6058 211.114 39.1098 209.53 41.2538 209.53C43.3978 209.53 44.9178 211.114 44.9178 213.562C44.9178 216.01 43.3978 217.594 41.2538 217.594ZM41.2538 216.426C42.5818 216.426 43.5098 215.514 43.5098 213.562C43.5098 211.594 42.5818 210.698 41.2538 210.698C39.9418 210.698 39.0298 211.594 39.0298 213.562C39.0298 215.514 39.9418 216.426 41.2538 216.426ZM50.0376 217.594C47.8136 217.594 46.3896 216.026 46.3896 213.562C46.3896 211.114 47.8136 209.53 50.0376 209.53C52.0536 209.53 53.2376 210.698 53.6056 212.25L52.2456 212.81C52.0856 211.578 51.4456 210.698 50.0536 210.698C48.6456 210.698 47.7976 211.738 47.7976 213.562C47.7976 215.386 48.6456 216.442 50.0536 216.442C51.4456 216.442 52.0856 215.546 52.2456 214.314L53.6056 214.874C53.2376 216.426 52.0536 217.594 50.0376 217.594ZM57.4564 217.594C55.9364 217.594 54.9924 216.682 54.9924 215.05V209.69H56.3684V214.714C56.3684 215.706 56.7684 216.426 58.0804 216.426C59.5844 216.426 60.1284 215.37 60.1284 214.09V209.69H61.5044V217.434H60.1284V215.322C59.8404 216.538 59.0084 217.594 57.4564 217.594ZM66.3921 217.594C64.7761 217.594 63.3041 216.89 62.7761 215.45L63.7841 214.666C64.0561 215.546 64.9041 216.426 66.4401 216.426C67.3521 216.426 67.9601 216.074 67.9601 215.386C67.9601 214.682 67.2561 214.458 66.3441 214.25L65.3201 214.01C64.2161 213.754 63.0161 213.226 63.0161 211.802C63.0161 210.394 64.1041 209.53 65.7841 209.53C67.4161 209.53 68.5521 210.394 68.9841 211.418L67.9281 212.202C67.5441 211.29 66.8081 210.714 65.7041 210.714C64.9041 210.714 64.3281 211.066 64.3281 211.722C64.3281 212.41 64.8401 212.65 65.8961 212.906L66.8881 213.162C68.6321 213.578 69.2081 214.298 69.2081 215.37C69.2081 216.906 67.8961 217.594 66.3921 217.594Z" fill="#323232"/>
<path d="M31.608 290.434H30.216V279.714H31.608V290.434ZM35.3386 290.434H33.9466V282.69H35.3386V284.754C35.6426 283.554 36.4746 282.53 37.9946 282.53C39.5146 282.53 40.4586 283.442 40.4586 285.09V290.434H39.0826V285.426C39.0826 284.418 38.6826 283.714 37.3706 283.714C35.8826 283.714 35.3386 284.754 35.3386 286.05V290.434ZM43.9168 293.41H42.5247V282.69H43.9168V284.674C44.1888 283.506 44.9248 282.514 46.4128 282.514C48.3648 282.514 49.5808 284.098 49.5808 286.546C49.5808 288.994 48.3648 290.594 46.4128 290.594C44.9248 290.594 44.1888 289.602 43.9168 288.434V293.41ZM43.9168 287.106C43.9168 288.386 44.4608 289.426 45.9328 289.426C47.1648 289.426 48.1728 288.53 48.1728 286.546C48.1728 284.578 47.1648 283.682 45.9328 283.682C44.4608 283.682 43.9168 284.722 43.9168 286.002V287.106ZM53.6439 290.594C52.1239 290.594 51.1799 289.682 51.1799 288.05V282.69H52.5559V287.714C52.5559 288.706 52.9559 289.426 54.2679 289.426C55.7719 289.426 56.3159 288.37 56.3159 287.09V282.69H57.6919V290.434H56.3159V288.322C56.0279 289.538 55.1959 290.594 53.6439 290.594ZM62.1793 290.61C60.9153 290.61 60.0193 289.778 60.0193 288.45V283.778H58.7713V282.69H60.0193V281.698L61.4113 280.674V282.69H63.9553V283.778H61.4113V288.034C61.4113 289.026 61.8753 289.266 62.4833 289.266C63.1713 289.266 63.6513 288.69 63.8593 288.21L64.3233 289.586C63.9873 290.114 63.2513 290.61 62.1793 290.61ZM71.6949 290.61C70.4309 290.61 69.5349 289.778 69.5349 288.45V283.778H68.2869V282.69H69.5349V281.698L70.9269 280.674V282.69H73.4709V283.778H70.9269V288.034C70.9269 289.026 71.3909 289.266 71.9989 289.266C72.6869 289.266 73.1669 288.69 73.3749 288.21L73.8389 289.586C73.5029 290.114 72.7669 290.61 71.6949 290.61ZM77.9614 290.594C75.7694 290.594 74.2494 289.026 74.2494 286.562C74.2494 284.114 75.7534 282.53 77.8814 282.53C80.0734 282.53 81.4014 283.986 81.4014 286.258C81.4014 286.498 81.3694 286.738 81.3374 286.882H75.5934C75.6734 288.514 76.5854 289.442 77.9614 289.442C79.5134 289.442 80.1374 288.594 80.4414 287.922L81.2894 288.882C80.7134 289.81 79.6414 290.594 77.9614 290.594ZM77.8814 283.698C76.6334 283.698 75.8014 284.434 75.6254 285.874H80.1534C80.0094 284.45 79.1774 283.698 77.8814 283.698ZM83.2585 290.434H81.6585L84.4265 286.53L81.8505 282.69H83.4505L85.4665 285.81L87.5305 282.69H89.1305L86.3945 286.482L89.0185 290.434H87.4025L86.1065 288.418L85.3545 287.282L84.6025 288.418L83.2585 290.434ZM92.5543 290.61C91.2903 290.61 90.3943 289.778 90.3943 288.45V283.778H89.1463V282.69H90.3943V281.698L91.7863 280.674V282.69H94.3303V283.778H91.7863V288.034C91.7863 289.026 92.2503 289.266 92.8583 289.266C93.5463 289.266 94.0263 288.69 94.2343 288.21L94.6983 289.586C94.3623 290.114 93.6263 290.61 92.5543 290.61Z" fill="#323232"/>
<rect x="0.5" y="0.934082" width="725" height="334" rx="9.5" stroke="#7E40C7" stroke-dasharray="5 5"/>
<rect x="127.5" y="45.9341" width="163" height="29" rx="4.5" fill="white" stroke="#D9D9D9"/>
<path d="M161.086 62.2583V65.4341H160.102V57.0317H162.41C163.309 57.0317 164.004 57.2505 164.496 57.688C164.992 58.1255 165.24 58.7427 165.24 59.5396C165.24 60.3364 164.965 60.9888 164.414 61.4966C163.867 62.0044 163.127 62.2583 162.193 62.2583H161.086ZM161.086 57.9224V61.3677H162.117C162.797 61.3677 163.314 61.2134 163.67 60.9048C164.029 60.5923 164.209 60.1528 164.209 59.5864C164.209 58.4771 163.553 57.9224 162.24 57.9224H161.086ZM167.66 65.4341H166.699V56.5513H167.66V65.4341ZM173.9 65.4341H172.939V64.4966H172.916C172.498 65.2153 171.883 65.5747 171.07 65.5747C170.473 65.5747 170.004 65.4165 169.664 65.1001C169.328 64.7837 169.16 64.3638 169.16 63.8403C169.16 62.7192 169.82 62.0669 171.141 61.8833L172.939 61.6313C172.939 60.6118 172.527 60.1021 171.703 60.1021C170.98 60.1021 170.328 60.3481 169.746 60.8403V59.856C170.336 59.481 171.016 59.2935 171.785 59.2935C173.195 59.2935 173.9 60.0396 173.9 61.5317V65.4341ZM172.939 62.3989L171.492 62.5981C171.047 62.6606 170.711 62.772 170.484 62.9321C170.258 63.0884 170.145 63.3677 170.145 63.77C170.145 64.063 170.248 64.3032 170.455 64.4907C170.666 64.6743 170.945 64.7661 171.293 64.7661C171.77 64.7661 172.162 64.6001 172.471 64.2681C172.783 63.9321 172.939 63.5083 172.939 62.9966V62.3989ZM179.801 65.1587C179.34 65.436 178.793 65.5747 178.16 65.5747C177.305 65.5747 176.613 65.2974 176.086 64.7427C175.562 64.1841 175.301 63.4614 175.301 62.5747C175.301 61.5864 175.584 60.7935 176.15 60.1958C176.717 59.5942 177.473 59.2935 178.418 59.2935C178.945 59.2935 179.41 59.3911 179.812 59.5864V60.5708C179.367 60.2583 178.891 60.1021 178.383 60.1021C177.77 60.1021 177.266 60.3228 176.871 60.7642C176.48 61.2017 176.285 61.7778 176.285 62.4927C176.285 63.1958 176.469 63.7505 176.836 64.1567C177.207 64.563 177.703 64.7661 178.324 64.7661C178.848 64.7661 179.34 64.5923 179.801 64.2446V65.1587ZM186.076 62.6743H181.84C181.855 63.3423 182.035 63.8579 182.379 64.2212C182.723 64.5845 183.195 64.7661 183.797 64.7661C184.473 64.7661 185.094 64.5435 185.66 64.0981V65.0005C185.133 65.3833 184.436 65.5747 183.568 65.5747C182.721 65.5747 182.055 65.3032 181.57 64.7603C181.086 64.2134 180.844 63.4458 180.844 62.4575C180.844 61.5239 181.107 60.7642 181.635 60.1782C182.166 59.5884 182.824 59.2935 183.609 59.2935C184.395 59.2935 185.002 59.5474 185.432 60.0552C185.861 60.563 186.076 61.2681 186.076 62.1704V62.6743ZM185.092 61.8599C185.088 61.3052 184.953 60.8735 184.688 60.5649C184.426 60.2563 184.061 60.1021 183.592 60.1021C183.139 60.1021 182.754 60.2642 182.438 60.5884C182.121 60.9126 181.926 61.3364 181.852 61.8599H185.092ZM192.516 65.4341H191.555V61.9771C191.555 60.7271 191.09 60.1021 190.16 60.1021C189.691 60.1021 189.297 60.2837 188.977 60.647C188.656 61.0063 188.496 61.4692 188.496 62.0356V65.4341H187.535V56.5513H188.496V60.4302H188.52C188.98 59.6724 189.637 59.2935 190.488 59.2935C191.84 59.2935 192.516 60.1079 192.516 61.7368V65.4341ZM196.84 65.5747C195.953 65.5747 195.244 65.2954 194.713 64.7368C194.186 64.1743 193.922 63.4302 193.922 62.5044C193.922 61.4966 194.197 60.7095 194.748 60.1431C195.299 59.5767 196.043 59.2935 196.98 59.2935C197.875 59.2935 198.572 59.5688 199.072 60.1196C199.576 60.6704 199.828 61.4341 199.828 62.4106C199.828 63.3677 199.557 64.1353 199.014 64.7134C198.475 65.2876 197.75 65.5747 196.84 65.5747ZM196.91 60.1021C196.293 60.1021 195.805 60.313 195.445 60.7349C195.086 61.1528 194.906 61.731 194.906 62.4692C194.906 63.1802 195.088 63.7407 195.451 64.1509C195.814 64.561 196.301 64.7661 196.91 64.7661C197.531 64.7661 198.008 64.5649 198.34 64.1626C198.676 63.7603 198.844 63.188 198.844 62.4458C198.844 61.6958 198.676 61.1177 198.34 60.7114C198.008 60.3052 197.531 60.1021 196.91 60.1021ZM202.324 65.4341H201.363V56.5513H202.324V65.4341ZM209.391 65.4341H208.43V64.4146H208.406C207.961 65.188 207.273 65.5747 206.344 65.5747C205.59 65.5747 204.986 65.3071 204.533 64.772C204.084 64.2329 203.859 63.5005 203.859 62.5747C203.859 61.5825 204.109 60.7876 204.609 60.1899C205.109 59.5923 205.775 59.2935 206.607 59.2935C207.432 59.2935 208.031 59.6177 208.406 60.2661H208.43V56.5513H209.391V65.4341ZM208.43 62.7212V61.8364C208.43 61.3521 208.27 60.9419 207.949 60.606C207.629 60.27 207.223 60.1021 206.73 60.1021C206.145 60.1021 205.684 60.3169 205.348 60.7466C205.012 61.1763 204.844 61.77 204.844 62.5278C204.844 63.2192 205.004 63.7661 205.324 64.1685C205.648 64.5669 206.082 64.7661 206.625 64.7661C207.16 64.7661 207.594 64.5728 207.926 64.186C208.262 63.7993 208.43 63.311 208.43 62.7212ZM216.158 62.6743H211.922C211.938 63.3423 212.117 63.8579 212.461 64.2212C212.805 64.5845 213.277 64.7661 213.879 64.7661C214.555 64.7661 215.176 64.5435 215.742 64.0981V65.0005C215.215 65.3833 214.518 65.5747 213.65 65.5747C212.803 65.5747 212.137 65.3032 211.652 64.7603C211.168 64.2134 210.926 63.4458 210.926 62.4575C210.926 61.5239 211.189 60.7642 211.717 60.1782C212.248 59.5884 212.906 59.2935 213.691 59.2935C214.477 59.2935 215.084 59.5474 215.514 60.0552C215.943 60.563 216.158 61.2681 216.158 62.1704V62.6743ZM215.174 61.8599C215.17 61.3052 215.035 60.8735 214.77 60.5649C214.508 60.2563 214.143 60.1021 213.674 60.1021C213.221 60.1021 212.836 60.2642 212.52 60.5884C212.203 60.9126 212.008 61.3364 211.934 61.8599H215.174ZM220.746 60.4067C220.578 60.2778 220.336 60.2134 220.02 60.2134C219.609 60.2134 219.266 60.4067 218.988 60.7935C218.715 61.1802 218.578 61.7075 218.578 62.3755V65.4341H217.617V59.4341H218.578V60.6704H218.602C218.738 60.2485 218.947 59.9204 219.229 59.686C219.51 59.4478 219.824 59.3286 220.172 59.3286C220.422 59.3286 220.613 59.356 220.746 59.4106V60.4067Z" fill="#BFBFBF"/>
<path d="M143.473 64.701C146.308 64.701 148.607 62.4027 148.607 59.5675C148.607 56.7324 146.308 54.4341 143.473 54.4341C140.638 54.4341 138.34 56.7324 138.34 59.5675C138.34 62.4027 140.638 64.701 143.473 64.701Z" stroke="#4B4A4B" stroke-width="1.5" stroke-linecap="round" stroke-linejoin="round"/>
<path d="M150.66 66.7544L147.922 64.0166" stroke="#4B4A4B" stroke-width="1.5" stroke-linecap="round" stroke-linejoin="round"/>
<rect x="331.5" y="45.9341" width="163" height="29" rx="4.5" fill="white" stroke="#D9D9D9"/>
<path d="M344.086 62.2583V65.4341H343.102V57.0317H345.41C346.309 57.0317 347.004 57.2505 347.496 57.688C347.992 58.1255 348.24 58.7427 348.24 59.5396C348.24 60.3364 347.965 60.9888 347.414 61.4966C346.867 62.0044 346.127 62.2583 345.193 62.2583H344.086ZM344.086 57.9224V61.3677H345.117C345.797 61.3677 346.314 61.2134 346.67 60.9048C347.029 60.5923 347.209 60.1528 347.209 59.5864C347.209 58.4771 346.553 57.9224 345.24 57.9224H344.086ZM350.66 65.4341H349.699V56.5513H350.66V65.4341ZM356.9 65.4341H355.939V64.4966H355.916C355.498 65.2153 354.883 65.5747 354.07 65.5747C353.473 65.5747 353.004 65.4165 352.664 65.1001C352.328 64.7837 352.16 64.3638 352.16 63.8403C352.16 62.7192 352.82 62.0669 354.141 61.8833L355.939 61.6313C355.939 60.6118 355.527 60.1021 354.703 60.1021C353.98 60.1021 353.328 60.3481 352.746 60.8403V59.856C353.336 59.481 354.016 59.2935 354.785 59.2935C356.195 59.2935 356.9 60.0396 356.9 61.5317V65.4341ZM355.939 62.3989L354.492 62.5981C354.047 62.6606 353.711 62.772 353.484 62.9321C353.258 63.0884 353.145 63.3677 353.145 63.77C353.145 64.063 353.248 64.3032 353.455 64.4907C353.666 64.6743 353.945 64.7661 354.293 64.7661C354.77 64.7661 355.162 64.6001 355.471 64.2681C355.783 63.9321 355.939 63.5083 355.939 62.9966V62.3989ZM362.801 65.1587C362.34 65.436 361.793 65.5747 361.16 65.5747C360.305 65.5747 359.613 65.2974 359.086 64.7427C358.562 64.1841 358.301 63.4614 358.301 62.5747C358.301 61.5864 358.584 60.7935 359.15 60.1958C359.717 59.5942 360.473 59.2935 361.418 59.2935C361.945 59.2935 362.41 59.3911 362.812 59.5864V60.5708C362.367 60.2583 361.891 60.1021 361.383 60.1021C360.77 60.1021 360.266 60.3228 359.871 60.7642C359.48 61.2017 359.285 61.7778 359.285 62.4927C359.285 63.1958 359.469 63.7505 359.836 64.1567C360.207 64.563 360.703 64.7661 361.324 64.7661C361.848 64.7661 362.34 64.5923 362.801 64.2446V65.1587ZM369.076 62.6743H364.84C364.855 63.3423 365.035 63.8579 365.379 64.2212C365.723 64.5845 366.195 64.7661 366.797 64.7661C367.473 64.7661 368.094 64.5435 368.66 64.0981V65.0005C368.133 65.3833 367.436 65.5747 366.568 65.5747C365.721 65.5747 365.055 65.3032 364.57 64.7603C364.086 64.2134 363.844 63.4458 363.844 62.4575C363.844 61.5239 364.107 60.7642 364.635 60.1782C365.166 59.5884 365.824 59.2935 366.609 59.2935C367.395 59.2935 368.002 59.5474 368.432 60.0552C368.861 60.563 369.076 61.2681 369.076 62.1704V62.6743ZM368.092 61.8599C368.088 61.3052 367.953 60.8735 367.688 60.5649C367.426 60.2563 367.061 60.1021 366.592 60.1021C366.139 60.1021 365.754 60.2642 365.438 60.5884C365.121 60.9126 364.926 61.3364 364.852 61.8599H368.092ZM375.516 65.4341H374.555V61.9771C374.555 60.7271 374.09 60.1021 373.16 60.1021C372.691 60.1021 372.297 60.2837 371.977 60.647C371.656 61.0063 371.496 61.4692 371.496 62.0356V65.4341H370.535V56.5513H371.496V60.4302H371.52C371.98 59.6724 372.637 59.2935 373.488 59.2935C374.84 59.2935 375.516 60.1079 375.516 61.7368V65.4341ZM379.84 65.5747C378.953 65.5747 378.244 65.2954 377.713 64.7368C377.186 64.1743 376.922 63.4302 376.922 62.5044C376.922 61.4966 377.197 60.7095 377.748 60.1431C378.299 59.5767 379.043 59.2935 379.98 59.2935C380.875 59.2935 381.572 59.5688 382.072 60.1196C382.576 60.6704 382.828 61.4341 382.828 62.4106C382.828 63.3677 382.557 64.1353 382.014 64.7134C381.475 65.2876 380.75 65.5747 379.84 65.5747ZM379.91 60.1021C379.293 60.1021 378.805 60.313 378.445 60.7349C378.086 61.1528 377.906 61.731 377.906 62.4692C377.906 63.1802 378.088 63.7407 378.451 64.1509C378.814 64.561 379.301 64.7661 379.91 64.7661C380.531 64.7661 381.008 64.5649 381.34 64.1626C381.676 63.7603 381.844 63.188 381.844 62.4458C381.844 61.6958 381.676 61.1177 381.34 60.7114C381.008 60.3052 380.531 60.1021 379.91 60.1021ZM385.324 65.4341H384.363V56.5513H385.324V65.4341ZM392.391 65.4341H391.43V64.4146H391.406C390.961 65.188 390.273 65.5747 389.344 65.5747C388.59 65.5747 387.986 65.3071 387.533 64.772C387.084 64.2329 386.859 63.5005 386.859 62.5747C386.859 61.5825 387.109 60.7876 387.609 60.1899C388.109 59.5923 388.775 59.2935 389.607 59.2935C390.432 59.2935 391.031 59.6177 391.406 60.2661H391.43V56.5513H392.391V65.4341ZM391.43 62.7212V61.8364C391.43 61.3521 391.27 60.9419 390.949 60.606C390.629 60.27 390.223 60.1021 389.73 60.1021C389.145 60.1021 388.684 60.3169 388.348 60.7466C388.012 61.1763 387.844 61.77 387.844 62.5278C387.844 63.2192 388.004 63.7661 388.324 64.1685C388.648 64.5669 389.082 64.7661 389.625 64.7661C390.16 64.7661 390.594 64.5728 390.926 64.186C391.262 63.7993 391.43 63.311 391.43 62.7212ZM399.158 62.6743H394.922C394.938 63.3423 395.117 63.8579 395.461 64.2212C395.805 64.5845 396.277 64.7661 396.879 64.7661C397.555 64.7661 398.176 64.5435 398.742 64.0981V65.0005C398.215 65.3833 397.518 65.5747 396.65 65.5747C395.803 65.5747 395.137 65.3032 394.652 64.7603C394.168 64.2134 393.926 63.4458 393.926 62.4575C393.926 61.5239 394.189 60.7642 394.717 60.1782C395.248 59.5884 395.906 59.2935 396.691 59.2935C397.477 59.2935 398.084 59.5474 398.514 60.0552C398.943 60.563 399.158 61.2681 399.158 62.1704V62.6743ZM398.174 61.8599C398.17 61.3052 398.035 60.8735 397.77 60.5649C397.508 60.2563 397.143 60.1021 396.674 60.1021C396.221 60.1021 395.836 60.2642 395.52 60.5884C395.203 60.9126 395.008 61.3364 394.934 61.8599H398.174ZM403.746 60.4067C403.578 60.2778 403.336 60.2134 403.02 60.2134C402.609 60.2134 402.266 60.4067 401.988 60.7935C401.715 61.1802 401.578 61.7075 401.578 62.3755V65.4341H400.617V59.4341H401.578V60.6704H401.602C401.738 60.2485 401.947 59.9204 402.229 59.686C402.51 59.4478 402.824 59.3286 403.172 59.3286C403.422 59.3286 403.613 59.356 403.746 59.4106V60.4067Z" fill="#BFBFBF"/>
<rect x="535.5" y="45.9341" width="163" height="29" rx="4.5" fill="white" stroke="#D9D9D9"/>
<path d="M548.086 62.2583V65.4341H547.102V57.0317H549.41C550.309 57.0317 551.004 57.2505 551.496 57.688C551.992 58.1255 552.24 58.7427 552.24 59.5396C552.24 60.3364 551.965 60.9888 551.414 61.4966C550.867 62.0044 550.127 62.2583 549.193 62.2583H548.086ZM548.086 57.9224V61.3677H549.117C549.797 61.3677 550.314 61.2134 550.67 60.9048C551.029 60.5923 551.209 60.1528 551.209 59.5864C551.209 58.4771 550.553 57.9224 549.24 57.9224H548.086ZM554.66 65.4341H553.699V56.5513H554.66V65.4341ZM560.9 65.4341H559.939V64.4966H559.916C559.498 65.2153 558.883 65.5747 558.07 65.5747C557.473 65.5747 557.004 65.4165 556.664 65.1001C556.328 64.7837 556.16 64.3638 556.16 63.8403C556.16 62.7192 556.82 62.0669 558.141 61.8833L559.939 61.6313C559.939 60.6118 559.527 60.1021 558.703 60.1021C557.98 60.1021 557.328 60.3481 556.746 60.8403V59.856C557.336 59.481 558.016 59.2935 558.785 59.2935C560.195 59.2935 560.9 60.0396 560.9 61.5317V65.4341ZM559.939 62.3989L558.492 62.5981C558.047 62.6606 557.711 62.772 557.484 62.9321C557.258 63.0884 557.145 63.3677 557.145 63.77C557.145 64.063 557.248 64.3032 557.455 64.4907C557.666 64.6743 557.945 64.7661 558.293 64.7661C558.77 64.7661 559.162 64.6001 559.471 64.2681C559.783 63.9321 559.939 63.5083 559.939 62.9966V62.3989ZM566.801 65.1587C566.34 65.436 565.793 65.5747 565.16 65.5747C564.305 65.5747 563.613 65.2974 563.086 64.7427C562.562 64.1841 562.301 63.4614 562.301 62.5747C562.301 61.5864 562.584 60.7935 563.15 60.1958C563.717 59.5942 564.473 59.2935 565.418 59.2935C565.945 59.2935 566.41 59.3911 566.812 59.5864V60.5708C566.367 60.2583 565.891 60.1021 565.383 60.1021C564.77 60.1021 564.266 60.3228 563.871 60.7642C563.48 61.2017 563.285 61.7778 563.285 62.4927C563.285 63.1958 563.469 63.7505 563.836 64.1567C564.207 64.563 564.703 64.7661 565.324 64.7661C565.848 64.7661 566.34 64.5923 566.801 64.2446V65.1587ZM573.076 62.6743H568.84C568.855 63.3423 569.035 63.8579 569.379 64.2212C569.723 64.5845 570.195 64.7661 570.797 64.7661C571.473 64.7661 572.094 64.5435 572.66 64.0981V65.0005C572.133 65.3833 571.436 65.5747 570.568 65.5747C569.721 65.5747 569.055 65.3032 568.57 64.7603C568.086 64.2134 567.844 63.4458 567.844 62.4575C567.844 61.5239 568.107 60.7642 568.635 60.1782C569.166 59.5884 569.824 59.2935 570.609 59.2935C571.395 59.2935 572.002 59.5474 572.432 60.0552C572.861 60.563 573.076 61.2681 573.076 62.1704V62.6743ZM572.092 61.8599C572.088 61.3052 571.953 60.8735 571.688 60.5649C571.426 60.2563 571.061 60.1021 570.592 60.1021C570.139 60.1021 569.754 60.2642 569.438 60.5884C569.121 60.9126 568.926 61.3364 568.852 61.8599H572.092ZM579.516 65.4341H578.555V61.9771C578.555 60.7271 578.09 60.1021 577.16 60.1021C576.691 60.1021 576.297 60.2837 575.977 60.647C575.656 61.0063 575.496 61.4692 575.496 62.0356V65.4341H574.535V56.5513H575.496V60.4302H575.52C575.98 59.6724 576.637 59.2935 577.488 59.2935C578.84 59.2935 579.516 60.1079 579.516 61.7368V65.4341ZM583.84 65.5747C582.953 65.5747 582.244 65.2954 581.713 64.7368C581.186 64.1743 580.922 63.4302 580.922 62.5044C580.922 61.4966 581.197 60.7095 581.748 60.1431C582.299 59.5767 583.043 59.2935 583.98 59.2935C584.875 59.2935 585.572 59.5688 586.072 60.1196C586.576 60.6704 586.828 61.4341 586.828 62.4106C586.828 63.3677 586.557 64.1353 586.014 64.7134C585.475 65.2876 584.75 65.5747 583.84 65.5747ZM583.91 60.1021C583.293 60.1021 582.805 60.313 582.445 60.7349C582.086 61.1528 581.906 61.731 581.906 62.4692C581.906 63.1802 582.088 63.7407 582.451 64.1509C582.814 64.561 583.301 64.7661 583.91 64.7661C584.531 64.7661 585.008 64.5649 585.34 64.1626C585.676 63.7603 585.844 63.188 585.844 62.4458C585.844 61.6958 585.676 61.1177 585.34 60.7114C585.008 60.3052 584.531 60.1021 583.91 60.1021ZM589.324 65.4341H588.363V56.5513H589.324V65.4341ZM596.391 65.4341H595.43V64.4146H595.406C594.961 65.188 594.273 65.5747 593.344 65.5747C592.59 65.5747 591.986 65.3071 591.533 64.772C591.084 64.2329 590.859 63.5005 590.859 62.5747C590.859 61.5825 591.109 60.7876 591.609 60.1899C592.109 59.5923 592.775 59.2935 593.607 59.2935C594.432 59.2935 595.031 59.6177 595.406 60.2661H595.43V56.5513H596.391V65.4341ZM595.43 62.7212V61.8364C595.43 61.3521 595.27 60.9419 594.949 60.606C594.629 60.27 594.223 60.1021 593.73 60.1021C593.145 60.1021 592.684 60.3169 592.348 60.7466C592.012 61.1763 591.844 61.77 591.844 62.5278C591.844 63.2192 592.004 63.7661 592.324 64.1685C592.648 64.5669 593.082 64.7661 593.625 64.7661C594.16 64.7661 594.594 64.5728 594.926 64.186C595.262 63.7993 595.43 63.311 595.43 62.7212ZM603.158 62.6743H598.922C598.938 63.3423 599.117 63.8579 599.461 64.2212C599.805 64.5845 600.277 64.7661 600.879 64.7661C601.555 64.7661 602.176 64.5435 602.742 64.0981V65.0005C602.215 65.3833 601.518 65.5747 600.65 65.5747C599.803 65.5747 599.137 65.3032 598.652 64.7603C598.168 64.2134 597.926 63.4458 597.926 62.4575C597.926 61.5239 598.189 60.7642 598.717 60.1782C599.248 59.5884 599.906 59.2935 600.691 59.2935C601.477 59.2935 602.084 59.5474 602.514 60.0552C602.943 60.563 603.158 61.2681 603.158 62.1704V62.6743ZM602.174 61.8599C602.17 61.3052 602.035 60.8735 601.77 60.5649C601.508 60.2563 601.143 60.1021 600.674 60.1021C600.221 60.1021 599.836 60.2642 599.52 60.5884C599.203 60.9126 599.008 61.3364 598.934 61.8599H602.174ZM607.746 60.4067C607.578 60.2778 607.336 60.2134 607.02 60.2134C606.609 60.2134 606.266 60.4067 605.988 60.7935C605.715 61.1802 605.578 61.7075 605.578 62.3755V65.4341H604.617V59.4341H605.578V60.6704H605.602C605.738 60.2485 605.947 59.9204 606.229 59.686C606.51 59.4478 606.824 59.3286 607.172 59.3286C607.422 59.3286 607.613 59.356 607.746 59.4106V60.4067Z" fill="#BFBFBF"/>
<rect x="127.5" y="120.934" width="163" height="29" rx="4.5" fill="white" stroke="#6BA7FA"/>
<path d="M161.086 137.258V140.434H160.102V132.032H162.41C163.309 132.032 164.004 132.25 164.496 132.688C164.992 133.125 165.24 133.743 165.24 134.54C165.24 135.336 164.965 135.989 164.414 136.497C163.867 137.004 163.127 137.258 162.193 137.258H161.086ZM161.086 132.922V136.368H162.117C162.797 136.368 163.314 136.213 163.67 135.905C164.029 135.592 164.209 135.153 164.209 134.586C164.209 133.477 163.553 132.922 162.24 132.922H161.086ZM167.66 140.434H166.699V131.551H167.66V140.434ZM173.9 140.434H172.939V139.497H172.916C172.498 140.215 171.883 140.575 171.07 140.575C170.473 140.575 170.004 140.417 169.664 140.1C169.328 139.784 169.16 139.364 169.16 138.84C169.16 137.719 169.82 137.067 171.141 136.883L172.939 136.631C172.939 135.612 172.527 135.102 171.703 135.102C170.98 135.102 170.328 135.348 169.746 135.84V134.856C170.336 134.481 171.016 134.293 171.785 134.293C173.195 134.293 173.9 135.04 173.9 136.532V140.434ZM172.939 137.399L171.492 137.598C171.047 137.661 170.711 137.772 170.484 137.932C170.258 138.088 170.145 138.368 170.145 138.77C170.145 139.063 170.248 139.303 170.455 139.491C170.666 139.674 170.945 139.766 171.293 139.766C171.77 139.766 172.162 139.6 172.471 139.268C172.783 138.932 172.939 138.508 172.939 137.997V137.399ZM179.801 140.159C179.34 140.436 178.793 140.575 178.16 140.575C177.305 140.575 176.613 140.297 176.086 139.743C175.562 139.184 175.301 138.461 175.301 137.575C175.301 136.586 175.584 135.793 176.15 135.196C176.717 134.594 177.473 134.293 178.418 134.293C178.945 134.293 179.41 134.391 179.812 134.586V135.571C179.367 135.258 178.891 135.102 178.383 135.102C177.77 135.102 177.266 135.323 176.871 135.764C176.48 136.202 176.285 136.778 176.285 137.493C176.285 138.196 176.469 138.75 176.836 139.157C177.207 139.563 177.703 139.766 178.324 139.766C178.848 139.766 179.34 139.592 179.801 139.245V140.159ZM186.076 137.674H181.84C181.855 138.342 182.035 138.858 182.379 139.221C182.723 139.584 183.195 139.766 183.797 139.766C184.473 139.766 185.094 139.543 185.66 139.098V140C185.133 140.383 184.436 140.575 183.568 140.575C182.721 140.575 182.055 140.303 181.57 139.76C181.086 139.213 180.844 138.446 180.844 137.458C180.844 136.524 181.107 135.764 181.635 135.178C182.166 134.588 182.824 134.293 183.609 134.293C184.395 134.293 185.002 134.547 185.432 135.055C185.861 135.563 186.076 136.268 186.076 137.17V137.674ZM185.092 136.86C185.088 136.305 184.953 135.874 184.688 135.565C184.426 135.256 184.061 135.102 183.592 135.102C183.139 135.102 182.754 135.264 182.438 135.588C182.121 135.913 181.926 136.336 181.852 136.86H185.092ZM192.516 140.434H191.555V136.977C191.555 135.727 191.09 135.102 190.16 135.102C189.691 135.102 189.297 135.284 188.977 135.647C188.656 136.006 188.496 136.469 188.496 137.036V140.434H187.535V131.551H188.496V135.43H188.52C188.98 134.672 189.637 134.293 190.488 134.293C191.84 134.293 192.516 135.108 192.516 136.737V140.434ZM196.84 140.575C195.953 140.575 195.244 140.295 194.713 139.737C194.186 139.174 193.922 138.43 193.922 137.504C193.922 136.497 194.197 135.709 194.748 135.143C195.299 134.577 196.043 134.293 196.98 134.293C197.875 134.293 198.572 134.569 199.072 135.12C199.576 135.67 199.828 136.434 199.828 137.411C199.828 138.368 199.557 139.135 199.014 139.713C198.475 140.288 197.75 140.575 196.84 140.575ZM196.91 135.102C196.293 135.102 195.805 135.313 195.445 135.735C195.086 136.153 194.906 136.731 194.906 137.469C194.906 138.18 195.088 138.741 195.451 139.151C195.814 139.561 196.301 139.766 196.91 139.766C197.531 139.766 198.008 139.565 198.34 139.163C198.676 138.76 198.844 138.188 198.844 137.446C198.844 136.696 198.676 136.118 198.34 135.711C198.008 135.305 197.531 135.102 196.91 135.102ZM202.324 140.434H201.363V131.551H202.324V140.434ZM209.391 140.434H208.43V139.415H208.406C207.961 140.188 207.273 140.575 206.344 140.575C205.59 140.575 204.986 140.307 204.533 139.772C204.084 139.233 203.859 138.5 203.859 137.575C203.859 136.583 204.109 135.788 204.609 135.19C205.109 134.592 205.775 134.293 206.607 134.293C207.432 134.293 208.031 134.618 208.406 135.266H208.43V131.551H209.391V140.434ZM208.43 137.721V136.836C208.43 136.352 208.27 135.942 207.949 135.606C207.629 135.27 207.223 135.102 206.73 135.102C206.145 135.102 205.684 135.317 205.348 135.747C205.012 136.176 204.844 136.77 204.844 137.528C204.844 138.219 205.004 138.766 205.324 139.168C205.648 139.567 206.082 139.766 206.625 139.766C207.16 139.766 207.594 139.573 207.926 139.186C208.262 138.799 208.43 138.311 208.43 137.721ZM216.158 137.674H211.922C211.938 138.342 212.117 138.858 212.461 139.221C212.805 139.584 213.277 139.766 213.879 139.766C214.555 139.766 215.176 139.543 215.742 139.098V140C215.215 140.383 214.518 140.575 213.65 140.575C212.803 140.575 212.137 140.303 211.652 139.76C211.168 139.213 210.926 138.446 210.926 137.458C210.926 136.524 211.189 135.764 211.717 135.178C212.248 134.588 212.906 134.293 213.691 134.293C214.477 134.293 215.084 134.547 215.514 135.055C215.943 135.563 216.158 136.268 216.158 137.17V137.674ZM215.174 136.86C215.17 136.305 215.035 135.874 214.77 135.565C214.508 135.256 214.143 135.102 213.674 135.102C213.221 135.102 212.836 135.264 212.52 135.588C212.203 135.913 212.008 136.336 211.934 136.86H215.174ZM220.746 135.407C220.578 135.278 220.336 135.213 220.02 135.213C219.609 135.213 219.266 135.407 218.988 135.793C218.715 136.18 218.578 136.708 218.578 137.375V140.434H217.617V134.434H218.578V135.67H218.602C218.738 135.249 218.947 134.92 219.229 134.686C219.51 134.448 219.824 134.329 220.172 134.329C220.422 134.329 220.613 134.356 220.746 134.411V135.407Z" fill="#BFBFBF"/>
<path d="M143.473 139.701C146.308 139.701 148.607 137.403 148.607 134.568C148.607 131.732 146.308 129.434 143.473 129.434C140.638 129.434 138.34 131.732 138.34 134.568C138.34 137.403 140.638 139.701 143.473 139.701Z" stroke="#4B4A4B" stroke-width="1.5" stroke-linecap="round" stroke-linejoin="round"/>
<path d="M150.66 141.754L147.922 139.017" stroke="#4B4A4B" stroke-width="1.5" stroke-linecap="round" stroke-linejoin="round"/>
<g filter="url(#filter0_d_672_748)">
<rect x="331.5" y="195.934" width="163" height="29" rx="4.5" fill="white" stroke="#6BA7FA"/>
<path d="M346.07 207.922H343.645V215.434H342.66V207.922H340.24V207.032H346.07V207.922ZM351.373 209.434L348.613 216.395C348.121 217.637 347.43 218.258 346.539 218.258C346.289 218.258 346.08 218.233 345.912 218.182V217.321C346.119 217.391 346.309 217.426 346.48 217.426C346.965 217.426 347.328 217.137 347.57 216.559L348.051 215.422L345.707 209.434H346.773L348.396 214.051C348.416 214.11 348.457 214.262 348.52 214.508H348.555C348.574 214.415 348.613 214.266 348.672 214.063L350.377 209.434H351.373ZM353.395 214.567H353.371V218.194H352.41V209.434H353.371V210.489H353.395C353.867 209.692 354.559 209.293 355.469 209.293C356.242 209.293 356.846 209.563 357.279 210.102C357.713 210.637 357.93 211.356 357.93 212.258C357.93 213.262 357.686 214.067 357.197 214.672C356.709 215.274 356.041 215.575 355.193 215.575C354.416 215.575 353.816 215.239 353.395 214.567ZM353.371 212.147V212.985C353.371 213.481 353.531 213.903 353.852 214.25C354.176 214.594 354.586 214.766 355.082 214.766C355.664 214.766 356.119 214.543 356.447 214.098C356.779 213.653 356.945 213.034 356.945 212.241C356.945 211.573 356.791 211.049 356.482 210.67C356.174 210.292 355.756 210.102 355.229 210.102C354.67 210.102 354.221 210.297 353.881 210.688C353.541 211.075 353.371 211.561 353.371 212.147ZM359.957 207.911C359.785 207.911 359.639 207.852 359.518 207.735C359.396 207.618 359.336 207.469 359.336 207.29C359.336 207.11 359.396 206.961 359.518 206.844C359.639 206.723 359.785 206.663 359.957 206.663C360.133 206.663 360.281 206.723 360.402 206.844C360.527 206.961 360.59 207.11 360.59 207.29C360.59 207.461 360.527 207.608 360.402 207.729C360.281 207.85 360.133 207.911 359.957 207.911ZM360.426 215.434H359.465V209.434H360.426V215.434ZM367.352 215.434H366.391V212.012C366.391 210.739 365.926 210.102 364.996 210.102C364.516 210.102 364.117 210.284 363.801 210.647C363.488 211.006 363.332 211.461 363.332 212.012V215.434H362.371V209.434H363.332V210.43H363.355C363.809 209.672 364.465 209.293 365.324 209.293C365.98 209.293 366.482 209.506 366.83 209.932C367.178 210.354 367.352 210.965 367.352 211.766V215.434ZM374.289 214.954C374.289 217.157 373.234 218.258 371.125 218.258C370.383 218.258 369.734 218.118 369.18 217.836V216.875C369.855 217.25 370.5 217.438 371.113 217.438C372.59 217.438 373.328 216.653 373.328 215.083V214.426H373.305C372.848 215.192 372.16 215.575 371.242 215.575C370.496 215.575 369.895 215.309 369.438 214.778C368.984 214.243 368.758 213.526 368.758 212.627C368.758 211.608 369.002 210.797 369.49 210.196C369.982 209.594 370.654 209.293 371.506 209.293C372.314 209.293 372.914 209.618 373.305 210.266H373.328V209.434H374.289V214.954ZM373.328 212.721V211.836C373.328 211.36 373.166 210.952 372.842 210.612C372.521 210.272 372.121 210.102 371.641 210.102C371.047 210.102 370.582 210.319 370.246 210.752C369.91 211.182 369.742 211.786 369.742 212.563C369.742 213.231 369.902 213.766 370.223 214.168C370.547 214.567 370.975 214.766 371.506 214.766C372.045 214.766 372.482 214.575 372.818 214.192C373.158 213.809 373.328 213.319 373.328 212.721ZM376.568 215.563C376.389 215.563 376.234 215.499 376.105 215.37C375.98 215.241 375.918 215.086 375.918 214.907C375.918 214.727 375.98 214.573 376.105 214.444C376.234 214.311 376.389 214.245 376.568 214.245C376.752 214.245 376.908 214.311 377.037 214.444C377.166 214.573 377.23 214.727 377.23 214.907C377.23 215.086 377.166 215.241 377.037 215.37C376.908 215.499 376.752 215.563 376.568 215.563ZM379.17 215.563C378.99 215.563 378.836 215.499 378.707 215.37C378.582 215.241 378.52 215.086 378.52 214.907C378.52 214.727 378.582 214.573 378.707 214.444C378.836 214.311 378.99 214.245 379.17 214.245C379.354 214.245 379.51 214.311 379.639 214.444C379.768 214.573 379.832 214.727 379.832 214.907C379.832 215.086 379.768 215.241 379.639 215.37C379.51 215.499 379.354 215.563 379.17 215.563ZM381.771 215.563C381.592 215.563 381.438 215.499 381.309 215.37C381.184 215.241 381.121 215.086 381.121 214.907C381.121 214.727 381.184 214.573 381.309 214.444C381.438 214.311 381.592 214.245 381.771 214.245C381.955 214.245 382.111 214.311 382.24 214.444C382.369 214.573 382.434 214.727 382.434 214.907C382.434 215.086 382.369 215.241 382.24 215.37C382.111 215.499 381.955 215.563 381.771 215.563Z" fill="black"/>
<path d="M340 202.434L340 219.434" stroke="black" stroke-width="0.5"/>
</g>
<rect x="331.5" y="120.934" width="163" height="29" rx="4.5" fill="white" stroke="#6BA7FA"/>
<path d="M344.086 137.258V140.434H343.102V132.032H345.41C346.309 132.032 347.004 132.25 347.496 132.688C347.992 133.125 348.24 133.743 348.24 134.54C348.24 135.336 347.965 135.989 347.414 136.497C346.867 137.004 346.127 137.258 345.193 137.258H344.086ZM344.086 132.922V136.368H345.117C345.797 136.368 346.314 136.213 346.67 135.905C347.029 135.592 347.209 135.153 347.209 134.586C347.209 133.477 346.553 132.922 345.24 132.922H344.086ZM350.66 140.434H349.699V131.551H350.66V140.434ZM356.9 140.434H355.939V139.497H355.916C355.498 140.215 354.883 140.575 354.07 140.575C353.473 140.575 353.004 140.417 352.664 140.1C352.328 139.784 352.16 139.364 352.16 138.84C352.16 137.719 352.82 137.067 354.141 136.883L355.939 136.631C355.939 135.612 355.527 135.102 354.703 135.102C353.98 135.102 353.328 135.348 352.746 135.84V134.856C353.336 134.481 354.016 134.293 354.785 134.293C356.195 134.293 356.9 135.04 356.9 136.532V140.434ZM355.939 137.399L354.492 137.598C354.047 137.661 353.711 137.772 353.484 137.932C353.258 138.088 353.145 138.368 353.145 138.77C353.145 139.063 353.248 139.303 353.455 139.491C353.666 139.674 353.945 139.766 354.293 139.766C354.77 139.766 355.162 139.6 355.471 139.268C355.783 138.932 355.939 138.508 355.939 137.997V137.399ZM362.801 140.159C362.34 140.436 361.793 140.575 361.16 140.575C360.305 140.575 359.613 140.297 359.086 139.743C358.562 139.184 358.301 138.461 358.301 137.575C358.301 136.586 358.584 135.793 359.15 135.196C359.717 134.594 360.473 134.293 361.418 134.293C361.945 134.293 362.41 134.391 362.812 134.586V135.571C362.367 135.258 361.891 135.102 361.383 135.102C360.77 135.102 360.266 135.323 359.871 135.764C359.48 136.202 359.285 136.778 359.285 137.493C359.285 138.196 359.469 138.75 359.836 139.157C360.207 139.563 360.703 139.766 361.324 139.766C361.848 139.766 362.34 139.592 362.801 139.245V140.159ZM369.076 137.674H364.84C364.855 138.342 365.035 138.858 365.379 139.221C365.723 139.584 366.195 139.766 366.797 139.766C367.473 139.766 368.094 139.543 368.66 139.098V140C368.133 140.383 367.436 140.575 366.568 140.575C365.721 140.575 365.055 140.303 364.57 139.76C364.086 139.213 363.844 138.446 363.844 137.458C363.844 136.524 364.107 135.764 364.635 135.178C365.166 134.588 365.824 134.293 366.609 134.293C367.395 134.293 368.002 134.547 368.432 135.055C368.861 135.563 369.076 136.268 369.076 137.17V137.674ZM368.092 136.86C368.088 136.305 367.953 135.874 367.688 135.565C367.426 135.256 367.061 135.102 366.592 135.102C366.139 135.102 365.754 135.264 365.438 135.588C365.121 135.913 364.926 136.336 364.852 136.86H368.092ZM375.516 140.434H374.555V136.977C374.555 135.727 374.09 135.102 373.16 135.102C372.691 135.102 372.297 135.284 371.977 135.647C371.656 136.006 371.496 136.469 371.496 137.036V140.434H370.535V131.551H371.496V135.43H371.52C371.98 134.672 372.637 134.293 373.488 134.293C374.84 134.293 375.516 135.108 375.516 136.737V140.434ZM379.84 140.575C378.953 140.575 378.244 140.295 377.713 139.737C377.186 139.174 376.922 138.43 376.922 137.504C376.922 136.497 377.197 135.709 377.748 135.143C378.299 134.577 379.043 134.293 379.98 134.293C380.875 134.293 381.572 134.569 382.072 135.12C382.576 135.67 382.828 136.434 382.828 137.411C382.828 138.368 382.557 139.135 382.014 139.713C381.475 140.288 380.75 140.575 379.84 140.575ZM379.91 135.102C379.293 135.102 378.805 135.313 378.445 135.735C378.086 136.153 377.906 136.731 377.906 137.469C377.906 138.18 378.088 138.741 378.451 139.151C378.814 139.561 379.301 139.766 379.91 139.766C380.531 139.766 381.008 139.565 381.34 139.163C381.676 138.76 381.844 138.188 381.844 137.446C381.844 136.696 381.676 136.118 381.34 135.711C381.008 135.305 380.531 135.102 379.91 135.102ZM385.324 140.434H384.363V131.551H385.324V140.434ZM392.391 140.434H391.43V139.415H391.406C390.961 140.188 390.273 140.575 389.344 140.575C388.59 140.575 387.986 140.307 387.533 139.772C387.084 139.233 386.859 138.5 386.859 137.575C386.859 136.583 387.109 135.788 387.609 135.19C388.109 134.592 388.775 134.293 389.607 134.293C390.432 134.293 391.031 134.618 391.406 135.266H391.43V131.551H392.391V140.434ZM391.43 137.721V136.836C391.43 136.352 391.27 135.942 390.949 135.606C390.629 135.27 390.223 135.102 389.73 135.102C389.145 135.102 388.684 135.317 388.348 135.747C388.012 136.176 387.844 136.77 387.844 137.528C387.844 138.219 388.004 138.766 388.324 139.168C388.648 139.567 389.082 139.766 389.625 139.766C390.16 139.766 390.594 139.573 390.926 139.186C391.262 138.799 391.43 138.311 391.43 137.721ZM399.158 137.674H394.922C394.938 138.342 395.117 138.858 395.461 139.221C395.805 139.584 396.277 139.766 396.879 139.766C397.555 139.766 398.176 139.543 398.742 139.098V140C398.215 140.383 397.518 140.575 396.65 140.575C395.803 140.575 395.137 140.303 394.652 139.76C394.168 139.213 393.926 138.446 393.926 137.458C393.926 136.524 394.189 135.764 394.717 135.178C395.248 134.588 395.906 134.293 396.691 134.293C397.477 134.293 398.084 134.547 398.514 135.055C398.943 135.563 399.158 136.268 399.158 137.17V137.674ZM398.174 136.86C398.17 136.305 398.035 135.874 397.77 135.565C397.508 135.256 397.143 135.102 396.674 135.102C396.221 135.102 395.836 135.264 395.52 135.588C395.203 135.913 395.008 136.336 394.934 136.86H398.174ZM403.746 135.407C403.578 135.278 403.336 135.213 403.02 135.213C402.609 135.213 402.266 135.407 401.988 135.793C401.715 136.18 401.578 136.708 401.578 137.375V140.434H400.617V134.434H401.578V135.67H401.602C401.738 135.249 401.947 134.92 402.229 134.686C402.51 134.448 402.824 134.329 403.172 134.329C403.422 134.329 403.613 134.356 403.746 134.411V135.407Z" fill="#BFBFBF"/>
<g filter="url(#filter1_d_672_748)">
<rect x="127.5" y="195.934" width="163" height="29" rx="4.5" fill="white" stroke="#6BA7FA"/>
<path d="M165.07 207.922H162.645V215.434H161.66V207.922H159.24V207.032H165.07V207.922ZM170.373 209.434L167.613 216.395C167.121 217.637 166.43 218.258 165.539 218.258C165.289 218.258 165.08 218.233 164.912 218.182V217.321C165.119 217.391 165.309 217.426 165.48 217.426C165.965 217.426 166.328 217.137 166.57 216.559L167.051 215.422L164.707 209.434H165.773L167.396 214.051C167.416 214.11 167.457 214.262 167.52 214.508H167.555C167.574 214.415 167.613 214.266 167.672 214.063L169.377 209.434H170.373ZM172.395 214.567H172.371V218.194H171.41V209.434H172.371V210.489H172.395C172.867 209.692 173.559 209.293 174.469 209.293C175.242 209.293 175.846 209.563 176.279 210.102C176.713 210.637 176.93 211.356 176.93 212.258C176.93 213.262 176.686 214.067 176.197 214.672C175.709 215.274 175.041 215.575 174.193 215.575C173.416 215.575 172.816 215.239 172.395 214.567ZM172.371 212.147V212.985C172.371 213.481 172.531 213.903 172.852 214.25C173.176 214.594 173.586 214.766 174.082 214.766C174.664 214.766 175.119 214.543 175.447 214.098C175.779 213.653 175.945 213.034 175.945 212.241C175.945 211.573 175.791 211.049 175.482 210.67C175.174 210.292 174.756 210.102 174.229 210.102C173.67 210.102 173.221 210.297 172.881 210.688C172.541 211.075 172.371 211.561 172.371 212.147ZM178.957 207.911C178.785 207.911 178.639 207.852 178.518 207.735C178.396 207.618 178.336 207.469 178.336 207.29C178.336 207.11 178.396 206.961 178.518 206.844C178.639 206.723 178.785 206.663 178.957 206.663C179.133 206.663 179.281 206.723 179.402 206.844C179.527 206.961 179.59 207.11 179.59 207.29C179.59 207.461 179.527 207.608 179.402 207.729C179.281 207.85 179.133 207.911 178.957 207.911ZM179.426 215.434H178.465V209.434H179.426V215.434ZM186.352 215.434H185.391V212.012C185.391 210.739 184.926 210.102 183.996 210.102C183.516 210.102 183.117 210.284 182.801 210.647C182.488 211.006 182.332 211.461 182.332 212.012V215.434H181.371V209.434H182.332V210.43H182.355C182.809 209.672 183.465 209.293 184.324 209.293C184.98 209.293 185.482 209.506 185.83 209.932C186.178 210.354 186.352 210.965 186.352 211.766V215.434ZM193.289 214.954C193.289 217.157 192.234 218.258 190.125 218.258C189.383 218.258 188.734 218.118 188.18 217.836V216.875C188.855 217.25 189.5 217.438 190.113 217.438C191.59 217.438 192.328 216.653 192.328 215.083V214.426H192.305C191.848 215.192 191.16 215.575 190.242 215.575C189.496 215.575 188.895 215.309 188.438 214.778C187.984 214.243 187.758 213.526 187.758 212.627C187.758 211.608 188.002 210.797 188.49 210.196C188.982 209.594 189.654 209.293 190.506 209.293C191.314 209.293 191.914 209.618 192.305 210.266H192.328V209.434H193.289V214.954ZM192.328 212.721V211.836C192.328 211.36 192.166 210.952 191.842 210.612C191.521 210.272 191.121 210.102 190.641 210.102C190.047 210.102 189.582 210.319 189.246 210.752C188.91 211.182 188.742 211.786 188.742 212.563C188.742 213.231 188.902 213.766 189.223 214.168C189.547 214.567 189.975 214.766 190.506 214.766C191.045 214.766 191.482 214.575 191.818 214.192C192.158 213.809 192.328 213.319 192.328 212.721ZM195.568 215.563C195.389 215.563 195.234 215.499 195.105 215.37C194.98 215.241 194.918 215.086 194.918 214.907C194.918 214.727 194.98 214.573 195.105 214.444C195.234 214.311 195.389 214.245 195.568 214.245C195.752 214.245 195.908 214.311 196.037 214.444C196.166 214.573 196.23 214.727 196.23 214.907C196.23 215.086 196.166 215.241 196.037 215.37C195.908 215.499 195.752 215.563 195.568 215.563ZM198.17 215.563C197.99 215.563 197.836 215.499 197.707 215.37C197.582 215.241 197.52 215.086 197.52 214.907C197.52 214.727 197.582 214.573 197.707 214.444C197.836 214.311 197.99 214.245 198.17 214.245C198.354 214.245 198.51 214.311 198.639 214.444C198.768 214.573 198.832 214.727 198.832 214.907C198.832 215.086 198.768 215.241 198.639 215.37C198.51 215.499 198.354 215.563 198.17 215.563ZM200.771 215.563C200.592 215.563 200.438 215.499 200.309 215.37C200.184 215.241 200.121 215.086 200.121 214.907C200.121 214.727 200.184 214.573 200.309 214.444C200.438 214.311 200.592 214.245 200.771 214.245C200.955 214.245 201.111 214.311 201.24 214.444C201.369 214.573 201.434 214.727 201.434 214.907C201.434 215.086 201.369 215.241 201.24 215.37C201.111 215.499 200.955 215.563 200.771 215.563Z" fill="black"/>
<path d="M159 202.434L159 219.434" stroke="black" stroke-width="0.5"/>
<path d="M143.473 214.701C146.308 214.701 148.607 212.403 148.607 209.568C148.607 206.732 146.308 204.434 143.473 204.434C140.638 204.434 138.34 206.732 138.34 209.568C138.34 212.403 140.638 214.701 143.473 214.701Z" stroke="#4B4A4B" stroke-width="1.5" stroke-linecap="round" stroke-linejoin="round"/>
<path d="M150.66 216.754L147.922 214.017" stroke="#4B4A4B" stroke-width="1.5" stroke-linecap="round" stroke-linejoin="round"/>
</g>
<rect x="331.5" y="270.934" width="163" height="29" rx="4.5" fill="white" stroke="#D9D9D9"/>
<path d="M342.086 290.434H341.102V282.032H342.086V290.434ZM349.152 290.434H348.191V287.012C348.191 285.739 347.727 285.102 346.797 285.102C346.316 285.102 345.918 285.284 345.602 285.647C345.289 286.006 345.133 286.461 345.133 287.012V290.434H344.172V284.434H345.133V285.43H345.156C345.609 284.672 346.266 284.293 347.125 284.293C347.781 284.293 348.283 284.506 348.631 284.932C348.979 285.354 349.152 285.965 349.152 286.766V290.434ZM351.953 289.567H351.93V293.194H350.969V284.434H351.93V285.489H351.953C352.426 284.692 353.117 284.293 354.027 284.293C354.801 284.293 355.404 284.563 355.838 285.102C356.271 285.637 356.488 286.356 356.488 287.258C356.488 288.262 356.244 289.067 355.756 289.672C355.268 290.274 354.6 290.575 353.752 290.575C352.975 290.575 352.375 290.239 351.953 289.567ZM351.93 287.147V287.985C351.93 288.481 352.09 288.903 352.41 289.25C352.734 289.594 353.145 289.766 353.641 289.766C354.223 289.766 354.678 289.543 355.006 289.098C355.338 288.653 355.504 288.034 355.504 287.241C355.504 286.573 355.35 286.049 355.041 285.67C354.732 285.292 354.314 285.102 353.787 285.102C353.229 285.102 352.779 285.297 352.439 285.688C352.1 286.075 351.93 286.561 351.93 287.147ZM362.875 290.434H361.914V289.485H361.891C361.492 290.211 360.875 290.575 360.039 290.575C358.609 290.575 357.895 289.723 357.895 288.02V284.434H358.85V287.868C358.85 289.133 359.334 289.766 360.303 289.766C360.771 289.766 361.156 289.594 361.457 289.25C361.762 288.903 361.914 288.45 361.914 287.891V284.434H362.875V290.434ZM367.604 290.375C367.377 290.5 367.078 290.563 366.707 290.563C365.656 290.563 365.131 289.977 365.131 288.805V285.254H364.1V284.434H365.131V282.969L366.092 282.659V284.434H367.604V285.254H366.092V288.635C366.092 289.038 366.16 289.325 366.297 289.497C366.434 289.668 366.66 289.754 366.977 289.754C367.219 289.754 367.428 289.688 367.604 289.555V290.375ZM374.963 290.375C374.736 290.5 374.438 290.563 374.066 290.563C373.016 290.563 372.49 289.977 372.49 288.805V285.254H371.459V284.434H372.49V282.969L373.451 282.659V284.434H374.963V285.254H373.451V288.635C373.451 289.038 373.52 289.325 373.656 289.497C373.793 289.668 374.02 289.754 374.336 289.754C374.578 289.754 374.787 289.688 374.963 289.555V290.375ZM381.068 287.674H376.832C376.848 288.342 377.027 288.858 377.371 289.221C377.715 289.584 378.188 289.766 378.789 289.766C379.465 289.766 380.086 289.543 380.652 289.098V290C380.125 290.383 379.428 290.575 378.561 290.575C377.713 290.575 377.047 290.303 376.562 289.76C376.078 289.213 375.836 288.446 375.836 287.458C375.836 286.524 376.1 285.764 376.627 285.178C377.158 284.588 377.816 284.293 378.602 284.293C379.387 284.293 379.994 284.547 380.424 285.055C380.854 285.563 381.068 286.268 381.068 287.17V287.674ZM380.084 286.86C380.08 286.305 379.945 285.874 379.68 285.565C379.418 285.256 379.053 285.102 378.584 285.102C378.131 285.102 377.746 285.264 377.43 285.588C377.113 285.913 376.918 286.336 376.844 286.86H380.084ZM386.91 284.434L384.895 287.469L386.875 290.434H385.756L384.578 288.489C384.504 288.368 384.416 288.215 384.314 288.032H384.291C384.271 288.067 384.18 288.219 384.016 288.489L382.814 290.434H381.707L383.752 287.493L381.795 284.434H382.914L384.074 286.485C384.16 286.637 384.244 286.793 384.326 286.954H384.35L385.85 284.434H386.91ZM390.818 290.375C390.592 290.5 390.293 290.563 389.922 290.563C388.871 290.563 388.346 289.977 388.346 288.805V285.254H387.314V284.434H388.346V282.969L389.307 282.659V284.434H390.818V285.254H389.307V288.635C389.307 289.038 389.375 289.325 389.512 289.497C389.648 289.668 389.875 289.754 390.191 289.754C390.434 289.754 390.643 289.688 390.818 289.555V290.375Z" fill="black"/>
<g filter="url(#filter2_d_672_748)">
<rect x="535.5" y="195.934" width="163" height="29" rx="4.5" fill="white" stroke="#6BA7FA"/>
<path d="M550.07 207.922H547.645V215.434H546.66V207.922H544.24V207.032H550.07V207.922ZM555.373 209.434L552.613 216.395C552.121 217.637 551.43 218.258 550.539 218.258C550.289 218.258 550.08 218.233 549.912 218.182V217.321C550.119 217.391 550.309 217.426 550.48 217.426C550.965 217.426 551.328 217.137 551.57 216.559L552.051 215.422L549.707 209.434H550.773L552.396 214.051C552.416 214.11 552.457 214.262 552.52 214.508H552.555C552.574 214.415 552.613 214.266 552.672 214.063L554.377 209.434H555.373ZM557.395 214.567H557.371V218.194H556.41V209.434H557.371V210.489H557.395C557.867 209.692 558.559 209.293 559.469 209.293C560.242 209.293 560.846 209.563 561.279 210.102C561.713 210.637 561.93 211.356 561.93 212.258C561.93 213.262 561.686 214.067 561.197 214.672C560.709 215.274 560.041 215.575 559.193 215.575C558.416 215.575 557.816 215.239 557.395 214.567ZM557.371 212.147V212.985C557.371 213.481 557.531 213.903 557.852 214.25C558.176 214.594 558.586 214.766 559.082 214.766C559.664 214.766 560.119 214.543 560.447 214.098C560.779 213.653 560.945 213.034 560.945 212.241C560.945 211.573 560.791 211.049 560.482 210.67C560.174 210.292 559.756 210.102 559.229 210.102C558.67 210.102 558.221 210.297 557.881 210.688C557.541 211.075 557.371 211.561 557.371 212.147ZM563.957 207.911C563.785 207.911 563.639 207.852 563.518 207.735C563.396 207.618 563.336 207.469 563.336 207.29C563.336 207.11 563.396 206.961 563.518 206.844C563.639 206.723 563.785 206.663 563.957 206.663C564.133 206.663 564.281 206.723 564.402 206.844C564.527 206.961 564.59 207.11 564.59 207.29C564.59 207.461 564.527 207.608 564.402 207.729C564.281 207.85 564.133 207.911 563.957 207.911ZM564.426 215.434H563.465V209.434H564.426V215.434ZM571.352 215.434H570.391V212.012C570.391 210.739 569.926 210.102 568.996 210.102C568.516 210.102 568.117 210.284 567.801 210.647C567.488 211.006 567.332 211.461 567.332 212.012V215.434H566.371V209.434H567.332V210.43H567.355C567.809 209.672 568.465 209.293 569.324 209.293C569.98 209.293 570.482 209.506 570.83 209.932C571.178 210.354 571.352 210.965 571.352 211.766V215.434ZM578.289 214.954C578.289 217.157 577.234 218.258 575.125 218.258C574.383 218.258 573.734 218.118 573.18 217.836V216.875C573.855 217.25 574.5 217.438 575.113 217.438C576.59 217.438 577.328 216.653 577.328 215.083V214.426H577.305C576.848 215.192 576.16 215.575 575.242 215.575C574.496 215.575 573.895 215.309 573.438 214.778C572.984 214.243 572.758 213.526 572.758 212.627C572.758 211.608 573.002 210.797 573.49 210.196C573.982 209.594 574.654 209.293 575.506 209.293C576.314 209.293 576.914 209.618 577.305 210.266H577.328V209.434H578.289V214.954ZM577.328 212.721V211.836C577.328 211.36 577.166 210.952 576.842 210.612C576.521 210.272 576.121 210.102 575.641 210.102C575.047 210.102 574.582 210.319 574.246 210.752C573.91 211.182 573.742 211.786 573.742 212.563C573.742 213.231 573.902 213.766 574.223 214.168C574.547 214.567 574.975 214.766 575.506 214.766C576.045 214.766 576.482 214.575 576.818 214.192C577.158 213.809 577.328 213.319 577.328 212.721ZM580.568 215.563C580.389 215.563 580.234 215.499 580.105 215.37C579.98 215.241 579.918 215.086 579.918 214.907C579.918 214.727 579.98 214.573 580.105 214.444C580.234 214.311 580.389 214.245 580.568 214.245C580.752 214.245 580.908 214.311 581.037 214.444C581.166 214.573 581.23 214.727 581.23 214.907C581.23 215.086 581.166 215.241 581.037 215.37C580.908 215.499 580.752 215.563 580.568 215.563ZM583.17 215.563C582.99 215.563 582.836 215.499 582.707 215.37C582.582 215.241 582.52 215.086 582.52 214.907C582.52 214.727 582.582 214.573 582.707 214.444C582.836 214.311 582.99 214.245 583.17 214.245C583.354 214.245 583.51 214.311 583.639 214.444C583.768 214.573 583.832 214.727 583.832 214.907C583.832 215.086 583.768 215.241 583.639 215.37C583.51 215.499 583.354 215.563 583.17 215.563ZM585.771 215.563C585.592 215.563 585.438 215.499 585.309 215.37C585.184 215.241 585.121 215.086 585.121 214.907C585.121 214.727 585.184 214.573 585.309 214.444C585.438 214.311 585.592 214.245 585.771 214.245C585.955 214.245 586.111 214.311 586.24 214.444C586.369 214.573 586.434 214.727 586.434 214.907C586.434 215.086 586.369 215.241 586.24 215.37C586.111 215.499 585.955 215.563 585.771 215.563Z" fill="black"/>
<path d="M544 202.434L544 219.434" stroke="black" stroke-width="0.5"/>
</g>
<rect x="535.5" y="120.934" width="163" height="29" rx="4.5" fill="white" stroke="#6BA7FA"/>
<path d="M548.086 137.258V140.434H547.102V132.032H549.41C550.309 132.032 551.004 132.25 551.496 132.688C551.992 133.125 552.24 133.743 552.24 134.54C552.24 135.336 551.965 135.989 551.414 136.497C550.867 137.004 550.127 137.258 549.193 137.258H548.086ZM548.086 132.922V136.368H549.117C549.797 136.368 550.314 136.213 550.67 135.905C551.029 135.592 551.209 135.153 551.209 134.586C551.209 133.477 550.553 132.922 549.24 132.922H548.086ZM554.66 140.434H553.699V131.551H554.66V140.434ZM560.9 140.434H559.939V139.497H559.916C559.498 140.215 558.883 140.575 558.07 140.575C557.473 140.575 557.004 140.417 556.664 140.1C556.328 139.784 556.16 139.364 556.16 138.84C556.16 137.719 556.82 137.067 558.141 136.883L559.939 136.631C559.939 135.612 559.527 135.102 558.703 135.102C557.98 135.102 557.328 135.348 556.746 135.84V134.856C557.336 134.481 558.016 134.293 558.785 134.293C560.195 134.293 560.9 135.04 560.9 136.532V140.434ZM559.939 137.399L558.492 137.598C558.047 137.661 557.711 137.772 557.484 137.932C557.258 138.088 557.145 138.368 557.145 138.77C557.145 139.063 557.248 139.303 557.455 139.491C557.666 139.674 557.945 139.766 558.293 139.766C558.77 139.766 559.162 139.6 559.471 139.268C559.783 138.932 559.939 138.508 559.939 137.997V137.399ZM566.801 140.159C566.34 140.436 565.793 140.575 565.16 140.575C564.305 140.575 563.613 140.297 563.086 139.743C562.562 139.184 562.301 138.461 562.301 137.575C562.301 136.586 562.584 135.793 563.15 135.196C563.717 134.594 564.473 134.293 565.418 134.293C565.945 134.293 566.41 134.391 566.812 134.586V135.571C566.367 135.258 565.891 135.102 565.383 135.102C564.77 135.102 564.266 135.323 563.871 135.764C563.48 136.202 563.285 136.778 563.285 137.493C563.285 138.196 563.469 138.75 563.836 139.157C564.207 139.563 564.703 139.766 565.324 139.766C565.848 139.766 566.34 139.592 566.801 139.245V140.159ZM573.076 137.674H568.84C568.855 138.342 569.035 138.858 569.379 139.221C569.723 139.584 570.195 139.766 570.797 139.766C571.473 139.766 572.094 139.543 572.66 139.098V140C572.133 140.383 571.436 140.575 570.568 140.575C569.721 140.575 569.055 140.303 568.57 139.76C568.086 139.213 567.844 138.446 567.844 137.458C567.844 136.524 568.107 135.764 568.635 135.178C569.166 134.588 569.824 134.293 570.609 134.293C571.395 134.293 572.002 134.547 572.432 135.055C572.861 135.563 573.076 136.268 573.076 137.17V137.674ZM572.092 136.86C572.088 136.305 571.953 135.874 571.688 135.565C571.426 135.256 571.061 135.102 570.592 135.102C570.139 135.102 569.754 135.264 569.438 135.588C569.121 135.913 568.926 136.336 568.852 136.86H572.092ZM579.516 140.434H578.555V136.977C578.555 135.727 578.09 135.102 577.16 135.102C576.691 135.102 576.297 135.284 575.977 135.647C575.656 136.006 575.496 136.469 575.496 137.036V140.434H574.535V131.551H575.496V135.43H575.52C575.98 134.672 576.637 134.293 577.488 134.293C578.84 134.293 579.516 135.108 579.516 136.737V140.434ZM583.84 140.575C582.953 140.575 582.244 140.295 581.713 139.737C581.186 139.174 580.922 138.43 580.922 137.504C580.922 136.497 581.197 135.709 581.748 135.143C582.299 134.577 583.043 134.293 583.98 134.293C584.875 134.293 585.572 134.569 586.072 135.12C586.576 135.67 586.828 136.434 586.828 137.411C586.828 138.368 586.557 139.135 586.014 139.713C585.475 140.288 584.75 140.575 583.84 140.575ZM583.91 135.102C583.293 135.102 582.805 135.313 582.445 135.735C582.086 136.153 581.906 136.731 581.906 137.469C581.906 138.18 582.088 138.741 582.451 139.151C582.814 139.561 583.301 139.766 583.91 139.766C584.531 139.766 585.008 139.565 585.34 139.163C585.676 138.76 585.844 138.188 585.844 137.446C585.844 136.696 585.676 136.118 585.34 135.711C585.008 135.305 584.531 135.102 583.91 135.102ZM589.324 140.434H588.363V131.551H589.324V140.434ZM596.391 140.434H595.43V139.415H595.406C594.961 140.188 594.273 140.575 593.344 140.575C592.59 140.575 591.986 140.307 591.533 139.772C591.084 139.233 590.859 138.5 590.859 137.575C590.859 136.583 591.109 135.788 591.609 135.19C592.109 134.592 592.775 134.293 593.607 134.293C594.432 134.293 595.031 134.618 595.406 135.266H595.43V131.551H596.391V140.434ZM595.43 137.721V136.836C595.43 136.352 595.27 135.942 594.949 135.606C594.629 135.27 594.223 135.102 593.73 135.102C593.145 135.102 592.684 135.317 592.348 135.747C592.012 136.176 591.844 136.77 591.844 137.528C591.844 138.219 592.004 138.766 592.324 139.168C592.648 139.567 593.082 139.766 593.625 139.766C594.16 139.766 594.594 139.573 594.926 139.186C595.262 138.799 595.43 138.311 595.43 137.721ZM603.158 137.674H598.922C598.938 138.342 599.117 138.858 599.461 139.221C599.805 139.584 600.277 139.766 600.879 139.766C601.555 139.766 602.176 139.543 602.742 139.098V140C602.215 140.383 601.518 140.575 600.65 140.575C599.803 140.575 599.137 140.303 598.652 139.76C598.168 139.213 597.926 138.446 597.926 137.458C597.926 136.524 598.189 135.764 598.717 135.178C599.248 134.588 599.906 134.293 600.691 134.293C601.477 134.293 602.084 134.547 602.514 135.055C602.943 135.563 603.158 136.268 603.158 137.17V137.674ZM602.174 136.86C602.17 136.305 602.035 135.874 601.77 135.565C601.508 135.256 601.143 135.102 600.674 135.102C600.221 135.102 599.836 135.264 599.52 135.588C599.203 135.913 599.008 136.336 598.934 136.86H602.174ZM607.746 135.407C607.578 135.278 607.336 135.213 607.02 135.213C606.609 135.213 606.266 135.407 605.988 135.793C605.715 136.18 605.578 136.708 605.578 137.375V140.434H604.617V134.434H605.578V135.67H605.602C605.738 135.249 605.947 134.92 606.229 134.686C606.51 134.448 606.824 134.329 607.172 134.329C607.422 134.329 607.613 134.356 607.746 134.411V135.407Z" fill="#BFBFBF"/>
<rect x="127.5" y="270.934" width="163" height="29" rx="4.5" fill="white" stroke="#D9D9D9"/>
<path d="M161.086 290.434H160.102V282.032H161.086V290.434ZM168.152 290.434H167.191V287.012C167.191 285.739 166.727 285.102 165.797 285.102C165.316 285.102 164.918 285.284 164.602 285.647C164.289 286.006 164.133 286.461 164.133 287.012V290.434H163.172V284.434H164.133V285.43H164.156C164.609 284.672 165.266 284.293 166.125 284.293C166.781 284.293 167.283 284.506 167.631 284.932C167.979 285.354 168.152 285.965 168.152 286.766V290.434ZM170.953 289.567H170.93V293.194H169.969V284.434H170.93V285.489H170.953C171.426 284.692 172.117 284.293 173.027 284.293C173.801 284.293 174.404 284.563 174.838 285.102C175.271 285.637 175.488 286.356 175.488 287.258C175.488 288.262 175.244 289.067 174.756 289.672C174.268 290.274 173.6 290.575 172.752 290.575C171.975 290.575 171.375 290.239 170.953 289.567ZM170.93 287.147V287.985C170.93 288.481 171.09 288.903 171.41 289.25C171.734 289.594 172.145 289.766 172.641 289.766C173.223 289.766 173.678 289.543 174.006 289.098C174.338 288.653 174.504 288.034 174.504 287.241C174.504 286.573 174.35 286.049 174.041 285.67C173.732 285.292 173.314 285.102 172.787 285.102C172.229 285.102 171.779 285.297 171.439 285.688C171.1 286.075 170.93 286.561 170.93 287.147ZM181.875 290.434H180.914V289.485H180.891C180.492 290.211 179.875 290.575 179.039 290.575C177.609 290.575 176.895 289.723 176.895 288.02V284.434H177.85V287.868C177.85 289.133 178.334 289.766 179.303 289.766C179.771 289.766 180.156 289.594 180.457 289.25C180.762 288.903 180.914 288.45 180.914 287.891V284.434H181.875V290.434ZM186.604 290.375C186.377 290.5 186.078 290.563 185.707 290.563C184.656 290.563 184.131 289.977 184.131 288.805V285.254H183.1V284.434H184.131V282.969L185.092 282.659V284.434H186.604V285.254H185.092V288.635C185.092 289.038 185.16 289.325 185.297 289.497C185.434 289.668 185.66 289.754 185.977 289.754C186.219 289.754 186.428 289.688 186.604 289.555V290.375ZM193.963 290.375C193.736 290.5 193.438 290.563 193.066 290.563C192.016 290.563 191.49 289.977 191.49 288.805V285.254H190.459V284.434H191.49V282.969L192.451 282.659V284.434H193.963V285.254H192.451V288.635C192.451 289.038 192.52 289.325 192.656 289.497C192.793 289.668 193.02 289.754 193.336 289.754C193.578 289.754 193.787 289.688 193.963 289.555V290.375ZM200.068 287.674H195.832C195.848 288.342 196.027 288.858 196.371 289.221C196.715 289.584 197.188 289.766 197.789 289.766C198.465 289.766 199.086 289.543 199.652 289.098V290C199.125 290.383 198.428 290.575 197.561 290.575C196.713 290.575 196.047 290.303 195.562 289.76C195.078 289.213 194.836 288.446 194.836 287.458C194.836 286.524 195.1 285.764 195.627 285.178C196.158 284.588 196.816 284.293 197.602 284.293C198.387 284.293 198.994 284.547 199.424 285.055C199.854 285.563 200.068 286.268 200.068 287.17V287.674ZM199.084 286.86C199.08 286.305 198.945 285.874 198.68 285.565C198.418 285.256 198.053 285.102 197.584 285.102C197.131 285.102 196.746 285.264 196.43 285.588C196.113 285.913 195.918 286.336 195.844 286.86H199.084ZM205.91 284.434L203.895 287.469L205.875 290.434H204.756L203.578 288.489C203.504 288.368 203.416 288.215 203.314 288.032H203.291C203.271 288.067 203.18 288.219 203.016 288.489L201.814 290.434H200.707L202.752 287.493L200.795 284.434H201.914L203.074 286.485C203.16 286.637 203.244 286.793 203.326 286.954H203.35L204.85 284.434H205.91ZM209.818 290.375C209.592 290.5 209.293 290.563 208.922 290.563C207.871 290.563 207.346 289.977 207.346 288.805V285.254H206.314V284.434H207.346V282.969L208.307 282.659V284.434H209.818V285.254H208.307V288.635C208.307 289.038 208.375 289.325 208.512 289.497C208.648 289.668 208.875 289.754 209.191 289.754C209.434 289.754 209.643 289.688 209.818 289.555V290.375Z" fill="black"/>
<path d="M143.473 289.701C146.308 289.701 148.607 287.403 148.607 284.568C148.607 281.732 146.308 279.434 143.473 279.434C140.638 279.434 138.34 281.732 138.34 284.568C138.34 287.403 140.638 289.701 143.473 289.701Z" stroke="#4B4A4B" stroke-width="1.5" stroke-linecap="round" stroke-linejoin="round"/>
<path d="M150.66 291.754L147.922 289.017" stroke="#4B4A4B" stroke-width="1.5" stroke-linecap="round" stroke-linejoin="round"/>
<rect x="535.5" y="270.934" width="163" height="29" rx="4.5" fill="white" stroke="#D9D9D9"/>
<path d="M546.086 290.434H545.102V282.032H546.086V290.434ZM553.152 290.434H552.191V287.012C552.191 285.739 551.727 285.102 550.797 285.102C550.316 285.102 549.918 285.284 549.602 285.647C549.289 286.006 549.133 286.461 549.133 287.012V290.434H548.172V284.434H549.133V285.43H549.156C549.609 284.672 550.266 284.293 551.125 284.293C551.781 284.293 552.283 284.506 552.631 284.932C552.979 285.354 553.152 285.965 553.152 286.766V290.434ZM555.953 289.567H555.93V293.194H554.969V284.434H555.93V285.489H555.953C556.426 284.692 557.117 284.293 558.027 284.293C558.801 284.293 559.404 284.563 559.838 285.102C560.271 285.637 560.488 286.356 560.488 287.258C560.488 288.262 560.244 289.067 559.756 289.672C559.268 290.274 558.6 290.575 557.752 290.575C556.975 290.575 556.375 290.239 555.953 289.567ZM555.93 287.147V287.985C555.93 288.481 556.09 288.903 556.41 289.25C556.734 289.594 557.145 289.766 557.641 289.766C558.223 289.766 558.678 289.543 559.006 289.098C559.338 288.653 559.504 288.034 559.504 287.241C559.504 286.573 559.35 286.049 559.041 285.67C558.732 285.292 558.314 285.102 557.787 285.102C557.229 285.102 556.779 285.297 556.439 285.688C556.1 286.075 555.93 286.561 555.93 287.147ZM566.875 290.434H565.914V289.485H565.891C565.492 290.211 564.875 290.575 564.039 290.575C562.609 290.575 561.895 289.723 561.895 288.02V284.434H562.85V287.868C562.85 289.133 563.334 289.766 564.303 289.766C564.771 289.766 565.156 289.594 565.457 289.25C565.762 288.903 565.914 288.45 565.914 287.891V284.434H566.875V290.434ZM571.604 290.375C571.377 290.5 571.078 290.563 570.707 290.563C569.656 290.563 569.131 289.977 569.131 288.805V285.254H568.1V284.434H569.131V282.969L570.092 282.659V284.434H571.604V285.254H570.092V288.635C570.092 289.038 570.16 289.325 570.297 289.497C570.434 289.668 570.66 289.754 570.977 289.754C571.219 289.754 571.428 289.688 571.604 289.555V290.375ZM578.963 290.375C578.736 290.5 578.438 290.563 578.066 290.563C577.016 290.563 576.49 289.977 576.49 288.805V285.254H575.459V284.434H576.49V282.969L577.451 282.659V284.434H578.963V285.254H577.451V288.635C577.451 289.038 577.52 289.325 577.656 289.497C577.793 289.668 578.02 289.754 578.336 289.754C578.578 289.754 578.787 289.688 578.963 289.555V290.375ZM585.068 287.674H580.832C580.848 288.342 581.027 288.858 581.371 289.221C581.715 289.584 582.188 289.766 582.789 289.766C583.465 289.766 584.086 289.543 584.652 289.098V290C584.125 290.383 583.428 290.575 582.561 290.575C581.713 290.575 581.047 290.303 580.562 289.76C580.078 289.213 579.836 288.446 579.836 287.458C579.836 286.524 580.1 285.764 580.627 285.178C581.158 284.588 581.816 284.293 582.602 284.293C583.387 284.293 583.994 284.547 584.424 285.055C584.854 285.563 585.068 286.268 585.068 287.17V287.674ZM584.084 286.86C584.08 286.305 583.945 285.874 583.68 285.565C583.418 285.256 583.053 285.102 582.584 285.102C582.131 285.102 581.746 285.264 581.43 285.588C581.113 285.913 580.918 286.336 580.844 286.86H584.084ZM590.91 284.434L588.895 287.469L590.875 290.434H589.756L588.578 288.489C588.504 288.368 588.416 288.215 588.314 288.032H588.291C588.271 288.067 588.18 288.219 588.016 288.489L586.814 290.434H585.707L587.752 287.493L585.795 284.434H586.914L588.074 286.485C588.16 286.637 588.244 286.793 588.326 286.954H588.35L589.85 284.434H590.91ZM594.818 290.375C594.592 290.5 594.293 290.563 593.922 290.563C592.871 290.563 592.346 289.977 592.346 288.805V285.254H591.314V284.434H592.346V282.969L593.307 282.659V284.434H594.818V285.254H593.307V288.635C593.307 289.038 593.375 289.325 593.512 289.497C593.648 289.668 593.875 289.754 594.191 289.754C594.434 289.754 594.643 289.688 594.818 289.555V290.375Z" fill="black"/>
<path d="M541.371 33.4341H536.285V23.6313H537.434V32.395H541.371V33.4341ZM547.735 33.4341H546.614V32.3403H546.587C546.099 33.1789 545.382 33.5981 544.434 33.5981C543.736 33.5981 543.189 33.4136 542.793 33.0444C542.401 32.6753 542.205 32.1854 542.205 31.5747C542.205 30.2668 542.975 29.5057 544.516 29.2915L546.614 28.9976C546.614 27.8081 546.133 27.2134 545.172 27.2134C544.329 27.2134 543.568 27.5005 542.889 28.0747V26.9263C543.577 26.4888 544.37 26.27 545.268 26.27C546.913 26.27 547.735 27.1405 547.735 28.8813V33.4341ZM546.614 29.8931L544.926 30.1255C544.406 30.1984 544.014 30.3283 543.75 30.5151C543.486 30.6974 543.354 31.0233 543.354 31.4927C543.354 31.8345 543.474 32.1147 543.716 32.3335C543.962 32.5477 544.288 32.6548 544.693 32.6548C545.249 32.6548 545.707 32.4611 546.067 32.0737C546.432 31.6818 546.614 31.1873 546.614 30.5903V29.8931ZM550.996 32.4224H550.969V33.4341H549.848V23.0708H550.969V27.6646H550.996C551.548 26.7349 552.354 26.27 553.416 26.27C554.314 26.27 555.016 26.5845 555.521 27.2134C556.032 27.8377 556.287 28.6763 556.287 29.729C556.287 30.9002 556.002 31.839 555.433 32.5454C554.863 33.2472 554.084 33.5981 553.095 33.5981C552.17 33.5981 551.47 33.2062 550.996 32.4224ZM550.969 29.5991V30.5767C550.969 31.1554 551.156 31.6476 551.529 32.0532C551.908 32.4543 552.386 32.6548 552.965 32.6548C553.644 32.6548 554.175 32.395 554.558 31.8755C554.945 31.356 555.139 30.6336 555.139 29.7085C555.139 28.9292 554.959 28.3185 554.599 27.8765C554.239 27.4344 553.751 27.2134 553.136 27.2134C552.484 27.2134 551.96 27.4412 551.563 27.897C551.167 28.3481 550.969 28.9155 550.969 29.5991ZM563.704 30.2144H558.762C558.78 30.9937 558.99 31.5952 559.391 32.019C559.792 32.4429 560.343 32.6548 561.045 32.6548C561.833 32.6548 562.558 32.395 563.219 31.8755V32.9282C562.604 33.3748 561.79 33.5981 560.778 33.5981C559.789 33.5981 559.012 33.2814 558.447 32.6479C557.882 32.0099 557.6 31.1144 557.6 29.9614C557.6 28.8722 557.907 27.9858 558.522 27.3022C559.142 26.6141 559.91 26.27 560.826 26.27C561.742 26.27 562.451 26.5662 562.952 27.1587C563.453 27.7511 563.704 28.5737 563.704 29.6265V30.2144ZM562.556 29.2642C562.551 28.617 562.394 28.1134 562.084 27.7534C561.779 27.3934 561.353 27.2134 560.806 27.2134C560.277 27.2134 559.828 27.4025 559.459 27.7808C559.09 28.159 558.862 28.6535 558.775 29.2642H562.556ZM566.527 33.4341H565.406V23.0708H566.527V33.4341Z" fill="#515151"/>
<path d="M541.371 108.434H536.285V98.6313H537.434V107.395H541.371V108.434ZM547.735 108.434H546.614V107.34H546.587C546.099 108.179 545.382 108.598 544.434 108.598C543.736 108.598 543.189 108.414 542.793 108.044C542.401 107.675 542.205 107.185 542.205 106.575C542.205 105.267 542.975 104.506 544.516 104.292L546.614 103.998C546.614 102.808 546.133 102.213 545.172 102.213C544.329 102.213 543.568 102.5 542.889 103.075V101.926C543.577 101.489 544.37 101.27 545.268 101.27C546.913 101.27 547.735 102.14 547.735 103.881V108.434ZM546.614 104.893L544.926 105.125C544.406 105.198 544.014 105.328 543.75 105.515C543.486 105.697 543.354 106.023 543.354 106.493C543.354 106.834 543.474 107.115 543.716 107.333C543.962 107.548 544.288 107.655 544.693 107.655C545.249 107.655 545.707 107.461 546.067 107.074C546.432 106.682 546.614 106.187 546.614 105.59V104.893ZM550.996 107.422H550.969V108.434H549.848V98.0708H550.969V102.665H550.996C551.548 101.735 552.354 101.27 553.416 101.27C554.314 101.27 555.016 101.584 555.521 102.213C556.032 102.838 556.287 103.676 556.287 104.729C556.287 105.9 556.002 106.839 555.433 107.545C554.863 108.247 554.084 108.598 553.095 108.598C552.17 108.598 551.47 108.206 550.996 107.422ZM550.969 104.599V105.577C550.969 106.155 551.156 106.648 551.529 107.053C551.908 107.454 552.386 107.655 552.965 107.655C553.644 107.655 554.175 107.395 554.558 106.875C554.945 106.356 555.139 105.634 555.139 104.708C555.139 103.929 554.959 103.319 554.599 102.876C554.239 102.434 553.751 102.213 553.136 102.213C552.484 102.213 551.96 102.441 551.563 102.897C551.167 103.348 550.969 103.916 550.969 104.599ZM563.704 105.214H558.762C558.78 105.994 558.99 106.595 559.391 107.019C559.792 107.443 560.343 107.655 561.045 107.655C561.833 107.655 562.558 107.395 563.219 106.875V107.928C562.604 108.375 561.79 108.598 560.778 108.598C559.789 108.598 559.012 108.281 558.447 107.648C557.882 107.01 557.6 106.114 557.6 104.961C557.6 103.872 557.907 102.986 558.522 102.302C559.142 101.614 559.91 101.27 560.826 101.27C561.742 101.27 562.451 101.566 562.952 102.159C563.453 102.751 563.704 103.574 563.704 104.626V105.214ZM562.556 104.264C562.551 103.617 562.394 103.113 562.084 102.753C561.779 102.393 561.353 102.213 560.806 102.213C560.277 102.213 559.828 102.403 559.459 102.781C559.09 103.159 558.862 103.653 558.775 104.264H562.556ZM566.527 108.434H565.406V98.0708H566.527V108.434Z" fill="#515151"/>
<path d="M541.371 183.434H536.285V173.631H537.434V182.395H541.371V183.434ZM547.735 183.434H546.614V182.34H546.587C546.099 183.179 545.382 183.598 544.434 183.598C543.736 183.598 543.189 183.414 542.793 183.044C542.401 182.675 542.205 182.185 542.205 181.575C542.205 180.267 542.975 179.506 544.516 179.292L546.614 178.998C546.614 177.808 546.133 177.213 545.172 177.213C544.329 177.213 543.568 177.5 542.889 178.075V176.926C543.577 176.489 544.37 176.27 545.268 176.27C546.913 176.27 547.735 177.14 547.735 178.881V183.434ZM546.614 179.893L544.926 180.125C544.406 180.198 544.014 180.328 543.75 180.515C543.486 180.697 543.354 181.023 543.354 181.493C543.354 181.834 543.474 182.115 543.716 182.333C543.962 182.548 544.288 182.655 544.693 182.655C545.249 182.655 545.707 182.461 546.067 182.074C546.432 181.682 546.614 181.187 546.614 180.59V179.893ZM550.996 182.422H550.969V183.434H549.848V173.071H550.969V177.665H550.996C551.548 176.735 552.354 176.27 553.416 176.27C554.314 176.27 555.016 176.584 555.521 177.213C556.032 177.838 556.287 178.676 556.287 179.729C556.287 180.9 556.002 181.839 555.433 182.545C554.863 183.247 554.084 183.598 553.095 183.598C552.17 183.598 551.47 183.206 550.996 182.422ZM550.969 179.599V180.577C550.969 181.155 551.156 181.648 551.529 182.053C551.908 182.454 552.386 182.655 552.965 182.655C553.644 182.655 554.175 182.395 554.558 181.875C554.945 181.356 555.139 180.634 555.139 179.708C555.139 178.929 554.959 178.319 554.599 177.876C554.239 177.434 553.751 177.213 553.136 177.213C552.484 177.213 551.96 177.441 551.563 177.897C551.167 178.348 550.969 178.916 550.969 179.599ZM563.704 180.214H558.762C558.78 180.994 558.99 181.595 559.391 182.019C559.792 182.443 560.343 182.655 561.045 182.655C561.833 182.655 562.558 182.395 563.219 181.875V182.928C562.604 183.375 561.79 183.598 560.778 183.598C559.789 183.598 559.012 183.281 558.447 182.648C557.882 182.01 557.6 181.114 557.6 179.961C557.6 178.872 557.907 177.986 558.522 177.302C559.142 176.614 559.91 176.27 560.826 176.27C561.742 176.27 562.451 176.566 562.952 177.159C563.453 177.751 563.704 178.574 563.704 179.626V180.214ZM562.556 179.264C562.551 178.617 562.394 178.113 562.084 177.753C561.779 177.393 561.353 177.213 560.806 177.213C560.277 177.213 559.828 177.403 559.459 177.781C559.09 178.159 558.862 178.653 558.775 179.264H562.556ZM566.527 183.434H565.406V173.071H566.527V183.434Z" fill="#515151"/>
<path d="M541.371 258.434H536.285V248.631H537.434V257.395H541.371V258.434ZM547.735 258.434H546.614V257.34H546.587C546.099 258.179 545.382 258.598 544.434 258.598C543.736 258.598 543.189 258.414 542.793 258.044C542.401 257.675 542.205 257.185 542.205 256.575C542.205 255.267 542.975 254.506 544.516 254.292L546.614 253.998C546.614 252.808 546.133 252.213 545.172 252.213C544.329 252.213 543.568 252.5 542.889 253.075V251.926C543.577 251.489 544.37 251.27 545.268 251.27C546.913 251.27 547.735 252.14 547.735 253.881V258.434ZM546.614 254.893L544.926 255.125C544.406 255.198 544.014 255.328 543.75 255.515C543.486 255.697 543.354 256.023 543.354 256.493C543.354 256.834 543.474 257.115 543.716 257.333C543.962 257.548 544.288 257.655 544.693 257.655C545.249 257.655 545.707 257.461 546.067 257.074C546.432 256.682 546.614 256.187 546.614 255.59V254.893ZM550.996 257.422H550.969V258.434H549.848V248.071H550.969V252.665H550.996C551.548 251.735 552.354 251.27 553.416 251.27C554.314 251.27 555.016 251.584 555.521 252.213C556.032 252.838 556.287 253.676 556.287 254.729C556.287 255.9 556.002 256.839 555.433 257.545C554.863 258.247 554.084 258.598 553.095 258.598C552.17 258.598 551.47 258.206 550.996 257.422ZM550.969 254.599V255.577C550.969 256.155 551.156 256.648 551.529 257.053C551.908 257.454 552.386 257.655 552.965 257.655C553.644 257.655 554.175 257.395 554.558 256.875C554.945 256.356 555.139 255.634 555.139 254.708C555.139 253.929 554.959 253.319 554.599 252.876C554.239 252.434 553.751 252.213 553.136 252.213C552.484 252.213 551.96 252.441 551.563 252.897C551.167 253.348 550.969 253.916 550.969 254.599ZM563.704 255.214H558.762C558.78 255.994 558.99 256.595 559.391 257.019C559.792 257.443 560.343 257.655 561.045 257.655C561.833 257.655 562.558 257.395 563.219 256.875V257.928C562.604 258.375 561.79 258.598 560.778 258.598C559.789 258.598 559.012 258.281 558.447 257.648C557.882 257.01 557.6 256.114 557.6 254.961C557.6 253.872 557.907 252.986 558.522 252.302C559.142 251.614 559.91 251.27 560.826 251.27C561.742 251.27 562.451 251.566 562.952 252.159C563.453 252.751 563.704 253.574 563.704 254.626V255.214ZM562.556 254.264C562.551 253.617 562.394 253.113 562.084 252.753C561.779 252.393 561.353 252.213 560.806 252.213C560.277 252.213 559.828 252.403 559.459 252.781C559.09 253.159 558.862 253.653 558.775 254.264H562.556ZM566.527 258.434H565.406V248.071H566.527V258.434Z" fill="#515151"/>
<defs>
<filter id="filter0_d_672_748" x="327" y="191.434" width="172" height="38" filterUnits="userSpaceOnUse" color-interpolation-filters="sRGB">
<feFlood flood-opacity="0" result="BackgroundImageFix"/>
<feColorMatrix in="SourceAlpha" type="matrix" values="0 0 0 0 0 0 0 0 0 0 0 0 0 0 0 0 0 0 127 0" result="hardAlpha"/>
<feOffset/>
<feGaussianBlur stdDeviation="2"/>
<feComposite in2="hardAlpha" operator="out"/>
<feColorMatrix type="matrix" values="0 0 0 0 0.25098 0 0 0 0 0.482353 0 0 0 0 0.905882 0 0 0 0.5 0"/>
<feBlend mode="normal" in2="BackgroundImageFix" result="effect1_dropShadow_672_748"/>
<feBlend mode="normal" in="SourceGraphic" in2="effect1_dropShadow_672_748" result="shape"/>
</filter>
<filter id="filter1_d_672_748" x="123" y="191.434" width="172" height="38" filterUnits="userSpaceOnUse" color-interpolation-filters="sRGB">
<feFlood flood-opacity="0" result="BackgroundImageFix"/>
<feColorMatrix in="SourceAlpha" type="matrix" values="0 0 0 0 0 0 0 0 0 0 0 0 0 0 0 0 0 0 127 0" result="hardAlpha"/>
<feOffset/>
<feGaussianBlur stdDeviation="2"/>
<feComposite in2="hardAlpha" operator="out"/>
<feColorMatrix type="matrix" values="0 0 0 0 0.25098 0 0 0 0 0.482353 0 0 0 0 0.905882 0 0 0 0.5 0"/>
<feBlend mode="normal" in2="BackgroundImageFix" result="effect1_dropShadow_672_748"/>
<feBlend mode="normal" in="SourceGraphic" in2="effect1_dropShadow_672_748" result="shape"/>
</filter>
<filter id="filter2_d_672_748" x="531" y="191.434" width="172" height="38" filterUnits="userSpaceOnUse" color-interpolation-filters="sRGB">
<feFlood flood-opacity="0" result="BackgroundImageFix"/>
<feColorMatrix in="SourceAlpha" type="matrix" values="0 0 0 0 0 0 0 0 0 0 0 0 0 0 0 0 0 0 127 0" result="hardAlpha"/>
<feOffset/>
<feGaussianBlur stdDeviation="2"/>
<feComposite in2="hardAlpha" operator="out"/>
<feColorMatrix type="matrix" values="0 0 0 0 0.25098 0 0 0 0 0.482353 0 0 0 0 0.905882 0 0 0 0.5 0"/>
<feBlend mode="normal" in2="BackgroundImageFix" result="effect1_dropShadow_672_748"/>
<feBlend mode="normal" in="SourceGraphic" in2="effect1_dropShadow_672_748" result="shape"/>
</filter>
</defs>
</svg>
