<svg width="245" height="120" viewBox="0 0 245 120" fill="none" xmlns="http://www.w3.org/2000/svg">
<rect x="0.5" y="0.934082" width="244" height="118" rx="9.5" stroke="#7E40C7" stroke-dasharray="5 5"/>
<rect x="20" y="19.4341" width="206" height="38" fill="#407BE7"/>
<path d="M45.251 35.4292H42.4551V43.4341H40.2402V35.4292H37.458V33.6313H45.251V35.4292ZM50.9932 43.4341H48.9492V42.4292H48.9219C48.4525 43.2131 47.7575 43.605 46.8369 43.605C46.1579 43.605 45.6224 43.4136 45.2305 43.0308C44.8431 42.6434 44.6494 42.1284 44.6494 41.4858C44.6494 40.1278 45.4538 39.3439 47.0625 39.1343L48.9629 38.8813C48.9629 38.1157 48.5482 37.7329 47.7188 37.7329C46.8848 37.7329 46.0918 37.9813 45.3398 38.478V36.8511C45.6406 36.6961 46.0508 36.5594 46.5703 36.4409C47.0944 36.3224 47.5706 36.2632 47.999 36.2632C49.9951 36.2632 50.9932 37.259 50.9932 39.2505V43.4341ZM48.9629 40.5903V40.1187L47.6914 40.2827C46.9896 40.3739 46.6387 40.6906 46.6387 41.2329C46.6387 41.479 46.723 41.6818 46.8916 41.8413C47.0648 41.9963 47.2972 42.0737 47.5889 42.0737C47.9945 42.0737 48.3249 41.9347 48.5801 41.6567C48.8353 41.3742 48.9629 41.0187 48.9629 40.5903ZM54.8896 42.6206H54.8623V43.4341H52.7021V33.0708H54.8623V37.4868H54.8896C55.4229 36.6711 56.1816 36.2632 57.166 36.2632C58.0684 36.2632 58.7633 36.5731 59.251 37.1929C59.7386 37.8127 59.9824 38.6603 59.9824 39.7358C59.9824 40.9025 59.6976 41.839 59.1279 42.5454C58.5583 43.2518 57.7972 43.605 56.8447 43.605C55.9834 43.605 55.3317 43.2769 54.8896 42.6206ZM54.8281 39.6675V40.3853C54.8281 40.8364 54.958 41.2101 55.2178 41.5063C55.4775 41.8026 55.8102 41.9507 56.2158 41.9507C56.708 41.9507 57.0885 41.7616 57.3574 41.3833C57.6309 41.0005 57.7676 40.4604 57.7676 39.7632C57.7676 39.1844 57.6423 38.7332 57.3916 38.4097C57.1455 38.0815 56.7923 37.9175 56.332 37.9175C55.8991 37.9175 55.5391 38.0793 55.252 38.4028C54.9694 38.7264 54.8281 39.1479 54.8281 39.6675ZM70.0312 33.4126V43.4341H67.8779V35.8462C67.7594 35.951 67.6182 36.0513 67.4541 36.147C67.2946 36.2381 67.1237 36.3224 66.9414 36.3999C66.7591 36.4728 66.57 36.5366 66.374 36.5913C66.1781 36.6414 65.9844 36.6779 65.793 36.7007V34.8823C66.3535 34.7183 66.8822 34.5086 67.3789 34.2534C67.8757 33.9982 68.3245 33.7179 68.7256 33.4126H70.0312Z" fill="white"/>
<path opacity="0.7" d="M115.328 34.6704H112.498V43.4341H111.35V34.6704H108.526V33.6313H115.328V34.6704ZM120.161 43.4341H119.04V42.3403H119.013C118.525 43.1789 117.807 43.5981 116.859 43.5981C116.162 43.5981 115.615 43.4136 115.219 43.0444C114.827 42.6753 114.631 42.1854 114.631 41.5747C114.631 40.2668 115.401 39.5057 116.941 39.2915L119.04 38.9976C119.04 37.8081 118.559 37.2134 117.598 37.2134C116.755 37.2134 115.993 37.5005 115.314 38.0747V36.9263C116.003 36.4888 116.796 36.27 117.693 36.27C119.339 36.27 120.161 37.1405 120.161 38.8813V43.4341ZM119.04 39.8931L117.352 40.1255C116.832 40.1984 116.44 40.3283 116.176 40.5151C115.911 40.6974 115.779 41.0233 115.779 41.4927C115.779 41.8345 115.9 42.1147 116.142 42.3335C116.388 42.5477 116.714 42.6548 117.119 42.6548C117.675 42.6548 118.133 42.4611 118.493 42.0737C118.858 41.6818 119.04 41.1873 119.04 40.5903V39.8931ZM123.422 42.4224H123.395V43.4341H122.273V33.0708H123.395V37.6646H123.422C123.973 36.7349 124.78 36.27 125.842 36.27C126.74 36.27 127.441 36.5845 127.947 37.2134C128.458 37.8377 128.713 38.6763 128.713 39.729C128.713 40.9002 128.428 41.839 127.858 42.5454C127.289 43.2472 126.509 43.5981 125.521 43.5981C124.595 43.5981 123.896 43.2062 123.422 42.4224ZM123.395 39.5991V40.5767C123.395 41.1554 123.581 41.6476 123.955 42.0532C124.333 42.4543 124.812 42.6548 125.391 42.6548C126.07 42.6548 126.601 42.395 126.983 41.8755C127.371 41.356 127.564 40.6336 127.564 39.7085C127.564 38.9292 127.384 38.3185 127.024 37.8765C126.664 37.4344 126.177 37.2134 125.562 37.2134C124.91 37.2134 124.386 37.4412 123.989 37.897C123.593 38.3481 123.395 38.9155 123.395 39.5991ZM138.488 36.2017C138.488 35.9009 138.44 35.6388 138.345 35.4155C138.254 35.1922 138.126 35.0076 137.962 34.8618C137.802 34.7114 137.613 34.5998 137.395 34.5269C137.176 34.4539 136.939 34.4175 136.684 34.4175C136.465 34.4175 136.251 34.4471 136.041 34.5063C135.831 34.5656 135.626 34.6476 135.426 34.7524C135.23 34.8573 135.038 34.9826 134.852 35.1284C134.669 35.2743 134.498 35.436 134.339 35.6138V34.4106C134.653 34.1053 135.004 33.8729 135.392 33.7134C135.784 33.5493 136.26 33.4673 136.82 33.4673C137.221 33.4673 137.593 33.5265 137.935 33.645C138.276 33.759 138.573 33.9276 138.823 34.1509C139.074 34.3742 139.27 34.6499 139.411 34.978C139.557 35.3062 139.63 35.6821 139.63 36.106C139.63 36.4933 139.584 36.8442 139.493 37.1587C139.407 37.4731 139.272 37.7694 139.09 38.0474C138.912 38.3254 138.687 38.592 138.413 38.8472C138.14 39.1024 137.818 39.3621 137.449 39.6265C136.989 39.9546 136.608 40.2349 136.308 40.4673C136.011 40.6997 135.774 40.9185 135.597 41.1235C135.424 41.3241 135.3 41.5269 135.228 41.7319C135.159 41.9325 135.125 42.1649 135.125 42.4292H140.006V43.4341H133.956V42.9487C133.956 42.5295 134.002 42.1603 134.093 41.8413C134.184 41.5223 134.334 41.2192 134.544 40.9321C134.754 40.645 135.027 40.3579 135.364 40.0708C135.706 39.7837 136.123 39.4601 136.615 39.1001C136.971 38.8449 137.267 38.6011 137.504 38.3687C137.745 38.1362 137.939 37.9038 138.085 37.6714C138.231 37.439 138.333 37.2043 138.393 36.9673C138.456 36.7257 138.488 36.4705 138.488 36.2017Z" fill="white"/>
<path opacity="0.7" d="M183.328 34.6704H180.498V43.4341H179.35V34.6704H176.526V33.6313H183.328V34.6704ZM188.161 43.4341H187.04V42.3403H187.013C186.525 43.1789 185.807 43.5981 184.859 43.5981C184.162 43.5981 183.615 43.4136 183.219 43.0444C182.827 42.6753 182.631 42.1854 182.631 41.5747C182.631 40.2668 183.401 39.5057 184.941 39.2915L187.04 38.9976C187.04 37.8081 186.559 37.2134 185.598 37.2134C184.755 37.2134 183.993 37.5005 183.314 38.0747V36.9263C184.003 36.4888 184.796 36.27 185.693 36.27C187.339 36.27 188.161 37.1405 188.161 38.8813V43.4341ZM187.04 39.8931L185.352 40.1255C184.832 40.1984 184.44 40.3283 184.176 40.5151C183.911 40.6974 183.779 41.0233 183.779 41.4927C183.779 41.8345 183.9 42.1147 184.142 42.3335C184.388 42.5477 184.714 42.6548 185.119 42.6548C185.675 42.6548 186.133 42.4611 186.493 42.0737C186.858 41.6818 187.04 41.1873 187.04 40.5903V39.8931ZM191.422 42.4224H191.395V43.4341H190.273V33.0708H191.395V37.6646H191.422C191.973 36.7349 192.78 36.27 193.842 36.27C194.74 36.27 195.441 36.5845 195.947 37.2134C196.458 37.8377 196.713 38.6763 196.713 39.729C196.713 40.9002 196.428 41.839 195.858 42.5454C195.289 43.2472 194.509 43.5981 193.521 43.5981C192.595 43.5981 191.896 43.2062 191.422 42.4224ZM191.395 39.5991V40.5767C191.395 41.1554 191.581 41.6476 191.955 42.0532C192.333 42.4543 192.812 42.6548 193.391 42.6548C194.07 42.6548 194.601 42.395 194.983 41.8755C195.371 41.356 195.564 40.6336 195.564 39.7085C195.564 38.9292 195.384 38.3185 195.024 37.8765C194.664 37.4344 194.177 37.2134 193.562 37.2134C192.91 37.2134 192.386 37.4412 191.989 37.897C191.593 38.3481 191.395 38.9155 191.395 39.5991ZM207.726 40.6587C207.726 41.1007 207.641 41.5041 207.473 41.8687C207.309 42.2287 207.074 42.5386 206.769 42.7983C206.468 43.0535 206.105 43.2518 205.682 43.3931C205.258 43.5343 204.791 43.605 204.28 43.605C203.346 43.605 202.603 43.4272 202.052 43.0718V41.8687C202.713 42.3882 203.469 42.6479 204.321 42.6479C204.663 42.6479 204.971 42.6047 205.244 42.5181C205.522 42.4315 205.759 42.3062 205.955 42.1421C206.156 41.978 206.308 41.7798 206.413 41.5474C206.522 41.3149 206.577 41.0529 206.577 40.7612C206.577 39.4806 205.666 38.8403 203.843 38.8403H203.029V37.8901H203.802C205.415 37.8901 206.222 37.2886 206.222 36.0854C206.222 34.9735 205.606 34.4175 204.376 34.4175C203.683 34.4175 203.034 34.6499 202.428 35.1147V34.0278C203.052 33.6541 203.795 33.4673 204.656 33.4673C205.066 33.4673 205.438 33.5243 205.771 33.6382C206.103 33.7521 206.388 33.9116 206.625 34.1167C206.862 34.3218 207.044 34.5679 207.172 34.855C207.304 35.1421 207.37 35.4588 207.37 35.8052C207.37 37.0949 206.718 37.9243 205.415 38.2935V38.3208C205.748 38.3573 206.055 38.4393 206.338 38.5669C206.62 38.6899 206.864 38.8517 207.069 39.0522C207.274 39.2528 207.434 39.4897 207.548 39.7632C207.666 40.0321 207.726 40.3306 207.726 40.6587Z" fill="white"/>
<rect x="34" y="55.4341" width="41" height="2" fill="#FC7735"/>
<path d="M45.251 79.4292H42.4551V87.4341H40.2402V79.4292H37.458V77.6313H45.251V79.4292ZM50.9932 87.4341H48.9492V86.4292H48.9219C48.4525 87.2131 47.7575 87.605 46.8369 87.605C46.1579 87.605 45.6224 87.4136 45.2305 87.0308C44.8431 86.6434 44.6494 86.1284 44.6494 85.4858C44.6494 84.1278 45.4538 83.3439 47.0625 83.1343L48.9629 82.8813C48.9629 82.1157 48.5482 81.7329 47.7188 81.7329C46.8848 81.7329 46.0918 81.9813 45.3398 82.478V80.8511C45.6406 80.6961 46.0508 80.5594 46.5703 80.4409C47.0944 80.3224 47.5706 80.2632 47.999 80.2632C49.9951 80.2632 50.9932 81.259 50.9932 83.2505V87.4341ZM48.9629 84.5903V84.1187L47.6914 84.2827C46.9896 84.3739 46.6387 84.6906 46.6387 85.2329C46.6387 85.479 46.723 85.6818 46.8916 85.8413C47.0648 85.9963 47.2972 86.0737 47.5889 86.0737C47.9945 86.0737 48.3249 85.9347 48.5801 85.6567C48.8353 85.3742 48.9629 85.0187 48.9629 84.5903ZM54.8896 86.6206H54.8623V87.4341H52.7021V77.0708H54.8623V81.4868H54.8896C55.4229 80.6711 56.1816 80.2632 57.166 80.2632C58.0684 80.2632 58.7633 80.5731 59.251 81.1929C59.7386 81.8127 59.9824 82.6603 59.9824 83.7358C59.9824 84.9025 59.6976 85.839 59.1279 86.5454C58.5583 87.2518 57.7972 87.605 56.8447 87.605C55.9834 87.605 55.3317 87.2769 54.8896 86.6206ZM54.8281 83.6675V84.3853C54.8281 84.8364 54.958 85.2101 55.2178 85.5063C55.4775 85.8026 55.8102 85.9507 56.2158 85.9507C56.708 85.9507 57.0885 85.7616 57.3574 85.3833C57.6309 85.0005 57.7676 84.4604 57.7676 83.7632C57.7676 83.1844 57.6423 82.7332 57.3916 82.4097C57.1455 82.0815 56.7923 81.9175 56.332 81.9175C55.8991 81.9175 55.5391 82.0793 55.252 82.4028C54.9694 82.7264 54.8281 83.1479 54.8281 83.6675ZM70.0312 77.4126V87.4341H67.8779V79.8462C67.7594 79.951 67.6182 80.0513 67.4541 80.147C67.2946 80.2381 67.1237 80.3224 66.9414 80.3999C66.7591 80.4728 66.57 80.5366 66.374 80.5913C66.1781 80.6414 65.9844 80.6779 65.793 80.7007V78.8823C66.3535 78.7183 66.8822 78.5086 67.3789 78.2534C67.8757 77.9982 68.3245 77.7179 68.7256 77.4126H70.0312Z" fill="#FC7735"/>
<path d="M115.328 78.6704H112.498V87.4341H111.35V78.6704H108.526V77.6313H115.328V78.6704ZM120.161 87.4341H119.04V86.3403H119.013C118.525 87.1789 117.807 87.5981 116.859 87.5981C116.162 87.5981 115.615 87.4136 115.219 87.0444C114.827 86.6753 114.631 86.1854 114.631 85.5747C114.631 84.2668 115.401 83.5057 116.941 83.2915L119.04 82.9976C119.04 81.8081 118.559 81.2134 117.598 81.2134C116.755 81.2134 115.993 81.5005 115.314 82.0747V80.9263C116.003 80.4888 116.796 80.27 117.693 80.27C119.339 80.27 120.161 81.1405 120.161 82.8813V87.4341ZM119.04 83.8931L117.352 84.1255C116.832 84.1984 116.44 84.3283 116.176 84.5151C115.911 84.6974 115.779 85.0233 115.779 85.4927C115.779 85.8345 115.9 86.1147 116.142 86.3335C116.388 86.5477 116.714 86.6548 117.119 86.6548C117.675 86.6548 118.133 86.4611 118.493 86.0737C118.858 85.6818 119.04 85.1873 119.04 84.5903V83.8931ZM123.422 86.4224H123.395V87.4341H122.273V77.0708H123.395V81.6646H123.422C123.973 80.7349 124.78 80.27 125.842 80.27C126.74 80.27 127.441 80.5845 127.947 81.2134C128.458 81.8377 128.713 82.6763 128.713 83.729C128.713 84.9002 128.428 85.839 127.858 86.5454C127.289 87.2472 126.509 87.5981 125.521 87.5981C124.595 87.5981 123.896 87.2062 123.422 86.4224ZM123.395 83.5991V84.5767C123.395 85.1554 123.581 85.6476 123.955 86.0532C124.333 86.4543 124.812 86.6548 125.391 86.6548C126.07 86.6548 126.601 86.395 126.983 85.8755C127.371 85.356 127.564 84.6336 127.564 83.7085C127.564 82.9292 127.384 82.3185 127.024 81.8765C126.664 81.4344 126.177 81.2134 125.562 81.2134C124.91 81.2134 124.386 81.4412 123.989 81.897C123.593 82.3481 123.395 82.9155 123.395 83.5991ZM138.488 80.2017C138.488 79.9009 138.44 79.6388 138.345 79.4155C138.254 79.1922 138.126 79.0076 137.962 78.8618C137.802 78.7114 137.613 78.5998 137.395 78.5269C137.176 78.4539 136.939 78.4175 136.684 78.4175C136.465 78.4175 136.251 78.4471 136.041 78.5063C135.831 78.5656 135.626 78.6476 135.426 78.7524C135.23 78.8573 135.038 78.9826 134.852 79.1284C134.669 79.2743 134.498 79.436 134.339 79.6138V78.4106C134.653 78.1053 135.004 77.8729 135.392 77.7134C135.784 77.5493 136.26 77.4673 136.82 77.4673C137.221 77.4673 137.593 77.5265 137.935 77.645C138.276 77.759 138.573 77.9276 138.823 78.1509C139.074 78.3742 139.27 78.6499 139.411 78.978C139.557 79.3062 139.63 79.6821 139.63 80.106C139.63 80.4933 139.584 80.8442 139.493 81.1587C139.407 81.4731 139.272 81.7694 139.09 82.0474C138.912 82.3254 138.687 82.592 138.413 82.8472C138.14 83.1024 137.818 83.3621 137.449 83.6265C136.989 83.9546 136.608 84.2349 136.308 84.4673C136.011 84.6997 135.774 84.9185 135.597 85.1235C135.424 85.3241 135.3 85.5269 135.228 85.7319C135.159 85.9325 135.125 86.1649 135.125 86.4292H140.006V87.4341H133.956V86.9487C133.956 86.5295 134.002 86.1603 134.093 85.8413C134.184 85.5223 134.334 85.2192 134.544 84.9321C134.754 84.645 135.027 84.3579 135.364 84.0708C135.706 83.7837 136.123 83.4601 136.615 83.1001C136.971 82.8449 137.267 82.6011 137.504 82.3687C137.745 82.1362 137.939 81.9038 138.085 81.6714C138.231 81.439 138.333 81.2043 138.393 80.9673C138.456 80.7257 138.488 80.4705 138.488 80.2017Z" fill="#CCCCCC"/>
<path d="M183.328 78.6704H180.498V87.4341H179.35V78.6704H176.526V77.6313H183.328V78.6704ZM188.161 87.4341H187.04V86.3403H187.013C186.525 87.1789 185.807 87.5981 184.859 87.5981C184.162 87.5981 183.615 87.4136 183.219 87.0444C182.827 86.6753 182.631 86.1854 182.631 85.5747C182.631 84.2668 183.401 83.5057 184.941 83.2915L187.04 82.9976C187.04 81.8081 186.559 81.2134 185.598 81.2134C184.755 81.2134 183.993 81.5005 183.314 82.0747V80.9263C184.003 80.4888 184.796 80.27 185.693 80.27C187.339 80.27 188.161 81.1405 188.161 82.8813V87.4341ZM187.04 83.8931L185.352 84.1255C184.832 84.1984 184.44 84.3283 184.176 84.5151C183.911 84.6974 183.779 85.0233 183.779 85.4927C183.779 85.8345 183.9 86.1147 184.142 86.3335C184.388 86.5477 184.714 86.6548 185.119 86.6548C185.675 86.6548 186.133 86.4611 186.493 86.0737C186.858 85.6818 187.04 85.1873 187.04 84.5903V83.8931ZM191.422 86.4224H191.395V87.4341H190.273V77.0708H191.395V81.6646H191.422C191.973 80.7349 192.78 80.27 193.842 80.27C194.74 80.27 195.441 80.5845 195.947 81.2134C196.458 81.8377 196.713 82.6763 196.713 83.729C196.713 84.9002 196.428 85.839 195.858 86.5454C195.289 87.2472 194.509 87.5981 193.521 87.5981C192.595 87.5981 191.896 87.2062 191.422 86.4224ZM191.395 83.5991V84.5767C191.395 85.1554 191.581 85.6476 191.955 86.0532C192.333 86.4543 192.812 86.6548 193.391 86.6548C194.07 86.6548 194.601 86.395 194.983 85.8755C195.371 85.356 195.564 84.6336 195.564 83.7085C195.564 82.9292 195.384 82.3185 195.024 81.8765C194.664 81.4344 194.177 81.2134 193.562 81.2134C192.91 81.2134 192.386 81.4412 191.989 81.897C191.593 82.3481 191.395 82.9155 191.395 83.5991ZM207.726 84.6587C207.726 85.1007 207.641 85.5041 207.473 85.8687C207.309 86.2287 207.074 86.5386 206.769 86.7983C206.468 87.0535 206.105 87.2518 205.682 87.3931C205.258 87.5343 204.791 87.605 204.28 87.605C203.346 87.605 202.603 87.4272 202.052 87.0718V85.8687C202.713 86.3882 203.469 86.6479 204.321 86.6479C204.663 86.6479 204.971 86.6047 205.244 86.5181C205.522 86.4315 205.759 86.3062 205.955 86.1421C206.156 85.978 206.308 85.7798 206.413 85.5474C206.522 85.3149 206.577 85.0529 206.577 84.7612C206.577 83.4806 205.666 82.8403 203.843 82.8403H203.029V81.8901H203.802C205.415 81.8901 206.222 81.2886 206.222 80.0854C206.222 78.9735 205.606 78.4175 204.376 78.4175C203.683 78.4175 203.034 78.6499 202.428 79.1147V78.0278C203.052 77.6541 203.795 77.4673 204.656 77.4673C205.066 77.4673 205.438 77.5243 205.771 77.6382C206.103 77.7521 206.388 77.9116 206.625 78.1167C206.862 78.3218 207.044 78.5679 207.172 78.855C207.304 79.1421 207.37 79.4588 207.37 79.8052C207.37 81.0949 206.718 81.9243 205.415 82.2935V82.3208C205.748 82.3573 206.055 82.4393 206.338 82.5669C206.62 82.6899 206.864 82.8517 207.069 83.0522C207.274 83.2528 207.434 83.4897 207.548 83.7632C207.666 84.0321 207.726 84.3306 207.726 84.6587Z" fill="#CCCCCC"/>
<rect x="34" y="99.4341" width="41" height="2" fill="#FC7735"/>
<path d="M20 101.434L226 101.434" stroke="#D9D9D9" stroke-width="0.5"/>
</svg>
