<svg width="174" height="70" viewBox="0 0 174 70" fill="none" xmlns="http://www.w3.org/2000/svg">
<rect x="0.5" y="0.934082" width="173" height="68" rx="9.5" stroke="#7E40C7" stroke-dasharray="5 5"/>
<path d="M20 43.4339C20 46.1953 22.2386 48.4339 25 48.4339H83.0509C83.3366 48.4339 83.6086 48.556 83.7983 48.7695L86.7526 52.0932C87.1504 52.5407 87.8496 52.5407 88.2474 52.0932L91.2017 48.7695C91.3914 48.556 91.6634 48.4339 91.9491 48.4339H150C152.761 48.4339 155 46.1953 155 43.4339V24.4341C155 21.6727 152.761 19.4341 150 19.4341H25C22.2386 19.4341 20 21.6727 20 24.4341V43.4339Z" fill="#101828"/>
<path d="M35.4258 34.3872V37.4341H34.0371V29.0317H36.5859C37.5508 29.0317 38.2988 29.2563 38.8301 29.7056C39.3613 30.1548 39.627 30.7876 39.627 31.604C39.627 32.4204 39.3496 33.0884 38.7949 33.6079C38.2402 34.1274 37.4902 34.3872 36.5449 34.3872H35.4258ZM35.4258 30.1802V33.2505H36.3281C36.9258 33.2505 37.3809 33.1118 37.6934 32.8345C38.0059 32.5571 38.1621 32.1665 38.1621 31.6626C38.1621 30.6743 37.5879 30.1802 36.4395 30.1802H35.4258ZM42.2695 37.4341H40.9043V28.5513H42.2695V37.4341ZM48.6504 37.4341H47.332V36.4966H47.3086C46.8945 37.2153 46.2871 37.5747 45.4863 37.5747C44.8965 37.5747 44.4336 37.4146 44.0977 37.0942C43.7656 36.7739 43.5996 36.3501 43.5996 35.8228C43.5996 34.6899 44.252 34.0298 45.5566 33.8423L47.3379 33.5903C47.3379 32.7349 46.9316 32.3071 46.1191 32.3071C45.4043 32.3071 44.7598 32.5532 44.1855 33.0454V31.856C44.8184 31.481 45.5488 31.2935 46.377 31.2935C47.8926 31.2935 48.6504 32.0396 48.6504 33.5317V37.4341ZM47.3379 34.4868L46.0781 34.6626C45.6875 34.7134 45.3926 34.8091 45.1934 34.9497C44.998 35.0864 44.9004 35.3286 44.9004 35.6763C44.9004 35.9302 44.9902 36.1392 45.1699 36.3032C45.3535 36.4634 45.5977 36.5435 45.9023 36.5435C46.3164 36.5435 46.6582 36.3989 46.9277 36.1099C47.2012 35.8169 47.3379 35.4497 47.3379 35.0083V34.4868ZM54.6094 37.1587C54.1289 37.436 53.5605 37.5747 52.9043 37.5747C52.0137 37.5747 51.2949 37.2974 50.748 36.7427C50.2012 36.1841 49.9277 35.4614 49.9277 34.5747C49.9277 33.5864 50.2207 32.7935 50.8066 32.1958C51.3965 31.5942 52.1836 31.2935 53.168 31.2935C53.7148 31.2935 54.1973 31.3892 54.6152 31.5806V32.8462C54.1973 32.5337 53.752 32.3774 53.2793 32.3774C52.7051 32.3774 52.2344 32.5728 51.8672 32.9634C51.5 33.3501 51.3164 33.8579 51.3164 34.4868C51.3164 35.1079 51.4883 35.5981 51.832 35.9575C52.1797 36.3169 52.6445 36.4966 53.2266 36.4966C53.7148 36.4966 54.1758 36.3228 54.6094 35.9751V37.1587ZM61.043 34.8032H56.9531C56.9688 35.3579 57.1387 35.7856 57.4629 36.0864C57.791 36.3872 58.2402 36.5376 58.8105 36.5376C59.4512 36.5376 60.0391 36.3462 60.5742 35.9634V37.0591C60.0273 37.4028 59.3047 37.5747 58.4062 37.5747C57.5234 37.5747 56.8301 37.3032 56.3262 36.7603C55.8262 36.2134 55.5762 35.4458 55.5762 34.4575C55.5762 33.5239 55.8516 32.7642 56.4023 32.1782C56.957 31.5884 57.6445 31.2935 58.4648 31.2935C59.2852 31.2935 59.9199 31.5571 60.3691 32.0845C60.8184 32.6118 61.043 33.3442 61.043 34.2817V34.8032ZM59.7305 33.8423C59.7266 33.354 59.6113 32.9751 59.3848 32.7056C59.1582 32.4321 58.8457 32.2954 58.4473 32.2954C58.0566 32.2954 57.7246 32.438 57.4512 32.7231C57.1816 33.0083 57.0156 33.3813 56.9531 33.8423H59.7305ZM70.8398 31.4341L68.1328 38.395C67.5703 39.6372 66.7812 40.2583 65.7656 40.2583C65.4805 40.2583 65.2422 40.2329 65.0508 40.1821V39.0513C65.2656 39.1216 65.4609 39.1567 65.6367 39.1567C66.1445 39.1567 66.5234 38.9067 66.7734 38.4067L67.1777 37.4224L64.793 31.4341H66.2988L67.7285 35.7935C67.7441 35.8481 67.7793 35.9927 67.834 36.2271H67.8633C67.8828 36.1372 67.918 35.9966 67.9688 35.8052L69.4688 31.4341H70.8398ZM74.3145 37.5747C73.3887 37.5747 72.6484 37.2954 72.0938 36.7368C71.543 36.1743 71.2676 35.4302 71.2676 34.5044C71.2676 33.4966 71.5547 32.7095 72.1289 32.1431C72.707 31.5767 73.4844 31.2935 74.4609 31.2935C75.3984 31.2935 76.1289 31.5688 76.6523 32.1196C77.1758 32.6704 77.4375 33.4341 77.4375 34.4106C77.4375 35.3677 77.1543 36.1353 76.5879 36.7134C76.0254 37.2876 75.2676 37.5747 74.3145 37.5747ZM74.3789 32.3774C73.8477 32.3774 73.4277 32.563 73.1191 32.9341C72.8105 33.3052 72.6562 33.8169 72.6562 34.4692C72.6562 35.0981 72.8125 35.5942 73.125 35.9575C73.4375 36.3169 73.8555 36.4966 74.3789 36.4966C74.9141 36.4966 75.3242 36.3188 75.6094 35.9634C75.8984 35.6079 76.043 35.1021 76.043 34.4458C76.043 33.7856 75.8984 33.2759 75.6094 32.9165C75.3242 32.5571 74.9141 32.3774 74.3789 32.3774ZM84.0586 37.4341H82.6992V36.4849H82.6758C82.2812 37.2114 81.668 37.5747 80.8359 37.5747C79.418 37.5747 78.709 36.7231 78.709 35.02V31.4341H80.0684V34.8794C80.0684 35.9575 80.4844 36.4966 81.3164 36.4966C81.7188 36.4966 82.0488 36.3481 82.3066 36.0513C82.5684 35.7544 82.6992 35.3657 82.6992 34.8853V31.4341H84.0586V37.4341ZM89.3145 32.729C89.1504 32.6001 88.9141 32.5356 88.6055 32.5356C88.2031 32.5356 87.8672 32.7173 87.5977 33.0806C87.3281 33.4438 87.1934 33.938 87.1934 34.563V37.4341H85.834V31.4341H87.1934V32.6704H87.2168C87.3496 32.2485 87.5527 31.9204 87.8262 31.686C88.1035 31.4478 88.4121 31.3286 88.752 31.3286C88.998 31.3286 89.1855 31.3657 89.3145 31.4399V32.729ZM96.7441 37.3696C96.4785 37.5024 96.1289 37.5688 95.6953 37.5688C94.5312 37.5688 93.9492 37.0103 93.9492 35.8931V32.5005H92.9473V31.4341H93.9492V30.0454L95.3086 29.6587V31.4341H96.7441V32.5005H95.3086V35.5005C95.3086 35.856 95.373 36.1099 95.502 36.2622C95.6309 36.4146 95.8457 36.4907 96.1465 36.4907C96.377 36.4907 96.5762 36.4243 96.7441 36.2915V37.3696ZM102.926 34.8032H98.8359C98.8516 35.3579 99.0215 35.7856 99.3457 36.0864C99.6738 36.3872 100.123 36.5376 100.693 36.5376C101.334 36.5376 101.922 36.3462 102.457 35.9634V37.0591C101.91 37.4028 101.188 37.5747 100.289 37.5747C99.4062 37.5747 98.7129 37.3032 98.209 36.7603C97.709 36.2134 97.459 35.4458 97.459 34.4575C97.459 33.5239 97.7344 32.7642 98.2852 32.1782C98.8398 31.5884 99.5273 31.2935 100.348 31.2935C101.168 31.2935 101.803 31.5571 102.252 32.0845C102.701 32.6118 102.926 33.3442 102.926 34.2817V34.8032ZM101.613 33.8423C101.609 33.354 101.494 32.9751 101.268 32.7056C101.041 32.4321 100.729 32.2954 100.33 32.2954C99.9395 32.2954 99.6074 32.438 99.334 32.7231C99.0645 33.0083 98.8984 33.3813 98.8359 33.8423H101.613ZM109.236 31.4341L107.238 34.4692L109.213 37.4341H107.637L106.582 35.5767C106.516 35.4634 106.438 35.3188 106.348 35.1431H106.324C106.309 35.1782 106.227 35.3228 106.078 35.5767L105.006 37.4341H103.436L105.475 34.4927L103.541 31.4341H105.123L106.16 33.3853C106.238 33.5298 106.314 33.6782 106.389 33.8306H106.406L107.748 31.4341H109.236ZM113.396 37.3696C113.131 37.5024 112.781 37.5688 112.348 37.5688C111.184 37.5688 110.602 37.0103 110.602 35.8931V32.5005H109.6V31.4341H110.602V30.0454L111.961 29.6587V31.4341H113.396V32.5005H111.961V35.5005C111.961 35.856 112.025 36.1099 112.154 36.2622C112.283 36.4146 112.498 36.4907 112.799 36.4907C113.029 36.4907 113.229 36.4243 113.396 36.2915V37.3696ZM123.205 37.4341H121.846V34.1528C121.846 32.9653 121.449 32.3716 120.656 32.3716C120.258 32.3716 119.922 32.5435 119.648 32.8872C119.375 33.231 119.238 33.6704 119.238 34.2056V37.4341H117.873V28.5513H119.238V32.4302H119.262C119.715 31.6724 120.363 31.2935 121.207 31.2935C122.539 31.2935 123.205 32.1079 123.205 33.7368V37.4341ZM129.938 34.8032H125.848C125.863 35.3579 126.033 35.7856 126.357 36.0864C126.686 36.3872 127.135 36.5376 127.705 36.5376C128.346 36.5376 128.934 36.3462 129.469 35.9634V37.0591C128.922 37.4028 128.199 37.5747 127.301 37.5747C126.418 37.5747 125.725 37.3032 125.221 36.7603C124.721 36.2134 124.471 35.4458 124.471 34.4575C124.471 33.5239 124.746 32.7642 125.297 32.1782C125.852 31.5884 126.539 31.2935 127.359 31.2935C128.18 31.2935 128.814 31.5571 129.264 32.0845C129.713 32.6118 129.938 33.3442 129.938 34.2817V34.8032ZM128.625 33.8423C128.621 33.354 128.506 32.9751 128.279 32.7056C128.053 32.4321 127.74 32.2954 127.342 32.2954C126.951 32.2954 126.619 32.438 126.346 32.7231C126.076 33.0083 125.91 33.3813 125.848 33.8423H128.625ZM134.713 32.729C134.549 32.6001 134.312 32.5356 134.004 32.5356C133.602 32.5356 133.266 32.7173 132.996 33.0806C132.727 33.4438 132.592 33.938 132.592 34.563V37.4341H131.232V31.4341H132.592V32.6704H132.615C132.748 32.2485 132.951 31.9204 133.225 31.686C133.502 31.4478 133.811 31.3286 134.15 31.3286C134.396 31.3286 134.584 31.3657 134.713 31.4399V32.729ZM140.648 34.8032H136.559C136.574 35.3579 136.744 35.7856 137.068 36.0864C137.396 36.3872 137.846 36.5376 138.416 36.5376C139.057 36.5376 139.645 36.3462 140.18 35.9634V37.0591C139.633 37.4028 138.91 37.5747 138.012 37.5747C137.129 37.5747 136.436 37.3032 135.932 36.7603C135.432 36.2134 135.182 35.4458 135.182 34.4575C135.182 33.5239 135.457 32.7642 136.008 32.1782C136.562 31.5884 137.25 31.2935 138.07 31.2935C138.891 31.2935 139.525 31.5571 139.975 32.0845C140.424 32.6118 140.648 33.3442 140.648 34.2817V34.8032ZM139.336 33.8423C139.332 33.354 139.217 32.9751 138.99 32.7056C138.764 32.4321 138.451 32.2954 138.053 32.2954C137.662 32.2954 137.33 32.438 137.057 32.7231C136.787 33.0083 136.621 33.3813 136.559 33.8423H139.336Z" fill="white"/>
</svg>
