<svg width="290" height="170" viewBox="0 0 290 170" fill="none" xmlns="http://www.w3.org/2000/svg">
<path d="M220.36 78.5941C218.344 78.5941 216.504 77.8261 215.8 75.8421L216.856 74.9141C217.352 76.6581 219.016 77.2821 220.36 77.2821C221.56 77.2821 222.568 76.8181 222.568 75.6501C222.568 74.4181 221.624 74.1141 220.2 73.7781L219.192 73.5541C217.768 73.2341 216.152 72.5941 216.152 70.5781C216.152 68.6261 217.848 67.5701 219.72 67.5701C221.656 67.5701 223.192 68.4181 223.848 70.0181L222.68 70.9461C222.168 69.4901 221.08 68.8981 219.688 68.8981C218.504 68.8981 217.624 69.4901 217.624 70.4821C217.624 71.5541 218.408 71.9541 219.64 72.2581L220.808 72.5461C222.328 72.9141 223.992 73.5061 223.992 75.6181C223.992 77.4741 222.44 78.5941 220.36 78.5941ZM229.149 78.5941C226.957 78.5941 225.437 77.0261 225.437 74.5621C225.437 72.1141 226.941 70.5301 229.069 70.5301C231.261 70.5301 232.589 71.9861 232.589 74.2581C232.589 74.4981 232.557 74.7381 232.525 74.8821H226.781C226.861 76.5141 227.773 77.4421 229.149 77.4421C230.701 77.4421 231.325 76.5941 231.629 75.9221L232.477 76.8821C231.901 77.8101 230.829 78.5941 229.149 78.5941ZM229.069 71.6981C227.821 71.6981 226.989 72.4341 226.813 73.8741H231.341C231.197 72.4501 230.365 71.6981 229.069 71.6981ZM235.776 78.4341H234.384V67.7141H235.776V78.4341ZM241.165 78.5941C238.973 78.5941 237.453 77.0261 237.453 74.5621C237.453 72.1141 238.957 70.5301 241.085 70.5301C243.277 70.5301 244.605 71.9861 244.605 74.2581C244.605 74.4981 244.573 74.7381 244.541 74.8821H238.797C238.877 76.5141 239.789 77.4421 241.165 77.4421C242.717 77.4421 243.341 76.5941 243.645 75.9221L244.493 76.8821C243.917 77.8101 242.845 78.5941 241.165 78.5941ZM241.085 71.6981C239.837 71.6981 239.005 72.4341 238.829 73.8741H243.357C243.213 72.4501 242.381 71.6981 241.085 71.6981ZM249.741 78.5941C247.517 78.5941 246.093 77.0261 246.093 74.5621C246.093 72.1141 247.517 70.5301 249.741 70.5301C251.757 70.5301 252.941 71.6981 253.309 73.2501L251.949 73.8101C251.789 72.5781 251.149 71.6981 249.757 71.6981C248.349 71.6981 247.501 72.7381 247.501 74.5621C247.501 76.3861 248.349 77.4421 249.757 77.4421C251.149 77.4421 251.789 76.5461 251.949 75.3141L253.309 75.8741C252.941 77.4261 251.757 78.5941 249.741 78.5941ZM257.445 78.6101C256.181 78.6101 255.285 77.7781 255.285 76.4501V71.7781H254.037V70.6901H255.285V69.6981L256.677 68.6741V70.6901H259.221V71.7781H256.677V76.0341C256.677 77.0261 257.141 77.2661 257.749 77.2661C258.437 77.2661 258.917 76.6901 259.125 76.2101L259.589 77.5861C259.253 78.1141 258.517 78.6101 257.445 78.6101ZM263.711 78.5941C261.519 78.5941 259.999 77.0261 259.999 74.5621C259.999 72.1141 261.503 70.5301 263.631 70.5301C265.823 70.5301 267.151 71.9861 267.151 74.2581C267.151 74.4981 267.119 74.7381 267.087 74.8821H261.343C261.423 76.5141 262.335 77.4421 263.711 77.4421C265.263 77.4421 265.887 76.5941 266.191 75.9221L267.039 76.8821C266.463 77.8101 265.391 78.5941 263.711 78.5941ZM263.631 71.6981C262.383 71.6981 261.551 72.4341 261.375 73.8741H265.903C265.759 72.4501 264.927 71.6981 263.631 71.6981ZM271.808 78.6261C269.856 78.6261 268.64 77.0261 268.64 74.5781C268.64 72.1301 269.856 70.5301 271.808 70.5301C273.296 70.5301 274.032 71.5221 274.304 72.7061V67.7141H275.696V78.4341H274.304V76.4501C274.032 77.6341 273.296 78.6261 271.808 78.6261ZM270.048 74.5781C270.048 76.5621 271.056 77.4581 272.272 77.4581C273.76 77.4581 274.304 76.4181 274.304 75.1381V74.0341C274.304 72.7541 273.76 71.7141 272.272 71.7141C271.056 71.7141 270.048 72.6101 270.048 74.5781Z" fill="#323232"/>
<path d="M217.608 107.434H216.216V96.7141H217.608V101.322H223.256V96.7141H224.648V107.434H223.256V102.554H217.608V107.434ZM229.957 107.594C227.813 107.594 226.309 106.01 226.309 103.562C226.309 101.114 227.813 99.5301 229.957 99.5301C232.101 99.5301 233.621 101.114 233.621 103.562C233.621 106.01 232.101 107.594 229.957 107.594ZM229.957 106.426C231.285 106.426 232.213 105.514 232.213 103.562C232.213 101.594 231.285 100.698 229.957 100.698C228.645 100.698 227.733 101.594 227.733 103.562C227.733 105.514 228.645 106.426 229.957 106.426ZM238.609 107.434H236.849L234.049 99.6901H235.553L237.089 104.282L237.761 106.41L238.417 104.282L239.937 99.6901H241.425L238.609 107.434ZM245.477 107.594C243.285 107.594 241.765 106.026 241.765 103.562C241.765 101.114 243.269 99.5301 245.397 99.5301C247.589 99.5301 248.917 100.986 248.917 103.258C248.917 103.498 248.885 103.738 248.853 103.882H243.109C243.189 105.514 244.101 106.442 245.477 106.442C247.029 106.442 247.653 105.594 247.957 104.922L248.805 105.882C248.229 106.81 247.157 107.594 245.477 107.594ZM245.397 100.698C244.149 100.698 243.317 101.434 243.141 102.874H247.669C247.525 101.45 246.693 100.698 245.397 100.698ZM252.073 107.434H250.681V99.6901H252.073V101.754C252.377 100.554 253.177 99.5141 254.489 99.5141C255.321 99.5141 256.121 100.106 256.121 101.194C256.121 101.85 255.945 102.33 255.817 102.522H254.297C254.553 102.298 254.761 101.818 254.761 101.386C254.761 100.938 254.521 100.554 253.961 100.554C252.969 100.554 252.073 101.722 252.073 103.05V107.434Z" fill="#323232"/>
<rect x="0.5" y="0.934082" width="289" height="168" rx="9.5" stroke="#7E40C7" stroke-dasharray="5 5"/>
<rect x="18.5" y="19.9341" width="182" height="29" rx="4.5" fill="white" stroke="#D9D9D9"/>
<path opacity="0.5" d="M32.1016 39.4341V31.0317H34.4219C37.3828 31.0317 38.8633 32.397 38.8633 35.1274C38.8633 36.4243 38.4512 37.4673 37.627 38.2563C36.8066 39.0415 35.707 39.4341 34.3281 39.4341H32.1016ZM33.0859 31.9224V38.5435H34.3398C35.4414 38.5435 36.2988 38.2485 36.9121 37.6587C37.5254 37.0688 37.832 36.2329 37.832 35.1509C37.832 32.9985 36.6875 31.9224 34.3984 31.9224H33.0859ZM43.5156 34.4067C43.3477 34.2778 43.1055 34.2134 42.7891 34.2134C42.3789 34.2134 42.0352 34.4067 41.7578 34.7935C41.4844 35.1802 41.3477 35.7075 41.3477 36.3755V39.4341H40.3867V33.4341H41.3477V34.6704H41.3711C41.5078 34.2485 41.7168 33.9204 41.998 33.686C42.2793 33.4478 42.5938 33.3286 42.9414 33.3286C43.1914 33.3286 43.3828 33.356 43.5156 33.4106V34.4067ZM47.0664 39.5747C46.1797 39.5747 45.4707 39.2954 44.9395 38.7368C44.4121 38.1743 44.1484 37.4302 44.1484 36.5044C44.1484 35.4966 44.4238 34.7095 44.9746 34.1431C45.5254 33.5767 46.2695 33.2935 47.207 33.2935C48.1016 33.2935 48.7988 33.5688 49.2988 34.1196C49.8027 34.6704 50.0547 35.4341 50.0547 36.4106C50.0547 37.3677 49.7832 38.1353 49.2402 38.7134C48.7012 39.2876 47.9766 39.5747 47.0664 39.5747ZM47.1367 34.1021C46.5195 34.1021 46.0312 34.313 45.6719 34.7349C45.3125 35.1528 45.1328 35.731 45.1328 36.4692C45.1328 37.1802 45.3145 37.7407 45.6777 38.1509C46.041 38.561 46.5273 38.7661 47.1367 38.7661C47.7578 38.7661 48.2344 38.5649 48.5664 38.1626C48.9023 37.7603 49.0703 37.188 49.0703 36.4458C49.0703 35.6958 48.9023 35.1177 48.5664 34.7114C48.2344 34.3052 47.7578 34.1021 47.1367 34.1021ZM52.5742 38.5669H52.5508V42.1938H51.5898V33.4341H52.5508V34.4888H52.5742C53.0469 33.6919 53.7383 33.2935 54.6484 33.2935C55.4219 33.2935 56.0254 33.563 56.459 34.1021C56.8926 34.6372 57.1094 35.356 57.1094 36.2583C57.1094 37.2622 56.8652 38.0669 56.377 38.6724C55.8887 39.2739 55.2207 39.5747 54.373 39.5747C53.5957 39.5747 52.9961 39.2388 52.5742 38.5669ZM52.5508 36.147V36.9849C52.5508 37.481 52.7109 37.9028 53.0312 38.2505C53.3555 38.5942 53.7656 38.7661 54.2617 38.7661C54.8438 38.7661 55.2988 38.5435 55.627 38.0981C55.959 37.6528 56.125 37.0337 56.125 36.2407C56.125 35.5728 55.9707 35.0493 55.6621 34.6704C55.3535 34.2915 54.9355 34.1021 54.4082 34.1021C53.8496 34.1021 53.4004 34.2974 53.0605 34.688C52.7207 35.0747 52.5508 35.561 52.5508 36.147ZM67.0586 39.4341H66.0977V38.4146H66.0742C65.6289 39.188 64.9414 39.5747 64.0117 39.5747C63.2578 39.5747 62.6543 39.3071 62.2012 38.772C61.752 38.2329 61.5273 37.5005 61.5273 36.5747C61.5273 35.5825 61.7773 34.7876 62.2773 34.1899C62.7773 33.5923 63.4434 33.2935 64.2754 33.2935C65.0996 33.2935 65.6992 33.6177 66.0742 34.2661H66.0977V30.5513H67.0586V39.4341ZM66.0977 36.7212V35.8364C66.0977 35.3521 65.9375 34.9419 65.6172 34.606C65.2969 34.27 64.8906 34.1021 64.3984 34.1021C63.8125 34.1021 63.3516 34.3169 63.0156 34.7466C62.6797 35.1763 62.5117 35.77 62.5117 36.5278C62.5117 37.2192 62.6719 37.7661 62.9922 38.1685C63.3164 38.5669 63.75 38.7661 64.293 38.7661C64.8281 38.7661 65.2617 38.5728 65.5938 38.186C65.9297 37.7993 66.0977 37.311 66.0977 36.7212ZM71.5117 39.5747C70.625 39.5747 69.916 39.2954 69.3848 38.7368C68.8574 38.1743 68.5938 37.4302 68.5938 36.5044C68.5938 35.4966 68.8691 34.7095 69.4199 34.1431C69.9707 33.5767 70.7148 33.2935 71.6523 33.2935C72.5469 33.2935 73.2441 33.5688 73.7441 34.1196C74.248 34.6704 74.5 35.4341 74.5 36.4106C74.5 37.3677 74.2285 38.1353 73.6855 38.7134C73.1465 39.2876 72.4219 39.5747 71.5117 39.5747ZM71.582 34.1021C70.9648 34.1021 70.4766 34.313 70.1172 34.7349C69.7578 35.1528 69.5781 35.731 69.5781 36.4692C69.5781 37.1802 69.7598 37.7407 70.123 38.1509C70.4863 38.561 70.9727 38.7661 71.582 38.7661C72.2031 38.7661 72.6797 38.5649 73.0117 38.1626C73.3477 37.7603 73.5156 37.188 73.5156 36.4458C73.5156 35.6958 73.3477 35.1177 73.0117 34.7114C72.6797 34.3052 72.2031 34.1021 71.582 34.1021ZM83.5938 33.4341L81.7949 39.4341H80.7988L79.5625 35.1392C79.5156 34.9751 79.4844 34.7896 79.4688 34.5825H79.4453C79.4336 34.7231 79.3926 34.9048 79.3223 35.1274L77.9805 39.4341H77.0195L75.2031 33.4341H76.2109L77.4531 37.9458C77.4922 38.0825 77.5195 38.2622 77.5352 38.4849H77.582C77.5938 38.313 77.6289 38.1294 77.6875 37.9341L79.0703 33.4341H79.9492L81.1914 37.9575C81.2305 38.1021 81.2598 38.2817 81.2793 38.4966H81.3262C81.334 38.3442 81.3672 38.1646 81.4258 37.9575L82.6445 33.4341H83.5938ZM89.6875 39.4341H88.7266V36.0122C88.7266 34.7388 88.2617 34.1021 87.332 34.1021C86.8516 34.1021 86.4531 34.2837 86.1367 34.647C85.8242 35.0063 85.668 35.4614 85.668 36.0122V39.4341H84.707V33.4341H85.668V34.4302H85.6914C86.1445 33.6724 86.8008 33.2935 87.6602 33.2935C88.3164 33.2935 88.8184 33.5063 89.166 33.9321C89.5137 34.354 89.6875 34.9653 89.6875 35.7661V39.4341Z" fill="#5E5E5E"/>
<path d="M182 33.4341L184.881 36.19C185.222 36.5154 185.778 36.5154 186.119 36.19L189 33.4341" stroke="#7C7D80" stroke-miterlimit="10" stroke-linecap="round" stroke-linejoin="round"/>
<g filter="url(#filter0_d_672_753)">
<rect x="18" y="56.4341" width="183" height="90" rx="5" fill="#FDFDFD"/>
</g>
<path d="M18 61.4341C18 58.6727 20.2386 56.4341 23 56.4341H196C198.761 56.4341 201 58.6727 201 61.4341V86.4341H18V61.4341Z" fill="#F0F8FF"/>
<rect x="18" y="86.4341" width="183" height="30" fill="#F5F5F5"/>
<path opacity="0.5" d="M32.4883 76.5747C31.2969 76.5747 30.3418 76.1821 29.623 75.397C28.9082 74.6118 28.5508 73.5903 28.5508 72.3325C28.5508 70.981 28.916 69.9028 29.6465 69.0981C30.377 68.2935 31.3711 67.8911 32.6289 67.8911C33.7891 67.8911 34.7227 68.2817 35.4297 69.063C36.1406 69.8442 36.4961 70.8657 36.4961 72.1274C36.4961 73.4985 36.1328 74.5825 35.4062 75.3794C34.6797 76.1763 33.707 76.5747 32.4883 76.5747ZM32.5586 68.7817C31.6758 68.7817 30.959 69.1001 30.4082 69.7368C29.8574 70.3735 29.582 71.2095 29.582 72.2446C29.582 73.2798 29.8496 74.1138 30.3848 74.7466C30.9238 75.3755 31.625 75.6899 32.4883 75.6899C33.4102 75.6899 34.1367 75.3892 34.668 74.7876C35.1992 74.186 35.4648 73.3442 35.4648 72.2622C35.4648 71.1528 35.207 70.2954 34.6914 69.6899C34.1758 69.0845 33.4648 68.7817 32.5586 68.7817ZM39.0039 75.5669H38.9805V79.1938H38.0195V70.4341H38.9805V71.4888H39.0039C39.4766 70.6919 40.168 70.2935 41.0781 70.2935C41.8516 70.2935 42.4551 70.563 42.8887 71.1021C43.3223 71.6372 43.5391 72.356 43.5391 73.2583C43.5391 74.2622 43.2949 75.0669 42.8066 75.6724C42.3184 76.2739 41.6504 76.5747 40.8027 76.5747C40.0254 76.5747 39.4258 76.2388 39.0039 75.5669ZM38.9805 73.147V73.9849C38.9805 74.481 39.1406 74.9028 39.4609 75.2505C39.7852 75.5942 40.1953 75.7661 40.6914 75.7661C41.2734 75.7661 41.7285 75.5435 42.0566 75.0981C42.3887 74.6528 42.5547 74.0337 42.5547 73.2407C42.5547 72.5728 42.4004 72.0493 42.0918 71.6704C41.7832 71.2915 41.3652 71.1021 40.8379 71.1021C40.2793 71.1021 39.8301 71.2974 39.4902 71.688C39.1504 72.0747 38.9805 72.561 38.9805 73.147ZM47.8574 76.3755C47.6309 76.5005 47.332 76.563 46.9609 76.563C45.9102 76.563 45.3848 75.9771 45.3848 74.8052V71.2544H44.3535V70.4341H45.3848V68.9692L46.3457 68.6587V70.4341H47.8574V71.2544H46.3457V74.6353C46.3457 75.0376 46.4141 75.3247 46.5508 75.4966C46.6875 75.6685 46.9141 75.7544 47.2305 75.7544C47.4727 75.7544 47.6816 75.688 47.8574 75.5552V76.3755ZM49.6328 68.9106C49.4609 68.9106 49.3145 68.8521 49.1934 68.7349C49.0723 68.6177 49.0117 68.4692 49.0117 68.2896C49.0117 68.1099 49.0723 67.9614 49.1934 67.8442C49.3145 67.7231 49.4609 67.6626 49.6328 67.6626C49.8086 67.6626 49.957 67.7231 50.0781 67.8442C50.2031 67.9614 50.2656 68.1099 50.2656 68.2896C50.2656 68.4614 50.2031 68.6079 50.0781 68.729C49.957 68.8501 49.8086 68.9106 49.6328 68.9106ZM50.1016 76.4341H49.1406V70.4341H50.1016V76.4341ZM54.5547 76.5747C53.668 76.5747 52.959 76.2954 52.4277 75.7368C51.9004 75.1743 51.6367 74.4302 51.6367 73.5044C51.6367 72.4966 51.9121 71.7095 52.4629 71.1431C53.0137 70.5767 53.7578 70.2935 54.6953 70.2935C55.5898 70.2935 56.2871 70.5688 56.7871 71.1196C57.291 71.6704 57.543 72.4341 57.543 73.4106C57.543 74.3677 57.2715 75.1353 56.7285 75.7134C56.1895 76.2876 55.4648 76.5747 54.5547 76.5747ZM54.625 71.1021C54.0078 71.1021 53.5195 71.313 53.1602 71.7349C52.8008 72.1528 52.6211 72.731 52.6211 73.4692C52.6211 74.1802 52.8027 74.7407 53.166 75.1509C53.5293 75.561 54.0156 75.7661 54.625 75.7661C55.2461 75.7661 55.7227 75.5649 56.0547 75.1626C56.3906 74.7603 56.5586 74.188 56.5586 73.4458C56.5586 72.6958 56.3906 72.1177 56.0547 71.7114C55.7227 71.3052 55.2461 71.1021 54.625 71.1021ZM64.0586 76.4341H63.0977V73.0122C63.0977 71.7388 62.6328 71.1021 61.7031 71.1021C61.2227 71.1021 60.8242 71.2837 60.5078 71.647C60.1953 72.0063 60.0391 72.4614 60.0391 73.0122V76.4341H59.0781V70.4341H60.0391V71.4302H60.0625C60.5156 70.6724 61.1719 70.2935 62.0312 70.2935C62.6875 70.2935 63.1895 70.5063 63.5371 70.9321C63.8848 71.354 64.0586 71.9653 64.0586 72.7661V76.4341ZM72.4375 76.4341H71.4766V69.1743C71.4023 69.2485 71.293 69.3345 71.1484 69.4321C71.0078 69.5259 70.8477 69.6196 70.668 69.7134C70.4922 69.8071 70.3047 69.895 70.1055 69.9771C69.9102 70.0591 69.7188 70.1235 69.5312 70.1704V69.1978C69.7422 69.1392 69.9648 69.061 70.1992 68.9634C70.4375 68.8618 70.6699 68.7505 70.8965 68.6294C71.127 68.5044 71.3438 68.3755 71.5469 68.2427C71.75 68.106 71.9258 67.9731 72.0742 67.8442H72.4375V76.4341Z" fill="#5E5E5E"/>
<path opacity="0.5" d="M32.4883 106.575C31.2969 106.575 30.3418 106.182 29.623 105.397C28.9082 104.612 28.5508 103.59 28.5508 102.333C28.5508 100.981 28.916 99.9028 29.6465 99.0981C30.377 98.2935 31.3711 97.8911 32.6289 97.8911C33.7891 97.8911 34.7227 98.2817 35.4297 99.063C36.1406 99.8442 36.4961 100.866 36.4961 102.127C36.4961 103.499 36.1328 104.583 35.4062 105.379C34.6797 106.176 33.707 106.575 32.4883 106.575ZM32.5586 98.7817C31.6758 98.7817 30.959 99.1001 30.4082 99.7368C29.8574 100.374 29.582 101.209 29.582 102.245C29.582 103.28 29.8496 104.114 30.3848 104.747C30.9238 105.375 31.625 105.69 32.4883 105.69C33.4102 105.69 34.1367 105.389 34.668 104.788C35.1992 104.186 35.4648 103.344 35.4648 102.262C35.4648 101.153 35.207 100.295 34.6914 99.6899C34.1758 99.0845 33.4648 98.7817 32.5586 98.7817ZM39.0039 105.567H38.9805V109.194H38.0195V100.434H38.9805V101.489H39.0039C39.4766 100.692 40.168 100.293 41.0781 100.293C41.8516 100.293 42.4551 100.563 42.8887 101.102C43.3223 101.637 43.5391 102.356 43.5391 103.258C43.5391 104.262 43.2949 105.067 42.8066 105.672C42.3184 106.274 41.6504 106.575 40.8027 106.575C40.0254 106.575 39.4258 106.239 39.0039 105.567ZM38.9805 103.147V103.985C38.9805 104.481 39.1406 104.903 39.4609 105.25C39.7852 105.594 40.1953 105.766 40.6914 105.766C41.2734 105.766 41.7285 105.543 42.0566 105.098C42.3887 104.653 42.5547 104.034 42.5547 103.241C42.5547 102.573 42.4004 102.049 42.0918 101.67C41.7832 101.292 41.3652 101.102 40.8379 101.102C40.2793 101.102 39.8301 101.297 39.4902 101.688C39.1504 102.075 38.9805 102.561 38.9805 103.147ZM47.8574 106.375C47.6309 106.5 47.332 106.563 46.9609 106.563C45.9102 106.563 45.3848 105.977 45.3848 104.805V101.254H44.3535V100.434H45.3848V98.9692L46.3457 98.6587V100.434H47.8574V101.254H46.3457V104.635C46.3457 105.038 46.4141 105.325 46.5508 105.497C46.6875 105.668 46.9141 105.754 47.2305 105.754C47.4727 105.754 47.6816 105.688 47.8574 105.555V106.375ZM49.6328 98.9106C49.4609 98.9106 49.3145 98.8521 49.1934 98.7349C49.0723 98.6177 49.0117 98.4692 49.0117 98.2896C49.0117 98.1099 49.0723 97.9614 49.1934 97.8442C49.3145 97.7231 49.4609 97.6626 49.6328 97.6626C49.8086 97.6626 49.957 97.7231 50.0781 97.8442C50.2031 97.9614 50.2656 98.1099 50.2656 98.2896C50.2656 98.4614 50.2031 98.6079 50.0781 98.729C49.957 98.8501 49.8086 98.9106 49.6328 98.9106ZM50.1016 106.434H49.1406V100.434H50.1016V106.434ZM54.5547 106.575C53.668 106.575 52.959 106.295 52.4277 105.737C51.9004 105.174 51.6367 104.43 51.6367 103.504C51.6367 102.497 51.9121 101.709 52.4629 101.143C53.0137 100.577 53.7578 100.293 54.6953 100.293C55.5898 100.293 56.2871 100.569 56.7871 101.12C57.291 101.67 57.543 102.434 57.543 103.411C57.543 104.368 57.2715 105.135 56.7285 105.713C56.1895 106.288 55.4648 106.575 54.5547 106.575ZM54.625 101.102C54.0078 101.102 53.5195 101.313 53.1602 101.735C52.8008 102.153 52.6211 102.731 52.6211 103.469C52.6211 104.18 52.8027 104.741 53.166 105.151C53.5293 105.561 54.0156 105.766 54.625 105.766C55.2461 105.766 55.7227 105.565 56.0547 105.163C56.3906 104.76 56.5586 104.188 56.5586 103.446C56.5586 102.696 56.3906 102.118 56.0547 101.711C55.7227 101.305 55.2461 101.102 54.625 101.102ZM64.0586 106.434H63.0977V103.012C63.0977 101.739 62.6328 101.102 61.7031 101.102C61.2227 101.102 60.8242 101.284 60.5078 101.647C60.1953 102.006 60.0391 102.461 60.0391 103.012V106.434H59.0781V100.434H60.0391V101.43H60.0625C60.5156 100.672 61.1719 100.293 62.0312 100.293C62.6875 100.293 63.1895 100.506 63.5371 100.932C63.8848 101.354 64.0586 101.965 64.0586 102.766V106.434ZM72.7188 100.235C72.7188 99.9771 72.6777 99.7524 72.5957 99.561C72.5176 99.3696 72.4082 99.2114 72.2676 99.0864C72.1309 98.9575 71.9688 98.8618 71.7812 98.7993C71.5938 98.7368 71.3906 98.7056 71.1719 98.7056C70.9844 98.7056 70.8008 98.731 70.6211 98.7817C70.4414 98.8325 70.2656 98.9028 70.0938 98.9927C69.9258 99.0825 69.7617 99.1899 69.6016 99.3149C69.4453 99.4399 69.2988 99.5786 69.1621 99.731V98.6997C69.4316 98.438 69.7324 98.2388 70.0645 98.1021C70.4004 97.9614 70.8086 97.8911 71.2891 97.8911C71.6328 97.8911 71.9512 97.9419 72.2441 98.0435C72.5371 98.1411 72.791 98.2856 73.0059 98.4771C73.2207 98.6685 73.3887 98.9048 73.5098 99.186C73.6348 99.4673 73.6973 99.7896 73.6973 100.153C73.6973 100.485 73.6582 100.786 73.5801 101.055C73.5059 101.325 73.3906 101.579 73.2344 101.817C73.082 102.055 72.8887 102.284 72.6543 102.502C72.4199 102.721 72.1445 102.944 71.8281 103.17C71.4336 103.452 71.1074 103.692 70.8496 103.891C70.5957 104.09 70.3926 104.278 70.2402 104.454C70.0918 104.625 69.9863 104.799 69.9238 104.975C69.8652 105.147 69.8359 105.346 69.8359 105.573H74.0195V106.434H68.834V106.018C68.834 105.659 68.873 105.342 68.9512 105.069C69.0293 104.795 69.1582 104.536 69.3379 104.29C69.5176 104.043 69.752 103.797 70.041 103.551C70.334 103.305 70.6914 103.028 71.1133 102.719C71.418 102.5 71.6719 102.292 71.875 102.092C72.082 101.893 72.248 101.694 72.373 101.495C72.498 101.295 72.5859 101.094 72.6367 100.891C72.6914 100.684 72.7188 100.465 72.7188 100.235Z" fill="#5E5E5E"/>
<path opacity="0.5" d="M32.4883 135.575C31.2969 135.575 30.3418 135.182 29.623 134.397C28.9082 133.612 28.5508 132.59 28.5508 131.333C28.5508 129.981 28.916 128.903 29.6465 128.098C30.377 127.293 31.3711 126.891 32.6289 126.891C33.7891 126.891 34.7227 127.282 35.4297 128.063C36.1406 128.844 36.4961 129.866 36.4961 131.127C36.4961 132.499 36.1328 133.583 35.4062 134.379C34.6797 135.176 33.707 135.575 32.4883 135.575ZM32.5586 127.782C31.6758 127.782 30.959 128.1 30.4082 128.737C29.8574 129.374 29.582 130.209 29.582 131.245C29.582 132.28 29.8496 133.114 30.3848 133.747C30.9238 134.375 31.625 134.69 32.4883 134.69C33.4102 134.69 34.1367 134.389 34.668 133.788C35.1992 133.186 35.4648 132.344 35.4648 131.262C35.4648 130.153 35.207 129.295 34.6914 128.69C34.1758 128.084 33.4648 127.782 32.5586 127.782ZM39.0039 134.567H38.9805V138.194H38.0195V129.434H38.9805V130.489H39.0039C39.4766 129.692 40.168 129.293 41.0781 129.293C41.8516 129.293 42.4551 129.563 42.8887 130.102C43.3223 130.637 43.5391 131.356 43.5391 132.258C43.5391 133.262 43.2949 134.067 42.8066 134.672C42.3184 135.274 41.6504 135.575 40.8027 135.575C40.0254 135.575 39.4258 135.239 39.0039 134.567ZM38.9805 132.147V132.985C38.9805 133.481 39.1406 133.903 39.4609 134.25C39.7852 134.594 40.1953 134.766 40.6914 134.766C41.2734 134.766 41.7285 134.543 42.0566 134.098C42.3887 133.653 42.5547 133.034 42.5547 132.241C42.5547 131.573 42.4004 131.049 42.0918 130.67C41.7832 130.292 41.3652 130.102 40.8379 130.102C40.2793 130.102 39.8301 130.297 39.4902 130.688C39.1504 131.075 38.9805 131.561 38.9805 132.147ZM47.8574 135.375C47.6309 135.5 47.332 135.563 46.9609 135.563C45.9102 135.563 45.3848 134.977 45.3848 133.805V130.254H44.3535V129.434H45.3848V127.969L46.3457 127.659V129.434H47.8574V130.254H46.3457V133.635C46.3457 134.038 46.4141 134.325 46.5508 134.497C46.6875 134.668 46.9141 134.754 47.2305 134.754C47.4727 134.754 47.6816 134.688 47.8574 134.555V135.375ZM49.6328 127.911C49.4609 127.911 49.3145 127.852 49.1934 127.735C49.0723 127.618 49.0117 127.469 49.0117 127.29C49.0117 127.11 49.0723 126.961 49.1934 126.844C49.3145 126.723 49.4609 126.663 49.6328 126.663C49.8086 126.663 49.957 126.723 50.0781 126.844C50.2031 126.961 50.2656 127.11 50.2656 127.29C50.2656 127.461 50.2031 127.608 50.0781 127.729C49.957 127.85 49.8086 127.911 49.6328 127.911ZM50.1016 135.434H49.1406V129.434H50.1016V135.434ZM54.5547 135.575C53.668 135.575 52.959 135.295 52.4277 134.737C51.9004 134.174 51.6367 133.43 51.6367 132.504C51.6367 131.497 51.9121 130.709 52.4629 130.143C53.0137 129.577 53.7578 129.293 54.6953 129.293C55.5898 129.293 56.2871 129.569 56.7871 130.12C57.291 130.67 57.543 131.434 57.543 132.411C57.543 133.368 57.2715 134.135 56.7285 134.713C56.1895 135.288 55.4648 135.575 54.5547 135.575ZM54.625 130.102C54.0078 130.102 53.5195 130.313 53.1602 130.735C52.8008 131.153 52.6211 131.731 52.6211 132.469C52.6211 133.18 52.8027 133.741 53.166 134.151C53.5293 134.561 54.0156 134.766 54.625 134.766C55.2461 134.766 55.7227 134.565 56.0547 134.163C56.3906 133.76 56.5586 133.188 56.5586 132.446C56.5586 131.696 56.3906 131.118 56.0547 130.711C55.7227 130.305 55.2461 130.102 54.625 130.102ZM64.0586 135.434H63.0977V132.012C63.0977 130.739 62.6328 130.102 61.7031 130.102C61.2227 130.102 60.8242 130.284 60.5078 130.647C60.1953 131.006 60.0391 131.461 60.0391 132.012V135.434H59.0781V129.434H60.0391V130.43H60.0625C60.5156 129.672 61.1719 129.293 62.0312 129.293C62.6875 129.293 63.1895 129.506 63.5371 129.932C63.8848 130.354 64.0586 130.965 64.0586 131.766V135.434ZM73.7793 133.055C73.7793 133.434 73.707 133.78 73.5625 134.092C73.4219 134.401 73.2207 134.667 72.959 134.889C72.7012 135.108 72.3906 135.278 72.0273 135.399C71.6641 135.52 71.2637 135.581 70.8262 135.581C70.0254 135.581 69.3887 135.428 68.916 135.124V134.092C69.4824 134.538 70.1309 134.76 70.8613 134.76C71.1543 134.76 71.418 134.723 71.6523 134.649C71.8906 134.575 72.0938 134.467 72.2617 134.327C72.4336 134.186 72.5645 134.016 72.6543 133.817C72.748 133.618 72.7949 133.393 72.7949 133.143C72.7949 132.045 72.0137 131.497 70.4512 131.497H69.7539V130.682H70.416C71.7988 130.682 72.4902 130.167 72.4902 129.135C72.4902 128.182 71.9629 127.706 70.9082 127.706C70.3145 127.706 69.7578 127.905 69.2383 128.303V127.372C69.7734 127.051 70.4102 126.891 71.1484 126.891C71.5 126.891 71.8184 126.94 72.1035 127.038C72.3887 127.135 72.6328 127.272 72.8359 127.448C73.0391 127.624 73.1953 127.834 73.3047 128.081C73.418 128.327 73.4746 128.598 73.4746 128.895C73.4746 130 72.916 130.711 71.7988 131.028V131.051C72.084 131.083 72.3477 131.153 72.5898 131.262C72.832 131.368 73.041 131.506 73.2168 131.678C73.3926 131.85 73.5293 132.053 73.627 132.288C73.7285 132.518 73.7793 132.774 73.7793 133.055Z" fill="#5E5E5E"/>
<defs>
<filter id="filter0_d_672_753" x="12" y="51.4341" width="195" height="102" filterUnits="userSpaceOnUse" color-interpolation-filters="sRGB">
<feFlood flood-opacity="0" result="BackgroundImageFix"/>
<feColorMatrix in="SourceAlpha" type="matrix" values="0 0 0 0 0 0 0 0 0 0 0 0 0 0 0 0 0 0 127 0" result="hardAlpha"/>
<feOffset dy="1"/>
<feGaussianBlur stdDeviation="3"/>
<feComposite in2="hardAlpha" operator="out"/>
<feColorMatrix type="matrix" values="0 0 0 0 0 0 0 0 0 0 0 0 0 0 0 0 0 0 0.1 0"/>
<feBlend mode="normal" in2="BackgroundImageFix" result="effect1_dropShadow_672_753"/>
<feBlend mode="normal" in="SourceGraphic" in2="effect1_dropShadow_672_753" result="shape"/>
</filter>
</defs>
</svg>
