<svg width="1063" height="239" viewBox="0 0 1063 239" fill="none" xmlns="http://www.w3.org/2000/svg">
<path d="M491.34 198.625H489.6V187.625H487.2V186.425C488.28 186.425 489.24 186.105 489.88 185.225H491.34V198.625ZM503 198.625H493.88V197.265L498.26 192.945C499.72 191.505 500.86 190.265 500.86 188.785C500.86 187.705 500.26 186.705 498.74 186.705C496.5 186.705 495.24 188.145 495.58 190.805L493.96 189.785C493.68 187.145 495.78 185.025 498.86 185.025C501.48 185.025 502.66 186.605 502.66 188.665C502.66 190.865 500.56 192.865 499.34 194.025L497.26 195.985L495.82 197.205L497.46 197.085H503V198.625ZM513.656 198.825C510.876 198.825 509.096 196.865 509.096 193.785C509.096 190.725 510.876 188.745 513.656 188.745C516.176 188.745 517.656 190.205 518.116 192.145L516.416 192.845C516.216 191.305 515.416 190.205 513.676 190.205C511.916 190.205 510.856 191.505 510.856 193.785C510.856 196.065 511.916 197.385 513.676 197.385C515.416 197.385 516.216 196.265 516.416 194.725L518.116 195.425C517.656 197.365 516.176 198.825 513.656 198.825ZM523.888 198.825C521.208 198.825 519.328 196.845 519.328 193.785C519.328 190.725 521.208 188.745 523.888 188.745C526.568 188.745 528.468 190.725 528.468 193.785C528.468 196.845 526.568 198.825 523.888 198.825ZM523.888 197.365C525.548 197.365 526.708 196.225 526.708 193.785C526.708 191.325 525.548 190.205 523.888 190.205C522.248 190.205 521.108 191.325 521.108 193.785C521.108 196.225 522.248 197.365 523.888 197.365ZM532.431 198.625H530.691V185.225H532.431V198.625ZM538.067 198.825C536.167 198.825 534.987 197.685 534.987 195.645V188.945H536.707V195.225C536.707 196.465 537.207 197.365 538.847 197.365C540.727 197.365 541.407 196.045 541.407 194.445V188.945H543.127V198.625H541.407V195.985C541.047 197.505 540.007 198.825 538.067 198.825ZM547.509 198.625H545.769V188.945H547.509V191.505C547.889 190.025 548.889 188.745 550.629 188.745C552.409 188.745 553.389 189.765 553.489 191.585C553.869 190.045 554.869 188.745 556.629 188.745C558.529 188.745 559.509 189.885 559.509 191.925V198.625H557.789V192.345C557.789 190.925 557.109 190.225 555.669 190.225C554.189 190.225 553.509 191.525 553.509 193.145V198.625H551.769V192.345C551.769 190.925 551.109 190.225 549.649 190.225C548.189 190.225 547.509 191.525 547.509 193.145V198.625ZM563.837 198.625H562.097V188.945H563.837V191.525C564.217 190.025 565.257 188.745 567.157 188.745C569.057 188.745 570.237 189.885 570.237 191.945V198.625H568.517V192.365C568.517 191.105 568.017 190.225 566.377 190.225C564.517 190.225 563.837 191.525 563.837 193.145V198.625ZM576.287 198.825C574.267 198.825 572.427 197.945 571.767 196.145L573.027 195.165C573.367 196.265 574.427 197.365 576.347 197.365C577.487 197.365 578.247 196.925 578.247 196.065C578.247 195.185 577.367 194.905 576.227 194.645L574.947 194.345C573.567 194.025 572.067 193.365 572.067 191.585C572.067 189.825 573.427 188.745 575.527 188.745C577.567 188.745 578.987 189.825 579.527 191.105L578.207 192.085C577.727 190.945 576.807 190.225 575.427 190.225C574.427 190.225 573.707 190.665 573.707 191.485C573.707 192.345 574.347 192.645 575.667 192.965L576.907 193.285C579.087 193.805 579.807 194.705 579.807 196.045C579.807 197.965 578.167 198.825 576.287 198.825Z" fill="#E8505B"/>
<path d="M507.84 231.625H506.1V220.625H503.7V219.425C504.78 219.425 505.74 219.105 506.38 218.225H507.84V231.625ZM519.5 231.625H510.38V230.265L514.76 225.945C516.22 224.505 517.36 223.265 517.36 221.785C517.36 220.705 516.76 219.705 515.24 219.705C513 219.705 511.74 221.145 512.08 223.805L510.46 222.785C510.18 220.145 512.28 218.025 515.36 218.025C517.98 218.025 519.16 219.605 519.16 221.665C519.16 223.865 517.06 225.865 515.84 227.025L513.76 228.985L512.32 230.205L513.96 230.085H519.5V231.625ZM526.169 231.825C522.829 231.825 521.249 230.345 521.249 228.185C521.249 226.825 521.989 225.365 524.189 224.825C522.449 224.545 521.649 223.245 521.649 221.705C521.649 219.685 523.229 218.025 526.169 218.025C529.089 218.025 530.689 219.685 530.689 221.685C530.689 223.245 529.769 224.545 528.049 224.825C530.249 225.365 531.089 226.825 531.089 228.185C531.089 230.345 529.489 231.825 526.169 231.825ZM526.169 224.125C527.909 224.125 528.869 223.185 528.869 221.905C528.869 220.745 528.089 219.665 526.169 219.665C524.249 219.665 523.489 220.745 523.489 221.905C523.489 223.185 524.229 224.125 526.169 224.125ZM526.169 230.185C528.509 230.185 529.069 229.085 529.069 227.885C529.069 226.545 528.109 225.525 526.169 225.525C524.229 225.525 523.269 226.545 523.269 227.885C523.269 229.085 523.829 230.185 526.169 230.185ZM538.423 231.825C534.743 231.825 533.023 228.805 533.023 224.905C533.023 221.045 534.743 218.025 538.423 218.025C542.083 218.025 543.803 221.045 543.803 224.905C543.803 228.805 542.083 231.825 538.423 231.825ZM538.443 230.165C541.083 230.165 541.983 227.985 541.983 224.905C541.983 221.865 541.083 219.665 538.443 219.665C535.783 219.665 534.863 221.865 534.863 224.905C534.863 227.985 535.783 230.165 538.443 230.165ZM547.876 235.345H546.136V221.945H547.876V224.425C548.216 222.965 549.136 221.725 550.996 221.725C553.436 221.725 554.956 223.705 554.956 226.765C554.956 229.825 553.436 231.825 550.996 231.825C549.136 231.825 548.216 230.585 547.876 229.125V235.345ZM547.876 227.465C547.876 229.065 548.556 230.365 550.396 230.365C551.936 230.365 553.196 229.245 553.196 226.765C553.196 224.305 551.936 223.185 550.396 223.185C548.556 223.185 547.876 224.485 547.876 226.085V227.465ZM557.132 231.625H555.132L558.592 226.745L555.372 221.945H557.372L559.892 225.845L562.472 221.945H564.472L561.052 226.685L564.332 231.625H562.312L560.692 229.105L559.752 227.685L558.812 229.105L557.132 231.625Z" fill="#E8505B"/>
<path d="M10.4288 18.311H8.68875V15.111H1.94875V13.751L8.68875 4.91103H10.4288V13.571H12.8288V15.111H10.4288V18.311ZM3.92875 13.571H8.68875V7.43103L3.92875 13.571ZM19.4391 18.511C15.7591 18.511 14.0391 15.491 14.0391 11.591C14.0391 7.73103 15.7591 4.71104 19.4391 4.71104C23.0991 4.71104 24.8191 7.73103 24.8191 11.591C24.8191 15.491 23.0991 18.511 19.4391 18.511ZM19.4591 16.851C22.0991 16.851 22.9991 14.671 22.9991 11.591C22.9991 8.55103 22.0991 6.35103 19.4591 6.35103C16.7991 6.35103 15.8791 8.55103 15.8791 11.591C15.8791 14.671 16.7991 16.851 19.4591 16.851ZM28.892 22.031H27.152V8.63103H28.892V11.111C29.232 9.65103 30.152 8.41103 32.012 8.41103C34.452 8.41103 35.972 10.391 35.972 13.451C35.972 16.511 34.452 18.511 32.012 18.511C30.152 18.511 29.232 17.271 28.892 15.811V22.031ZM28.892 14.151C28.892 15.751 29.572 17.051 31.412 17.051C32.952 17.051 34.212 15.931 34.212 13.451C34.212 10.991 32.952 9.87103 31.412 9.87103C29.572 9.87103 28.892 11.171 28.892 12.771V14.151ZM38.1473 18.311H36.1473L39.6073 13.431L36.3873 8.63103H38.3873L40.9073 12.531L43.4873 8.63103H45.4873L42.0673 13.371L45.3473 18.311H43.3273L41.7073 15.791L40.7673 14.371L39.8273 15.791L38.1473 18.311Z" fill="#E8505B"/>
<path d="M187.815 18.311H178.695V16.951L183.075 12.631C184.535 11.191 185.675 9.95103 185.675 8.47103C185.675 7.39104 185.075 6.39103 183.555 6.39103C181.315 6.39103 180.055 7.83103 180.395 10.491L178.775 9.47103C178.495 6.83104 180.595 4.71104 183.675 4.71104C186.295 4.71104 187.475 6.29103 187.475 8.35103C187.475 10.551 185.375 12.551 184.155 13.711L182.075 15.671L180.635 16.891L182.275 16.771H187.815V18.311ZM194.843 18.511C191.163 18.511 189.443 15.491 189.443 11.591C189.443 7.73103 191.163 4.71104 194.843 4.71104C198.503 4.71104 200.223 7.73103 200.223 11.591C200.223 15.491 198.503 18.511 194.843 18.511ZM194.863 16.851C197.503 16.851 198.403 14.671 198.403 11.591C198.403 8.55103 197.503 6.35103 194.863 6.35103C192.203 6.35103 191.283 8.55103 191.283 11.591C191.283 14.671 192.203 16.851 194.863 16.851ZM204.296 22.031H202.556V8.63103H204.296V11.111C204.636 9.65103 205.556 8.41103 207.416 8.41103C209.856 8.41103 211.376 10.391 211.376 13.451C211.376 16.511 209.856 18.511 207.416 18.511C205.556 18.511 204.636 17.271 204.296 15.811V22.031ZM204.296 14.151C204.296 15.751 204.976 17.051 206.816 17.051C208.356 17.051 209.616 15.931 209.616 13.451C209.616 10.991 208.356 9.87103 206.816 9.87103C204.976 9.87103 204.296 11.171 204.296 12.771V14.151ZM213.552 18.311H211.552L215.012 13.431L211.792 8.63103H213.792L216.312 12.531L218.892 8.63103H220.892L217.472 13.371L220.752 18.311H218.732L217.112 15.791L216.172 14.371L215.232 15.791L213.552 18.311Z" fill="#E8505B"/>
<path d="M6.64645 32.7197C6.45118 32.915 6.45118 33.2315 6.64645 33.4268L9.82843 36.6088C10.0237 36.804 10.3403 36.804 10.5355 36.6088C10.7308 36.4135 10.7308 36.0969 10.5355 35.9017L7.70711 33.0732L10.5355 30.2448C10.7308 30.0496 10.7308 29.733 10.5355 29.5377C10.3403 29.3424 10.0237 29.3424 9.82843 29.5377L6.64645 32.7197ZM40.2911 33.4268C40.4863 33.2315 40.4863 32.915 40.2911 32.7197L37.1091 29.5377C36.9138 29.3424 36.5972 29.3424 36.402 29.5377C36.2067 29.733 36.2067 30.0496 36.402 30.2448L39.2304 33.0732L36.402 35.9017C36.2067 36.0969 36.2067 36.4135 36.402 36.6088C36.5972 36.804 36.9138 36.804 37.1091 36.6088L40.2911 33.4268ZM7 33.5732H39.9375V32.5732H7V33.5732Z" fill="#E8505B"/>
<path d="M190.547 32.7197C190.352 32.915 190.352 33.2315 190.547 33.4268L193.729 36.6088C193.924 36.804 194.241 36.804 194.436 36.6088C194.631 36.4135 194.631 36.0969 194.436 35.9017L191.607 33.0732L194.436 30.2448C194.631 30.0496 194.631 29.733 194.436 29.5377C194.241 29.3424 193.924 29.3424 193.729 29.5377L190.547 32.7197ZM207.723 33.4268C207.918 33.2315 207.918 32.915 207.723 32.7197L204.541 29.5377C204.345 29.3424 204.029 29.3424 203.834 29.5377C203.638 29.733 203.638 30.0496 203.834 30.2448L206.662 33.0732L203.834 35.9017C203.638 36.0969 203.638 36.4135 203.834 36.6088C204.029 36.804 204.345 36.804 204.541 36.6088L207.723 33.4268ZM190.9 33.5732H207.369V32.5732H190.9V33.5732Z" fill="#E8505B"/>
<path d="M7.45065 162.667C7.25538 162.862 7.25538 163.179 7.45065 163.374L10.6326 166.556C10.8279 166.751 11.1445 166.751 11.3397 166.556C11.535 166.361 11.535 166.044 11.3397 165.849L8.51131 163.021L11.3397 160.192C11.535 159.997 11.535 159.68 11.3397 159.485C11.1445 159.29 10.8279 159.29 10.6326 159.485L7.45065 162.667ZM1061.35 163.374C1061.55 163.179 1061.55 162.862 1061.35 162.667L1058.17 159.485C1057.98 159.29 1057.66 159.29 1057.46 159.485C1057.27 159.68 1057.27 159.997 1057.46 160.192L1060.29 163.02L1057.46 165.849C1057.27 166.044 1057.27 166.361 1057.46 166.556C1057.66 166.751 1057.98 166.751 1058.17 166.556L1061.35 163.374ZM7.8042 163.521L1061 163.52L1061 162.52L7.8042 162.521L7.8042 163.521Z" fill="#E8505B"/>
<rect opacity="0.5" x="7" y="45.1123" width="1054" height="82.3437" fill="#FF0000" fill-opacity="0.5"/>
<rect x="7" y="45.1123" width="32.9375" height="82.3437" fill="white"/>
<rect x="1028.06" y="45.1123" width="32.9375" height="82.3437" fill="white"/>
<rect x="107.184" y="45.1123" width="16.4687" height="82.3437" fill="white"/>
<rect x="190.9" y="45.1123" width="16.4687" height="82.3437" fill="white"/>
<rect x="274.189" y="45.1123" width="16.4687" height="82.3437" fill="white"/>
<rect x="358.302" y="45.1123" width="16.4687" height="82.3437" fill="white"/>
<rect x="442.064" y="45.1123" width="16.4687" height="82.3437" fill="white"/>
<rect x="525.354" y="45.1123" width="16.4687" height="82.3437" fill="white"/>
<rect x="609.467" y="45.1123" width="16.4687" height="82.3437" fill="white"/>
<rect x="692.757" y="45.1123" width="16.4687" height="82.3437" fill="white"/>
<rect x="776.046" y="45.1123" width="16.4687" height="82.3437" fill="white"/>
<rect x="860.158" y="45.1123" width="16.4687" height="82.3437" fill="white"/>
<rect x="943.921" y="45.1123" width="16.4687" height="82.3437" fill="white"/>
<path d="M7 62.3428L7 159.72" stroke="#E8505B" stroke-dasharray="11 11"/>
<path d="M1061.8 62.3428L1061.8 159.72" stroke="#E8505B" stroke-dasharray="11 11"/>
</svg>
